<?xml version="1.0" encoding="utf-8" standalone="no"?>
<!DOCTYPE svg PUBLIC "-//W3C//DTD SVG 1.1//EN"
  "http://www.w3.org/Graphics/SVG/1.1/DTD/svg11.dtd">
<svg xmlns:xlink="http://www.w3.org/1999/xlink" width="720pt" height="288pt" viewBox="0 0 720 288" xmlns="http://www.w3.org/2000/svg" version="1.1">
 <metadata>
  <rdf:RDF xmlns:dc="http://purl.org/dc/elements/1.1/" xmlns:cc="http://creativecommons.org/ns#" xmlns:rdf="http://www.w3.org/1999/02/22-rdf-syntax-ns#">
   <cc:Work>
    <dc:type rdf:resource="http://purl.org/dc/dcmitype/StillImage"/>
    <dc:date>2025-10-05T20:37:30.900044</dc:date>
    <dc:format>image/svg+xml</dc:format>
    <dc:creator>
     <cc:Agent>
      <dc:title>Matplotlib v3.6.3, https://matplotlib.org/</dc:title>
     </cc:Agent>
    </dc:creator>
   </cc:Work>
  </rdf:RDF>
 </metadata>
 <defs>
  <style type="text/css">*{stroke-linejoin: round; stroke-linecap: butt}</style>
 </defs>
 <g id="figure_1">
  <g id="patch_1">
   <path d="M 0 288 
L 720 288 
L 720 0 
L 0 0 
z
" style="fill: #ffffff"/>
  </g>
  <g id="axes_1">
   <g id="patch_2">
    <path d="M 54.30125 246.04 
L 614.207 246.04 
L 614.207 10.8 
L 54.30125 10.8 
z
" style="fill: #ffffff"/>
   </g>
   <g id="matplotlib.axis_1">
    <g id="xtick_1">
     <g id="line2d_1">
      <path d="M 66.700095 246.04 
L 66.700095 10.8 
" clip-path="url(#p1cb13071aa)" style="fill: none; stroke-dasharray: 0.5,0.825; stroke-dashoffset: 0; stroke: #b0b0b0; stroke-width: 0.5"/>
     </g>
     <g id="line2d_2">
      <defs>
       <path id="m7d4bb56f7d" d="M 0 0 
L 0 3.5 
" style="stroke: #000000; stroke-width: 0.8"/>
      </defs>
      <g>
       <use xlink:href="#m7d4bb56f7d" x="66.700095" y="246.04" style="stroke: #000000; stroke-width: 0.8"/>
      </g>
     </g>
     <g id="text_1">
      <!-- 0 -->
      <g transform="translate(63.518845 260.638438) scale(0.1 -0.1)">
       <defs>
        <path id="DejaVuSans-30" d="M 2034 4250 
Q 1547 4250 1301 3770 
Q 1056 3291 1056 2328 
Q 1056 1369 1301 889 
Q 1547 409 2034 409 
Q 2525 409 2770 889 
Q 3016 1369 3016 2328 
Q 3016 3291 2770 3770 
Q 2525 4250 2034 4250 
z
M 2034 4750 
Q 2819 4750 3233 4129 
Q 3647 3509 3647 2328 
Q 3647 1150 3233 529 
Q 2819 -91 2034 -91 
Q 1250 -91 836 529 
Q 422 1150 422 2328 
Q 422 3509 836 4129 
Q 1250 4750 2034 4750 
z
" transform="scale(0.015625)"/>
       </defs>
       <use xlink:href="#DejaVuSans-30"/>
      </g>
     </g>
    </g>
    <g id="xtick_2">
     <g id="line2d_3">
      <path d="M 131.957176 246.04 
L 131.957176 10.8 
" clip-path="url(#p1cb13071aa)" style="fill: none; stroke-dasharray: 0.5,0.825; stroke-dashoffset: 0; stroke: #b0b0b0; stroke-width: 0.5"/>
     </g>
     <g id="line2d_4">
      <g>
       <use xlink:href="#m7d4bb56f7d" x="131.957176" y="246.04" style="stroke: #000000; stroke-width: 0.8"/>
      </g>
     </g>
     <g id="text_2">
      <!-- 5 -->
      <g transform="translate(128.775926 260.638438) scale(0.1 -0.1)">
       <defs>
        <path id="DejaVuSans-35" d="M 691 4666 
L 3169 4666 
L 3169 4134 
L 1269 4134 
L 1269 2991 
Q 1406 3038 1543 3061 
Q 1681 3084 1819 3084 
Q 2600 3084 3056 2656 
Q 3513 2228 3513 1497 
Q 3513 744 3044 326 
Q 2575 -91 1722 -91 
Q 1428 -91 1123 -41 
Q 819 9 494 109 
L 494 744 
Q 775 591 1075 516 
Q 1375 441 1709 441 
Q 2250 441 2565 725 
Q 2881 1009 2881 1497 
Q 2881 1984 2565 2268 
Q 2250 2553 1709 2553 
Q 1456 2553 1204 2497 
Q 953 2441 691 2322 
L 691 4666 
z
" transform="scale(0.015625)"/>
       </defs>
       <use xlink:href="#DejaVuSans-35"/>
      </g>
     </g>
    </g>
    <g id="xtick_3">
     <g id="line2d_5">
      <path d="M 197.214256 246.04 
L 197.214256 10.8 
" clip-path="url(#p1cb13071aa)" style="fill: none; stroke-dasharray: 0.5,0.825; stroke-dashoffset: 0; stroke: #b0b0b0; stroke-width: 0.5"/>
     </g>
     <g id="line2d_6">
      <g>
       <use xlink:href="#m7d4bb56f7d" x="197.214256" y="246.04" style="stroke: #000000; stroke-width: 0.8"/>
      </g>
     </g>
     <g id="text_3">
      <!-- 10 -->
      <g transform="translate(190.851756 260.638438) scale(0.1 -0.1)">
       <defs>
        <path id="DejaVuSans-31" d="M 794 531 
L 1825 531 
L 1825 4091 
L 703 3866 
L 703 4441 
L 1819 4666 
L 2450 4666 
L 2450 531 
L 3481 531 
L 3481 0 
L 794 0 
L 794 531 
z
" transform="scale(0.015625)"/>
       </defs>
       <use xlink:href="#DejaVuSans-31"/>
       <use xlink:href="#DejaVuSans-30" x="63.623047"/>
      </g>
     </g>
    </g>
    <g id="xtick_4">
     <g id="line2d_7">
      <path d="M 262.471337 246.04 
L 262.471337 10.8 
" clip-path="url(#p1cb13071aa)" style="fill: none; stroke-dasharray: 0.5,0.825; stroke-dashoffset: 0; stroke: #b0b0b0; stroke-width: 0.5"/>
     </g>
     <g id="line2d_8">
      <g>
       <use xlink:href="#m7d4bb56f7d" x="262.471337" y="246.04" style="stroke: #000000; stroke-width: 0.8"/>
      </g>
     </g>
     <g id="text_4">
      <!-- 15 -->
      <g transform="translate(256.108837 260.638438) scale(0.1 -0.1)">
       <use xlink:href="#DejaVuSans-31"/>
       <use xlink:href="#DejaVuSans-35" x="63.623047"/>
      </g>
     </g>
    </g>
    <g id="xtick_5">
     <g id="line2d_9">
      <path d="M 327.728417 246.04 
L 327.728417 10.8 
" clip-path="url(#p1cb13071aa)" style="fill: none; stroke-dasharray: 0.5,0.825; stroke-dashoffset: 0; stroke: #b0b0b0; stroke-width: 0.5"/>
     </g>
     <g id="line2d_10">
      <g>
       <use xlink:href="#m7d4bb56f7d" x="327.728417" y="246.04" style="stroke: #000000; stroke-width: 0.8"/>
      </g>
     </g>
     <g id="text_5">
      <!-- 20 -->
      <g transform="translate(321.365917 260.638438) scale(0.1 -0.1)">
       <defs>
        <path id="DejaVuSans-32" d="M 1228 531 
L 3431 531 
L 3431 0 
L 469 0 
L 469 531 
Q 828 903 1448 1529 
Q 2069 2156 2228 2338 
Q 2531 2678 2651 2914 
Q 2772 3150 2772 3378 
Q 2772 3750 2511 3984 
Q 2250 4219 1831 4219 
Q 1534 4219 1204 4116 
Q 875 4013 500 3803 
L 500 4441 
Q 881 4594 1212 4672 
Q 1544 4750 1819 4750 
Q 2544 4750 2975 4387 
Q 3406 4025 3406 3419 
Q 3406 3131 3298 2873 
Q 3191 2616 2906 2266 
Q 2828 2175 2409 1742 
Q 1991 1309 1228 531 
z
" transform="scale(0.015625)"/>
       </defs>
       <use xlink:href="#DejaVuSans-32"/>
       <use xlink:href="#DejaVuSans-30" x="63.623047"/>
      </g>
     </g>
    </g>
    <g id="xtick_6">
     <g id="line2d_11">
      <path d="M 392.985497 246.04 
L 392.985497 10.8 
" clip-path="url(#p1cb13071aa)" style="fill: none; stroke-dasharray: 0.5,0.825; stroke-dashoffset: 0; stroke: #b0b0b0; stroke-width: 0.5"/>
     </g>
     <g id="line2d_12">
      <g>
       <use xlink:href="#m7d4bb56f7d" x="392.985497" y="246.04" style="stroke: #000000; stroke-width: 0.8"/>
      </g>
     </g>
     <g id="text_6">
      <!-- 25 -->
      <g transform="translate(386.622997 260.638438) scale(0.1 -0.1)">
       <use xlink:href="#DejaVuSans-32"/>
       <use xlink:href="#DejaVuSans-35" x="63.623047"/>
      </g>
     </g>
    </g>
    <g id="xtick_7">
     <g id="line2d_13">
      <path d="M 458.242578 246.04 
L 458.242578 10.8 
" clip-path="url(#p1cb13071aa)" style="fill: none; stroke-dasharray: 0.5,0.825; stroke-dashoffset: 0; stroke: #b0b0b0; stroke-width: 0.5"/>
     </g>
     <g id="line2d_14">
      <g>
       <use xlink:href="#m7d4bb56f7d" x="458.242578" y="246.04" style="stroke: #000000; stroke-width: 0.8"/>
      </g>
     </g>
     <g id="text_7">
      <!-- 30 -->
      <g transform="translate(451.880078 260.638438) scale(0.1 -0.1)">
       <defs>
        <path id="DejaVuSans-33" d="M 2597 2516 
Q 3050 2419 3304 2112 
Q 3559 1806 3559 1356 
Q 3559 666 3084 287 
Q 2609 -91 1734 -91 
Q 1441 -91 1130 -33 
Q 819 25 488 141 
L 488 750 
Q 750 597 1062 519 
Q 1375 441 1716 441 
Q 2309 441 2620 675 
Q 2931 909 2931 1356 
Q 2931 1769 2642 2001 
Q 2353 2234 1838 2234 
L 1294 2234 
L 1294 2753 
L 1863 2753 
Q 2328 2753 2575 2939 
Q 2822 3125 2822 3475 
Q 2822 3834 2567 4026 
Q 2313 4219 1838 4219 
Q 1578 4219 1281 4162 
Q 984 4106 628 3988 
L 628 4550 
Q 988 4650 1302 4700 
Q 1616 4750 1894 4750 
Q 2613 4750 3031 4423 
Q 3450 4097 3450 3541 
Q 3450 3153 3228 2886 
Q 3006 2619 2597 2516 
z
" transform="scale(0.015625)"/>
       </defs>
       <use xlink:href="#DejaVuSans-33"/>
       <use xlink:href="#DejaVuSans-30" x="63.623047"/>
      </g>
     </g>
    </g>
    <g id="xtick_8">
     <g id="line2d_15">
      <path d="M 523.499658 246.04 
L 523.499658 10.8 
" clip-path="url(#p1cb13071aa)" style="fill: none; stroke-dasharray: 0.5,0.825; stroke-dashoffset: 0; stroke: #b0b0b0; stroke-width: 0.5"/>
     </g>
     <g id="line2d_16">
      <g>
       <use xlink:href="#m7d4bb56f7d" x="523.499658" y="246.04" style="stroke: #000000; stroke-width: 0.8"/>
      </g>
     </g>
     <g id="text_8">
      <!-- 35 -->
      <g transform="translate(517.137158 260.638438) scale(0.1 -0.1)">
       <use xlink:href="#DejaVuSans-33"/>
       <use xlink:href="#DejaVuSans-35" x="63.623047"/>
      </g>
     </g>
    </g>
    <g id="xtick_9">
     <g id="line2d_17">
      <path d="M 588.756739 246.04 
L 588.756739 10.8 
" clip-path="url(#p1cb13071aa)" style="fill: none; stroke-dasharray: 0.5,0.825; stroke-dashoffset: 0; stroke: #b0b0b0; stroke-width: 0.5"/>
     </g>
     <g id="line2d_18">
      <g>
       <use xlink:href="#m7d4bb56f7d" x="588.756739" y="246.04" style="stroke: #000000; stroke-width: 0.8"/>
      </g>
     </g>
     <g id="text_9">
      <!-- 40 -->
      <g transform="translate(582.394239 260.638438) scale(0.1 -0.1)">
       <defs>
        <path id="DejaVuSans-34" d="M 2419 4116 
L 825 1625 
L 2419 1625 
L 2419 4116 
z
M 2253 4666 
L 3047 4666 
L 3047 1625 
L 3713 1625 
L 3713 1100 
L 3047 1100 
L 3047 0 
L 2419 0 
L 2419 1100 
L 313 1100 
L 313 1709 
L 2253 4666 
z
" transform="scale(0.015625)"/>
       </defs>
       <use xlink:href="#DejaVuSans-34"/>
       <use xlink:href="#DejaVuSans-30" x="63.623047"/>
      </g>
     </g>
    </g>
    <g id="text_10">
     <!-- segment -->
     <g transform="translate(312.322875 274.316562) scale(0.1 -0.1)">
      <defs>
       <path id="DejaVuSans-73" d="M 2834 3397 
L 2834 2853 
Q 2591 2978 2328 3040 
Q 2066 3103 1784 3103 
Q 1356 3103 1142 2972 
Q 928 2841 928 2578 
Q 928 2378 1081 2264 
Q 1234 2150 1697 2047 
L 1894 2003 
Q 2506 1872 2764 1633 
Q 3022 1394 3022 966 
Q 3022 478 2636 193 
Q 2250 -91 1575 -91 
Q 1294 -91 989 -36 
Q 684 19 347 128 
L 347 722 
Q 666 556 975 473 
Q 1284 391 1588 391 
Q 1994 391 2212 530 
Q 2431 669 2431 922 
Q 2431 1156 2273 1281 
Q 2116 1406 1581 1522 
L 1381 1569 
Q 847 1681 609 1914 
Q 372 2147 372 2553 
Q 372 3047 722 3315 
Q 1072 3584 1716 3584 
Q 2034 3584 2315 3537 
Q 2597 3491 2834 3397 
z
" transform="scale(0.015625)"/>
       <path id="DejaVuSans-65" d="M 3597 1894 
L 3597 1613 
L 953 1613 
Q 991 1019 1311 708 
Q 1631 397 2203 397 
Q 2534 397 2845 478 
Q 3156 559 3463 722 
L 3463 178 
Q 3153 47 2828 -22 
Q 2503 -91 2169 -91 
Q 1331 -91 842 396 
Q 353 884 353 1716 
Q 353 2575 817 3079 
Q 1281 3584 2069 3584 
Q 2775 3584 3186 3129 
Q 3597 2675 3597 1894 
z
M 3022 2063 
Q 3016 2534 2758 2815 
Q 2500 3097 2075 3097 
Q 1594 3097 1305 2825 
Q 1016 2553 972 2059 
L 3022 2063 
z
" transform="scale(0.015625)"/>
       <path id="DejaVuSans-67" d="M 2906 1791 
Q 2906 2416 2648 2759 
Q 2391 3103 1925 3103 
Q 1463 3103 1205 2759 
Q 947 2416 947 1791 
Q 947 1169 1205 825 
Q 1463 481 1925 481 
Q 2391 481 2648 825 
Q 2906 1169 2906 1791 
z
M 3481 434 
Q 3481 -459 3084 -895 
Q 2688 -1331 1869 -1331 
Q 1566 -1331 1297 -1286 
Q 1028 -1241 775 -1147 
L 775 -588 
Q 1028 -725 1275 -790 
Q 1522 -856 1778 -856 
Q 2344 -856 2625 -561 
Q 2906 -266 2906 331 
L 2906 616 
Q 2728 306 2450 153 
Q 2172 0 1784 0 
Q 1141 0 747 490 
Q 353 981 353 1791 
Q 353 2603 747 3093 
Q 1141 3584 1784 3584 
Q 2172 3584 2450 3431 
Q 2728 3278 2906 2969 
L 2906 3500 
L 3481 3500 
L 3481 434 
z
" transform="scale(0.015625)"/>
       <path id="DejaVuSans-6d" d="M 3328 2828 
Q 3544 3216 3844 3400 
Q 4144 3584 4550 3584 
Q 5097 3584 5394 3201 
Q 5691 2819 5691 2113 
L 5691 0 
L 5113 0 
L 5113 2094 
Q 5113 2597 4934 2840 
Q 4756 3084 4391 3084 
Q 3944 3084 3684 2787 
Q 3425 2491 3425 1978 
L 3425 0 
L 2847 0 
L 2847 2094 
Q 2847 2600 2669 2842 
Q 2491 3084 2119 3084 
Q 1678 3084 1418 2786 
Q 1159 2488 1159 1978 
L 1159 0 
L 581 0 
L 581 3500 
L 1159 3500 
L 1159 2956 
Q 1356 3278 1631 3431 
Q 1906 3584 2284 3584 
Q 2666 3584 2933 3390 
Q 3200 3197 3328 2828 
z
" transform="scale(0.015625)"/>
       <path id="DejaVuSans-6e" d="M 3513 2113 
L 3513 0 
L 2938 0 
L 2938 2094 
Q 2938 2591 2744 2837 
Q 2550 3084 2163 3084 
Q 1697 3084 1428 2787 
Q 1159 2491 1159 1978 
L 1159 0 
L 581 0 
L 581 3500 
L 1159 3500 
L 1159 2956 
Q 1366 3272 1645 3428 
Q 1925 3584 2291 3584 
Q 2894 3584 3203 3211 
Q 3513 2838 3513 2113 
z
" transform="scale(0.015625)"/>
       <path id="DejaVuSans-74" d="M 1172 4494 
L 1172 3500 
L 2356 3500 
L 2356 3053 
L 1172 3053 
L 1172 1153 
Q 1172 725 1289 603 
Q 1406 481 1766 481 
L 2356 481 
L 2356 0 
L 1766 0 
Q 1100 0 847 248 
Q 594 497 594 1153 
L 594 3053 
L 172 3053 
L 172 3500 
L 594 3500 
L 594 4494 
L 1172 4494 
z
" transform="scale(0.015625)"/>
      </defs>
      <use xlink:href="#DejaVuSans-73"/>
      <use xlink:href="#DejaVuSans-65" x="52.099609"/>
      <use xlink:href="#DejaVuSans-67" x="113.623047"/>
      <use xlink:href="#DejaVuSans-6d" x="177.099609"/>
      <use xlink:href="#DejaVuSans-65" x="274.511719"/>
      <use xlink:href="#DejaVuSans-6e" x="336.035156"/>
      <use xlink:href="#DejaVuSans-74" x="399.414062"/>
     </g>
    </g>
   </g>
   <g id="matplotlib.axis_2">
    <g id="ytick_1">
     <g id="line2d_19">
      <path d="M 54.30125 243.901455 
L 614.207 243.901455 
" clip-path="url(#p1cb13071aa)" style="fill: none; stroke-dasharray: 0.5,0.825; stroke-dashoffset: 0; stroke: #b0b0b0; stroke-width: 0.5"/>
     </g>
     <g id="line2d_20">
      <defs>
       <path id="m5678dba035" d="M 0 0 
L -3.5 0 
" style="stroke: #000000; stroke-width: 0.8"/>
      </defs>
      <g>
       <use xlink:href="#m5678dba035" x="54.30125" y="243.901455" style="stroke: #000000; stroke-width: 0.8"/>
      </g>
     </g>
     <g id="text_11">
      <!-- 0.00 -->
      <g transform="translate(25.035625 247.700673) scale(0.1 -0.1)">
       <defs>
        <path id="DejaVuSans-2e" d="M 684 794 
L 1344 794 
L 1344 0 
L 684 0 
L 684 794 
z
" transform="scale(0.015625)"/>
       </defs>
       <use xlink:href="#DejaVuSans-30"/>
       <use xlink:href="#DejaVuSans-2e" x="63.623047"/>
       <use xlink:href="#DejaVuSans-30" x="95.410156"/>
       <use xlink:href="#DejaVuSans-30" x="159.033203"/>
      </g>
     </g>
    </g>
    <g id="ytick_2">
     <g id="line2d_21">
      <path d="M 54.30125 201.130545 
L 614.207 201.130545 
" clip-path="url(#p1cb13071aa)" style="fill: none; stroke-dasharray: 0.5,0.825; stroke-dashoffset: 0; stroke: #b0b0b0; stroke-width: 0.5"/>
     </g>
     <g id="line2d_22">
      <g>
       <use xlink:href="#m5678dba035" x="54.30125" y="201.130545" style="stroke: #000000; stroke-width: 0.8"/>
      </g>
     </g>
     <g id="text_12">
      <!-- 0.05 -->
      <g transform="translate(25.035625 204.929764) scale(0.1 -0.1)">
       <use xlink:href="#DejaVuSans-30"/>
       <use xlink:href="#DejaVuSans-2e" x="63.623047"/>
       <use xlink:href="#DejaVuSans-30" x="95.410156"/>
       <use xlink:href="#DejaVuSans-35" x="159.033203"/>
      </g>
     </g>
    </g>
    <g id="ytick_3">
     <g id="line2d_23">
      <path d="M 54.30125 158.359636 
L 614.207 158.359636 
" clip-path="url(#p1cb13071aa)" style="fill: none; stroke-dasharray: 0.5,0.825; stroke-dashoffset: 0; stroke: #b0b0b0; stroke-width: 0.5"/>
     </g>
     <g id="line2d_24">
      <g>
       <use xlink:href="#m5678dba035" x="54.30125" y="158.359636" style="stroke: #000000; stroke-width: 0.8"/>
      </g>
     </g>
     <g id="text_13">
      <!-- 0.10 -->
      <g transform="translate(25.035625 162.158855) scale(0.1 -0.1)">
       <use xlink:href="#DejaVuSans-30"/>
       <use xlink:href="#DejaVuSans-2e" x="63.623047"/>
       <use xlink:href="#DejaVuSans-31" x="95.410156"/>
       <use xlink:href="#DejaVuSans-30" x="159.033203"/>
      </g>
     </g>
    </g>
    <g id="ytick_4">
     <g id="line2d_25">
      <path d="M 54.30125 115.588727 
L 614.207 115.588727 
" clip-path="url(#p1cb13071aa)" style="fill: none; stroke-dasharray: 0.5,0.825; stroke-dashoffset: 0; stroke: #b0b0b0; stroke-width: 0.5"/>
     </g>
     <g id="line2d_26">
      <g>
       <use xlink:href="#m5678dba035" x="54.30125" y="115.588727" style="stroke: #000000; stroke-width: 0.8"/>
      </g>
     </g>
     <g id="text_14">
      <!-- 0.15 -->
      <g transform="translate(25.035625 119.387946) scale(0.1 -0.1)">
       <use xlink:href="#DejaVuSans-30"/>
       <use xlink:href="#DejaVuSans-2e" x="63.623047"/>
       <use xlink:href="#DejaVuSans-31" x="95.410156"/>
       <use xlink:href="#DejaVuSans-35" x="159.033203"/>
      </g>
     </g>
    </g>
    <g id="ytick_5">
     <g id="line2d_27">
      <path d="M 54.30125 72.817818 
L 614.207 72.817818 
" clip-path="url(#p1cb13071aa)" style="fill: none; stroke-dasharray: 0.5,0.825; stroke-dashoffset: 0; stroke: #b0b0b0; stroke-width: 0.5"/>
     </g>
     <g id="line2d_28">
      <g>
       <use xlink:href="#m5678dba035" x="54.30125" y="72.817818" style="stroke: #000000; stroke-width: 0.8"/>
      </g>
     </g>
     <g id="text_15">
      <!-- 0.20 -->
      <g transform="translate(25.035625 76.617037) scale(0.1 -0.1)">
       <use xlink:href="#DejaVuSans-30"/>
       <use xlink:href="#DejaVuSans-2e" x="63.623047"/>
       <use xlink:href="#DejaVuSans-32" x="95.410156"/>
       <use xlink:href="#DejaVuSans-30" x="159.033203"/>
      </g>
     </g>
    </g>
    <g id="ytick_6">
     <g id="line2d_29">
      <path d="M 54.30125 30.046909 
L 614.207 30.046909 
" clip-path="url(#p1cb13071aa)" style="fill: none; stroke-dasharray: 0.5,0.825; stroke-dashoffset: 0; stroke: #b0b0b0; stroke-width: 0.5"/>
     </g>
     <g id="line2d_30">
      <g>
       <use xlink:href="#m5678dba035" x="54.30125" y="30.046909" style="stroke: #000000; stroke-width: 0.8"/>
      </g>
     </g>
     <g id="text_16">
      <!-- 0.25 -->
      <g transform="translate(25.035625 33.846128) scale(0.1 -0.1)">
       <use xlink:href="#DejaVuSans-30"/>
       <use xlink:href="#DejaVuSans-2e" x="63.623047"/>
       <use xlink:href="#DejaVuSans-32" x="95.410156"/>
       <use xlink:href="#DejaVuSans-35" x="159.033203"/>
      </g>
     </g>
    </g>
    <g id="text_17">
     <!-- max_dt -->
     <g transform="translate(18.677813 146.948125) rotate(-90) scale(0.1 -0.1)">
      <defs>
       <path id="DejaVuSans-61" d="M 2194 1759 
Q 1497 1759 1228 1600 
Q 959 1441 959 1056 
Q 959 750 1161 570 
Q 1363 391 1709 391 
Q 2188 391 2477 730 
Q 2766 1069 2766 1631 
L 2766 1759 
L 2194 1759 
z
M 3341 1997 
L 3341 0 
L 2766 0 
L 2766 531 
Q 2569 213 2275 61 
Q 1981 -91 1556 -91 
Q 1019 -91 701 211 
Q 384 513 384 1019 
Q 384 1609 779 1909 
Q 1175 2209 1959 2209 
L 2766 2209 
L 2766 2266 
Q 2766 2663 2505 2880 
Q 2244 3097 1772 3097 
Q 1472 3097 1187 3025 
Q 903 2953 641 2809 
L 641 3341 
Q 956 3463 1253 3523 
Q 1550 3584 1831 3584 
Q 2591 3584 2966 3190 
Q 3341 2797 3341 1997 
z
" transform="scale(0.015625)"/>
       <path id="DejaVuSans-78" d="M 3513 3500 
L 2247 1797 
L 3578 0 
L 2900 0 
L 1881 1375 
L 863 0 
L 184 0 
L 1544 1831 
L 300 3500 
L 978 3500 
L 1906 2253 
L 2834 3500 
L 3513 3500 
z
" transform="scale(0.015625)"/>
       <path id="DejaVuSans-5f" d="M 3263 -1063 
L 3263 -1509 
L -63 -1509 
L -63 -1063 
L 3263 -1063 
z
" transform="scale(0.015625)"/>
       <path id="DejaVuSans-64" d="M 2906 2969 
L 2906 4863 
L 3481 4863 
L 3481 0 
L 2906 0 
L 2906 525 
Q 2725 213 2448 61 
Q 2172 -91 1784 -91 
Q 1150 -91 751 415 
Q 353 922 353 1747 
Q 353 2572 751 3078 
Q 1150 3584 1784 3584 
Q 2172 3584 2448 3432 
Q 2725 3281 2906 2969 
z
M 947 1747 
Q 947 1113 1208 752 
Q 1469 391 1925 391 
Q 2381 391 2643 752 
Q 2906 1113 2906 1747 
Q 2906 2381 2643 2742 
Q 2381 3103 1925 3103 
Q 1469 3103 1208 2742 
Q 947 2381 947 1747 
z
" transform="scale(0.015625)"/>
      </defs>
      <use xlink:href="#DejaVuSans-6d"/>
      <use xlink:href="#DejaVuSans-61" x="97.412109"/>
      <use xlink:href="#DejaVuSans-78" x="158.691406"/>
      <use xlink:href="#DejaVuSans-5f" x="217.871094"/>
      <use xlink:href="#DejaVuSans-64" x="267.871094"/>
      <use xlink:href="#DejaVuSans-74" x="331.347656"/>
     </g>
    </g>
   </g>
   <g id="line2d_31">
    <path d="M 79.751511 21.492727 
L 92.802927 218.238909 
L 105.854344 226.793091 
L 118.90576 226.793091 
L 131.957176 226.793091 
L 145.008592 226.793091 
L 158.060008 226.793091 
L 171.111424 226.793091 
L 184.16284 226.793091 
L 197.214256 235.347273 
L 210.265672 235.347273 
L 223.317088 226.793091 
L 236.368504 235.347273 
L 249.41992 235.347273 
L 262.471337 235.347273 
L 275.522753 235.347273 
L 288.574169 235.347273 
L 301.625585 235.347273 
L 314.677001 226.793091 
L 327.728417 218.238909 
L 340.779833 192.576364 
L 353.831249 175.468 
L 366.882665 226.793091 
L 379.934081 226.793091 
L 392.985497 235.347273 
L 406.036913 226.793091 
L 419.08833 226.793091 
L 432.139746 226.793091 
L 445.191162 226.793091 
L 458.242578 235.347273 
L 471.293994 235.347273 
L 484.34541 235.347273 
L 497.396826 226.793091 
L 510.448242 218.238909 
L 523.499658 218.238909 
L 536.551074 209.684727 
L 549.60249 201.130545 
L 562.653906 226.793091 
L 575.705323 235.347273 
L 588.756739 226.793091 
" clip-path="url(#p1cb13071aa)" style="fill: none; stroke: #1f77b4; stroke-width: 1.5; stroke-linecap: square"/>
    <defs>
     <path id="m116d0642a3" d="M 0 3 
C 0.795609 3 1.55874 2.683901 2.12132 2.12132 
C 2.683901 1.55874 3 0.795609 3 0 
C 3 -0.795609 2.683901 -1.55874 2.12132 -2.12132 
C 1.55874 -2.683901 0.795609 -3 0 -3 
C -0.795609 -3 -1.55874 -2.683901 -2.12132 -2.12132 
C -2.683901 -1.55874 -3 -0.795609 -3 0 
C -3 0.795609 -2.683901 1.55874 -2.12132 2.12132 
C -1.55874 2.683901 -0.795609 3 0 3 
z
" style="stroke: #1f77b4"/>
    </defs>
    <g clip-path="url(#p1cb13071aa)">
     <use xlink:href="#m116d0642a3" x="79.751511" y="21.492727" style="fill: #1f77b4; stroke: #1f77b4"/>
     <use xlink:href="#m116d0642a3" x="92.802927" y="218.238909" style="fill: #1f77b4; stroke: #1f77b4"/>
     <use xlink:href="#m116d0642a3" x="105.854344" y="226.793091" style="fill: #1f77b4; stroke: #1f77b4"/>
     <use xlink:href="#m116d0642a3" x="118.90576" y="226.793091" style="fill: #1f77b4; stroke: #1f77b4"/>
     <use xlink:href="#m116d0642a3" x="131.957176" y="226.793091" style="fill: #1f77b4; stroke: #1f77b4"/>
     <use xlink:href="#m116d0642a3" x="145.008592" y="226.793091" style="fill: #1f77b4; stroke: #1f77b4"/>
     <use xlink:href="#m116d0642a3" x="158.060008" y="226.793091" style="fill: #1f77b4; stroke: #1f77b4"/>
     <use xlink:href="#m116d0642a3" x="171.111424" y="226.793091" style="fill: #1f77b4; stroke: #1f77b4"/>
     <use xlink:href="#m116d0642a3" x="184.16284" y="226.793091" style="fill: #1f77b4; stroke: #1f77b4"/>
     <use xlink:href="#m116d0642a3" x="197.214256" y="235.347273" style="fill: #1f77b4; stroke: #1f77b4"/>
     <use xlink:href="#m116d0642a3" x="210.265672" y="235.347273" style="fill: #1f77b4; stroke: #1f77b4"/>
     <use xlink:href="#m116d0642a3" x="223.317088" y="226.793091" style="fill: #1f77b4; stroke: #1f77b4"/>
     <use xlink:href="#m116d0642a3" x="236.368504" y="235.347273" style="fill: #1f77b4; stroke: #1f77b4"/>
     <use xlink:href="#m116d0642a3" x="249.41992" y="235.347273" style="fill: #1f77b4; stroke: #1f77b4"/>
     <use xlink:href="#m116d0642a3" x="262.471337" y="235.347273" style="fill: #1f77b4; stroke: #1f77b4"/>
     <use xlink:href="#m116d0642a3" x="275.522753" y="235.347273" style="fill: #1f77b4; stroke: #1f77b4"/>
     <use xlink:href="#m116d0642a3" x="288.574169" y="235.347273" style="fill: #1f77b4; stroke: #1f77b4"/>
     <use xlink:href="#m116d0642a3" x="301.625585" y="235.347273" style="fill: #1f77b4; stroke: #1f77b4"/>
     <use xlink:href="#m116d0642a3" x="314.677001" y="226.793091" style="fill: #1f77b4; stroke: #1f77b4"/>
     <use xlink:href="#m116d0642a3" x="327.728417" y="218.238909" style="fill: #1f77b4; stroke: #1f77b4"/>
     <use xlink:href="#m116d0642a3" x="340.779833" y="192.576364" style="fill: #1f77b4; stroke: #1f77b4"/>
     <use xlink:href="#m116d0642a3" x="353.831249" y="175.468" style="fill: #1f77b4; stroke: #1f77b4"/>
     <use xlink:href="#m116d0642a3" x="366.882665" y="226.793091" style="fill: #1f77b4; stroke: #1f77b4"/>
     <use xlink:href="#m116d0642a3" x="379.934081" y="226.793091" style="fill: #1f77b4; stroke: #1f77b4"/>
     <use xlink:href="#m116d0642a3" x="392.985497" y="235.347273" style="fill: #1f77b4; stroke: #1f77b4"/>
     <use xlink:href="#m116d0642a3" x="406.036913" y="226.793091" style="fill: #1f77b4; stroke: #1f77b4"/>
     <use xlink:href="#m116d0642a3" x="419.08833" y="226.793091" style="fill: #1f77b4; stroke: #1f77b4"/>
     <use xlink:href="#m116d0642a3" x="432.139746" y="226.793091" style="fill: #1f77b4; stroke: #1f77b4"/>
     <use xlink:href="#m116d0642a3" x="445.191162" y="226.793091" style="fill: #1f77b4; stroke: #1f77b4"/>
     <use xlink:href="#m116d0642a3" x="458.242578" y="235.347273" style="fill: #1f77b4; stroke: #1f77b4"/>
     <use xlink:href="#m116d0642a3" x="471.293994" y="235.347273" style="fill: #1f77b4; stroke: #1f77b4"/>
     <use xlink:href="#m116d0642a3" x="484.34541" y="235.347273" style="fill: #1f77b4; stroke: #1f77b4"/>
     <use xlink:href="#m116d0642a3" x="497.396826" y="226.793091" style="fill: #1f77b4; stroke: #1f77b4"/>
     <use xlink:href="#m116d0642a3" x="510.448242" y="218.238909" style="fill: #1f77b4; stroke: #1f77b4"/>
     <use xlink:href="#m116d0642a3" x="523.499658" y="218.238909" style="fill: #1f77b4; stroke: #1f77b4"/>
     <use xlink:href="#m116d0642a3" x="536.551074" y="209.684727" style="fill: #1f77b4; stroke: #1f77b4"/>
     <use xlink:href="#m116d0642a3" x="549.60249" y="201.130545" style="fill: #1f77b4; stroke: #1f77b4"/>
     <use xlink:href="#m116d0642a3" x="562.653906" y="226.793091" style="fill: #1f77b4; stroke: #1f77b4"/>
     <use xlink:href="#m116d0642a3" x="575.705323" y="235.347273" style="fill: #1f77b4; stroke: #1f77b4"/>
     <use xlink:href="#m116d0642a3" x="588.756739" y="226.793091" style="fill: #1f77b4; stroke: #1f77b4"/>
    </g>
   </g>
   <g id="line2d_32">
    <defs>
     <path id="m227f41ecaf" d="M -3 3 
L 3 -3 
M -3 -3 
L 3 3 
" style="stroke: #ff7f0e"/>
    </defs>
    <g clip-path="url(#p1cb13071aa)">
     <use xlink:href="#m227f41ecaf" x="301.625585" y="235.347273" style="fill: #ff7f0e; stroke: #ff7f0e"/>
     <use xlink:href="#m227f41ecaf" x="314.677001" y="226.793091" style="fill: #ff7f0e; stroke: #ff7f0e"/>
     <use xlink:href="#m227f41ecaf" x="327.728417" y="218.238909" style="fill: #ff7f0e; stroke: #ff7f0e"/>
     <use xlink:href="#m227f41ecaf" x="340.779833" y="192.576364" style="fill: #ff7f0e; stroke: #ff7f0e"/>
     <use xlink:href="#m227f41ecaf" x="353.831249" y="175.468" style="fill: #ff7f0e; stroke: #ff7f0e"/>
     <use xlink:href="#m227f41ecaf" x="497.396826" y="226.793091" style="fill: #ff7f0e; stroke: #ff7f0e"/>
     <use xlink:href="#m227f41ecaf" x="510.448242" y="218.238909" style="fill: #ff7f0e; stroke: #ff7f0e"/>
     <use xlink:href="#m227f41ecaf" x="523.499658" y="218.238909" style="fill: #ff7f0e; stroke: #ff7f0e"/>
     <use xlink:href="#m227f41ecaf" x="536.551074" y="209.684727" style="fill: #ff7f0e; stroke: #ff7f0e"/>
     <use xlink:href="#m227f41ecaf" x="549.60249" y="201.130545" style="fill: #ff7f0e; stroke: #ff7f0e"/>
    </g>
   </g>
   <g id="line2d_33">
    <path d="M 79.751511 21.492727 
L 92.802927 226.793091 
L 105.854344 226.793091 
L 118.90576 226.793091 
L 131.957176 226.793091 
L 145.008592 226.793091 
L 158.060008 226.793091 
L 171.111424 226.793091 
L 184.16284 226.793091 
L 197.214256 226.793091 
L 210.265672 235.347273 
L 223.317088 226.793091 
L 236.368504 235.347273 
L 249.41992 235.347273 
L 262.471337 235.347273 
L 275.522753 235.347273 
L 288.574169 235.347273 
L 301.625585 235.347273 
L 314.677001 235.347273 
L 327.728417 235.347273 
L 340.779833 226.793091 
L 353.831249 226.793091 
L 366.882665 226.793091 
L 379.934081 226.793091 
L 392.985497 226.793091 
L 406.036913 226.793091 
L 419.08833 226.793091 
L 432.139746 226.793091 
L 445.191162 226.793091 
L 458.242578 235.347273 
L 471.293994 235.347273 
L 484.34541 235.347273 
L 497.396826 226.793091 
L 510.448242 226.793091 
L 523.499658 218.238909 
L 536.551074 209.684727 
L 549.60249 201.130545 
L 562.653906 226.793091 
L 575.705323 226.793091 
L 588.756739 235.347273 
" clip-path="url(#p1cb13071aa)" style="fill: none; stroke: #2ca02c; stroke-width: 1.5; stroke-linecap: square"/>
    <defs>
     <path id="mf7f39fedbd" d="M 0 3 
C 0.795609 3 1.55874 2.683901 2.12132 2.12132 
C 2.683901 1.55874 3 0.795609 3 0 
C 3 -0.795609 2.683901 -1.55874 2.12132 -2.12132 
C 1.55874 -2.683901 0.795609 -3 0 -3 
C -0.795609 -3 -1.55874 -2.683901 -2.12132 -2.12132 
C -2.683901 -1.55874 -3 -0.795609 -3 0 
C -3 0.795609 -2.683901 1.55874 -2.12132 2.12132 
C -1.55874 2.683901 -0.795609 3 0 3 
z
" style="stroke: #2ca02c"/>
    </defs>
    <g clip-path="url(#p1cb13071aa)">
     <use xlink:href="#mf7f39fedbd" x="79.751511" y="21.492727" style="fill: #2ca02c; stroke: #2ca02c"/>
     <use xlink:href="#mf7f39fedbd" x="92.802927" y="226.793091" style="fill: #2ca02c; stroke: #2ca02c"/>
     <use xlink:href="#mf7f39fedbd" x="105.854344" y="226.793091" style="fill: #2ca02c; stroke: #2ca02c"/>
     <use xlink:href="#mf7f39fedbd" x="118.90576" y="226.793091" style="fill: #2ca02c; stroke: #2ca02c"/>
     <use xlink:href="#mf7f39fedbd" x="131.957176" y="226.793091" style="fill: #2ca02c; stroke: #2ca02c"/>
     <use xlink:href="#mf7f39fedbd" x="145.008592" y="226.793091" style="fill: #2ca02c; stroke: #2ca02c"/>
     <use xlink:href="#mf7f39fedbd" x="158.060008" y="226.793091" style="fill: #2ca02c; stroke: #2ca02c"/>
     <use xlink:href="#mf7f39fedbd" x="171.111424" y="226.793091" style="fill: #2ca02c; stroke: #2ca02c"/>
     <use xlink:href="#mf7f39fedbd" x="184.16284" y="226.793091" style="fill: #2ca02c; stroke: #2ca02c"/>
     <use xlink:href="#mf7f39fedbd" x="197.214256" y="226.793091" style="fill: #2ca02c; stroke: #2ca02c"/>
     <use xlink:href="#mf7f39fedbd" x="210.265672" y="235.347273" style="fill: #2ca02c; stroke: #2ca02c"/>
     <use xlink:href="#mf7f39fedbd" x="223.317088" y="226.793091" style="fill: #2ca02c; stroke: #2ca02c"/>
     <use xlink:href="#mf7f39fedbd" x="236.368504" y="235.347273" style="fill: #2ca02c; stroke: #2ca02c"/>
     <use xlink:href="#mf7f39fedbd" x="249.41992" y="235.347273" style="fill: #2ca02c; stroke: #2ca02c"/>
     <use xlink:href="#mf7f39fedbd" x="262.471337" y="235.347273" style="fill: #2ca02c; stroke: #2ca02c"/>
     <use xlink:href="#mf7f39fedbd" x="275.522753" y="235.347273" style="fill: #2ca02c; stroke: #2ca02c"/>
     <use xlink:href="#mf7f39fedbd" x="288.574169" y="235.347273" style="fill: #2ca02c; stroke: #2ca02c"/>
     <use xlink:href="#mf7f39fedbd" x="301.625585" y="235.347273" style="fill: #2ca02c; stroke: #2ca02c"/>
     <use xlink:href="#mf7f39fedbd" x="314.677001" y="235.347273" style="fill: #2ca02c; stroke: #2ca02c"/>
     <use xlink:href="#mf7f39fedbd" x="327.728417" y="235.347273" style="fill: #2ca02c; stroke: #2ca02c"/>
     <use xlink:href="#mf7f39fedbd" x="340.779833" y="226.793091" style="fill: #2ca02c; stroke: #2ca02c"/>
     <use xlink:href="#mf7f39fedbd" x="353.831249" y="226.793091" style="fill: #2ca02c; stroke: #2ca02c"/>
     <use xlink:href="#mf7f39fedbd" x="366.882665" y="226.793091" style="fill: #2ca02c; stroke: #2ca02c"/>
     <use xlink:href="#mf7f39fedbd" x="379.934081" y="226.793091" style="fill: #2ca02c; stroke: #2ca02c"/>
     <use xlink:href="#mf7f39fedbd" x="392.985497" y="226.793091" style="fill: #2ca02c; stroke: #2ca02c"/>
     <use xlink:href="#mf7f39fedbd" x="406.036913" y="226.793091" style="fill: #2ca02c; stroke: #2ca02c"/>
     <use xlink:href="#mf7f39fedbd" x="419.08833" y="226.793091" style="fill: #2ca02c; stroke: #2ca02c"/>
     <use xlink:href="#mf7f39fedbd" x="432.139746" y="226.793091" style="fill: #2ca02c; stroke: #2ca02c"/>
     <use xlink:href="#mf7f39fedbd" x="445.191162" y="226.793091" style="fill: #2ca02c; stroke: #2ca02c"/>
     <use xlink:href="#mf7f39fedbd" x="458.242578" y="235.347273" style="fill: #2ca02c; stroke: #2ca02c"/>
     <use xlink:href="#mf7f39fedbd" x="471.293994" y="235.347273" style="fill: #2ca02c; stroke: #2ca02c"/>
     <use xlink:href="#mf7f39fedbd" x="484.34541" y="235.347273" style="fill: #2ca02c; stroke: #2ca02c"/>
     <use xlink:href="#mf7f39fedbd" x="497.396826" y="226.793091" style="fill: #2ca02c; stroke: #2ca02c"/>
     <use xlink:href="#mf7f39fedbd" x="510.448242" y="226.793091" style="fill: #2ca02c; stroke: #2ca02c"/>
     <use xlink:href="#mf7f39fedbd" x="523.499658" y="218.238909" style="fill: #2ca02c; stroke: #2ca02c"/>
     <use xlink:href="#mf7f39fedbd" x="536.551074" y="209.684727" style="fill: #2ca02c; stroke: #2ca02c"/>
     <use xlink:href="#mf7f39fedbd" x="549.60249" y="201.130545" style="fill: #2ca02c; stroke: #2ca02c"/>
     <use xlink:href="#mf7f39fedbd" x="562.653906" y="226.793091" style="fill: #2ca02c; stroke: #2ca02c"/>
     <use xlink:href="#mf7f39fedbd" x="575.705323" y="226.793091" style="fill: #2ca02c; stroke: #2ca02c"/>
     <use xlink:href="#mf7f39fedbd" x="588.756739" y="235.347273" style="fill: #2ca02c; stroke: #2ca02c"/>
    </g>
   </g>
   <g id="line2d_34">
    <defs>
     <path id="mbbf217c701" d="M -3 3 
L 3 -3 
M -3 -3 
L 3 3 
" style="stroke: #d62728"/>
    </defs>
    <g clip-path="url(#p1cb13071aa)">
     <use xlink:href="#mbbf217c701" x="497.396826" y="226.793091" style="fill: #d62728; stroke: #d62728"/>
     <use xlink:href="#mbbf217c701" x="510.448242" y="226.793091" style="fill: #d62728; stroke: #d62728"/>
     <use xlink:href="#mbbf217c701" x="523.499658" y="218.238909" style="fill: #d62728; stroke: #d62728"/>
     <use xlink:href="#mbbf217c701" x="536.551074" y="209.684727" style="fill: #d62728; stroke: #d62728"/>
     <use xlink:href="#mbbf217c701" x="549.60249" y="201.130545" style="fill: #d62728; stroke: #d62728"/>
    </g>
   </g>
   <g id="line2d_35">
    <path d="M 79.751511 21.492727 
L 92.802927 184.022182 
L 105.854344 184.022182 
L 118.90576 175.468 
L 131.957176 184.022182 
L 145.008592 184.022182 
L 158.060008 175.468 
L 171.111424 184.022182 
L 184.16284 175.468 
L 197.214256 175.468 
L 210.265672 166.913818 
L 223.317088 184.022182 
L 236.368504 201.130545 
L 249.41992 201.130545 
L 262.471337 192.576364 
L 275.522753 166.913818 
L 288.574169 166.913818 
L 301.625585 149.805455 
L 314.677001 192.576364 
L 327.728417 141.251273 
L 340.779833 175.468 
L 353.831249 149.805455 
L 366.882665 141.251273 
L 379.934081 124.142909 
L 392.985497 141.251273 
L 406.036913 141.251273 
L 419.08833 158.359636 
L 432.139746 158.359636 
L 445.191162 158.359636 
L 458.242578 175.468 
L 471.293994 175.468 
L 484.34541 175.468 
L 497.396826 115.588727 
L 510.448242 115.588727 
L 523.499658 124.142909 
L 536.551074 141.251273 
L 549.60249 141.251273 
L 562.653906 124.142909 
L 575.705323 124.142909 
L 588.756739 124.142909 
" clip-path="url(#p1cb13071aa)" style="fill: none; stroke: #9467bd; stroke-width: 1.5; stroke-linecap: square"/>
    <defs>
     <path id="mcc777476b6" d="M 0 3 
C 0.795609 3 1.55874 2.683901 2.12132 2.12132 
C 2.683901 1.55874 3 0.795609 3 0 
C 3 -0.795609 2.683901 -1.55874 2.12132 -2.12132 
C 1.55874 -2.683901 0.795609 -3 0 -3 
C -0.795609 -3 -1.55874 -2.683901 -2.12132 -2.12132 
C -2.683901 -1.55874 -3 -0.795609 -3 0 
C -3 0.795609 -2.683901 1.55874 -2.12132 2.12132 
C -1.55874 2.683901 -0.795609 3 0 3 
z
" style="stroke: #9467bd"/>
    </defs>
    <g clip-path="url(#p1cb13071aa)">
     <use xlink:href="#mcc777476b6" x="79.751511" y="21.492727" style="fill: #9467bd; stroke: #9467bd"/>
     <use xlink:href="#mcc777476b6" x="92.802927" y="184.022182" style="fill: #9467bd; stroke: #9467bd"/>
     <use xlink:href="#mcc777476b6" x="105.854344" y="184.022182" style="fill: #9467bd; stroke: #9467bd"/>
     <use xlink:href="#mcc777476b6" x="118.90576" y="175.468" style="fill: #9467bd; stroke: #9467bd"/>
     <use xlink:href="#mcc777476b6" x="131.957176" y="184.022182" style="fill: #9467bd; stroke: #9467bd"/>
     <use xlink:href="#mcc777476b6" x="145.008592" y="184.022182" style="fill: #9467bd; stroke: #9467bd"/>
     <use xlink:href="#mcc777476b6" x="158.060008" y="175.468" style="fill: #9467bd; stroke: #9467bd"/>
     <use xlink:href="#mcc777476b6" x="171.111424" y="184.022182" style="fill: #9467bd; stroke: #9467bd"/>
     <use xlink:href="#mcc777476b6" x="184.16284" y="175.468" style="fill: #9467bd; stroke: #9467bd"/>
     <use xlink:href="#mcc777476b6" x="197.214256" y="175.468" style="fill: #9467bd; stroke: #9467bd"/>
     <use xlink:href="#mcc777476b6" x="210.265672" y="166.913818" style="fill: #9467bd; stroke: #9467bd"/>
     <use xlink:href="#mcc777476b6" x="223.317088" y="184.022182" style="fill: #9467bd; stroke: #9467bd"/>
     <use xlink:href="#mcc777476b6" x="236.368504" y="201.130545" style="fill: #9467bd; stroke: #9467bd"/>
     <use xlink:href="#mcc777476b6" x="249.41992" y="201.130545" style="fill: #9467bd; stroke: #9467bd"/>
     <use xlink:href="#mcc777476b6" x="262.471337" y="192.576364" style="fill: #9467bd; stroke: #9467bd"/>
     <use xlink:href="#mcc777476b6" x="275.522753" y="166.913818" style="fill: #9467bd; stroke: #9467bd"/>
     <use xlink:href="#mcc777476b6" x="288.574169" y="166.913818" style="fill: #9467bd; stroke: #9467bd"/>
     <use xlink:href="#mcc777476b6" x="301.625585" y="149.805455" style="fill: #9467bd; stroke: #9467bd"/>
     <use xlink:href="#mcc777476b6" x="314.677001" y="192.576364" style="fill: #9467bd; stroke: #9467bd"/>
     <use xlink:href="#mcc777476b6" x="327.728417" y="141.251273" style="fill: #9467bd; stroke: #9467bd"/>
     <use xlink:href="#mcc777476b6" x="340.779833" y="175.468" style="fill: #9467bd; stroke: #9467bd"/>
     <use xlink:href="#mcc777476b6" x="353.831249" y="149.805455" style="fill: #9467bd; stroke: #9467bd"/>
     <use xlink:href="#mcc777476b6" x="366.882665" y="141.251273" style="fill: #9467bd; stroke: #9467bd"/>
     <use xlink:href="#mcc777476b6" x="379.934081" y="124.142909" style="fill: #9467bd; stroke: #9467bd"/>
     <use xlink:href="#mcc777476b6" x="392.985497" y="141.251273" style="fill: #9467bd; stroke: #9467bd"/>
     <use xlink:href="#mcc777476b6" x="406.036913" y="141.251273" style="fill: #9467bd; stroke: #9467bd"/>
     <use xlink:href="#mcc777476b6" x="419.08833" y="158.359636" style="fill: #9467bd; stroke: #9467bd"/>
     <use xlink:href="#mcc777476b6" x="432.139746" y="158.359636" style="fill: #9467bd; stroke: #9467bd"/>
     <use xlink:href="#mcc777476b6" x="445.191162" y="158.359636" style="fill: #9467bd; stroke: #9467bd"/>
     <use xlink:href="#mcc777476b6" x="458.242578" y="175.468" style="fill: #9467bd; stroke: #9467bd"/>
     <use xlink:href="#mcc777476b6" x="471.293994" y="175.468" style="fill: #9467bd; stroke: #9467bd"/>
     <use xlink:href="#mcc777476b6" x="484.34541" y="175.468" style="fill: #9467bd; stroke: #9467bd"/>
     <use xlink:href="#mcc777476b6" x="497.396826" y="115.588727" style="fill: #9467bd; stroke: #9467bd"/>
     <use xlink:href="#mcc777476b6" x="510.448242" y="115.588727" style="fill: #9467bd; stroke: #9467bd"/>
     <use xlink:href="#mcc777476b6" x="523.499658" y="124.142909" style="fill: #9467bd; stroke: #9467bd"/>
     <use xlink:href="#mcc777476b6" x="536.551074" y="141.251273" style="fill: #9467bd; stroke: #9467bd"/>
     <use xlink:href="#mcc777476b6" x="549.60249" y="141.251273" style="fill: #9467bd; stroke: #9467bd"/>
     <use xlink:href="#mcc777476b6" x="562.653906" y="124.142909" style="fill: #9467bd; stroke: #9467bd"/>
     <use xlink:href="#mcc777476b6" x="575.705323" y="124.142909" style="fill: #9467bd; stroke: #9467bd"/>
     <use xlink:href="#mcc777476b6" x="588.756739" y="124.142909" style="fill: #9467bd; stroke: #9467bd"/>
    </g>
   </g>
   <g id="line2d_36">
    <path d="M 79.751511 21.492727 
L 92.802927 184.022182 
L 105.854344 184.022182 
L 118.90576 175.468 
L 131.957176 184.022182 
L 145.008592 175.468 
L 158.060008 166.913818 
L 171.111424 184.022182 
L 184.16284 175.468 
L 197.214256 192.576364 
L 210.265672 166.913818 
L 223.317088 192.576364 
L 236.368504 201.130545 
L 249.41992 184.022182 
L 262.471337 201.130545 
L 275.522753 166.913818 
L 288.574169 184.022182 
L 301.625585 192.576364 
L 314.677001 166.913818 
L 327.728417 192.576364 
L 340.779833 166.913818 
L 353.831249 158.359636 
L 366.882665 149.805455 
L 379.934081 124.142909 
L 392.985497 124.142909 
L 406.036913 132.697091 
L 419.08833 218.238909 
L 432.139746 115.588727 
L 445.191162 115.588727 
L 458.242578 124.142909 
L 471.293994 124.142909 
L 484.34541 132.697091 
L 497.396826 132.697091 
L 510.448242 115.588727 
L 523.499658 158.359636 
L 536.551074 166.913818 
L 549.60249 141.251273 
L 562.653906 184.022182 
L 575.705323 192.576364 
L 588.756739 201.130545 
" clip-path="url(#p1cb13071aa)" style="fill: none; stroke: #8c564b; stroke-width: 1.5; stroke-linecap: square"/>
    <defs>
     <path id="mbaf0f9cca3" d="M 0 3 
C 0.795609 3 1.55874 2.683901 2.12132 2.12132 
C 2.683901 1.55874 3 0.795609 3 0 
C 3 -0.795609 2.683901 -1.55874 2.12132 -2.12132 
C 1.55874 -2.683901 0.795609 -3 0 -3 
C -0.795609 -3 -1.55874 -2.683901 -2.12132 -2.12132 
C -2.683901 -1.55874 -3 -0.795609 -3 0 
C -3 0.795609 -2.683901 1.55874 -2.12132 2.12132 
C -1.55874 2.683901 -0.795609 3 0 3 
z
" style="stroke: #8c564b"/>
    </defs>
    <g clip-path="url(#p1cb13071aa)">
     <use xlink:href="#mbaf0f9cca3" x="79.751511" y="21.492727" style="fill: #8c564b; stroke: #8c564b"/>
     <use xlink:href="#mbaf0f9cca3" x="92.802927" y="184.022182" style="fill: #8c564b; stroke: #8c564b"/>
     <use xlink:href="#mbaf0f9cca3" x="105.854344" y="184.022182" style="fill: #8c564b; stroke: #8c564b"/>
     <use xlink:href="#mbaf0f9cca3" x="118.90576" y="175.468" style="fill: #8c564b; stroke: #8c564b"/>
     <use xlink:href="#mbaf0f9cca3" x="131.957176" y="184.022182" style="fill: #8c564b; stroke: #8c564b"/>
     <use xlink:href="#mbaf0f9cca3" x="145.008592" y="175.468" style="fill: #8c564b; stroke: #8c564b"/>
     <use xlink:href="#mbaf0f9cca3" x="158.060008" y="166.913818" style="fill: #8c564b; stroke: #8c564b"/>
     <use xlink:href="#mbaf0f9cca3" x="171.111424" y="184.022182" style="fill: #8c564b; stroke: #8c564b"/>
     <use xlink:href="#mbaf0f9cca3" x="184.16284" y="175.468" style="fill: #8c564b; stroke: #8c564b"/>
     <use xlink:href="#mbaf0f9cca3" x="197.214256" y="192.576364" style="fill: #8c564b; stroke: #8c564b"/>
     <use xlink:href="#mbaf0f9cca3" x="210.265672" y="166.913818" style="fill: #8c564b; stroke: #8c564b"/>
     <use xlink:href="#mbaf0f9cca3" x="223.317088" y="192.576364" style="fill: #8c564b; stroke: #8c564b"/>
     <use xlink:href="#mbaf0f9cca3" x="236.368504" y="201.130545" style="fill: #8c564b; stroke: #8c564b"/>
     <use xlink:href="#mbaf0f9cca3" x="249.41992" y="184.022182" style="fill: #8c564b; stroke: #8c564b"/>
     <use xlink:href="#mbaf0f9cca3" x="262.471337" y="201.130545" style="fill: #8c564b; stroke: #8c564b"/>
     <use xlink:href="#mbaf0f9cca3" x="275.522753" y="166.913818" style="fill: #8c564b; stroke: #8c564b"/>
     <use xlink:href="#mbaf0f9cca3" x="288.574169" y="184.022182" style="fill: #8c564b; stroke: #8c564b"/>
     <use xlink:href="#mbaf0f9cca3" x="301.625585" y="192.576364" style="fill: #8c564b; stroke: #8c564b"/>
     <use xlink:href="#mbaf0f9cca3" x="314.677001" y="166.913818" style="fill: #8c564b; stroke: #8c564b"/>
     <use xlink:href="#mbaf0f9cca3" x="327.728417" y="192.576364" style="fill: #8c564b; stroke: #8c564b"/>
     <use xlink:href="#mbaf0f9cca3" x="340.779833" y="166.913818" style="fill: #8c564b; stroke: #8c564b"/>
     <use xlink:href="#mbaf0f9cca3" x="353.831249" y="158.359636" style="fill: #8c564b; stroke: #8c564b"/>
     <use xlink:href="#mbaf0f9cca3" x="366.882665" y="149.805455" style="fill: #8c564b; stroke: #8c564b"/>
     <use xlink:href="#mbaf0f9cca3" x="379.934081" y="124.142909" style="fill: #8c564b; stroke: #8c564b"/>
     <use xlink:href="#mbaf0f9cca3" x="392.985497" y="124.142909" style="fill: #8c564b; stroke: #8c564b"/>
     <use xlink:href="#mbaf0f9cca3" x="406.036913" y="132.697091" style="fill: #8c564b; stroke: #8c564b"/>
     <use xlink:href="#mbaf0f9cca3" x="419.08833" y="218.238909" style="fill: #8c564b; stroke: #8c564b"/>
     <use xlink:href="#mbaf0f9cca3" x="432.139746" y="115.588727" style="fill: #8c564b; stroke: #8c564b"/>
     <use xlink:href="#mbaf0f9cca3" x="445.191162" y="115.588727" style="fill: #8c564b; stroke: #8c564b"/>
     <use xlink:href="#mbaf0f9cca3" x="458.242578" y="124.142909" style="fill: #8c564b; stroke: #8c564b"/>
     <use xlink:href="#mbaf0f9cca3" x="471.293994" y="124.142909" style="fill: #8c564b; stroke: #8c564b"/>
     <use xlink:href="#mbaf0f9cca3" x="484.34541" y="132.697091" style="fill: #8c564b; stroke: #8c564b"/>
     <use xlink:href="#mbaf0f9cca3" x="497.396826" y="132.697091" style="fill: #8c564b; stroke: #8c564b"/>
     <use xlink:href="#mbaf0f9cca3" x="510.448242" y="115.588727" style="fill: #8c564b; stroke: #8c564b"/>
     <use xlink:href="#mbaf0f9cca3" x="523.499658" y="158.359636" style="fill: #8c564b; stroke: #8c564b"/>
     <use xlink:href="#mbaf0f9cca3" x="536.551074" y="166.913818" style="fill: #8c564b; stroke: #8c564b"/>
     <use xlink:href="#mbaf0f9cca3" x="549.60249" y="141.251273" style="fill: #8c564b; stroke: #8c564b"/>
     <use xlink:href="#mbaf0f9cca3" x="562.653906" y="184.022182" style="fill: #8c564b; stroke: #8c564b"/>
     <use xlink:href="#mbaf0f9cca3" x="575.705323" y="192.576364" style="fill: #8c564b; stroke: #8c564b"/>
     <use xlink:href="#mbaf0f9cca3" x="588.756739" y="201.130545" style="fill: #8c564b; stroke: #8c564b"/>
    </g>
   </g>
   <g id="patch_3">
    <path d="M 54.30125 246.04 
L 54.30125 10.8 
" style="fill: none; stroke: #000000; stroke-width: 0.8; stroke-linejoin: miter; stroke-linecap: square"/>
   </g>
   <g id="patch_4">
    <path d="M 614.207 246.04 
L 614.207 10.8 
" style="fill: none; stroke: #000000; stroke-width: 0.8; stroke-linejoin: miter; stroke-linecap: square"/>
   </g>
   <g id="patch_5">
    <path d="M 54.30125 246.04 
L 614.207 246.04 
" style="fill: none; stroke: #000000; stroke-width: 0.8; stroke-linejoin: miter; stroke-linecap: square"/>
   </g>
   <g id="patch_6">
    <path d="M 54.30125 10.8 
L 614.207 10.8 
" style="fill: none; stroke: #000000; stroke-width: 0.8; stroke-linejoin: miter; stroke-linecap: square"/>
   </g>
   <g id="legend_1">
    <g id="patch_7">
     <path d="M 620.038 154.123256 
L 707.398875 154.123256 
Q 709.064875 154.123256 709.064875 152.457256 
L 709.064875 104.382744 
Q 709.064875 102.716744 707.398875 102.716744 
L 620.038 102.716744 
Q 618.372 102.716744 618.372 104.382744 
L 618.372 152.457256 
Q 618.372 154.123256 620.038 154.123256 
z
" style="fill: #ffffff; opacity: 0.8; stroke: #cccccc; stroke-linejoin: miter"/>
    </g>
    <g id="line2d_37">
     <path d="M 621.704 109.462742 
L 630.034 109.462742 
L 638.364 109.462742 
" style="fill: none; stroke: #1f77b4; stroke-width: 1.5; stroke-linecap: square"/>
     <g>
      <use xlink:href="#m116d0642a3" x="630.034" y="109.462742" style="fill: #1f77b4; stroke: #1f77b4"/>
     </g>
    </g>
    <g id="text_18">
     <!-- 8-F250-gilbert -->
     <g transform="translate(645.028 112.378242) scale(0.0833 -0.0833)">
      <defs>
       <path id="DejaVuSans-38" d="M 2034 2216 
Q 1584 2216 1326 1975 
Q 1069 1734 1069 1313 
Q 1069 891 1326 650 
Q 1584 409 2034 409 
Q 2484 409 2743 651 
Q 3003 894 3003 1313 
Q 3003 1734 2745 1975 
Q 2488 2216 2034 2216 
z
M 1403 2484 
Q 997 2584 770 2862 
Q 544 3141 544 3541 
Q 544 4100 942 4425 
Q 1341 4750 2034 4750 
Q 2731 4750 3128 4425 
Q 3525 4100 3525 3541 
Q 3525 3141 3298 2862 
Q 3072 2584 2669 2484 
Q 3125 2378 3379 2068 
Q 3634 1759 3634 1313 
Q 3634 634 3220 271 
Q 2806 -91 2034 -91 
Q 1263 -91 848 271 
Q 434 634 434 1313 
Q 434 1759 690 2068 
Q 947 2378 1403 2484 
z
M 1172 3481 
Q 1172 3119 1398 2916 
Q 1625 2713 2034 2713 
Q 2441 2713 2670 2916 
Q 2900 3119 2900 3481 
Q 2900 3844 2670 4047 
Q 2441 4250 2034 4250 
Q 1625 4250 1398 4047 
Q 1172 3844 1172 3481 
z
" transform="scale(0.015625)"/>
       <path id="DejaVuSans-2d" d="M 313 2009 
L 1997 2009 
L 1997 1497 
L 313 1497 
L 313 2009 
z
" transform="scale(0.015625)"/>
       <path id="DejaVuSans-46" d="M 628 4666 
L 3309 4666 
L 3309 4134 
L 1259 4134 
L 1259 2759 
L 3109 2759 
L 3109 2228 
L 1259 2228 
L 1259 0 
L 628 0 
L 628 4666 
z
" transform="scale(0.015625)"/>
       <path id="DejaVuSans-69" d="M 603 3500 
L 1178 3500 
L 1178 0 
L 603 0 
L 603 3500 
z
M 603 4863 
L 1178 4863 
L 1178 4134 
L 603 4134 
L 603 4863 
z
" transform="scale(0.015625)"/>
       <path id="DejaVuSans-6c" d="M 603 4863 
L 1178 4863 
L 1178 0 
L 603 0 
L 603 4863 
z
" transform="scale(0.015625)"/>
       <path id="DejaVuSans-62" d="M 3116 1747 
Q 3116 2381 2855 2742 
Q 2594 3103 2138 3103 
Q 1681 3103 1420 2742 
Q 1159 2381 1159 1747 
Q 1159 1113 1420 752 
Q 1681 391 2138 391 
Q 2594 391 2855 752 
Q 3116 1113 3116 1747 
z
M 1159 2969 
Q 1341 3281 1617 3432 
Q 1894 3584 2278 3584 
Q 2916 3584 3314 3078 
Q 3713 2572 3713 1747 
Q 3713 922 3314 415 
Q 2916 -91 2278 -91 
Q 1894 -91 1617 61 
Q 1341 213 1159 525 
L 1159 0 
L 581 0 
L 581 4863 
L 1159 4863 
L 1159 2969 
z
" transform="scale(0.015625)"/>
       <path id="DejaVuSans-72" d="M 2631 2963 
Q 2534 3019 2420 3045 
Q 2306 3072 2169 3072 
Q 1681 3072 1420 2755 
Q 1159 2438 1159 1844 
L 1159 0 
L 581 0 
L 581 3500 
L 1159 3500 
L 1159 2956 
Q 1341 3275 1631 3429 
Q 1922 3584 2338 3584 
Q 2397 3584 2469 3576 
Q 2541 3569 2628 3553 
L 2631 2963 
z
" transform="scale(0.015625)"/>
      </defs>
      <use xlink:href="#DejaVuSans-38"/>
      <use xlink:href="#DejaVuSans-2d" x="63.623047"/>
      <use xlink:href="#DejaVuSans-46" x="99.707031"/>
      <use xlink:href="#DejaVuSans-32" x="157.226562"/>
      <use xlink:href="#DejaVuSans-35" x="220.849609"/>
      <use xlink:href="#DejaVuSans-30" x="284.472656"/>
      <use xlink:href="#DejaVuSans-2d" x="348.095703"/>
      <use xlink:href="#DejaVuSans-67" x="384.179688"/>
      <use xlink:href="#DejaVuSans-69" x="447.65625"/>
      <use xlink:href="#DejaVuSans-6c" x="475.439453"/>
      <use xlink:href="#DejaVuSans-62" x="503.222656"/>
      <use xlink:href="#DejaVuSans-65" x="566.699219"/>
      <use xlink:href="#DejaVuSans-72" x="628.222656"/>
      <use xlink:href="#DejaVuSans-74" x="669.335938"/>
     </g>
    </g>
    <g id="line2d_38">
     <path d="M 621.704 121.68962 
L 630.034 121.68962 
L 638.364 121.68962 
" style="fill: none; stroke: #2ca02c; stroke-width: 1.5; stroke-linecap: square"/>
     <g>
      <use xlink:href="#mf7f39fedbd" x="630.034" y="121.68962" style="fill: #2ca02c; stroke: #2ca02c"/>
     </g>
    </g>
    <g id="text_19">
     <!-- 8-F250-hilbert -->
     <g transform="translate(645.028 124.60512) scale(0.0833 -0.0833)">
      <defs>
       <path id="DejaVuSans-68" d="M 3513 2113 
L 3513 0 
L 2938 0 
L 2938 2094 
Q 2938 2591 2744 2837 
Q 2550 3084 2163 3084 
Q 1697 3084 1428 2787 
Q 1159 2491 1159 1978 
L 1159 0 
L 581 0 
L 581 4863 
L 1159 4863 
L 1159 2956 
Q 1366 3272 1645 3428 
Q 1925 3584 2291 3584 
Q 2894 3584 3203 3211 
Q 3513 2838 3513 2113 
z
" transform="scale(0.015625)"/>
      </defs>
      <use xlink:href="#DejaVuSans-38"/>
      <use xlink:href="#DejaVuSans-2d" x="63.623047"/>
      <use xlink:href="#DejaVuSans-46" x="99.707031"/>
      <use xlink:href="#DejaVuSans-32" x="157.226562"/>
      <use xlink:href="#DejaVuSans-35" x="220.849609"/>
      <use xlink:href="#DejaVuSans-30" x="284.472656"/>
      <use xlink:href="#DejaVuSans-2d" x="348.095703"/>
      <use xlink:href="#DejaVuSans-68" x="384.179688"/>
      <use xlink:href="#DejaVuSans-69" x="447.558594"/>
      <use xlink:href="#DejaVuSans-6c" x="475.341797"/>
      <use xlink:href="#DejaVuSans-62" x="503.125"/>
      <use xlink:href="#DejaVuSans-65" x="566.601562"/>
      <use xlink:href="#DejaVuSans-72" x="628.125"/>
      <use xlink:href="#DejaVuSans-74" x="669.238281"/>
     </g>
    </g>
    <g id="line2d_39">
     <path d="M 621.704 133.916498 
L 630.034 133.916498 
L 638.364 133.916498 
" style="fill: none; stroke: #9467bd; stroke-width: 1.5; stroke-linecap: square"/>
     <g>
      <use xlink:href="#mcc777476b6" x="630.034" y="133.916498" style="fill: #9467bd; stroke: #9467bd"/>
     </g>
    </g>
    <g id="text_20">
     <!-- 8-F250-rcb -->
     <g transform="translate(645.028 136.831998) scale(0.0833 -0.0833)">
      <defs>
       <path id="DejaVuSans-63" d="M 3122 3366 
L 3122 2828 
Q 2878 2963 2633 3030 
Q 2388 3097 2138 3097 
Q 1578 3097 1268 2742 
Q 959 2388 959 1747 
Q 959 1106 1268 751 
Q 1578 397 2138 397 
Q 2388 397 2633 464 
Q 2878 531 3122 666 
L 3122 134 
Q 2881 22 2623 -34 
Q 2366 -91 2075 -91 
Q 1284 -91 818 406 
Q 353 903 353 1747 
Q 353 2603 823 3093 
Q 1294 3584 2113 3584 
Q 2378 3584 2631 3529 
Q 2884 3475 3122 3366 
z
" transform="scale(0.015625)"/>
      </defs>
      <use xlink:href="#DejaVuSans-38"/>
      <use xlink:href="#DejaVuSans-2d" x="63.623047"/>
      <use xlink:href="#DejaVuSans-46" x="99.707031"/>
      <use xlink:href="#DejaVuSans-32" x="157.226562"/>
      <use xlink:href="#DejaVuSans-35" x="220.849609"/>
      <use xlink:href="#DejaVuSans-30" x="284.472656"/>
      <use xlink:href="#DejaVuSans-2d" x="348.095703"/>
      <use xlink:href="#DejaVuSans-72" x="384.179688"/>
      <use xlink:href="#DejaVuSans-63" x="423.042969"/>
      <use xlink:href="#DejaVuSans-62" x="478.023438"/>
     </g>
    </g>
    <g id="line2d_40">
     <path d="M 621.704 146.143377 
L 630.034 146.143377 
L 638.364 146.143377 
" style="fill: none; stroke: #8c564b; stroke-width: 1.5; stroke-linecap: square"/>
     <g>
      <use xlink:href="#mbaf0f9cca3" x="630.034" y="146.143377" style="fill: #8c564b; stroke: #8c564b"/>
     </g>
    </g>
    <g id="text_21">
     <!-- 8-F250-rcbincr -->
     <g transform="translate(645.028 149.058877) scale(0.0833 -0.0833)">
      <use xlink:href="#DejaVuSans-38"/>
      <use xlink:href="#DejaVuSans-2d" x="63.623047"/>
      <use xlink:href="#DejaVuSans-46" x="99.707031"/>
      <use xlink:href="#DejaVuSans-32" x="157.226562"/>
      <use xlink:href="#DejaVuSans-35" x="220.849609"/>
      <use xlink:href="#DejaVuSans-30" x="284.472656"/>
      <use xlink:href="#DejaVuSans-2d" x="348.095703"/>
      <use xlink:href="#DejaVuSans-72" x="384.179688"/>
      <use xlink:href="#DejaVuSans-63" x="423.042969"/>
      <use xlink:href="#DejaVuSans-62" x="478.023438"/>
      <use xlink:href="#DejaVuSans-69" x="541.5"/>
      <use xlink:href="#DejaVuSans-6e" x="569.283203"/>
      <use xlink:href="#DejaVuSans-63" x="632.662109"/>
      <use xlink:href="#DejaVuSans-72" x="687.642578"/>
     </g>
    </g>
   </g>
  </g>
 </g>
 <defs>
  <clipPath id="p1cb13071aa">
   <rect x="54.30125" y="10.8" width="559.90575" height="235.24"/>
  </clipPath>
 </defs>
</svg>
