<?xml version="1.0" encoding="utf-8" standalone="no"?>
<!DOCTYPE svg PUBLIC "-//W3C//DTD SVG 1.1//EN"
  "http://www.w3.org/Graphics/SVG/1.1/DTD/svg11.dtd">
<svg xmlns:xlink="http://www.w3.org/1999/xlink" width="487.840625pt" height="387.994687pt" viewBox="0 0 487.840625 387.994687" xmlns="http://www.w3.org/2000/svg" version="1.1">
 <metadata>
  <rdf:RDF xmlns:dc="http://purl.org/dc/elements/1.1/" xmlns:cc="http://creativecommons.org/ns#" xmlns:rdf="http://www.w3.org/1999/02/22-rdf-syntax-ns#">
   <cc:Work>
    <dc:type rdf:resource="http://purl.org/dc/dcmitype/StillImage"/>
    <dc:date>2025-10-05T18:15:18.445132</dc:date>
    <dc:format>image/svg+xml</dc:format>
    <dc:creator>
     <cc:Agent>
      <dc:title>Matplotlib v3.6.3, https://matplotlib.org/</dc:title>
     </cc:Agent>
    </dc:creator>
   </cc:Work>
  </rdf:RDF>
 </metadata>
 <defs>
  <style type="text/css">*{stroke-linejoin: round; stroke-linecap: butt}</style>
 </defs>
 <g id="figure_1">
  <g id="patch_1">
   <path d="M 0 387.994687 
L 487.840625 387.994687 
L 487.840625 0 
L 0 0 
z
" style="fill: #ffffff"/>
  </g>
  <g id="axes_1">
   <g id="patch_2">
    <path d="M 34.240625 350.438437 
L 480.640625 350.438437 
L 480.640625 17.798437 
L 34.240625 17.798437 
z
" style="fill: #ffffff"/>
   </g>
   <g id="matplotlib.axis_1">
    <g id="xtick_1">
     <g id="line2d_1">
      <defs>
       <path id="mc7e4f55935" d="M 0 0 
L 0 3.5 
" style="stroke: #000000; stroke-width: 0.8"/>
      </defs>
      <g>
       <use xlink:href="#mc7e4f55935" x="111.875408" y="350.438437" style="stroke: #000000; stroke-width: 0.8"/>
      </g>
     </g>
     <g id="text_1">
      <!-- gilbert -->
      <g transform="translate(95.656658 365.036875) scale(0.1 -0.1)">
       <defs>
        <path id="DejaVuSans-67" d="M 2906 1791 
Q 2906 2416 2648 2759 
Q 2391 3103 1925 3103 
Q 1463 3103 1205 2759 
Q 947 2416 947 1791 
Q 947 1169 1205 825 
Q 1463 481 1925 481 
Q 2391 481 2648 825 
Q 2906 1169 2906 1791 
z
M 3481 434 
Q 3481 -459 3084 -895 
Q 2688 -1331 1869 -1331 
Q 1566 -1331 1297 -1286 
Q 1028 -1241 775 -1147 
L 775 -588 
Q 1028 -725 1275 -790 
Q 1522 -856 1778 -856 
Q 2344 -856 2625 -561 
Q 2906 -266 2906 331 
L 2906 616 
Q 2728 306 2450 153 
Q 2172 0 1784 0 
Q 1141 0 747 490 
Q 353 981 353 1791 
Q 353 2603 747 3093 
Q 1141 3584 1784 3584 
Q 2172 3584 2450 3431 
Q 2728 3278 2906 2969 
L 2906 3500 
L 3481 3500 
L 3481 434 
z
" transform="scale(0.015625)"/>
        <path id="DejaVuSans-69" d="M 603 3500 
L 1178 3500 
L 1178 0 
L 603 0 
L 603 3500 
z
M 603 4863 
L 1178 4863 
L 1178 4134 
L 603 4134 
L 603 4863 
z
" transform="scale(0.015625)"/>
        <path id="DejaVuSans-6c" d="M 603 4863 
L 1178 4863 
L 1178 0 
L 603 0 
L 603 4863 
z
" transform="scale(0.015625)"/>
        <path id="DejaVuSans-62" d="M 3116 1747 
Q 3116 2381 2855 2742 
Q 2594 3103 2138 3103 
Q 1681 3103 1420 2742 
Q 1159 2381 1159 1747 
Q 1159 1113 1420 752 
Q 1681 391 2138 391 
Q 2594 391 2855 752 
Q 3116 1113 3116 1747 
z
M 1159 2969 
Q 1341 3281 1617 3432 
Q 1894 3584 2278 3584 
Q 2916 3584 3314 3078 
Q 3713 2572 3713 1747 
Q 3713 922 3314 415 
Q 2916 -91 2278 -91 
Q 1894 -91 1617 61 
Q 1341 213 1159 525 
L 1159 0 
L 581 0 
L 581 4863 
L 1159 4863 
L 1159 2969 
z
" transform="scale(0.015625)"/>
        <path id="DejaVuSans-65" d="M 3597 1894 
L 3597 1613 
L 953 1613 
Q 991 1019 1311 708 
Q 1631 397 2203 397 
Q 2534 397 2845 478 
Q 3156 559 3463 722 
L 3463 178 
Q 3153 47 2828 -22 
Q 2503 -91 2169 -91 
Q 1331 -91 842 396 
Q 353 884 353 1716 
Q 353 2575 817 3079 
Q 1281 3584 2069 3584 
Q 2775 3584 3186 3129 
Q 3597 2675 3597 1894 
z
M 3022 2063 
Q 3016 2534 2758 2815 
Q 2500 3097 2075 3097 
Q 1594 3097 1305 2825 
Q 1016 2553 972 2059 
L 3022 2063 
z
" transform="scale(0.015625)"/>
        <path id="DejaVuSans-72" d="M 2631 2963 
Q 2534 3019 2420 3045 
Q 2306 3072 2169 3072 
Q 1681 3072 1420 2755 
Q 1159 2438 1159 1844 
L 1159 0 
L 581 0 
L 581 3500 
L 1159 3500 
L 1159 2956 
Q 1341 3275 1631 3429 
Q 1922 3584 2338 3584 
Q 2397 3584 2469 3576 
Q 2541 3569 2628 3553 
L 2631 2963 
z
" transform="scale(0.015625)"/>
        <path id="DejaVuSans-74" d="M 1172 4494 
L 1172 3500 
L 2356 3500 
L 2356 3053 
L 1172 3053 
L 1172 1153 
Q 1172 725 1289 603 
Q 1406 481 1766 481 
L 2356 481 
L 2356 0 
L 1766 0 
Q 1100 0 847 248 
Q 594 497 594 1153 
L 594 3053 
L 172 3053 
L 172 3500 
L 594 3500 
L 594 4494 
L 1172 4494 
z
" transform="scale(0.015625)"/>
       </defs>
       <use xlink:href="#DejaVuSans-67"/>
       <use xlink:href="#DejaVuSans-69" x="63.476562"/>
       <use xlink:href="#DejaVuSans-6c" x="91.259766"/>
       <use xlink:href="#DejaVuSans-62" x="119.042969"/>
       <use xlink:href="#DejaVuSans-65" x="182.519531"/>
       <use xlink:href="#DejaVuSans-72" x="244.042969"/>
       <use xlink:href="#DejaVuSans-74" x="285.15625"/>
      </g>
     </g>
    </g>
    <g id="xtick_2">
     <g id="line2d_2">
      <g>
       <use xlink:href="#mc7e4f55935" x="208.918886" y="350.438437" style="stroke: #000000; stroke-width: 0.8"/>
      </g>
     </g>
     <g id="text_2">
      <!-- hilbert -->
      <g transform="translate(192.705605 365.036875) scale(0.1 -0.1)">
       <defs>
        <path id="DejaVuSans-68" d="M 3513 2113 
L 3513 0 
L 2938 0 
L 2938 2094 
Q 2938 2591 2744 2837 
Q 2550 3084 2163 3084 
Q 1697 3084 1428 2787 
Q 1159 2491 1159 1978 
L 1159 0 
L 581 0 
L 581 4863 
L 1159 4863 
L 1159 2956 
Q 1366 3272 1645 3428 
Q 1925 3584 2291 3584 
Q 2894 3584 3203 3211 
Q 3513 2838 3513 2113 
z
" transform="scale(0.015625)"/>
       </defs>
       <use xlink:href="#DejaVuSans-68"/>
       <use xlink:href="#DejaVuSans-69" x="63.378906"/>
       <use xlink:href="#DejaVuSans-6c" x="91.162109"/>
       <use xlink:href="#DejaVuSans-62" x="118.945312"/>
       <use xlink:href="#DejaVuSans-65" x="182.421875"/>
       <use xlink:href="#DejaVuSans-72" x="243.945312"/>
       <use xlink:href="#DejaVuSans-74" x="285.058594"/>
      </g>
     </g>
    </g>
    <g id="xtick_3">
     <g id="line2d_3">
      <g>
       <use xlink:href="#mc7e4f55935" x="305.962364" y="350.438437" style="stroke: #000000; stroke-width: 0.8"/>
      </g>
     </g>
     <g id="text_3">
      <!-- rcb -->
      <g transform="translate(298.095958 365.036875) scale(0.1 -0.1)">
       <defs>
        <path id="DejaVuSans-63" d="M 3122 3366 
L 3122 2828 
Q 2878 2963 2633 3030 
Q 2388 3097 2138 3097 
Q 1578 3097 1268 2742 
Q 959 2388 959 1747 
Q 959 1106 1268 751 
Q 1578 397 2138 397 
Q 2388 397 2633 464 
Q 2878 531 3122 666 
L 3122 134 
Q 2881 22 2623 -34 
Q 2366 -91 2075 -91 
Q 1284 -91 818 406 
Q 353 903 353 1747 
Q 353 2603 823 3093 
Q 1294 3584 2113 3584 
Q 2378 3584 2631 3529 
Q 2884 3475 3122 3366 
z
" transform="scale(0.015625)"/>
       </defs>
       <use xlink:href="#DejaVuSans-72"/>
       <use xlink:href="#DejaVuSans-63" x="38.863281"/>
       <use xlink:href="#DejaVuSans-62" x="93.84375"/>
      </g>
     </g>
    </g>
    <g id="xtick_4">
     <g id="line2d_4">
      <g>
       <use xlink:href="#mc7e4f55935" x="403.005842" y="350.438437" style="stroke: #000000; stroke-width: 0.8"/>
      </g>
     </g>
     <g id="text_4">
      <!-- rcbincr -->
      <g transform="translate(385.776936 365.036875) scale(0.1 -0.1)">
       <defs>
        <path id="DejaVuSans-6e" d="M 3513 2113 
L 3513 0 
L 2938 0 
L 2938 2094 
Q 2938 2591 2744 2837 
Q 2550 3084 2163 3084 
Q 1697 3084 1428 2787 
Q 1159 2491 1159 1978 
L 1159 0 
L 581 0 
L 581 3500 
L 1159 3500 
L 1159 2956 
Q 1366 3272 1645 3428 
Q 1925 3584 2291 3584 
Q 2894 3584 3203 3211 
Q 3513 2838 3513 2113 
z
" transform="scale(0.015625)"/>
       </defs>
       <use xlink:href="#DejaVuSans-72"/>
       <use xlink:href="#DejaVuSans-63" x="38.863281"/>
       <use xlink:href="#DejaVuSans-62" x="93.84375"/>
       <use xlink:href="#DejaVuSans-69" x="157.320312"/>
       <use xlink:href="#DejaVuSans-6e" x="185.103516"/>
       <use xlink:href="#DejaVuSans-63" x="248.482422"/>
       <use xlink:href="#DejaVuSans-72" x="303.462891"/>
      </g>
     </g>
    </g>
    <g id="text_5">
     <!-- algorithm -->
     <g transform="translate(233.310156 378.715) scale(0.1 -0.1)">
      <defs>
       <path id="DejaVuSans-61" d="M 2194 1759 
Q 1497 1759 1228 1600 
Q 959 1441 959 1056 
Q 959 750 1161 570 
Q 1363 391 1709 391 
Q 2188 391 2477 730 
Q 2766 1069 2766 1631 
L 2766 1759 
L 2194 1759 
z
M 3341 1997 
L 3341 0 
L 2766 0 
L 2766 531 
Q 2569 213 2275 61 
Q 1981 -91 1556 -91 
Q 1019 -91 701 211 
Q 384 513 384 1019 
Q 384 1609 779 1909 
Q 1175 2209 1959 2209 
L 2766 2209 
L 2766 2266 
Q 2766 2663 2505 2880 
Q 2244 3097 1772 3097 
Q 1472 3097 1187 3025 
Q 903 2953 641 2809 
L 641 3341 
Q 956 3463 1253 3523 
Q 1550 3584 1831 3584 
Q 2591 3584 2966 3190 
Q 3341 2797 3341 1997 
z
" transform="scale(0.015625)"/>
       <path id="DejaVuSans-6f" d="M 1959 3097 
Q 1497 3097 1228 2736 
Q 959 2375 959 1747 
Q 959 1119 1226 758 
Q 1494 397 1959 397 
Q 2419 397 2687 759 
Q 2956 1122 2956 1747 
Q 2956 2369 2687 2733 
Q 2419 3097 1959 3097 
z
M 1959 3584 
Q 2709 3584 3137 3096 
Q 3566 2609 3566 1747 
Q 3566 888 3137 398 
Q 2709 -91 1959 -91 
Q 1206 -91 779 398 
Q 353 888 353 1747 
Q 353 2609 779 3096 
Q 1206 3584 1959 3584 
z
" transform="scale(0.015625)"/>
       <path id="DejaVuSans-6d" d="M 3328 2828 
Q 3544 3216 3844 3400 
Q 4144 3584 4550 3584 
Q 5097 3584 5394 3201 
Q 5691 2819 5691 2113 
L 5691 0 
L 5113 0 
L 5113 2094 
Q 5113 2597 4934 2840 
Q 4756 3084 4391 3084 
Q 3944 3084 3684 2787 
Q 3425 2491 3425 1978 
L 3425 0 
L 2847 0 
L 2847 2094 
Q 2847 2600 2669 2842 
Q 2491 3084 2119 3084 
Q 1678 3084 1418 2786 
Q 1159 2488 1159 1978 
L 1159 0 
L 581 0 
L 581 3500 
L 1159 3500 
L 1159 2956 
Q 1356 3278 1631 3431 
Q 1906 3584 2284 3584 
Q 2666 3584 2933 3390 
Q 3200 3197 3328 2828 
z
" transform="scale(0.015625)"/>
      </defs>
      <use xlink:href="#DejaVuSans-61"/>
      <use xlink:href="#DejaVuSans-6c" x="61.279297"/>
      <use xlink:href="#DejaVuSans-67" x="89.0625"/>
      <use xlink:href="#DejaVuSans-6f" x="152.539062"/>
      <use xlink:href="#DejaVuSans-72" x="213.720703"/>
      <use xlink:href="#DejaVuSans-69" x="254.833984"/>
      <use xlink:href="#DejaVuSans-74" x="282.617188"/>
      <use xlink:href="#DejaVuSans-68" x="321.826172"/>
      <use xlink:href="#DejaVuSans-6d" x="385.205078"/>
     </g>
    </g>
   </g>
   <g id="matplotlib.axis_2">
    <g id="ytick_1">
     <g id="line2d_5">
      <path d="M 34.240625 337.466832 
L 480.640625 337.466832 
" clip-path="url(#p6247dfe2c7)" style="fill: none; stroke: #b0b0b0; stroke-width: 0.8; stroke-linecap: square"/>
     </g>
     <g id="line2d_6">
      <defs>
       <path id="mc03f35c8aa" d="M 0 0 
L -3.5 0 
" style="stroke: #000000; stroke-width: 0.8"/>
      </defs>
      <g>
       <use xlink:href="#mc03f35c8aa" x="34.240625" y="337.466832" style="stroke: #000000; stroke-width: 0.8"/>
      </g>
     </g>
     <g id="text_6">
      <!-- 0 -->
      <g transform="translate(20.878125 341.26605) scale(0.1 -0.1)">
       <defs>
        <path id="DejaVuSans-30" d="M 2034 4250 
Q 1547 4250 1301 3770 
Q 1056 3291 1056 2328 
Q 1056 1369 1301 889 
Q 1547 409 2034 409 
Q 2525 409 2770 889 
Q 3016 1369 3016 2328 
Q 3016 3291 2770 3770 
Q 2525 4250 2034 4250 
z
M 2034 4750 
Q 2819 4750 3233 4129 
Q 3647 3509 3647 2328 
Q 3647 1150 3233 529 
Q 2819 -91 2034 -91 
Q 1250 -91 836 529 
Q 422 1150 422 2328 
Q 422 3509 836 4129 
Q 1250 4750 2034 4750 
z
" transform="scale(0.015625)"/>
       </defs>
       <use xlink:href="#DejaVuSans-30"/>
      </g>
     </g>
    </g>
    <g id="ytick_2">
     <g id="line2d_7">
      <path d="M 34.240625 283.75698 
L 480.640625 283.75698 
" clip-path="url(#p6247dfe2c7)" style="fill: none; stroke: #b0b0b0; stroke-width: 0.8; stroke-linecap: square"/>
     </g>
     <g id="line2d_8">
      <g>
       <use xlink:href="#mc03f35c8aa" x="34.240625" y="283.75698" style="stroke: #000000; stroke-width: 0.8"/>
      </g>
     </g>
     <g id="text_7">
      <!-- 1 -->
      <g transform="translate(20.878125 287.556199) scale(0.1 -0.1)">
       <defs>
        <path id="DejaVuSans-31" d="M 794 531 
L 1825 531 
L 1825 4091 
L 703 3866 
L 703 4441 
L 1819 4666 
L 2450 4666 
L 2450 531 
L 3481 531 
L 3481 0 
L 794 0 
L 794 531 
z
" transform="scale(0.015625)"/>
       </defs>
       <use xlink:href="#DejaVuSans-31"/>
      </g>
     </g>
    </g>
    <g id="ytick_3">
     <g id="line2d_9">
      <path d="M 34.240625 230.047128 
L 480.640625 230.047128 
" clip-path="url(#p6247dfe2c7)" style="fill: none; stroke: #b0b0b0; stroke-width: 0.8; stroke-linecap: square"/>
     </g>
     <g id="line2d_10">
      <g>
       <use xlink:href="#mc03f35c8aa" x="34.240625" y="230.047128" style="stroke: #000000; stroke-width: 0.8"/>
      </g>
     </g>
     <g id="text_8">
      <!-- 2 -->
      <g transform="translate(20.878125 233.846347) scale(0.1 -0.1)">
       <defs>
        <path id="DejaVuSans-32" d="M 1228 531 
L 3431 531 
L 3431 0 
L 469 0 
L 469 531 
Q 828 903 1448 1529 
Q 2069 2156 2228 2338 
Q 2531 2678 2651 2914 
Q 2772 3150 2772 3378 
Q 2772 3750 2511 3984 
Q 2250 4219 1831 4219 
Q 1534 4219 1204 4116 
Q 875 4013 500 3803 
L 500 4441 
Q 881 4594 1212 4672 
Q 1544 4750 1819 4750 
Q 2544 4750 2975 4387 
Q 3406 4025 3406 3419 
Q 3406 3131 3298 2873 
Q 3191 2616 2906 2266 
Q 2828 2175 2409 1742 
Q 1991 1309 1228 531 
z
" transform="scale(0.015625)"/>
       </defs>
       <use xlink:href="#DejaVuSans-32"/>
      </g>
     </g>
    </g>
    <g id="ytick_4">
     <g id="line2d_11">
      <path d="M 34.240625 176.337276 
L 480.640625 176.337276 
" clip-path="url(#p6247dfe2c7)" style="fill: none; stroke: #b0b0b0; stroke-width: 0.8; stroke-linecap: square"/>
     </g>
     <g id="line2d_12">
      <g>
       <use xlink:href="#mc03f35c8aa" x="34.240625" y="176.337276" style="stroke: #000000; stroke-width: 0.8"/>
      </g>
     </g>
     <g id="text_9">
      <!-- 3 -->
      <g transform="translate(20.878125 180.136495) scale(0.1 -0.1)">
       <defs>
        <path id="DejaVuSans-33" d="M 2597 2516 
Q 3050 2419 3304 2112 
Q 3559 1806 3559 1356 
Q 3559 666 3084 287 
Q 2609 -91 1734 -91 
Q 1441 -91 1130 -33 
Q 819 25 488 141 
L 488 750 
Q 750 597 1062 519 
Q 1375 441 1716 441 
Q 2309 441 2620 675 
Q 2931 909 2931 1356 
Q 2931 1769 2642 2001 
Q 2353 2234 1838 2234 
L 1294 2234 
L 1294 2753 
L 1863 2753 
Q 2328 2753 2575 2939 
Q 2822 3125 2822 3475 
Q 2822 3834 2567 4026 
Q 2313 4219 1838 4219 
Q 1578 4219 1281 4162 
Q 984 4106 628 3988 
L 628 4550 
Q 988 4650 1302 4700 
Q 1616 4750 1894 4750 
Q 2613 4750 3031 4423 
Q 3450 4097 3450 3541 
Q 3450 3153 3228 2886 
Q 3006 2619 2597 2516 
z
" transform="scale(0.015625)"/>
       </defs>
       <use xlink:href="#DejaVuSans-33"/>
      </g>
     </g>
    </g>
    <g id="ytick_5">
     <g id="line2d_13">
      <path d="M 34.240625 122.627425 
L 480.640625 122.627425 
" clip-path="url(#p6247dfe2c7)" style="fill: none; stroke: #b0b0b0; stroke-width: 0.8; stroke-linecap: square"/>
     </g>
     <g id="line2d_14">
      <g>
       <use xlink:href="#mc03f35c8aa" x="34.240625" y="122.627425" style="stroke: #000000; stroke-width: 0.8"/>
      </g>
     </g>
     <g id="text_10">
      <!-- 4 -->
      <g transform="translate(20.878125 126.426643) scale(0.1 -0.1)">
       <defs>
        <path id="DejaVuSans-34" d="M 2419 4116 
L 825 1625 
L 2419 1625 
L 2419 4116 
z
M 2253 4666 
L 3047 4666 
L 3047 1625 
L 3713 1625 
L 3713 1100 
L 3047 1100 
L 3047 0 
L 2419 0 
L 2419 1100 
L 313 1100 
L 313 1709 
L 2253 4666 
z
" transform="scale(0.015625)"/>
       </defs>
       <use xlink:href="#DejaVuSans-34"/>
      </g>
     </g>
    </g>
    <g id="ytick_6">
     <g id="line2d_15">
      <path d="M 34.240625 68.917573 
L 480.640625 68.917573 
" clip-path="url(#p6247dfe2c7)" style="fill: none; stroke: #b0b0b0; stroke-width: 0.8; stroke-linecap: square"/>
     </g>
     <g id="line2d_16">
      <g>
       <use xlink:href="#mc03f35c8aa" x="34.240625" y="68.917573" style="stroke: #000000; stroke-width: 0.8"/>
      </g>
     </g>
     <g id="text_11">
      <!-- 5 -->
      <g transform="translate(20.878125 72.716792) scale(0.1 -0.1)">
       <defs>
        <path id="DejaVuSans-35" d="M 691 4666 
L 3169 4666 
L 3169 4134 
L 1269 4134 
L 1269 2991 
Q 1406 3038 1543 3061 
Q 1681 3084 1819 3084 
Q 2600 3084 3056 2656 
Q 3513 2228 3513 1497 
Q 3513 744 3044 326 
Q 2575 -91 1722 -91 
Q 1428 -91 1123 -41 
Q 819 9 494 109 
L 494 744 
Q 775 591 1075 516 
Q 1375 441 1709 441 
Q 2250 441 2565 725 
Q 2881 1009 2881 1497 
Q 2881 1984 2565 2268 
Q 2250 2553 1709 2553 
Q 1456 2553 1204 2497 
Q 953 2441 691 2322 
L 691 4666 
z
" transform="scale(0.015625)"/>
       </defs>
       <use xlink:href="#DejaVuSans-35"/>
      </g>
     </g>
    </g>
    <g id="text_12">
     <!-- msg_sent_count -->
     <g transform="translate(14.520312 224.684062) rotate(-90) scale(0.1 -0.1)">
      <defs>
       <path id="DejaVuSans-73" d="M 2834 3397 
L 2834 2853 
Q 2591 2978 2328 3040 
Q 2066 3103 1784 3103 
Q 1356 3103 1142 2972 
Q 928 2841 928 2578 
Q 928 2378 1081 2264 
Q 1234 2150 1697 2047 
L 1894 2003 
Q 2506 1872 2764 1633 
Q 3022 1394 3022 966 
Q 3022 478 2636 193 
Q 2250 -91 1575 -91 
Q 1294 -91 989 -36 
Q 684 19 347 128 
L 347 722 
Q 666 556 975 473 
Q 1284 391 1588 391 
Q 1994 391 2212 530 
Q 2431 669 2431 922 
Q 2431 1156 2273 1281 
Q 2116 1406 1581 1522 
L 1381 1569 
Q 847 1681 609 1914 
Q 372 2147 372 2553 
Q 372 3047 722 3315 
Q 1072 3584 1716 3584 
Q 2034 3584 2315 3537 
Q 2597 3491 2834 3397 
z
" transform="scale(0.015625)"/>
       <path id="DejaVuSans-5f" d="M 3263 -1063 
L 3263 -1509 
L -63 -1509 
L -63 -1063 
L 3263 -1063 
z
" transform="scale(0.015625)"/>
       <path id="DejaVuSans-75" d="M 544 1381 
L 544 3500 
L 1119 3500 
L 1119 1403 
Q 1119 906 1312 657 
Q 1506 409 1894 409 
Q 2359 409 2629 706 
Q 2900 1003 2900 1516 
L 2900 3500 
L 3475 3500 
L 3475 0 
L 2900 0 
L 2900 538 
Q 2691 219 2414 64 
Q 2138 -91 1772 -91 
Q 1169 -91 856 284 
Q 544 659 544 1381 
z
M 1991 3584 
L 1991 3584 
z
" transform="scale(0.015625)"/>
      </defs>
      <use xlink:href="#DejaVuSans-6d"/>
      <use xlink:href="#DejaVuSans-73" x="97.412109"/>
      <use xlink:href="#DejaVuSans-67" x="149.511719"/>
      <use xlink:href="#DejaVuSans-5f" x="212.988281"/>
      <use xlink:href="#DejaVuSans-73" x="262.988281"/>
      <use xlink:href="#DejaVuSans-65" x="315.087891"/>
      <use xlink:href="#DejaVuSans-6e" x="376.611328"/>
      <use xlink:href="#DejaVuSans-74" x="439.990234"/>
      <use xlink:href="#DejaVuSans-5f" x="479.199219"/>
      <use xlink:href="#DejaVuSans-63" x="529.199219"/>
      <use xlink:href="#DejaVuSans-6f" x="584.179688"/>
      <use xlink:href="#DejaVuSans-75" x="645.361328"/>
      <use xlink:href="#DejaVuSans-6e" x="708.740234"/>
      <use xlink:href="#DejaVuSans-74" x="772.119141"/>
     </g>
    </g>
    <g id="text_13">
     <!-- 1e6 -->
     <g transform="translate(34.240625 14.798437) scale(0.1 -0.1)">
      <defs>
       <path id="DejaVuSans-36" d="M 2113 2584 
Q 1688 2584 1439 2293 
Q 1191 2003 1191 1497 
Q 1191 994 1439 701 
Q 1688 409 2113 409 
Q 2538 409 2786 701 
Q 3034 994 3034 1497 
Q 3034 2003 2786 2293 
Q 2538 2584 2113 2584 
z
M 3366 4563 
L 3366 3988 
Q 3128 4100 2886 4159 
Q 2644 4219 2406 4219 
Q 1781 4219 1451 3797 
Q 1122 3375 1075 2522 
Q 1259 2794 1537 2939 
Q 1816 3084 2150 3084 
Q 2853 3084 3261 2657 
Q 3669 2231 3669 1497 
Q 3669 778 3244 343 
Q 2819 -91 2113 -91 
Q 1303 -91 875 529 
Q 447 1150 447 2328 
Q 447 3434 972 4092 
Q 1497 4750 2381 4750 
Q 2619 4750 2861 4703 
Q 3103 4656 3366 4563 
z
" transform="scale(0.015625)"/>
      </defs>
      <use xlink:href="#DejaVuSans-31"/>
      <use xlink:href="#DejaVuSans-65" x="63.623047"/>
      <use xlink:href="#DejaVuSans-36" x="125.146484"/>
     </g>
    </g>
   </g>
   <g id="patch_3">
    <path d="M 74.028451 270.866615 
L 91.496277 270.866615 
L 91.496277 202.118005 
L 74.028451 202.118005 
L 74.028451 270.866615 
z
" clip-path="url(#p6247dfe2c7)" style="fill: #1f77b4; opacity: 0.75; stroke: #000000; stroke-linejoin: miter"/>
   </g>
   <g id="line2d_17">
    <path d="M 82.762364 270.866615 
L 82.762364 335.318437 
" clip-path="url(#p6247dfe2c7)" style="fill: none; stroke: #000000; stroke-linecap: square"/>
   </g>
   <g id="line2d_18">
    <path d="M 82.762364 202.118005 
L 82.762364 187.609685 
" clip-path="url(#p6247dfe2c7)" style="fill: none; stroke: #000000; stroke-linecap: square"/>
   </g>
   <g id="line2d_19">
    <path d="M 78.395408 335.318437 
L 87.129321 335.318437 
" clip-path="url(#p6247dfe2c7)" style="fill: none; stroke: #000000; stroke-linecap: square"/>
   </g>
   <g id="line2d_20">
    <path d="M 78.395408 187.609685 
L 87.129321 187.609685 
" clip-path="url(#p6247dfe2c7)" style="fill: none; stroke: #000000; stroke-linecap: square"/>
   </g>
   <g id="line2d_21">
    <defs>
     <path id="me7d0651760" d="M 0 3 
C 0.795609 3 1.55874 2.683901 2.12132 2.12132 
C 2.683901 1.55874 3 0.795609 3 0 
C 3 -0.795609 2.683901 -1.55874 2.12132 -2.12132 
C 1.55874 -2.683901 0.795609 -3 0 -3 
C -0.795609 -3 -1.55874 -2.683901 -2.12132 -2.12132 
C -2.683901 -1.55874 -3 -0.795609 -3 0 
C -3 0.795609 -2.683901 1.55874 -2.12132 2.12132 
C -1.55874 2.683901 -0.795609 3 0 3 
z
" style="stroke: #000000"/>
    </defs>
    <g clip-path="url(#p6247dfe2c7)">
     <use xlink:href="#me7d0651760" x="82.762364" y="34.819766" style="fill-opacity: 0; stroke: #000000"/>
    </g>
   </g>
   <g id="patch_4">
    <path d="M 93.437147 270.866615 
L 110.904973 270.866615 
L 110.904973 202.118005 
L 93.437147 202.118005 
L 93.437147 270.866615 
z
" clip-path="url(#p6247dfe2c7)" style="fill: #ff7f0e; opacity: 0.75; stroke: #000000; stroke-linejoin: miter"/>
   </g>
   <g id="line2d_22">
    <path d="M 102.17106 270.866615 
L 102.17106 335.318437 
" clip-path="url(#p6247dfe2c7)" style="fill: none; stroke: #000000; stroke-linecap: square"/>
   </g>
   <g id="line2d_23">
    <path d="M 102.17106 202.118005 
L 102.17106 187.609685 
" clip-path="url(#p6247dfe2c7)" style="fill: none; stroke: #000000; stroke-linecap: square"/>
   </g>
   <g id="line2d_24">
    <path d="M 97.804103 335.318437 
L 106.538016 335.318437 
" clip-path="url(#p6247dfe2c7)" style="fill: none; stroke: #000000; stroke-linecap: square"/>
   </g>
   <g id="line2d_25">
    <path d="M 97.804103 187.609685 
L 106.538016 187.609685 
" clip-path="url(#p6247dfe2c7)" style="fill: none; stroke: #000000; stroke-linecap: square"/>
   </g>
   <g id="line2d_26">
    <g clip-path="url(#p6247dfe2c7)">
     <use xlink:href="#me7d0651760" x="102.17106" y="34.744572" style="fill-opacity: 0; stroke: #000000"/>
    </g>
   </g>
   <g id="patch_5">
    <path d="M 112.845842 270.866615 
L 130.313668 270.866615 
L 130.313668 202.118005 
L 112.845842 202.118005 
L 112.845842 270.866615 
z
" clip-path="url(#p6247dfe2c7)" style="fill: #2ca02c; opacity: 0.75; stroke: #000000; stroke-linejoin: miter"/>
   </g>
   <g id="line2d_27">
    <path d="M 121.579755 270.866615 
L 121.579755 335.318437 
" clip-path="url(#p6247dfe2c7)" style="fill: none; stroke: #000000; stroke-linecap: square"/>
   </g>
   <g id="line2d_28">
    <path d="M 121.579755 202.118005 
L 121.579755 187.609685 
" clip-path="url(#p6247dfe2c7)" style="fill: none; stroke: #000000; stroke-linecap: square"/>
   </g>
   <g id="line2d_29">
    <path d="M 117.212799 335.318437 
L 125.946712 335.318437 
" clip-path="url(#p6247dfe2c7)" style="fill: none; stroke: #000000; stroke-linecap: square"/>
   </g>
   <g id="line2d_30">
    <path d="M 117.212799 187.609685 
L 125.946712 187.609685 
" clip-path="url(#p6247dfe2c7)" style="fill: none; stroke: #000000; stroke-linecap: square"/>
   </g>
   <g id="line2d_31">
    <g clip-path="url(#p6247dfe2c7)">
     <use xlink:href="#me7d0651760" x="121.579755" y="34.744572" style="fill-opacity: 0; stroke: #000000"/>
    </g>
   </g>
   <g id="patch_6">
    <path d="M 132.254538 270.866615 
L 149.722364 270.866615 
L 149.722364 202.118005 
L 132.254538 202.118005 
L 132.254538 270.866615 
z
" clip-path="url(#p6247dfe2c7)" style="fill: #d62728; opacity: 0.75; stroke: #000000; stroke-linejoin: miter"/>
   </g>
   <g id="line2d_32">
    <path d="M 140.988451 270.866615 
L 140.988451 335.318437 
" clip-path="url(#p6247dfe2c7)" style="fill: none; stroke: #000000; stroke-linecap: square"/>
   </g>
   <g id="line2d_33">
    <path d="M 140.988451 202.118005 
L 140.988451 187.609685 
" clip-path="url(#p6247dfe2c7)" style="fill: none; stroke: #000000; stroke-linecap: square"/>
   </g>
   <g id="line2d_34">
    <path d="M 136.621495 335.318437 
L 145.355408 335.318437 
" clip-path="url(#p6247dfe2c7)" style="fill: none; stroke: #000000; stroke-linecap: square"/>
   </g>
   <g id="line2d_35">
    <path d="M 136.621495 187.609685 
L 145.355408 187.609685 
" clip-path="url(#p6247dfe2c7)" style="fill: none; stroke: #000000; stroke-linecap: square"/>
   </g>
   <g id="line2d_36">
    <g clip-path="url(#p6247dfe2c7)">
     <use xlink:href="#me7d0651760" x="140.988451" y="34.529733" style="fill-opacity: 0; stroke: #000000"/>
    </g>
   </g>
   <g id="patch_7">
    <path d="M 171.071929 270.866615 
L 188.539755 270.866615 
L 188.539755 202.118005 
L 171.071929 202.118005 
L 171.071929 270.866615 
z
" clip-path="url(#p6247dfe2c7)" style="fill: #1f77b4; opacity: 0.75; stroke: #000000; stroke-linejoin: miter"/>
   </g>
   <g id="line2d_37">
    <path d="M 179.805842 270.866615 
L 179.805842 335.318437 
" clip-path="url(#p6247dfe2c7)" style="fill: none; stroke: #000000; stroke-linecap: square"/>
   </g>
   <g id="line2d_38">
    <path d="M 179.805842 202.118005 
L 179.805842 187.609685 
" clip-path="url(#p6247dfe2c7)" style="fill: none; stroke: #000000; stroke-linecap: square"/>
   </g>
   <g id="line2d_39">
    <path d="M 175.438886 335.318437 
L 184.172799 335.318437 
" clip-path="url(#p6247dfe2c7)" style="fill: none; stroke: #000000; stroke-linecap: square"/>
   </g>
   <g id="line2d_40">
    <path d="M 175.438886 187.609685 
L 184.172799 187.609685 
" clip-path="url(#p6247dfe2c7)" style="fill: none; stroke: #000000; stroke-linecap: square"/>
   </g>
   <g id="line2d_41">
    <g clip-path="url(#p6247dfe2c7)">
     <use xlink:href="#me7d0651760" x="179.805842" y="34.89496" style="fill-opacity: 0; stroke: #000000"/>
    </g>
   </g>
   <g id="patch_8">
    <path d="M 190.480625 270.866615 
L 207.948451 270.866615 
L 207.948451 202.118005 
L 190.480625 202.118005 
L 190.480625 270.866615 
z
" clip-path="url(#p6247dfe2c7)" style="fill: #ff7f0e; opacity: 0.75; stroke: #000000; stroke-linejoin: miter"/>
   </g>
   <g id="line2d_42">
    <path d="M 199.214538 270.866615 
L 199.214538 335.318437 
" clip-path="url(#p6247dfe2c7)" style="fill: none; stroke: #000000; stroke-linecap: square"/>
   </g>
   <g id="line2d_43">
    <path d="M 199.214538 202.118005 
L 199.214538 187.609685 
" clip-path="url(#p6247dfe2c7)" style="fill: none; stroke: #000000; stroke-linecap: square"/>
   </g>
   <g id="line2d_44">
    <path d="M 194.847582 335.318437 
L 203.581495 335.318437 
" clip-path="url(#p6247dfe2c7)" style="fill: none; stroke: #000000; stroke-linecap: square"/>
   </g>
   <g id="line2d_45">
    <path d="M 194.847582 187.609685 
L 203.581495 187.609685 
" clip-path="url(#p6247dfe2c7)" style="fill: none; stroke: #000000; stroke-linecap: square"/>
   </g>
   <g id="line2d_46">
    <g clip-path="url(#p6247dfe2c7)">
     <use xlink:href="#me7d0651760" x="199.214538" y="34.771427" style="fill-opacity: 0; stroke: #000000"/>
    </g>
   </g>
   <g id="patch_9">
    <path d="M 209.889321 270.866615 
L 227.357147 270.866615 
L 227.357147 202.118005 
L 209.889321 202.118005 
L 209.889321 270.866615 
z
" clip-path="url(#p6247dfe2c7)" style="fill: #2ca02c; opacity: 0.75; stroke: #000000; stroke-linejoin: miter"/>
   </g>
   <g id="line2d_47">
    <path d="M 218.623234 270.866615 
L 218.623234 335.318437 
" clip-path="url(#p6247dfe2c7)" style="fill: none; stroke: #000000; stroke-linecap: square"/>
   </g>
   <g id="line2d_48">
    <path d="M 218.623234 202.118005 
L 218.623234 187.609685 
" clip-path="url(#p6247dfe2c7)" style="fill: none; stroke: #000000; stroke-linecap: square"/>
   </g>
   <g id="line2d_49">
    <path d="M 214.256277 335.318437 
L 222.99019 335.318437 
" clip-path="url(#p6247dfe2c7)" style="fill: none; stroke: #000000; stroke-linecap: square"/>
   </g>
   <g id="line2d_50">
    <path d="M 214.256277 187.609685 
L 222.99019 187.609685 
" clip-path="url(#p6247dfe2c7)" style="fill: none; stroke: #000000; stroke-linecap: square"/>
   </g>
   <g id="line2d_51">
    <g clip-path="url(#p6247dfe2c7)">
     <use xlink:href="#me7d0651760" x="218.623234" y="34.744572" style="fill-opacity: 0; stroke: #000000"/>
    </g>
   </g>
   <g id="patch_10">
    <path d="M 229.298016 270.866615 
L 246.765842 270.866615 
L 246.765842 202.118005 
L 229.298016 202.118005 
L 229.298016 270.866615 
z
" clip-path="url(#p6247dfe2c7)" style="fill: #d62728; opacity: 0.75; stroke: #000000; stroke-linejoin: miter"/>
   </g>
   <g id="line2d_52">
    <path d="M 238.031929 270.866615 
L 238.031929 335.318437 
" clip-path="url(#p6247dfe2c7)" style="fill: none; stroke: #000000; stroke-linecap: square"/>
   </g>
   <g id="line2d_53">
    <path d="M 238.031929 202.118005 
L 238.031929 187.609685 
" clip-path="url(#p6247dfe2c7)" style="fill: none; stroke: #000000; stroke-linecap: square"/>
   </g>
   <g id="line2d_54">
    <path d="M 233.664973 335.318437 
L 242.398886 335.318437 
" clip-path="url(#p6247dfe2c7)" style="fill: none; stroke: #000000; stroke-linecap: square"/>
   </g>
   <g id="line2d_55">
    <path d="M 233.664973 187.609685 
L 242.398886 187.609685 
" clip-path="url(#p6247dfe2c7)" style="fill: none; stroke: #000000; stroke-linecap: square"/>
   </g>
   <g id="line2d_56">
    <g clip-path="url(#p6247dfe2c7)">
     <use xlink:href="#me7d0651760" x="238.031929" y="34.637153" style="fill-opacity: 0; stroke: #000000"/>
    </g>
   </g>
   <g id="patch_11">
    <path d="M 268.115408 270.866615 
L 285.583234 270.866615 
L 285.583234 202.118005 
L 268.115408 202.118005 
L 268.115408 270.866615 
z
" clip-path="url(#p6247dfe2c7)" style="fill: #1f77b4; opacity: 0.75; stroke: #000000; stroke-linejoin: miter"/>
   </g>
   <g id="line2d_57">
    <path d="M 276.849321 270.866615 
L 276.849321 335.318437 
" clip-path="url(#p6247dfe2c7)" style="fill: none; stroke: #000000; stroke-linecap: square"/>
   </g>
   <g id="line2d_58">
    <path d="M 276.849321 202.118005 
L 276.849321 187.609685 
" clip-path="url(#p6247dfe2c7)" style="fill: none; stroke: #000000; stroke-linecap: square"/>
   </g>
   <g id="line2d_59">
    <path d="M 272.482364 335.318437 
L 281.216277 335.318437 
" clip-path="url(#p6247dfe2c7)" style="fill: none; stroke: #000000; stroke-linecap: square"/>
   </g>
   <g id="line2d_60">
    <path d="M 272.482364 187.609685 
L 281.216277 187.609685 
" clip-path="url(#p6247dfe2c7)" style="fill: none; stroke: #000000; stroke-linecap: square"/>
   </g>
   <g id="line2d_61">
    <g clip-path="url(#p6247dfe2c7)">
     <use xlink:href="#me7d0651760" x="276.849321" y="32.918437" style="fill-opacity: 0; stroke: #000000"/>
    </g>
   </g>
   <g id="patch_12">
    <path d="M 287.524103 270.866615 
L 304.991929 270.866615 
L 304.991929 202.118005 
L 287.524103 202.118005 
L 287.524103 270.866615 
z
" clip-path="url(#p6247dfe2c7)" style="fill: #ff7f0e; opacity: 0.75; stroke: #000000; stroke-linejoin: miter"/>
   </g>
   <g id="line2d_62">
    <path d="M 296.258016 270.866615 
L 296.258016 335.318437 
" clip-path="url(#p6247dfe2c7)" style="fill: none; stroke: #000000; stroke-linecap: square"/>
   </g>
   <g id="line2d_63">
    <path d="M 296.258016 202.118005 
L 296.258016 187.609685 
" clip-path="url(#p6247dfe2c7)" style="fill: none; stroke: #000000; stroke-linecap: square"/>
   </g>
   <g id="line2d_64">
    <path d="M 291.89106 335.318437 
L 300.624973 335.318437 
" clip-path="url(#p6247dfe2c7)" style="fill: none; stroke: #000000; stroke-linecap: square"/>
   </g>
   <g id="line2d_65">
    <path d="M 291.89106 187.609685 
L 300.624973 187.609685 
" clip-path="url(#p6247dfe2c7)" style="fill: none; stroke: #000000; stroke-linecap: square"/>
   </g>
   <g id="line2d_66">
    <g clip-path="url(#p6247dfe2c7)">
     <use xlink:href="#me7d0651760" x="296.258016" y="32.918437" style="fill-opacity: 0; stroke: #000000"/>
    </g>
   </g>
   <g id="patch_13">
    <path d="M 306.932799 270.866615 
L 324.400625 270.866615 
L 324.400625 202.118005 
L 306.932799 202.118005 
L 306.932799 270.866615 
z
" clip-path="url(#p6247dfe2c7)" style="fill: #2ca02c; opacity: 0.75; stroke: #000000; stroke-linejoin: miter"/>
   </g>
   <g id="line2d_67">
    <path d="M 315.666712 270.866615 
L 315.666712 335.318437 
" clip-path="url(#p6247dfe2c7)" style="fill: none; stroke: #000000; stroke-linecap: square"/>
   </g>
   <g id="line2d_68">
    <path d="M 315.666712 202.118005 
L 315.666712 187.609685 
" clip-path="url(#p6247dfe2c7)" style="fill: none; stroke: #000000; stroke-linecap: square"/>
   </g>
   <g id="line2d_69">
    <path d="M 311.299755 335.318437 
L 320.033668 335.318437 
" clip-path="url(#p6247dfe2c7)" style="fill: none; stroke: #000000; stroke-linecap: square"/>
   </g>
   <g id="line2d_70">
    <path d="M 311.299755 187.609685 
L 320.033668 187.609685 
" clip-path="url(#p6247dfe2c7)" style="fill: none; stroke: #000000; stroke-linecap: square"/>
   </g>
   <g id="line2d_71">
    <g clip-path="url(#p6247dfe2c7)">
     <use xlink:href="#me7d0651760" x="315.666712" y="32.918437" style="fill-opacity: 0; stroke: #000000"/>
    </g>
   </g>
   <g id="patch_14">
    <path d="M 326.341495 270.866615 
L 343.809321 270.866615 
L 343.809321 202.118005 
L 326.341495 202.118005 
L 326.341495 270.866615 
z
" clip-path="url(#p6247dfe2c7)" style="fill: #d62728; opacity: 0.75; stroke: #000000; stroke-linejoin: miter"/>
   </g>
   <g id="line2d_72">
    <path d="M 335.075408 270.866615 
L 335.075408 335.318437 
" clip-path="url(#p6247dfe2c7)" style="fill: none; stroke: #000000; stroke-linecap: square"/>
   </g>
   <g id="line2d_73">
    <path d="M 335.075408 202.118005 
L 335.075408 187.609685 
" clip-path="url(#p6247dfe2c7)" style="fill: none; stroke: #000000; stroke-linecap: square"/>
   </g>
   <g id="line2d_74">
    <path d="M 330.708451 335.318437 
L 339.442364 335.318437 
" clip-path="url(#p6247dfe2c7)" style="fill: none; stroke: #000000; stroke-linecap: square"/>
   </g>
   <g id="line2d_75">
    <path d="M 330.708451 187.609685 
L 339.442364 187.609685 
" clip-path="url(#p6247dfe2c7)" style="fill: none; stroke: #000000; stroke-linecap: square"/>
   </g>
   <g id="line2d_76">
    <g clip-path="url(#p6247dfe2c7)">
     <use xlink:href="#me7d0651760" x="335.075408" y="32.918437" style="fill-opacity: 0; stroke: #000000"/>
    </g>
   </g>
   <g id="patch_15">
    <path d="M 365.158886 270.866615 
L 382.626712 270.866615 
L 382.626712 202.118005 
L 365.158886 202.118005 
L 365.158886 270.866615 
z
" clip-path="url(#p6247dfe2c7)" style="fill: #1f77b4; opacity: 0.75; stroke: #000000; stroke-linejoin: miter"/>
   </g>
   <g id="line2d_77">
    <path d="M 373.892799 270.866615 
L 373.892799 335.318437 
" clip-path="url(#p6247dfe2c7)" style="fill: none; stroke: #000000; stroke-linecap: square"/>
   </g>
   <g id="line2d_78">
    <path d="M 373.892799 202.118005 
L 373.892799 187.609685 
" clip-path="url(#p6247dfe2c7)" style="fill: none; stroke: #000000; stroke-linecap: square"/>
   </g>
   <g id="line2d_79">
    <path d="M 369.525842 335.318437 
L 378.259755 335.318437 
" clip-path="url(#p6247dfe2c7)" style="fill: none; stroke: #000000; stroke-linecap: square"/>
   </g>
   <g id="line2d_80">
    <path d="M 369.525842 187.609685 
L 378.259755 187.609685 
" clip-path="url(#p6247dfe2c7)" style="fill: none; stroke: #000000; stroke-linecap: square"/>
   </g>
   <g id="line2d_81">
    <g clip-path="url(#p6247dfe2c7)">
     <use xlink:href="#me7d0651760" x="373.892799" y="32.918437" style="fill-opacity: 0; stroke: #000000"/>
    </g>
   </g>
   <g id="patch_16">
    <path d="M 384.567582 270.866615 
L 402.035408 270.866615 
L 402.035408 202.118005 
L 384.567582 202.118005 
L 384.567582 270.866615 
z
" clip-path="url(#p6247dfe2c7)" style="fill: #ff7f0e; opacity: 0.75; stroke: #000000; stroke-linejoin: miter"/>
   </g>
   <g id="line2d_82">
    <path d="M 393.301495 270.866615 
L 393.301495 335.318437 
" clip-path="url(#p6247dfe2c7)" style="fill: none; stroke: #000000; stroke-linecap: square"/>
   </g>
   <g id="line2d_83">
    <path d="M 393.301495 202.118005 
L 393.301495 187.609685 
" clip-path="url(#p6247dfe2c7)" style="fill: none; stroke: #000000; stroke-linecap: square"/>
   </g>
   <g id="line2d_84">
    <path d="M 388.934538 335.318437 
L 397.668451 335.318437 
" clip-path="url(#p6247dfe2c7)" style="fill: none; stroke: #000000; stroke-linecap: square"/>
   </g>
   <g id="line2d_85">
    <path d="M 388.934538 187.609685 
L 397.668451 187.609685 
" clip-path="url(#p6247dfe2c7)" style="fill: none; stroke: #000000; stroke-linecap: square"/>
   </g>
   <g id="line2d_86">
    <g clip-path="url(#p6247dfe2c7)">
     <use xlink:href="#me7d0651760" x="393.301495" y="32.918437" style="fill-opacity: 0; stroke: #000000"/>
    </g>
   </g>
   <g id="patch_17">
    <path d="M 403.976277 270.866615 
L 421.444103 270.866615 
L 421.444103 202.118005 
L 403.976277 202.118005 
L 403.976277 270.866615 
z
" clip-path="url(#p6247dfe2c7)" style="fill: #2ca02c; opacity: 0.75; stroke: #000000; stroke-linejoin: miter"/>
   </g>
   <g id="line2d_87">
    <path d="M 412.71019 270.866615 
L 412.71019 335.318437 
" clip-path="url(#p6247dfe2c7)" style="fill: none; stroke: #000000; stroke-linecap: square"/>
   </g>
   <g id="line2d_88">
    <path d="M 412.71019 202.118005 
L 412.71019 187.609685 
" clip-path="url(#p6247dfe2c7)" style="fill: none; stroke: #000000; stroke-linecap: square"/>
   </g>
   <g id="line2d_89">
    <path d="M 408.343234 335.318437 
L 417.077147 335.318437 
" clip-path="url(#p6247dfe2c7)" style="fill: none; stroke: #000000; stroke-linecap: square"/>
   </g>
   <g id="line2d_90">
    <path d="M 408.343234 187.609685 
L 417.077147 187.609685 
" clip-path="url(#p6247dfe2c7)" style="fill: none; stroke: #000000; stroke-linecap: square"/>
   </g>
   <g id="line2d_91">
    <g clip-path="url(#p6247dfe2c7)">
     <use xlink:href="#me7d0651760" x="412.71019" y="32.918437" style="fill-opacity: 0; stroke: #000000"/>
    </g>
   </g>
   <g id="patch_18">
    <path d="M 423.384973 270.866615 
L 440.852799 270.866615 
L 440.852799 202.118005 
L 423.384973 202.118005 
L 423.384973 270.866615 
z
" clip-path="url(#p6247dfe2c7)" style="fill: #d62728; opacity: 0.75; stroke: #000000; stroke-linejoin: miter"/>
   </g>
   <g id="line2d_92">
    <path d="M 432.118886 270.866615 
L 432.118886 335.318437 
" clip-path="url(#p6247dfe2c7)" style="fill: none; stroke: #000000; stroke-linecap: square"/>
   </g>
   <g id="line2d_93">
    <path d="M 432.118886 202.118005 
L 432.118886 187.609685 
" clip-path="url(#p6247dfe2c7)" style="fill: none; stroke: #000000; stroke-linecap: square"/>
   </g>
   <g id="line2d_94">
    <path d="M 427.751929 335.318437 
L 436.485842 335.318437 
" clip-path="url(#p6247dfe2c7)" style="fill: none; stroke: #000000; stroke-linecap: square"/>
   </g>
   <g id="line2d_95">
    <path d="M 427.751929 187.609685 
L 436.485842 187.609685 
" clip-path="url(#p6247dfe2c7)" style="fill: none; stroke: #000000; stroke-linecap: square"/>
   </g>
   <g id="line2d_96">
    <g clip-path="url(#p6247dfe2c7)">
     <use xlink:href="#me7d0651760" x="432.118886" y="32.918437" style="fill-opacity: 0; stroke: #000000"/>
    </g>
   </g>
   <g id="line2d_97">
    <path d="M 74.028451 202.118005 
L 91.496277 202.118005 
" clip-path="url(#p6247dfe2c7)" style="fill: none; stroke: #000000; stroke-linecap: square"/>
   </g>
   <g id="line2d_98">
    <path d="M 93.437147 202.118005 
L 110.904973 202.118005 
" clip-path="url(#p6247dfe2c7)" style="fill: none; stroke: #000000; stroke-linecap: square"/>
   </g>
   <g id="line2d_99">
    <path d="M 112.845842 202.118005 
L 130.313668 202.118005 
" clip-path="url(#p6247dfe2c7)" style="fill: none; stroke: #000000; stroke-linecap: square"/>
   </g>
   <g id="line2d_100">
    <path d="M 132.254538 202.118005 
L 149.722364 202.118005 
" clip-path="url(#p6247dfe2c7)" style="fill: none; stroke: #000000; stroke-linecap: square"/>
   </g>
   <g id="line2d_101">
    <path d="M 171.071929 202.118005 
L 188.539755 202.118005 
" clip-path="url(#p6247dfe2c7)" style="fill: none; stroke: #000000; stroke-linecap: square"/>
   </g>
   <g id="line2d_102">
    <path d="M 190.480625 202.118005 
L 207.948451 202.118005 
" clip-path="url(#p6247dfe2c7)" style="fill: none; stroke: #000000; stroke-linecap: square"/>
   </g>
   <g id="line2d_103">
    <path d="M 209.889321 202.118005 
L 227.357147 202.118005 
" clip-path="url(#p6247dfe2c7)" style="fill: none; stroke: #000000; stroke-linecap: square"/>
   </g>
   <g id="line2d_104">
    <path d="M 229.298016 202.118005 
L 246.765842 202.118005 
" clip-path="url(#p6247dfe2c7)" style="fill: none; stroke: #000000; stroke-linecap: square"/>
   </g>
   <g id="line2d_105">
    <path d="M 268.115408 202.118005 
L 285.583234 202.118005 
" clip-path="url(#p6247dfe2c7)" style="fill: none; stroke: #000000; stroke-linecap: square"/>
   </g>
   <g id="line2d_106">
    <path d="M 287.524103 202.118005 
L 304.991929 202.118005 
" clip-path="url(#p6247dfe2c7)" style="fill: none; stroke: #000000; stroke-linecap: square"/>
   </g>
   <g id="line2d_107">
    <path d="M 306.932799 202.118005 
L 324.400625 202.118005 
" clip-path="url(#p6247dfe2c7)" style="fill: none; stroke: #000000; stroke-linecap: square"/>
   </g>
   <g id="line2d_108">
    <path d="M 326.341495 202.118005 
L 343.809321 202.118005 
" clip-path="url(#p6247dfe2c7)" style="fill: none; stroke: #000000; stroke-linecap: square"/>
   </g>
   <g id="line2d_109">
    <path d="M 365.158886 202.118005 
L 382.626712 202.118005 
" clip-path="url(#p6247dfe2c7)" style="fill: none; stroke: #000000; stroke-linecap: square"/>
   </g>
   <g id="line2d_110">
    <path d="M 384.567582 202.118005 
L 402.035408 202.118005 
" clip-path="url(#p6247dfe2c7)" style="fill: none; stroke: #000000; stroke-linecap: square"/>
   </g>
   <g id="line2d_111">
    <path d="M 403.976277 202.118005 
L 421.444103 202.118005 
" clip-path="url(#p6247dfe2c7)" style="fill: none; stroke: #000000; stroke-linecap: square"/>
   </g>
   <g id="line2d_112">
    <path d="M 423.384973 202.118005 
L 440.852799 202.118005 
" clip-path="url(#p6247dfe2c7)" style="fill: none; stroke: #000000; stroke-linecap: square"/>
   </g>
   <g id="patch_19">
    <path d="M 34.240625 350.438437 
L 34.240625 17.798437 
" style="fill: none; stroke: #000000; stroke-width: 0.8; stroke-linejoin: miter; stroke-linecap: square"/>
   </g>
   <g id="patch_20">
    <path d="M 480.640625 350.438437 
L 480.640625 17.798437 
" style="fill: none; stroke: #000000; stroke-width: 0.8; stroke-linejoin: miter; stroke-linecap: square"/>
   </g>
   <g id="patch_21">
    <path d="M 34.240625 350.438437 
L 480.640625 350.438437 
" style="fill: none; stroke: #000000; stroke-width: 0.8; stroke-linejoin: miter; stroke-linecap: square"/>
   </g>
   <g id="patch_22">
    <path d="M 34.240625 17.798437 
L 480.640625 17.798437 
" style="fill: none; stroke: #000000; stroke-width: 0.8; stroke-linejoin: miter; stroke-linecap: square"/>
   </g>
   <g id="legend_1">
    <g id="patch_23">
     <path d="M 385.109375 99.467187 
L 473.640625 99.467187 
Q 475.640625 99.467187 475.640625 97.467187 
L 475.640625 24.798437 
Q 475.640625 22.798437 473.640625 22.798437 
L 385.109375 22.798437 
Q 383.109375 22.798437 383.109375 24.798437 
L 383.109375 97.467187 
Q 383.109375 99.467187 385.109375 99.467187 
z
" style="fill: #ffffff; opacity: 0.8; stroke: #cccccc; stroke-linejoin: miter"/>
    </g>
    <g id="text_14">
     <!-- prog_n -->
     <g transform="translate(412.355469 34.396875) scale(0.1 -0.1)">
      <defs>
       <path id="DejaVuSans-70" d="M 1159 525 
L 1159 -1331 
L 581 -1331 
L 581 3500 
L 1159 3500 
L 1159 2969 
Q 1341 3281 1617 3432 
Q 1894 3584 2278 3584 
Q 2916 3584 3314 3078 
Q 3713 2572 3713 1747 
Q 3713 922 3314 415 
Q 2916 -91 2278 -91 
Q 1894 -91 1617 61 
Q 1341 213 1159 525 
z
M 3116 1747 
Q 3116 2381 2855 2742 
Q 2594 3103 2138 3103 
Q 1681 3103 1420 2742 
Q 1159 2381 1159 1747 
Q 1159 1113 1420 752 
Q 1681 391 2138 391 
Q 2594 391 2855 752 
Q 3116 1113 3116 1747 
z
" transform="scale(0.015625)"/>
      </defs>
      <use xlink:href="#DejaVuSans-70"/>
      <use xlink:href="#DejaVuSans-72" x="63.476562"/>
      <use xlink:href="#DejaVuSans-6f" x="102.339844"/>
      <use xlink:href="#DejaVuSans-67" x="163.521484"/>
      <use xlink:href="#DejaVuSans-5f" x="226.998047"/>
      <use xlink:href="#DejaVuSans-6e" x="276.998047"/>
     </g>
    </g>
    <g id="patch_24">
     <path d="M 387.109375 49.353125 
L 407.109375 49.353125 
L 407.109375 42.353125 
L 387.109375 42.353125 
z
" style="fill: #1f77b4; opacity: 0.75"/>
    </g>
    <g id="text_15">
     <!-- prog=100 -->
     <g transform="translate(415.109375 49.353125) scale(0.1 -0.1)">
      <defs>
       <path id="DejaVuSans-3d" d="M 678 2906 
L 4684 2906 
L 4684 2381 
L 678 2381 
L 678 2906 
z
M 678 1631 
L 4684 1631 
L 4684 1100 
L 678 1100 
L 678 1631 
z
" transform="scale(0.015625)"/>
      </defs>
      <use xlink:href="#DejaVuSans-70"/>
      <use xlink:href="#DejaVuSans-72" x="63.476562"/>
      <use xlink:href="#DejaVuSans-6f" x="102.339844"/>
      <use xlink:href="#DejaVuSans-67" x="163.521484"/>
      <use xlink:href="#DejaVuSans-3d" x="226.998047"/>
      <use xlink:href="#DejaVuSans-31" x="310.787109"/>
      <use xlink:href="#DejaVuSans-30" x="374.410156"/>
      <use xlink:href="#DejaVuSans-30" x="438.033203"/>
     </g>
    </g>
    <g id="patch_25">
     <path d="M 387.109375 64.03125 
L 407.109375 64.03125 
L 407.109375 57.03125 
L 387.109375 57.03125 
z
" style="fill: #ff7f0e; opacity: 0.75"/>
    </g>
    <g id="text_16">
     <!-- prog=250 -->
     <g transform="translate(415.109375 64.03125) scale(0.1 -0.1)">
      <use xlink:href="#DejaVuSans-70"/>
      <use xlink:href="#DejaVuSans-72" x="63.476562"/>
      <use xlink:href="#DejaVuSans-6f" x="102.339844"/>
      <use xlink:href="#DejaVuSans-67" x="163.521484"/>
      <use xlink:href="#DejaVuSans-3d" x="226.998047"/>
      <use xlink:href="#DejaVuSans-32" x="310.787109"/>
      <use xlink:href="#DejaVuSans-35" x="374.410156"/>
      <use xlink:href="#DejaVuSans-30" x="438.033203"/>
     </g>
    </g>
    <g id="patch_26">
     <path d="M 387.109375 78.709375 
L 407.109375 78.709375 
L 407.109375 71.709375 
L 387.109375 71.709375 
z
" style="fill: #2ca02c; opacity: 0.75"/>
    </g>
    <g id="text_17">
     <!-- prog=500 -->
     <g transform="translate(415.109375 78.709375) scale(0.1 -0.1)">
      <use xlink:href="#DejaVuSans-70"/>
      <use xlink:href="#DejaVuSans-72" x="63.476562"/>
      <use xlink:href="#DejaVuSans-6f" x="102.339844"/>
      <use xlink:href="#DejaVuSans-67" x="163.521484"/>
      <use xlink:href="#DejaVuSans-3d" x="226.998047"/>
      <use xlink:href="#DejaVuSans-35" x="310.787109"/>
      <use xlink:href="#DejaVuSans-30" x="374.410156"/>
      <use xlink:href="#DejaVuSans-30" x="438.033203"/>
     </g>
    </g>
    <g id="patch_27">
     <path d="M 387.109375 93.3875 
L 407.109375 93.3875 
L 407.109375 86.3875 
L 387.109375 86.3875 
z
" style="fill: #d62728; opacity: 0.75"/>
    </g>
    <g id="text_18">
     <!-- prog=1000 -->
     <g transform="translate(415.109375 93.3875) scale(0.1 -0.1)">
      <use xlink:href="#DejaVuSans-70"/>
      <use xlink:href="#DejaVuSans-72" x="63.476562"/>
      <use xlink:href="#DejaVuSans-6f" x="102.339844"/>
      <use xlink:href="#DejaVuSans-67" x="163.521484"/>
      <use xlink:href="#DejaVuSans-3d" x="226.998047"/>
      <use xlink:href="#DejaVuSans-31" x="310.787109"/>
      <use xlink:href="#DejaVuSans-30" x="374.410156"/>
      <use xlink:href="#DejaVuSans-30" x="438.033203"/>
      <use xlink:href="#DejaVuSans-30" x="501.65625"/>
     </g>
    </g>
   </g>
  </g>
 </g>
 <defs>
  <clipPath id="p6247dfe2c7">
   <rect x="34.240625" y="17.798437" width="446.4" height="332.64"/>
  </clipPath>
 </defs>
</svg>
