<?xml version="1.0" encoding="utf-8" standalone="no"?>
<!DOCTYPE svg PUBLIC "-//W3C//DTD SVG 1.1//EN"
  "http://www.w3.org/Graphics/SVG/1.1/DTD/svg11.dtd">
<svg xmlns:xlink="http://www.w3.org/1999/xlink" width="497.38125pt" height="387.994687pt" viewBox="0 0 497.38125 387.994687" xmlns="http://www.w3.org/2000/svg" version="1.1">
 <metadata>
  <rdf:RDF xmlns:dc="http://purl.org/dc/elements/1.1/" xmlns:cc="http://creativecommons.org/ns#" xmlns:rdf="http://www.w3.org/1999/02/22-rdf-syntax-ns#">
   <cc:Work>
    <dc:type rdf:resource="http://purl.org/dc/dcmitype/StillImage"/>
    <dc:date>2025-10-05T18:15:18.884695</dc:date>
    <dc:format>image/svg+xml</dc:format>
    <dc:creator>
     <cc:Agent>
      <dc:title>Matplotlib v3.6.3, https://matplotlib.org/</dc:title>
     </cc:Agent>
    </dc:creator>
   </cc:Work>
  </rdf:RDF>
 </metadata>
 <defs>
  <style type="text/css">*{stroke-linejoin: round; stroke-linecap: butt}</style>
 </defs>
 <g id="figure_1">
  <g id="patch_1">
   <path d="M 0 387.994687 
L 497.38125 387.994687 
L 497.38125 0 
L 0 0 
z
" style="fill: #ffffff"/>
  </g>
  <g id="axes_1">
   <g id="patch_2">
    <path d="M 43.78125 350.438437 
L 490.18125 350.438437 
L 490.18125 17.798437 
L 43.78125 17.798437 
z
" style="fill: #ffffff"/>
   </g>
   <g id="matplotlib.axis_1">
    <g id="xtick_1">
     <g id="line2d_1">
      <defs>
       <path id="mecccf9b9dd" d="M 0 0 
L 0 3.5 
" style="stroke: #000000; stroke-width: 0.8"/>
      </defs>
      <g>
       <use xlink:href="#mecccf9b9dd" x="121.416033" y="350.438437" style="stroke: #000000; stroke-width: 0.8"/>
      </g>
     </g>
     <g id="text_1">
      <!-- gilbert -->
      <g transform="translate(105.197283 365.036875) scale(0.1 -0.1)">
       <defs>
        <path id="DejaVuSans-67" d="M 2906 1791 
Q 2906 2416 2648 2759 
Q 2391 3103 1925 3103 
Q 1463 3103 1205 2759 
Q 947 2416 947 1791 
Q 947 1169 1205 825 
Q 1463 481 1925 481 
Q 2391 481 2648 825 
Q 2906 1169 2906 1791 
z
M 3481 434 
Q 3481 -459 3084 -895 
Q 2688 -1331 1869 -1331 
Q 1566 -1331 1297 -1286 
Q 1028 -1241 775 -1147 
L 775 -588 
Q 1028 -725 1275 -790 
Q 1522 -856 1778 -856 
Q 2344 -856 2625 -561 
Q 2906 -266 2906 331 
L 2906 616 
Q 2728 306 2450 153 
Q 2172 0 1784 0 
Q 1141 0 747 490 
Q 353 981 353 1791 
Q 353 2603 747 3093 
Q 1141 3584 1784 3584 
Q 2172 3584 2450 3431 
Q 2728 3278 2906 2969 
L 2906 3500 
L 3481 3500 
L 3481 434 
z
" transform="scale(0.015625)"/>
        <path id="DejaVuSans-69" d="M 603 3500 
L 1178 3500 
L 1178 0 
L 603 0 
L 603 3500 
z
M 603 4863 
L 1178 4863 
L 1178 4134 
L 603 4134 
L 603 4863 
z
" transform="scale(0.015625)"/>
        <path id="DejaVuSans-6c" d="M 603 4863 
L 1178 4863 
L 1178 0 
L 603 0 
L 603 4863 
z
" transform="scale(0.015625)"/>
        <path id="DejaVuSans-62" d="M 3116 1747 
Q 3116 2381 2855 2742 
Q 2594 3103 2138 3103 
Q 1681 3103 1420 2742 
Q 1159 2381 1159 1747 
Q 1159 1113 1420 752 
Q 1681 391 2138 391 
Q 2594 391 2855 752 
Q 3116 1113 3116 1747 
z
M 1159 2969 
Q 1341 3281 1617 3432 
Q 1894 3584 2278 3584 
Q 2916 3584 3314 3078 
Q 3713 2572 3713 1747 
Q 3713 922 3314 415 
Q 2916 -91 2278 -91 
Q 1894 -91 1617 61 
Q 1341 213 1159 525 
L 1159 0 
L 581 0 
L 581 4863 
L 1159 4863 
L 1159 2969 
z
" transform="scale(0.015625)"/>
        <path id="DejaVuSans-65" d="M 3597 1894 
L 3597 1613 
L 953 1613 
Q 991 1019 1311 708 
Q 1631 397 2203 397 
Q 2534 397 2845 478 
Q 3156 559 3463 722 
L 3463 178 
Q 3153 47 2828 -22 
Q 2503 -91 2169 -91 
Q 1331 -91 842 396 
Q 353 884 353 1716 
Q 353 2575 817 3079 
Q 1281 3584 2069 3584 
Q 2775 3584 3186 3129 
Q 3597 2675 3597 1894 
z
M 3022 2063 
Q 3016 2534 2758 2815 
Q 2500 3097 2075 3097 
Q 1594 3097 1305 2825 
Q 1016 2553 972 2059 
L 3022 2063 
z
" transform="scale(0.015625)"/>
        <path id="DejaVuSans-72" d="M 2631 2963 
Q 2534 3019 2420 3045 
Q 2306 3072 2169 3072 
Q 1681 3072 1420 2755 
Q 1159 2438 1159 1844 
L 1159 0 
L 581 0 
L 581 3500 
L 1159 3500 
L 1159 2956 
Q 1341 3275 1631 3429 
Q 1922 3584 2338 3584 
Q 2397 3584 2469 3576 
Q 2541 3569 2628 3553 
L 2631 2963 
z
" transform="scale(0.015625)"/>
        <path id="DejaVuSans-74" d="M 1172 4494 
L 1172 3500 
L 2356 3500 
L 2356 3053 
L 1172 3053 
L 1172 1153 
Q 1172 725 1289 603 
Q 1406 481 1766 481 
L 2356 481 
L 2356 0 
L 1766 0 
Q 1100 0 847 248 
Q 594 497 594 1153 
L 594 3053 
L 172 3053 
L 172 3500 
L 594 3500 
L 594 4494 
L 1172 4494 
z
" transform="scale(0.015625)"/>
       </defs>
       <use xlink:href="#DejaVuSans-67"/>
       <use xlink:href="#DejaVuSans-69" x="63.476562"/>
       <use xlink:href="#DejaVuSans-6c" x="91.259766"/>
       <use xlink:href="#DejaVuSans-62" x="119.042969"/>
       <use xlink:href="#DejaVuSans-65" x="182.519531"/>
       <use xlink:href="#DejaVuSans-72" x="244.042969"/>
       <use xlink:href="#DejaVuSans-74" x="285.15625"/>
      </g>
     </g>
    </g>
    <g id="xtick_2">
     <g id="line2d_2">
      <g>
       <use xlink:href="#mecccf9b9dd" x="218.459511" y="350.438437" style="stroke: #000000; stroke-width: 0.8"/>
      </g>
     </g>
     <g id="text_2">
      <!-- hilbert -->
      <g transform="translate(202.24623 365.036875) scale(0.1 -0.1)">
       <defs>
        <path id="DejaVuSans-68" d="M 3513 2113 
L 3513 0 
L 2938 0 
L 2938 2094 
Q 2938 2591 2744 2837 
Q 2550 3084 2163 3084 
Q 1697 3084 1428 2787 
Q 1159 2491 1159 1978 
L 1159 0 
L 581 0 
L 581 4863 
L 1159 4863 
L 1159 2956 
Q 1366 3272 1645 3428 
Q 1925 3584 2291 3584 
Q 2894 3584 3203 3211 
Q 3513 2838 3513 2113 
z
" transform="scale(0.015625)"/>
       </defs>
       <use xlink:href="#DejaVuSans-68"/>
       <use xlink:href="#DejaVuSans-69" x="63.378906"/>
       <use xlink:href="#DejaVuSans-6c" x="91.162109"/>
       <use xlink:href="#DejaVuSans-62" x="118.945312"/>
       <use xlink:href="#DejaVuSans-65" x="182.421875"/>
       <use xlink:href="#DejaVuSans-72" x="243.945312"/>
       <use xlink:href="#DejaVuSans-74" x="285.058594"/>
      </g>
     </g>
    </g>
    <g id="xtick_3">
     <g id="line2d_3">
      <g>
       <use xlink:href="#mecccf9b9dd" x="315.502989" y="350.438437" style="stroke: #000000; stroke-width: 0.8"/>
      </g>
     </g>
     <g id="text_3">
      <!-- rcb -->
      <g transform="translate(307.636583 365.036875) scale(0.1 -0.1)">
       <defs>
        <path id="DejaVuSans-63" d="M 3122 3366 
L 3122 2828 
Q 2878 2963 2633 3030 
Q 2388 3097 2138 3097 
Q 1578 3097 1268 2742 
Q 959 2388 959 1747 
Q 959 1106 1268 751 
Q 1578 397 2138 397 
Q 2388 397 2633 464 
Q 2878 531 3122 666 
L 3122 134 
Q 2881 22 2623 -34 
Q 2366 -91 2075 -91 
Q 1284 -91 818 406 
Q 353 903 353 1747 
Q 353 2603 823 3093 
Q 1294 3584 2113 3584 
Q 2378 3584 2631 3529 
Q 2884 3475 3122 3366 
z
" transform="scale(0.015625)"/>
       </defs>
       <use xlink:href="#DejaVuSans-72"/>
       <use xlink:href="#DejaVuSans-63" x="38.863281"/>
       <use xlink:href="#DejaVuSans-62" x="93.84375"/>
      </g>
     </g>
    </g>
    <g id="xtick_4">
     <g id="line2d_4">
      <g>
       <use xlink:href="#mecccf9b9dd" x="412.546467" y="350.438437" style="stroke: #000000; stroke-width: 0.8"/>
      </g>
     </g>
     <g id="text_4">
      <!-- rcbincr -->
      <g transform="translate(395.317561 365.036875) scale(0.1 -0.1)">
       <defs>
        <path id="DejaVuSans-6e" d="M 3513 2113 
L 3513 0 
L 2938 0 
L 2938 2094 
Q 2938 2591 2744 2837 
Q 2550 3084 2163 3084 
Q 1697 3084 1428 2787 
Q 1159 2491 1159 1978 
L 1159 0 
L 581 0 
L 581 3500 
L 1159 3500 
L 1159 2956 
Q 1366 3272 1645 3428 
Q 1925 3584 2291 3584 
Q 2894 3584 3203 3211 
Q 3513 2838 3513 2113 
z
" transform="scale(0.015625)"/>
       </defs>
       <use xlink:href="#DejaVuSans-72"/>
       <use xlink:href="#DejaVuSans-63" x="38.863281"/>
       <use xlink:href="#DejaVuSans-62" x="93.84375"/>
       <use xlink:href="#DejaVuSans-69" x="157.320312"/>
       <use xlink:href="#DejaVuSans-6e" x="185.103516"/>
       <use xlink:href="#DejaVuSans-63" x="248.482422"/>
       <use xlink:href="#DejaVuSans-72" x="303.462891"/>
      </g>
     </g>
    </g>
    <g id="text_5">
     <!-- algorithm -->
     <g transform="translate(242.850781 378.715) scale(0.1 -0.1)">
      <defs>
       <path id="DejaVuSans-61" d="M 2194 1759 
Q 1497 1759 1228 1600 
Q 959 1441 959 1056 
Q 959 750 1161 570 
Q 1363 391 1709 391 
Q 2188 391 2477 730 
Q 2766 1069 2766 1631 
L 2766 1759 
L 2194 1759 
z
M 3341 1997 
L 3341 0 
L 2766 0 
L 2766 531 
Q 2569 213 2275 61 
Q 1981 -91 1556 -91 
Q 1019 -91 701 211 
Q 384 513 384 1019 
Q 384 1609 779 1909 
Q 1175 2209 1959 2209 
L 2766 2209 
L 2766 2266 
Q 2766 2663 2505 2880 
Q 2244 3097 1772 3097 
Q 1472 3097 1187 3025 
Q 903 2953 641 2809 
L 641 3341 
Q 956 3463 1253 3523 
Q 1550 3584 1831 3584 
Q 2591 3584 2966 3190 
Q 3341 2797 3341 1997 
z
" transform="scale(0.015625)"/>
       <path id="DejaVuSans-6f" d="M 1959 3097 
Q 1497 3097 1228 2736 
Q 959 2375 959 1747 
Q 959 1119 1226 758 
Q 1494 397 1959 397 
Q 2419 397 2687 759 
Q 2956 1122 2956 1747 
Q 2956 2369 2687 2733 
Q 2419 3097 1959 3097 
z
M 1959 3584 
Q 2709 3584 3137 3096 
Q 3566 2609 3566 1747 
Q 3566 888 3137 398 
Q 2709 -91 1959 -91 
Q 1206 -91 779 398 
Q 353 888 353 1747 
Q 353 2609 779 3096 
Q 1206 3584 1959 3584 
z
" transform="scale(0.015625)"/>
       <path id="DejaVuSans-6d" d="M 3328 2828 
Q 3544 3216 3844 3400 
Q 4144 3584 4550 3584 
Q 5097 3584 5394 3201 
Q 5691 2819 5691 2113 
L 5691 0 
L 5113 0 
L 5113 2094 
Q 5113 2597 4934 2840 
Q 4756 3084 4391 3084 
Q 3944 3084 3684 2787 
Q 3425 2491 3425 1978 
L 3425 0 
L 2847 0 
L 2847 2094 
Q 2847 2600 2669 2842 
Q 2491 3084 2119 3084 
Q 1678 3084 1418 2786 
Q 1159 2488 1159 1978 
L 1159 0 
L 581 0 
L 581 3500 
L 1159 3500 
L 1159 2956 
Q 1356 3278 1631 3431 
Q 1906 3584 2284 3584 
Q 2666 3584 2933 3390 
Q 3200 3197 3328 2828 
z
" transform="scale(0.015625)"/>
      </defs>
      <use xlink:href="#DejaVuSans-61"/>
      <use xlink:href="#DejaVuSans-6c" x="61.279297"/>
      <use xlink:href="#DejaVuSans-67" x="89.0625"/>
      <use xlink:href="#DejaVuSans-6f" x="152.539062"/>
      <use xlink:href="#DejaVuSans-72" x="213.720703"/>
      <use xlink:href="#DejaVuSans-69" x="254.833984"/>
      <use xlink:href="#DejaVuSans-74" x="282.617188"/>
      <use xlink:href="#DejaVuSans-68" x="321.826172"/>
      <use xlink:href="#DejaVuSans-6d" x="385.205078"/>
     </g>
    </g>
   </g>
   <g id="matplotlib.axis_2">
    <g id="ytick_1">
     <g id="line2d_5">
      <path d="M 43.78125 340.099458 
L 490.18125 340.099458 
" clip-path="url(#pc80f2c1951)" style="fill: none; stroke: #b0b0b0; stroke-width: 0.8; stroke-linecap: square"/>
     </g>
     <g id="line2d_6">
      <defs>
       <path id="mc37b63865b" d="M 0 0 
L -3.5 0 
" style="stroke: #000000; stroke-width: 0.8"/>
      </defs>
      <g>
       <use xlink:href="#mc37b63865b" x="43.78125" y="340.099458" style="stroke: #000000; stroke-width: 0.8"/>
      </g>
     </g>
     <g id="text_6">
      <!-- 0.0 -->
      <g transform="translate(20.878125 343.898676) scale(0.1 -0.1)">
       <defs>
        <path id="DejaVuSans-30" d="M 2034 4250 
Q 1547 4250 1301 3770 
Q 1056 3291 1056 2328 
Q 1056 1369 1301 889 
Q 1547 409 2034 409 
Q 2525 409 2770 889 
Q 3016 1369 3016 2328 
Q 3016 3291 2770 3770 
Q 2525 4250 2034 4250 
z
M 2034 4750 
Q 2819 4750 3233 4129 
Q 3647 3509 3647 2328 
Q 3647 1150 3233 529 
Q 2819 -91 2034 -91 
Q 1250 -91 836 529 
Q 422 1150 422 2328 
Q 422 3509 836 4129 
Q 1250 4750 2034 4750 
z
" transform="scale(0.015625)"/>
        <path id="DejaVuSans-2e" d="M 684 794 
L 1344 794 
L 1344 0 
L 684 0 
L 684 794 
z
" transform="scale(0.015625)"/>
       </defs>
       <use xlink:href="#DejaVuSans-30"/>
       <use xlink:href="#DejaVuSans-2e" x="63.623047"/>
       <use xlink:href="#DejaVuSans-30" x="95.410156"/>
      </g>
     </g>
    </g>
    <g id="ytick_2">
     <g id="line2d_7">
      <path d="M 43.78125 280.336706 
L 490.18125 280.336706 
" clip-path="url(#pc80f2c1951)" style="fill: none; stroke: #b0b0b0; stroke-width: 0.8; stroke-linecap: square"/>
     </g>
     <g id="line2d_8">
      <g>
       <use xlink:href="#mc37b63865b" x="43.78125" y="280.336706" style="stroke: #000000; stroke-width: 0.8"/>
      </g>
     </g>
     <g id="text_7">
      <!-- 0.5 -->
      <g transform="translate(20.878125 284.135925) scale(0.1 -0.1)">
       <defs>
        <path id="DejaVuSans-35" d="M 691 4666 
L 3169 4666 
L 3169 4134 
L 1269 4134 
L 1269 2991 
Q 1406 3038 1543 3061 
Q 1681 3084 1819 3084 
Q 2600 3084 3056 2656 
Q 3513 2228 3513 1497 
Q 3513 744 3044 326 
Q 2575 -91 1722 -91 
Q 1428 -91 1123 -41 
Q 819 9 494 109 
L 494 744 
Q 775 591 1075 516 
Q 1375 441 1709 441 
Q 2250 441 2565 725 
Q 2881 1009 2881 1497 
Q 2881 1984 2565 2268 
Q 2250 2553 1709 2553 
Q 1456 2553 1204 2497 
Q 953 2441 691 2322 
L 691 4666 
z
" transform="scale(0.015625)"/>
       </defs>
       <use xlink:href="#DejaVuSans-30"/>
       <use xlink:href="#DejaVuSans-2e" x="63.623047"/>
       <use xlink:href="#DejaVuSans-35" x="95.410156"/>
      </g>
     </g>
    </g>
    <g id="ytick_3">
     <g id="line2d_9">
      <path d="M 43.78125 220.573955 
L 490.18125 220.573955 
" clip-path="url(#pc80f2c1951)" style="fill: none; stroke: #b0b0b0; stroke-width: 0.8; stroke-linecap: square"/>
     </g>
     <g id="line2d_10">
      <g>
       <use xlink:href="#mc37b63865b" x="43.78125" y="220.573955" style="stroke: #000000; stroke-width: 0.8"/>
      </g>
     </g>
     <g id="text_8">
      <!-- 1.0 -->
      <g transform="translate(20.878125 224.373174) scale(0.1 -0.1)">
       <defs>
        <path id="DejaVuSans-31" d="M 794 531 
L 1825 531 
L 1825 4091 
L 703 3866 
L 703 4441 
L 1819 4666 
L 2450 4666 
L 2450 531 
L 3481 531 
L 3481 0 
L 794 0 
L 794 531 
z
" transform="scale(0.015625)"/>
       </defs>
       <use xlink:href="#DejaVuSans-31"/>
       <use xlink:href="#DejaVuSans-2e" x="63.623047"/>
       <use xlink:href="#DejaVuSans-30" x="95.410156"/>
      </g>
     </g>
    </g>
    <g id="ytick_4">
     <g id="line2d_11">
      <path d="M 43.78125 160.811204 
L 490.18125 160.811204 
" clip-path="url(#pc80f2c1951)" style="fill: none; stroke: #b0b0b0; stroke-width: 0.8; stroke-linecap: square"/>
     </g>
     <g id="line2d_12">
      <g>
       <use xlink:href="#mc37b63865b" x="43.78125" y="160.811204" style="stroke: #000000; stroke-width: 0.8"/>
      </g>
     </g>
     <g id="text_9">
      <!-- 1.5 -->
      <g transform="translate(20.878125 164.610422) scale(0.1 -0.1)">
       <use xlink:href="#DejaVuSans-31"/>
       <use xlink:href="#DejaVuSans-2e" x="63.623047"/>
       <use xlink:href="#DejaVuSans-35" x="95.410156"/>
      </g>
     </g>
    </g>
    <g id="ytick_5">
     <g id="line2d_13">
      <path d="M 43.78125 101.048452 
L 490.18125 101.048452 
" clip-path="url(#pc80f2c1951)" style="fill: none; stroke: #b0b0b0; stroke-width: 0.8; stroke-linecap: square"/>
     </g>
     <g id="line2d_14">
      <g>
       <use xlink:href="#mc37b63865b" x="43.78125" y="101.048452" style="stroke: #000000; stroke-width: 0.8"/>
      </g>
     </g>
     <g id="text_10">
      <!-- 2.0 -->
      <g transform="translate(20.878125 104.847671) scale(0.1 -0.1)">
       <defs>
        <path id="DejaVuSans-32" d="M 1228 531 
L 3431 531 
L 3431 0 
L 469 0 
L 469 531 
Q 828 903 1448 1529 
Q 2069 2156 2228 2338 
Q 2531 2678 2651 2914 
Q 2772 3150 2772 3378 
Q 2772 3750 2511 3984 
Q 2250 4219 1831 4219 
Q 1534 4219 1204 4116 
Q 875 4013 500 3803 
L 500 4441 
Q 881 4594 1212 4672 
Q 1544 4750 1819 4750 
Q 2544 4750 2975 4387 
Q 3406 4025 3406 3419 
Q 3406 3131 3298 2873 
Q 3191 2616 2906 2266 
Q 2828 2175 2409 1742 
Q 1991 1309 1228 531 
z
" transform="scale(0.015625)"/>
       </defs>
       <use xlink:href="#DejaVuSans-32"/>
       <use xlink:href="#DejaVuSans-2e" x="63.623047"/>
       <use xlink:href="#DejaVuSans-30" x="95.410156"/>
      </g>
     </g>
    </g>
    <g id="ytick_6">
     <g id="line2d_15">
      <path d="M 43.78125 41.285701 
L 490.18125 41.285701 
" clip-path="url(#pc80f2c1951)" style="fill: none; stroke: #b0b0b0; stroke-width: 0.8; stroke-linecap: square"/>
     </g>
     <g id="line2d_16">
      <g>
       <use xlink:href="#mc37b63865b" x="43.78125" y="41.285701" style="stroke: #000000; stroke-width: 0.8"/>
      </g>
     </g>
     <g id="text_11">
      <!-- 2.5 -->
      <g transform="translate(20.878125 45.08492) scale(0.1 -0.1)">
       <use xlink:href="#DejaVuSans-32"/>
       <use xlink:href="#DejaVuSans-2e" x="63.623047"/>
       <use xlink:href="#DejaVuSans-35" x="95.410156"/>
      </g>
     </g>
    </g>
    <g id="text_12">
     <!-- recv_count -->
     <g transform="translate(14.520313 211.452812) rotate(-90) scale(0.1 -0.1)">
      <defs>
       <path id="DejaVuSans-76" d="M 191 3500 
L 800 3500 
L 1894 563 
L 2988 3500 
L 3597 3500 
L 2284 0 
L 1503 0 
L 191 3500 
z
" transform="scale(0.015625)"/>
       <path id="DejaVuSans-5f" d="M 3263 -1063 
L 3263 -1509 
L -63 -1509 
L -63 -1063 
L 3263 -1063 
z
" transform="scale(0.015625)"/>
       <path id="DejaVuSans-75" d="M 544 1381 
L 544 3500 
L 1119 3500 
L 1119 1403 
Q 1119 906 1312 657 
Q 1506 409 1894 409 
Q 2359 409 2629 706 
Q 2900 1003 2900 1516 
L 2900 3500 
L 3475 3500 
L 3475 0 
L 2900 0 
L 2900 538 
Q 2691 219 2414 64 
Q 2138 -91 1772 -91 
Q 1169 -91 856 284 
Q 544 659 544 1381 
z
M 1991 3584 
L 1991 3584 
z
" transform="scale(0.015625)"/>
      </defs>
      <use xlink:href="#DejaVuSans-72"/>
      <use xlink:href="#DejaVuSans-65" x="38.863281"/>
      <use xlink:href="#DejaVuSans-63" x="100.386719"/>
      <use xlink:href="#DejaVuSans-76" x="155.367188"/>
      <use xlink:href="#DejaVuSans-5f" x="214.546875"/>
      <use xlink:href="#DejaVuSans-63" x="264.546875"/>
      <use xlink:href="#DejaVuSans-6f" x="319.527344"/>
      <use xlink:href="#DejaVuSans-75" x="380.708984"/>
      <use xlink:href="#DejaVuSans-6e" x="444.087891"/>
      <use xlink:href="#DejaVuSans-74" x="507.466797"/>
     </g>
    </g>
    <g id="text_13">
     <!-- 1e6 -->
     <g transform="translate(43.78125 14.798437) scale(0.1 -0.1)">
      <defs>
       <path id="DejaVuSans-36" d="M 2113 2584 
Q 1688 2584 1439 2293 
Q 1191 2003 1191 1497 
Q 1191 994 1439 701 
Q 1688 409 2113 409 
Q 2538 409 2786 701 
Q 3034 994 3034 1497 
Q 3034 2003 2786 2293 
Q 2538 2584 2113 2584 
z
M 3366 4563 
L 3366 3988 
Q 3128 4100 2886 4159 
Q 2644 4219 2406 4219 
Q 1781 4219 1451 3797 
Q 1122 3375 1075 2522 
Q 1259 2794 1537 2939 
Q 1816 3084 2150 3084 
Q 2853 3084 3261 2657 
Q 3669 2231 3669 1497 
Q 3669 778 3244 343 
Q 2819 -91 2113 -91 
Q 1303 -91 875 529 
Q 447 1150 447 2328 
Q 447 3434 972 4092 
Q 1497 4750 2381 4750 
Q 2619 4750 2861 4703 
Q 3103 4656 3366 4563 
z
" transform="scale(0.015625)"/>
      </defs>
      <use xlink:href="#DejaVuSans-31"/>
      <use xlink:href="#DejaVuSans-65" x="63.623047"/>
      <use xlink:href="#DejaVuSans-36" x="125.146484"/>
     </g>
    </g>
   </g>
   <g id="patch_3">
    <path d="M 83.569076 185.911081 
L 101.036902 185.911081 
L 101.036902 32.918437 
L 83.569076 32.918437 
L 83.569076 185.911081 
z
" clip-path="url(#pc80f2c1951)" style="fill: #1f77b4; opacity: 0.75; stroke: #000000; stroke-linejoin: miter"/>
   </g>
   <g id="line2d_17">
    <path d="M 92.302989 185.911081 
L 92.302989 335.318437 
" clip-path="url(#pc80f2c1951)" style="fill: none; stroke: #000000; stroke-linecap: square"/>
   </g>
   <g id="line2d_18">
    <path d="M 92.302989 32.918437 
L 92.302989 32.918437 
" clip-path="url(#pc80f2c1951)" style="fill: none; stroke: #000000; stroke-linecap: square"/>
   </g>
   <g id="line2d_19">
    <path d="M 87.936033 335.318437 
L 96.669946 335.318437 
" clip-path="url(#pc80f2c1951)" style="fill: none; stroke: #000000; stroke-linecap: square"/>
   </g>
   <g id="line2d_20">
    <path d="M 87.936033 32.918437 
L 96.669946 32.918437 
" clip-path="url(#pc80f2c1951)" style="fill: none; stroke: #000000; stroke-linecap: square"/>
   </g>
   <g id="line2d_21"/>
   <g id="patch_4">
    <path d="M 102.977772 185.911081 
L 120.445598 185.911081 
L 120.445598 32.918437 
L 102.977772 32.918437 
L 102.977772 185.911081 
z
" clip-path="url(#pc80f2c1951)" style="fill: #ff7f0e; opacity: 0.75; stroke: #000000; stroke-linejoin: miter"/>
   </g>
   <g id="line2d_22">
    <path d="M 111.711685 185.911081 
L 111.711685 335.318437 
" clip-path="url(#pc80f2c1951)" style="fill: none; stroke: #000000; stroke-linecap: square"/>
   </g>
   <g id="line2d_23">
    <path d="M 111.711685 32.918437 
L 111.711685 32.918437 
" clip-path="url(#pc80f2c1951)" style="fill: none; stroke: #000000; stroke-linecap: square"/>
   </g>
   <g id="line2d_24">
    <path d="M 107.344728 335.318437 
L 116.078641 335.318437 
" clip-path="url(#pc80f2c1951)" style="fill: none; stroke: #000000; stroke-linecap: square"/>
   </g>
   <g id="line2d_25">
    <path d="M 107.344728 32.918437 
L 116.078641 32.918437 
" clip-path="url(#pc80f2c1951)" style="fill: none; stroke: #000000; stroke-linecap: square"/>
   </g>
   <g id="line2d_26"/>
   <g id="patch_5">
    <path d="M 122.386467 190.393646 
L 139.854293 190.393646 
L 139.854293 32.918437 
L 122.386467 32.918437 
L 122.386467 190.393646 
z
" clip-path="url(#pc80f2c1951)" style="fill: #2ca02c; opacity: 0.75; stroke: #000000; stroke-linejoin: miter"/>
   </g>
   <g id="line2d_27">
    <path d="M 131.12038 190.393646 
L 131.12038 335.318437 
" clip-path="url(#pc80f2c1951)" style="fill: none; stroke: #000000; stroke-linecap: square"/>
   </g>
   <g id="line2d_28">
    <path d="M 131.12038 32.918437 
L 131.12038 32.918437 
" clip-path="url(#pc80f2c1951)" style="fill: none; stroke: #000000; stroke-linecap: square"/>
   </g>
   <g id="line2d_29">
    <path d="M 126.753424 335.318437 
L 135.487337 335.318437 
" clip-path="url(#pc80f2c1951)" style="fill: none; stroke: #000000; stroke-linecap: square"/>
   </g>
   <g id="line2d_30">
    <path d="M 126.753424 32.918437 
L 135.487337 32.918437 
" clip-path="url(#pc80f2c1951)" style="fill: none; stroke: #000000; stroke-linecap: square"/>
   </g>
   <g id="line2d_31"/>
   <g id="patch_6">
    <path d="M 141.795163 185.911081 
L 159.262989 185.911081 
L 159.262989 32.918437 
L 141.795163 32.918437 
L 141.795163 185.911081 
z
" clip-path="url(#pc80f2c1951)" style="fill: #d62728; opacity: 0.75; stroke: #000000; stroke-linejoin: miter"/>
   </g>
   <g id="line2d_32">
    <path d="M 150.529076 185.911081 
L 150.529076 335.318437 
" clip-path="url(#pc80f2c1951)" style="fill: none; stroke: #000000; stroke-linecap: square"/>
   </g>
   <g id="line2d_33">
    <path d="M 150.529076 32.918437 
L 150.529076 32.918437 
" clip-path="url(#pc80f2c1951)" style="fill: none; stroke: #000000; stroke-linecap: square"/>
   </g>
   <g id="line2d_34">
    <path d="M 146.16212 335.318437 
L 154.896033 335.318437 
" clip-path="url(#pc80f2c1951)" style="fill: none; stroke: #000000; stroke-linecap: square"/>
   </g>
   <g id="line2d_35">
    <path d="M 146.16212 32.918437 
L 154.896033 32.918437 
" clip-path="url(#pc80f2c1951)" style="fill: none; stroke: #000000; stroke-linecap: square"/>
   </g>
   <g id="line2d_36"/>
   <g id="patch_7">
    <path d="M 180.612554 185.911081 
L 198.08038 185.911081 
L 198.08038 32.918437 
L 180.612554 32.918437 
L 180.612554 185.911081 
z
" clip-path="url(#pc80f2c1951)" style="fill: #1f77b4; opacity: 0.75; stroke: #000000; stroke-linejoin: miter"/>
   </g>
   <g id="line2d_37">
    <path d="M 189.346467 185.911081 
L 189.346467 335.318437 
" clip-path="url(#pc80f2c1951)" style="fill: none; stroke: #000000; stroke-linecap: square"/>
   </g>
   <g id="line2d_38">
    <path d="M 189.346467 32.918437 
L 189.346467 32.918437 
" clip-path="url(#pc80f2c1951)" style="fill: none; stroke: #000000; stroke-linecap: square"/>
   </g>
   <g id="line2d_39">
    <path d="M 184.979511 335.318437 
L 193.713424 335.318437 
" clip-path="url(#pc80f2c1951)" style="fill: none; stroke: #000000; stroke-linecap: square"/>
   </g>
   <g id="line2d_40">
    <path d="M 184.979511 32.918437 
L 193.713424 32.918437 
" clip-path="url(#pc80f2c1951)" style="fill: none; stroke: #000000; stroke-linecap: square"/>
   </g>
   <g id="line2d_41"/>
   <g id="patch_8">
    <path d="M 200.02125 185.911081 
L 217.489076 185.911081 
L 217.489076 32.918437 
L 200.02125 32.918437 
L 200.02125 185.911081 
z
" clip-path="url(#pc80f2c1951)" style="fill: #ff7f0e; opacity: 0.75; stroke: #000000; stroke-linejoin: miter"/>
   </g>
   <g id="line2d_42">
    <path d="M 208.755163 185.911081 
L 208.755163 335.318437 
" clip-path="url(#pc80f2c1951)" style="fill: none; stroke: #000000; stroke-linecap: square"/>
   </g>
   <g id="line2d_43">
    <path d="M 208.755163 32.918437 
L 208.755163 32.918437 
" clip-path="url(#pc80f2c1951)" style="fill: none; stroke: #000000; stroke-linecap: square"/>
   </g>
   <g id="line2d_44">
    <path d="M 204.388207 335.318437 
L 213.12212 335.318437 
" clip-path="url(#pc80f2c1951)" style="fill: none; stroke: #000000; stroke-linecap: square"/>
   </g>
   <g id="line2d_45">
    <path d="M 204.388207 32.918437 
L 213.12212 32.918437 
" clip-path="url(#pc80f2c1951)" style="fill: none; stroke: #000000; stroke-linecap: square"/>
   </g>
   <g id="line2d_46"/>
   <g id="patch_9">
    <path d="M 219.429946 185.911081 
L 236.897772 185.911081 
L 236.897772 32.918437 
L 219.429946 32.918437 
L 219.429946 185.911081 
z
" clip-path="url(#pc80f2c1951)" style="fill: #2ca02c; opacity: 0.75; stroke: #000000; stroke-linejoin: miter"/>
   </g>
   <g id="line2d_47">
    <path d="M 228.163859 185.911081 
L 228.163859 335.318437 
" clip-path="url(#pc80f2c1951)" style="fill: none; stroke: #000000; stroke-linecap: square"/>
   </g>
   <g id="line2d_48">
    <path d="M 228.163859 32.918437 
L 228.163859 32.918437 
" clip-path="url(#pc80f2c1951)" style="fill: none; stroke: #000000; stroke-linecap: square"/>
   </g>
   <g id="line2d_49">
    <path d="M 223.796902 335.318437 
L 232.530815 335.318437 
" clip-path="url(#pc80f2c1951)" style="fill: none; stroke: #000000; stroke-linecap: square"/>
   </g>
   <g id="line2d_50">
    <path d="M 223.796902 32.918437 
L 232.530815 32.918437 
" clip-path="url(#pc80f2c1951)" style="fill: none; stroke: #000000; stroke-linecap: square"/>
   </g>
   <g id="line2d_51"/>
   <g id="patch_10">
    <path d="M 238.838641 185.911081 
L 256.306467 185.911081 
L 256.306467 32.918437 
L 238.838641 32.918437 
L 238.838641 185.911081 
z
" clip-path="url(#pc80f2c1951)" style="fill: #d62728; opacity: 0.75; stroke: #000000; stroke-linejoin: miter"/>
   </g>
   <g id="line2d_52">
    <path d="M 247.572554 185.911081 
L 247.572554 335.318437 
" clip-path="url(#pc80f2c1951)" style="fill: none; stroke: #000000; stroke-linecap: square"/>
   </g>
   <g id="line2d_53">
    <path d="M 247.572554 32.918437 
L 247.572554 32.918437 
" clip-path="url(#pc80f2c1951)" style="fill: none; stroke: #000000; stroke-linecap: square"/>
   </g>
   <g id="line2d_54">
    <path d="M 243.205598 335.318437 
L 251.939511 335.318437 
" clip-path="url(#pc80f2c1951)" style="fill: none; stroke: #000000; stroke-linecap: square"/>
   </g>
   <g id="line2d_55">
    <path d="M 243.205598 32.918437 
L 251.939511 32.918437 
" clip-path="url(#pc80f2c1951)" style="fill: none; stroke: #000000; stroke-linecap: square"/>
   </g>
   <g id="line2d_56"/>
   <g id="patch_11">
    <path d="M 277.656033 185.911081 
L 295.123859 185.911081 
L 295.123859 32.918437 
L 277.656033 32.918437 
L 277.656033 185.911081 
z
" clip-path="url(#pc80f2c1951)" style="fill: #1f77b4; opacity: 0.75; stroke: #000000; stroke-linejoin: miter"/>
   </g>
   <g id="line2d_57">
    <path d="M 286.389946 185.911081 
L 286.389946 335.318437 
" clip-path="url(#pc80f2c1951)" style="fill: none; stroke: #000000; stroke-linecap: square"/>
   </g>
   <g id="line2d_58">
    <path d="M 286.389946 32.918437 
L 286.389946 32.918437 
" clip-path="url(#pc80f2c1951)" style="fill: none; stroke: #000000; stroke-linecap: square"/>
   </g>
   <g id="line2d_59">
    <path d="M 282.022989 335.318437 
L 290.756902 335.318437 
" clip-path="url(#pc80f2c1951)" style="fill: none; stroke: #000000; stroke-linecap: square"/>
   </g>
   <g id="line2d_60">
    <path d="M 282.022989 32.918437 
L 290.756902 32.918437 
" clip-path="url(#pc80f2c1951)" style="fill: none; stroke: #000000; stroke-linecap: square"/>
   </g>
   <g id="line2d_61"/>
   <g id="patch_12">
    <path d="M 297.064728 185.911081 
L 314.532554 185.911081 
L 314.532554 32.918437 
L 297.064728 32.918437 
L 297.064728 185.911081 
z
" clip-path="url(#pc80f2c1951)" style="fill: #ff7f0e; opacity: 0.75; stroke: #000000; stroke-linejoin: miter"/>
   </g>
   <g id="line2d_62">
    <path d="M 305.798641 185.911081 
L 305.798641 335.318437 
" clip-path="url(#pc80f2c1951)" style="fill: none; stroke: #000000; stroke-linecap: square"/>
   </g>
   <g id="line2d_63">
    <path d="M 305.798641 32.918437 
L 305.798641 32.918437 
" clip-path="url(#pc80f2c1951)" style="fill: none; stroke: #000000; stroke-linecap: square"/>
   </g>
   <g id="line2d_64">
    <path d="M 301.431685 335.318437 
L 310.165598 335.318437 
" clip-path="url(#pc80f2c1951)" style="fill: none; stroke: #000000; stroke-linecap: square"/>
   </g>
   <g id="line2d_65">
    <path d="M 301.431685 32.918437 
L 310.165598 32.918437 
" clip-path="url(#pc80f2c1951)" style="fill: none; stroke: #000000; stroke-linecap: square"/>
   </g>
   <g id="line2d_66"/>
   <g id="patch_13">
    <path d="M 316.473424 185.911081 
L 333.94125 185.911081 
L 333.94125 32.918437 
L 316.473424 32.918437 
L 316.473424 185.911081 
z
" clip-path="url(#pc80f2c1951)" style="fill: #2ca02c; opacity: 0.75; stroke: #000000; stroke-linejoin: miter"/>
   </g>
   <g id="line2d_67">
    <path d="M 325.207337 185.911081 
L 325.207337 335.318437 
" clip-path="url(#pc80f2c1951)" style="fill: none; stroke: #000000; stroke-linecap: square"/>
   </g>
   <g id="line2d_68">
    <path d="M 325.207337 32.918437 
L 325.207337 32.918437 
" clip-path="url(#pc80f2c1951)" style="fill: none; stroke: #000000; stroke-linecap: square"/>
   </g>
   <g id="line2d_69">
    <path d="M 320.84038 335.318437 
L 329.574293 335.318437 
" clip-path="url(#pc80f2c1951)" style="fill: none; stroke: #000000; stroke-linecap: square"/>
   </g>
   <g id="line2d_70">
    <path d="M 320.84038 32.918437 
L 329.574293 32.918437 
" clip-path="url(#pc80f2c1951)" style="fill: none; stroke: #000000; stroke-linecap: square"/>
   </g>
   <g id="line2d_71"/>
   <g id="patch_14">
    <path d="M 335.88212 185.911081 
L 353.349946 185.911081 
L 353.349946 32.918437 
L 335.88212 32.918437 
L 335.88212 185.911081 
z
" clip-path="url(#pc80f2c1951)" style="fill: #d62728; opacity: 0.75; stroke: #000000; stroke-linejoin: miter"/>
   </g>
   <g id="line2d_72">
    <path d="M 344.616033 185.911081 
L 344.616033 335.318437 
" clip-path="url(#pc80f2c1951)" style="fill: none; stroke: #000000; stroke-linecap: square"/>
   </g>
   <g id="line2d_73">
    <path d="M 344.616033 32.918437 
L 344.616033 32.918437 
" clip-path="url(#pc80f2c1951)" style="fill: none; stroke: #000000; stroke-linecap: square"/>
   </g>
   <g id="line2d_74">
    <path d="M 340.249076 335.318437 
L 348.982989 335.318437 
" clip-path="url(#pc80f2c1951)" style="fill: none; stroke: #000000; stroke-linecap: square"/>
   </g>
   <g id="line2d_75">
    <path d="M 340.249076 32.918437 
L 348.982989 32.918437 
" clip-path="url(#pc80f2c1951)" style="fill: none; stroke: #000000; stroke-linecap: square"/>
   </g>
   <g id="line2d_76"/>
   <g id="patch_15">
    <path d="M 374.699511 185.911081 
L 392.167337 185.911081 
L 392.167337 32.918437 
L 374.699511 32.918437 
L 374.699511 185.911081 
z
" clip-path="url(#pc80f2c1951)" style="fill: #1f77b4; opacity: 0.75; stroke: #000000; stroke-linejoin: miter"/>
   </g>
   <g id="line2d_77">
    <path d="M 383.433424 185.911081 
L 383.433424 335.318437 
" clip-path="url(#pc80f2c1951)" style="fill: none; stroke: #000000; stroke-linecap: square"/>
   </g>
   <g id="line2d_78">
    <path d="M 383.433424 32.918437 
L 383.433424 32.918437 
" clip-path="url(#pc80f2c1951)" style="fill: none; stroke: #000000; stroke-linecap: square"/>
   </g>
   <g id="line2d_79">
    <path d="M 379.066467 335.318437 
L 387.80038 335.318437 
" clip-path="url(#pc80f2c1951)" style="fill: none; stroke: #000000; stroke-linecap: square"/>
   </g>
   <g id="line2d_80">
    <path d="M 379.066467 32.918437 
L 387.80038 32.918437 
" clip-path="url(#pc80f2c1951)" style="fill: none; stroke: #000000; stroke-linecap: square"/>
   </g>
   <g id="line2d_81"/>
   <g id="patch_16">
    <path d="M 394.108207 185.911081 
L 411.576033 185.911081 
L 411.576033 32.918437 
L 394.108207 32.918437 
L 394.108207 185.911081 
z
" clip-path="url(#pc80f2c1951)" style="fill: #ff7f0e; opacity: 0.75; stroke: #000000; stroke-linejoin: miter"/>
   </g>
   <g id="line2d_82">
    <path d="M 402.84212 185.911081 
L 402.84212 335.318437 
" clip-path="url(#pc80f2c1951)" style="fill: none; stroke: #000000; stroke-linecap: square"/>
   </g>
   <g id="line2d_83">
    <path d="M 402.84212 32.918437 
L 402.84212 32.918437 
" clip-path="url(#pc80f2c1951)" style="fill: none; stroke: #000000; stroke-linecap: square"/>
   </g>
   <g id="line2d_84">
    <path d="M 398.475163 335.318437 
L 407.209076 335.318437 
" clip-path="url(#pc80f2c1951)" style="fill: none; stroke: #000000; stroke-linecap: square"/>
   </g>
   <g id="line2d_85">
    <path d="M 398.475163 32.918437 
L 407.209076 32.918437 
" clip-path="url(#pc80f2c1951)" style="fill: none; stroke: #000000; stroke-linecap: square"/>
   </g>
   <g id="line2d_86"/>
   <g id="patch_17">
    <path d="M 413.516902 185.911081 
L 430.984728 185.911081 
L 430.984728 32.918437 
L 413.516902 32.918437 
L 413.516902 185.911081 
z
" clip-path="url(#pc80f2c1951)" style="fill: #2ca02c; opacity: 0.75; stroke: #000000; stroke-linejoin: miter"/>
   </g>
   <g id="line2d_87">
    <path d="M 422.250815 185.911081 
L 422.250815 335.318437 
" clip-path="url(#pc80f2c1951)" style="fill: none; stroke: #000000; stroke-linecap: square"/>
   </g>
   <g id="line2d_88">
    <path d="M 422.250815 32.918437 
L 422.250815 32.918437 
" clip-path="url(#pc80f2c1951)" style="fill: none; stroke: #000000; stroke-linecap: square"/>
   </g>
   <g id="line2d_89">
    <path d="M 417.883859 335.318437 
L 426.617772 335.318437 
" clip-path="url(#pc80f2c1951)" style="fill: none; stroke: #000000; stroke-linecap: square"/>
   </g>
   <g id="line2d_90">
    <path d="M 417.883859 32.918437 
L 426.617772 32.918437 
" clip-path="url(#pc80f2c1951)" style="fill: none; stroke: #000000; stroke-linecap: square"/>
   </g>
   <g id="line2d_91"/>
   <g id="patch_18">
    <path d="M 432.925598 185.911081 
L 450.393424 185.911081 
L 450.393424 32.918437 
L 432.925598 32.918437 
L 432.925598 185.911081 
z
" clip-path="url(#pc80f2c1951)" style="fill: #d62728; opacity: 0.75; stroke: #000000; stroke-linejoin: miter"/>
   </g>
   <g id="line2d_92">
    <path d="M 441.659511 185.911081 
L 441.659511 335.318437 
" clip-path="url(#pc80f2c1951)" style="fill: none; stroke: #000000; stroke-linecap: square"/>
   </g>
   <g id="line2d_93">
    <path d="M 441.659511 32.918437 
L 441.659511 32.918437 
" clip-path="url(#pc80f2c1951)" style="fill: none; stroke: #000000; stroke-linecap: square"/>
   </g>
   <g id="line2d_94">
    <path d="M 437.292554 335.318437 
L 446.026467 335.318437 
" clip-path="url(#pc80f2c1951)" style="fill: none; stroke: #000000; stroke-linecap: square"/>
   </g>
   <g id="line2d_95">
    <path d="M 437.292554 32.918437 
L 446.026467 32.918437 
" clip-path="url(#pc80f2c1951)" style="fill: none; stroke: #000000; stroke-linecap: square"/>
   </g>
   <g id="line2d_96"/>
   <g id="line2d_97">
    <path d="M 83.569076 37.090117 
L 101.036902 37.090117 
" clip-path="url(#pc80f2c1951)" style="fill: none; stroke: #000000; stroke-linecap: square"/>
   </g>
   <g id="line2d_98">
    <path d="M 102.977772 37.072188 
L 120.445598 37.072188 
" clip-path="url(#pc80f2c1951)" style="fill: none; stroke: #000000; stroke-linecap: square"/>
   </g>
   <g id="line2d_99">
    <path d="M 122.386467 112.403136 
L 139.854293 112.403136 
" clip-path="url(#pc80f2c1951)" style="fill: none; stroke: #000000; stroke-linecap: square"/>
   </g>
   <g id="line2d_100">
    <path d="M 141.795163 36.982544 
L 159.262989 36.982544 
" clip-path="url(#pc80f2c1951)" style="fill: none; stroke: #000000; stroke-linecap: square"/>
   </g>
   <g id="line2d_101">
    <path d="M 180.612554 35.285042 
L 198.08038 35.285042 
" clip-path="url(#pc80f2c1951)" style="fill: none; stroke: #000000; stroke-linecap: square"/>
   </g>
   <g id="line2d_102">
    <path d="M 200.02125 37.072188 
L 217.489076 37.072188 
" clip-path="url(#pc80f2c1951)" style="fill: none; stroke: #000000; stroke-linecap: square"/>
   </g>
   <g id="line2d_103">
    <path d="M 219.429946 37.042306 
L 236.897772 37.042306 
" clip-path="url(#pc80f2c1951)" style="fill: none; stroke: #000000; stroke-linecap: square"/>
   </g>
   <g id="line2d_104">
    <path d="M 238.838641 38.895191 
L 256.306467 38.895191 
" clip-path="url(#pc80f2c1951)" style="fill: none; stroke: #000000; stroke-linecap: square"/>
   </g>
   <g id="line2d_105">
    <path d="M 277.656033 35.906814 
L 295.123859 35.906814 
" clip-path="url(#pc80f2c1951)" style="fill: none; stroke: #000000; stroke-linecap: square"/>
   </g>
   <g id="line2d_106">
    <path d="M 297.064728 35.906814 
L 314.532554 35.906814 
" clip-path="url(#pc80f2c1951)" style="fill: none; stroke: #000000; stroke-linecap: square"/>
   </g>
   <g id="line2d_107">
    <path d="M 316.473424 35.906814 
L 333.94125 35.906814 
" clip-path="url(#pc80f2c1951)" style="fill: none; stroke: #000000; stroke-linecap: square"/>
   </g>
   <g id="line2d_108">
    <path d="M 335.88212 38.895191 
L 353.349946 38.895191 
" clip-path="url(#pc80f2c1951)" style="fill: none; stroke: #000000; stroke-linecap: square"/>
   </g>
   <g id="line2d_109">
    <path d="M 374.699511 35.906814 
L 392.167337 35.906814 
" clip-path="url(#pc80f2c1951)" style="fill: none; stroke: #000000; stroke-linecap: square"/>
   </g>
   <g id="line2d_110">
    <path d="M 394.108207 35.906814 
L 411.576033 35.906814 
" clip-path="url(#pc80f2c1951)" style="fill: none; stroke: #000000; stroke-linecap: square"/>
   </g>
   <g id="line2d_111">
    <path d="M 413.516902 35.906814 
L 430.984728 35.906814 
" clip-path="url(#pc80f2c1951)" style="fill: none; stroke: #000000; stroke-linecap: square"/>
   </g>
   <g id="line2d_112">
    <path d="M 432.925598 35.906814 
L 450.393424 35.906814 
" clip-path="url(#pc80f2c1951)" style="fill: none; stroke: #000000; stroke-linecap: square"/>
   </g>
   <g id="patch_19">
    <path d="M 43.78125 350.438437 
L 43.78125 17.798437 
" style="fill: none; stroke: #000000; stroke-width: 0.8; stroke-linejoin: miter; stroke-linecap: square"/>
   </g>
   <g id="patch_20">
    <path d="M 490.18125 350.438437 
L 490.18125 17.798437 
" style="fill: none; stroke: #000000; stroke-width: 0.8; stroke-linejoin: miter; stroke-linecap: square"/>
   </g>
   <g id="patch_21">
    <path d="M 43.78125 350.438437 
L 490.18125 350.438437 
" style="fill: none; stroke: #000000; stroke-width: 0.8; stroke-linejoin: miter; stroke-linecap: square"/>
   </g>
   <g id="patch_22">
    <path d="M 43.78125 17.798437 
L 490.18125 17.798437 
" style="fill: none; stroke: #000000; stroke-width: 0.8; stroke-linejoin: miter; stroke-linecap: square"/>
   </g>
   <g id="legend_1">
    <g id="patch_23">
     <path d="M 394.65 99.467187 
L 483.18125 99.467187 
Q 485.18125 99.467187 485.18125 97.467187 
L 485.18125 24.798437 
Q 485.18125 22.798437 483.18125 22.798437 
L 394.65 22.798437 
Q 392.65 22.798437 392.65 24.798437 
L 392.65 97.467187 
Q 392.65 99.467187 394.65 99.467187 
z
" style="fill: #ffffff; opacity: 0.8; stroke: #cccccc; stroke-linejoin: miter"/>
    </g>
    <g id="text_14">
     <!-- prog_n -->
     <g transform="translate(421.896094 34.396875) scale(0.1 -0.1)">
      <defs>
       <path id="DejaVuSans-70" d="M 1159 525 
L 1159 -1331 
L 581 -1331 
L 581 3500 
L 1159 3500 
L 1159 2969 
Q 1341 3281 1617 3432 
Q 1894 3584 2278 3584 
Q 2916 3584 3314 3078 
Q 3713 2572 3713 1747 
Q 3713 922 3314 415 
Q 2916 -91 2278 -91 
Q 1894 -91 1617 61 
Q 1341 213 1159 525 
z
M 3116 1747 
Q 3116 2381 2855 2742 
Q 2594 3103 2138 3103 
Q 1681 3103 1420 2742 
Q 1159 2381 1159 1747 
Q 1159 1113 1420 752 
Q 1681 391 2138 391 
Q 2594 391 2855 752 
Q 3116 1113 3116 1747 
z
" transform="scale(0.015625)"/>
      </defs>
      <use xlink:href="#DejaVuSans-70"/>
      <use xlink:href="#DejaVuSans-72" x="63.476562"/>
      <use xlink:href="#DejaVuSans-6f" x="102.339844"/>
      <use xlink:href="#DejaVuSans-67" x="163.521484"/>
      <use xlink:href="#DejaVuSans-5f" x="226.998047"/>
      <use xlink:href="#DejaVuSans-6e" x="276.998047"/>
     </g>
    </g>
    <g id="patch_24">
     <path d="M 396.65 49.353125 
L 416.65 49.353125 
L 416.65 42.353125 
L 396.65 42.353125 
z
" style="fill: #1f77b4; opacity: 0.75"/>
    </g>
    <g id="text_15">
     <!-- prog=100 -->
     <g transform="translate(424.65 49.353125) scale(0.1 -0.1)">
      <defs>
       <path id="DejaVuSans-3d" d="M 678 2906 
L 4684 2906 
L 4684 2381 
L 678 2381 
L 678 2906 
z
M 678 1631 
L 4684 1631 
L 4684 1100 
L 678 1100 
L 678 1631 
z
" transform="scale(0.015625)"/>
      </defs>
      <use xlink:href="#DejaVuSans-70"/>
      <use xlink:href="#DejaVuSans-72" x="63.476562"/>
      <use xlink:href="#DejaVuSans-6f" x="102.339844"/>
      <use xlink:href="#DejaVuSans-67" x="163.521484"/>
      <use xlink:href="#DejaVuSans-3d" x="226.998047"/>
      <use xlink:href="#DejaVuSans-31" x="310.787109"/>
      <use xlink:href="#DejaVuSans-30" x="374.410156"/>
      <use xlink:href="#DejaVuSans-30" x="438.033203"/>
     </g>
    </g>
    <g id="patch_25">
     <path d="M 396.65 64.03125 
L 416.65 64.03125 
L 416.65 57.03125 
L 396.65 57.03125 
z
" style="fill: #ff7f0e; opacity: 0.75"/>
    </g>
    <g id="text_16">
     <!-- prog=250 -->
     <g transform="translate(424.65 64.03125) scale(0.1 -0.1)">
      <use xlink:href="#DejaVuSans-70"/>
      <use xlink:href="#DejaVuSans-72" x="63.476562"/>
      <use xlink:href="#DejaVuSans-6f" x="102.339844"/>
      <use xlink:href="#DejaVuSans-67" x="163.521484"/>
      <use xlink:href="#DejaVuSans-3d" x="226.998047"/>
      <use xlink:href="#DejaVuSans-32" x="310.787109"/>
      <use xlink:href="#DejaVuSans-35" x="374.410156"/>
      <use xlink:href="#DejaVuSans-30" x="438.033203"/>
     </g>
    </g>
    <g id="patch_26">
     <path d="M 396.65 78.709375 
L 416.65 78.709375 
L 416.65 71.709375 
L 396.65 71.709375 
z
" style="fill: #2ca02c; opacity: 0.75"/>
    </g>
    <g id="text_17">
     <!-- prog=500 -->
     <g transform="translate(424.65 78.709375) scale(0.1 -0.1)">
      <use xlink:href="#DejaVuSans-70"/>
      <use xlink:href="#DejaVuSans-72" x="63.476562"/>
      <use xlink:href="#DejaVuSans-6f" x="102.339844"/>
      <use xlink:href="#DejaVuSans-67" x="163.521484"/>
      <use xlink:href="#DejaVuSans-3d" x="226.998047"/>
      <use xlink:href="#DejaVuSans-35" x="310.787109"/>
      <use xlink:href="#DejaVuSans-30" x="374.410156"/>
      <use xlink:href="#DejaVuSans-30" x="438.033203"/>
     </g>
    </g>
    <g id="patch_27">
     <path d="M 396.65 93.3875 
L 416.65 93.3875 
L 416.65 86.3875 
L 396.65 86.3875 
z
" style="fill: #d62728; opacity: 0.75"/>
    </g>
    <g id="text_18">
     <!-- prog=1000 -->
     <g transform="translate(424.65 93.3875) scale(0.1 -0.1)">
      <use xlink:href="#DejaVuSans-70"/>
      <use xlink:href="#DejaVuSans-72" x="63.476562"/>
      <use xlink:href="#DejaVuSans-6f" x="102.339844"/>
      <use xlink:href="#DejaVuSans-67" x="163.521484"/>
      <use xlink:href="#DejaVuSans-3d" x="226.998047"/>
      <use xlink:href="#DejaVuSans-31" x="310.787109"/>
      <use xlink:href="#DejaVuSans-30" x="374.410156"/>
      <use xlink:href="#DejaVuSans-30" x="438.033203"/>
      <use xlink:href="#DejaVuSans-30" x="501.65625"/>
     </g>
    </g>
   </g>
  </g>
 </g>
 <defs>
  <clipPath id="pc80f2c1951">
   <rect x="43.78125" y="17.798437" width="446.4" height="332.64"/>
  </clipPath>
 </defs>
</svg>
