<?xml version="1.0" encoding="utf-8" standalone="no"?>
<!DOCTYPE svg PUBLIC "-//W3C//DTD SVG 1.1//EN"
  "http://www.w3.org/Graphics/SVG/1.1/DTD/svg11.dtd">
<svg xmlns:xlink="http://www.w3.org/1999/xlink" width="748.825pt" height="387.994687pt" viewBox="0 0 748.825 387.994687" xmlns="http://www.w3.org/2000/svg" version="1.1">
 <metadata>
  <rdf:RDF xmlns:dc="http://purl.org/dc/elements/1.1/" xmlns:cc="http://creativecommons.org/ns#" xmlns:rdf="http://www.w3.org/1999/02/22-rdf-syntax-ns#">
   <cc:Work>
    <dc:type rdf:resource="http://purl.org/dc/dcmitype/StillImage"/>
    <dc:date>2025-10-06T13:09:00.203435</dc:date>
    <dc:format>image/svg+xml</dc:format>
    <dc:creator>
     <cc:Agent>
      <dc:title>Matplotlib v3.6.3, https://matplotlib.org/</dc:title>
     </cc:Agent>
    </dc:creator>
   </cc:Work>
  </rdf:RDF>
 </metadata>
 <defs>
  <style type="text/css">*{stroke-linejoin: round; stroke-linecap: butt}</style>
 </defs>
 <g id="figure_1">
  <g id="patch_1">
   <path d="M 0 387.994687 
L 748.825 387.994687 
L 748.825 0 
L 0 0 
z
" style="fill: #ffffff"/>
  </g>
  <g id="axes_1">
   <g id="patch_2">
    <path d="M 44.059375 350.438437 
L 602.059375 350.438437 
L 602.059375 17.798437 
L 44.059375 17.798437 
z
" style="fill: #ffffff"/>
   </g>
   <g id="matplotlib.axis_1">
    <g id="xtick_1">
     <g id="line2d_1">
      <defs>
       <path id="m2270a7848d" d="M 0 0 
L 0 3.5 
" style="stroke: #000000; stroke-width: 0.8"/>
      </defs>
      <g>
       <use xlink:href="#m2270a7848d" x="141.102853" y="350.438437" style="stroke: #000000; stroke-width: 0.8"/>
      </g>
     </g>
     <g id="text_1">
      <!-- gilbert -->
      <g transform="translate(124.884103 365.036875) scale(0.1 -0.1)">
       <defs>
        <path id="DejaVuSans-67" d="M 2906 1791 
Q 2906 2416 2648 2759 
Q 2391 3103 1925 3103 
Q 1463 3103 1205 2759 
Q 947 2416 947 1791 
Q 947 1169 1205 825 
Q 1463 481 1925 481 
Q 2391 481 2648 825 
Q 2906 1169 2906 1791 
z
M 3481 434 
Q 3481 -459 3084 -895 
Q 2688 -1331 1869 -1331 
Q 1566 -1331 1297 -1286 
Q 1028 -1241 775 -1147 
L 775 -588 
Q 1028 -725 1275 -790 
Q 1522 -856 1778 -856 
Q 2344 -856 2625 -561 
Q 2906 -266 2906 331 
L 2906 616 
Q 2728 306 2450 153 
Q 2172 0 1784 0 
Q 1141 0 747 490 
Q 353 981 353 1791 
Q 353 2603 747 3093 
Q 1141 3584 1784 3584 
Q 2172 3584 2450 3431 
Q 2728 3278 2906 2969 
L 2906 3500 
L 3481 3500 
L 3481 434 
z
" transform="scale(0.015625)"/>
        <path id="DejaVuSans-69" d="M 603 3500 
L 1178 3500 
L 1178 0 
L 603 0 
L 603 3500 
z
M 603 4863 
L 1178 4863 
L 1178 4134 
L 603 4134 
L 603 4863 
z
" transform="scale(0.015625)"/>
        <path id="DejaVuSans-6c" d="M 603 4863 
L 1178 4863 
L 1178 0 
L 603 0 
L 603 4863 
z
" transform="scale(0.015625)"/>
        <path id="DejaVuSans-62" d="M 3116 1747 
Q 3116 2381 2855 2742 
Q 2594 3103 2138 3103 
Q 1681 3103 1420 2742 
Q 1159 2381 1159 1747 
Q 1159 1113 1420 752 
Q 1681 391 2138 391 
Q 2594 391 2855 752 
Q 3116 1113 3116 1747 
z
M 1159 2969 
Q 1341 3281 1617 3432 
Q 1894 3584 2278 3584 
Q 2916 3584 3314 3078 
Q 3713 2572 3713 1747 
Q 3713 922 3314 415 
Q 2916 -91 2278 -91 
Q 1894 -91 1617 61 
Q 1341 213 1159 525 
L 1159 0 
L 581 0 
L 581 4863 
L 1159 4863 
L 1159 2969 
z
" transform="scale(0.015625)"/>
        <path id="DejaVuSans-65" d="M 3597 1894 
L 3597 1613 
L 953 1613 
Q 991 1019 1311 708 
Q 1631 397 2203 397 
Q 2534 397 2845 478 
Q 3156 559 3463 722 
L 3463 178 
Q 3153 47 2828 -22 
Q 2503 -91 2169 -91 
Q 1331 -91 842 396 
Q 353 884 353 1716 
Q 353 2575 817 3079 
Q 1281 3584 2069 3584 
Q 2775 3584 3186 3129 
Q 3597 2675 3597 1894 
z
M 3022 2063 
Q 3016 2534 2758 2815 
Q 2500 3097 2075 3097 
Q 1594 3097 1305 2825 
Q 1016 2553 972 2059 
L 3022 2063 
z
" transform="scale(0.015625)"/>
        <path id="DejaVuSans-72" d="M 2631 2963 
Q 2534 3019 2420 3045 
Q 2306 3072 2169 3072 
Q 1681 3072 1420 2755 
Q 1159 2438 1159 1844 
L 1159 0 
L 581 0 
L 581 3500 
L 1159 3500 
L 1159 2956 
Q 1341 3275 1631 3429 
Q 1922 3584 2338 3584 
Q 2397 3584 2469 3576 
Q 2541 3569 2628 3553 
L 2631 2963 
z
" transform="scale(0.015625)"/>
        <path id="DejaVuSans-74" d="M 1172 4494 
L 1172 3500 
L 2356 3500 
L 2356 3053 
L 1172 3053 
L 1172 1153 
Q 1172 725 1289 603 
Q 1406 481 1766 481 
L 2356 481 
L 2356 0 
L 1766 0 
Q 1100 0 847 248 
Q 594 497 594 1153 
L 594 3053 
L 172 3053 
L 172 3500 
L 594 3500 
L 594 4494 
L 1172 4494 
z
" transform="scale(0.015625)"/>
       </defs>
       <use xlink:href="#DejaVuSans-67"/>
       <use xlink:href="#DejaVuSans-69" x="63.476562"/>
       <use xlink:href="#DejaVuSans-6c" x="91.259766"/>
       <use xlink:href="#DejaVuSans-62" x="119.042969"/>
       <use xlink:href="#DejaVuSans-65" x="182.519531"/>
       <use xlink:href="#DejaVuSans-72" x="244.042969"/>
       <use xlink:href="#DejaVuSans-74" x="285.15625"/>
      </g>
     </g>
    </g>
    <g id="xtick_2">
     <g id="line2d_2">
      <g>
       <use xlink:href="#m2270a7848d" x="262.407201" y="350.438437" style="stroke: #000000; stroke-width: 0.8"/>
      </g>
     </g>
     <g id="text_2">
      <!-- hilbert -->
      <g transform="translate(246.19392 365.036875) scale(0.1 -0.1)">
       <defs>
        <path id="DejaVuSans-68" d="M 3513 2113 
L 3513 0 
L 2938 0 
L 2938 2094 
Q 2938 2591 2744 2837 
Q 2550 3084 2163 3084 
Q 1697 3084 1428 2787 
Q 1159 2491 1159 1978 
L 1159 0 
L 581 0 
L 581 4863 
L 1159 4863 
L 1159 2956 
Q 1366 3272 1645 3428 
Q 1925 3584 2291 3584 
Q 2894 3584 3203 3211 
Q 3513 2838 3513 2113 
z
" transform="scale(0.015625)"/>
       </defs>
       <use xlink:href="#DejaVuSans-68"/>
       <use xlink:href="#DejaVuSans-69" x="63.378906"/>
       <use xlink:href="#DejaVuSans-6c" x="91.162109"/>
       <use xlink:href="#DejaVuSans-62" x="118.945312"/>
       <use xlink:href="#DejaVuSans-65" x="182.421875"/>
       <use xlink:href="#DejaVuSans-72" x="243.945312"/>
       <use xlink:href="#DejaVuSans-74" x="285.058594"/>
      </g>
     </g>
    </g>
    <g id="xtick_3">
     <g id="line2d_3">
      <g>
       <use xlink:href="#m2270a7848d" x="383.711549" y="350.438437" style="stroke: #000000; stroke-width: 0.8"/>
      </g>
     </g>
     <g id="text_3">
      <!-- rcb -->
      <g transform="translate(375.845143 365.036875) scale(0.1 -0.1)">
       <defs>
        <path id="DejaVuSans-63" d="M 3122 3366 
L 3122 2828 
Q 2878 2963 2633 3030 
Q 2388 3097 2138 3097 
Q 1578 3097 1268 2742 
Q 959 2388 959 1747 
Q 959 1106 1268 751 
Q 1578 397 2138 397 
Q 2388 397 2633 464 
Q 2878 531 3122 666 
L 3122 134 
Q 2881 22 2623 -34 
Q 2366 -91 2075 -91 
Q 1284 -91 818 406 
Q 353 903 353 1747 
Q 353 2603 823 3093 
Q 1294 3584 2113 3584 
Q 2378 3584 2631 3529 
Q 2884 3475 3122 3366 
z
" transform="scale(0.015625)"/>
       </defs>
       <use xlink:href="#DejaVuSans-72"/>
       <use xlink:href="#DejaVuSans-63" x="38.863281"/>
       <use xlink:href="#DejaVuSans-62" x="93.84375"/>
      </g>
     </g>
    </g>
    <g id="xtick_4">
     <g id="line2d_4">
      <g>
       <use xlink:href="#m2270a7848d" x="505.015897" y="350.438437" style="stroke: #000000; stroke-width: 0.8"/>
      </g>
     </g>
     <g id="text_4">
      <!-- rcbincr -->
      <g transform="translate(487.78699 365.036875) scale(0.1 -0.1)">
       <defs>
        <path id="DejaVuSans-6e" d="M 3513 2113 
L 3513 0 
L 2938 0 
L 2938 2094 
Q 2938 2591 2744 2837 
Q 2550 3084 2163 3084 
Q 1697 3084 1428 2787 
Q 1159 2491 1159 1978 
L 1159 0 
L 581 0 
L 581 3500 
L 1159 3500 
L 1159 2956 
Q 1366 3272 1645 3428 
Q 1925 3584 2291 3584 
Q 2894 3584 3203 3211 
Q 3513 2838 3513 2113 
z
" transform="scale(0.015625)"/>
       </defs>
       <use xlink:href="#DejaVuSans-72"/>
       <use xlink:href="#DejaVuSans-63" x="38.863281"/>
       <use xlink:href="#DejaVuSans-62" x="93.84375"/>
       <use xlink:href="#DejaVuSans-69" x="157.320312"/>
       <use xlink:href="#DejaVuSans-6e" x="185.103516"/>
       <use xlink:href="#DejaVuSans-63" x="248.482422"/>
       <use xlink:href="#DejaVuSans-72" x="303.462891"/>
      </g>
     </g>
    </g>
    <g id="text_5">
     <!-- algorithm -->
     <g transform="translate(298.928906 378.715) scale(0.1 -0.1)">
      <defs>
       <path id="DejaVuSans-61" d="M 2194 1759 
Q 1497 1759 1228 1600 
Q 959 1441 959 1056 
Q 959 750 1161 570 
Q 1363 391 1709 391 
Q 2188 391 2477 730 
Q 2766 1069 2766 1631 
L 2766 1759 
L 2194 1759 
z
M 3341 1997 
L 3341 0 
L 2766 0 
L 2766 531 
Q 2569 213 2275 61 
Q 1981 -91 1556 -91 
Q 1019 -91 701 211 
Q 384 513 384 1019 
Q 384 1609 779 1909 
Q 1175 2209 1959 2209 
L 2766 2209 
L 2766 2266 
Q 2766 2663 2505 2880 
Q 2244 3097 1772 3097 
Q 1472 3097 1187 3025 
Q 903 2953 641 2809 
L 641 3341 
Q 956 3463 1253 3523 
Q 1550 3584 1831 3584 
Q 2591 3584 2966 3190 
Q 3341 2797 3341 1997 
z
" transform="scale(0.015625)"/>
       <path id="DejaVuSans-6f" d="M 1959 3097 
Q 1497 3097 1228 2736 
Q 959 2375 959 1747 
Q 959 1119 1226 758 
Q 1494 397 1959 397 
Q 2419 397 2687 759 
Q 2956 1122 2956 1747 
Q 2956 2369 2687 2733 
Q 2419 3097 1959 3097 
z
M 1959 3584 
Q 2709 3584 3137 3096 
Q 3566 2609 3566 1747 
Q 3566 888 3137 398 
Q 2709 -91 1959 -91 
Q 1206 -91 779 398 
Q 353 888 353 1747 
Q 353 2609 779 3096 
Q 1206 3584 1959 3584 
z
" transform="scale(0.015625)"/>
       <path id="DejaVuSans-6d" d="M 3328 2828 
Q 3544 3216 3844 3400 
Q 4144 3584 4550 3584 
Q 5097 3584 5394 3201 
Q 5691 2819 5691 2113 
L 5691 0 
L 5113 0 
L 5113 2094 
Q 5113 2597 4934 2840 
Q 4756 3084 4391 3084 
Q 3944 3084 3684 2787 
Q 3425 2491 3425 1978 
L 3425 0 
L 2847 0 
L 2847 2094 
Q 2847 2600 2669 2842 
Q 2491 3084 2119 3084 
Q 1678 3084 1418 2786 
Q 1159 2488 1159 1978 
L 1159 0 
L 581 0 
L 581 3500 
L 1159 3500 
L 1159 2956 
Q 1356 3278 1631 3431 
Q 1906 3584 2284 3584 
Q 2666 3584 2933 3390 
Q 3200 3197 3328 2828 
z
" transform="scale(0.015625)"/>
      </defs>
      <use xlink:href="#DejaVuSans-61"/>
      <use xlink:href="#DejaVuSans-6c" x="61.279297"/>
      <use xlink:href="#DejaVuSans-67" x="89.0625"/>
      <use xlink:href="#DejaVuSans-6f" x="152.539062"/>
      <use xlink:href="#DejaVuSans-72" x="213.720703"/>
      <use xlink:href="#DejaVuSans-69" x="254.833984"/>
      <use xlink:href="#DejaVuSans-74" x="282.617188"/>
      <use xlink:href="#DejaVuSans-68" x="321.826172"/>
      <use xlink:href="#DejaVuSans-6d" x="385.205078"/>
     </g>
    </g>
   </g>
   <g id="matplotlib.axis_2">
    <g id="ytick_1">
     <g id="line2d_5">
      <path d="M 44.059375 349.976043 
L 602.059375 349.976043 
" clip-path="url(#pa7484c8496)" style="fill: none; stroke: #b0b0b0; stroke-width: 0.8; stroke-linecap: square"/>
     </g>
     <g id="line2d_6">
      <defs>
       <path id="m5f1e7c49e2" d="M 0 0 
L -3.5 0 
" style="stroke: #000000; stroke-width: 0.8"/>
      </defs>
      <g>
       <use xlink:href="#m5f1e7c49e2" x="44.059375" y="349.976043" style="stroke: #000000; stroke-width: 0.8"/>
      </g>
     </g>
     <g id="text_6">
      <!-- 0.0 -->
      <g transform="translate(21.15625 353.775261) scale(0.1 -0.1)">
       <defs>
        <path id="DejaVuSans-30" d="M 2034 4250 
Q 1547 4250 1301 3770 
Q 1056 3291 1056 2328 
Q 1056 1369 1301 889 
Q 1547 409 2034 409 
Q 2525 409 2770 889 
Q 3016 1369 3016 2328 
Q 3016 3291 2770 3770 
Q 2525 4250 2034 4250 
z
M 2034 4750 
Q 2819 4750 3233 4129 
Q 3647 3509 3647 2328 
Q 3647 1150 3233 529 
Q 2819 -91 2034 -91 
Q 1250 -91 836 529 
Q 422 1150 422 2328 
Q 422 3509 836 4129 
Q 1250 4750 2034 4750 
z
" transform="scale(0.015625)"/>
        <path id="DejaVuSans-2e" d="M 684 794 
L 1344 794 
L 1344 0 
L 684 0 
L 684 794 
z
" transform="scale(0.015625)"/>
       </defs>
       <use xlink:href="#DejaVuSans-30"/>
       <use xlink:href="#DejaVuSans-2e" x="63.623047"/>
       <use xlink:href="#DejaVuSans-30" x="95.410156"/>
      </g>
     </g>
    </g>
    <g id="ytick_2">
     <g id="line2d_7">
      <path d="M 44.059375 301.209203 
L 602.059375 301.209203 
" clip-path="url(#pa7484c8496)" style="fill: none; stroke: #b0b0b0; stroke-width: 0.8; stroke-linecap: square"/>
     </g>
     <g id="line2d_8">
      <g>
       <use xlink:href="#m5f1e7c49e2" x="44.059375" y="301.209203" style="stroke: #000000; stroke-width: 0.8"/>
      </g>
     </g>
     <g id="text_7">
      <!-- 0.2 -->
      <g transform="translate(21.15625 305.008422) scale(0.1 -0.1)">
       <defs>
        <path id="DejaVuSans-32" d="M 1228 531 
L 3431 531 
L 3431 0 
L 469 0 
L 469 531 
Q 828 903 1448 1529 
Q 2069 2156 2228 2338 
Q 2531 2678 2651 2914 
Q 2772 3150 2772 3378 
Q 2772 3750 2511 3984 
Q 2250 4219 1831 4219 
Q 1534 4219 1204 4116 
Q 875 4013 500 3803 
L 500 4441 
Q 881 4594 1212 4672 
Q 1544 4750 1819 4750 
Q 2544 4750 2975 4387 
Q 3406 4025 3406 3419 
Q 3406 3131 3298 2873 
Q 3191 2616 2906 2266 
Q 2828 2175 2409 1742 
Q 1991 1309 1228 531 
z
" transform="scale(0.015625)"/>
       </defs>
       <use xlink:href="#DejaVuSans-30"/>
       <use xlink:href="#DejaVuSans-2e" x="63.623047"/>
       <use xlink:href="#DejaVuSans-32" x="95.410156"/>
      </g>
     </g>
    </g>
    <g id="ytick_3">
     <g id="line2d_9">
      <path d="M 44.059375 252.442364 
L 602.059375 252.442364 
" clip-path="url(#pa7484c8496)" style="fill: none; stroke: #b0b0b0; stroke-width: 0.8; stroke-linecap: square"/>
     </g>
     <g id="line2d_10">
      <g>
       <use xlink:href="#m5f1e7c49e2" x="44.059375" y="252.442364" style="stroke: #000000; stroke-width: 0.8"/>
      </g>
     </g>
     <g id="text_8">
      <!-- 0.4 -->
      <g transform="translate(21.15625 256.241583) scale(0.1 -0.1)">
       <defs>
        <path id="DejaVuSans-34" d="M 2419 4116 
L 825 1625 
L 2419 1625 
L 2419 4116 
z
M 2253 4666 
L 3047 4666 
L 3047 1625 
L 3713 1625 
L 3713 1100 
L 3047 1100 
L 3047 0 
L 2419 0 
L 2419 1100 
L 313 1100 
L 313 1709 
L 2253 4666 
z
" transform="scale(0.015625)"/>
       </defs>
       <use xlink:href="#DejaVuSans-30"/>
       <use xlink:href="#DejaVuSans-2e" x="63.623047"/>
       <use xlink:href="#DejaVuSans-34" x="95.410156"/>
      </g>
     </g>
    </g>
    <g id="ytick_4">
     <g id="line2d_11">
      <path d="M 44.059375 203.675525 
L 602.059375 203.675525 
" clip-path="url(#pa7484c8496)" style="fill: none; stroke: #b0b0b0; stroke-width: 0.8; stroke-linecap: square"/>
     </g>
     <g id="line2d_12">
      <g>
       <use xlink:href="#m5f1e7c49e2" x="44.059375" y="203.675525" style="stroke: #000000; stroke-width: 0.8"/>
      </g>
     </g>
     <g id="text_9">
      <!-- 0.6 -->
      <g transform="translate(21.15625 207.474744) scale(0.1 -0.1)">
       <defs>
        <path id="DejaVuSans-36" d="M 2113 2584 
Q 1688 2584 1439 2293 
Q 1191 2003 1191 1497 
Q 1191 994 1439 701 
Q 1688 409 2113 409 
Q 2538 409 2786 701 
Q 3034 994 3034 1497 
Q 3034 2003 2786 2293 
Q 2538 2584 2113 2584 
z
M 3366 4563 
L 3366 3988 
Q 3128 4100 2886 4159 
Q 2644 4219 2406 4219 
Q 1781 4219 1451 3797 
Q 1122 3375 1075 2522 
Q 1259 2794 1537 2939 
Q 1816 3084 2150 3084 
Q 2853 3084 3261 2657 
Q 3669 2231 3669 1497 
Q 3669 778 3244 343 
Q 2819 -91 2113 -91 
Q 1303 -91 875 529 
Q 447 1150 447 2328 
Q 447 3434 972 4092 
Q 1497 4750 2381 4750 
Q 2619 4750 2861 4703 
Q 3103 4656 3366 4563 
z
" transform="scale(0.015625)"/>
       </defs>
       <use xlink:href="#DejaVuSans-30"/>
       <use xlink:href="#DejaVuSans-2e" x="63.623047"/>
       <use xlink:href="#DejaVuSans-36" x="95.410156"/>
      </g>
     </g>
    </g>
    <g id="ytick_5">
     <g id="line2d_13">
      <path d="M 44.059375 154.908686 
L 602.059375 154.908686 
" clip-path="url(#pa7484c8496)" style="fill: none; stroke: #b0b0b0; stroke-width: 0.8; stroke-linecap: square"/>
     </g>
     <g id="line2d_14">
      <g>
       <use xlink:href="#m5f1e7c49e2" x="44.059375" y="154.908686" style="stroke: #000000; stroke-width: 0.8"/>
      </g>
     </g>
     <g id="text_10">
      <!-- 0.8 -->
      <g transform="translate(21.15625 158.707904) scale(0.1 -0.1)">
       <defs>
        <path id="DejaVuSans-38" d="M 2034 2216 
Q 1584 2216 1326 1975 
Q 1069 1734 1069 1313 
Q 1069 891 1326 650 
Q 1584 409 2034 409 
Q 2484 409 2743 651 
Q 3003 894 3003 1313 
Q 3003 1734 2745 1975 
Q 2488 2216 2034 2216 
z
M 1403 2484 
Q 997 2584 770 2862 
Q 544 3141 544 3541 
Q 544 4100 942 4425 
Q 1341 4750 2034 4750 
Q 2731 4750 3128 4425 
Q 3525 4100 3525 3541 
Q 3525 3141 3298 2862 
Q 3072 2584 2669 2484 
Q 3125 2378 3379 2068 
Q 3634 1759 3634 1313 
Q 3634 634 3220 271 
Q 2806 -91 2034 -91 
Q 1263 -91 848 271 
Q 434 634 434 1313 
Q 434 1759 690 2068 
Q 947 2378 1403 2484 
z
M 1172 3481 
Q 1172 3119 1398 2916 
Q 1625 2713 2034 2713 
Q 2441 2713 2670 2916 
Q 2900 3119 2900 3481 
Q 2900 3844 2670 4047 
Q 2441 4250 2034 4250 
Q 1625 4250 1398 4047 
Q 1172 3844 1172 3481 
z
" transform="scale(0.015625)"/>
       </defs>
       <use xlink:href="#DejaVuSans-30"/>
       <use xlink:href="#DejaVuSans-2e" x="63.623047"/>
       <use xlink:href="#DejaVuSans-38" x="95.410156"/>
      </g>
     </g>
    </g>
    <g id="ytick_6">
     <g id="line2d_15">
      <path d="M 44.059375 106.141847 
L 602.059375 106.141847 
" clip-path="url(#pa7484c8496)" style="fill: none; stroke: #b0b0b0; stroke-width: 0.8; stroke-linecap: square"/>
     </g>
     <g id="line2d_16">
      <g>
       <use xlink:href="#m5f1e7c49e2" x="44.059375" y="106.141847" style="stroke: #000000; stroke-width: 0.8"/>
      </g>
     </g>
     <g id="text_11">
      <!-- 1.0 -->
      <g transform="translate(21.15625 109.941065) scale(0.1 -0.1)">
       <defs>
        <path id="DejaVuSans-31" d="M 794 531 
L 1825 531 
L 1825 4091 
L 703 3866 
L 703 4441 
L 1819 4666 
L 2450 4666 
L 2450 531 
L 3481 531 
L 3481 0 
L 794 0 
L 794 531 
z
" transform="scale(0.015625)"/>
       </defs>
       <use xlink:href="#DejaVuSans-31"/>
       <use xlink:href="#DejaVuSans-2e" x="63.623047"/>
       <use xlink:href="#DejaVuSans-30" x="95.410156"/>
      </g>
     </g>
    </g>
    <g id="ytick_7">
     <g id="line2d_17">
      <path d="M 44.059375 57.375007 
L 602.059375 57.375007 
" clip-path="url(#pa7484c8496)" style="fill: none; stroke: #b0b0b0; stroke-width: 0.8; stroke-linecap: square"/>
     </g>
     <g id="line2d_18">
      <g>
       <use xlink:href="#m5f1e7c49e2" x="44.059375" y="57.375007" style="stroke: #000000; stroke-width: 0.8"/>
      </g>
     </g>
     <g id="text_12">
      <!-- 1.2 -->
      <g transform="translate(21.15625 61.174226) scale(0.1 -0.1)">
       <use xlink:href="#DejaVuSans-31"/>
       <use xlink:href="#DejaVuSans-2e" x="63.623047"/>
       <use xlink:href="#DejaVuSans-32" x="95.410156"/>
      </g>
     </g>
    </g>
    <g id="text_13">
     <!-- reduce_count -->
     <g transform="translate(14.798438 217.912969) rotate(-90) scale(0.1 -0.1)">
      <defs>
       <path id="DejaVuSans-64" d="M 2906 2969 
L 2906 4863 
L 3481 4863 
L 3481 0 
L 2906 0 
L 2906 525 
Q 2725 213 2448 61 
Q 2172 -91 1784 -91 
Q 1150 -91 751 415 
Q 353 922 353 1747 
Q 353 2572 751 3078 
Q 1150 3584 1784 3584 
Q 2172 3584 2448 3432 
Q 2725 3281 2906 2969 
z
M 947 1747 
Q 947 1113 1208 752 
Q 1469 391 1925 391 
Q 2381 391 2643 752 
Q 2906 1113 2906 1747 
Q 2906 2381 2643 2742 
Q 2381 3103 1925 3103 
Q 1469 3103 1208 2742 
Q 947 2381 947 1747 
z
" transform="scale(0.015625)"/>
       <path id="DejaVuSans-75" d="M 544 1381 
L 544 3500 
L 1119 3500 
L 1119 1403 
Q 1119 906 1312 657 
Q 1506 409 1894 409 
Q 2359 409 2629 706 
Q 2900 1003 2900 1516 
L 2900 3500 
L 3475 3500 
L 3475 0 
L 2900 0 
L 2900 538 
Q 2691 219 2414 64 
Q 2138 -91 1772 -91 
Q 1169 -91 856 284 
Q 544 659 544 1381 
z
M 1991 3584 
L 1991 3584 
z
" transform="scale(0.015625)"/>
       <path id="DejaVuSans-5f" d="M 3263 -1063 
L 3263 -1509 
L -63 -1509 
L -63 -1063 
L 3263 -1063 
z
" transform="scale(0.015625)"/>
      </defs>
      <use xlink:href="#DejaVuSans-72"/>
      <use xlink:href="#DejaVuSans-65" x="38.863281"/>
      <use xlink:href="#DejaVuSans-64" x="100.386719"/>
      <use xlink:href="#DejaVuSans-75" x="163.863281"/>
      <use xlink:href="#DejaVuSans-63" x="227.242188"/>
      <use xlink:href="#DejaVuSans-65" x="282.222656"/>
      <use xlink:href="#DejaVuSans-5f" x="343.746094"/>
      <use xlink:href="#DejaVuSans-63" x="393.746094"/>
      <use xlink:href="#DejaVuSans-6f" x="448.726562"/>
      <use xlink:href="#DejaVuSans-75" x="509.908203"/>
      <use xlink:href="#DejaVuSans-6e" x="573.287109"/>
      <use xlink:href="#DejaVuSans-74" x="636.666016"/>
     </g>
    </g>
    <g id="text_14">
     <!-- 1e6 -->
     <g transform="translate(44.059375 14.798437) scale(0.1 -0.1)">
      <use xlink:href="#DejaVuSans-31"/>
      <use xlink:href="#DejaVuSans-65" x="63.623047"/>
      <use xlink:href="#DejaVuSans-36" x="125.146484"/>
     </g>
    </g>
   </g>
   <g id="patch_3">
    <path d="M 93.794158 188.972323 
L 115.62894 188.972323 
L 115.62894 32.918437 
L 93.794158 32.918437 
L 93.794158 188.972323 
z
" clip-path="url(#pa7484c8496)" style="fill: #1f77b4; opacity: 0.75; stroke: #000000; stroke-linejoin: miter"/>
   </g>
   <g id="line2d_19">
    <path d="M 104.711549 188.972323 
L 104.711549 335.295761 
" clip-path="url(#pa7484c8496)" style="fill: none; stroke: #000000; stroke-linecap: square"/>
   </g>
   <g id="line2d_20">
    <path d="M 104.711549 32.918437 
L 104.711549 32.918437 
" clip-path="url(#pa7484c8496)" style="fill: none; stroke: #000000; stroke-linecap: square"/>
   </g>
   <g id="line2d_21">
    <path d="M 99.252853 335.295761 
L 110.170245 335.295761 
" clip-path="url(#pa7484c8496)" style="fill: none; stroke: #000000; stroke-linecap: square"/>
   </g>
   <g id="line2d_22">
    <path d="M 99.252853 32.918437 
L 110.170245 32.918437 
" clip-path="url(#pa7484c8496)" style="fill: none; stroke: #000000; stroke-linecap: square"/>
   </g>
   <g id="line2d_23"/>
   <g id="patch_4">
    <path d="M 118.055027 189.001583 
L 139.88981 189.001583 
L 139.88981 32.947698 
L 118.055027 32.947698 
L 118.055027 189.001583 
z
" clip-path="url(#pa7484c8496)" style="fill: #ff7f0e; opacity: 0.75; stroke: #000000; stroke-linejoin: miter"/>
   </g>
   <g id="line2d_24">
    <path d="M 128.972418 189.001583 
L 128.972418 335.310391 
" clip-path="url(#pa7484c8496)" style="fill: none; stroke: #000000; stroke-linecap: square"/>
   </g>
   <g id="line2d_25">
    <path d="M 128.972418 32.947698 
L 128.972418 32.947698 
" clip-path="url(#pa7484c8496)" style="fill: none; stroke: #000000; stroke-linecap: square"/>
   </g>
   <g id="line2d_26">
    <path d="M 123.513723 335.310391 
L 134.431114 335.310391 
" clip-path="url(#pa7484c8496)" style="fill: none; stroke: #000000; stroke-linecap: square"/>
   </g>
   <g id="line2d_27">
    <path d="M 123.513723 32.947698 
L 134.431114 32.947698 
" clip-path="url(#pa7484c8496)" style="fill: none; stroke: #000000; stroke-linecap: square"/>
   </g>
   <g id="line2d_28"/>
   <g id="patch_5">
    <path d="M 142.315897 189.011336 
L 164.150679 189.011336 
L 164.150679 32.957451 
L 142.315897 32.957451 
L 142.315897 189.011336 
z
" clip-path="url(#pa7484c8496)" style="fill: #2ca02c; opacity: 0.75; stroke: #000000; stroke-linejoin: miter"/>
   </g>
   <g id="line2d_29">
    <path d="M 153.233288 189.011336 
L 153.233288 335.315999 
" clip-path="url(#pa7484c8496)" style="fill: none; stroke: #000000; stroke-linecap: square"/>
   </g>
   <g id="line2d_30">
    <path d="M 153.233288 32.957451 
L 153.233288 32.957451 
" clip-path="url(#pa7484c8496)" style="fill: none; stroke: #000000; stroke-linecap: square"/>
   </g>
   <g id="line2d_31">
    <path d="M 147.774592 335.315999 
L 158.691984 335.315999 
" clip-path="url(#pa7484c8496)" style="fill: none; stroke: #000000; stroke-linecap: square"/>
   </g>
   <g id="line2d_32">
    <path d="M 147.774592 32.957451 
L 158.691984 32.957451 
" clip-path="url(#pa7484c8496)" style="fill: none; stroke: #000000; stroke-linecap: square"/>
   </g>
   <g id="line2d_33"/>
   <g id="patch_6">
    <path d="M 166.576766 189.016213 
L 188.411549 189.016213 
L 188.411549 32.962328 
L 166.576766 32.962328 
L 166.576766 189.016213 
z
" clip-path="url(#pa7484c8496)" style="fill: #d62728; opacity: 0.75; stroke: #000000; stroke-linejoin: miter"/>
   </g>
   <g id="line2d_34">
    <path d="M 177.494158 189.016213 
L 177.494158 335.318437 
" clip-path="url(#pa7484c8496)" style="fill: none; stroke: #000000; stroke-linecap: square"/>
   </g>
   <g id="line2d_35">
    <path d="M 177.494158 32.962328 
L 177.494158 32.962328 
" clip-path="url(#pa7484c8496)" style="fill: none; stroke: #000000; stroke-linecap: square"/>
   </g>
   <g id="line2d_36">
    <path d="M 172.035462 335.318437 
L 182.952853 335.318437 
" clip-path="url(#pa7484c8496)" style="fill: none; stroke: #000000; stroke-linecap: square"/>
   </g>
   <g id="line2d_37">
    <path d="M 172.035462 32.962328 
L 182.952853 32.962328 
" clip-path="url(#pa7484c8496)" style="fill: none; stroke: #000000; stroke-linecap: square"/>
   </g>
   <g id="line2d_38"/>
   <g id="patch_7">
    <path d="M 215.098505 188.972323 
L 236.933288 188.972323 
L 236.933288 32.918437 
L 215.098505 32.918437 
L 215.098505 188.972323 
z
" clip-path="url(#pa7484c8496)" style="fill: #1f77b4; opacity: 0.75; stroke: #000000; stroke-linejoin: miter"/>
   </g>
   <g id="line2d_39">
    <path d="M 226.015897 188.972323 
L 226.015897 335.295761 
" clip-path="url(#pa7484c8496)" style="fill: none; stroke: #000000; stroke-linecap: square"/>
   </g>
   <g id="line2d_40">
    <path d="M 226.015897 32.918437 
L 226.015897 32.918437 
" clip-path="url(#pa7484c8496)" style="fill: none; stroke: #000000; stroke-linecap: square"/>
   </g>
   <g id="line2d_41">
    <path d="M 220.557201 335.295761 
L 231.474592 335.295761 
" clip-path="url(#pa7484c8496)" style="fill: none; stroke: #000000; stroke-linecap: square"/>
   </g>
   <g id="line2d_42">
    <path d="M 220.557201 32.918437 
L 231.474592 32.918437 
" clip-path="url(#pa7484c8496)" style="fill: none; stroke: #000000; stroke-linecap: square"/>
   </g>
   <g id="line2d_43"/>
   <g id="patch_8">
    <path d="M 239.359375 189.001583 
L 261.194158 189.001583 
L 261.194158 32.947698 
L 239.359375 32.947698 
L 239.359375 189.001583 
z
" clip-path="url(#pa7484c8496)" style="fill: #ff7f0e; opacity: 0.75; stroke: #000000; stroke-linejoin: miter"/>
   </g>
   <g id="line2d_44">
    <path d="M 250.276766 189.001583 
L 250.276766 335.310391 
" clip-path="url(#pa7484c8496)" style="fill: none; stroke: #000000; stroke-linecap: square"/>
   </g>
   <g id="line2d_45">
    <path d="M 250.276766 32.947698 
L 250.276766 32.947698 
" clip-path="url(#pa7484c8496)" style="fill: none; stroke: #000000; stroke-linecap: square"/>
   </g>
   <g id="line2d_46">
    <path d="M 244.818071 335.310391 
L 255.735462 335.310391 
" clip-path="url(#pa7484c8496)" style="fill: none; stroke: #000000; stroke-linecap: square"/>
   </g>
   <g id="line2d_47">
    <path d="M 244.818071 32.947698 
L 255.735462 32.947698 
" clip-path="url(#pa7484c8496)" style="fill: none; stroke: #000000; stroke-linecap: square"/>
   </g>
   <g id="line2d_48"/>
   <g id="patch_9">
    <path d="M 263.620245 189.011336 
L 285.455027 189.011336 
L 285.455027 32.957451 
L 263.620245 32.957451 
L 263.620245 189.011336 
z
" clip-path="url(#pa7484c8496)" style="fill: #2ca02c; opacity: 0.75; stroke: #000000; stroke-linejoin: miter"/>
   </g>
   <g id="line2d_49">
    <path d="M 274.537636 189.011336 
L 274.537636 335.315755 
" clip-path="url(#pa7484c8496)" style="fill: none; stroke: #000000; stroke-linecap: square"/>
   </g>
   <g id="line2d_50">
    <path d="M 274.537636 32.957451 
L 274.537636 32.957451 
" clip-path="url(#pa7484c8496)" style="fill: none; stroke: #000000; stroke-linecap: square"/>
   </g>
   <g id="line2d_51">
    <path d="M 269.07894 335.315755 
L 279.996332 335.315755 
" clip-path="url(#pa7484c8496)" style="fill: none; stroke: #000000; stroke-linecap: square"/>
   </g>
   <g id="line2d_52">
    <path d="M 269.07894 32.957451 
L 279.996332 32.957451 
" clip-path="url(#pa7484c8496)" style="fill: none; stroke: #000000; stroke-linecap: square"/>
   </g>
   <g id="line2d_53"/>
   <g id="patch_10">
    <path d="M 287.881114 189.016213 
L 309.715897 189.016213 
L 309.715897 32.962328 
L 287.881114 32.962328 
L 287.881114 189.016213 
z
" clip-path="url(#pa7484c8496)" style="fill: #d62728; opacity: 0.75; stroke: #000000; stroke-linejoin: miter"/>
   </g>
   <g id="line2d_54">
    <path d="M 298.798505 189.016213 
L 298.798505 335.317706 
" clip-path="url(#pa7484c8496)" style="fill: none; stroke: #000000; stroke-linecap: square"/>
   </g>
   <g id="line2d_55">
    <path d="M 298.798505 32.962328 
L 298.798505 32.962328 
" clip-path="url(#pa7484c8496)" style="fill: none; stroke: #000000; stroke-linecap: square"/>
   </g>
   <g id="line2d_56">
    <path d="M 293.33981 335.317706 
L 304.257201 335.317706 
" clip-path="url(#pa7484c8496)" style="fill: none; stroke: #000000; stroke-linecap: square"/>
   </g>
   <g id="line2d_57">
    <path d="M 293.33981 32.962328 
L 304.257201 32.962328 
" clip-path="url(#pa7484c8496)" style="fill: none; stroke: #000000; stroke-linecap: square"/>
   </g>
   <g id="line2d_58"/>
   <g id="patch_11">
    <path d="M 336.402853 188.972323 
L 358.237636 188.972323 
L 358.237636 32.918437 
L 336.402853 32.918437 
L 336.402853 188.972323 
z
" clip-path="url(#pa7484c8496)" style="fill: #1f77b4; opacity: 0.75; stroke: #000000; stroke-linejoin: miter"/>
   </g>
   <g id="line2d_59">
    <path d="M 347.320245 188.972323 
L 347.320245 335.272841 
" clip-path="url(#pa7484c8496)" style="fill: none; stroke: #000000; stroke-linecap: square"/>
   </g>
   <g id="line2d_60">
    <path d="M 347.320245 32.918437 
L 347.320245 32.918437 
" clip-path="url(#pa7484c8496)" style="fill: none; stroke: #000000; stroke-linecap: square"/>
   </g>
   <g id="line2d_61">
    <path d="M 341.861549 335.272841 
L 352.77894 335.272841 
" clip-path="url(#pa7484c8496)" style="fill: none; stroke: #000000; stroke-linecap: square"/>
   </g>
   <g id="line2d_62">
    <path d="M 341.861549 32.918437 
L 352.77894 32.918437 
" clip-path="url(#pa7484c8496)" style="fill: none; stroke: #000000; stroke-linecap: square"/>
   </g>
   <g id="line2d_63"/>
   <g id="patch_12">
    <path d="M 360.663723 189.001583 
L 382.498505 189.001583 
L 382.498505 32.947698 
L 360.663723 32.947698 
L 360.663723 189.001583 
z
" clip-path="url(#pa7484c8496)" style="fill: #ff7f0e; opacity: 0.75; stroke: #000000; stroke-linejoin: miter"/>
   </g>
   <g id="line2d_64">
    <path d="M 371.581114 189.001583 
L 371.581114 335.302101 
" clip-path="url(#pa7484c8496)" style="fill: none; stroke: #000000; stroke-linecap: square"/>
   </g>
   <g id="line2d_65">
    <path d="M 371.581114 32.947698 
L 371.581114 32.947698 
" clip-path="url(#pa7484c8496)" style="fill: none; stroke: #000000; stroke-linecap: square"/>
   </g>
   <g id="line2d_66">
    <path d="M 366.122418 335.302101 
L 377.03981 335.302101 
" clip-path="url(#pa7484c8496)" style="fill: none; stroke: #000000; stroke-linecap: square"/>
   </g>
   <g id="line2d_67">
    <path d="M 366.122418 32.947698 
L 377.03981 32.947698 
" clip-path="url(#pa7484c8496)" style="fill: none; stroke: #000000; stroke-linecap: square"/>
   </g>
   <g id="line2d_68"/>
   <g id="patch_13">
    <path d="M 384.924592 189.011336 
L 406.759375 189.011336 
L 406.759375 32.957451 
L 384.924592 32.957451 
L 384.924592 189.011336 
z
" clip-path="url(#pa7484c8496)" style="fill: #2ca02c; opacity: 0.75; stroke: #000000; stroke-linejoin: miter"/>
   </g>
   <g id="line2d_69">
    <path d="M 395.841984 189.011336 
L 395.841984 335.311854 
" clip-path="url(#pa7484c8496)" style="fill: none; stroke: #000000; stroke-linecap: square"/>
   </g>
   <g id="line2d_70">
    <path d="M 395.841984 32.957451 
L 395.841984 32.957451 
" clip-path="url(#pa7484c8496)" style="fill: none; stroke: #000000; stroke-linecap: square"/>
   </g>
   <g id="line2d_71">
    <path d="M 390.383288 335.311854 
L 401.300679 335.311854 
" clip-path="url(#pa7484c8496)" style="fill: none; stroke: #000000; stroke-linecap: square"/>
   </g>
   <g id="line2d_72">
    <path d="M 390.383288 32.957451 
L 401.300679 32.957451 
" clip-path="url(#pa7484c8496)" style="fill: none; stroke: #000000; stroke-linecap: square"/>
   </g>
   <g id="line2d_73"/>
   <g id="patch_14">
    <path d="M 409.185462 189.016213 
L 431.020245 189.016213 
L 431.020245 32.962328 
L 409.185462 32.962328 
L 409.185462 189.016213 
z
" clip-path="url(#pa7484c8496)" style="fill: #d62728; opacity: 0.75; stroke: #000000; stroke-linejoin: miter"/>
   </g>
   <g id="line2d_74">
    <path d="M 420.102853 189.016213 
L 420.102853 335.316731 
" clip-path="url(#pa7484c8496)" style="fill: none; stroke: #000000; stroke-linecap: square"/>
   </g>
   <g id="line2d_75">
    <path d="M 420.102853 32.962328 
L 420.102853 32.962328 
" clip-path="url(#pa7484c8496)" style="fill: none; stroke: #000000; stroke-linecap: square"/>
   </g>
   <g id="line2d_76">
    <path d="M 414.644158 335.316731 
L 425.561549 335.316731 
" clip-path="url(#pa7484c8496)" style="fill: none; stroke: #000000; stroke-linecap: square"/>
   </g>
   <g id="line2d_77">
    <path d="M 414.644158 32.962328 
L 425.561549 32.962328 
" clip-path="url(#pa7484c8496)" style="fill: none; stroke: #000000; stroke-linecap: square"/>
   </g>
   <g id="line2d_78"/>
   <g id="patch_15">
    <path d="M 457.707201 188.972323 
L 479.541984 188.972323 
L 479.541984 32.918437 
L 457.707201 32.918437 
L 457.707201 188.972323 
z
" clip-path="url(#pa7484c8496)" style="fill: #1f77b4; opacity: 0.75; stroke: #000000; stroke-linejoin: miter"/>
   </g>
   <g id="line2d_79">
    <path d="M 468.624592 188.972323 
L 468.624592 335.296249 
" clip-path="url(#pa7484c8496)" style="fill: none; stroke: #000000; stroke-linecap: square"/>
   </g>
   <g id="line2d_80">
    <path d="M 468.624592 32.918437 
L 468.624592 32.918437 
" clip-path="url(#pa7484c8496)" style="fill: none; stroke: #000000; stroke-linecap: square"/>
   </g>
   <g id="line2d_81">
    <path d="M 463.165897 335.296249 
L 474.083288 335.296249 
" clip-path="url(#pa7484c8496)" style="fill: none; stroke: #000000; stroke-linecap: square"/>
   </g>
   <g id="line2d_82">
    <path d="M 463.165897 32.918437 
L 474.083288 32.918437 
" clip-path="url(#pa7484c8496)" style="fill: none; stroke: #000000; stroke-linecap: square"/>
   </g>
   <g id="line2d_83"/>
   <g id="patch_16">
    <path d="M 481.968071 189.001583 
L 503.802853 189.001583 
L 503.802853 32.947698 
L 481.968071 32.947698 
L 481.968071 189.001583 
z
" clip-path="url(#pa7484c8496)" style="fill: #ff7f0e; opacity: 0.75; stroke: #000000; stroke-linejoin: miter"/>
   </g>
   <g id="line2d_84">
    <path d="M 492.885462 189.001583 
L 492.885462 335.304539 
" clip-path="url(#pa7484c8496)" style="fill: none; stroke: #000000; stroke-linecap: square"/>
   </g>
   <g id="line2d_85">
    <path d="M 492.885462 32.947698 
L 492.885462 32.947698 
" clip-path="url(#pa7484c8496)" style="fill: none; stroke: #000000; stroke-linecap: square"/>
   </g>
   <g id="line2d_86">
    <path d="M 487.426766 335.304539 
L 498.344158 335.304539 
" clip-path="url(#pa7484c8496)" style="fill: none; stroke: #000000; stroke-linecap: square"/>
   </g>
   <g id="line2d_87">
    <path d="M 487.426766 32.947698 
L 498.344158 32.947698 
" clip-path="url(#pa7484c8496)" style="fill: none; stroke: #000000; stroke-linecap: square"/>
   </g>
   <g id="line2d_88"/>
   <g id="patch_17">
    <path d="M 506.22894 189.011336 
L 528.063723 189.011336 
L 528.063723 32.957451 
L 506.22894 32.957451 
L 506.22894 189.011336 
z
" clip-path="url(#pa7484c8496)" style="fill: #2ca02c; opacity: 0.75; stroke: #000000; stroke-linejoin: miter"/>
   </g>
   <g id="line2d_89">
    <path d="M 517.146332 189.011336 
L 517.146332 335.311854 
" clip-path="url(#pa7484c8496)" style="fill: none; stroke: #000000; stroke-linecap: square"/>
   </g>
   <g id="line2d_90">
    <path d="M 517.146332 32.957451 
L 517.146332 32.957451 
" clip-path="url(#pa7484c8496)" style="fill: none; stroke: #000000; stroke-linecap: square"/>
   </g>
   <g id="line2d_91">
    <path d="M 511.687636 335.311854 
L 522.605027 335.311854 
" clip-path="url(#pa7484c8496)" style="fill: none; stroke: #000000; stroke-linecap: square"/>
   </g>
   <g id="line2d_92">
    <path d="M 511.687636 32.957451 
L 522.605027 32.957451 
" clip-path="url(#pa7484c8496)" style="fill: none; stroke: #000000; stroke-linecap: square"/>
   </g>
   <g id="line2d_93"/>
   <g id="patch_18">
    <path d="M 530.48981 189.016213 
L 552.324592 189.016213 
L 552.324592 32.962328 
L 530.48981 32.962328 
L 530.48981 189.016213 
z
" clip-path="url(#pa7484c8496)" style="fill: #d62728; opacity: 0.75; stroke: #000000; stroke-linejoin: miter"/>
   </g>
   <g id="line2d_94">
    <path d="M 541.407201 189.016213 
L 541.407201 335.316731 
" clip-path="url(#pa7484c8496)" style="fill: none; stroke: #000000; stroke-linecap: square"/>
   </g>
   <g id="line2d_95">
    <path d="M 541.407201 32.962328 
L 541.407201 32.962328 
" clip-path="url(#pa7484c8496)" style="fill: none; stroke: #000000; stroke-linecap: square"/>
   </g>
   <g id="line2d_96">
    <path d="M 535.948505 335.316731 
L 546.865897 335.316731 
" clip-path="url(#pa7484c8496)" style="fill: none; stroke: #000000; stroke-linecap: square"/>
   </g>
   <g id="line2d_97">
    <path d="M 535.948505 32.962328 
L 546.865897 32.962328 
" clip-path="url(#pa7484c8496)" style="fill: none; stroke: #000000; stroke-linecap: square"/>
   </g>
   <g id="line2d_98"/>
   <g id="line2d_99">
    <path d="M 93.794158 32.918437 
L 115.62894 32.918437 
" clip-path="url(#pa7484c8496)" style="fill: none; stroke: #000000; stroke-linecap: square"/>
   </g>
   <g id="line2d_100">
    <path d="M 118.055027 110.97464 
L 139.88981 110.97464 
" clip-path="url(#pa7484c8496)" style="fill: none; stroke: #000000; stroke-linecap: square"/>
   </g>
   <g id="line2d_101">
    <path d="M 142.315897 32.957451 
L 164.150679 32.957451 
" clip-path="url(#pa7484c8496)" style="fill: none; stroke: #000000; stroke-linecap: square"/>
   </g>
   <g id="line2d_102">
    <path d="M 166.576766 32.962328 
L 188.411549 32.962328 
" clip-path="url(#pa7484c8496)" style="fill: none; stroke: #000000; stroke-linecap: square"/>
   </g>
   <g id="line2d_103">
    <path d="M 215.098505 32.918437 
L 236.933288 32.918437 
" clip-path="url(#pa7484c8496)" style="fill: none; stroke: #000000; stroke-linecap: square"/>
   </g>
   <g id="line2d_104">
    <path d="M 239.359375 32.947698 
L 261.194158 32.947698 
" clip-path="url(#pa7484c8496)" style="fill: none; stroke: #000000; stroke-linecap: square"/>
   </g>
   <g id="line2d_105">
    <path d="M 263.620245 32.957451 
L 285.455027 32.957451 
" clip-path="url(#pa7484c8496)" style="fill: none; stroke: #000000; stroke-linecap: square"/>
   </g>
   <g id="line2d_106">
    <path d="M 287.881114 32.962328 
L 309.715897 32.962328 
" clip-path="url(#pa7484c8496)" style="fill: none; stroke: #000000; stroke-linecap: square"/>
   </g>
   <g id="line2d_107">
    <path d="M 336.402853 32.918437 
L 358.237636 32.918437 
" clip-path="url(#pa7484c8496)" style="fill: none; stroke: #000000; stroke-linecap: square"/>
   </g>
   <g id="line2d_108">
    <path d="M 360.663723 32.947698 
L 382.498505 32.947698 
" clip-path="url(#pa7484c8496)" style="fill: none; stroke: #000000; stroke-linecap: square"/>
   </g>
   <g id="line2d_109">
    <path d="M 384.924592 32.957451 
L 406.759375 32.957451 
" clip-path="url(#pa7484c8496)" style="fill: none; stroke: #000000; stroke-linecap: square"/>
   </g>
   <g id="line2d_110">
    <path d="M 409.185462 32.962328 
L 431.020245 32.962328 
" clip-path="url(#pa7484c8496)" style="fill: none; stroke: #000000; stroke-linecap: square"/>
   </g>
   <g id="line2d_111">
    <path d="M 457.707201 32.918437 
L 479.541984 32.918437 
" clip-path="url(#pa7484c8496)" style="fill: none; stroke: #000000; stroke-linecap: square"/>
   </g>
   <g id="line2d_112">
    <path d="M 481.968071 32.947698 
L 503.802853 32.947698 
" clip-path="url(#pa7484c8496)" style="fill: none; stroke: #000000; stroke-linecap: square"/>
   </g>
   <g id="line2d_113">
    <path d="M 506.22894 32.957451 
L 528.063723 32.957451 
" clip-path="url(#pa7484c8496)" style="fill: none; stroke: #000000; stroke-linecap: square"/>
   </g>
   <g id="line2d_114">
    <path d="M 530.48981 32.962328 
L 552.324592 32.962328 
" clip-path="url(#pa7484c8496)" style="fill: none; stroke: #000000; stroke-linecap: square"/>
   </g>
   <g id="patch_19">
    <path d="M 44.059375 350.438437 
L 44.059375 17.798437 
" style="fill: none; stroke: #000000; stroke-width: 0.8; stroke-linejoin: miter; stroke-linecap: square"/>
   </g>
   <g id="patch_20">
    <path d="M 602.059375 350.438437 
L 602.059375 17.798437 
" style="fill: none; stroke: #000000; stroke-width: 0.8; stroke-linejoin: miter; stroke-linecap: square"/>
   </g>
   <g id="patch_21">
    <path d="M 44.059375 350.438437 
L 602.059375 350.438437 
" style="fill: none; stroke: #000000; stroke-width: 0.8; stroke-linejoin: miter; stroke-linecap: square"/>
   </g>
   <g id="patch_22">
    <path d="M 44.059375 17.798437 
L 602.059375 17.798437 
" style="fill: none; stroke: #000000; stroke-width: 0.8; stroke-linejoin: miter; stroke-linecap: square"/>
   </g>
   <g id="legend_1">
    <g id="patch_23">
     <path d="M 609.059375 222.31375 
L 739.625 222.31375 
Q 741.625 222.31375 741.625 220.31375 
L 741.625 147.923125 
Q 741.625 145.923125 739.625 145.923125 
L 609.059375 145.923125 
Q 607.059375 145.923125 607.059375 147.923125 
L 607.059375 220.31375 
Q 607.059375 222.31375 609.059375 222.31375 
z
" style="fill: #ffffff; opacity: 0.8; stroke: #cccccc; stroke-linejoin: miter"/>
    </g>
    <g id="text_15">
     <!-- load balancing frequency -->
     <g transform="translate(611.059375 157.521562) scale(0.1 -0.1)">
      <defs>
       <path id="DejaVuSans-20" transform="scale(0.015625)"/>
       <path id="DejaVuSans-66" d="M 2375 4863 
L 2375 4384 
L 1825 4384 
Q 1516 4384 1395 4259 
Q 1275 4134 1275 3809 
L 1275 3500 
L 2222 3500 
L 2222 3053 
L 1275 3053 
L 1275 0 
L 697 0 
L 697 3053 
L 147 3053 
L 147 3500 
L 697 3500 
L 697 3744 
Q 697 4328 969 4595 
Q 1241 4863 1831 4863 
L 2375 4863 
z
" transform="scale(0.015625)"/>
       <path id="DejaVuSans-71" d="M 947 1747 
Q 947 1113 1208 752 
Q 1469 391 1925 391 
Q 2381 391 2643 752 
Q 2906 1113 2906 1747 
Q 2906 2381 2643 2742 
Q 2381 3103 1925 3103 
Q 1469 3103 1208 2742 
Q 947 2381 947 1747 
z
M 2906 525 
Q 2725 213 2448 61 
Q 2172 -91 1784 -91 
Q 1150 -91 751 415 
Q 353 922 353 1747 
Q 353 2572 751 3078 
Q 1150 3584 1784 3584 
Q 2172 3584 2448 3432 
Q 2725 3281 2906 2969 
L 2906 3500 
L 3481 3500 
L 3481 -1331 
L 2906 -1331 
L 2906 525 
z
" transform="scale(0.015625)"/>
       <path id="DejaVuSans-79" d="M 2059 -325 
Q 1816 -950 1584 -1140 
Q 1353 -1331 966 -1331 
L 506 -1331 
L 506 -850 
L 844 -850 
Q 1081 -850 1212 -737 
Q 1344 -625 1503 -206 
L 1606 56 
L 191 3500 
L 800 3500 
L 1894 763 
L 2988 3500 
L 3597 3500 
L 2059 -325 
z
" transform="scale(0.015625)"/>
      </defs>
      <use xlink:href="#DejaVuSans-6c"/>
      <use xlink:href="#DejaVuSans-6f" x="27.783203"/>
      <use xlink:href="#DejaVuSans-61" x="88.964844"/>
      <use xlink:href="#DejaVuSans-64" x="150.244141"/>
      <use xlink:href="#DejaVuSans-20" x="213.720703"/>
      <use xlink:href="#DejaVuSans-62" x="245.507812"/>
      <use xlink:href="#DejaVuSans-61" x="308.984375"/>
      <use xlink:href="#DejaVuSans-6c" x="370.263672"/>
      <use xlink:href="#DejaVuSans-61" x="398.046875"/>
      <use xlink:href="#DejaVuSans-6e" x="459.326172"/>
      <use xlink:href="#DejaVuSans-63" x="522.705078"/>
      <use xlink:href="#DejaVuSans-69" x="577.685547"/>
      <use xlink:href="#DejaVuSans-6e" x="605.46875"/>
      <use xlink:href="#DejaVuSans-67" x="668.847656"/>
      <use xlink:href="#DejaVuSans-20" x="732.324219"/>
      <use xlink:href="#DejaVuSans-66" x="764.111328"/>
      <use xlink:href="#DejaVuSans-72" x="799.316406"/>
      <use xlink:href="#DejaVuSans-65" x="838.179688"/>
      <use xlink:href="#DejaVuSans-71" x="899.703125"/>
      <use xlink:href="#DejaVuSans-75" x="963.179688"/>
      <use xlink:href="#DejaVuSans-65" x="1026.558594"/>
      <use xlink:href="#DejaVuSans-6e" x="1088.082031"/>
      <use xlink:href="#DejaVuSans-63" x="1151.460938"/>
      <use xlink:href="#DejaVuSans-79" x="1206.441406"/>
     </g>
    </g>
    <g id="patch_24">
     <path d="M 640.258594 172.199687 
L 660.258594 172.199687 
L 660.258594 165.199687 
L 640.258594 165.199687 
z
" style="fill: #1f77b4; opacity: 0.75"/>
    </g>
    <g id="text_16">
     <!-- n=100 -->
     <g transform="translate(668.258594 172.199687) scale(0.1 -0.1)">
      <defs>
       <path id="DejaVuSans-3d" d="M 678 2906 
L 4684 2906 
L 4684 2381 
L 678 2381 
L 678 2906 
z
M 678 1631 
L 4684 1631 
L 4684 1100 
L 678 1100 
L 678 1631 
z
" transform="scale(0.015625)"/>
      </defs>
      <use xlink:href="#DejaVuSans-6e"/>
      <use xlink:href="#DejaVuSans-3d" x="63.378906"/>
      <use xlink:href="#DejaVuSans-31" x="147.167969"/>
      <use xlink:href="#DejaVuSans-30" x="210.791016"/>
      <use xlink:href="#DejaVuSans-30" x="274.414062"/>
     </g>
    </g>
    <g id="patch_25">
     <path d="M 640.258594 186.877812 
L 660.258594 186.877812 
L 660.258594 179.877812 
L 640.258594 179.877812 
z
" style="fill: #ff7f0e; opacity: 0.75"/>
    </g>
    <g id="text_17">
     <!-- n=250 -->
     <g transform="translate(668.258594 186.877812) scale(0.1 -0.1)">
      <defs>
       <path id="DejaVuSans-35" d="M 691 4666 
L 3169 4666 
L 3169 4134 
L 1269 4134 
L 1269 2991 
Q 1406 3038 1543 3061 
Q 1681 3084 1819 3084 
Q 2600 3084 3056 2656 
Q 3513 2228 3513 1497 
Q 3513 744 3044 326 
Q 2575 -91 1722 -91 
Q 1428 -91 1123 -41 
Q 819 9 494 109 
L 494 744 
Q 775 591 1075 516 
Q 1375 441 1709 441 
Q 2250 441 2565 725 
Q 2881 1009 2881 1497 
Q 2881 1984 2565 2268 
Q 2250 2553 1709 2553 
Q 1456 2553 1204 2497 
Q 953 2441 691 2322 
L 691 4666 
z
" transform="scale(0.015625)"/>
      </defs>
      <use xlink:href="#DejaVuSans-6e"/>
      <use xlink:href="#DejaVuSans-3d" x="63.378906"/>
      <use xlink:href="#DejaVuSans-32" x="147.167969"/>
      <use xlink:href="#DejaVuSans-35" x="210.791016"/>
      <use xlink:href="#DejaVuSans-30" x="274.414062"/>
     </g>
    </g>
    <g id="patch_26">
     <path d="M 640.258594 201.555937 
L 660.258594 201.555937 
L 660.258594 194.555937 
L 640.258594 194.555937 
z
" style="fill: #2ca02c; opacity: 0.75"/>
    </g>
    <g id="text_18">
     <!-- n=500 -->
     <g transform="translate(668.258594 201.555937) scale(0.1 -0.1)">
      <use xlink:href="#DejaVuSans-6e"/>
      <use xlink:href="#DejaVuSans-3d" x="63.378906"/>
      <use xlink:href="#DejaVuSans-35" x="147.167969"/>
      <use xlink:href="#DejaVuSans-30" x="210.791016"/>
      <use xlink:href="#DejaVuSans-30" x="274.414062"/>
     </g>
    </g>
    <g id="patch_27">
     <path d="M 640.258594 216.234062 
L 660.258594 216.234062 
L 660.258594 209.234062 
L 640.258594 209.234062 
z
" style="fill: #d62728; opacity: 0.75"/>
    </g>
    <g id="text_19">
     <!-- n=1000 -->
     <g transform="translate(668.258594 216.234062) scale(0.1 -0.1)">
      <use xlink:href="#DejaVuSans-6e"/>
      <use xlink:href="#DejaVuSans-3d" x="63.378906"/>
      <use xlink:href="#DejaVuSans-31" x="147.167969"/>
      <use xlink:href="#DejaVuSans-30" x="210.791016"/>
      <use xlink:href="#DejaVuSans-30" x="274.414062"/>
      <use xlink:href="#DejaVuSans-30" x="338.037109"/>
     </g>
    </g>
   </g>
  </g>
 </g>
 <defs>
  <clipPath id="pa7484c8496">
   <rect x="44.059375" y="17.798437" width="558" height="332.64"/>
  </clipPath>
 </defs>
</svg>
