<?xml version="1.0" encoding="utf-8" standalone="no"?>
<!DOCTYPE svg PUBLIC "-//W3C//DTD SVG 1.1//EN"
  "http://www.w3.org/Graphics/SVG/1.1/DTD/svg11.dtd">
<svg xmlns:xlink="http://www.w3.org/1999/xlink" width="911.596pt" height="171.128125pt" viewBox="0 0 911.596 171.128125" xmlns="http://www.w3.org/2000/svg" version="1.1">
 <metadata>
  <rdf:RDF xmlns:dc="http://purl.org/dc/elements/1.1/" xmlns:cc="http://creativecommons.org/ns#" xmlns:rdf="http://www.w3.org/1999/02/22-rdf-syntax-ns#">
   <cc:Work>
    <dc:type rdf:resource="http://purl.org/dc/dcmitype/StillImage"/>
    <dc:date>2025-09-09T18:52:53.317277</dc:date>
    <dc:format>image/svg+xml</dc:format>
    <dc:creator>
     <cc:Agent>
      <dc:title>Matplotlib v3.6.3, https://matplotlib.org/</dc:title>
     </cc:Agent>
    </dc:creator>
   </cc:Work>
  </rdf:RDF>
 </metadata>
 <defs>
  <style type="text/css">*{stroke-linejoin: round; stroke-linecap: butt}</style>
 </defs>
 <g id="figure_1">
  <g id="patch_1">
   <path d="M 0 171.128125 
L 911.596 171.128125 
L 911.596 0 
L 0 0 
z
" style="fill: #ffffff"/>
  </g>
  <g id="axes_1">
   <g id="patch_2">
    <path d="M 34.240625 118.08 
L 703.840625 118.08 
L 703.840625 7.2 
L 34.240625 7.2 
z
" style="fill: #ffffff"/>
   </g>
   <g id="matplotlib.axis_1">
    <g id="xtick_1">
     <g id="line2d_1">
      <defs>
       <path id="m084a89e3c7" d="M 0 0 
L 0 3.5 
" style="stroke: #000000; stroke-width: 0.8"/>
      </defs>
      <g>
       <use xlink:href="#m084a89e3c7" x="72.920349" y="118.08" style="stroke: #000000; stroke-width: 0.8"/>
      </g>
     </g>
     <g id="text_1">
      <!-- 0 -->
      <g transform="translate(69.739099 132.678438) scale(0.1 -0.1)">
       <defs>
        <path id="DejaVuSans-30" d="M 2034 4250 
Q 1547 4250 1301 3770 
Q 1056 3291 1056 2328 
Q 1056 1369 1301 889 
Q 1547 409 2034 409 
Q 2525 409 2770 889 
Q 3016 1369 3016 2328 
Q 3016 3291 2770 3770 
Q 2525 4250 2034 4250 
z
M 2034 4750 
Q 2819 4750 3233 4129 
Q 3647 3509 3647 2328 
Q 3647 1150 3233 529 
Q 2819 -91 2034 -91 
Q 1250 -91 836 529 
Q 422 1150 422 2328 
Q 422 3509 836 4129 
Q 1250 4750 2034 4750 
z
" transform="scale(0.015625)"/>
       </defs>
       <use xlink:href="#DejaVuSans-30"/>
      </g>
     </g>
    </g>
    <g id="xtick_2">
     <g id="line2d_2">
      <g>
       <use xlink:href="#m084a89e3c7" x="178.71875" y="118.08" style="stroke: #000000; stroke-width: 0.8"/>
      </g>
     </g>
     <g id="text_2">
      <!-- 1 -->
      <g transform="translate(175.5375 132.678438) scale(0.1 -0.1)">
       <defs>
        <path id="DejaVuSans-31" d="M 794 531 
L 1825 531 
L 1825 4091 
L 703 3866 
L 703 4441 
L 1819 4666 
L 2450 4666 
L 2450 531 
L 3481 531 
L 3481 0 
L 794 0 
L 794 531 
z
" transform="scale(0.015625)"/>
       </defs>
       <use xlink:href="#DejaVuSans-31"/>
      </g>
     </g>
    </g>
    <g id="xtick_3">
     <g id="line2d_3">
      <g>
       <use xlink:href="#m084a89e3c7" x="284.517151" y="118.08" style="stroke: #000000; stroke-width: 0.8"/>
      </g>
     </g>
     <g id="text_3">
      <!-- 1 -->
      <g transform="translate(281.335901 132.678438) scale(0.1 -0.1)">
       <use xlink:href="#DejaVuSans-31"/>
      </g>
     </g>
    </g>
    <g id="xtick_4">
     <g id="line2d_4">
      <g>
       <use xlink:href="#m084a89e3c7" x="390.315552" y="118.08" style="stroke: #000000; stroke-width: 0.8"/>
      </g>
     </g>
     <g id="text_4">
      <!-- 2 -->
      <g transform="translate(387.134302 132.678438) scale(0.1 -0.1)">
       <defs>
        <path id="DejaVuSans-32" d="M 1228 531 
L 3431 531 
L 3431 0 
L 469 0 
L 469 531 
Q 828 903 1448 1529 
Q 2069 2156 2228 2338 
Q 2531 2678 2651 2914 
Q 2772 3150 2772 3378 
Q 2772 3750 2511 3984 
Q 2250 4219 1831 4219 
Q 1534 4219 1204 4116 
Q 875 4013 500 3803 
L 500 4441 
Q 881 4594 1212 4672 
Q 1544 4750 1819 4750 
Q 2544 4750 2975 4387 
Q 3406 4025 3406 3419 
Q 3406 3131 3298 2873 
Q 3191 2616 2906 2266 
Q 2828 2175 2409 1742 
Q 1991 1309 1228 531 
z
" transform="scale(0.015625)"/>
       </defs>
       <use xlink:href="#DejaVuSans-32"/>
      </g>
     </g>
    </g>
    <g id="xtick_5">
     <g id="line2d_5">
      <g>
       <use xlink:href="#m084a89e3c7" x="496.113953" y="118.08" style="stroke: #000000; stroke-width: 0.8"/>
      </g>
     </g>
     <g id="text_5">
      <!-- 2 -->
      <g transform="translate(492.932703 132.678438) scale(0.1 -0.1)">
       <use xlink:href="#DejaVuSans-32"/>
      </g>
     </g>
    </g>
    <g id="xtick_6">
     <g id="line2d_6">
      <g>
       <use xlink:href="#m084a89e3c7" x="601.912354" y="118.08" style="stroke: #000000; stroke-width: 0.8"/>
      </g>
     </g>
     <g id="text_6">
      <!-- 3 -->
      <g transform="translate(598.731104 132.678438) scale(0.1 -0.1)">
       <defs>
        <path id="DejaVuSans-33" d="M 2597 2516 
Q 3050 2419 3304 2112 
Q 3559 1806 3559 1356 
Q 3559 666 3084 287 
Q 2609 -91 1734 -91 
Q 1441 -91 1130 -33 
Q 819 25 488 141 
L 488 750 
Q 750 597 1062 519 
Q 1375 441 1716 441 
Q 2309 441 2620 675 
Q 2931 909 2931 1356 
Q 2931 1769 2642 2001 
Q 2353 2234 1838 2234 
L 1294 2234 
L 1294 2753 
L 1863 2753 
Q 2328 2753 2575 2939 
Q 2822 3125 2822 3475 
Q 2822 3834 2567 4026 
Q 2313 4219 1838 4219 
Q 1578 4219 1281 4162 
Q 984 4106 628 3988 
L 628 4550 
Q 988 4650 1302 4700 
Q 1616 4750 1894 4750 
Q 2613 4750 3031 4423 
Q 3450 4097 3450 3541 
Q 3450 3153 3228 2886 
Q 3006 2619 2597 2516 
z
" transform="scale(0.015625)"/>
       </defs>
       <use xlink:href="#DejaVuSans-33"/>
      </g>
     </g>
    </g>
    <g id="text_7">
     <!-- Time Offset (s) -->
     <g transform="translate(332.025 146.356562) scale(0.1 -0.1)">
      <defs>
       <path id="DejaVuSans-54" d="M -19 4666 
L 3928 4666 
L 3928 4134 
L 2272 4134 
L 2272 0 
L 1638 0 
L 1638 4134 
L -19 4134 
L -19 4666 
z
" transform="scale(0.015625)"/>
       <path id="DejaVuSans-69" d="M 603 3500 
L 1178 3500 
L 1178 0 
L 603 0 
L 603 3500 
z
M 603 4863 
L 1178 4863 
L 1178 4134 
L 603 4134 
L 603 4863 
z
" transform="scale(0.015625)"/>
       <path id="DejaVuSans-6d" d="M 3328 2828 
Q 3544 3216 3844 3400 
Q 4144 3584 4550 3584 
Q 5097 3584 5394 3201 
Q 5691 2819 5691 2113 
L 5691 0 
L 5113 0 
L 5113 2094 
Q 5113 2597 4934 2840 
Q 4756 3084 4391 3084 
Q 3944 3084 3684 2787 
Q 3425 2491 3425 1978 
L 3425 0 
L 2847 0 
L 2847 2094 
Q 2847 2600 2669 2842 
Q 2491 3084 2119 3084 
Q 1678 3084 1418 2786 
Q 1159 2488 1159 1978 
L 1159 0 
L 581 0 
L 581 3500 
L 1159 3500 
L 1159 2956 
Q 1356 3278 1631 3431 
Q 1906 3584 2284 3584 
Q 2666 3584 2933 3390 
Q 3200 3197 3328 2828 
z
" transform="scale(0.015625)"/>
       <path id="DejaVuSans-65" d="M 3597 1894 
L 3597 1613 
L 953 1613 
Q 991 1019 1311 708 
Q 1631 397 2203 397 
Q 2534 397 2845 478 
Q 3156 559 3463 722 
L 3463 178 
Q 3153 47 2828 -22 
Q 2503 -91 2169 -91 
Q 1331 -91 842 396 
Q 353 884 353 1716 
Q 353 2575 817 3079 
Q 1281 3584 2069 3584 
Q 2775 3584 3186 3129 
Q 3597 2675 3597 1894 
z
M 3022 2063 
Q 3016 2534 2758 2815 
Q 2500 3097 2075 3097 
Q 1594 3097 1305 2825 
Q 1016 2553 972 2059 
L 3022 2063 
z
" transform="scale(0.015625)"/>
       <path id="DejaVuSans-20" transform="scale(0.015625)"/>
       <path id="DejaVuSans-4f" d="M 2522 4238 
Q 1834 4238 1429 3725 
Q 1025 3213 1025 2328 
Q 1025 1447 1429 934 
Q 1834 422 2522 422 
Q 3209 422 3611 934 
Q 4013 1447 4013 2328 
Q 4013 3213 3611 3725 
Q 3209 4238 2522 4238 
z
M 2522 4750 
Q 3503 4750 4090 4092 
Q 4678 3434 4678 2328 
Q 4678 1225 4090 567 
Q 3503 -91 2522 -91 
Q 1538 -91 948 565 
Q 359 1222 359 2328 
Q 359 3434 948 4092 
Q 1538 4750 2522 4750 
z
" transform="scale(0.015625)"/>
       <path id="DejaVuSans-66" d="M 2375 4863 
L 2375 4384 
L 1825 4384 
Q 1516 4384 1395 4259 
Q 1275 4134 1275 3809 
L 1275 3500 
L 2222 3500 
L 2222 3053 
L 1275 3053 
L 1275 0 
L 697 0 
L 697 3053 
L 147 3053 
L 147 3500 
L 697 3500 
L 697 3744 
Q 697 4328 969 4595 
Q 1241 4863 1831 4863 
L 2375 4863 
z
" transform="scale(0.015625)"/>
       <path id="DejaVuSans-73" d="M 2834 3397 
L 2834 2853 
Q 2591 2978 2328 3040 
Q 2066 3103 1784 3103 
Q 1356 3103 1142 2972 
Q 928 2841 928 2578 
Q 928 2378 1081 2264 
Q 1234 2150 1697 2047 
L 1894 2003 
Q 2506 1872 2764 1633 
Q 3022 1394 3022 966 
Q 3022 478 2636 193 
Q 2250 -91 1575 -91 
Q 1294 -91 989 -36 
Q 684 19 347 128 
L 347 722 
Q 666 556 975 473 
Q 1284 391 1588 391 
Q 1994 391 2212 530 
Q 2431 669 2431 922 
Q 2431 1156 2273 1281 
Q 2116 1406 1581 1522 
L 1381 1569 
Q 847 1681 609 1914 
Q 372 2147 372 2553 
Q 372 3047 722 3315 
Q 1072 3584 1716 3584 
Q 2034 3584 2315 3537 
Q 2597 3491 2834 3397 
z
" transform="scale(0.015625)"/>
       <path id="DejaVuSans-74" d="M 1172 4494 
L 1172 3500 
L 2356 3500 
L 2356 3053 
L 1172 3053 
L 1172 1153 
Q 1172 725 1289 603 
Q 1406 481 1766 481 
L 2356 481 
L 2356 0 
L 1766 0 
Q 1100 0 847 248 
Q 594 497 594 1153 
L 594 3053 
L 172 3053 
L 172 3500 
L 594 3500 
L 594 4494 
L 1172 4494 
z
" transform="scale(0.015625)"/>
       <path id="DejaVuSans-28" d="M 1984 4856 
Q 1566 4138 1362 3434 
Q 1159 2731 1159 2009 
Q 1159 1288 1364 580 
Q 1569 -128 1984 -844 
L 1484 -844 
Q 1016 -109 783 600 
Q 550 1309 550 2009 
Q 550 2706 781 3412 
Q 1013 4119 1484 4856 
L 1984 4856 
z
" transform="scale(0.015625)"/>
       <path id="DejaVuSans-29" d="M 513 4856 
L 1013 4856 
Q 1481 4119 1714 3412 
Q 1947 2706 1947 2009 
Q 1947 1309 1714 600 
Q 1481 -109 1013 -844 
L 513 -844 
Q 928 -128 1133 580 
Q 1338 1288 1338 2009 
Q 1338 2731 1133 3434 
Q 928 4138 513 4856 
z
" transform="scale(0.015625)"/>
      </defs>
      <use xlink:href="#DejaVuSans-54"/>
      <use xlink:href="#DejaVuSans-69" x="57.958984"/>
      <use xlink:href="#DejaVuSans-6d" x="85.742188"/>
      <use xlink:href="#DejaVuSans-65" x="183.154297"/>
      <use xlink:href="#DejaVuSans-20" x="244.677734"/>
      <use xlink:href="#DejaVuSans-4f" x="276.464844"/>
      <use xlink:href="#DejaVuSans-66" x="355.175781"/>
      <use xlink:href="#DejaVuSans-66" x="390.380859"/>
      <use xlink:href="#DejaVuSans-73" x="425.585938"/>
      <use xlink:href="#DejaVuSans-65" x="477.685547"/>
      <use xlink:href="#DejaVuSans-74" x="539.208984"/>
      <use xlink:href="#DejaVuSans-20" x="578.417969"/>
      <use xlink:href="#DejaVuSans-28" x="610.205078"/>
      <use xlink:href="#DejaVuSans-73" x="649.21875"/>
      <use xlink:href="#DejaVuSans-29" x="701.318359"/>
     </g>
    </g>
   </g>
   <g id="matplotlib.axis_2">
    <g id="ytick_1">
     <g id="line2d_7">
      <defs>
       <path id="m9adf03cfdb" d="M 0 0 
L -3.5 0 
" style="stroke: #000000; stroke-width: 0.8"/>
      </defs>
      <g>
       <use xlink:href="#m9adf03cfdb" x="34.240625" y="23.870769" style="stroke: #000000; stroke-width: 0.8"/>
      </g>
     </g>
     <g id="text_8">
      <!-- 0 -->
      <g transform="translate(20.878125 27.669988) scale(0.1 -0.1)">
       <use xlink:href="#DejaVuSans-30"/>
      </g>
     </g>
    </g>
    <g id="ytick_2">
     <g id="line2d_8">
      <g>
       <use xlink:href="#m9adf03cfdb" x="34.240625" y="49.716923" style="stroke: #000000; stroke-width: 0.8"/>
      </g>
     </g>
     <g id="text_9">
      <!-- 1 -->
      <g transform="translate(20.878125 53.516142) scale(0.1 -0.1)">
       <use xlink:href="#DejaVuSans-31"/>
      </g>
     </g>
    </g>
    <g id="ytick_3">
     <g id="line2d_9">
      <g>
       <use xlink:href="#m9adf03cfdb" x="34.240625" y="75.563077" style="stroke: #000000; stroke-width: 0.8"/>
      </g>
     </g>
     <g id="text_10">
      <!-- 2 -->
      <g transform="translate(20.878125 79.362296) scale(0.1 -0.1)">
       <use xlink:href="#DejaVuSans-32"/>
      </g>
     </g>
    </g>
    <g id="ytick_4">
     <g id="line2d_10">
      <g>
       <use xlink:href="#m9adf03cfdb" x="34.240625" y="101.409231" style="stroke: #000000; stroke-width: 0.8"/>
      </g>
     </g>
     <g id="text_11">
      <!-- 3 -->
      <g transform="translate(20.878125 105.20845) scale(0.1 -0.1)">
       <use xlink:href="#DejaVuSans-33"/>
      </g>
     </g>
    </g>
    <g id="text_12">
     <!-- Task -->
     <g transform="translate(14.798438 73.432969) rotate(-90) scale(0.1 -0.1)">
      <defs>
       <path id="DejaVuSans-61" d="M 2194 1759 
Q 1497 1759 1228 1600 
Q 959 1441 959 1056 
Q 959 750 1161 570 
Q 1363 391 1709 391 
Q 2188 391 2477 730 
Q 2766 1069 2766 1631 
L 2766 1759 
L 2194 1759 
z
M 3341 1997 
L 3341 0 
L 2766 0 
L 2766 531 
Q 2569 213 2275 61 
Q 1981 -91 1556 -91 
Q 1019 -91 701 211 
Q 384 513 384 1019 
Q 384 1609 779 1909 
Q 1175 2209 1959 2209 
L 2766 2209 
L 2766 2266 
Q 2766 2663 2505 2880 
Q 2244 3097 1772 3097 
Q 1472 3097 1187 3025 
Q 903 2953 641 2809 
L 641 3341 
Q 956 3463 1253 3523 
Q 1550 3584 1831 3584 
Q 2591 3584 2966 3190 
Q 3341 2797 3341 1997 
z
" transform="scale(0.015625)"/>
       <path id="DejaVuSans-6b" d="M 581 4863 
L 1159 4863 
L 1159 1991 
L 2875 3500 
L 3609 3500 
L 1753 1863 
L 3688 0 
L 2938 0 
L 1159 1709 
L 1159 0 
L 581 0 
L 581 4863 
z
" transform="scale(0.015625)"/>
      </defs>
      <use xlink:href="#DejaVuSans-54"/>
      <use xlink:href="#DejaVuSans-61" x="44.583984"/>
      <use xlink:href="#DejaVuSans-73" x="105.863281"/>
      <use xlink:href="#DejaVuSans-6b" x="157.962891"/>
     </g>
    </g>
   </g>
   <g id="patch_3">
    <path d="M 34.240625 118.08 
L 34.240625 7.2 
" style="fill: none; stroke: #000000; stroke-width: 0.8; stroke-linejoin: miter; stroke-linecap: square"/>
   </g>
   <g id="patch_4">
    <path d="M 703.840625 118.08 
L 703.840625 7.2 
" style="fill: none; stroke: #000000; stroke-width: 0.8; stroke-linejoin: miter; stroke-linecap: square"/>
   </g>
   <g id="patch_5">
    <path d="M 34.240662 118.08 
L 703.840637 118.08 
" style="fill: none; stroke: #000000; stroke-width: 0.8; stroke-linejoin: miter; stroke-linecap: square"/>
   </g>
   <g id="patch_6">
    <path d="M 34.240662 7.2 
L 703.840637 7.2 
" style="fill: none; stroke: #000000; stroke-width: 0.8; stroke-linejoin: miter; stroke-linecap: square"/>
   </g>
   <g id="legend_1">
    <g id="patch_7">
     <path d="M 717.536625 163.928125 
L 902.396 163.928125 
Q 904.396 163.928125 904.396 161.928125 
L 904.396 14.2 
Q 904.396 12.2 902.396 12.2 
L 717.536625 12.2 
Q 715.536625 12.2 715.536625 14.2 
L 715.536625 161.928125 
Q 715.536625 163.928125 717.536625 163.928125 
z
" style="fill: #ffffff; opacity: 0.8; stroke: #cccccc; stroke-linejoin: miter"/>
    </g>
    <g id="text_13">
     <!-- Function -->
     <g transform="translate(788.701469 23.798437) scale(0.1 -0.1)">
      <defs>
       <path id="DejaVuSans-46" d="M 628 4666 
L 3309 4666 
L 3309 4134 
L 1259 4134 
L 1259 2759 
L 3109 2759 
L 3109 2228 
L 1259 2228 
L 1259 0 
L 628 0 
L 628 4666 
z
" transform="scale(0.015625)"/>
       <path id="DejaVuSans-75" d="M 544 1381 
L 544 3500 
L 1119 3500 
L 1119 1403 
Q 1119 906 1312 657 
Q 1506 409 1894 409 
Q 2359 409 2629 706 
Q 2900 1003 2900 1516 
L 2900 3500 
L 3475 3500 
L 3475 0 
L 2900 0 
L 2900 538 
Q 2691 219 2414 64 
Q 2138 -91 1772 -91 
Q 1169 -91 856 284 
Q 544 659 544 1381 
z
M 1991 3584 
L 1991 3584 
z
" transform="scale(0.015625)"/>
       <path id="DejaVuSans-6e" d="M 3513 2113 
L 3513 0 
L 2938 0 
L 2938 2094 
Q 2938 2591 2744 2837 
Q 2550 3084 2163 3084 
Q 1697 3084 1428 2787 
Q 1159 2491 1159 1978 
L 1159 0 
L 581 0 
L 581 3500 
L 1159 3500 
L 1159 2956 
Q 1366 3272 1645 3428 
Q 1925 3584 2291 3584 
Q 2894 3584 3203 3211 
Q 3513 2838 3513 2113 
z
" transform="scale(0.015625)"/>
       <path id="DejaVuSans-63" d="M 3122 3366 
L 3122 2828 
Q 2878 2963 2633 3030 
Q 2388 3097 2138 3097 
Q 1578 3097 1268 2742 
Q 959 2388 959 1747 
Q 959 1106 1268 751 
Q 1578 397 2138 397 
Q 2388 397 2633 464 
Q 2878 531 3122 666 
L 3122 134 
Q 2881 22 2623 -34 
Q 2366 -91 2075 -91 
Q 1284 -91 818 406 
Q 353 903 353 1747 
Q 353 2603 823 3093 
Q 1294 3584 2113 3584 
Q 2378 3584 2631 3529 
Q 2884 3475 3122 3366 
z
" transform="scale(0.015625)"/>
       <path id="DejaVuSans-6f" d="M 1959 3097 
Q 1497 3097 1228 2736 
Q 959 2375 959 1747 
Q 959 1119 1226 758 
Q 1494 397 1959 397 
Q 2419 397 2687 759 
Q 2956 1122 2956 1747 
Q 2956 2369 2687 2733 
Q 2419 3097 1959 3097 
z
M 1959 3584 
Q 2709 3584 3137 3096 
Q 3566 2609 3566 1747 
Q 3566 888 3137 398 
Q 2709 -91 1959 -91 
Q 1206 -91 779 398 
Q 353 888 353 1747 
Q 353 2609 779 3096 
Q 1206 3584 1959 3584 
z
" transform="scale(0.015625)"/>
      </defs>
      <use xlink:href="#DejaVuSans-46"/>
      <use xlink:href="#DejaVuSans-75" x="52.019531"/>
      <use xlink:href="#DejaVuSans-6e" x="115.398438"/>
      <use xlink:href="#DejaVuSans-63" x="178.777344"/>
      <use xlink:href="#DejaVuSans-74" x="233.757812"/>
      <use xlink:href="#DejaVuSans-69" x="272.966797"/>
      <use xlink:href="#DejaVuSans-6f" x="300.75"/>
      <use xlink:href="#DejaVuSans-6e" x="361.931641"/>
     </g>
    </g>
    <g id="patch_8">
     <path d="M 719.536625 38.476562 
L 739.536625 38.476562 
L 739.536625 31.476562 
L 719.536625 31.476562 
z
" style="fill: #1f77b4; stroke: #1f77b4; stroke-linejoin: miter"/>
    </g>
    <g id="text_14">
     <!-- get_imbalance -->
     <g transform="translate(747.536625 38.476562) scale(0.1 -0.1)">
      <defs>
       <path id="DejaVuSans-67" d="M 2906 1791 
Q 2906 2416 2648 2759 
Q 2391 3103 1925 3103 
Q 1463 3103 1205 2759 
Q 947 2416 947 1791 
Q 947 1169 1205 825 
Q 1463 481 1925 481 
Q 2391 481 2648 825 
Q 2906 1169 2906 1791 
z
M 3481 434 
Q 3481 -459 3084 -895 
Q 2688 -1331 1869 -1331 
Q 1566 -1331 1297 -1286 
Q 1028 -1241 775 -1147 
L 775 -588 
Q 1028 -725 1275 -790 
Q 1522 -856 1778 -856 
Q 2344 -856 2625 -561 
Q 2906 -266 2906 331 
L 2906 616 
Q 2728 306 2450 153 
Q 2172 0 1784 0 
Q 1141 0 747 490 
Q 353 981 353 1791 
Q 353 2603 747 3093 
Q 1141 3584 1784 3584 
Q 2172 3584 2450 3431 
Q 2728 3278 2906 2969 
L 2906 3500 
L 3481 3500 
L 3481 434 
z
" transform="scale(0.015625)"/>
       <path id="DejaVuSans-5f" d="M 3263 -1063 
L 3263 -1509 
L -63 -1509 
L -63 -1063 
L 3263 -1063 
z
" transform="scale(0.015625)"/>
       <path id="DejaVuSans-62" d="M 3116 1747 
Q 3116 2381 2855 2742 
Q 2594 3103 2138 3103 
Q 1681 3103 1420 2742 
Q 1159 2381 1159 1747 
Q 1159 1113 1420 752 
Q 1681 391 2138 391 
Q 2594 391 2855 752 
Q 3116 1113 3116 1747 
z
M 1159 2969 
Q 1341 3281 1617 3432 
Q 1894 3584 2278 3584 
Q 2916 3584 3314 3078 
Q 3713 2572 3713 1747 
Q 3713 922 3314 415 
Q 2916 -91 2278 -91 
Q 1894 -91 1617 61 
Q 1341 213 1159 525 
L 1159 0 
L 581 0 
L 581 4863 
L 1159 4863 
L 1159 2969 
z
" transform="scale(0.015625)"/>
       <path id="DejaVuSans-6c" d="M 603 4863 
L 1178 4863 
L 1178 0 
L 603 0 
L 603 4863 
z
" transform="scale(0.015625)"/>
      </defs>
      <use xlink:href="#DejaVuSans-67"/>
      <use xlink:href="#DejaVuSans-65" x="63.476562"/>
      <use xlink:href="#DejaVuSans-74" x="125"/>
      <use xlink:href="#DejaVuSans-5f" x="164.208984"/>
      <use xlink:href="#DejaVuSans-69" x="214.208984"/>
      <use xlink:href="#DejaVuSans-6d" x="241.992188"/>
      <use xlink:href="#DejaVuSans-62" x="339.404297"/>
      <use xlink:href="#DejaVuSans-61" x="402.880859"/>
      <use xlink:href="#DejaVuSans-6c" x="464.160156"/>
      <use xlink:href="#DejaVuSans-61" x="491.943359"/>
      <use xlink:href="#DejaVuSans-6e" x="553.222656"/>
      <use xlink:href="#DejaVuSans-63" x="616.601562"/>
      <use xlink:href="#DejaVuSans-65" x="671.582031"/>
     </g>
    </g>
    <g id="patch_9">
     <path d="M 719.536625 53.432812 
L 739.536625 53.432812 
L 739.536625 46.432812 
L 719.536625 46.432812 
z
" style="fill: #ff7f0e; stroke: #ff7f0e; stroke-linejoin: miter"/>
    </g>
    <g id="text_15">
     <!-- init_weights -->
     <g transform="translate(747.536625 53.432812) scale(0.1 -0.1)">
      <defs>
       <path id="DejaVuSans-77" d="M 269 3500 
L 844 3500 
L 1563 769 
L 2278 3500 
L 2956 3500 
L 3675 769 
L 4391 3500 
L 4966 3500 
L 4050 0 
L 3372 0 
L 2619 2869 
L 1863 0 
L 1184 0 
L 269 3500 
z
" transform="scale(0.015625)"/>
       <path id="DejaVuSans-68" d="M 3513 2113 
L 3513 0 
L 2938 0 
L 2938 2094 
Q 2938 2591 2744 2837 
Q 2550 3084 2163 3084 
Q 1697 3084 1428 2787 
Q 1159 2491 1159 1978 
L 1159 0 
L 581 0 
L 581 4863 
L 1159 4863 
L 1159 2956 
Q 1366 3272 1645 3428 
Q 1925 3584 2291 3584 
Q 2894 3584 3203 3211 
Q 3513 2838 3513 2113 
z
" transform="scale(0.015625)"/>
      </defs>
      <use xlink:href="#DejaVuSans-69"/>
      <use xlink:href="#DejaVuSans-6e" x="27.783203"/>
      <use xlink:href="#DejaVuSans-69" x="91.162109"/>
      <use xlink:href="#DejaVuSans-74" x="118.945312"/>
      <use xlink:href="#DejaVuSans-5f" x="158.154297"/>
      <use xlink:href="#DejaVuSans-77" x="208.154297"/>
      <use xlink:href="#DejaVuSans-65" x="289.941406"/>
      <use xlink:href="#DejaVuSans-69" x="351.464844"/>
      <use xlink:href="#DejaVuSans-67" x="379.248047"/>
      <use xlink:href="#DejaVuSans-68" x="442.724609"/>
      <use xlink:href="#DejaVuSans-74" x="506.103516"/>
      <use xlink:href="#DejaVuSans-73" x="545.3125"/>
     </g>
    </g>
    <g id="patch_10">
     <path d="M 719.536625 68.389063 
L 739.536625 68.389063 
L 739.536625 61.389063 
L 719.536625 61.389063 
z
" style="fill: #2ca02c; stroke: #2ca02c; stroke-linejoin: miter"/>
    </g>
    <g id="text_16">
     <!-- laik_lb_balance -->
     <g transform="translate(747.536625 68.389063) scale(0.1 -0.1)">
      <use xlink:href="#DejaVuSans-6c"/>
      <use xlink:href="#DejaVuSans-61" x="27.783203"/>
      <use xlink:href="#DejaVuSans-69" x="89.0625"/>
      <use xlink:href="#DejaVuSans-6b" x="116.845703"/>
      <use xlink:href="#DejaVuSans-5f" x="174.755859"/>
      <use xlink:href="#DejaVuSans-6c" x="224.755859"/>
      <use xlink:href="#DejaVuSans-62" x="252.539062"/>
      <use xlink:href="#DejaVuSans-5f" x="316.015625"/>
      <use xlink:href="#DejaVuSans-62" x="366.015625"/>
      <use xlink:href="#DejaVuSans-61" x="429.492188"/>
      <use xlink:href="#DejaVuSans-6c" x="490.771484"/>
      <use xlink:href="#DejaVuSans-61" x="518.554688"/>
      <use xlink:href="#DejaVuSans-6e" x="579.833984"/>
      <use xlink:href="#DejaVuSans-63" x="643.212891"/>
      <use xlink:href="#DejaVuSans-65" x="698.193359"/>
     </g>
    </g>
    <g id="patch_11">
     <path d="M 719.536625 83.345313 
L 739.536625 83.345313 
L 739.536625 76.345313 
L 719.536625 76.345313 
z
" style="fill: #d62728; stroke: #d62728; stroke-linejoin: miter"/>
    </g>
    <g id="text_17">
     <!-- laik_lb_switch_and_free -->
     <g transform="translate(747.536625 83.345313) scale(0.1 -0.1)">
      <defs>
       <path id="DejaVuSans-64" d="M 2906 2969 
L 2906 4863 
L 3481 4863 
L 3481 0 
L 2906 0 
L 2906 525 
Q 2725 213 2448 61 
Q 2172 -91 1784 -91 
Q 1150 -91 751 415 
Q 353 922 353 1747 
Q 353 2572 751 3078 
Q 1150 3584 1784 3584 
Q 2172 3584 2448 3432 
Q 2725 3281 2906 2969 
z
M 947 1747 
Q 947 1113 1208 752 
Q 1469 391 1925 391 
Q 2381 391 2643 752 
Q 2906 1113 2906 1747 
Q 2906 2381 2643 2742 
Q 2381 3103 1925 3103 
Q 1469 3103 1208 2742 
Q 947 2381 947 1747 
z
" transform="scale(0.015625)"/>
       <path id="DejaVuSans-72" d="M 2631 2963 
Q 2534 3019 2420 3045 
Q 2306 3072 2169 3072 
Q 1681 3072 1420 2755 
Q 1159 2438 1159 1844 
L 1159 0 
L 581 0 
L 581 3500 
L 1159 3500 
L 1159 2956 
Q 1341 3275 1631 3429 
Q 1922 3584 2338 3584 
Q 2397 3584 2469 3576 
Q 2541 3569 2628 3553 
L 2631 2963 
z
" transform="scale(0.015625)"/>
      </defs>
      <use xlink:href="#DejaVuSans-6c"/>
      <use xlink:href="#DejaVuSans-61" x="27.783203"/>
      <use xlink:href="#DejaVuSans-69" x="89.0625"/>
      <use xlink:href="#DejaVuSans-6b" x="116.845703"/>
      <use xlink:href="#DejaVuSans-5f" x="174.755859"/>
      <use xlink:href="#DejaVuSans-6c" x="224.755859"/>
      <use xlink:href="#DejaVuSans-62" x="252.539062"/>
      <use xlink:href="#DejaVuSans-5f" x="316.015625"/>
      <use xlink:href="#DejaVuSans-73" x="366.015625"/>
      <use xlink:href="#DejaVuSans-77" x="418.115234"/>
      <use xlink:href="#DejaVuSans-69" x="499.902344"/>
      <use xlink:href="#DejaVuSans-74" x="527.685547"/>
      <use xlink:href="#DejaVuSans-63" x="566.894531"/>
      <use xlink:href="#DejaVuSans-68" x="621.875"/>
      <use xlink:href="#DejaVuSans-5f" x="685.253906"/>
      <use xlink:href="#DejaVuSans-61" x="735.253906"/>
      <use xlink:href="#DejaVuSans-6e" x="796.533203"/>
      <use xlink:href="#DejaVuSans-64" x="859.912109"/>
      <use xlink:href="#DejaVuSans-5f" x="923.388672"/>
      <use xlink:href="#DejaVuSans-66" x="973.388672"/>
      <use xlink:href="#DejaVuSans-72" x="1008.59375"/>
      <use xlink:href="#DejaVuSans-65" x="1047.457031"/>
      <use xlink:href="#DejaVuSans-65" x="1108.980469"/>
     </g>
    </g>
    <g id="patch_12">
     <path d="M 719.536625 98.301563 
L 739.536625 98.301563 
L 739.536625 91.301563 
L 719.536625 91.301563 
z
" style="fill: #9467bd; stroke: #9467bd; stroke-linejoin: miter"/>
    </g>
    <g id="text_18">
     <!-- main_2d -->
     <g transform="translate(747.536625 98.301563) scale(0.1 -0.1)">
      <use xlink:href="#DejaVuSans-6d"/>
      <use xlink:href="#DejaVuSans-61" x="97.412109"/>
      <use xlink:href="#DejaVuSans-69" x="158.691406"/>
      <use xlink:href="#DejaVuSans-6e" x="186.474609"/>
      <use xlink:href="#DejaVuSans-5f" x="249.853516"/>
      <use xlink:href="#DejaVuSans-32" x="299.853516"/>
      <use xlink:href="#DejaVuSans-64" x="363.476562"/>
     </g>
    </g>
    <g id="patch_13">
     <path d="M 719.536625 113.257812 
L 739.536625 113.257812 
L 739.536625 106.257812 
L 719.536625 106.257812 
z
" style="fill: #8c564b; stroke: #8c564b; stroke-linejoin: miter"/>
    </g>
    <g id="text_19">
     <!-- merge_rects_then_add_ranges -->
     <g transform="translate(747.536625 113.257812) scale(0.1 -0.1)">
      <use xlink:href="#DejaVuSans-6d"/>
      <use xlink:href="#DejaVuSans-65" x="97.412109"/>
      <use xlink:href="#DejaVuSans-72" x="158.935547"/>
      <use xlink:href="#DejaVuSans-67" x="198.298828"/>
      <use xlink:href="#DejaVuSans-65" x="261.775391"/>
      <use xlink:href="#DejaVuSans-5f" x="323.298828"/>
      <use xlink:href="#DejaVuSans-72" x="373.298828"/>
      <use xlink:href="#DejaVuSans-65" x="412.162109"/>
      <use xlink:href="#DejaVuSans-63" x="473.685547"/>
      <use xlink:href="#DejaVuSans-74" x="528.666016"/>
      <use xlink:href="#DejaVuSans-73" x="567.875"/>
      <use xlink:href="#DejaVuSans-5f" x="619.974609"/>
      <use xlink:href="#DejaVuSans-74" x="669.974609"/>
      <use xlink:href="#DejaVuSans-68" x="709.183594"/>
      <use xlink:href="#DejaVuSans-65" x="772.5625"/>
      <use xlink:href="#DejaVuSans-6e" x="834.085938"/>
      <use xlink:href="#DejaVuSans-5f" x="897.464844"/>
      <use xlink:href="#DejaVuSans-61" x="947.464844"/>
      <use xlink:href="#DejaVuSans-64" x="1008.744141"/>
      <use xlink:href="#DejaVuSans-64" x="1072.220703"/>
      <use xlink:href="#DejaVuSans-5f" x="1135.697266"/>
      <use xlink:href="#DejaVuSans-72" x="1185.697266"/>
      <use xlink:href="#DejaVuSans-61" x="1226.810547"/>
      <use xlink:href="#DejaVuSans-6e" x="1288.089844"/>
      <use xlink:href="#DejaVuSans-67" x="1351.46875"/>
      <use xlink:href="#DejaVuSans-65" x="1414.945312"/>
      <use xlink:href="#DejaVuSans-73" x="1476.46875"/>
     </g>
    </g>
    <g id="patch_14">
     <path d="M 719.536625 128.214063 
L 739.536625 128.214063 
L 739.536625 121.214063 
L 719.536625 121.214063 
z
" style="fill: #e377c2; stroke: #e377c2; stroke-linejoin: miter"/>
    </g>
    <g id="text_20">
     <!-- runSFCPartitioner -->
     <g transform="translate(747.536625 128.214063) scale(0.1 -0.1)">
      <defs>
       <path id="DejaVuSans-53" d="M 3425 4513 
L 3425 3897 
Q 3066 4069 2747 4153 
Q 2428 4238 2131 4238 
Q 1616 4238 1336 4038 
Q 1056 3838 1056 3469 
Q 1056 3159 1242 3001 
Q 1428 2844 1947 2747 
L 2328 2669 
Q 3034 2534 3370 2195 
Q 3706 1856 3706 1288 
Q 3706 609 3251 259 
Q 2797 -91 1919 -91 
Q 1588 -91 1214 -16 
Q 841 59 441 206 
L 441 856 
Q 825 641 1194 531 
Q 1563 422 1919 422 
Q 2459 422 2753 634 
Q 3047 847 3047 1241 
Q 3047 1584 2836 1778 
Q 2625 1972 2144 2069 
L 1759 2144 
Q 1053 2284 737 2584 
Q 422 2884 422 3419 
Q 422 4038 858 4394 
Q 1294 4750 2059 4750 
Q 2388 4750 2728 4690 
Q 3069 4631 3425 4513 
z
" transform="scale(0.015625)"/>
       <path id="DejaVuSans-43" d="M 4122 4306 
L 4122 3641 
Q 3803 3938 3442 4084 
Q 3081 4231 2675 4231 
Q 1875 4231 1450 3742 
Q 1025 3253 1025 2328 
Q 1025 1406 1450 917 
Q 1875 428 2675 428 
Q 3081 428 3442 575 
Q 3803 722 4122 1019 
L 4122 359 
Q 3791 134 3420 21 
Q 3050 -91 2638 -91 
Q 1578 -91 968 557 
Q 359 1206 359 2328 
Q 359 3453 968 4101 
Q 1578 4750 2638 4750 
Q 3056 4750 3426 4639 
Q 3797 4528 4122 4306 
z
" transform="scale(0.015625)"/>
       <path id="DejaVuSans-50" d="M 1259 4147 
L 1259 2394 
L 2053 2394 
Q 2494 2394 2734 2622 
Q 2975 2850 2975 3272 
Q 2975 3691 2734 3919 
Q 2494 4147 2053 4147 
L 1259 4147 
z
M 628 4666 
L 2053 4666 
Q 2838 4666 3239 4311 
Q 3641 3956 3641 3272 
Q 3641 2581 3239 2228 
Q 2838 1875 2053 1875 
L 1259 1875 
L 1259 0 
L 628 0 
L 628 4666 
z
" transform="scale(0.015625)"/>
      </defs>
      <use xlink:href="#DejaVuSans-72"/>
      <use xlink:href="#DejaVuSans-75" x="41.113281"/>
      <use xlink:href="#DejaVuSans-6e" x="104.492188"/>
      <use xlink:href="#DejaVuSans-53" x="167.871094"/>
      <use xlink:href="#DejaVuSans-46" x="231.347656"/>
      <use xlink:href="#DejaVuSans-43" x="288.867188"/>
      <use xlink:href="#DejaVuSans-50" x="358.691406"/>
      <use xlink:href="#DejaVuSans-61" x="414.494141"/>
      <use xlink:href="#DejaVuSans-72" x="475.773438"/>
      <use xlink:href="#DejaVuSans-74" x="516.886719"/>
      <use xlink:href="#DejaVuSans-69" x="556.095703"/>
      <use xlink:href="#DejaVuSans-74" x="583.878906"/>
      <use xlink:href="#DejaVuSans-69" x="623.087891"/>
      <use xlink:href="#DejaVuSans-6f" x="650.871094"/>
      <use xlink:href="#DejaVuSans-6e" x="712.052734"/>
      <use xlink:href="#DejaVuSans-65" x="775.431641"/>
      <use xlink:href="#DejaVuSans-72" x="836.955078"/>
     </g>
    </g>
    <g id="patch_15">
     <path d="M 719.536625 142.892188 
L 739.536625 142.892188 
L 739.536625 135.892188 
L 719.536625 135.892188 
z
" style="fill: #7f7f7f; stroke: #7f7f7f; stroke-linejoin: miter"/>
    </g>
    <g id="text_21">
     <!-- sfc_2d -->
     <g transform="translate(747.536625 142.892188) scale(0.1 -0.1)">
      <use xlink:href="#DejaVuSans-73"/>
      <use xlink:href="#DejaVuSans-66" x="52.099609"/>
      <use xlink:href="#DejaVuSans-63" x="87.304688"/>
      <use xlink:href="#DejaVuSans-5f" x="142.285156"/>
      <use xlink:href="#DejaVuSans-32" x="192.285156"/>
      <use xlink:href="#DejaVuSans-64" x="255.908203"/>
     </g>
    </g>
    <g id="patch_16">
     <path d="M 719.536625 157.848437 
L 739.536625 157.848437 
L 739.536625 150.848437 
L 719.536625 150.848437 
z
" style="fill: #bcbd22; stroke: #bcbd22; stroke-linejoin: miter"/>
    </g>
    <g id="text_22">
     <!-- switch -->
     <g transform="translate(747.536625 157.848437) scale(0.1 -0.1)">
      <use xlink:href="#DejaVuSans-73"/>
      <use xlink:href="#DejaVuSans-77" x="52.099609"/>
      <use xlink:href="#DejaVuSans-69" x="133.886719"/>
      <use xlink:href="#DejaVuSans-74" x="161.669922"/>
      <use xlink:href="#DejaVuSans-63" x="200.878906"/>
      <use xlink:href="#DejaVuSans-68" x="255.859375"/>
     </g>
    </g>
   </g>
   <g id="BrokenBarHCollection_1">
    <path d="M 34.240662 63.932308 
L 34.240662 87.193846 
L 703.840637 87.193846 
L 703.840637 63.932308 
L 34.240662 63.932308 
z
" clip-path="url(#p6a08e03f83)" style="fill: #9467bd"/>
   </g>
   <g id="BrokenBarHCollection_2">
    <path d="M 34.242554 38.086154 
L 34.242554 61.347692 
L 703.750732 61.347692 
L 703.750732 38.086154 
L 34.242554 38.086154 
z
" clip-path="url(#p6a08e03f83)" style="fill: #9467bd"/>
   </g>
   <g id="BrokenBarHCollection_3">
    <path d="M 34.244873 89.778462 
L 34.244873 113.04 
L 703.770386 113.04 
L 703.770386 89.778462 
L 34.244873 89.778462 
z
" clip-path="url(#p6a08e03f83)" style="fill: #9467bd"/>
   </g>
   <g id="BrokenBarHCollection_4">
    <path d="M 34.247437 12.24 
L 34.247437 35.501538 
L 702.669678 35.501538 
L 702.669678 12.24 
L 34.247437 12.24 
z
" clip-path="url(#p6a08e03f83)" style="fill: #9467bd"/>
   </g>
   <g id="BrokenBarHCollection_5">
    <path d="M 34.248718 63.932308 
L 34.248718 87.193846 
L 44.401733 87.193846 
L 44.401733 63.932308 
L 34.248718 63.932308 
z
" clip-path="url(#p6a08e03f83)" style="fill: #bcbd22"/>
   </g>
   <g id="BrokenBarHCollection_6">
    <path d="M 34.248718 38.086154 
L 34.248718 61.347692 
L 43.056213 61.347692 
L 43.056213 38.086154 
L 34.248718 38.086154 
z
" clip-path="url(#p6a08e03f83)" style="fill: #bcbd22"/>
   </g>
   <g id="BrokenBarHCollection_7">
    <path d="M 34.25061 89.778462 
L 34.25061 113.04 
L 44.404541 113.04 
L 44.404541 89.778462 
L 34.25061 89.778462 
z
" clip-path="url(#p6a08e03f83)" style="fill: #bcbd22"/>
   </g>
   <g id="BrokenBarHCollection_8">
    <path d="M 34.255249 12.24 
L 34.255249 35.501538 
L 41.801636 35.501538 
L 41.801636 12.24 
L 34.255249 12.24 
z
" clip-path="url(#p6a08e03f83)" style="fill: #bcbd22"/>
   </g>
   <g id="BrokenBarHCollection_9">
    <path d="M 50.740967 12.24 
L 50.740967 35.501538 
L 83.820496 35.501538 
L 83.820496 12.24 
L 50.740967 12.24 
z
" clip-path="url(#p6a08e03f83)" style="fill: #bcbd22"/>
   </g>
   <g id="BrokenBarHCollection_10">
    <path d="M 61.105408 38.086154 
L 61.105408 61.347692 
L 84.887024 61.347692 
L 84.887024 38.086154 
L 61.105408 38.086154 
z
" clip-path="url(#p6a08e03f83)" style="fill: #bcbd22"/>
   </g>
   <g id="BrokenBarHCollection_11">
    <path d="M 71.152222 63.932308 
L 71.152222 87.193846 
L 85.954102 87.193846 
L 85.954102 63.932308 
L 71.152222 63.932308 
z
" clip-path="url(#p6a08e03f83)" style="fill: #bcbd22"/>
   </g>
   <g id="BrokenBarHCollection_12">
    <path d="M 79.490234 89.778462 
L 79.490234 113.04 
L 85.955933 113.04 
L 85.955933 89.778462 
L 79.490234 89.778462 
z
" clip-path="url(#p6a08e03f83)" style="fill: #bcbd22"/>
   </g>
   <g id="BrokenBarHCollection_13">
    <path d="M 92.599304 12.24 
L 92.599304 35.501538 
L 125.338562 35.501538 
L 125.338562 12.24 
L 92.599304 12.24 
z
" clip-path="url(#p6a08e03f83)" style="fill: #bcbd22"/>
   </g>
   <g id="BrokenBarHCollection_14">
    <path d="M 102.427734 38.086154 
L 102.427734 61.347692 
L 126.408447 61.347692 
L 126.408447 38.086154 
L 102.427734 38.086154 
z
" clip-path="url(#p6a08e03f83)" style="fill: #bcbd22"/>
   </g>
   <g id="BrokenBarHCollection_15">
    <path d="M 112.287903 63.932308 
L 112.287903 87.193846 
L 127.478027 87.193846 
L 127.478027 63.932308 
L 112.287903 63.932308 
z
" clip-path="url(#p6a08e03f83)" style="fill: #bcbd22"/>
   </g>
   <g id="BrokenBarHCollection_16">
    <path d="M 121.050354 89.778462 
L 121.050354 113.04 
L 127.47821 113.04 
L 127.47821 89.778462 
L 121.050354 89.778462 
z
" clip-path="url(#p6a08e03f83)" style="fill: #bcbd22"/>
   </g>
   <g id="BrokenBarHCollection_17">
    <path d="M 134.113098 12.24 
L 134.113098 35.501538 
L 177.271423 35.501538 
L 177.271423 12.24 
L 134.113098 12.24 
z
" clip-path="url(#p6a08e03f83)" style="fill: #2ca02c"/>
   </g>
   <g id="BrokenBarHCollection_18">
    <path d="M 134.113464 12.24 
L 134.113464 35.501538 
L 162.581116 35.501538 
L 162.581116 12.24 
L 134.113464 12.24 
z
" clip-path="url(#p6a08e03f83)" style="fill: #1f77b4"/>
   </g>
   <g id="BrokenBarHCollection_19">
    <path d="M 143.963562 38.086154 
L 143.963562 61.347692 
L 177.188904 61.347692 
L 177.188904 38.086154 
L 143.963562 38.086154 
z
" clip-path="url(#p6a08e03f83)" style="fill: #2ca02c"/>
   </g>
   <g id="BrokenBarHCollection_20">
    <path d="M 143.963745 38.086154 
L 143.963745 61.347692 
L 162.580872 61.347692 
L 162.580872 38.086154 
L 143.963745 38.086154 
z
" clip-path="url(#p6a08e03f83)" style="fill: #1f77b4"/>
   </g>
   <g id="BrokenBarHCollection_21">
    <path d="M 153.800659 63.932308 
L 153.800659 87.193846 
L 177.172607 87.193846 
L 177.172607 63.932308 
L 153.800659 63.932308 
z
" clip-path="url(#p6a08e03f83)" style="fill: #2ca02c"/>
   </g>
   <g id="BrokenBarHCollection_22">
    <path d="M 153.800903 63.932308 
L 153.800903 87.193846 
L 162.580017 87.193846 
L 162.580017 63.932308 
L 153.800903 63.932308 
z
" clip-path="url(#p6a08e03f83)" style="fill: #1f77b4"/>
   </g>
   <g id="BrokenBarHCollection_23">
    <path d="M 162.554871 89.778462 
L 162.554871 113.04 
L 177.182312 113.04 
L 177.182312 89.778462 
L 162.554871 89.778462 
z
" clip-path="url(#p6a08e03f83)" style="fill: #2ca02c"/>
   </g>
   <g id="BrokenBarHCollection_24">
    <path d="M 162.555054 89.778462 
L 162.555054 113.04 
L 162.580688 113.04 
L 162.580688 89.778462 
L 162.555054 89.778462 
z
" clip-path="url(#p6a08e03f83)" style="fill: #1f77b4"/>
   </g>
   <g id="BrokenBarHCollection_25">
    <path d="M 162.580017 63.932308 
L 162.580017 87.193846 
L 163.301819 87.193846 
L 163.301819 63.932308 
L 162.580017 63.932308 
z
" clip-path="url(#p6a08e03f83)" style="fill: #ff7f0e"/>
   </g>
   <g id="BrokenBarHCollection_26">
    <path d="M 162.580688 89.778462 
L 162.580688 113.04 
L 163.30072 113.04 
L 163.30072 89.778462 
L 162.580688 89.778462 
z
" clip-path="url(#p6a08e03f83)" style="fill: #ff7f0e"/>
   </g>
   <g id="BrokenBarHCollection_27">
    <path d="M 162.580872 38.086154 
L 162.580872 61.347692 
L 163.306458 61.347692 
L 163.306458 38.086154 
L 162.580872 38.086154 
z
" clip-path="url(#p6a08e03f83)" style="fill: #ff7f0e"/>
   </g>
   <g id="BrokenBarHCollection_28">
    <path d="M 162.581116 12.24 
L 162.581116 35.501538 
L 163.307068 35.501538 
L 163.307068 12.24 
L 162.581116 12.24 
z
" clip-path="url(#p6a08e03f83)" style="fill: #ff7f0e"/>
   </g>
   <g id="BrokenBarHCollection_29">
    <path d="M 163.300964 89.778462 
L 163.300964 113.04 
L 177.179993 113.04 
L 177.179993 89.778462 
L 163.300964 89.778462 
z
" clip-path="url(#p6a08e03f83)" style="fill: #e377c2"/>
   </g>
   <g id="BrokenBarHCollection_30">
    <path d="M 163.301147 89.778462 
L 163.301147 113.04 
L 177.179993 113.04 
L 177.179993 89.778462 
L 163.301147 89.778462 
z
" clip-path="url(#p6a08e03f83)" style="fill: #7f7f7f"/>
   </g>
   <g id="BrokenBarHCollection_31">
    <path d="M 163.302002 63.932308 
L 163.302002 87.193846 
L 177.170288 87.193846 
L 177.170288 63.932308 
L 163.302002 63.932308 
z
" clip-path="url(#p6a08e03f83)" style="fill: #7f7f7f"/>
   </g>
   <g id="BrokenBarHCollection_32">
    <path d="M 163.302002 63.932308 
L 163.302002 87.193846 
L 177.170288 87.193846 
L 177.170288 63.932308 
L 163.302002 63.932308 
z
" clip-path="url(#p6a08e03f83)" style="fill: #e377c2"/>
   </g>
   <g id="BrokenBarHCollection_33">
    <path d="M 163.306641 38.086154 
L 163.306641 61.347692 
L 177.186768 61.347692 
L 177.186768 38.086154 
L 163.306641 38.086154 
z
" clip-path="url(#p6a08e03f83)" style="fill: #7f7f7f"/>
   </g>
   <g id="BrokenBarHCollection_34">
    <path d="M 163.306641 38.086154 
L 163.306641 61.347692 
L 177.186768 61.347692 
L 177.186768 38.086154 
L 163.306641 38.086154 
z
" clip-path="url(#p6a08e03f83)" style="fill: #e377c2"/>
   </g>
   <g id="BrokenBarHCollection_35">
    <path d="M 163.307312 12.24 
L 163.307312 35.501538 
L 177.269104 35.501538 
L 177.269104 12.24 
L 163.307312 12.24 
z
" clip-path="url(#p6a08e03f83)" style="fill: #7f7f7f"/>
   </g>
   <g id="BrokenBarHCollection_36">
    <path d="M 163.307312 12.24 
L 163.307312 35.501538 
L 177.269104 35.501538 
L 177.269104 12.24 
L 163.307312 12.24 
z
" clip-path="url(#p6a08e03f83)" style="fill: #e377c2"/>
   </g>
   <g id="BrokenBarHCollection_37">
    <path d="M 173.809875 63.932308 
L 173.809875 87.193846 
L 177.170044 87.193846 
L 177.170044 63.932308 
L 173.809875 63.932308 
z
" clip-path="url(#p6a08e03f83)" style="fill: #8c564b"/>
   </g>
   <g id="BrokenBarHCollection_38">
    <path d="M 173.816467 89.778462 
L 173.816467 113.04 
L 177.179993 113.04 
L 177.179993 89.778462 
L 173.816467 89.778462 
z
" clip-path="url(#p6a08e03f83)" style="fill: #8c564b"/>
   </g>
   <g id="BrokenBarHCollection_39">
    <path d="M 173.822388 38.086154 
L 173.822388 61.347692 
L 177.186768 61.347692 
L 177.186768 38.086154 
L 173.822388 38.086154 
z
" clip-path="url(#p6a08e03f83)" style="fill: #8c564b"/>
   </g>
   <g id="BrokenBarHCollection_40">
    <path d="M 173.901978 12.24 
L 173.901978 35.501538 
L 177.269104 35.501538 
L 177.269104 12.24 
L 173.901978 12.24 
z
" clip-path="url(#p6a08e03f83)" style="fill: #8c564b"/>
   </g>
   <g id="BrokenBarHCollection_41">
    <path d="M 177.174316 63.932308 
L 177.174316 87.193846 
L 181.619934 87.193846 
L 181.619934 63.932308 
L 177.174316 63.932308 
z
" clip-path="url(#p6a08e03f83)" style="fill: #d62728"/>
   </g>
   <g id="BrokenBarHCollection_42">
    <path d="M 177.184021 89.778462 
L 177.184021 113.04 
L 181.656555 113.04 
L 181.656555 89.778462 
L 177.184021 89.778462 
z
" clip-path="url(#p6a08e03f83)" style="fill: #d62728"/>
   </g>
   <g id="BrokenBarHCollection_43">
    <path d="M 177.190613 38.086154 
L 177.190613 61.347692 
L 180.55542 61.347692 
L 180.55542 38.086154 
L 177.190613 38.086154 
z
" clip-path="url(#p6a08e03f83)" style="fill: #d62728"/>
   </g>
   <g id="BrokenBarHCollection_44">
    <path d="M 177.273132 12.24 
L 177.273132 35.501538 
L 179.48175 35.501538 
L 179.48175 12.24 
L 177.273132 12.24 
z
" clip-path="url(#p6a08e03f83)" style="fill: #d62728"/>
   </g>
   <g id="BrokenBarHCollection_45">
    <path d="M 179.48175 12.24 
L 179.48175 35.501538 
L 179.482605 35.501538 
L 179.482605 12.24 
L 179.48175 12.24 
z
" clip-path="url(#p6a08e03f83)" style="fill: #d62728"/>
   </g>
   <g id="BrokenBarHCollection_46">
    <path d="M 179.482605 12.24 
L 179.482605 35.501538 
L 186.987549 35.501538 
L 186.987549 12.24 
L 179.482605 12.24 
z
" clip-path="url(#p6a08e03f83)" style="fill: #bcbd22"/>
   </g>
   <g id="BrokenBarHCollection_47">
    <path d="M 180.555603 38.086154 
L 180.555603 61.347692 
L 180.556885 61.347692 
L 180.556885 38.086154 
L 180.555603 38.086154 
z
" clip-path="url(#p6a08e03f83)" style="fill: #d62728"/>
   </g>
   <g id="BrokenBarHCollection_48">
    <path d="M 180.556885 38.086154 
L 180.556885 61.347692 
L 188.055481 61.347692 
L 188.055481 38.086154 
L 180.556885 38.086154 
z
" clip-path="url(#p6a08e03f83)" style="fill: #bcbd22"/>
   </g>
   <g id="BrokenBarHCollection_49">
    <path d="M 181.620117 63.932308 
L 181.620117 87.193846 
L 181.621216 87.193846 
L 181.621216 63.932308 
L 181.620117 63.932308 
z
" clip-path="url(#p6a08e03f83)" style="fill: #d62728"/>
   </g>
   <g id="BrokenBarHCollection_50">
    <path d="M 181.621216 63.932308 
L 181.621216 87.193846 
L 189.125061 87.193846 
L 189.125061 63.932308 
L 181.621216 63.932308 
z
" clip-path="url(#p6a08e03f83)" style="fill: #bcbd22"/>
   </g>
   <g id="BrokenBarHCollection_51">
    <path d="M 181.656738 89.778462 
L 181.656738 113.04 
L 181.673279 113.04 
L 181.673279 89.778462 
L 181.656738 89.778462 
z
" clip-path="url(#p6a08e03f83)" style="fill: #d62728"/>
   </g>
   <g id="BrokenBarHCollection_52">
    <path d="M 181.673279 89.778462 
L 181.673279 113.04 
L 189.126526 113.04 
L 189.126526 89.778462 
L 181.673279 89.778462 
z
" clip-path="url(#p6a08e03f83)" style="fill: #bcbd22"/>
   </g>
   <g id="BrokenBarHCollection_53">
    <path d="M 201.345459 38.086154 
L 201.345459 61.347692 
L 223.771301 61.347692 
L 223.771301 38.086154 
L 201.345459 38.086154 
z
" clip-path="url(#p6a08e03f83)" style="fill: #bcbd22"/>
   </g>
   <g id="BrokenBarHCollection_54">
    <path d="M 202.22522 12.24 
L 202.22522 35.501538 
L 222.70105 35.501538 
L 222.70105 12.24 
L 202.22522 12.24 
z
" clip-path="url(#p6a08e03f83)" style="fill: #bcbd22"/>
   </g>
   <g id="BrokenBarHCollection_55">
    <path d="M 206.844604 63.932308 
L 206.844604 87.193846 
L 224.841553 87.193846 
L 224.841553 63.932308 
L 206.844604 63.932308 
z
" clip-path="url(#p6a08e03f83)" style="fill: #bcbd22"/>
   </g>
   <g id="BrokenBarHCollection_56">
    <path d="M 218.406921 89.778462 
L 218.406921 113.04 
L 224.841553 113.04 
L 224.841553 89.778462 
L 218.406921 89.778462 
z
" clip-path="url(#p6a08e03f83)" style="fill: #bcbd22"/>
   </g>
   <g id="BrokenBarHCollection_57">
    <path d="M 237.055359 38.086154 
L 237.055359 61.347692 
L 259.484192 61.347692 
L 259.484192 38.086154 
L 237.055359 38.086154 
z
" clip-path="url(#p6a08e03f83)" style="fill: #bcbd22"/>
   </g>
   <g id="BrokenBarHCollection_58">
    <path d="M 237.932007 12.24 
L 237.932007 35.501538 
L 258.414307 35.501538 
L 258.414307 12.24 
L 237.932007 12.24 
z
" clip-path="url(#p6a08e03f83)" style="fill: #bcbd22"/>
   </g>
   <g id="BrokenBarHCollection_59">
    <path d="M 242.55304 63.932308 
L 242.55304 87.193846 
L 260.554871 87.193846 
L 260.554871 63.932308 
L 242.55304 63.932308 
z
" clip-path="url(#p6a08e03f83)" style="fill: #bcbd22"/>
   </g>
   <g id="BrokenBarHCollection_60">
    <path d="M 254.121887 89.778462 
L 254.121887 113.04 
L 260.555908 113.04 
L 260.555908 89.778462 
L 254.121887 89.778462 
z
" clip-path="url(#p6a08e03f83)" style="fill: #bcbd22"/>
   </g>
   <g id="BrokenBarHCollection_61">
    <path d="M 272.763367 38.086154 
L 272.763367 61.347692 
L 304.180603 61.347692 
L 304.180603 38.086154 
L 272.763367 38.086154 
z
" clip-path="url(#p6a08e03f83)" style="fill: #2ca02c"/>
   </g>
   <g id="BrokenBarHCollection_62">
    <path d="M 272.763367 38.086154 
L 272.763367 61.347692 
L 289.824829 61.347692 
L 289.824829 38.086154 
L 272.763367 38.086154 
z
" clip-path="url(#p6a08e03f83)" style="fill: #1f77b4"/>
   </g>
   <g id="BrokenBarHCollection_63">
    <path d="M 273.646606 12.24 
L 273.646606 35.501538 
L 304.033142 35.501538 
L 304.033142 12.24 
L 273.646606 12.24 
z
" clip-path="url(#p6a08e03f83)" style="fill: #2ca02c"/>
   </g>
   <g id="BrokenBarHCollection_64">
    <path d="M 273.646606 12.24 
L 273.646606 35.501538 
L 289.827148 35.501538 
L 289.827148 12.24 
L 273.646606 12.24 
z
" clip-path="url(#p6a08e03f83)" style="fill: #1f77b4"/>
   </g>
   <g id="BrokenBarHCollection_65">
    <path d="M 278.295959 63.932308 
L 278.295959 87.193846 
L 304.060608 87.193846 
L 304.060608 63.932308 
L 278.295959 63.932308 
z
" clip-path="url(#p6a08e03f83)" style="fill: #2ca02c"/>
   </g>
   <g id="BrokenBarHCollection_66">
    <path d="M 278.296143 63.932308 
L 278.296143 87.193846 
L 289.825012 87.193846 
L 289.825012 63.932308 
L 278.296143 63.932308 
z
" clip-path="url(#p6a08e03f83)" style="fill: #1f77b4"/>
   </g>
   <g id="BrokenBarHCollection_67">
    <path d="M 289.821228 89.778462 
L 289.821228 113.04 
L 304.207458 113.04 
L 304.207458 89.778462 
L 289.821228 89.778462 
z
" clip-path="url(#p6a08e03f83)" style="fill: #2ca02c"/>
   </g>
   <g id="BrokenBarHCollection_68">
    <path d="M 289.821472 89.778462 
L 289.821472 113.04 
L 289.824829 113.04 
L 289.824829 89.778462 
L 289.821472 89.778462 
z
" clip-path="url(#p6a08e03f83)" style="fill: #1f77b4"/>
   </g>
   <g id="BrokenBarHCollection_69">
    <path d="M 289.824829 89.778462 
L 289.824829 113.04 
L 290.436096 113.04 
L 290.436096 89.778462 
L 289.824829 89.778462 
z
" clip-path="url(#p6a08e03f83)" style="fill: #ff7f0e"/>
   </g>
   <g id="BrokenBarHCollection_70">
    <path d="M 289.824829 38.086154 
L 289.824829 61.347692 
L 290.40863 61.347692 
L 290.40863 38.086154 
L 289.824829 38.086154 
z
" clip-path="url(#p6a08e03f83)" style="fill: #ff7f0e"/>
   </g>
   <g id="BrokenBarHCollection_71">
    <path d="M 289.825256 63.932308 
L 289.825256 87.193846 
L 290.436096 87.193846 
L 290.436096 63.932308 
L 289.825256 63.932308 
z
" clip-path="url(#p6a08e03f83)" style="fill: #ff7f0e"/>
   </g>
   <g id="BrokenBarHCollection_72">
    <path d="M 289.827148 12.24 
L 289.827148 35.501538 
L 290.40863 35.501538 
L 290.40863 12.24 
L 289.827148 12.24 
z
" clip-path="url(#p6a08e03f83)" style="fill: #ff7f0e"/>
   </g>
   <g id="BrokenBarHCollection_73">
    <path d="M 290.408813 38.086154 
L 290.408813 61.347692 
L 304.178101 61.347692 
L 304.178101 38.086154 
L 290.408813 38.086154 
z
" clip-path="url(#p6a08e03f83)" style="fill: #e377c2"/>
   </g>
   <g id="BrokenBarHCollection_74">
    <path d="M 290.408813 12.24 
L 290.408813 35.501538 
L 304.029968 35.501538 
L 304.029968 12.24 
L 290.408813 12.24 
z
" clip-path="url(#p6a08e03f83)" style="fill: #e377c2"/>
   </g>
   <g id="BrokenBarHCollection_75">
    <path d="M 290.409058 38.086154 
L 290.409058 61.347692 
L 304.178101 61.347692 
L 304.178101 38.086154 
L 290.409058 38.086154 
z
" clip-path="url(#p6a08e03f83)" style="fill: #7f7f7f"/>
   </g>
   <g id="BrokenBarHCollection_76">
    <path d="M 290.409058 12.24 
L 290.409058 35.501538 
L 304.029968 35.501538 
L 304.029968 12.24 
L 290.409058 12.24 
z
" clip-path="url(#p6a08e03f83)" style="fill: #7f7f7f"/>
   </g>
   <g id="BrokenBarHCollection_77">
    <path d="M 290.436584 89.778462 
L 290.436584 113.04 
L 304.204773 113.04 
L 304.204773 89.778462 
L 290.436584 89.778462 
z
" clip-path="url(#p6a08e03f83)" style="fill: #7f7f7f"/>
   </g>
   <g id="BrokenBarHCollection_78">
    <path d="M 290.436584 89.778462 
L 290.436584 113.04 
L 304.204773 113.04 
L 304.204773 89.778462 
L 290.436584 89.778462 
z
" clip-path="url(#p6a08e03f83)" style="fill: #e377c2"/>
   </g>
   <g id="BrokenBarHCollection_79">
    <path d="M 290.436584 63.932308 
L 290.436584 87.193846 
L 304.057922 87.193846 
L 304.057922 63.932308 
L 290.436584 63.932308 
z
" clip-path="url(#p6a08e03f83)" style="fill: #7f7f7f"/>
   </g>
   <g id="BrokenBarHCollection_80">
    <path d="M 290.436584 63.932308 
L 290.436584 87.193846 
L 304.057922 87.193846 
L 304.057922 63.932308 
L 290.436584 63.932308 
z
" clip-path="url(#p6a08e03f83)" style="fill: #e377c2"/>
   </g>
   <g id="BrokenBarHCollection_81">
    <path d="M 300.762695 12.24 
L 300.762695 35.501538 
L 304.029968 35.501538 
L 304.029968 12.24 
L 300.762695 12.24 
z
" clip-path="url(#p6a08e03f83)" style="fill: #8c564b"/>
   </g>
   <g id="BrokenBarHCollection_82">
    <path d="M 300.784912 63.932308 
L 300.784912 87.193846 
L 304.057922 87.193846 
L 304.057922 63.932308 
L 300.784912 63.932308 
z
" clip-path="url(#p6a08e03f83)" style="fill: #8c564b"/>
   </g>
   <g id="BrokenBarHCollection_83">
    <path d="M 300.903809 38.086154 
L 300.903809 61.347692 
L 304.178101 61.347692 
L 304.178101 38.086154 
L 300.903809 38.086154 
z
" clip-path="url(#p6a08e03f83)" style="fill: #8c564b"/>
   </g>
   <g id="BrokenBarHCollection_84">
    <path d="M 300.928589 89.778462 
L 300.928589 113.04 
L 304.204773 113.04 
L 304.204773 89.778462 
L 300.928589 89.778462 
z
" clip-path="url(#p6a08e03f83)" style="fill: #8c564b"/>
   </g>
   <g id="BrokenBarHCollection_85">
    <path d="M 304.034851 12.24 
L 304.034851 35.501538 
L 306.39032 35.501538 
L 306.39032 12.24 
L 304.034851 12.24 
z
" clip-path="url(#p6a08e03f83)" style="fill: #d62728"/>
   </g>
   <g id="BrokenBarHCollection_86">
    <path d="M 304.062317 63.932308 
L 304.062317 87.193846 
L 306.359863 87.193846 
L 306.359863 63.932308 
L 304.062317 63.932308 
z
" clip-path="url(#p6a08e03f83)" style="fill: #d62728"/>
   </g>
   <g id="BrokenBarHCollection_87">
    <path d="M 304.182495 38.086154 
L 304.182495 61.347692 
L 306.396667 61.347692 
L 306.396667 38.086154 
L 304.182495 38.086154 
z
" clip-path="url(#p6a08e03f83)" style="fill: #d62728"/>
   </g>
   <g id="BrokenBarHCollection_88">
    <path d="M 304.209229 89.778462 
L 304.209229 113.04 
L 306.248535 113.04 
L 306.248535 89.778462 
L 304.209229 89.778462 
z
" clip-path="url(#p6a08e03f83)" style="fill: #d62728"/>
   </g>
   <g id="BrokenBarHCollection_89">
    <path d="M 306.248779 89.778462 
L 306.248779 113.04 
L 306.249573 113.04 
L 306.249573 89.778462 
L 306.248779 89.778462 
z
" clip-path="url(#p6a08e03f83)" style="fill: #d62728"/>
   </g>
   <g id="BrokenBarHCollection_90">
    <path d="M 306.249817 89.778462 
L 306.249817 113.04 
L 314.96106 113.04 
L 314.96106 89.778462 
L 306.249817 89.778462 
z
" clip-path="url(#p6a08e03f83)" style="fill: #bcbd22"/>
   </g>
   <g id="BrokenBarHCollection_91">
    <path d="M 306.359863 63.932308 
L 306.359863 87.193846 
L 306.361328 87.193846 
L 306.361328 63.932308 
L 306.359863 63.932308 
z
" clip-path="url(#p6a08e03f83)" style="fill: #d62728"/>
   </g>
   <g id="BrokenBarHCollection_92">
    <path d="M 306.361328 63.932308 
L 306.361328 87.193846 
L 314.966187 87.193846 
L 314.966187 63.932308 
L 306.361328 63.932308 
z
" clip-path="url(#p6a08e03f83)" style="fill: #bcbd22"/>
   </g>
   <g id="BrokenBarHCollection_93">
    <path d="M 306.390564 12.24 
L 306.390564 35.501538 
L 306.391785 35.501538 
L 306.391785 12.24 
L 306.390564 12.24 
z
" clip-path="url(#p6a08e03f83)" style="fill: #d62728"/>
   </g>
   <g id="BrokenBarHCollection_94">
    <path d="M 306.392029 12.24 
L 306.392029 35.501538 
L 313.899048 35.501538 
L 313.899048 12.24 
L 306.392029 12.24 
z
" clip-path="url(#p6a08e03f83)" style="fill: #bcbd22"/>
   </g>
   <g id="BrokenBarHCollection_95">
    <path d="M 306.396667 38.086154 
L 306.396667 61.347692 
L 306.398376 61.347692 
L 306.398376 38.086154 
L 306.396667 38.086154 
z
" clip-path="url(#p6a08e03f83)" style="fill: #d62728"/>
   </g>
   <g id="BrokenBarHCollection_96">
    <path d="M 306.398376 38.086154 
L 306.398376 61.347692 
L 314.967224 61.347692 
L 314.967224 38.086154 
L 306.398376 38.086154 
z
" clip-path="url(#p6a08e03f83)" style="fill: #bcbd22"/>
   </g>
   <g id="BrokenBarHCollection_97">
    <path d="M 330.715881 38.086154 
L 330.715881 61.347692 
L 339.56488 61.347692 
L 339.56488 38.086154 
L 330.715881 38.086154 
z
" clip-path="url(#p6a08e03f83)" style="fill: #bcbd22"/>
   </g>
   <g id="BrokenBarHCollection_98">
    <path d="M 330.918396 12.24 
L 330.918396 35.501538 
L 338.493774 35.501538 
L 338.493774 12.24 
L 330.918396 12.24 
z
" clip-path="url(#p6a08e03f83)" style="fill: #bcbd22"/>
   </g>
   <g id="BrokenBarHCollection_99">
    <path d="M 331.285095 63.932308 
L 331.285095 87.193846 
L 339.56427 87.193846 
L 339.56427 63.932308 
L 331.285095 63.932308 
z
" clip-path="url(#p6a08e03f83)" style="fill: #bcbd22"/>
   </g>
   <g id="BrokenBarHCollection_100">
    <path d="M 333.99762 89.778462 
L 333.99762 113.04 
L 339.56134 113.04 
L 339.56134 89.778462 
L 333.99762 89.778462 
z
" clip-path="url(#p6a08e03f83)" style="fill: #bcbd22"/>
   </g>
   <g id="BrokenBarHCollection_101">
    <path d="M 355.305176 38.086154 
L 355.305176 61.347692 
L 364.072876 61.347692 
L 364.072876 38.086154 
L 355.305176 38.086154 
z
" clip-path="url(#p6a08e03f83)" style="fill: #bcbd22"/>
   </g>
   <g id="BrokenBarHCollection_102">
    <path d="M 355.497498 12.24 
L 355.497498 35.501538 
L 363.00177 35.501538 
L 363.00177 12.24 
L 355.497498 12.24 
z
" clip-path="url(#p6a08e03f83)" style="fill: #bcbd22"/>
   </g>
   <g id="BrokenBarHCollection_103">
    <path d="M 355.892761 63.932308 
L 355.892761 87.193846 
L 364.071167 87.193846 
L 364.071167 63.932308 
L 355.892761 63.932308 
z
" clip-path="url(#p6a08e03f83)" style="fill: #bcbd22"/>
   </g>
   <g id="BrokenBarHCollection_104">
    <path d="M 358.599487 89.778462 
L 358.599487 113.04 
L 364.070557 113.04 
L 364.070557 89.778462 
L 358.599487 89.778462 
z
" clip-path="url(#p6a08e03f83)" style="fill: #bcbd22"/>
   </g>
   <g id="BrokenBarHCollection_105">
    <path d="M 379.800415 38.086154 
L 379.800415 61.347692 
L 397.291687 61.347692 
L 397.291687 38.086154 
L 379.800415 38.086154 
z
" clip-path="url(#p6a08e03f83)" style="fill: #2ca02c"/>
   </g>
   <g id="BrokenBarHCollection_106">
    <path d="M 379.800659 38.086154 
L 379.800659 61.347692 
L 383.105774 61.347692 
L 383.105774 38.086154 
L 379.800659 38.086154 
z
" clip-path="url(#p6a08e03f83)" style="fill: #1f77b4"/>
   </g>
   <g id="BrokenBarHCollection_107">
    <path d="M 380.028564 12.24 
L 380.028564 35.501538 
L 397.198364 35.501538 
L 397.198364 12.24 
L 380.028564 12.24 
z
" clip-path="url(#p6a08e03f83)" style="fill: #2ca02c"/>
   </g>
   <g id="BrokenBarHCollection_108">
    <path d="M 380.028748 12.24 
L 380.028748 35.501538 
L 383.108765 35.501538 
L 383.108765 12.24 
L 380.028748 12.24 
z
" clip-path="url(#p6a08e03f83)" style="fill: #1f77b4"/>
   </g>
   <g id="BrokenBarHCollection_109">
    <path d="M 380.40686 63.932308 
L 380.40686 87.193846 
L 397.206238 87.193846 
L 397.206238 63.932308 
L 380.40686 63.932308 
z
" clip-path="url(#p6a08e03f83)" style="fill: #2ca02c"/>
   </g>
   <g id="BrokenBarHCollection_110">
    <path d="M 380.40686 63.932308 
L 380.40686 87.193846 
L 383.106018 87.193846 
L 383.106018 63.932308 
L 380.40686 63.932308 
z
" clip-path="url(#p6a08e03f83)" style="fill: #1f77b4"/>
   </g>
   <g id="BrokenBarHCollection_111">
    <path d="M 383.102417 89.778462 
L 383.102417 113.04 
L 397.34436 113.04 
L 397.34436 89.778462 
L 383.102417 89.778462 
z
" clip-path="url(#p6a08e03f83)" style="fill: #2ca02c"/>
   </g>
   <g id="BrokenBarHCollection_112">
    <path d="M 383.102417 89.778462 
L 383.102417 113.04 
L 383.105591 113.04 
L 383.105591 89.778462 
L 383.102417 89.778462 
z
" clip-path="url(#p6a08e03f83)" style="fill: #1f77b4"/>
   </g>
   <g id="BrokenBarHCollection_113">
    <path d="M 383.105774 89.778462 
L 383.105774 113.04 
L 383.681335 113.04 
L 383.681335 89.778462 
L 383.105774 89.778462 
z
" clip-path="url(#p6a08e03f83)" style="fill: #ff7f0e"/>
   </g>
   <g id="BrokenBarHCollection_114">
    <path d="M 383.105774 38.086154 
L 383.105774 61.347692 
L 383.677795 61.347692 
L 383.677795 38.086154 
L 383.105774 38.086154 
z
" clip-path="url(#p6a08e03f83)" style="fill: #ff7f0e"/>
   </g>
   <g id="BrokenBarHCollection_115">
    <path d="M 383.106018 63.932308 
L 383.106018 87.193846 
L 383.681335 87.193846 
L 383.681335 63.932308 
L 383.106018 63.932308 
z
" clip-path="url(#p6a08e03f83)" style="fill: #ff7f0e"/>
   </g>
   <g id="BrokenBarHCollection_116">
    <path d="M 383.108765 12.24 
L 383.108765 35.501538 
L 383.677795 35.501538 
L 383.677795 12.24 
L 383.108765 12.24 
z
" clip-path="url(#p6a08e03f83)" style="fill: #ff7f0e"/>
   </g>
   <g id="BrokenBarHCollection_117">
    <path d="M 383.678162 38.086154 
L 383.678162 61.347692 
L 397.288879 61.347692 
L 397.288879 38.086154 
L 383.678162 38.086154 
z
" clip-path="url(#p6a08e03f83)" style="fill: #e377c2"/>
   </g>
   <g id="BrokenBarHCollection_118">
    <path d="M 383.678162 38.086154 
L 383.678162 61.347692 
L 397.288696 61.347692 
L 397.288696 38.086154 
L 383.678162 38.086154 
z
" clip-path="url(#p6a08e03f83)" style="fill: #7f7f7f"/>
   </g>
   <g id="BrokenBarHCollection_119">
    <path d="M 383.678162 12.24 
L 383.678162 35.501538 
L 397.195435 35.501538 
L 397.195435 12.24 
L 383.678162 12.24 
z
" clip-path="url(#p6a08e03f83)" style="fill: #7f7f7f"/>
   </g>
   <g id="BrokenBarHCollection_120">
    <path d="M 383.678162 12.24 
L 383.678162 35.501538 
L 397.195435 35.501538 
L 397.195435 12.24 
L 383.678162 12.24 
z
" clip-path="url(#p6a08e03f83)" style="fill: #e377c2"/>
   </g>
   <g id="BrokenBarHCollection_121">
    <path d="M 383.68158 89.778462 
L 383.68158 113.04 
L 397.341614 113.04 
L 397.341614 89.778462 
L 383.68158 89.778462 
z
" clip-path="url(#p6a08e03f83)" style="fill: #7f7f7f"/>
   </g>
   <g id="BrokenBarHCollection_122">
    <path d="M 383.68158 89.778462 
L 383.68158 113.04 
L 397.341614 113.04 
L 397.341614 89.778462 
L 383.68158 89.778462 
z
" clip-path="url(#p6a08e03f83)" style="fill: #e377c2"/>
   </g>
   <g id="BrokenBarHCollection_123">
    <path d="M 383.68158 63.932308 
L 383.68158 87.193846 
L 397.203247 87.193846 
L 397.203247 63.932308 
L 383.68158 63.932308 
z
" clip-path="url(#p6a08e03f83)" style="fill: #e377c2"/>
   </g>
   <g id="BrokenBarHCollection_124">
    <path d="M 383.681763 63.932308 
L 383.681763 87.193846 
L 397.203247 87.193846 
L 397.203247 63.932308 
L 383.681763 63.932308 
z
" clip-path="url(#p6a08e03f83)" style="fill: #7f7f7f"/>
   </g>
   <g id="BrokenBarHCollection_125">
    <path d="M 394.031189 12.24 
L 394.031189 35.501538 
L 397.195435 35.501538 
L 397.195435 12.24 
L 394.031189 12.24 
z
" clip-path="url(#p6a08e03f83)" style="fill: #8c564b"/>
   </g>
   <g id="BrokenBarHCollection_126">
    <path d="M 394.051941 63.932308 
L 394.051941 87.193846 
L 397.203247 87.193846 
L 397.203247 63.932308 
L 394.051941 63.932308 
z
" clip-path="url(#p6a08e03f83)" style="fill: #8c564b"/>
   </g>
   <g id="BrokenBarHCollection_127">
    <path d="M 394.119202 38.086154 
L 394.119202 61.347692 
L 397.288696 61.347692 
L 397.288696 38.086154 
L 394.119202 38.086154 
z
" clip-path="url(#p6a08e03f83)" style="fill: #8c564b"/>
   </g>
   <g id="BrokenBarHCollection_128">
    <path d="M 394.171875 89.778462 
L 394.171875 113.04 
L 397.341614 113.04 
L 397.341614 89.778462 
L 394.171875 89.778462 
z
" clip-path="url(#p6a08e03f83)" style="fill: #8c564b"/>
   </g>
   <g id="BrokenBarHCollection_129">
    <path d="M 397.200256 12.24 
L 397.200256 35.501538 
L 399.443604 35.501538 
L 399.443604 12.24 
L 397.200256 12.24 
z
" clip-path="url(#p6a08e03f83)" style="fill: #d62728"/>
   </g>
   <g id="BrokenBarHCollection_130">
    <path d="M 397.208069 63.932308 
L 397.208069 87.193846 
L 399.446411 87.193846 
L 399.446411 63.932308 
L 397.208069 63.932308 
z
" clip-path="url(#p6a08e03f83)" style="fill: #d62728"/>
   </g>
   <g id="BrokenBarHCollection_131">
    <path d="M 397.293579 38.086154 
L 397.293579 61.347692 
L 399.453125 61.347692 
L 399.453125 38.086154 
L 397.293579 38.086154 
z
" clip-path="url(#p6a08e03f83)" style="fill: #d62728"/>
   </g>
   <g id="BrokenBarHCollection_132">
    <path d="M 397.346436 89.778462 
L 397.346436 113.04 
L 399.368103 113.04 
L 399.368103 89.778462 
L 397.346436 89.778462 
z
" clip-path="url(#p6a08e03f83)" style="fill: #d62728"/>
   </g>
   <g id="BrokenBarHCollection_133">
    <path d="M 399.368286 89.778462 
L 399.368286 113.04 
L 399.369568 113.04 
L 399.369568 89.778462 
L 399.368286 89.778462 
z
" clip-path="url(#p6a08e03f83)" style="fill: #d62728"/>
   </g>
   <g id="BrokenBarHCollection_134">
    <path d="M 399.369751 89.778462 
L 399.369751 113.04 
L 408.016418 113.04 
L 408.016418 89.778462 
L 399.369751 89.778462 
z
" clip-path="url(#p6a08e03f83)" style="fill: #bcbd22"/>
   </g>
   <g id="BrokenBarHCollection_135">
    <path d="M 399.443787 12.24 
L 399.443787 35.501538 
L 399.445068 35.501538 
L 399.445068 12.24 
L 399.443787 12.24 
z
" clip-path="url(#p6a08e03f83)" style="fill: #d62728"/>
   </g>
   <g id="BrokenBarHCollection_136">
    <path d="M 399.445312 12.24 
L 399.445312 35.501538 
L 406.94751 35.501538 
L 406.94751 12.24 
L 399.445312 12.24 
z
" clip-path="url(#p6a08e03f83)" style="fill: #bcbd22"/>
   </g>
   <g id="BrokenBarHCollection_137">
    <path d="M 399.446594 63.932308 
L 399.446594 87.193846 
L 399.448486 87.193846 
L 399.448486 63.932308 
L 399.446594 63.932308 
z
" clip-path="url(#p6a08e03f83)" style="fill: #d62728"/>
   </g>
   <g id="BrokenBarHCollection_138">
    <path d="M 399.448486 63.932308 
L 399.448486 87.193846 
L 408.021118 87.193846 
L 408.021118 63.932308 
L 399.448486 63.932308 
z
" clip-path="url(#p6a08e03f83)" style="fill: #bcbd22"/>
   </g>
   <g id="BrokenBarHCollection_139">
    <path d="M 399.453369 38.086154 
L 399.453369 61.347692 
L 399.455078 61.347692 
L 399.455078 38.086154 
L 399.453369 38.086154 
z
" clip-path="url(#p6a08e03f83)" style="fill: #d62728"/>
   </g>
   <g id="BrokenBarHCollection_140">
    <path d="M 399.455078 38.086154 
L 399.455078 61.347692 
L 408.021973 61.347692 
L 408.021973 38.086154 
L 399.455078 38.086154 
z
" clip-path="url(#p6a08e03f83)" style="fill: #bcbd22"/>
   </g>
   <g id="BrokenBarHCollection_141">
    <path d="M 423.983337 12.24 
L 423.983337 35.501538 
L 431.46814 35.501538 
L 431.46814 12.24 
L 423.983337 12.24 
z
" clip-path="url(#p6a08e03f83)" style="fill: #bcbd22"/>
   </g>
   <g id="BrokenBarHCollection_142">
    <path d="M 424.522095 63.932308 
L 424.522095 87.193846 
L 432.539673 87.193846 
L 432.539673 63.932308 
L 424.522095 63.932308 
z
" clip-path="url(#p6a08e03f83)" style="fill: #bcbd22"/>
   </g>
   <g id="BrokenBarHCollection_143">
    <path d="M 424.622131 38.086154 
L 424.622131 61.347692 
L 432.54071 61.347692 
L 432.54071 38.086154 
L 424.622131 38.086154 
z
" clip-path="url(#p6a08e03f83)" style="fill: #bcbd22"/>
   </g>
   <g id="BrokenBarHCollection_144">
    <path d="M 425.113098 89.778462 
L 425.113098 113.04 
L 432.535706 113.04 
L 432.535706 89.778462 
L 425.113098 89.778462 
z
" clip-path="url(#p6a08e03f83)" style="fill: #bcbd22"/>
   </g>
   <g id="BrokenBarHCollection_145">
    <path d="M 448.51947 12.24 
L 448.51947 35.501538 
L 456.022705 35.501538 
L 456.022705 12.24 
L 448.51947 12.24 
z
" clip-path="url(#p6a08e03f83)" style="fill: #bcbd22"/>
   </g>
   <g id="BrokenBarHCollection_146">
    <path d="M 449.086975 63.932308 
L 449.086975 87.193846 
L 457.094421 87.193846 
L 457.094421 63.932308 
L 449.086975 63.932308 
z
" clip-path="url(#p6a08e03f83)" style="fill: #bcbd22"/>
   </g>
   <g id="BrokenBarHCollection_147">
    <path d="M 449.131409 38.086154 
L 449.131409 61.347692 
L 457.085144 61.347692 
L 457.085144 38.086154 
L 449.131409 38.086154 
z
" clip-path="url(#p6a08e03f83)" style="fill: #bcbd22"/>
   </g>
   <g id="BrokenBarHCollection_148">
    <path d="M 449.607971 89.778462 
L 449.607971 113.04 
L 457.091919 113.04 
L 457.091919 89.778462 
L 449.607971 89.778462 
z
" clip-path="url(#p6a08e03f83)" style="fill: #bcbd22"/>
   </g>
   <g id="BrokenBarHCollection_149">
    <path d="M 473.159912 12.24 
L 473.159912 35.501538 
L 488.312378 35.501538 
L 488.312378 12.24 
L 473.159912 12.24 
z
" clip-path="url(#p6a08e03f83)" style="fill: #2ca02c"/>
   </g>
   <g id="BrokenBarHCollection_150">
    <path d="M 473.160339 12.24 
L 473.160339 35.501538 
L 474.23291 35.501538 
L 474.23291 12.24 
L 473.160339 12.24 
z
" clip-path="url(#p6a08e03f83)" style="fill: #1f77b4"/>
   </g>
   <g id="BrokenBarHCollection_151">
    <path d="M 473.642578 63.932308 
L 473.642578 87.193846 
L 488.297791 87.193846 
L 488.297791 63.932308 
L 473.642578 63.932308 
z
" clip-path="url(#p6a08e03f83)" style="fill: #2ca02c"/>
   </g>
   <g id="BrokenBarHCollection_152">
    <path d="M 473.642761 63.932308 
L 473.642761 87.193846 
L 474.228699 87.193846 
L 474.228699 63.932308 
L 473.642761 63.932308 
z
" clip-path="url(#p6a08e03f83)" style="fill: #1f77b4"/>
   </g>
   <g id="BrokenBarHCollection_153">
    <path d="M 473.716614 38.086154 
L 473.716614 61.347692 
L 488.52948 61.347692 
L 488.52948 38.086154 
L 473.716614 38.086154 
z
" clip-path="url(#p6a08e03f83)" style="fill: #2ca02c"/>
   </g>
   <g id="BrokenBarHCollection_154">
    <path d="M 473.716858 38.086154 
L 473.716858 61.347692 
L 474.229126 61.347692 
L 474.229126 38.086154 
L 473.716858 38.086154 
z
" clip-path="url(#p6a08e03f83)" style="fill: #1f77b4"/>
   </g>
   <g id="BrokenBarHCollection_155">
    <path d="M 474.22406 89.778462 
L 474.22406 113.04 
L 488.413696 113.04 
L 488.413696 89.778462 
L 474.22406 89.778462 
z
" clip-path="url(#p6a08e03f83)" style="fill: #2ca02c"/>
   </g>
   <g id="BrokenBarHCollection_156">
    <path d="M 474.224243 89.778462 
L 474.224243 113.04 
L 474.228699 113.04 
L 474.228699 89.778462 
L 474.224243 89.778462 
z
" clip-path="url(#p6a08e03f83)" style="fill: #1f77b4"/>
   </g>
   <g id="BrokenBarHCollection_157">
    <path d="M 474.228699 63.932308 
L 474.228699 87.193846 
L 474.772278 87.193846 
L 474.772278 63.932308 
L 474.228699 63.932308 
z
" clip-path="url(#p6a08e03f83)" style="fill: #ff7f0e"/>
   </g>
   <g id="BrokenBarHCollection_158">
    <path d="M 474.228699 89.778462 
L 474.228699 113.04 
L 474.772278 113.04 
L 474.772278 89.778462 
L 474.228699 89.778462 
z
" clip-path="url(#p6a08e03f83)" style="fill: #ff7f0e"/>
   </g>
   <g id="BrokenBarHCollection_159">
    <path d="M 474.229126 38.086154 
L 474.229126 61.347692 
L 474.807861 61.347692 
L 474.807861 38.086154 
L 474.229126 38.086154 
z
" clip-path="url(#p6a08e03f83)" style="fill: #ff7f0e"/>
   </g>
   <g id="BrokenBarHCollection_160">
    <path d="M 474.233093 12.24 
L 474.233093 35.501538 
L 474.807861 35.501538 
L 474.807861 12.24 
L 474.233093 12.24 
z
" clip-path="url(#p6a08e03f83)" style="fill: #ff7f0e"/>
   </g>
   <g id="BrokenBarHCollection_161">
    <path d="M 474.772705 89.778462 
L 474.772705 113.04 
L 488.410522 113.04 
L 488.410522 89.778462 
L 474.772705 89.778462 
z
" clip-path="url(#p6a08e03f83)" style="fill: #7f7f7f"/>
   </g>
   <g id="BrokenBarHCollection_162">
    <path d="M 474.772705 89.778462 
L 474.772705 113.04 
L 488.410522 113.04 
L 488.410522 89.778462 
L 474.772705 89.778462 
z
" clip-path="url(#p6a08e03f83)" style="fill: #e377c2"/>
   </g>
   <g id="BrokenBarHCollection_163">
    <path d="M 474.772705 63.932308 
L 474.772705 87.193846 
L 488.294128 87.193846 
L 488.294128 63.932308 
L 474.772705 63.932308 
z
" clip-path="url(#p6a08e03f83)" style="fill: #7f7f7f"/>
   </g>
   <g id="BrokenBarHCollection_164">
    <path d="M 474.772705 63.932308 
L 474.772705 87.193846 
L 488.294128 87.193846 
L 488.294128 63.932308 
L 474.772705 63.932308 
z
" clip-path="url(#p6a08e03f83)" style="fill: #e377c2"/>
   </g>
   <g id="BrokenBarHCollection_165">
    <path d="M 474.808044 12.24 
L 474.808044 35.501538 
L 488.309387 35.501538 
L 488.309387 12.24 
L 474.808044 12.24 
z
" clip-path="url(#p6a08e03f83)" style="fill: #7f7f7f"/>
   </g>
   <g id="BrokenBarHCollection_166">
    <path d="M 474.808044 12.24 
L 474.808044 35.501538 
L 488.309387 35.501538 
L 488.309387 12.24 
L 474.808044 12.24 
z
" clip-path="url(#p6a08e03f83)" style="fill: #e377c2"/>
   </g>
   <g id="BrokenBarHCollection_167">
    <path d="M 474.808289 38.086154 
L 474.808289 61.347692 
L 488.52655 61.347692 
L 488.52655 38.086154 
L 474.808289 38.086154 
z
" clip-path="url(#p6a08e03f83)" style="fill: #e377c2"/>
   </g>
   <g id="BrokenBarHCollection_168">
    <path d="M 474.808289 38.086154 
L 474.808289 61.347692 
L 488.526245 61.347692 
L 488.526245 38.086154 
L 474.808289 38.086154 
z
" clip-path="url(#p6a08e03f83)" style="fill: #7f7f7f"/>
   </g>
   <g id="BrokenBarHCollection_169">
    <path d="M 485.226624 63.932308 
L 485.226624 87.193846 
L 488.294128 87.193846 
L 488.294128 63.932308 
L 485.226624 63.932308 
z
" clip-path="url(#p6a08e03f83)" style="fill: #8c564b"/>
   </g>
   <g id="BrokenBarHCollection_170">
    <path d="M 485.244812 12.24 
L 485.244812 35.501538 
L 488.309387 35.501538 
L 488.309387 12.24 
L 485.244812 12.24 
z
" clip-path="url(#p6a08e03f83)" style="fill: #8c564b"/>
   </g>
   <g id="BrokenBarHCollection_171">
    <path d="M 485.346008 89.778462 
L 485.346008 113.04 
L 488.410339 113.04 
L 488.410339 89.778462 
L 485.346008 89.778462 
z
" clip-path="url(#p6a08e03f83)" style="fill: #8c564b"/>
   </g>
   <g id="BrokenBarHCollection_172">
    <path d="M 485.449646 38.086154 
L 485.449646 61.347692 
L 488.526245 61.347692 
L 488.526245 38.086154 
L 485.449646 38.086154 
z
" clip-path="url(#p6a08e03f83)" style="fill: #8c564b"/>
   </g>
   <g id="BrokenBarHCollection_173">
    <path d="M 488.299927 63.932308 
L 488.299927 87.193846 
L 490.68457 87.193846 
L 490.68457 63.932308 
L 488.299927 63.932308 
z
" clip-path="url(#p6a08e03f83)" style="fill: #d62728"/>
   </g>
   <g id="BrokenBarHCollection_174">
    <path d="M 488.31427 12.24 
L 488.31427 35.501538 
L 489.614746 35.501538 
L 489.614746 12.24 
L 488.31427 12.24 
z
" clip-path="url(#p6a08e03f83)" style="fill: #d62728"/>
   </g>
   <g id="BrokenBarHCollection_175">
    <path d="M 488.415649 89.778462 
L 488.415649 113.04 
L 490.451599 113.04 
L 490.451599 89.778462 
L 488.415649 89.778462 
z
" clip-path="url(#p6a08e03f83)" style="fill: #d62728"/>
   </g>
   <g id="BrokenBarHCollection_176">
    <path d="M 488.531372 38.086154 
L 488.531372 61.347692 
L 490.693054 61.347692 
L 490.693054 38.086154 
L 488.531372 38.086154 
z
" clip-path="url(#p6a08e03f83)" style="fill: #d62728"/>
   </g>
   <g id="BrokenBarHCollection_177">
    <path d="M 489.614746 12.24 
L 489.614746 35.501538 
L 489.615784 35.501538 
L 489.615784 12.24 
L 489.614746 12.24 
z
" clip-path="url(#p6a08e03f83)" style="fill: #d62728"/>
   </g>
   <g id="BrokenBarHCollection_178">
    <path d="M 489.616028 12.24 
L 489.616028 35.501538 
L 497.112488 35.501538 
L 497.112488 12.24 
L 489.616028 12.24 
z
" clip-path="url(#p6a08e03f83)" style="fill: #bcbd22"/>
   </g>
   <g id="BrokenBarHCollection_179">
    <path d="M 490.451599 89.778462 
L 490.451599 113.04 
L 490.452881 113.04 
L 490.452881 89.778462 
L 490.451599 89.778462 
z
" clip-path="url(#p6a08e03f83)" style="fill: #d62728"/>
   </g>
   <g id="BrokenBarHCollection_180">
    <path d="M 490.453125 89.778462 
L 490.453125 113.04 
L 498.181885 113.04 
L 498.181885 89.778462 
L 490.453125 89.778462 
z
" clip-path="url(#p6a08e03f83)" style="fill: #bcbd22"/>
   </g>
   <g id="BrokenBarHCollection_181">
    <path d="M 490.684814 63.932308 
L 490.684814 87.193846 
L 490.686096 87.193846 
L 490.686096 63.932308 
L 490.684814 63.932308 
z
" clip-path="url(#p6a08e03f83)" style="fill: #d62728"/>
   </g>
   <g id="BrokenBarHCollection_182">
    <path d="M 490.686096 63.932308 
L 490.686096 87.193846 
L 498.183167 87.193846 
L 498.183167 63.932308 
L 490.686096 63.932308 
z
" clip-path="url(#p6a08e03f83)" style="fill: #bcbd22"/>
   </g>
   <g id="BrokenBarHCollection_183">
    <path d="M 490.693237 38.086154 
L 490.693237 61.347692 
L 490.694763 61.347692 
L 490.694763 38.086154 
L 490.693237 38.086154 
z
" clip-path="url(#p6a08e03f83)" style="fill: #d62728"/>
   </g>
   <g id="BrokenBarHCollection_184">
    <path d="M 490.694946 38.086154 
L 490.694946 61.347692 
L 498.186523 61.347692 
L 498.186523 38.086154 
L 490.694946 38.086154 
z
" clip-path="url(#p6a08e03f83)" style="fill: #bcbd22"/>
   </g>
   <g id="BrokenBarHCollection_185">
    <path d="M 513.899719 12.24 
L 513.899719 35.501538 
L 521.397644 35.501538 
L 521.397644 12.24 
L 513.899719 12.24 
z
" clip-path="url(#p6a08e03f83)" style="fill: #bcbd22"/>
   </g>
   <g id="BrokenBarHCollection_186">
    <path d="M 514.950684 63.932308 
L 514.950684 87.193846 
L 522.468323 87.193846 
L 522.468323 63.932308 
L 514.950684 63.932308 
z
" clip-path="url(#p6a08e03f83)" style="fill: #bcbd22"/>
   </g>
   <g id="BrokenBarHCollection_187">
    <path d="M 514.991577 89.778462 
L 514.991577 113.04 
L 522.464539 113.04 
L 522.464539 89.778462 
L 514.991577 89.778462 
z
" clip-path="url(#p6a08e03f83)" style="fill: #bcbd22"/>
   </g>
   <g id="BrokenBarHCollection_188">
    <path d="M 515.230408 38.086154 
L 515.230408 61.347692 
L 522.469421 61.347692 
L 522.469421 38.086154 
L 515.230408 38.086154 
z
" clip-path="url(#p6a08e03f83)" style="fill: #bcbd22"/>
   </g>
   <g id="BrokenBarHCollection_189">
    <path d="M 538.18811 12.24 
L 538.18811 35.501538 
L 545.694702 35.501538 
L 545.694702 12.24 
L 538.18811 12.24 
z
" clip-path="url(#p6a08e03f83)" style="fill: #bcbd22"/>
   </g>
   <g id="BrokenBarHCollection_190">
    <path d="M 539.223389 63.932308 
L 539.223389 87.193846 
L 546.764709 87.193846 
L 546.764709 63.932308 
L 539.223389 63.932308 
z
" clip-path="url(#p6a08e03f83)" style="fill: #bcbd22"/>
   </g>
   <g id="BrokenBarHCollection_191">
    <path d="M 539.273987 89.778462 
L 539.273987 113.04 
L 546.76239 113.04 
L 546.76239 89.778462 
L 539.273987 89.778462 
z
" clip-path="url(#p6a08e03f83)" style="fill: #bcbd22"/>
   </g>
   <g id="BrokenBarHCollection_192">
    <path d="M 539.524902 38.086154 
L 539.524902 61.347692 
L 546.765564 61.347692 
L 546.765564 38.086154 
L 539.524902 38.086154 
z
" clip-path="url(#p6a08e03f83)" style="fill: #bcbd22"/>
   </g>
   <g id="BrokenBarHCollection_193">
    <path d="M 562.484009 12.24 
L 562.484009 35.501538 
L 577.628235 35.501538 
L 577.628235 12.24 
L 562.484009 12.24 
z
" clip-path="url(#p6a08e03f83)" style="fill: #2ca02c"/>
   </g>
   <g id="BrokenBarHCollection_194">
    <path d="M 562.484009 12.24 
L 562.484009 35.501538 
L 563.841003 35.501538 
L 563.841003 12.24 
L 562.484009 12.24 
z
" clip-path="url(#p6a08e03f83)" style="fill: #1f77b4"/>
   </g>
   <g id="BrokenBarHCollection_195">
    <path d="M 563.520447 63.932308 
L 563.520447 87.193846 
L 577.607056 87.193846 
L 577.607056 63.932308 
L 563.520447 63.932308 
z
" clip-path="url(#p6a08e03f83)" style="fill: #2ca02c"/>
   </g>
   <g id="BrokenBarHCollection_196">
    <path d="M 563.52063 63.932308 
L 563.52063 87.193846 
L 563.838867 87.193846 
L 563.838867 63.932308 
L 563.52063 63.932308 
z
" clip-path="url(#p6a08e03f83)" style="fill: #1f77b4"/>
   </g>
   <g id="BrokenBarHCollection_197">
    <path d="M 563.583069 89.778462 
L 563.583069 113.04 
L 577.82605 113.04 
L 577.82605 89.778462 
L 563.583069 89.778462 
z
" clip-path="url(#p6a08e03f83)" style="fill: #2ca02c"/>
   </g>
   <g id="BrokenBarHCollection_198">
    <path d="M 563.583252 89.778462 
L 563.583252 113.04 
L 563.838867 113.04 
L 563.838867 89.778462 
L 563.583252 89.778462 
z
" clip-path="url(#p6a08e03f83)" style="fill: #1f77b4"/>
   </g>
   <g id="BrokenBarHCollection_199">
    <path d="M 563.835693 38.086154 
L 563.835693 61.347692 
L 577.726807 61.347692 
L 577.726807 38.086154 
L 563.835693 38.086154 
z
" clip-path="url(#p6a08e03f83)" style="fill: #2ca02c"/>
   </g>
   <g id="BrokenBarHCollection_200">
    <path d="M 563.835876 38.086154 
L 563.835876 61.347692 
L 563.838867 61.347692 
L 563.838867 38.086154 
L 563.835876 38.086154 
z
" clip-path="url(#p6a08e03f83)" style="fill: #1f77b4"/>
   </g>
   <g id="BrokenBarHCollection_201">
    <path d="M 563.838867 63.932308 
L 563.838867 87.193846 
L 564.368286 87.193846 
L 564.368286 63.932308 
L 563.838867 63.932308 
z
" clip-path="url(#p6a08e03f83)" style="fill: #ff7f0e"/>
   </g>
   <g id="BrokenBarHCollection_202">
    <path d="M 563.838867 38.086154 
L 563.838867 61.347692 
L 564.368103 61.347692 
L 564.368103 38.086154 
L 563.838867 38.086154 
z
" clip-path="url(#p6a08e03f83)" style="fill: #ff7f0e"/>
   </g>
   <g id="BrokenBarHCollection_203">
    <path d="M 563.839111 89.778462 
L 563.839111 113.04 
L 564.368469 113.04 
L 564.368469 89.778462 
L 563.839111 89.778462 
z
" clip-path="url(#p6a08e03f83)" style="fill: #ff7f0e"/>
   </g>
   <g id="BrokenBarHCollection_204">
    <path d="M 563.841003 12.24 
L 563.841003 35.501538 
L 564.368103 35.501538 
L 564.368103 12.24 
L 563.841003 12.24 
z
" clip-path="url(#p6a08e03f83)" style="fill: #ff7f0e"/>
   </g>
   <g id="BrokenBarHCollection_205">
    <path d="M 564.368469 38.086154 
L 564.368469 61.347692 
L 577.724121 61.347692 
L 577.724121 38.086154 
L 564.368469 38.086154 
z
" clip-path="url(#p6a08e03f83)" style="fill: #7f7f7f"/>
   </g>
   <g id="BrokenBarHCollection_206">
    <path d="M 564.368469 38.086154 
L 564.368469 61.347692 
L 577.724121 61.347692 
L 577.724121 38.086154 
L 564.368469 38.086154 
z
" clip-path="url(#p6a08e03f83)" style="fill: #e377c2"/>
   </g>
   <g id="BrokenBarHCollection_207">
    <path d="M 564.368469 12.24 
L 564.368469 35.501538 
L 577.625488 35.501538 
L 577.625488 12.24 
L 564.368469 12.24 
z
" clip-path="url(#p6a08e03f83)" style="fill: #7f7f7f"/>
   </g>
   <g id="BrokenBarHCollection_208">
    <path d="M 564.368469 12.24 
L 564.368469 35.501538 
L 577.625488 35.501538 
L 577.625488 12.24 
L 564.368469 12.24 
z
" clip-path="url(#p6a08e03f83)" style="fill: #e377c2"/>
   </g>
   <g id="BrokenBarHCollection_209">
    <path d="M 564.368713 89.778462 
L 564.368713 113.04 
L 577.823364 113.04 
L 577.823364 89.778462 
L 564.368713 89.778462 
z
" clip-path="url(#p6a08e03f83)" style="fill: #7f7f7f"/>
   </g>
   <g id="BrokenBarHCollection_210">
    <path d="M 564.368713 89.778462 
L 564.368713 113.04 
L 577.823364 113.04 
L 577.823364 89.778462 
L 564.368713 89.778462 
z
" clip-path="url(#p6a08e03f83)" style="fill: #e377c2"/>
   </g>
   <g id="BrokenBarHCollection_211">
    <path d="M 564.368713 63.932308 
L 564.368713 87.193846 
L 577.604065 87.193846 
L 577.604065 63.932308 
L 564.368713 63.932308 
z
" clip-path="url(#p6a08e03f83)" style="fill: #7f7f7f"/>
   </g>
   <g id="BrokenBarHCollection_212">
    <path d="M 564.368713 63.932308 
L 564.368713 87.193846 
L 577.604065 87.193846 
L 577.604065 63.932308 
L 564.368713 63.932308 
z
" clip-path="url(#p6a08e03f83)" style="fill: #e377c2"/>
   </g>
   <g id="BrokenBarHCollection_213">
    <path d="M 574.700745 63.932308 
L 574.700745 87.193846 
L 577.603882 87.193846 
L 577.603882 63.932308 
L 574.700745 63.932308 
z
" clip-path="url(#p6a08e03f83)" style="fill: #8c564b"/>
   </g>
   <g id="BrokenBarHCollection_214">
    <path d="M 574.71875 12.24 
L 574.71875 35.501538 
L 577.625488 35.501538 
L 577.625488 12.24 
L 574.71875 12.24 
z
" clip-path="url(#p6a08e03f83)" style="fill: #8c564b"/>
   </g>
   <g id="BrokenBarHCollection_215">
    <path d="M 574.812317 38.086154 
L 574.812317 61.347692 
L 577.724121 61.347692 
L 577.724121 38.086154 
L 574.812317 38.086154 
z
" clip-path="url(#p6a08e03f83)" style="fill: #8c564b"/>
   </g>
   <g id="BrokenBarHCollection_216">
    <path d="M 574.910706 89.778462 
L 574.910706 113.04 
L 577.823364 113.04 
L 577.823364 89.778462 
L 574.910706 89.778462 
z
" clip-path="url(#p6a08e03f83)" style="fill: #8c564b"/>
   </g>
   <g id="BrokenBarHCollection_217">
    <path d="M 577.608765 63.932308 
L 577.608765 87.193846 
L 579.87854 87.193846 
L 579.87854 63.932308 
L 577.608765 63.932308 
z
" clip-path="url(#p6a08e03f83)" style="fill: #d62728"/>
   </g>
   <g id="BrokenBarHCollection_218">
    <path d="M 577.629944 12.24 
L 577.629944 35.501538 
L 579.880493 35.501538 
L 579.880493 12.24 
L 577.629944 12.24 
z
" clip-path="url(#p6a08e03f83)" style="fill: #d62728"/>
   </g>
   <g id="BrokenBarHCollection_219">
    <path d="M 577.72876 38.086154 
L 577.72876 61.347692 
L 579.883667 61.347692 
L 579.883667 38.086154 
L 577.72876 38.086154 
z
" clip-path="url(#p6a08e03f83)" style="fill: #d62728"/>
   </g>
   <g id="BrokenBarHCollection_220">
    <path d="M 577.828003 89.778462 
L 577.828003 113.04 
L 579.877686 113.04 
L 579.877686 89.778462 
L 577.828003 89.778462 
z
" clip-path="url(#p6a08e03f83)" style="fill: #d62728"/>
   </g>
   <g id="BrokenBarHCollection_221">
    <path d="M 579.87793 89.778462 
L 579.87793 113.04 
L 579.879211 113.04 
L 579.879211 89.778462 
L 579.87793 89.778462 
z
" clip-path="url(#p6a08e03f83)" style="fill: #d62728"/>
   </g>
   <g id="BrokenBarHCollection_222">
    <path d="M 579.87854 63.932308 
L 579.87854 87.193846 
L 579.879822 87.193846 
L 579.879822 63.932308 
L 579.87854 63.932308 
z
" clip-path="url(#p6a08e03f83)" style="fill: #d62728"/>
   </g>
   <g id="BrokenBarHCollection_223">
    <path d="M 579.879211 89.778462 
L 579.879211 113.04 
L 588.456665 113.04 
L 588.456665 89.778462 
L 579.879211 89.778462 
z
" clip-path="url(#p6a08e03f83)" style="fill: #bcbd22"/>
   </g>
   <g id="BrokenBarHCollection_224">
    <path d="M 579.879822 63.932308 
L 579.879822 87.193846 
L 588.458435 87.193846 
L 588.458435 63.932308 
L 579.879822 63.932308 
z
" clip-path="url(#p6a08e03f83)" style="fill: #bcbd22"/>
   </g>
   <g id="BrokenBarHCollection_225">
    <path d="M 579.880676 12.24 
L 579.880676 35.501538 
L 579.881714 35.501538 
L 579.881714 12.24 
L 579.880676 12.24 
z
" clip-path="url(#p6a08e03f83)" style="fill: #d62728"/>
   </g>
   <g id="BrokenBarHCollection_226">
    <path d="M 579.881958 12.24 
L 579.881958 35.501538 
L 587.388733 35.501538 
L 587.388733 12.24 
L 579.881958 12.24 
z
" clip-path="url(#p6a08e03f83)" style="fill: #bcbd22"/>
   </g>
   <g id="BrokenBarHCollection_227">
    <path d="M 579.88385 38.086154 
L 579.88385 61.347692 
L 579.885498 61.347692 
L 579.885498 38.086154 
L 579.88385 38.086154 
z
" clip-path="url(#p6a08e03f83)" style="fill: #d62728"/>
   </g>
   <g id="BrokenBarHCollection_228">
    <path d="M 579.885498 38.086154 
L 579.885498 61.347692 
L 588.459656 61.347692 
L 588.459656 38.086154 
L 579.885498 38.086154 
z
" clip-path="url(#p6a08e03f83)" style="fill: #bcbd22"/>
   </g>
   <g id="BrokenBarHCollection_229">
    <path d="M 604.205444 12.24 
L 604.205444 35.501538 
L 611.714539 35.501538 
L 611.714539 12.24 
L 604.205444 12.24 
z
" clip-path="url(#p6a08e03f83)" style="fill: #bcbd22"/>
   </g>
   <g id="BrokenBarHCollection_230">
    <path d="M 605.313354 38.086154 
L 605.313354 61.347692 
L 612.783386 61.347692 
L 612.783386 38.086154 
L 605.313354 38.086154 
z
" clip-path="url(#p6a08e03f83)" style="fill: #bcbd22"/>
   </g>
   <g id="BrokenBarHCollection_231">
    <path d="M 605.32605 89.778462 
L 605.32605 113.04 
L 612.780212 113.04 
L 612.780212 89.778462 
L 605.32605 89.778462 
z
" clip-path="url(#p6a08e03f83)" style="fill: #bcbd22"/>
   </g>
   <g id="BrokenBarHCollection_232">
    <path d="M 605.386108 63.932308 
L 605.386108 87.193846 
L 612.783752 87.193846 
L 612.783752 63.932308 
L 605.386108 63.932308 
z
" clip-path="url(#p6a08e03f83)" style="fill: #bcbd22"/>
   </g>
   <g id="BrokenBarHCollection_233">
    <path d="M 628.537354 12.24 
L 628.537354 35.501538 
L 636.042297 35.501538 
L 636.042297 12.24 
L 628.537354 12.24 
z
" clip-path="url(#p6a08e03f83)" style="fill: #bcbd22"/>
   </g>
   <g id="BrokenBarHCollection_234">
    <path d="M 629.637024 38.086154 
L 629.637024 61.347692 
L 637.11145 61.347692 
L 637.11145 38.086154 
L 629.637024 38.086154 
z
" clip-path="url(#p6a08e03f83)" style="fill: #bcbd22"/>
   </g>
   <g id="BrokenBarHCollection_235">
    <path d="M 629.648682 89.778462 
L 629.648682 113.04 
L 637.109802 113.04 
L 637.109802 89.778462 
L 629.648682 89.778462 
z
" clip-path="url(#p6a08e03f83)" style="fill: #bcbd22"/>
   </g>
   <g id="BrokenBarHCollection_236">
    <path d="M 629.704712 63.932308 
L 629.704712 87.193846 
L 637.112488 87.193846 
L 637.112488 63.932308 
L 629.704712 63.932308 
z
" clip-path="url(#p6a08e03f83)" style="fill: #bcbd22"/>
   </g>
   <g id="BrokenBarHCollection_237">
    <path d="M 652.864441 12.24 
L 652.864441 35.501538 
L 654.041565 35.501538 
L 654.041565 12.24 
L 652.864441 12.24 
z
" clip-path="url(#p6a08e03f83)" style="fill: #1f77b4"/>
   </g>
   <g id="BrokenBarHCollection_238">
    <path d="M 652.864441 12.24 
L 652.864441 35.501538 
L 654.041565 35.501538 
L 654.041565 12.24 
L 652.864441 12.24 
z
" clip-path="url(#p6a08e03f83)" style="fill: #2ca02c"/>
   </g>
   <g id="BrokenBarHCollection_239">
    <path d="M 653.965393 38.086154 
L 653.965393 61.347692 
L 654.040283 61.347692 
L 654.040283 38.086154 
L 653.965393 38.086154 
z
" clip-path="url(#p6a08e03f83)" style="fill: #2ca02c"/>
   </g>
   <g id="BrokenBarHCollection_240">
    <path d="M 653.965576 38.086154 
L 653.965576 61.347692 
L 654.040283 61.347692 
L 654.040283 38.086154 
L 653.965576 38.086154 
z
" clip-path="url(#p6a08e03f83)" style="fill: #1f77b4"/>
   </g>
   <g id="BrokenBarHCollection_241">
    <path d="M 653.978699 89.778462 
L 653.978699 113.04 
L 654.040283 113.04 
L 654.040283 89.778462 
L 653.978699 89.778462 
z
" clip-path="url(#p6a08e03f83)" style="fill: #2ca02c"/>
   </g>
   <g id="BrokenBarHCollection_242">
    <path d="M 653.978882 89.778462 
L 653.978882 113.04 
L 654.040283 113.04 
L 654.040283 89.778462 
L 653.978882 89.778462 
z
" clip-path="url(#p6a08e03f83)" style="fill: #1f77b4"/>
   </g>
   <g id="BrokenBarHCollection_243">
    <path d="M 654.036926 63.932308 
L 654.036926 87.193846 
L 654.040466 87.193846 
L 654.040466 63.932308 
L 654.036926 63.932308 
z
" clip-path="url(#p6a08e03f83)" style="fill: #2ca02c"/>
   </g>
   <g id="BrokenBarHCollection_244">
    <path d="M 654.037109 63.932308 
L 654.037109 87.193846 
L 654.040466 87.193846 
L 654.040466 63.932308 
L 654.037109 63.932308 
z
" clip-path="url(#p6a08e03f83)" style="fill: #1f77b4"/>
   </g>
   <g id="BrokenBarHCollection_245">
    <path d="M 654.043213 38.086154 
L 654.043213 61.347692 
L 654.043884 61.347692 
L 654.043884 38.086154 
L 654.043213 38.086154 
z
" clip-path="url(#p6a08e03f83)" style="fill: #d62728"/>
   </g>
   <g id="BrokenBarHCollection_246">
    <path d="M 654.043213 63.932308 
L 654.043213 87.193846 
L 654.043884 87.193846 
L 654.043884 63.932308 
L 654.043213 63.932308 
z
" clip-path="url(#p6a08e03f83)" style="fill: #d62728"/>
   </g>
   <g id="BrokenBarHCollection_247">
    <path d="M 654.043213 89.778462 
L 654.043213 113.04 
L 654.04364 113.04 
L 654.04364 89.778462 
L 654.043213 89.778462 
z
" clip-path="url(#p6a08e03f83)" style="fill: #d62728"/>
   </g>
   <g id="BrokenBarHCollection_248">
    <path d="M 654.04364 89.778462 
L 654.04364 113.04 
L 662.605103 113.04 
L 662.605103 89.778462 
L 654.04364 89.778462 
z
" clip-path="url(#p6a08e03f83)" style="fill: #bcbd22"/>
   </g>
   <g id="BrokenBarHCollection_249">
    <path d="M 654.043884 63.932308 
L 654.043884 87.193846 
L 662.60675 87.193846 
L 662.60675 63.932308 
L 654.043884 63.932308 
z
" clip-path="url(#p6a08e03f83)" style="fill: #bcbd22"/>
   </g>
   <g id="BrokenBarHCollection_250">
    <path d="M 654.043884 38.086154 
L 654.043884 61.347692 
L 662.605286 61.347692 
L 662.605286 38.086154 
L 654.043884 38.086154 
z
" clip-path="url(#p6a08e03f83)" style="fill: #bcbd22"/>
   </g>
   <g id="BrokenBarHCollection_251">
    <path d="M 654.04425 12.24 
L 654.04425 35.501538 
L 654.044739 35.501538 
L 654.044739 12.24 
L 654.04425 12.24 
z
" clip-path="url(#p6a08e03f83)" style="fill: #d62728"/>
   </g>
   <g id="BrokenBarHCollection_252">
    <path d="M 654.044739 12.24 
L 654.044739 35.501538 
L 661.536926 35.501538 
L 661.536926 12.24 
L 654.044739 12.24 
z
" clip-path="url(#p6a08e03f83)" style="fill: #bcbd22"/>
   </g>
   <g id="BrokenBarHCollection_253">
    <path d="M 678.344482 12.24 
L 678.344482 35.501538 
L 685.84137 35.501538 
L 685.84137 12.24 
L 678.344482 12.24 
z
" clip-path="url(#p6a08e03f83)" style="fill: #bcbd22"/>
   </g>
   <g id="BrokenBarHCollection_254">
    <path d="M 679.454712 38.086154 
L 679.454712 61.347692 
L 686.910583 61.347692 
L 686.910583 38.086154 
L 679.454712 38.086154 
z
" clip-path="url(#p6a08e03f83)" style="fill: #bcbd22"/>
   </g>
   <g id="BrokenBarHCollection_255">
    <path d="M 679.475647 89.778462 
L 679.475647 113.04 
L 686.909058 113.04 
L 686.909058 89.778462 
L 679.475647 89.778462 
z
" clip-path="url(#p6a08e03f83)" style="fill: #bcbd22"/>
   </g>
   <g id="BrokenBarHCollection_256">
    <path d="M 679.535522 63.932308 
L 679.535522 87.193846 
L 686.911194 87.193846 
L 686.911194 63.932308 
L 679.535522 63.932308 
z
" clip-path="url(#p6a08e03f83)" style="fill: #bcbd22"/>
   </g>
  </g>
 </g>
 <defs>
  <clipPath id="p6a08e03f83">
   <rect x="34.240625" y="7.2" width="669.6" height="110.88"/>
  </clipPath>
 </defs>
</svg>
