<?xml version="1.0" encoding="utf-8" standalone="no"?>
<!DOCTYPE svg PUBLIC "-//W3C//DTD SVG 1.1//EN"
  "http://www.w3.org/Graphics/SVG/1.1/DTD/svg11.dtd">
<svg xmlns:xlink="http://www.w3.org/1999/xlink" width="911.596pt" height="171.128125pt" viewBox="0 0 911.596 171.128125" xmlns="http://www.w3.org/2000/svg" version="1.1">
 <metadata>
  <rdf:RDF xmlns:dc="http://purl.org/dc/elements/1.1/" xmlns:cc="http://creativecommons.org/ns#" xmlns:rdf="http://www.w3.org/1999/02/22-rdf-syntax-ns#">
   <cc:Work>
    <dc:type rdf:resource="http://purl.org/dc/dcmitype/StillImage"/>
    <dc:date>2025-09-09T18:48:36.782907</dc:date>
    <dc:format>image/svg+xml</dc:format>
    <dc:creator>
     <cc:Agent>
      <dc:title>Matplotlib v3.6.3, https://matplotlib.org/</dc:title>
     </cc:Agent>
    </dc:creator>
   </cc:Work>
  </rdf:RDF>
 </metadata>
 <defs>
  <style type="text/css">*{stroke-linejoin: round; stroke-linecap: butt}</style>
 </defs>
 <g id="figure_1">
  <g id="patch_1">
   <path d="M 0 171.128125 
L 911.596 171.128125 
L 911.596 0 
L 0 0 
z
" style="fill: #ffffff"/>
  </g>
  <g id="axes_1">
   <g id="patch_2">
    <path d="M 34.240625 118.08 
L 703.840625 118.08 
L 703.840625 7.2 
L 34.240625 7.2 
z
" style="fill: #ffffff"/>
   </g>
   <g id="matplotlib.axis_1">
    <g id="xtick_1">
     <g id="line2d_1">
      <defs>
       <path id="m8d41d48281" d="M 0 0 
L 0 3.5 
" style="stroke: #000000; stroke-width: 0.8"/>
      </defs>
      <g>
       <use xlink:href="#m8d41d48281" x="162.55603" y="118.08" style="stroke: #000000; stroke-width: 0.8"/>
      </g>
     </g>
     <g id="text_1">
      <!-- 0 -->
      <g transform="translate(159.37478 132.678438) scale(0.1 -0.1)">
       <defs>
        <path id="DejaVuSans-30" d="M 2034 4250 
Q 1547 4250 1301 3770 
Q 1056 3291 1056 2328 
Q 1056 1369 1301 889 
Q 1547 409 2034 409 
Q 2525 409 2770 889 
Q 3016 1369 3016 2328 
Q 3016 3291 2770 3770 
Q 2525 4250 2034 4250 
z
M 2034 4750 
Q 2819 4750 3233 4129 
Q 3647 3509 3647 2328 
Q 3647 1150 3233 529 
Q 2819 -91 2034 -91 
Q 1250 -91 836 529 
Q 422 1150 422 2328 
Q 422 3509 836 4129 
Q 1250 4750 2034 4750 
z
" transform="scale(0.015625)"/>
       </defs>
       <use xlink:href="#DejaVuSans-30"/>
      </g>
     </g>
    </g>
    <g id="xtick_2">
     <g id="line2d_2">
      <g>
       <use xlink:href="#m8d41d48281" x="301.514587" y="118.08" style="stroke: #000000; stroke-width: 0.8"/>
      </g>
     </g>
     <g id="text_2">
      <!-- 1 -->
      <g transform="translate(298.333337 132.678438) scale(0.1 -0.1)">
       <defs>
        <path id="DejaVuSans-31" d="M 794 531 
L 1825 531 
L 1825 4091 
L 703 3866 
L 703 4441 
L 1819 4666 
L 2450 4666 
L 2450 531 
L 3481 531 
L 3481 0 
L 794 0 
L 794 531 
z
" transform="scale(0.015625)"/>
       </defs>
       <use xlink:href="#DejaVuSans-31"/>
      </g>
     </g>
    </g>
    <g id="xtick_3">
     <g id="line2d_3">
      <g>
       <use xlink:href="#m8d41d48281" x="440.473145" y="118.08" style="stroke: #000000; stroke-width: 0.8"/>
      </g>
     </g>
     <g id="text_3">
      <!-- 1 -->
      <g transform="translate(437.291895 132.678438) scale(0.1 -0.1)">
       <use xlink:href="#DejaVuSans-31"/>
      </g>
     </g>
    </g>
    <g id="xtick_4">
     <g id="line2d_4">
      <g>
       <use xlink:href="#m8d41d48281" x="579.431763" y="118.08" style="stroke: #000000; stroke-width: 0.8"/>
      </g>
     </g>
     <g id="text_4">
      <!-- 2 -->
      <g transform="translate(576.250513 132.678438) scale(0.1 -0.1)">
       <defs>
        <path id="DejaVuSans-32" d="M 1228 531 
L 3431 531 
L 3431 0 
L 469 0 
L 469 531 
Q 828 903 1448 1529 
Q 2069 2156 2228 2338 
Q 2531 2678 2651 2914 
Q 2772 3150 2772 3378 
Q 2772 3750 2511 3984 
Q 2250 4219 1831 4219 
Q 1534 4219 1204 4116 
Q 875 4013 500 3803 
L 500 4441 
Q 881 4594 1212 4672 
Q 1544 4750 1819 4750 
Q 2544 4750 2975 4387 
Q 3406 4025 3406 3419 
Q 3406 3131 3298 2873 
Q 3191 2616 2906 2266 
Q 2828 2175 2409 1742 
Q 1991 1309 1228 531 
z
" transform="scale(0.015625)"/>
       </defs>
       <use xlink:href="#DejaVuSans-32"/>
      </g>
     </g>
    </g>
    <g id="text_5">
     <!-- Time Offset (s) -->
     <g transform="translate(332.025 146.356562) scale(0.1 -0.1)">
      <defs>
       <path id="DejaVuSans-54" d="M -19 4666 
L 3928 4666 
L 3928 4134 
L 2272 4134 
L 2272 0 
L 1638 0 
L 1638 4134 
L -19 4134 
L -19 4666 
z
" transform="scale(0.015625)"/>
       <path id="DejaVuSans-69" d="M 603 3500 
L 1178 3500 
L 1178 0 
L 603 0 
L 603 3500 
z
M 603 4863 
L 1178 4863 
L 1178 4134 
L 603 4134 
L 603 4863 
z
" transform="scale(0.015625)"/>
       <path id="DejaVuSans-6d" d="M 3328 2828 
Q 3544 3216 3844 3400 
Q 4144 3584 4550 3584 
Q 5097 3584 5394 3201 
Q 5691 2819 5691 2113 
L 5691 0 
L 5113 0 
L 5113 2094 
Q 5113 2597 4934 2840 
Q 4756 3084 4391 3084 
Q 3944 3084 3684 2787 
Q 3425 2491 3425 1978 
L 3425 0 
L 2847 0 
L 2847 2094 
Q 2847 2600 2669 2842 
Q 2491 3084 2119 3084 
Q 1678 3084 1418 2786 
Q 1159 2488 1159 1978 
L 1159 0 
L 581 0 
L 581 3500 
L 1159 3500 
L 1159 2956 
Q 1356 3278 1631 3431 
Q 1906 3584 2284 3584 
Q 2666 3584 2933 3390 
Q 3200 3197 3328 2828 
z
" transform="scale(0.015625)"/>
       <path id="DejaVuSans-65" d="M 3597 1894 
L 3597 1613 
L 953 1613 
Q 991 1019 1311 708 
Q 1631 397 2203 397 
Q 2534 397 2845 478 
Q 3156 559 3463 722 
L 3463 178 
Q 3153 47 2828 -22 
Q 2503 -91 2169 -91 
Q 1331 -91 842 396 
Q 353 884 353 1716 
Q 353 2575 817 3079 
Q 1281 3584 2069 3584 
Q 2775 3584 3186 3129 
Q 3597 2675 3597 1894 
z
M 3022 2063 
Q 3016 2534 2758 2815 
Q 2500 3097 2075 3097 
Q 1594 3097 1305 2825 
Q 1016 2553 972 2059 
L 3022 2063 
z
" transform="scale(0.015625)"/>
       <path id="DejaVuSans-20" transform="scale(0.015625)"/>
       <path id="DejaVuSans-4f" d="M 2522 4238 
Q 1834 4238 1429 3725 
Q 1025 3213 1025 2328 
Q 1025 1447 1429 934 
Q 1834 422 2522 422 
Q 3209 422 3611 934 
Q 4013 1447 4013 2328 
Q 4013 3213 3611 3725 
Q 3209 4238 2522 4238 
z
M 2522 4750 
Q 3503 4750 4090 4092 
Q 4678 3434 4678 2328 
Q 4678 1225 4090 567 
Q 3503 -91 2522 -91 
Q 1538 -91 948 565 
Q 359 1222 359 2328 
Q 359 3434 948 4092 
Q 1538 4750 2522 4750 
z
" transform="scale(0.015625)"/>
       <path id="DejaVuSans-66" d="M 2375 4863 
L 2375 4384 
L 1825 4384 
Q 1516 4384 1395 4259 
Q 1275 4134 1275 3809 
L 1275 3500 
L 2222 3500 
L 2222 3053 
L 1275 3053 
L 1275 0 
L 697 0 
L 697 3053 
L 147 3053 
L 147 3500 
L 697 3500 
L 697 3744 
Q 697 4328 969 4595 
Q 1241 4863 1831 4863 
L 2375 4863 
z
" transform="scale(0.015625)"/>
       <path id="DejaVuSans-73" d="M 2834 3397 
L 2834 2853 
Q 2591 2978 2328 3040 
Q 2066 3103 1784 3103 
Q 1356 3103 1142 2972 
Q 928 2841 928 2578 
Q 928 2378 1081 2264 
Q 1234 2150 1697 2047 
L 1894 2003 
Q 2506 1872 2764 1633 
Q 3022 1394 3022 966 
Q 3022 478 2636 193 
Q 2250 -91 1575 -91 
Q 1294 -91 989 -36 
Q 684 19 347 128 
L 347 722 
Q 666 556 975 473 
Q 1284 391 1588 391 
Q 1994 391 2212 530 
Q 2431 669 2431 922 
Q 2431 1156 2273 1281 
Q 2116 1406 1581 1522 
L 1381 1569 
Q 847 1681 609 1914 
Q 372 2147 372 2553 
Q 372 3047 722 3315 
Q 1072 3584 1716 3584 
Q 2034 3584 2315 3537 
Q 2597 3491 2834 3397 
z
" transform="scale(0.015625)"/>
       <path id="DejaVuSans-74" d="M 1172 4494 
L 1172 3500 
L 2356 3500 
L 2356 3053 
L 1172 3053 
L 1172 1153 
Q 1172 725 1289 603 
Q 1406 481 1766 481 
L 2356 481 
L 2356 0 
L 1766 0 
Q 1100 0 847 248 
Q 594 497 594 1153 
L 594 3053 
L 172 3053 
L 172 3500 
L 594 3500 
L 594 4494 
L 1172 4494 
z
" transform="scale(0.015625)"/>
       <path id="DejaVuSans-28" d="M 1984 4856 
Q 1566 4138 1362 3434 
Q 1159 2731 1159 2009 
Q 1159 1288 1364 580 
Q 1569 -128 1984 -844 
L 1484 -844 
Q 1016 -109 783 600 
Q 550 1309 550 2009 
Q 550 2706 781 3412 
Q 1013 4119 1484 4856 
L 1984 4856 
z
" transform="scale(0.015625)"/>
       <path id="DejaVuSans-29" d="M 513 4856 
L 1013 4856 
Q 1481 4119 1714 3412 
Q 1947 2706 1947 2009 
Q 1947 1309 1714 600 
Q 1481 -109 1013 -844 
L 513 -844 
Q 928 -128 1133 580 
Q 1338 1288 1338 2009 
Q 1338 2731 1133 3434 
Q 928 4138 513 4856 
z
" transform="scale(0.015625)"/>
      </defs>
      <use xlink:href="#DejaVuSans-54"/>
      <use xlink:href="#DejaVuSans-69" x="57.958984"/>
      <use xlink:href="#DejaVuSans-6d" x="85.742188"/>
      <use xlink:href="#DejaVuSans-65" x="183.154297"/>
      <use xlink:href="#DejaVuSans-20" x="244.677734"/>
      <use xlink:href="#DejaVuSans-4f" x="276.464844"/>
      <use xlink:href="#DejaVuSans-66" x="355.175781"/>
      <use xlink:href="#DejaVuSans-66" x="390.380859"/>
      <use xlink:href="#DejaVuSans-73" x="425.585938"/>
      <use xlink:href="#DejaVuSans-65" x="477.685547"/>
      <use xlink:href="#DejaVuSans-74" x="539.208984"/>
      <use xlink:href="#DejaVuSans-20" x="578.417969"/>
      <use xlink:href="#DejaVuSans-28" x="610.205078"/>
      <use xlink:href="#DejaVuSans-73" x="649.21875"/>
      <use xlink:href="#DejaVuSans-29" x="701.318359"/>
     </g>
    </g>
   </g>
   <g id="matplotlib.axis_2">
    <g id="ytick_1">
     <g id="line2d_5">
      <defs>
       <path id="m72f2b0c7d7" d="M 0 0 
L -3.5 0 
" style="stroke: #000000; stroke-width: 0.8"/>
      </defs>
      <g>
       <use xlink:href="#m72f2b0c7d7" x="34.240625" y="23.870769" style="stroke: #000000; stroke-width: 0.8"/>
      </g>
     </g>
     <g id="text_6">
      <!-- 0 -->
      <g transform="translate(20.878125 27.669988) scale(0.1 -0.1)">
       <use xlink:href="#DejaVuSans-30"/>
      </g>
     </g>
    </g>
    <g id="ytick_2">
     <g id="line2d_6">
      <g>
       <use xlink:href="#m72f2b0c7d7" x="34.240625" y="49.716923" style="stroke: #000000; stroke-width: 0.8"/>
      </g>
     </g>
     <g id="text_7">
      <!-- 1 -->
      <g transform="translate(20.878125 53.516142) scale(0.1 -0.1)">
       <use xlink:href="#DejaVuSans-31"/>
      </g>
     </g>
    </g>
    <g id="ytick_3">
     <g id="line2d_7">
      <g>
       <use xlink:href="#m72f2b0c7d7" x="34.240625" y="75.563077" style="stroke: #000000; stroke-width: 0.8"/>
      </g>
     </g>
     <g id="text_8">
      <!-- 2 -->
      <g transform="translate(20.878125 79.362296) scale(0.1 -0.1)">
       <use xlink:href="#DejaVuSans-32"/>
      </g>
     </g>
    </g>
    <g id="ytick_4">
     <g id="line2d_8">
      <g>
       <use xlink:href="#m72f2b0c7d7" x="34.240625" y="101.409231" style="stroke: #000000; stroke-width: 0.8"/>
      </g>
     </g>
     <g id="text_9">
      <!-- 3 -->
      <g transform="translate(20.878125 105.20845) scale(0.1 -0.1)">
       <defs>
        <path id="DejaVuSans-33" d="M 2597 2516 
Q 3050 2419 3304 2112 
Q 3559 1806 3559 1356 
Q 3559 666 3084 287 
Q 2609 -91 1734 -91 
Q 1441 -91 1130 -33 
Q 819 25 488 141 
L 488 750 
Q 750 597 1062 519 
Q 1375 441 1716 441 
Q 2309 441 2620 675 
Q 2931 909 2931 1356 
Q 2931 1769 2642 2001 
Q 2353 2234 1838 2234 
L 1294 2234 
L 1294 2753 
L 1863 2753 
Q 2328 2753 2575 2939 
Q 2822 3125 2822 3475 
Q 2822 3834 2567 4026 
Q 2313 4219 1838 4219 
Q 1578 4219 1281 4162 
Q 984 4106 628 3988 
L 628 4550 
Q 988 4650 1302 4700 
Q 1616 4750 1894 4750 
Q 2613 4750 3031 4423 
Q 3450 4097 3450 3541 
Q 3450 3153 3228 2886 
Q 3006 2619 2597 2516 
z
" transform="scale(0.015625)"/>
       </defs>
       <use xlink:href="#DejaVuSans-33"/>
      </g>
     </g>
    </g>
    <g id="text_10">
     <!-- Task -->
     <g transform="translate(14.798438 73.432969) rotate(-90) scale(0.1 -0.1)">
      <defs>
       <path id="DejaVuSans-61" d="M 2194 1759 
Q 1497 1759 1228 1600 
Q 959 1441 959 1056 
Q 959 750 1161 570 
Q 1363 391 1709 391 
Q 2188 391 2477 730 
Q 2766 1069 2766 1631 
L 2766 1759 
L 2194 1759 
z
M 3341 1997 
L 3341 0 
L 2766 0 
L 2766 531 
Q 2569 213 2275 61 
Q 1981 -91 1556 -91 
Q 1019 -91 701 211 
Q 384 513 384 1019 
Q 384 1609 779 1909 
Q 1175 2209 1959 2209 
L 2766 2209 
L 2766 2266 
Q 2766 2663 2505 2880 
Q 2244 3097 1772 3097 
Q 1472 3097 1187 3025 
Q 903 2953 641 2809 
L 641 3341 
Q 956 3463 1253 3523 
Q 1550 3584 1831 3584 
Q 2591 3584 2966 3190 
Q 3341 2797 3341 1997 
z
" transform="scale(0.015625)"/>
       <path id="DejaVuSans-6b" d="M 581 4863 
L 1159 4863 
L 1159 1991 
L 2875 3500 
L 3609 3500 
L 1753 1863 
L 3688 0 
L 2938 0 
L 1159 1709 
L 1159 0 
L 581 0 
L 581 4863 
z
" transform="scale(0.015625)"/>
      </defs>
      <use xlink:href="#DejaVuSans-54"/>
      <use xlink:href="#DejaVuSans-61" x="44.583984"/>
      <use xlink:href="#DejaVuSans-73" x="105.863281"/>
      <use xlink:href="#DejaVuSans-6b" x="157.962891"/>
     </g>
    </g>
   </g>
   <g id="patch_3">
    <path d="M 34.240625 118.08 
L 34.240625 7.2 
" style="fill: none; stroke: #000000; stroke-width: 0.8; stroke-linejoin: miter; stroke-linecap: square"/>
   </g>
   <g id="patch_4">
    <path d="M 703.840625 118.08 
L 703.840625 7.2 
" style="fill: none; stroke: #000000; stroke-width: 0.8; stroke-linejoin: miter; stroke-linecap: square"/>
   </g>
   <g id="patch_5">
    <path d="M 34.24054 118.08 
L 703.840515 118.08 
" style="fill: none; stroke: #000000; stroke-width: 0.8; stroke-linejoin: miter; stroke-linecap: square"/>
   </g>
   <g id="patch_6">
    <path d="M 34.24054 7.2 
L 703.840515 7.2 
" style="fill: none; stroke: #000000; stroke-width: 0.8; stroke-linejoin: miter; stroke-linecap: square"/>
   </g>
   <g id="legend_1">
    <g id="patch_7">
     <path d="M 717.536625 163.928125 
L 902.396 163.928125 
Q 904.396 163.928125 904.396 161.928125 
L 904.396 14.2 
Q 904.396 12.2 902.396 12.2 
L 717.536625 12.2 
Q 715.536625 12.2 715.536625 14.2 
L 715.536625 161.928125 
Q 715.536625 163.928125 717.536625 163.928125 
z
" style="fill: #ffffff; opacity: 0.8; stroke: #cccccc; stroke-linejoin: miter"/>
    </g>
    <g id="text_11">
     <!-- Function -->
     <g transform="translate(788.701469 23.798437) scale(0.1 -0.1)">
      <defs>
       <path id="DejaVuSans-46" d="M 628 4666 
L 3309 4666 
L 3309 4134 
L 1259 4134 
L 1259 2759 
L 3109 2759 
L 3109 2228 
L 1259 2228 
L 1259 0 
L 628 0 
L 628 4666 
z
" transform="scale(0.015625)"/>
       <path id="DejaVuSans-75" d="M 544 1381 
L 544 3500 
L 1119 3500 
L 1119 1403 
Q 1119 906 1312 657 
Q 1506 409 1894 409 
Q 2359 409 2629 706 
Q 2900 1003 2900 1516 
L 2900 3500 
L 3475 3500 
L 3475 0 
L 2900 0 
L 2900 538 
Q 2691 219 2414 64 
Q 2138 -91 1772 -91 
Q 1169 -91 856 284 
Q 544 659 544 1381 
z
M 1991 3584 
L 1991 3584 
z
" transform="scale(0.015625)"/>
       <path id="DejaVuSans-6e" d="M 3513 2113 
L 3513 0 
L 2938 0 
L 2938 2094 
Q 2938 2591 2744 2837 
Q 2550 3084 2163 3084 
Q 1697 3084 1428 2787 
Q 1159 2491 1159 1978 
L 1159 0 
L 581 0 
L 581 3500 
L 1159 3500 
L 1159 2956 
Q 1366 3272 1645 3428 
Q 1925 3584 2291 3584 
Q 2894 3584 3203 3211 
Q 3513 2838 3513 2113 
z
" transform="scale(0.015625)"/>
       <path id="DejaVuSans-63" d="M 3122 3366 
L 3122 2828 
Q 2878 2963 2633 3030 
Q 2388 3097 2138 3097 
Q 1578 3097 1268 2742 
Q 959 2388 959 1747 
Q 959 1106 1268 751 
Q 1578 397 2138 397 
Q 2388 397 2633 464 
Q 2878 531 3122 666 
L 3122 134 
Q 2881 22 2623 -34 
Q 2366 -91 2075 -91 
Q 1284 -91 818 406 
Q 353 903 353 1747 
Q 353 2603 823 3093 
Q 1294 3584 2113 3584 
Q 2378 3584 2631 3529 
Q 2884 3475 3122 3366 
z
" transform="scale(0.015625)"/>
       <path id="DejaVuSans-6f" d="M 1959 3097 
Q 1497 3097 1228 2736 
Q 959 2375 959 1747 
Q 959 1119 1226 758 
Q 1494 397 1959 397 
Q 2419 397 2687 759 
Q 2956 1122 2956 1747 
Q 2956 2369 2687 2733 
Q 2419 3097 1959 3097 
z
M 1959 3584 
Q 2709 3584 3137 3096 
Q 3566 2609 3566 1747 
Q 3566 888 3137 398 
Q 2709 -91 1959 -91 
Q 1206 -91 779 398 
Q 353 888 353 1747 
Q 353 2609 779 3096 
Q 1206 3584 1959 3584 
z
" transform="scale(0.015625)"/>
      </defs>
      <use xlink:href="#DejaVuSans-46"/>
      <use xlink:href="#DejaVuSans-75" x="52.019531"/>
      <use xlink:href="#DejaVuSans-6e" x="115.398438"/>
      <use xlink:href="#DejaVuSans-63" x="178.777344"/>
      <use xlink:href="#DejaVuSans-74" x="233.757812"/>
      <use xlink:href="#DejaVuSans-69" x="272.966797"/>
      <use xlink:href="#DejaVuSans-6f" x="300.75"/>
      <use xlink:href="#DejaVuSans-6e" x="361.931641"/>
     </g>
    </g>
    <g id="patch_8">
     <path d="M 719.536625 38.476562 
L 739.536625 38.476562 
L 739.536625 31.476562 
L 719.536625 31.476562 
z
" style="fill: #1f77b4; stroke: #1f77b4; stroke-linejoin: miter"/>
    </g>
    <g id="text_12">
     <!-- get_imbalance -->
     <g transform="translate(747.536625 38.476562) scale(0.1 -0.1)">
      <defs>
       <path id="DejaVuSans-67" d="M 2906 1791 
Q 2906 2416 2648 2759 
Q 2391 3103 1925 3103 
Q 1463 3103 1205 2759 
Q 947 2416 947 1791 
Q 947 1169 1205 825 
Q 1463 481 1925 481 
Q 2391 481 2648 825 
Q 2906 1169 2906 1791 
z
M 3481 434 
Q 3481 -459 3084 -895 
Q 2688 -1331 1869 -1331 
Q 1566 -1331 1297 -1286 
Q 1028 -1241 775 -1147 
L 775 -588 
Q 1028 -725 1275 -790 
Q 1522 -856 1778 -856 
Q 2344 -856 2625 -561 
Q 2906 -266 2906 331 
L 2906 616 
Q 2728 306 2450 153 
Q 2172 0 1784 0 
Q 1141 0 747 490 
Q 353 981 353 1791 
Q 353 2603 747 3093 
Q 1141 3584 1784 3584 
Q 2172 3584 2450 3431 
Q 2728 3278 2906 2969 
L 2906 3500 
L 3481 3500 
L 3481 434 
z
" transform="scale(0.015625)"/>
       <path id="DejaVuSans-5f" d="M 3263 -1063 
L 3263 -1509 
L -63 -1509 
L -63 -1063 
L 3263 -1063 
z
" transform="scale(0.015625)"/>
       <path id="DejaVuSans-62" d="M 3116 1747 
Q 3116 2381 2855 2742 
Q 2594 3103 2138 3103 
Q 1681 3103 1420 2742 
Q 1159 2381 1159 1747 
Q 1159 1113 1420 752 
Q 1681 391 2138 391 
Q 2594 391 2855 752 
Q 3116 1113 3116 1747 
z
M 1159 2969 
Q 1341 3281 1617 3432 
Q 1894 3584 2278 3584 
Q 2916 3584 3314 3078 
Q 3713 2572 3713 1747 
Q 3713 922 3314 415 
Q 2916 -91 2278 -91 
Q 1894 -91 1617 61 
Q 1341 213 1159 525 
L 1159 0 
L 581 0 
L 581 4863 
L 1159 4863 
L 1159 2969 
z
" transform="scale(0.015625)"/>
       <path id="DejaVuSans-6c" d="M 603 4863 
L 1178 4863 
L 1178 0 
L 603 0 
L 603 4863 
z
" transform="scale(0.015625)"/>
      </defs>
      <use xlink:href="#DejaVuSans-67"/>
      <use xlink:href="#DejaVuSans-65" x="63.476562"/>
      <use xlink:href="#DejaVuSans-74" x="125"/>
      <use xlink:href="#DejaVuSans-5f" x="164.208984"/>
      <use xlink:href="#DejaVuSans-69" x="214.208984"/>
      <use xlink:href="#DejaVuSans-6d" x="241.992188"/>
      <use xlink:href="#DejaVuSans-62" x="339.404297"/>
      <use xlink:href="#DejaVuSans-61" x="402.880859"/>
      <use xlink:href="#DejaVuSans-6c" x="464.160156"/>
      <use xlink:href="#DejaVuSans-61" x="491.943359"/>
      <use xlink:href="#DejaVuSans-6e" x="553.222656"/>
      <use xlink:href="#DejaVuSans-63" x="616.601562"/>
      <use xlink:href="#DejaVuSans-65" x="671.582031"/>
     </g>
    </g>
    <g id="patch_9">
     <path d="M 719.536625 53.432812 
L 739.536625 53.432812 
L 739.536625 46.432812 
L 719.536625 46.432812 
z
" style="fill: #ff7f0e; stroke: #ff7f0e; stroke-linejoin: miter"/>
    </g>
    <g id="text_13">
     <!-- init_weights -->
     <g transform="translate(747.536625 53.432812) scale(0.1 -0.1)">
      <defs>
       <path id="DejaVuSans-77" d="M 269 3500 
L 844 3500 
L 1563 769 
L 2278 3500 
L 2956 3500 
L 3675 769 
L 4391 3500 
L 4966 3500 
L 4050 0 
L 3372 0 
L 2619 2869 
L 1863 0 
L 1184 0 
L 269 3500 
z
" transform="scale(0.015625)"/>
       <path id="DejaVuSans-68" d="M 3513 2113 
L 3513 0 
L 2938 0 
L 2938 2094 
Q 2938 2591 2744 2837 
Q 2550 3084 2163 3084 
Q 1697 3084 1428 2787 
Q 1159 2491 1159 1978 
L 1159 0 
L 581 0 
L 581 4863 
L 1159 4863 
L 1159 2956 
Q 1366 3272 1645 3428 
Q 1925 3584 2291 3584 
Q 2894 3584 3203 3211 
Q 3513 2838 3513 2113 
z
" transform="scale(0.015625)"/>
      </defs>
      <use xlink:href="#DejaVuSans-69"/>
      <use xlink:href="#DejaVuSans-6e" x="27.783203"/>
      <use xlink:href="#DejaVuSans-69" x="91.162109"/>
      <use xlink:href="#DejaVuSans-74" x="118.945312"/>
      <use xlink:href="#DejaVuSans-5f" x="158.154297"/>
      <use xlink:href="#DejaVuSans-77" x="208.154297"/>
      <use xlink:href="#DejaVuSans-65" x="289.941406"/>
      <use xlink:href="#DejaVuSans-69" x="351.464844"/>
      <use xlink:href="#DejaVuSans-67" x="379.248047"/>
      <use xlink:href="#DejaVuSans-68" x="442.724609"/>
      <use xlink:href="#DejaVuSans-74" x="506.103516"/>
      <use xlink:href="#DejaVuSans-73" x="545.3125"/>
     </g>
    </g>
    <g id="patch_10">
     <path d="M 719.536625 68.389063 
L 739.536625 68.389063 
L 739.536625 61.389063 
L 719.536625 61.389063 
z
" style="fill: #2ca02c; stroke: #2ca02c; stroke-linejoin: miter"/>
    </g>
    <g id="text_14">
     <!-- laik_lb_balance -->
     <g transform="translate(747.536625 68.389063) scale(0.1 -0.1)">
      <use xlink:href="#DejaVuSans-6c"/>
      <use xlink:href="#DejaVuSans-61" x="27.783203"/>
      <use xlink:href="#DejaVuSans-69" x="89.0625"/>
      <use xlink:href="#DejaVuSans-6b" x="116.845703"/>
      <use xlink:href="#DejaVuSans-5f" x="174.755859"/>
      <use xlink:href="#DejaVuSans-6c" x="224.755859"/>
      <use xlink:href="#DejaVuSans-62" x="252.539062"/>
      <use xlink:href="#DejaVuSans-5f" x="316.015625"/>
      <use xlink:href="#DejaVuSans-62" x="366.015625"/>
      <use xlink:href="#DejaVuSans-61" x="429.492188"/>
      <use xlink:href="#DejaVuSans-6c" x="490.771484"/>
      <use xlink:href="#DejaVuSans-61" x="518.554688"/>
      <use xlink:href="#DejaVuSans-6e" x="579.833984"/>
      <use xlink:href="#DejaVuSans-63" x="643.212891"/>
      <use xlink:href="#DejaVuSans-65" x="698.193359"/>
     </g>
    </g>
    <g id="patch_11">
     <path d="M 719.536625 83.345313 
L 739.536625 83.345313 
L 739.536625 76.345313 
L 719.536625 76.345313 
z
" style="fill: #d62728; stroke: #d62728; stroke-linejoin: miter"/>
    </g>
    <g id="text_15">
     <!-- laik_lb_switch_and_free -->
     <g transform="translate(747.536625 83.345313) scale(0.1 -0.1)">
      <defs>
       <path id="DejaVuSans-64" d="M 2906 2969 
L 2906 4863 
L 3481 4863 
L 3481 0 
L 2906 0 
L 2906 525 
Q 2725 213 2448 61 
Q 2172 -91 1784 -91 
Q 1150 -91 751 415 
Q 353 922 353 1747 
Q 353 2572 751 3078 
Q 1150 3584 1784 3584 
Q 2172 3584 2448 3432 
Q 2725 3281 2906 2969 
z
M 947 1747 
Q 947 1113 1208 752 
Q 1469 391 1925 391 
Q 2381 391 2643 752 
Q 2906 1113 2906 1747 
Q 2906 2381 2643 2742 
Q 2381 3103 1925 3103 
Q 1469 3103 1208 2742 
Q 947 2381 947 1747 
z
" transform="scale(0.015625)"/>
       <path id="DejaVuSans-72" d="M 2631 2963 
Q 2534 3019 2420 3045 
Q 2306 3072 2169 3072 
Q 1681 3072 1420 2755 
Q 1159 2438 1159 1844 
L 1159 0 
L 581 0 
L 581 3500 
L 1159 3500 
L 1159 2956 
Q 1341 3275 1631 3429 
Q 1922 3584 2338 3584 
Q 2397 3584 2469 3576 
Q 2541 3569 2628 3553 
L 2631 2963 
z
" transform="scale(0.015625)"/>
      </defs>
      <use xlink:href="#DejaVuSans-6c"/>
      <use xlink:href="#DejaVuSans-61" x="27.783203"/>
      <use xlink:href="#DejaVuSans-69" x="89.0625"/>
      <use xlink:href="#DejaVuSans-6b" x="116.845703"/>
      <use xlink:href="#DejaVuSans-5f" x="174.755859"/>
      <use xlink:href="#DejaVuSans-6c" x="224.755859"/>
      <use xlink:href="#DejaVuSans-62" x="252.539062"/>
      <use xlink:href="#DejaVuSans-5f" x="316.015625"/>
      <use xlink:href="#DejaVuSans-73" x="366.015625"/>
      <use xlink:href="#DejaVuSans-77" x="418.115234"/>
      <use xlink:href="#DejaVuSans-69" x="499.902344"/>
      <use xlink:href="#DejaVuSans-74" x="527.685547"/>
      <use xlink:href="#DejaVuSans-63" x="566.894531"/>
      <use xlink:href="#DejaVuSans-68" x="621.875"/>
      <use xlink:href="#DejaVuSans-5f" x="685.253906"/>
      <use xlink:href="#DejaVuSans-61" x="735.253906"/>
      <use xlink:href="#DejaVuSans-6e" x="796.533203"/>
      <use xlink:href="#DejaVuSans-64" x="859.912109"/>
      <use xlink:href="#DejaVuSans-5f" x="923.388672"/>
      <use xlink:href="#DejaVuSans-66" x="973.388672"/>
      <use xlink:href="#DejaVuSans-72" x="1008.59375"/>
      <use xlink:href="#DejaVuSans-65" x="1047.457031"/>
      <use xlink:href="#DejaVuSans-65" x="1108.980469"/>
     </g>
    </g>
    <g id="patch_12">
     <path d="M 719.536625 98.301563 
L 739.536625 98.301563 
L 739.536625 91.301563 
L 719.536625 91.301563 
z
" style="fill: #9467bd; stroke: #9467bd; stroke-linejoin: miter"/>
    </g>
    <g id="text_16">
     <!-- main_2d -->
     <g transform="translate(747.536625 98.301563) scale(0.1 -0.1)">
      <use xlink:href="#DejaVuSans-6d"/>
      <use xlink:href="#DejaVuSans-61" x="97.412109"/>
      <use xlink:href="#DejaVuSans-69" x="158.691406"/>
      <use xlink:href="#DejaVuSans-6e" x="186.474609"/>
      <use xlink:href="#DejaVuSans-5f" x="249.853516"/>
      <use xlink:href="#DejaVuSans-32" x="299.853516"/>
      <use xlink:href="#DejaVuSans-64" x="363.476562"/>
     </g>
    </g>
    <g id="patch_13">
     <path d="M 719.536625 113.257812 
L 739.536625 113.257812 
L 739.536625 106.257812 
L 719.536625 106.257812 
z
" style="fill: #8c564b; stroke: #8c564b; stroke-linejoin: miter"/>
    </g>
    <g id="text_17">
     <!-- merge_rects_then_add_ranges -->
     <g transform="translate(747.536625 113.257812) scale(0.1 -0.1)">
      <use xlink:href="#DejaVuSans-6d"/>
      <use xlink:href="#DejaVuSans-65" x="97.412109"/>
      <use xlink:href="#DejaVuSans-72" x="158.935547"/>
      <use xlink:href="#DejaVuSans-67" x="198.298828"/>
      <use xlink:href="#DejaVuSans-65" x="261.775391"/>
      <use xlink:href="#DejaVuSans-5f" x="323.298828"/>
      <use xlink:href="#DejaVuSans-72" x="373.298828"/>
      <use xlink:href="#DejaVuSans-65" x="412.162109"/>
      <use xlink:href="#DejaVuSans-63" x="473.685547"/>
      <use xlink:href="#DejaVuSans-74" x="528.666016"/>
      <use xlink:href="#DejaVuSans-73" x="567.875"/>
      <use xlink:href="#DejaVuSans-5f" x="619.974609"/>
      <use xlink:href="#DejaVuSans-74" x="669.974609"/>
      <use xlink:href="#DejaVuSans-68" x="709.183594"/>
      <use xlink:href="#DejaVuSans-65" x="772.5625"/>
      <use xlink:href="#DejaVuSans-6e" x="834.085938"/>
      <use xlink:href="#DejaVuSans-5f" x="897.464844"/>
      <use xlink:href="#DejaVuSans-61" x="947.464844"/>
      <use xlink:href="#DejaVuSans-64" x="1008.744141"/>
      <use xlink:href="#DejaVuSans-64" x="1072.220703"/>
      <use xlink:href="#DejaVuSans-5f" x="1135.697266"/>
      <use xlink:href="#DejaVuSans-72" x="1185.697266"/>
      <use xlink:href="#DejaVuSans-61" x="1226.810547"/>
      <use xlink:href="#DejaVuSans-6e" x="1288.089844"/>
      <use xlink:href="#DejaVuSans-67" x="1351.46875"/>
      <use xlink:href="#DejaVuSans-65" x="1414.945312"/>
      <use xlink:href="#DejaVuSans-73" x="1476.46875"/>
     </g>
    </g>
    <g id="patch_14">
     <path d="M 719.536625 128.214063 
L 739.536625 128.214063 
L 739.536625 121.214063 
L 719.536625 121.214063 
z
" style="fill: #e377c2; stroke: #e377c2; stroke-linejoin: miter"/>
    </g>
    <g id="text_18">
     <!-- runSFCPartitioner -->
     <g transform="translate(747.536625 128.214063) scale(0.1 -0.1)">
      <defs>
       <path id="DejaVuSans-53" d="M 3425 4513 
L 3425 3897 
Q 3066 4069 2747 4153 
Q 2428 4238 2131 4238 
Q 1616 4238 1336 4038 
Q 1056 3838 1056 3469 
Q 1056 3159 1242 3001 
Q 1428 2844 1947 2747 
L 2328 2669 
Q 3034 2534 3370 2195 
Q 3706 1856 3706 1288 
Q 3706 609 3251 259 
Q 2797 -91 1919 -91 
Q 1588 -91 1214 -16 
Q 841 59 441 206 
L 441 856 
Q 825 641 1194 531 
Q 1563 422 1919 422 
Q 2459 422 2753 634 
Q 3047 847 3047 1241 
Q 3047 1584 2836 1778 
Q 2625 1972 2144 2069 
L 1759 2144 
Q 1053 2284 737 2584 
Q 422 2884 422 3419 
Q 422 4038 858 4394 
Q 1294 4750 2059 4750 
Q 2388 4750 2728 4690 
Q 3069 4631 3425 4513 
z
" transform="scale(0.015625)"/>
       <path id="DejaVuSans-43" d="M 4122 4306 
L 4122 3641 
Q 3803 3938 3442 4084 
Q 3081 4231 2675 4231 
Q 1875 4231 1450 3742 
Q 1025 3253 1025 2328 
Q 1025 1406 1450 917 
Q 1875 428 2675 428 
Q 3081 428 3442 575 
Q 3803 722 4122 1019 
L 4122 359 
Q 3791 134 3420 21 
Q 3050 -91 2638 -91 
Q 1578 -91 968 557 
Q 359 1206 359 2328 
Q 359 3453 968 4101 
Q 1578 4750 2638 4750 
Q 3056 4750 3426 4639 
Q 3797 4528 4122 4306 
z
" transform="scale(0.015625)"/>
       <path id="DejaVuSans-50" d="M 1259 4147 
L 1259 2394 
L 2053 2394 
Q 2494 2394 2734 2622 
Q 2975 2850 2975 3272 
Q 2975 3691 2734 3919 
Q 2494 4147 2053 4147 
L 1259 4147 
z
M 628 4666 
L 2053 4666 
Q 2838 4666 3239 4311 
Q 3641 3956 3641 3272 
Q 3641 2581 3239 2228 
Q 2838 1875 2053 1875 
L 1259 1875 
L 1259 0 
L 628 0 
L 628 4666 
z
" transform="scale(0.015625)"/>
      </defs>
      <use xlink:href="#DejaVuSans-72"/>
      <use xlink:href="#DejaVuSans-75" x="41.113281"/>
      <use xlink:href="#DejaVuSans-6e" x="104.492188"/>
      <use xlink:href="#DejaVuSans-53" x="167.871094"/>
      <use xlink:href="#DejaVuSans-46" x="231.347656"/>
      <use xlink:href="#DejaVuSans-43" x="288.867188"/>
      <use xlink:href="#DejaVuSans-50" x="358.691406"/>
      <use xlink:href="#DejaVuSans-61" x="414.494141"/>
      <use xlink:href="#DejaVuSans-72" x="475.773438"/>
      <use xlink:href="#DejaVuSans-74" x="516.886719"/>
      <use xlink:href="#DejaVuSans-69" x="556.095703"/>
      <use xlink:href="#DejaVuSans-74" x="583.878906"/>
      <use xlink:href="#DejaVuSans-69" x="623.087891"/>
      <use xlink:href="#DejaVuSans-6f" x="650.871094"/>
      <use xlink:href="#DejaVuSans-6e" x="712.052734"/>
      <use xlink:href="#DejaVuSans-65" x="775.431641"/>
      <use xlink:href="#DejaVuSans-72" x="836.955078"/>
     </g>
    </g>
    <g id="patch_15">
     <path d="M 719.536625 142.892188 
L 739.536625 142.892188 
L 739.536625 135.892188 
L 719.536625 135.892188 
z
" style="fill: #7f7f7f; stroke: #7f7f7f; stroke-linejoin: miter"/>
    </g>
    <g id="text_19">
     <!-- sfc_2d -->
     <g transform="translate(747.536625 142.892188) scale(0.1 -0.1)">
      <use xlink:href="#DejaVuSans-73"/>
      <use xlink:href="#DejaVuSans-66" x="52.099609"/>
      <use xlink:href="#DejaVuSans-63" x="87.304688"/>
      <use xlink:href="#DejaVuSans-5f" x="142.285156"/>
      <use xlink:href="#DejaVuSans-32" x="192.285156"/>
      <use xlink:href="#DejaVuSans-64" x="255.908203"/>
     </g>
    </g>
    <g id="patch_16">
     <path d="M 719.536625 157.848437 
L 739.536625 157.848437 
L 739.536625 150.848437 
L 719.536625 150.848437 
z
" style="fill: #bcbd22; stroke: #bcbd22; stroke-linejoin: miter"/>
    </g>
    <g id="text_20">
     <!-- switch -->
     <g transform="translate(747.536625 157.848437) scale(0.1 -0.1)">
      <use xlink:href="#DejaVuSans-73"/>
      <use xlink:href="#DejaVuSans-77" x="52.099609"/>
      <use xlink:href="#DejaVuSans-69" x="133.886719"/>
      <use xlink:href="#DejaVuSans-74" x="161.669922"/>
      <use xlink:href="#DejaVuSans-63" x="200.878906"/>
      <use xlink:href="#DejaVuSans-68" x="255.859375"/>
     </g>
    </g>
   </g>
   <g id="BrokenBarHCollection_1">
    <path d="M 34.24054 38.086154 
L 34.24054 61.347692 
L 703.840515 61.347692 
L 703.840515 38.086154 
L 34.24054 38.086154 
z
" clip-path="url(#pb745db42a7)" style="fill: #9467bd"/>
   </g>
   <g id="BrokenBarHCollection_2">
    <path d="M 34.243835 89.778462 
L 34.243835 113.04 
L 703.665405 113.04 
L 703.665405 89.778462 
L 34.243835 89.778462 
z
" clip-path="url(#pb745db42a7)" style="fill: #9467bd"/>
   </g>
   <g id="BrokenBarHCollection_3">
    <path d="M 34.247742 63.932308 
L 34.247742 87.193846 
L 703.836609 87.193846 
L 703.836609 63.932308 
L 34.247742 63.932308 
z
" clip-path="url(#pb745db42a7)" style="fill: #9467bd"/>
   </g>
   <g id="BrokenBarHCollection_4">
    <path d="M 34.250793 12.24 
L 34.250793 35.501538 
L 703.775757 35.501538 
L 703.775757 12.24 
L 34.250793 12.24 
z
" clip-path="url(#pb745db42a7)" style="fill: #9467bd"/>
   </g>
   <g id="BrokenBarHCollection_5">
    <path d="M 34.250793 38.086154 
L 34.250793 61.347692 
L 34.333618 61.347692 
L 34.333618 38.086154 
L 34.250793 38.086154 
z
" clip-path="url(#pb745db42a7)" style="fill: #bcbd22"/>
   </g>
   <g id="BrokenBarHCollection_6">
    <path d="M 34.251404 89.778462 
L 34.251404 113.04 
L 34.332825 113.04 
L 34.332825 89.778462 
L 34.251404 89.778462 
z
" clip-path="url(#pb745db42a7)" style="fill: #bcbd22"/>
   </g>
   <g id="BrokenBarHCollection_7">
    <path d="M 34.255005 63.932308 
L 34.255005 87.193846 
L 34.332275 87.193846 
L 34.332275 63.932308 
L 34.255005 63.932308 
z
" clip-path="url(#pb745db42a7)" style="fill: #bcbd22"/>
   </g>
   <g id="BrokenBarHCollection_8">
    <path d="M 34.261108 12.24 
L 34.261108 35.501538 
L 34.331116 35.501538 
L 34.331116 12.24 
L 34.261108 12.24 
z
" clip-path="url(#pb745db42a7)" style="fill: #bcbd22"/>
   </g>
   <g id="BrokenBarHCollection_9">
    <path d="M 45.861084 12.24 
L 45.861084 35.501538 
L 80.513428 35.501538 
L 80.513428 12.24 
L 45.861084 12.24 
z
" clip-path="url(#pb745db42a7)" style="fill: #bcbd22"/>
   </g>
   <g id="BrokenBarHCollection_10">
    <path d="M 57.392151 38.086154 
L 57.392151 61.347692 
L 80.514587 61.347692 
L 80.514587 38.086154 
L 57.392151 38.086154 
z
" clip-path="url(#pb745db42a7)" style="fill: #bcbd22"/>
   </g>
   <g id="BrokenBarHCollection_11">
    <path d="M 68.912415 63.932308 
L 68.912415 87.193846 
L 80.51123 87.193846 
L 80.51123 63.932308 
L 68.912415 63.932308 
z
" clip-path="url(#pb745db42a7)" style="fill: #bcbd22"/>
   </g>
   <g id="BrokenBarHCollection_12">
    <path d="M 80.445374 89.778462 
L 80.445374 113.04 
L 80.510132 113.04 
L 80.510132 89.778462 
L 80.445374 89.778462 
z
" clip-path="url(#pb745db42a7)" style="fill: #bcbd22"/>
   </g>
   <g id="BrokenBarHCollection_13">
    <path d="M 92.042603 12.24 
L 92.042603 35.501538 
L 126.752197 35.501538 
L 126.752197 12.24 
L 92.042603 12.24 
z
" clip-path="url(#pb745db42a7)" style="fill: #bcbd22"/>
   </g>
   <g id="BrokenBarHCollection_14">
    <path d="M 103.563416 38.086154 
L 103.563416 61.347692 
L 126.755005 61.347692 
L 126.755005 38.086154 
L 103.563416 38.086154 
z
" clip-path="url(#pb745db42a7)" style="fill: #bcbd22"/>
   </g>
   <g id="BrokenBarHCollection_15">
    <path d="M 115.43988 63.932308 
L 115.43988 87.193846 
L 126.754761 87.193846 
L 126.754761 63.932308 
L 115.43988 63.932308 
z
" clip-path="url(#pb745db42a7)" style="fill: #bcbd22"/>
   </g>
   <g id="BrokenBarHCollection_16">
    <path d="M 126.738281 89.778462 
L 126.738281 113.04 
L 126.751343 113.04 
L 126.751343 89.778462 
L 126.738281 89.778462 
z
" clip-path="url(#pb745db42a7)" style="fill: #bcbd22"/>
   </g>
   <g id="BrokenBarHCollection_17">
    <path d="M 138.281921 12.24 
L 138.281921 35.501538 
L 192.411804 35.501538 
L 192.411804 12.24 
L 138.281921 12.24 
z
" clip-path="url(#pb745db42a7)" style="fill: #2ca02c"/>
   </g>
   <g id="BrokenBarHCollection_18">
    <path d="M 138.282715 12.24 
L 138.282715 35.501538 
L 172.843384 35.501538 
L 172.843384 12.24 
L 138.282715 12.24 
z
" clip-path="url(#pb745db42a7)" style="fill: #1f77b4"/>
   </g>
   <g id="BrokenBarHCollection_19">
    <path d="M 149.812683 38.086154 
L 149.812683 61.347692 
L 192.402405 61.347692 
L 192.402405 38.086154 
L 149.812683 38.086154 
z
" clip-path="url(#pb745db42a7)" style="fill: #2ca02c"/>
   </g>
   <g id="BrokenBarHCollection_20">
    <path d="M 149.813232 38.086154 
L 149.813232 61.347692 
L 172.84198 61.347692 
L 172.84198 38.086154 
L 149.813232 38.086154 
z
" clip-path="url(#pb745db42a7)" style="fill: #1f77b4"/>
   </g>
   <g id="BrokenBarHCollection_21">
    <path d="M 161.330383 63.932308 
L 161.330383 87.193846 
L 192.446838 87.193846 
L 192.446838 63.932308 
L 161.330383 63.932308 
z
" clip-path="url(#pb745db42a7)" style="fill: #2ca02c"/>
   </g>
   <g id="BrokenBarHCollection_22">
    <path d="M 161.330994 63.932308 
L 161.330994 87.193846 
L 172.840576 87.193846 
L 172.840576 63.932308 
L 161.330994 63.932308 
z
" clip-path="url(#pb745db42a7)" style="fill: #1f77b4"/>
   </g>
   <g id="BrokenBarHCollection_23">
    <path d="M 172.808899 89.778462 
L 172.808899 113.04 
L 192.454895 113.04 
L 192.454895 89.778462 
L 172.808899 89.778462 
z
" clip-path="url(#pb745db42a7)" style="fill: #2ca02c"/>
   </g>
   <g id="BrokenBarHCollection_24">
    <path d="M 172.809509 89.778462 
L 172.809509 113.04 
L 172.841736 113.04 
L 172.841736 89.778462 
L 172.809509 89.778462 
z
" clip-path="url(#pb745db42a7)" style="fill: #1f77b4"/>
   </g>
   <g id="BrokenBarHCollection_25">
    <path d="M 172.840942 63.932308 
L 172.840942 87.193846 
L 173.808594 87.193846 
L 173.808594 63.932308 
L 172.840942 63.932308 
z
" clip-path="url(#pb745db42a7)" style="fill: #ff7f0e"/>
   </g>
   <g id="BrokenBarHCollection_26">
    <path d="M 172.841736 89.778462 
L 172.841736 113.04 
L 173.804993 113.04 
L 173.804993 89.778462 
L 172.841736 89.778462 
z
" clip-path="url(#pb745db42a7)" style="fill: #ff7f0e"/>
   </g>
   <g id="BrokenBarHCollection_27">
    <path d="M 172.84198 38.086154 
L 172.84198 61.347692 
L 173.795532 61.347692 
L 173.795532 38.086154 
L 172.84198 38.086154 
z
" clip-path="url(#pb745db42a7)" style="fill: #ff7f0e"/>
   </g>
   <g id="BrokenBarHCollection_28">
    <path d="M 172.843384 12.24 
L 172.843384 35.501538 
L 173.80304 35.501538 
L 173.80304 12.24 
L 172.843384 12.24 
z
" clip-path="url(#pb745db42a7)" style="fill: #ff7f0e"/>
   </g>
   <g id="BrokenBarHCollection_29">
    <path d="M 173.796082 38.086154 
L 173.796082 61.347692 
L 192.400146 61.347692 
L 192.400146 38.086154 
L 173.796082 38.086154 
z
" clip-path="url(#pb745db42a7)" style="fill: #7f7f7f"/>
   </g>
   <g id="BrokenBarHCollection_30">
    <path d="M 173.796082 38.086154 
L 173.796082 61.347692 
L 192.400146 61.347692 
L 192.400146 38.086154 
L 173.796082 38.086154 
z
" clip-path="url(#pb745db42a7)" style="fill: #e377c2"/>
   </g>
   <g id="BrokenBarHCollection_31">
    <path d="M 173.803589 12.24 
L 173.803589 35.501538 
L 192.409851 35.501538 
L 192.409851 12.24 
L 173.803589 12.24 
z
" clip-path="url(#pb745db42a7)" style="fill: #7f7f7f"/>
   </g>
   <g id="BrokenBarHCollection_32">
    <path d="M 173.803589 12.24 
L 173.803589 35.501538 
L 192.409851 35.501538 
L 192.409851 12.24 
L 173.803589 12.24 
z
" clip-path="url(#pb745db42a7)" style="fill: #e377c2"/>
   </g>
   <g id="BrokenBarHCollection_33">
    <path d="M 173.805542 89.778462 
L 173.805542 113.04 
L 192.452393 113.04 
L 192.452393 89.778462 
L 173.805542 89.778462 
z
" clip-path="url(#pb745db42a7)" style="fill: #e377c2"/>
   </g>
   <g id="BrokenBarHCollection_34">
    <path d="M 173.805786 89.778462 
L 173.805786 113.04 
L 192.452393 113.04 
L 192.452393 89.778462 
L 173.805786 89.778462 
z
" clip-path="url(#pb745db42a7)" style="fill: #7f7f7f"/>
   </g>
   <g id="BrokenBarHCollection_35">
    <path d="M 173.809204 63.932308 
L 173.809204 87.193846 
L 192.44458 87.193846 
L 192.44458 63.932308 
L 173.809204 63.932308 
z
" clip-path="url(#pb745db42a7)" style="fill: #e377c2"/>
   </g>
   <g id="BrokenBarHCollection_36">
    <path d="M 173.809204 63.932308 
L 173.809204 87.193846 
L 192.444336 87.193846 
L 192.444336 63.932308 
L 173.809204 63.932308 
z
" clip-path="url(#pb745db42a7)" style="fill: #7f7f7f"/>
   </g>
   <g id="BrokenBarHCollection_37">
    <path d="M 187.608887 38.086154 
L 187.608887 61.347692 
L 192.400146 61.347692 
L 192.400146 38.086154 
L 187.608887 38.086154 
z
" clip-path="url(#pb745db42a7)" style="fill: #8c564b"/>
   </g>
   <g id="BrokenBarHCollection_38">
    <path d="M 187.613342 12.24 
L 187.613342 35.501538 
L 192.409607 35.501538 
L 192.409607 12.24 
L 187.613342 12.24 
z
" clip-path="url(#pb745db42a7)" style="fill: #8c564b"/>
   </g>
   <g id="BrokenBarHCollection_39">
    <path d="M 187.646912 63.932308 
L 187.646912 87.193846 
L 192.444336 87.193846 
L 192.444336 63.932308 
L 187.646912 63.932308 
z
" clip-path="url(#pb745db42a7)" style="fill: #8c564b"/>
   </g>
   <g id="BrokenBarHCollection_40">
    <path d="M 187.650818 89.778462 
L 187.650818 113.04 
L 192.452148 113.04 
L 192.452148 89.778462 
L 187.650818 89.778462 
z
" clip-path="url(#pb745db42a7)" style="fill: #8c564b"/>
   </g>
   <g id="BrokenBarHCollection_41">
    <path d="M 192.404541 38.086154 
L 192.404541 61.347692 
L 192.738098 61.347692 
L 192.738098 38.086154 
L 192.404541 38.086154 
z
" clip-path="url(#pb745db42a7)" style="fill: #d62728"/>
   </g>
   <g id="BrokenBarHCollection_42">
    <path d="M 192.414062 12.24 
L 192.414062 35.501538 
L 192.600464 35.501538 
L 192.600464 12.24 
L 192.414062 12.24 
z
" clip-path="url(#pb745db42a7)" style="fill: #d62728"/>
   </g>
   <g id="BrokenBarHCollection_43">
    <path d="M 192.448486 63.932308 
L 192.448486 87.193846 
L 192.737793 87.193846 
L 192.737793 63.932308 
L 192.448486 63.932308 
z
" clip-path="url(#pb745db42a7)" style="fill: #d62728"/>
   </g>
   <g id="BrokenBarHCollection_44">
    <path d="M 192.457092 89.778462 
L 192.457092 113.04 
L 192.778931 113.04 
L 192.778931 89.778462 
L 192.457092 89.778462 
z
" clip-path="url(#pb745db42a7)" style="fill: #d62728"/>
   </g>
   <g id="BrokenBarHCollection_45">
    <path d="M 192.600464 12.24 
L 192.600464 35.501538 
L 192.601379 35.501538 
L 192.601379 12.24 
L 192.600464 12.24 
z
" clip-path="url(#pb745db42a7)" style="fill: #d62728"/>
   </g>
   <g id="BrokenBarHCollection_46">
    <path d="M 192.601624 12.24 
L 192.601624 35.501538 
L 192.809814 35.501538 
L 192.809814 12.24 
L 192.601624 12.24 
z
" clip-path="url(#pb745db42a7)" style="fill: #bcbd22"/>
   </g>
   <g id="BrokenBarHCollection_47">
    <path d="M 192.737793 63.932308 
L 192.737793 87.193846 
L 192.738892 87.193846 
L 192.738892 63.932308 
L 192.737793 63.932308 
z
" clip-path="url(#pb745db42a7)" style="fill: #d62728"/>
   </g>
   <g id="BrokenBarHCollection_48">
    <path d="M 192.738098 38.086154 
L 192.738098 61.347692 
L 192.738892 61.347692 
L 192.738892 38.086154 
L 192.738098 38.086154 
z
" clip-path="url(#pb745db42a7)" style="fill: #d62728"/>
   </g>
   <g id="BrokenBarHCollection_49">
    <path d="M 192.738892 63.932308 
L 192.738892 87.193846 
L 192.80896 87.193846 
L 192.80896 63.932308 
L 192.738892 63.932308 
z
" clip-path="url(#pb745db42a7)" style="fill: #bcbd22"/>
   </g>
   <g id="BrokenBarHCollection_50">
    <path d="M 192.738892 38.086154 
L 192.738892 61.347692 
L 192.8078 61.347692 
L 192.8078 38.086154 
L 192.738892 38.086154 
z
" clip-path="url(#pb745db42a7)" style="fill: #bcbd22"/>
   </g>
   <g id="BrokenBarHCollection_51">
    <path d="M 192.778931 89.778462 
L 192.778931 113.04 
L 192.788696 113.04 
L 192.788696 89.778462 
L 192.778931 89.778462 
z
" clip-path="url(#pb745db42a7)" style="fill: #d62728"/>
   </g>
   <g id="BrokenBarHCollection_52">
    <path d="M 192.788696 89.778462 
L 192.788696 113.04 
L 192.809204 113.04 
L 192.809204 89.778462 
L 192.788696 89.778462 
z
" clip-path="url(#pb745db42a7)" style="fill: #bcbd22"/>
   </g>
   <g id="BrokenBarHCollection_53">
    <path d="M 210.165955 38.086154 
L 210.165955 61.347692 
L 231.269897 61.347692 
L 231.269897 38.086154 
L 210.165955 38.086154 
z
" clip-path="url(#pb745db42a7)" style="fill: #bcbd22"/>
   </g>
   <g id="BrokenBarHCollection_54">
    <path d="M 212.891541 12.24 
L 212.891541 35.501538 
L 231.270203 35.501538 
L 231.270203 12.24 
L 212.891541 12.24 
z
" clip-path="url(#pb745db42a7)" style="fill: #bcbd22"/>
   </g>
   <g id="BrokenBarHCollection_55">
    <path d="M 216.020569 63.932308 
L 216.020569 87.193846 
L 231.271301 87.193846 
L 231.271301 63.932308 
L 216.020569 63.932308 
z
" clip-path="url(#pb745db42a7)" style="fill: #bcbd22"/>
   </g>
   <g id="BrokenBarHCollection_56">
    <path d="M 231.249939 89.778462 
L 231.249939 113.04 
L 231.268799 113.04 
L 231.268799 89.778462 
L 231.249939 89.778462 
z
" clip-path="url(#pb745db42a7)" style="fill: #bcbd22"/>
   </g>
   <g id="BrokenBarHCollection_57">
    <path d="M 248.643311 38.086154 
L 248.643311 61.347692 
L 269.737549 61.347692 
L 269.737549 38.086154 
L 248.643311 38.086154 
z
" clip-path="url(#pb745db42a7)" style="fill: #bcbd22"/>
   </g>
   <g id="BrokenBarHCollection_58">
    <path d="M 251.337219 12.24 
L 251.337219 35.501538 
L 269.740051 35.501538 
L 269.740051 12.24 
L 251.337219 12.24 
z
" clip-path="url(#pb745db42a7)" style="fill: #bcbd22"/>
   </g>
   <g id="BrokenBarHCollection_59">
    <path d="M 254.491028 63.932308 
L 254.491028 87.193846 
L 269.744202 87.193846 
L 269.744202 63.932308 
L 254.491028 63.932308 
z
" clip-path="url(#pb745db42a7)" style="fill: #bcbd22"/>
   </g>
   <g id="BrokenBarHCollection_60">
    <path d="M 269.715881 89.778462 
L 269.715881 113.04 
L 269.74054 113.04 
L 269.74054 89.778462 
L 269.715881 89.778462 
z
" clip-path="url(#pb745db42a7)" style="fill: #bcbd22"/>
   </g>
   <g id="BrokenBarHCollection_61">
    <path d="M 287.102661 38.086154 
L 287.102661 61.347692 
L 327.281433 61.347692 
L 327.281433 38.086154 
L 287.102661 38.086154 
z
" clip-path="url(#pb745db42a7)" style="fill: #2ca02c"/>
   </g>
   <g id="BrokenBarHCollection_62">
    <path d="M 287.102905 38.086154 
L 287.102905 61.347692 
L 308.165161 61.347692 
L 308.165161 38.086154 
L 287.102905 38.086154 
z
" clip-path="url(#pb745db42a7)" style="fill: #1f77b4"/>
   </g>
   <g id="BrokenBarHCollection_63">
    <path d="M 289.815918 12.24 
L 289.815918 35.501538 
L 327.118835 35.501538 
L 327.118835 12.24 
L 289.815918 12.24 
z
" clip-path="url(#pb745db42a7)" style="fill: #2ca02c"/>
   </g>
   <g id="BrokenBarHCollection_64">
    <path d="M 289.816223 12.24 
L 289.816223 35.501538 
L 308.172363 35.501538 
L 308.172363 12.24 
L 289.816223 12.24 
z
" clip-path="url(#pb745db42a7)" style="fill: #1f77b4"/>
   </g>
   <g id="BrokenBarHCollection_65">
    <path d="M 292.958862 63.932308 
L 292.958862 87.193846 
L 327.102966 87.193846 
L 327.102966 63.932308 
L 292.958862 63.932308 
z
" clip-path="url(#pb745db42a7)" style="fill: #2ca02c"/>
   </g>
   <g id="BrokenBarHCollection_66">
    <path d="M 292.958862 63.932308 
L 292.958862 87.193846 
L 308.164551 87.193846 
L 308.164551 63.932308 
L 292.958862 63.932308 
z
" clip-path="url(#pb745db42a7)" style="fill: #1f77b4"/>
   </g>
   <g id="BrokenBarHCollection_67">
    <path d="M 308.159607 89.778462 
L 308.159607 113.04 
L 327.44812 113.04 
L 327.44812 89.778462 
L 308.159607 89.778462 
z
" clip-path="url(#pb745db42a7)" style="fill: #2ca02c"/>
   </g>
   <g id="BrokenBarHCollection_68">
    <path d="M 308.159851 89.778462 
L 308.159851 113.04 
L 308.164917 113.04 
L 308.164917 89.778462 
L 308.159851 89.778462 
z
" clip-path="url(#pb745db42a7)" style="fill: #1f77b4"/>
   </g>
   <g id="BrokenBarHCollection_69">
    <path d="M 308.164551 63.932308 
L 308.164551 87.193846 
L 308.972229 87.193846 
L 308.972229 63.932308 
L 308.164551 63.932308 
z
" clip-path="url(#pb745db42a7)" style="fill: #ff7f0e"/>
   </g>
   <g id="BrokenBarHCollection_70">
    <path d="M 308.164917 89.778462 
L 308.164917 113.04 
L 308.972229 113.04 
L 308.972229 89.778462 
L 308.164917 89.778462 
z
" clip-path="url(#pb745db42a7)" style="fill: #ff7f0e"/>
   </g>
   <g id="BrokenBarHCollection_71">
    <path d="M 308.165405 38.086154 
L 308.165405 61.347692 
L 308.93689 61.347692 
L 308.93689 38.086154 
L 308.165405 38.086154 
z
" clip-path="url(#pb745db42a7)" style="fill: #ff7f0e"/>
   </g>
   <g id="BrokenBarHCollection_72">
    <path d="M 308.172363 12.24 
L 308.172363 35.501538 
L 308.93689 35.501538 
L 308.93689 12.24 
L 308.172363 12.24 
z
" clip-path="url(#pb745db42a7)" style="fill: #ff7f0e"/>
   </g>
   <g id="BrokenBarHCollection_73">
    <path d="M 308.9375 38.086154 
L 308.9375 61.347692 
L 327.27887 61.347692 
L 327.27887 38.086154 
L 308.9375 38.086154 
z
" clip-path="url(#pb745db42a7)" style="fill: #7f7f7f"/>
   </g>
   <g id="BrokenBarHCollection_74">
    <path d="M 308.9375 38.086154 
L 308.9375 61.347692 
L 327.27887 61.347692 
L 327.27887 38.086154 
L 308.9375 38.086154 
z
" clip-path="url(#pb745db42a7)" style="fill: #e377c2"/>
   </g>
   <g id="BrokenBarHCollection_75">
    <path d="M 308.9375 12.24 
L 308.9375 35.501538 
L 327.116272 35.501538 
L 327.116272 12.24 
L 308.9375 12.24 
z
" clip-path="url(#pb745db42a7)" style="fill: #7f7f7f"/>
   </g>
   <g id="BrokenBarHCollection_76">
    <path d="M 308.9375 12.24 
L 308.9375 35.501538 
L 327.116272 35.501538 
L 327.116272 12.24 
L 308.9375 12.24 
z
" clip-path="url(#pb745db42a7)" style="fill: #e377c2"/>
   </g>
   <g id="BrokenBarHCollection_77">
    <path d="M 308.972473 63.932308 
L 308.972473 87.193846 
L 327.100464 87.193846 
L 327.100464 63.932308 
L 308.972473 63.932308 
z
" clip-path="url(#pb745db42a7)" style="fill: #7f7f7f"/>
   </g>
   <g id="BrokenBarHCollection_78">
    <path d="M 308.972473 63.932308 
L 308.972473 87.193846 
L 327.100464 87.193846 
L 327.100464 63.932308 
L 308.972473 63.932308 
z
" clip-path="url(#pb745db42a7)" style="fill: #e377c2"/>
   </g>
   <g id="BrokenBarHCollection_79">
    <path d="M 308.972778 89.778462 
L 308.972778 113.04 
L 327.445923 113.04 
L 327.445923 89.778462 
L 308.972778 89.778462 
z
" clip-path="url(#pb745db42a7)" style="fill: #7f7f7f"/>
   </g>
   <g id="BrokenBarHCollection_80">
    <path d="M 308.972778 89.778462 
L 308.972778 113.04 
L 327.445923 113.04 
L 327.445923 89.778462 
L 308.972778 89.778462 
z
" clip-path="url(#pb745db42a7)" style="fill: #e377c2"/>
   </g>
   <g id="BrokenBarHCollection_81">
    <path d="M 322.612671 63.932308 
L 322.612671 87.193846 
L 327.100464 87.193846 
L 327.100464 63.932308 
L 322.612671 63.932308 
z
" clip-path="url(#pb745db42a7)" style="fill: #8c564b"/>
   </g>
   <g id="BrokenBarHCollection_82">
    <path d="M 322.61322 12.24 
L 322.61322 35.501538 
L 327.116272 35.501538 
L 327.116272 12.24 
L 322.61322 12.24 
z
" clip-path="url(#pb745db42a7)" style="fill: #8c564b"/>
   </g>
   <g id="BrokenBarHCollection_83">
    <path d="M 322.771057 38.086154 
L 322.771057 61.347692 
L 327.27887 61.347692 
L 327.27887 38.086154 
L 322.771057 38.086154 
z
" clip-path="url(#pb745db42a7)" style="fill: #8c564b"/>
   </g>
   <g id="BrokenBarHCollection_84">
    <path d="M 322.94342 89.778462 
L 322.94342 113.04 
L 327.445679 113.04 
L 327.445679 89.778462 
L 322.94342 89.778462 
z
" clip-path="url(#pb745db42a7)" style="fill: #8c564b"/>
   </g>
   <g id="BrokenBarHCollection_85">
    <path d="M 327.105225 63.932308 
L 327.105225 87.193846 
L 327.544617 87.193846 
L 327.544617 63.932308 
L 327.105225 63.932308 
z
" clip-path="url(#pb745db42a7)" style="fill: #d62728"/>
   </g>
   <g id="BrokenBarHCollection_86">
    <path d="M 327.120728 12.24 
L 327.120728 35.501538 
L 327.37085 35.501538 
L 327.37085 12.24 
L 327.120728 12.24 
z
" clip-path="url(#pb745db42a7)" style="fill: #d62728"/>
   </g>
   <g id="BrokenBarHCollection_87">
    <path d="M 327.28363 38.086154 
L 327.28363 61.347692 
L 327.382507 61.347692 
L 327.382507 38.086154 
L 327.28363 38.086154 
z
" clip-path="url(#pb745db42a7)" style="fill: #d62728"/>
   </g>
   <g id="BrokenBarHCollection_88">
    <path d="M 327.37085 12.24 
L 327.37085 35.501538 
L 327.372009 35.501538 
L 327.372009 12.24 
L 327.37085 12.24 
z
" clip-path="url(#pb745db42a7)" style="fill: #d62728"/>
   </g>
   <g id="BrokenBarHCollection_89">
    <path d="M 327.372009 12.24 
L 327.372009 35.501538 
L 327.587952 35.501538 
L 327.587952 12.24 
L 327.372009 12.24 
z
" clip-path="url(#pb745db42a7)" style="fill: #bcbd22"/>
   </g>
   <g id="BrokenBarHCollection_90">
    <path d="M 327.382507 38.086154 
L 327.382507 61.347692 
L 327.383911 61.347692 
L 327.383911 38.086154 
L 327.382507 38.086154 
z
" clip-path="url(#pb745db42a7)" style="fill: #d62728"/>
   </g>
   <g id="BrokenBarHCollection_91">
    <path d="M 327.384277 38.086154 
L 327.384277 61.347692 
L 327.582397 61.347692 
L 327.582397 38.086154 
L 327.384277 38.086154 
z
" clip-path="url(#pb745db42a7)" style="fill: #bcbd22"/>
   </g>
   <g id="BrokenBarHCollection_92">
    <path d="M 327.450378 89.778462 
L 327.450378 113.04 
L 327.502625 113.04 
L 327.502625 89.778462 
L 327.450378 89.778462 
z
" clip-path="url(#pb745db42a7)" style="fill: #d62728"/>
   </g>
   <g id="BrokenBarHCollection_93">
    <path d="M 327.502625 89.778462 
L 327.502625 113.04 
L 327.503967 113.04 
L 327.503967 89.778462 
L 327.502625 89.778462 
z
" clip-path="url(#pb745db42a7)" style="fill: #d62728"/>
   </g>
   <g id="BrokenBarHCollection_94">
    <path d="M 327.503967 89.778462 
L 327.503967 113.04 
L 327.567078 113.04 
L 327.567078 89.778462 
L 327.503967 89.778462 
z
" clip-path="url(#pb745db42a7)" style="fill: #bcbd22"/>
   </g>
   <g id="BrokenBarHCollection_95">
    <path d="M 327.544617 63.932308 
L 327.544617 87.193846 
L 327.546509 87.193846 
L 327.546509 63.932308 
L 327.544617 63.932308 
z
" clip-path="url(#pb745db42a7)" style="fill: #d62728"/>
   </g>
   <g id="BrokenBarHCollection_96">
    <path d="M 327.546509 63.932308 
L 327.546509 87.193846 
L 327.575439 87.193846 
L 327.575439 63.932308 
L 327.546509 63.932308 
z
" clip-path="url(#pb745db42a7)" style="fill: #bcbd22"/>
   </g>
   <g id="BrokenBarHCollection_97">
    <path d="M 348.246582 38.086154 
L 348.246582 61.347692 
L 350.000244 61.347692 
L 350.000244 38.086154 
L 348.246582 38.086154 
z
" clip-path="url(#pb745db42a7)" style="fill: #bcbd22"/>
   </g>
   <g id="BrokenBarHCollection_98">
    <path d="M 348.998108 63.932308 
L 348.998108 87.193846 
L 352.548218 87.193846 
L 352.548218 63.932308 
L 348.998108 63.932308 
z
" clip-path="url(#pb745db42a7)" style="fill: #bcbd22"/>
   </g>
   <g id="BrokenBarHCollection_99">
    <path d="M 349.979736 12.24 
L 349.979736 35.501538 
L 352.548767 35.501538 
L 352.548767 12.24 
L 349.979736 12.24 
z
" clip-path="url(#pb745db42a7)" style="fill: #bcbd22"/>
   </g>
   <g id="BrokenBarHCollection_100">
    <path d="M 352.529602 89.778462 
L 352.529602 113.04 
L 352.545715 113.04 
L 352.545715 89.778462 
L 352.529602 89.778462 
z
" clip-path="url(#pb745db42a7)" style="fill: #bcbd22"/>
   </g>
   <g id="BrokenBarHCollection_101">
    <path d="M 370.648743 38.086154 
L 370.648743 61.347692 
L 374.961975 61.347692 
L 374.961975 38.086154 
L 370.648743 38.086154 
z
" clip-path="url(#pb745db42a7)" style="fill: #bcbd22"/>
   </g>
   <g id="BrokenBarHCollection_102">
    <path d="M 373.970398 63.932308 
L 373.970398 87.193846 
L 377.531616 87.193846 
L 377.531616 63.932308 
L 373.970398 63.932308 
z
" clip-path="url(#pb745db42a7)" style="fill: #bcbd22"/>
   </g>
   <g id="BrokenBarHCollection_103">
    <path d="M 374.940308 12.24 
L 374.940308 35.501538 
L 377.530762 35.501538 
L 377.530762 12.24 
L 374.940308 12.24 
z
" clip-path="url(#pb745db42a7)" style="fill: #bcbd22"/>
   </g>
   <g id="BrokenBarHCollection_104">
    <path d="M 377.514404 89.778462 
L 377.514404 113.04 
L 377.529358 113.04 
L 377.529358 89.778462 
L 377.514404 89.778462 
z
" clip-path="url(#pb745db42a7)" style="fill: #bcbd22"/>
   </g>
   <g id="BrokenBarHCollection_105">
    <path d="M 395.621216 38.086154 
L 395.621216 61.347692 
L 421.096741 61.347692 
L 421.096741 38.086154 
L 395.621216 38.086154 
z
" clip-path="url(#pb745db42a7)" style="fill: #2ca02c"/>
   </g>
   <g id="BrokenBarHCollection_106">
    <path d="M 395.62146 38.086154 
L 395.62146 61.347692 
L 402.513306 61.347692 
L 402.513306 38.086154 
L 395.62146 38.086154 
z
" clip-path="url(#pb745db42a7)" style="fill: #1f77b4"/>
   </g>
   <g id="BrokenBarHCollection_107">
    <path d="M 398.948181 63.932308 
L 398.948181 87.193846 
L 421.041748 87.193846 
L 421.041748 63.932308 
L 398.948181 63.932308 
z
" clip-path="url(#pb745db42a7)" style="fill: #2ca02c"/>
   </g>
   <g id="BrokenBarHCollection_108">
    <path d="M 398.948181 63.932308 
L 398.948181 87.193846 
L 402.511353 87.193846 
L 402.511353 63.932308 
L 398.948181 63.932308 
z
" clip-path="url(#pb745db42a7)" style="fill: #1f77b4"/>
   </g>
   <g id="BrokenBarHCollection_109">
    <path d="M 399.920898 12.24 
L 399.920898 35.501538 
L 420.993408 35.501538 
L 420.993408 12.24 
L 399.920898 12.24 
z
" clip-path="url(#pb745db42a7)" style="fill: #2ca02c"/>
   </g>
   <g id="BrokenBarHCollection_110">
    <path d="M 399.921143 12.24 
L 399.921143 35.501538 
L 402.519409 35.501538 
L 402.519409 12.24 
L 399.921143 12.24 
z
" clip-path="url(#pb745db42a7)" style="fill: #1f77b4"/>
   </g>
   <g id="BrokenBarHCollection_111">
    <path d="M 402.506897 89.778462 
L 402.506897 113.04 
L 421.222961 113.04 
L 421.222961 89.778462 
L 402.506897 89.778462 
z
" clip-path="url(#pb745db42a7)" style="fill: #2ca02c"/>
   </g>
   <g id="BrokenBarHCollection_112">
    <path d="M 402.507141 89.778462 
L 402.507141 113.04 
L 402.512207 113.04 
L 402.512207 89.778462 
L 402.507141 89.778462 
z
" clip-path="url(#pb745db42a7)" style="fill: #1f77b4"/>
   </g>
   <g id="BrokenBarHCollection_113">
    <path d="M 402.511597 63.932308 
L 402.511597 87.193846 
L 403.238403 87.193846 
L 403.238403 63.932308 
L 402.511597 63.932308 
z
" clip-path="url(#pb745db42a7)" style="fill: #ff7f0e"/>
   </g>
   <g id="BrokenBarHCollection_114">
    <path d="M 402.512207 89.778462 
L 402.512207 113.04 
L 403.238647 113.04 
L 403.238647 89.778462 
L 402.512207 89.778462 
z
" clip-path="url(#pb745db42a7)" style="fill: #ff7f0e"/>
   </g>
   <g id="BrokenBarHCollection_115">
    <path d="M 402.513611 38.086154 
L 402.513611 61.347692 
L 403.200562 61.347692 
L 403.200562 38.086154 
L 402.513611 38.086154 
z
" clip-path="url(#pb745db42a7)" style="fill: #ff7f0e"/>
   </g>
   <g id="BrokenBarHCollection_116">
    <path d="M 402.519653 12.24 
L 402.519653 35.501538 
L 403.200562 35.501538 
L 403.200562 12.24 
L 402.519653 12.24 
z
" clip-path="url(#pb745db42a7)" style="fill: #ff7f0e"/>
   </g>
   <g id="BrokenBarHCollection_117">
    <path d="M 403.200867 12.24 
L 403.200867 35.501538 
L 420.990906 35.501538 
L 420.990906 12.24 
L 403.200867 12.24 
z
" clip-path="url(#pb745db42a7)" style="fill: #e377c2"/>
   </g>
   <g id="BrokenBarHCollection_118">
    <path d="M 403.201172 38.086154 
L 403.201172 61.347692 
L 421.094238 61.347692 
L 421.094238 38.086154 
L 403.201172 38.086154 
z
" clip-path="url(#pb745db42a7)" style="fill: #7f7f7f"/>
   </g>
   <g id="BrokenBarHCollection_119">
    <path d="M 403.201172 38.086154 
L 403.201172 61.347692 
L 421.094238 61.347692 
L 421.094238 38.086154 
L 403.201172 38.086154 
z
" clip-path="url(#pb745db42a7)" style="fill: #e377c2"/>
   </g>
   <g id="BrokenBarHCollection_120">
    <path d="M 403.201172 12.24 
L 403.201172 35.501538 
L 420.990906 35.501538 
L 420.990906 12.24 
L 403.201172 12.24 
z
" clip-path="url(#pb745db42a7)" style="fill: #7f7f7f"/>
   </g>
   <g id="BrokenBarHCollection_121">
    <path d="M 403.238953 63.932308 
L 403.238953 87.193846 
L 421.039246 87.193846 
L 421.039246 63.932308 
L 403.238953 63.932308 
z
" clip-path="url(#pb745db42a7)" style="fill: #7f7f7f"/>
   </g>
   <g id="BrokenBarHCollection_122">
    <path d="M 403.238953 63.932308 
L 403.238953 87.193846 
L 421.039246 87.193846 
L 421.039246 63.932308 
L 403.238953 63.932308 
z
" clip-path="url(#pb745db42a7)" style="fill: #e377c2"/>
   </g>
   <g id="BrokenBarHCollection_123">
    <path d="M 403.239197 89.778462 
L 403.239197 113.04 
L 421.220459 113.04 
L 421.220459 89.778462 
L 403.239197 89.778462 
z
" clip-path="url(#pb745db42a7)" style="fill: #7f7f7f"/>
   </g>
   <g id="BrokenBarHCollection_124">
    <path d="M 403.239197 89.778462 
L 403.239197 113.04 
L 421.220459 113.04 
L 421.220459 89.778462 
L 403.239197 89.778462 
z
" clip-path="url(#pb745db42a7)" style="fill: #e377c2"/>
   </g>
   <g id="BrokenBarHCollection_125">
    <path d="M 416.808228 12.24 
L 416.808228 35.501538 
L 420.990906 35.501538 
L 420.990906 12.24 
L 416.808228 12.24 
z
" clip-path="url(#pb745db42a7)" style="fill: #8c564b"/>
   </g>
   <g id="BrokenBarHCollection_126">
    <path d="M 416.854126 63.932308 
L 416.854126 87.193846 
L 421.039246 87.193846 
L 421.039246 63.932308 
L 416.854126 63.932308 
z
" clip-path="url(#pb745db42a7)" style="fill: #8c564b"/>
   </g>
   <g id="BrokenBarHCollection_127">
    <path d="M 416.909119 38.086154 
L 416.909119 61.347692 
L 421.094238 61.347692 
L 421.094238 38.086154 
L 416.909119 38.086154 
z
" clip-path="url(#pb745db42a7)" style="fill: #8c564b"/>
   </g>
   <g id="BrokenBarHCollection_128">
    <path d="M 417.01416 89.778462 
L 417.01416 113.04 
L 421.220459 113.04 
L 421.220459 89.778462 
L 417.01416 89.778462 
z
" clip-path="url(#pb745db42a7)" style="fill: #8c564b"/>
   </g>
   <g id="BrokenBarHCollection_129">
    <path d="M 420.995605 12.24 
L 420.995605 35.501538 
L 421.109558 35.501538 
L 421.109558 12.24 
L 420.995605 12.24 
z
" clip-path="url(#pb745db42a7)" style="fill: #d62728"/>
   </g>
   <g id="BrokenBarHCollection_130">
    <path d="M 421.043701 63.932308 
L 421.043701 87.193846 
L 421.253784 87.193846 
L 421.253784 63.932308 
L 421.043701 63.932308 
z
" clip-path="url(#pb745db42a7)" style="fill: #d62728"/>
   </g>
   <g id="BrokenBarHCollection_131">
    <path d="M 421.098694 38.086154 
L 421.098694 61.347692 
L 421.12146 61.347692 
L 421.12146 38.086154 
L 421.098694 38.086154 
z
" clip-path="url(#pb745db42a7)" style="fill: #d62728"/>
   </g>
   <g id="BrokenBarHCollection_132">
    <path d="M 421.109558 12.24 
L 421.109558 35.501538 
L 421.110413 35.501538 
L 421.110413 12.24 
L 421.109558 12.24 
z
" clip-path="url(#pb745db42a7)" style="fill: #d62728"/>
   </g>
   <g id="BrokenBarHCollection_133">
    <path d="M 421.110413 12.24 
L 421.110413 35.501538 
L 421.278015 35.501538 
L 421.278015 12.24 
L 421.110413 12.24 
z
" clip-path="url(#pb745db42a7)" style="fill: #bcbd22"/>
   </g>
   <g id="BrokenBarHCollection_134">
    <path d="M 421.12146 38.086154 
L 421.12146 61.347692 
L 421.122864 61.347692 
L 421.122864 38.086154 
L 421.12146 38.086154 
z
" clip-path="url(#pb745db42a7)" style="fill: #d62728"/>
   </g>
   <g id="BrokenBarHCollection_135">
    <path d="M 421.12323 38.086154 
L 421.12323 61.347692 
L 421.28241 61.347692 
L 421.28241 38.086154 
L 421.12323 38.086154 
z
" clip-path="url(#pb745db42a7)" style="fill: #bcbd22"/>
   </g>
   <g id="BrokenBarHCollection_136">
    <path d="M 421.225464 89.778462 
L 421.225464 113.04 
L 421.245972 113.04 
L 421.245972 89.778462 
L 421.225464 89.778462 
z
" clip-path="url(#pb745db42a7)" style="fill: #d62728"/>
   </g>
   <g id="BrokenBarHCollection_137">
    <path d="M 421.245972 89.778462 
L 421.245972 113.04 
L 421.247131 113.04 
L 421.247131 89.778462 
L 421.245972 89.778462 
z
" clip-path="url(#pb745db42a7)" style="fill: #d62728"/>
   </g>
   <g id="BrokenBarHCollection_138">
    <path d="M 421.247131 89.778462 
L 421.247131 113.04 
L 421.276855 113.04 
L 421.276855 89.778462 
L 421.247131 89.778462 
z
" clip-path="url(#pb745db42a7)" style="fill: #bcbd22"/>
   </g>
   <g id="BrokenBarHCollection_139">
    <path d="M 421.253784 63.932308 
L 421.253784 87.193846 
L 421.255188 87.193846 
L 421.255188 63.932308 
L 421.253784 63.932308 
z
" clip-path="url(#pb745db42a7)" style="fill: #d62728"/>
   </g>
   <g id="BrokenBarHCollection_140">
    <path d="M 421.255188 63.932308 
L 421.255188 87.193846 
L 421.280151 87.193846 
L 421.280151 63.932308 
L 421.255188 63.932308 
z
" clip-path="url(#pb745db42a7)" style="fill: #bcbd22"/>
   </g>
   <g id="BrokenBarHCollection_141">
    <path d="M 443.023865 63.932308 
L 443.023865 87.193846 
L 443.675842 87.193846 
L 443.675842 63.932308 
L 443.023865 63.932308 
z
" clip-path="url(#pb745db42a7)" style="fill: #bcbd22"/>
   </g>
   <g id="BrokenBarHCollection_142">
    <path d="M 443.103088 38.086154 
L 443.103088 61.347692 
L 443.660583 61.347692 
L 443.660583 38.086154 
L 443.103088 38.086154 
z
" clip-path="url(#pb745db42a7)" style="fill: #bcbd22"/>
   </g>
   <g id="BrokenBarHCollection_143">
    <path d="M 443.638123 12.24 
L 443.638123 35.501538 
L 443.6745 35.501538 
L 443.6745 12.24 
L 443.638123 12.24 
z
" clip-path="url(#pb745db42a7)" style="fill: #bcbd22"/>
   </g>
   <g id="BrokenBarHCollection_144">
    <path d="M 443.658386 89.778462 
L 443.658386 113.04 
L 443.671936 113.04 
L 443.671936 89.778462 
L 443.658386 89.778462 
z
" clip-path="url(#pb745db42a7)" style="fill: #bcbd22"/>
   </g>
   <g id="BrokenBarHCollection_145">
    <path d="M 465.386475 63.932308 
L 465.386475 87.193846 
L 466.112976 87.193846 
L 466.112976 63.932308 
L 465.386475 63.932308 
z
" clip-path="url(#pb745db42a7)" style="fill: #bcbd22"/>
   </g>
   <g id="BrokenBarHCollection_146">
    <path d="M 465.464294 38.086154 
L 465.464294 61.347692 
L 466.059326 61.347692 
L 466.059326 38.086154 
L 465.464294 38.086154 
z
" clip-path="url(#pb745db42a7)" style="fill: #bcbd22"/>
   </g>
   <g id="BrokenBarHCollection_147">
    <path d="M 466.034851 12.24 
L 466.034851 35.501538 
L 466.110718 35.501538 
L 466.110718 12.24 
L 466.034851 12.24 
z
" clip-path="url(#pb745db42a7)" style="fill: #bcbd22"/>
   </g>
   <g id="BrokenBarHCollection_148">
    <path d="M 466.095459 89.778462 
L 466.095459 113.04 
L 466.10907 113.04 
L 466.10907 89.778462 
L 466.095459 89.778462 
z
" clip-path="url(#pb745db42a7)" style="fill: #bcbd22"/>
   </g>
   <g id="BrokenBarHCollection_149">
    <path d="M 487.794678 63.932308 
L 487.794678 87.193846 
L 506.816406 87.193846 
L 506.816406 63.932308 
L 487.794678 63.932308 
z
" clip-path="url(#pb745db42a7)" style="fill: #2ca02c"/>
   </g>
   <g id="BrokenBarHCollection_150">
    <path d="M 487.795227 63.932308 
L 487.795227 87.193846 
L 488.446655 87.193846 
L 488.446655 63.932308 
L 487.795227 63.932308 
z
" clip-path="url(#pb745db42a7)" style="fill: #1f77b4"/>
   </g>
   <g id="BrokenBarHCollection_151">
    <path d="M 487.875793 38.086154 
L 487.875793 61.347692 
L 506.98761 61.347692 
L 506.98761 38.086154 
L 487.875793 38.086154 
z
" clip-path="url(#pb745db42a7)" style="fill: #2ca02c"/>
   </g>
   <g id="BrokenBarHCollection_152">
    <path d="M 487.876099 38.086154 
L 487.876099 61.347692 
L 488.447266 61.347692 
L 488.447266 38.086154 
L 487.876099 38.086154 
z
" clip-path="url(#pb745db42a7)" style="fill: #1f77b4"/>
   </g>
   <g id="BrokenBarHCollection_153">
    <path d="M 488.409424 89.778462 
L 488.409424 113.04 
L 506.975098 113.04 
L 506.975098 89.778462 
L 488.409424 89.778462 
z
" clip-path="url(#pb745db42a7)" style="fill: #2ca02c"/>
   </g>
   <g id="BrokenBarHCollection_154">
    <path d="M 488.409729 89.778462 
L 488.409729 113.04 
L 488.446655 113.04 
L 488.446655 89.778462 
L 488.409729 89.778462 
z
" clip-path="url(#pb745db42a7)" style="fill: #1f77b4"/>
   </g>
   <g id="BrokenBarHCollection_155">
    <path d="M 488.4422 12.24 
L 488.4422 35.501538 
L 506.853943 35.501538 
L 506.853943 12.24 
L 488.4422 12.24 
z
" clip-path="url(#pb745db42a7)" style="fill: #2ca02c"/>
   </g>
   <g id="BrokenBarHCollection_156">
    <path d="M 488.4422 12.24 
L 488.4422 35.501538 
L 488.454224 35.501538 
L 488.454224 12.24 
L 488.4422 12.24 
z
" clip-path="url(#pb745db42a7)" style="fill: #1f77b4"/>
   </g>
   <g id="BrokenBarHCollection_157">
    <path d="M 488.446655 63.932308 
L 488.446655 87.193846 
L 489.133362 87.193846 
L 489.133362 63.932308 
L 488.446655 63.932308 
z
" clip-path="url(#pb745db42a7)" style="fill: #ff7f0e"/>
   </g>
   <g id="BrokenBarHCollection_158">
    <path d="M 488.44696 89.778462 
L 488.44696 113.04 
L 489.133728 113.04 
L 489.133728 89.778462 
L 488.44696 89.778462 
z
" clip-path="url(#pb745db42a7)" style="fill: #ff7f0e"/>
   </g>
   <g id="BrokenBarHCollection_159">
    <path d="M 488.44751 38.086154 
L 488.44751 61.347692 
L 489.135071 61.347692 
L 489.135071 38.086154 
L 488.44751 38.086154 
z
" clip-path="url(#pb745db42a7)" style="fill: #ff7f0e"/>
   </g>
   <g id="BrokenBarHCollection_160">
    <path d="M 488.454224 12.24 
L 488.454224 35.501538 
L 489.135071 35.501538 
L 489.135071 12.24 
L 488.454224 12.24 
z
" clip-path="url(#pb745db42a7)" style="fill: #ff7f0e"/>
   </g>
   <g id="BrokenBarHCollection_161">
    <path d="M 489.133972 89.778462 
L 489.133972 113.04 
L 506.9729 113.04 
L 506.9729 89.778462 
L 489.133972 89.778462 
z
" clip-path="url(#pb745db42a7)" style="fill: #e377c2"/>
   </g>
   <g id="BrokenBarHCollection_162">
    <path d="M 489.133972 63.932308 
L 489.133972 87.193846 
L 506.81366 87.193846 
L 506.81366 63.932308 
L 489.133972 63.932308 
z
" clip-path="url(#pb745db42a7)" style="fill: #7f7f7f"/>
   </g>
   <g id="BrokenBarHCollection_163">
    <path d="M 489.133972 63.932308 
L 489.133972 87.193846 
L 506.81366 87.193846 
L 506.81366 63.932308 
L 489.133972 63.932308 
z
" clip-path="url(#pb745db42a7)" style="fill: #e377c2"/>
   </g>
   <g id="BrokenBarHCollection_164">
    <path d="M 489.134216 89.778462 
L 489.134216 113.04 
L 506.972656 113.04 
L 506.972656 89.778462 
L 489.134216 89.778462 
z
" clip-path="url(#pb745db42a7)" style="fill: #7f7f7f"/>
   </g>
   <g id="BrokenBarHCollection_165">
    <path d="M 489.135376 12.24 
L 489.135376 35.501538 
L 506.85144 35.501538 
L 506.85144 12.24 
L 489.135376 12.24 
z
" clip-path="url(#pb745db42a7)" style="fill: #e377c2"/>
   </g>
   <g id="BrokenBarHCollection_166">
    <path d="M 489.13562 38.086154 
L 489.13562 61.347692 
L 506.985107 61.347692 
L 506.985107 38.086154 
L 489.13562 38.086154 
z
" clip-path="url(#pb745db42a7)" style="fill: #7f7f7f"/>
   </g>
   <g id="BrokenBarHCollection_167">
    <path d="M 489.13562 38.086154 
L 489.13562 61.347692 
L 506.985107 61.347692 
L 506.985107 38.086154 
L 489.13562 38.086154 
z
" clip-path="url(#pb745db42a7)" style="fill: #e377c2"/>
   </g>
   <g id="BrokenBarHCollection_168">
    <path d="M 489.13562 12.24 
L 489.13562 35.501538 
L 506.85144 35.501538 
L 506.85144 12.24 
L 489.13562 12.24 
z
" clip-path="url(#pb745db42a7)" style="fill: #7f7f7f"/>
   </g>
   <g id="BrokenBarHCollection_169">
    <path d="M 502.815002 63.932308 
L 502.815002 87.193846 
L 506.81366 87.193846 
L 506.81366 63.932308 
L 502.815002 63.932308 
z
" clip-path="url(#pb745db42a7)" style="fill: #8c564b"/>
   </g>
   <g id="BrokenBarHCollection_170">
    <path d="M 502.839172 12.24 
L 502.839172 35.501538 
L 506.85144 35.501538 
L 506.85144 12.24 
L 502.839172 12.24 
z
" clip-path="url(#pb745db42a7)" style="fill: #8c564b"/>
   </g>
   <g id="BrokenBarHCollection_171">
    <path d="M 502.947815 89.778462 
L 502.947815 113.04 
L 506.972656 113.04 
L 506.972656 89.778462 
L 502.947815 89.778462 
z
" clip-path="url(#pb745db42a7)" style="fill: #8c564b"/>
   </g>
   <g id="BrokenBarHCollection_172">
    <path d="M 502.967285 38.086154 
L 502.967285 61.347692 
L 506.984863 61.347692 
L 506.984863 38.086154 
L 502.967285 38.086154 
z
" clip-path="url(#pb745db42a7)" style="fill: #8c564b"/>
   </g>
   <g id="BrokenBarHCollection_173">
    <path d="M 506.818909 63.932308 
L 506.818909 87.193846 
L 507.00824 87.193846 
L 507.00824 63.932308 
L 506.818909 63.932308 
z
" clip-path="url(#pb745db42a7)" style="fill: #d62728"/>
   </g>
   <g id="BrokenBarHCollection_174">
    <path d="M 506.85614 12.24 
L 506.85614 35.501538 
L 507.007629 35.501538 
L 507.007629 12.24 
L 506.85614 12.24 
z
" clip-path="url(#pb745db42a7)" style="fill: #d62728"/>
   </g>
   <g id="BrokenBarHCollection_175">
    <path d="M 506.9776 89.778462 
L 506.9776 113.04 
L 506.990112 113.04 
L 506.990112 89.778462 
L 506.9776 89.778462 
z
" clip-path="url(#pb745db42a7)" style="fill: #d62728"/>
   </g>
   <g id="BrokenBarHCollection_176">
    <path d="M 506.990112 38.086154 
L 506.990112 61.347692 
L 507.017639 61.347692 
L 507.017639 38.086154 
L 506.990112 38.086154 
z
" clip-path="url(#pb745db42a7)" style="fill: #d62728"/>
   </g>
   <g id="BrokenBarHCollection_177">
    <path d="M 506.990112 89.778462 
L 506.990112 113.04 
L 506.991272 113.04 
L 506.991272 89.778462 
L 506.990112 89.778462 
z
" clip-path="url(#pb745db42a7)" style="fill: #d62728"/>
   </g>
   <g id="BrokenBarHCollection_178">
    <path d="M 506.991272 89.778462 
L 506.991272 113.04 
L 507.044861 113.04 
L 507.044861 89.778462 
L 506.991272 89.778462 
z
" clip-path="url(#pb745db42a7)" style="fill: #bcbd22"/>
   </g>
   <g id="BrokenBarHCollection_179">
    <path d="M 507.007629 12.24 
L 507.007629 35.501538 
L 507.008728 35.501538 
L 507.008728 12.24 
L 507.007629 12.24 
z
" clip-path="url(#pb745db42a7)" style="fill: #d62728"/>
   </g>
   <g id="BrokenBarHCollection_180">
    <path d="M 507.008484 63.932308 
L 507.008484 87.193846 
L 507.010132 87.193846 
L 507.010132 63.932308 
L 507.008484 63.932308 
z
" clip-path="url(#pb745db42a7)" style="fill: #d62728"/>
   </g>
   <g id="BrokenBarHCollection_181">
    <path d="M 507.008728 12.24 
L 507.008728 35.501538 
L 507.046265 35.501538 
L 507.046265 12.24 
L 507.008728 12.24 
z
" clip-path="url(#pb745db42a7)" style="fill: #bcbd22"/>
   </g>
   <g id="BrokenBarHCollection_182">
    <path d="M 507.010132 63.932308 
L 507.010132 87.193846 
L 507.048523 87.193846 
L 507.048523 63.932308 
L 507.010132 63.932308 
z
" clip-path="url(#pb745db42a7)" style="fill: #bcbd22"/>
   </g>
   <g id="BrokenBarHCollection_183">
    <path d="M 507.017883 38.086154 
L 507.017883 61.347692 
L 507.019653 61.347692 
L 507.019653 38.086154 
L 507.017883 38.086154 
z
" clip-path="url(#pb745db42a7)" style="fill: #d62728"/>
   </g>
   <g id="BrokenBarHCollection_184">
    <path d="M 507.019653 38.086154 
L 507.019653 61.347692 
L 507.053223 61.347692 
L 507.053223 38.086154 
L 507.019653 38.086154 
z
" clip-path="url(#pb745db42a7)" style="fill: #bcbd22"/>
   </g>
   <g id="BrokenBarHCollection_185">
    <path d="M 529.028687 63.932308 
L 529.028687 87.193846 
L 529.43219 87.193846 
L 529.43219 63.932308 
L 529.028687 63.932308 
z
" clip-path="url(#pb745db42a7)" style="fill: #bcbd22"/>
   </g>
   <g id="BrokenBarHCollection_186">
    <path d="M 529.109253 12.24 
L 529.109253 35.501538 
L 529.43219 35.501538 
L 529.43219 12.24 
L 529.109253 12.24 
z
" clip-path="url(#pb745db42a7)" style="fill: #bcbd22"/>
   </g>
   <g id="BrokenBarHCollection_187">
    <path d="M 529.159851 89.778462 
L 529.159851 113.04 
L 529.431396 113.04 
L 529.431396 89.778462 
L 529.159851 89.778462 
z
" clip-path="url(#pb745db42a7)" style="fill: #bcbd22"/>
   </g>
   <g id="BrokenBarHCollection_188">
    <path d="M 529.407227 38.086154 
L 529.407227 61.347692 
L 529.433044 61.347692 
L 529.433044 38.086154 
L 529.407227 38.086154 
z
" clip-path="url(#pb745db42a7)" style="fill: #bcbd22"/>
   </g>
   <g id="BrokenBarHCollection_189">
    <path d="M 551.422729 63.932308 
L 551.422729 87.193846 
L 552.056641 87.193846 
L 552.056641 63.932308 
L 551.422729 63.932308 
z
" clip-path="url(#pb745db42a7)" style="fill: #bcbd22"/>
   </g>
   <g id="BrokenBarHCollection_190">
    <path d="M 551.490784 12.24 
L 551.490784 35.501538 
L 552.055481 35.501538 
L 552.055481 12.24 
L 551.490784 12.24 
z
" clip-path="url(#pb745db42a7)" style="fill: #bcbd22"/>
   </g>
   <g id="BrokenBarHCollection_191">
    <path d="M 551.769531 38.086154 
L 551.769531 61.347692 
L 551.808411 61.347692 
L 551.808411 38.086154 
L 551.769531 38.086154 
z
" clip-path="url(#pb745db42a7)" style="fill: #bcbd22"/>
   </g>
   <g id="BrokenBarHCollection_192">
    <path d="M 552.030762 89.778462 
L 552.030762 113.04 
L 552.051575 113.04 
L 552.051575 89.778462 
L 552.030762 89.778462 
z
" clip-path="url(#pb745db42a7)" style="fill: #bcbd22"/>
   </g>
   <g id="BrokenBarHCollection_193">
    <path d="M 574.051514 63.932308 
L 574.051514 87.193846 
L 592.521057 87.193846 
L 592.521057 63.932308 
L 574.051514 63.932308 
z
" clip-path="url(#pb745db42a7)" style="fill: #2ca02c"/>
   </g>
   <g id="BrokenBarHCollection_194">
    <path d="M 574.051819 63.932308 
L 574.051819 87.193846 
L 574.177429 87.193846 
L 574.177429 63.932308 
L 574.051819 63.932308 
z
" clip-path="url(#pb745db42a7)" style="fill: #1f77b4"/>
   </g>
   <g id="BrokenBarHCollection_195">
    <path d="M 574.127991 12.24 
L 574.127991 35.501538 
L 592.525513 35.501538 
L 592.525513 12.24 
L 574.127991 12.24 
z
" clip-path="url(#pb745db42a7)" style="fill: #2ca02c"/>
   </g>
   <g id="BrokenBarHCollection_196">
    <path d="M 574.128235 12.24 
L 574.128235 35.501538 
L 574.183289 35.501538 
L 574.183289 12.24 
L 574.128235 12.24 
z
" clip-path="url(#pb745db42a7)" style="fill: #1f77b4"/>
   </g>
   <g id="BrokenBarHCollection_197">
    <path d="M 574.156616 38.086154 
L 574.156616 61.347692 
L 592.777893 61.347692 
L 592.777893 38.086154 
L 574.156616 38.086154 
z
" clip-path="url(#pb745db42a7)" style="fill: #2ca02c"/>
   </g>
   <g id="BrokenBarHCollection_198">
    <path d="M 574.15686 38.086154 
L 574.15686 61.347692 
L 574.177979 61.347692 
L 574.177979 38.086154 
L 574.15686 38.086154 
z
" clip-path="url(#pb745db42a7)" style="fill: #1f77b4"/>
   </g>
   <g id="BrokenBarHCollection_199">
    <path d="M 574.17157 89.778462 
L 574.17157 113.04 
L 592.720886 113.04 
L 592.720886 89.778462 
L 574.17157 89.778462 
z
" clip-path="url(#pb745db42a7)" style="fill: #2ca02c"/>
   </g>
   <g id="BrokenBarHCollection_200">
    <path d="M 574.171875 89.778462 
L 574.171875 113.04 
L 574.177734 113.04 
L 574.177734 89.778462 
L 574.171875 89.778462 
z
" clip-path="url(#pb745db42a7)" style="fill: #1f77b4"/>
   </g>
   <g id="BrokenBarHCollection_201">
    <path d="M 574.177429 63.932308 
L 574.177429 87.193846 
L 574.849426 87.193846 
L 574.849426 63.932308 
L 574.177429 63.932308 
z
" clip-path="url(#pb745db42a7)" style="fill: #ff7f0e"/>
   </g>
   <g id="BrokenBarHCollection_202">
    <path d="M 574.177979 89.778462 
L 574.177979 113.04 
L 574.849426 113.04 
L 574.849426 89.778462 
L 574.177979 89.778462 
z
" clip-path="url(#pb745db42a7)" style="fill: #ff7f0e"/>
   </g>
   <g id="BrokenBarHCollection_203">
    <path d="M 574.177979 38.086154 
L 574.177979 61.347692 
L 574.836609 61.347692 
L 574.836609 38.086154 
L 574.177979 38.086154 
z
" clip-path="url(#pb745db42a7)" style="fill: #ff7f0e"/>
   </g>
   <g id="BrokenBarHCollection_204">
    <path d="M 574.183289 12.24 
L 574.183289 35.501538 
L 574.836609 35.501538 
L 574.836609 12.24 
L 574.183289 12.24 
z
" clip-path="url(#pb745db42a7)" style="fill: #ff7f0e"/>
   </g>
   <g id="BrokenBarHCollection_205">
    <path d="M 574.837219 38.086154 
L 574.837219 61.347692 
L 592.775391 61.347692 
L 592.775391 38.086154 
L 574.837219 38.086154 
z
" clip-path="url(#pb745db42a7)" style="fill: #e377c2"/>
   </g>
   <g id="BrokenBarHCollection_206">
    <path d="M 574.837219 12.24 
L 574.837219 35.501538 
L 592.523071 35.501538 
L 592.523071 12.24 
L 574.837219 12.24 
z
" clip-path="url(#pb745db42a7)" style="fill: #e377c2"/>
   </g>
   <g id="BrokenBarHCollection_207">
    <path d="M 574.837463 38.086154 
L 574.837463 61.347692 
L 592.775391 61.347692 
L 592.775391 38.086154 
L 574.837463 38.086154 
z
" clip-path="url(#pb745db42a7)" style="fill: #7f7f7f"/>
   </g>
   <g id="BrokenBarHCollection_208">
    <path d="M 574.837463 12.24 
L 574.837463 35.501538 
L 592.523071 35.501538 
L 592.523071 12.24 
L 574.837463 12.24 
z
" clip-path="url(#pb745db42a7)" style="fill: #7f7f7f"/>
   </g>
   <g id="BrokenBarHCollection_209">
    <path d="M 574.850037 89.778462 
L 574.850037 113.04 
L 592.718384 113.04 
L 592.718384 89.778462 
L 574.850037 89.778462 
z
" clip-path="url(#pb745db42a7)" style="fill: #7f7f7f"/>
   </g>
   <g id="BrokenBarHCollection_210">
    <path d="M 574.850037 89.778462 
L 574.850037 113.04 
L 592.718384 113.04 
L 592.718384 89.778462 
L 574.850037 89.778462 
z
" clip-path="url(#pb745db42a7)" style="fill: #e377c2"/>
   </g>
   <g id="BrokenBarHCollection_211">
    <path d="M 574.850037 63.932308 
L 574.850037 87.193846 
L 592.51825 87.193846 
L 592.51825 63.932308 
L 574.850037 63.932308 
z
" clip-path="url(#pb745db42a7)" style="fill: #7f7f7f"/>
   </g>
   <g id="BrokenBarHCollection_212">
    <path d="M 574.850037 63.932308 
L 574.850037 87.193846 
L 592.51825 87.193846 
L 592.51825 63.932308 
L 574.850037 63.932308 
z
" clip-path="url(#pb745db42a7)" style="fill: #e377c2"/>
   </g>
   <g id="BrokenBarHCollection_213">
    <path d="M 588.455444 63.932308 
L 588.455444 87.193846 
L 592.518005 87.193846 
L 592.518005 63.932308 
L 588.455444 63.932308 
z
" clip-path="url(#pb745db42a7)" style="fill: #8c564b"/>
   </g>
   <g id="BrokenBarHCollection_214">
    <path d="M 588.464294 12.24 
L 588.464294 35.501538 
L 592.522705 35.501538 
L 592.522705 12.24 
L 588.464294 12.24 
z
" clip-path="url(#pb745db42a7)" style="fill: #8c564b"/>
   </g>
   <g id="BrokenBarHCollection_215">
    <path d="M 588.636658 89.778462 
L 588.636658 113.04 
L 592.71814 113.04 
L 592.71814 89.778462 
L 588.636658 89.778462 
z
" clip-path="url(#pb745db42a7)" style="fill: #8c564b"/>
   </g>
   <g id="BrokenBarHCollection_216">
    <path d="M 588.679993 38.086154 
L 588.679993 61.347692 
L 592.775391 61.347692 
L 592.775391 38.086154 
L 588.679993 38.086154 
z
" clip-path="url(#pb745db42a7)" style="fill: #8c564b"/>
   </g>
   <g id="BrokenBarHCollection_217">
    <path d="M 592.523315 63.932308 
L 592.523315 87.193846 
L 592.794006 87.193846 
L 592.794006 63.932308 
L 592.523315 63.932308 
z
" clip-path="url(#pb745db42a7)" style="fill: #d62728"/>
   </g>
   <g id="BrokenBarHCollection_218">
    <path d="M 592.528015 12.24 
L 592.528015 35.501538 
L 592.798157 35.501538 
L 592.798157 12.24 
L 592.528015 12.24 
z
" clip-path="url(#pb745db42a7)" style="fill: #d62728"/>
   </g>
   <g id="BrokenBarHCollection_219">
    <path d="M 592.723145 89.778462 
L 592.723145 113.04 
L 592.733154 113.04 
L 592.733154 89.778462 
L 592.723145 89.778462 
z
" clip-path="url(#pb745db42a7)" style="fill: #d62728"/>
   </g>
   <g id="BrokenBarHCollection_220">
    <path d="M 592.733154 89.778462 
L 592.733154 113.04 
L 592.733948 113.04 
L 592.733948 89.778462 
L 592.733154 89.778462 
z
" clip-path="url(#pb745db42a7)" style="fill: #d62728"/>
   </g>
   <g id="BrokenBarHCollection_221">
    <path d="M 592.734192 89.778462 
L 592.734192 113.04 
L 592.82489 113.04 
L 592.82489 89.778462 
L 592.734192 89.778462 
z
" clip-path="url(#pb745db42a7)" style="fill: #bcbd22"/>
   </g>
   <g id="BrokenBarHCollection_222">
    <path d="M 592.78009 38.086154 
L 592.78009 61.347692 
L 592.801208 61.347692 
L 592.801208 38.086154 
L 592.78009 38.086154 
z
" clip-path="url(#pb745db42a7)" style="fill: #d62728"/>
   </g>
   <g id="BrokenBarHCollection_223">
    <path d="M 592.79425 63.932308 
L 592.79425 87.193846 
L 592.796265 87.193846 
L 592.796265 63.932308 
L 592.79425 63.932308 
z
" clip-path="url(#pb745db42a7)" style="fill: #d62728"/>
   </g>
   <g id="BrokenBarHCollection_224">
    <path d="M 592.796265 63.932308 
L 592.796265 87.193846 
L 592.82959 87.193846 
L 592.82959 63.932308 
L 592.796265 63.932308 
z
" clip-path="url(#pb745db42a7)" style="fill: #bcbd22"/>
   </g>
   <g id="BrokenBarHCollection_225">
    <path d="M 592.798157 12.24 
L 592.798157 35.501538 
L 592.799316 35.501538 
L 592.799316 12.24 
L 592.798157 12.24 
z
" clip-path="url(#pb745db42a7)" style="fill: #d62728"/>
   </g>
   <g id="BrokenBarHCollection_226">
    <path d="M 592.799316 12.24 
L 592.799316 35.501538 
L 592.827332 35.501538 
L 592.827332 12.24 
L 592.799316 12.24 
z
" clip-path="url(#pb745db42a7)" style="fill: #bcbd22"/>
   </g>
   <g id="BrokenBarHCollection_227">
    <path d="M 592.801208 38.086154 
L 592.801208 61.347692 
L 592.802612 61.347692 
L 592.802612 38.086154 
L 592.801208 38.086154 
z
" clip-path="url(#pb745db42a7)" style="fill: #d62728"/>
   </g>
   <g id="BrokenBarHCollection_228">
    <path d="M 592.802612 38.086154 
L 592.802612 61.347692 
L 592.82959 61.347692 
L 592.82959 38.086154 
L 592.802612 38.086154 
z
" clip-path="url(#pb745db42a7)" style="fill: #bcbd22"/>
   </g>
   <g id="BrokenBarHCollection_229">
    <path d="M 614.836426 89.778462 
L 614.836426 113.04 
L 615.026794 113.04 
L 615.026794 89.778462 
L 614.836426 89.778462 
z
" clip-path="url(#pb745db42a7)" style="fill: #bcbd22"/>
   </g>
   <g id="BrokenBarHCollection_230">
    <path d="M 614.951782 12.24 
L 614.951782 35.501538 
L 615.031494 35.501538 
L 615.031494 12.24 
L 614.951782 12.24 
z
" clip-path="url(#pb745db42a7)" style="fill: #bcbd22"/>
   </g>
   <g id="BrokenBarHCollection_231">
    <path d="M 615.001221 63.932308 
L 615.001221 87.193846 
L 615.031494 87.193846 
L 615.031494 63.932308 
L 615.001221 63.932308 
z
" clip-path="url(#pb745db42a7)" style="fill: #bcbd22"/>
   </g>
   <g id="BrokenBarHCollection_232">
    <path d="M 615.001526 38.086154 
L 615.001526 61.347692 
L 615.03186 61.347692 
L 615.03186 38.086154 
L 615.001526 38.086154 
z
" clip-path="url(#pb745db42a7)" style="fill: #bcbd22"/>
   </g>
   <g id="BrokenBarHCollection_233">
    <path d="M 637.045593 89.778462 
L 637.045593 113.04 
L 637.240479 113.04 
L 637.240479 89.778462 
L 637.045593 89.778462 
z
" clip-path="url(#pb745db42a7)" style="fill: #bcbd22"/>
   </g>
   <g id="BrokenBarHCollection_234">
    <path d="M 637.144592 12.24 
L 637.144592 35.501538 
L 637.24292 35.501538 
L 637.24292 12.24 
L 637.144592 12.24 
z
" clip-path="url(#pb745db42a7)" style="fill: #bcbd22"/>
   </g>
   <g id="BrokenBarHCollection_235">
    <path d="M 637.210999 38.086154 
L 637.210999 61.347692 
L 637.24353 61.347692 
L 637.24353 38.086154 
L 637.210999 38.086154 
z
" clip-path="url(#pb745db42a7)" style="fill: #bcbd22"/>
   </g>
   <g id="BrokenBarHCollection_236">
    <path d="M 637.214661 63.932308 
L 637.214661 87.193846 
L 637.243774 87.193846 
L 637.243774 63.932308 
L 637.214661 63.932308 
z
" clip-path="url(#pb745db42a7)" style="fill: #bcbd22"/>
   </g>
   <g id="BrokenBarHCollection_237">
    <path d="M 659.252075 89.778462 
L 659.252075 113.04 
L 659.428528 113.04 
L 659.428528 89.778462 
L 659.252075 89.778462 
z
" clip-path="url(#pb745db42a7)" style="fill: #2ca02c"/>
   </g>
   <g id="BrokenBarHCollection_238">
    <path d="M 659.252319 89.778462 
L 659.252319 113.04 
L 659.428528 113.04 
L 659.428528 89.778462 
L 659.252319 89.778462 
z
" clip-path="url(#pb745db42a7)" style="fill: #1f77b4"/>
   </g>
   <g id="BrokenBarHCollection_239">
    <path d="M 659.369324 12.24 
L 659.369324 35.501538 
L 659.429871 35.501538 
L 659.429871 12.24 
L 659.369324 12.24 
z
" clip-path="url(#pb745db42a7)" style="fill: #2ca02c"/>
   </g>
   <g id="BrokenBarHCollection_240">
    <path d="M 659.369629 12.24 
L 659.369629 35.501538 
L 659.429871 35.501538 
L 659.429871 12.24 
L 659.369629 12.24 
z
" clip-path="url(#pb745db42a7)" style="fill: #1f77b4"/>
   </g>
   <g id="BrokenBarHCollection_241">
    <path d="M 659.392151 63.932308 
L 659.392151 87.193846 
L 659.428223 87.193846 
L 659.428223 63.932308 
L 659.392151 63.932308 
z
" clip-path="url(#pb745db42a7)" style="fill: #2ca02c"/>
   </g>
   <g id="BrokenBarHCollection_242">
    <path d="M 659.392395 63.932308 
L 659.392395 87.193846 
L 659.428223 87.193846 
L 659.428223 63.932308 
L 659.392395 63.932308 
z
" clip-path="url(#pb745db42a7)" style="fill: #1f77b4"/>
   </g>
   <g id="BrokenBarHCollection_243">
    <path d="M 659.423523 38.086154 
L 659.423523 61.347692 
L 659.428528 61.347692 
L 659.428528 38.086154 
L 659.423523 38.086154 
z
" clip-path="url(#pb745db42a7)" style="fill: #2ca02c"/>
   </g>
   <g id="BrokenBarHCollection_244">
    <path d="M 659.423828 38.086154 
L 659.423828 61.347692 
L 659.428528 61.347692 
L 659.428528 38.086154 
L 659.423828 38.086154 
z
" clip-path="url(#pb745db42a7)" style="fill: #1f77b4"/>
   </g>
   <g id="BrokenBarHCollection_245">
    <path d="M 659.431274 63.932308 
L 659.431274 87.193846 
L 659.432129 87.193846 
L 659.432129 63.932308 
L 659.431274 63.932308 
z
" clip-path="url(#pb745db42a7)" style="fill: #d62728"/>
   </g>
   <g id="BrokenBarHCollection_246">
    <path d="M 659.43158 38.086154 
L 659.43158 61.347692 
L 659.432434 61.347692 
L 659.432434 38.086154 
L 659.43158 38.086154 
z
" clip-path="url(#pb745db42a7)" style="fill: #d62728"/>
   </g>
   <g id="BrokenBarHCollection_247">
    <path d="M 659.43158 89.778462 
L 659.43158 113.04 
L 659.432129 113.04 
L 659.432129 89.778462 
L 659.43158 89.778462 
z
" clip-path="url(#pb745db42a7)" style="fill: #d62728"/>
   </g>
   <g id="BrokenBarHCollection_248">
    <path d="M 659.432129 63.932308 
L 659.432129 87.193846 
L 659.459656 87.193846 
L 659.459656 63.932308 
L 659.432129 63.932308 
z
" clip-path="url(#pb745db42a7)" style="fill: #bcbd22"/>
   </g>
   <g id="BrokenBarHCollection_249">
    <path d="M 659.432434 38.086154 
L 659.432434 61.347692 
L 659.460754 61.347692 
L 659.460754 38.086154 
L 659.432434 38.086154 
z
" clip-path="url(#pb745db42a7)" style="fill: #bcbd22"/>
   </g>
   <g id="BrokenBarHCollection_250">
    <path d="M 659.432434 89.778462 
L 659.432434 113.04 
L 659.456604 113.04 
L 659.456604 89.778462 
L 659.432434 89.778462 
z
" clip-path="url(#pb745db42a7)" style="fill: #bcbd22"/>
   </g>
   <g id="BrokenBarHCollection_251">
    <path d="M 659.432922 12.24 
L 659.432922 35.501538 
L 659.433838 35.501538 
L 659.433838 12.24 
L 659.432922 12.24 
z
" clip-path="url(#pb745db42a7)" style="fill: #d62728"/>
   </g>
   <g id="BrokenBarHCollection_252">
    <path d="M 659.433838 12.24 
L 659.433838 35.501538 
L 659.459656 35.501538 
L 659.459656 12.24 
L 659.433838 12.24 
z
" clip-path="url(#pb745db42a7)" style="fill: #bcbd22"/>
   </g>
   <g id="BrokenBarHCollection_253">
    <path d="M 681.481262 89.778462 
L 681.481262 113.04 
L 681.659912 113.04 
L 681.659912 89.778462 
L 681.481262 89.778462 
z
" clip-path="url(#pb745db42a7)" style="fill: #bcbd22"/>
   </g>
   <g id="BrokenBarHCollection_254">
    <path d="M 681.589355 12.24 
L 681.589355 35.501538 
L 681.660217 35.501538 
L 681.660217 12.24 
L 681.589355 12.24 
z
" clip-path="url(#pb745db42a7)" style="fill: #bcbd22"/>
   </g>
   <g id="BrokenBarHCollection_255">
    <path d="M 681.628235 38.086154 
L 681.628235 61.347692 
L 681.661316 61.347692 
L 681.661316 38.086154 
L 681.628235 38.086154 
z
" clip-path="url(#pb745db42a7)" style="fill: #bcbd22"/>
   </g>
   <g id="BrokenBarHCollection_256">
    <path d="M 681.633545 63.932308 
L 681.633545 87.193846 
L 681.661072 87.193846 
L 681.661072 63.932308 
L 681.633545 63.932308 
z
" clip-path="url(#pb745db42a7)" style="fill: #bcbd22"/>
   </g>
  </g>
 </g>
 <defs>
  <clipPath id="pb745db42a7">
   <rect x="34.240625" y="7.2" width="669.6" height="110.88"/>
  </clipPath>
 </defs>
</svg>
