<?xml version="1.0" encoding="utf-8" standalone="no"?>
<!DOCTYPE svg PUBLIC "-//W3C//DTD SVG 1.1//EN"
  "http://www.w3.org/Graphics/SVG/1.1/DTD/svg11.dtd">
<svg xmlns:xlink="http://www.w3.org/1999/xlink" width="911.596pt" height="156.45pt" viewBox="0 0 911.596 156.45" xmlns="http://www.w3.org/2000/svg" version="1.1">
 <metadata>
  <rdf:RDF xmlns:dc="http://purl.org/dc/elements/1.1/" xmlns:cc="http://creativecommons.org/ns#" xmlns:rdf="http://www.w3.org/1999/02/22-rdf-syntax-ns#">
   <cc:Work>
    <dc:type rdf:resource="http://purl.org/dc/dcmitype/StillImage"/>
    <dc:date>2025-09-09T02:04:32.313610</dc:date>
    <dc:format>image/svg+xml</dc:format>
    <dc:creator>
     <cc:Agent>
      <dc:title>Matplotlib v3.6.3, https://matplotlib.org/</dc:title>
     </cc:Agent>
    </dc:creator>
   </cc:Work>
  </rdf:RDF>
 </metadata>
 <defs>
  <style type="text/css">*{stroke-linejoin: round; stroke-linecap: butt}</style>
 </defs>
 <g id="figure_1">
  <g id="patch_1">
   <path d="M 0 156.45 
L 911.596 156.45 
L 911.596 0 
L 0 0 
z
" style="fill: #ffffff"/>
  </g>
  <g id="axes_1">
   <g id="patch_2">
    <path d="M 34.240625 118.08 
L 703.840625 118.08 
L 703.840625 7.2 
L 34.240625 7.2 
z
" style="fill: #ffffff"/>
   </g>
   <g id="matplotlib.axis_1">
    <g id="xtick_1">
     <g id="line2d_1">
      <defs>
       <path id="medf13c0868" d="M 0 0 
L 0 3.5 
" style="stroke: #000000; stroke-width: 0.8"/>
      </defs>
      <g>
       <use xlink:href="#medf13c0868" x="47.675537" y="118.08" style="stroke: #000000; stroke-width: 0.8"/>
      </g>
     </g>
     <g id="text_1">
      <!-- 0 -->
      <g transform="translate(44.494287 132.678438) scale(0.1 -0.1)">
       <defs>
        <path id="DejaVuSans-30" d="M 2034 4250 
Q 1547 4250 1301 3770 
Q 1056 3291 1056 2328 
Q 1056 1369 1301 889 
Q 1547 409 2034 409 
Q 2525 409 2770 889 
Q 3016 1369 3016 2328 
Q 3016 3291 2770 3770 
Q 2525 4250 2034 4250 
z
M 2034 4750 
Q 2819 4750 3233 4129 
Q 3647 3509 3647 2328 
Q 3647 1150 3233 529 
Q 2819 -91 2034 -91 
Q 1250 -91 836 529 
Q 422 1150 422 2328 
Q 422 3509 836 4129 
Q 1250 4750 2034 4750 
z
" transform="scale(0.015625)"/>
       </defs>
       <use xlink:href="#DejaVuSans-30"/>
      </g>
     </g>
    </g>
    <g id="xtick_2">
     <g id="line2d_2">
      <g>
       <use xlink:href="#medf13c0868" x="156.531586" y="118.08" style="stroke: #000000; stroke-width: 0.8"/>
      </g>
     </g>
     <g id="text_2">
      <!-- 2 -->
      <g transform="translate(153.350336 132.678438) scale(0.1 -0.1)">
       <defs>
        <path id="DejaVuSans-32" d="M 1228 531 
L 3431 531 
L 3431 0 
L 469 0 
L 469 531 
Q 828 903 1448 1529 
Q 2069 2156 2228 2338 
Q 2531 2678 2651 2914 
Q 2772 3150 2772 3378 
Q 2772 3750 2511 3984 
Q 2250 4219 1831 4219 
Q 1534 4219 1204 4116 
Q 875 4013 500 3803 
L 500 4441 
Q 881 4594 1212 4672 
Q 1544 4750 1819 4750 
Q 2544 4750 2975 4387 
Q 3406 4025 3406 3419 
Q 3406 3131 3298 2873 
Q 3191 2616 2906 2266 
Q 2828 2175 2409 1742 
Q 1991 1309 1228 531 
z
" transform="scale(0.015625)"/>
       </defs>
       <use xlink:href="#DejaVuSans-32"/>
      </g>
     </g>
    </g>
    <g id="xtick_3">
     <g id="line2d_3">
      <g>
       <use xlink:href="#medf13c0868" x="265.387619" y="118.08" style="stroke: #000000; stroke-width: 0.8"/>
      </g>
     </g>
     <g id="text_3">
      <!-- 4 -->
      <g transform="translate(262.206369 132.678438) scale(0.1 -0.1)">
       <defs>
        <path id="DejaVuSans-34" d="M 2419 4116 
L 825 1625 
L 2419 1625 
L 2419 4116 
z
M 2253 4666 
L 3047 4666 
L 3047 1625 
L 3713 1625 
L 3713 1100 
L 3047 1100 
L 3047 0 
L 2419 0 
L 2419 1100 
L 313 1100 
L 313 1709 
L 2253 4666 
z
" transform="scale(0.015625)"/>
       </defs>
       <use xlink:href="#DejaVuSans-34"/>
      </g>
     </g>
    </g>
    <g id="xtick_4">
     <g id="line2d_4">
      <g>
       <use xlink:href="#medf13c0868" x="374.243652" y="118.08" style="stroke: #000000; stroke-width: 0.8"/>
      </g>
     </g>
     <g id="text_4">
      <!-- 6 -->
      <g transform="translate(371.062402 132.678438) scale(0.1 -0.1)">
       <defs>
        <path id="DejaVuSans-36" d="M 2113 2584 
Q 1688 2584 1439 2293 
Q 1191 2003 1191 1497 
Q 1191 994 1439 701 
Q 1688 409 2113 409 
Q 2538 409 2786 701 
Q 3034 994 3034 1497 
Q 3034 2003 2786 2293 
Q 2538 2584 2113 2584 
z
M 3366 4563 
L 3366 3988 
Q 3128 4100 2886 4159 
Q 2644 4219 2406 4219 
Q 1781 4219 1451 3797 
Q 1122 3375 1075 2522 
Q 1259 2794 1537 2939 
Q 1816 3084 2150 3084 
Q 2853 3084 3261 2657 
Q 3669 2231 3669 1497 
Q 3669 778 3244 343 
Q 2819 -91 2113 -91 
Q 1303 -91 875 529 
Q 447 1150 447 2328 
Q 447 3434 972 4092 
Q 1497 4750 2381 4750 
Q 2619 4750 2861 4703 
Q 3103 4656 3366 4563 
z
" transform="scale(0.015625)"/>
       </defs>
       <use xlink:href="#DejaVuSans-36"/>
      </g>
     </g>
    </g>
    <g id="xtick_5">
     <g id="line2d_5">
      <g>
       <use xlink:href="#medf13c0868" x="483.099686" y="118.08" style="stroke: #000000; stroke-width: 0.8"/>
      </g>
     </g>
     <g id="text_5">
      <!-- 8 -->
      <g transform="translate(479.918436 132.678438) scale(0.1 -0.1)">
       <defs>
        <path id="DejaVuSans-38" d="M 2034 2216 
Q 1584 2216 1326 1975 
Q 1069 1734 1069 1313 
Q 1069 891 1326 650 
Q 1584 409 2034 409 
Q 2484 409 2743 651 
Q 3003 894 3003 1313 
Q 3003 1734 2745 1975 
Q 2488 2216 2034 2216 
z
M 1403 2484 
Q 997 2584 770 2862 
Q 544 3141 544 3541 
Q 544 4100 942 4425 
Q 1341 4750 2034 4750 
Q 2731 4750 3128 4425 
Q 3525 4100 3525 3541 
Q 3525 3141 3298 2862 
Q 3072 2584 2669 2484 
Q 3125 2378 3379 2068 
Q 3634 1759 3634 1313 
Q 3634 634 3220 271 
Q 2806 -91 2034 -91 
Q 1263 -91 848 271 
Q 434 634 434 1313 
Q 434 1759 690 2068 
Q 947 2378 1403 2484 
z
M 1172 3481 
Q 1172 3119 1398 2916 
Q 1625 2713 2034 2713 
Q 2441 2713 2670 2916 
Q 2900 3119 2900 3481 
Q 2900 3844 2670 4047 
Q 2441 4250 2034 4250 
Q 1625 4250 1398 4047 
Q 1172 3844 1172 3481 
z
" transform="scale(0.015625)"/>
       </defs>
       <use xlink:href="#DejaVuSans-38"/>
      </g>
     </g>
    </g>
    <g id="xtick_6">
     <g id="line2d_6">
      <g>
       <use xlink:href="#medf13c0868" x="591.955734" y="118.08" style="stroke: #000000; stroke-width: 0.8"/>
      </g>
     </g>
     <g id="text_6">
      <!-- 10 -->
      <g transform="translate(585.593234 132.678438) scale(0.1 -0.1)">
       <defs>
        <path id="DejaVuSans-31" d="M 794 531 
L 1825 531 
L 1825 4091 
L 703 3866 
L 703 4441 
L 1819 4666 
L 2450 4666 
L 2450 531 
L 3481 531 
L 3481 0 
L 794 0 
L 794 531 
z
" transform="scale(0.015625)"/>
       </defs>
       <use xlink:href="#DejaVuSans-31"/>
       <use xlink:href="#DejaVuSans-30" x="63.623047"/>
      </g>
     </g>
    </g>
    <g id="xtick_7">
     <g id="line2d_7">
      <g>
       <use xlink:href="#medf13c0868" x="700.811768" y="118.08" style="stroke: #000000; stroke-width: 0.8"/>
      </g>
     </g>
     <g id="text_7">
      <!-- 12 -->
      <g transform="translate(694.449268 132.678438) scale(0.1 -0.1)">
       <use xlink:href="#DejaVuSans-31"/>
       <use xlink:href="#DejaVuSans-32" x="63.623047"/>
      </g>
     </g>
    </g>
    <g id="text_8">
     <!-- Time Offset (s) -->
     <g transform="translate(332.025 146.356562) scale(0.1 -0.1)">
      <defs>
       <path id="DejaVuSans-54" d="M -19 4666 
L 3928 4666 
L 3928 4134 
L 2272 4134 
L 2272 0 
L 1638 0 
L 1638 4134 
L -19 4134 
L -19 4666 
z
" transform="scale(0.015625)"/>
       <path id="DejaVuSans-69" d="M 603 3500 
L 1178 3500 
L 1178 0 
L 603 0 
L 603 3500 
z
M 603 4863 
L 1178 4863 
L 1178 4134 
L 603 4134 
L 603 4863 
z
" transform="scale(0.015625)"/>
       <path id="DejaVuSans-6d" d="M 3328 2828 
Q 3544 3216 3844 3400 
Q 4144 3584 4550 3584 
Q 5097 3584 5394 3201 
Q 5691 2819 5691 2113 
L 5691 0 
L 5113 0 
L 5113 2094 
Q 5113 2597 4934 2840 
Q 4756 3084 4391 3084 
Q 3944 3084 3684 2787 
Q 3425 2491 3425 1978 
L 3425 0 
L 2847 0 
L 2847 2094 
Q 2847 2600 2669 2842 
Q 2491 3084 2119 3084 
Q 1678 3084 1418 2786 
Q 1159 2488 1159 1978 
L 1159 0 
L 581 0 
L 581 3500 
L 1159 3500 
L 1159 2956 
Q 1356 3278 1631 3431 
Q 1906 3584 2284 3584 
Q 2666 3584 2933 3390 
Q 3200 3197 3328 2828 
z
" transform="scale(0.015625)"/>
       <path id="DejaVuSans-65" d="M 3597 1894 
L 3597 1613 
L 953 1613 
Q 991 1019 1311 708 
Q 1631 397 2203 397 
Q 2534 397 2845 478 
Q 3156 559 3463 722 
L 3463 178 
Q 3153 47 2828 -22 
Q 2503 -91 2169 -91 
Q 1331 -91 842 396 
Q 353 884 353 1716 
Q 353 2575 817 3079 
Q 1281 3584 2069 3584 
Q 2775 3584 3186 3129 
Q 3597 2675 3597 1894 
z
M 3022 2063 
Q 3016 2534 2758 2815 
Q 2500 3097 2075 3097 
Q 1594 3097 1305 2825 
Q 1016 2553 972 2059 
L 3022 2063 
z
" transform="scale(0.015625)"/>
       <path id="DejaVuSans-20" transform="scale(0.015625)"/>
       <path id="DejaVuSans-4f" d="M 2522 4238 
Q 1834 4238 1429 3725 
Q 1025 3213 1025 2328 
Q 1025 1447 1429 934 
Q 1834 422 2522 422 
Q 3209 422 3611 934 
Q 4013 1447 4013 2328 
Q 4013 3213 3611 3725 
Q 3209 4238 2522 4238 
z
M 2522 4750 
Q 3503 4750 4090 4092 
Q 4678 3434 4678 2328 
Q 4678 1225 4090 567 
Q 3503 -91 2522 -91 
Q 1538 -91 948 565 
Q 359 1222 359 2328 
Q 359 3434 948 4092 
Q 1538 4750 2522 4750 
z
" transform="scale(0.015625)"/>
       <path id="DejaVuSans-66" d="M 2375 4863 
L 2375 4384 
L 1825 4384 
Q 1516 4384 1395 4259 
Q 1275 4134 1275 3809 
L 1275 3500 
L 2222 3500 
L 2222 3053 
L 1275 3053 
L 1275 0 
L 697 0 
L 697 3053 
L 147 3053 
L 147 3500 
L 697 3500 
L 697 3744 
Q 697 4328 969 4595 
Q 1241 4863 1831 4863 
L 2375 4863 
z
" transform="scale(0.015625)"/>
       <path id="DejaVuSans-73" d="M 2834 3397 
L 2834 2853 
Q 2591 2978 2328 3040 
Q 2066 3103 1784 3103 
Q 1356 3103 1142 2972 
Q 928 2841 928 2578 
Q 928 2378 1081 2264 
Q 1234 2150 1697 2047 
L 1894 2003 
Q 2506 1872 2764 1633 
Q 3022 1394 3022 966 
Q 3022 478 2636 193 
Q 2250 -91 1575 -91 
Q 1294 -91 989 -36 
Q 684 19 347 128 
L 347 722 
Q 666 556 975 473 
Q 1284 391 1588 391 
Q 1994 391 2212 530 
Q 2431 669 2431 922 
Q 2431 1156 2273 1281 
Q 2116 1406 1581 1522 
L 1381 1569 
Q 847 1681 609 1914 
Q 372 2147 372 2553 
Q 372 3047 722 3315 
Q 1072 3584 1716 3584 
Q 2034 3584 2315 3537 
Q 2597 3491 2834 3397 
z
" transform="scale(0.015625)"/>
       <path id="DejaVuSans-74" d="M 1172 4494 
L 1172 3500 
L 2356 3500 
L 2356 3053 
L 1172 3053 
L 1172 1153 
Q 1172 725 1289 603 
Q 1406 481 1766 481 
L 2356 481 
L 2356 0 
L 1766 0 
Q 1100 0 847 248 
Q 594 497 594 1153 
L 594 3053 
L 172 3053 
L 172 3500 
L 594 3500 
L 594 4494 
L 1172 4494 
z
" transform="scale(0.015625)"/>
       <path id="DejaVuSans-28" d="M 1984 4856 
Q 1566 4138 1362 3434 
Q 1159 2731 1159 2009 
Q 1159 1288 1364 580 
Q 1569 -128 1984 -844 
L 1484 -844 
Q 1016 -109 783 600 
Q 550 1309 550 2009 
Q 550 2706 781 3412 
Q 1013 4119 1484 4856 
L 1984 4856 
z
" transform="scale(0.015625)"/>
       <path id="DejaVuSans-29" d="M 513 4856 
L 1013 4856 
Q 1481 4119 1714 3412 
Q 1947 2706 1947 2009 
Q 1947 1309 1714 600 
Q 1481 -109 1013 -844 
L 513 -844 
Q 928 -128 1133 580 
Q 1338 1288 1338 2009 
Q 1338 2731 1133 3434 
Q 928 4138 513 4856 
z
" transform="scale(0.015625)"/>
      </defs>
      <use xlink:href="#DejaVuSans-54"/>
      <use xlink:href="#DejaVuSans-69" x="57.958984"/>
      <use xlink:href="#DejaVuSans-6d" x="85.742188"/>
      <use xlink:href="#DejaVuSans-65" x="183.154297"/>
      <use xlink:href="#DejaVuSans-20" x="244.677734"/>
      <use xlink:href="#DejaVuSans-4f" x="276.464844"/>
      <use xlink:href="#DejaVuSans-66" x="355.175781"/>
      <use xlink:href="#DejaVuSans-66" x="390.380859"/>
      <use xlink:href="#DejaVuSans-73" x="425.585938"/>
      <use xlink:href="#DejaVuSans-65" x="477.685547"/>
      <use xlink:href="#DejaVuSans-74" x="539.208984"/>
      <use xlink:href="#DejaVuSans-20" x="578.417969"/>
      <use xlink:href="#DejaVuSans-28" x="610.205078"/>
      <use xlink:href="#DejaVuSans-73" x="649.21875"/>
      <use xlink:href="#DejaVuSans-29" x="701.318359"/>
     </g>
    </g>
   </g>
   <g id="matplotlib.axis_2">
    <g id="ytick_1">
     <g id="line2d_8">
      <defs>
       <path id="m98d98f808d" d="M 0 0 
L -3.5 0 
" style="stroke: #000000; stroke-width: 0.8"/>
      </defs>
      <g>
       <use xlink:href="#m98d98f808d" x="34.240625" y="23.870769" style="stroke: #000000; stroke-width: 0.8"/>
      </g>
     </g>
     <g id="text_9">
      <!-- 0 -->
      <g transform="translate(20.878125 27.669988) scale(0.1 -0.1)">
       <use xlink:href="#DejaVuSans-30"/>
      </g>
     </g>
    </g>
    <g id="ytick_2">
     <g id="line2d_9">
      <g>
       <use xlink:href="#m98d98f808d" x="34.240625" y="49.716923" style="stroke: #000000; stroke-width: 0.8"/>
      </g>
     </g>
     <g id="text_10">
      <!-- 1 -->
      <g transform="translate(20.878125 53.516142) scale(0.1 -0.1)">
       <use xlink:href="#DejaVuSans-31"/>
      </g>
     </g>
    </g>
    <g id="ytick_3">
     <g id="line2d_10">
      <g>
       <use xlink:href="#m98d98f808d" x="34.240625" y="75.563077" style="stroke: #000000; stroke-width: 0.8"/>
      </g>
     </g>
     <g id="text_11">
      <!-- 2 -->
      <g transform="translate(20.878125 79.362296) scale(0.1 -0.1)">
       <use xlink:href="#DejaVuSans-32"/>
      </g>
     </g>
    </g>
    <g id="ytick_4">
     <g id="line2d_11">
      <g>
       <use xlink:href="#m98d98f808d" x="34.240625" y="101.409231" style="stroke: #000000; stroke-width: 0.8"/>
      </g>
     </g>
     <g id="text_12">
      <!-- 3 -->
      <g transform="translate(20.878125 105.20845) scale(0.1 -0.1)">
       <defs>
        <path id="DejaVuSans-33" d="M 2597 2516 
Q 3050 2419 3304 2112 
Q 3559 1806 3559 1356 
Q 3559 666 3084 287 
Q 2609 -91 1734 -91 
Q 1441 -91 1130 -33 
Q 819 25 488 141 
L 488 750 
Q 750 597 1062 519 
Q 1375 441 1716 441 
Q 2309 441 2620 675 
Q 2931 909 2931 1356 
Q 2931 1769 2642 2001 
Q 2353 2234 1838 2234 
L 1294 2234 
L 1294 2753 
L 1863 2753 
Q 2328 2753 2575 2939 
Q 2822 3125 2822 3475 
Q 2822 3834 2567 4026 
Q 2313 4219 1838 4219 
Q 1578 4219 1281 4162 
Q 984 4106 628 3988 
L 628 4550 
Q 988 4650 1302 4700 
Q 1616 4750 1894 4750 
Q 2613 4750 3031 4423 
Q 3450 4097 3450 3541 
Q 3450 3153 3228 2886 
Q 3006 2619 2597 2516 
z
" transform="scale(0.015625)"/>
       </defs>
       <use xlink:href="#DejaVuSans-33"/>
      </g>
     </g>
    </g>
    <g id="text_13">
     <!-- Task -->
     <g transform="translate(14.798438 73.432969) rotate(-90) scale(0.1 -0.1)">
      <defs>
       <path id="DejaVuSans-61" d="M 2194 1759 
Q 1497 1759 1228 1600 
Q 959 1441 959 1056 
Q 959 750 1161 570 
Q 1363 391 1709 391 
Q 2188 391 2477 730 
Q 2766 1069 2766 1631 
L 2766 1759 
L 2194 1759 
z
M 3341 1997 
L 3341 0 
L 2766 0 
L 2766 531 
Q 2569 213 2275 61 
Q 1981 -91 1556 -91 
Q 1019 -91 701 211 
Q 384 513 384 1019 
Q 384 1609 779 1909 
Q 1175 2209 1959 2209 
L 2766 2209 
L 2766 2266 
Q 2766 2663 2505 2880 
Q 2244 3097 1772 3097 
Q 1472 3097 1187 3025 
Q 903 2953 641 2809 
L 641 3341 
Q 956 3463 1253 3523 
Q 1550 3584 1831 3584 
Q 2591 3584 2966 3190 
Q 3341 2797 3341 1997 
z
" transform="scale(0.015625)"/>
       <path id="DejaVuSans-6b" d="M 581 4863 
L 1159 4863 
L 1159 1991 
L 2875 3500 
L 3609 3500 
L 1753 1863 
L 3688 0 
L 2938 0 
L 1159 1709 
L 1159 0 
L 581 0 
L 581 4863 
z
" transform="scale(0.015625)"/>
      </defs>
      <use xlink:href="#DejaVuSans-54"/>
      <use xlink:href="#DejaVuSans-61" x="44.583984"/>
      <use xlink:href="#DejaVuSans-73" x="105.863281"/>
      <use xlink:href="#DejaVuSans-6b" x="157.962891"/>
     </g>
    </g>
   </g>
   <g id="patch_3">
    <path d="M 34.240625 118.08 
L 34.240625 7.2 
" style="fill: none; stroke: #000000; stroke-width: 0.8; stroke-linejoin: miter; stroke-linecap: square"/>
   </g>
   <g id="patch_4">
    <path d="M 703.840625 118.08 
L 703.840625 7.2 
" style="fill: none; stroke: #000000; stroke-width: 0.8; stroke-linejoin: miter; stroke-linecap: square"/>
   </g>
   <g id="patch_5">
    <path d="M 34.240631 118.08 
L 703.840637 118.08 
" style="fill: none; stroke: #000000; stroke-width: 0.8; stroke-linejoin: miter; stroke-linecap: square"/>
   </g>
   <g id="patch_6">
    <path d="M 34.240631 7.2 
L 703.840637 7.2 
" style="fill: none; stroke: #000000; stroke-width: 0.8; stroke-linejoin: miter; stroke-linecap: square"/>
   </g>
   <g id="legend_1">
    <g id="patch_7">
     <path d="M 717.536625 149.25 
L 902.396 149.25 
Q 904.396 149.25 904.396 147.25 
L 904.396 14.2 
Q 904.396 12.2 902.396 12.2 
L 717.536625 12.2 
Q 715.536625 12.2 715.536625 14.2 
L 715.536625 147.25 
Q 715.536625 149.25 717.536625 149.25 
z
" style="fill: #ffffff; opacity: 0.8; stroke: #cccccc; stroke-linejoin: miter"/>
    </g>
    <g id="text_14">
     <!-- Function -->
     <g transform="translate(788.701469 23.798438) scale(0.1 -0.1)">
      <defs>
       <path id="DejaVuSans-46" d="M 628 4666 
L 3309 4666 
L 3309 4134 
L 1259 4134 
L 1259 2759 
L 3109 2759 
L 3109 2228 
L 1259 2228 
L 1259 0 
L 628 0 
L 628 4666 
z
" transform="scale(0.015625)"/>
       <path id="DejaVuSans-75" d="M 544 1381 
L 544 3500 
L 1119 3500 
L 1119 1403 
Q 1119 906 1312 657 
Q 1506 409 1894 409 
Q 2359 409 2629 706 
Q 2900 1003 2900 1516 
L 2900 3500 
L 3475 3500 
L 3475 0 
L 2900 0 
L 2900 538 
Q 2691 219 2414 64 
Q 2138 -91 1772 -91 
Q 1169 -91 856 284 
Q 544 659 544 1381 
z
M 1991 3584 
L 1991 3584 
z
" transform="scale(0.015625)"/>
       <path id="DejaVuSans-6e" d="M 3513 2113 
L 3513 0 
L 2938 0 
L 2938 2094 
Q 2938 2591 2744 2837 
Q 2550 3084 2163 3084 
Q 1697 3084 1428 2787 
Q 1159 2491 1159 1978 
L 1159 0 
L 581 0 
L 581 3500 
L 1159 3500 
L 1159 2956 
Q 1366 3272 1645 3428 
Q 1925 3584 2291 3584 
Q 2894 3584 3203 3211 
Q 3513 2838 3513 2113 
z
" transform="scale(0.015625)"/>
       <path id="DejaVuSans-63" d="M 3122 3366 
L 3122 2828 
Q 2878 2963 2633 3030 
Q 2388 3097 2138 3097 
Q 1578 3097 1268 2742 
Q 959 2388 959 1747 
Q 959 1106 1268 751 
Q 1578 397 2138 397 
Q 2388 397 2633 464 
Q 2878 531 3122 666 
L 3122 134 
Q 2881 22 2623 -34 
Q 2366 -91 2075 -91 
Q 1284 -91 818 406 
Q 353 903 353 1747 
Q 353 2603 823 3093 
Q 1294 3584 2113 3584 
Q 2378 3584 2631 3529 
Q 2884 3475 3122 3366 
z
" transform="scale(0.015625)"/>
       <path id="DejaVuSans-6f" d="M 1959 3097 
Q 1497 3097 1228 2736 
Q 959 2375 959 1747 
Q 959 1119 1226 758 
Q 1494 397 1959 397 
Q 2419 397 2687 759 
Q 2956 1122 2956 1747 
Q 2956 2369 2687 2733 
Q 2419 3097 1959 3097 
z
M 1959 3584 
Q 2709 3584 3137 3096 
Q 3566 2609 3566 1747 
Q 3566 888 3137 398 
Q 2709 -91 1959 -91 
Q 1206 -91 779 398 
Q 353 888 353 1747 
Q 353 2609 779 3096 
Q 1206 3584 1959 3584 
z
" transform="scale(0.015625)"/>
      </defs>
      <use xlink:href="#DejaVuSans-46"/>
      <use xlink:href="#DejaVuSans-75" x="52.019531"/>
      <use xlink:href="#DejaVuSans-6e" x="115.398438"/>
      <use xlink:href="#DejaVuSans-63" x="178.777344"/>
      <use xlink:href="#DejaVuSans-74" x="233.757812"/>
      <use xlink:href="#DejaVuSans-69" x="272.966797"/>
      <use xlink:href="#DejaVuSans-6f" x="300.75"/>
      <use xlink:href="#DejaVuSans-6e" x="361.931641"/>
     </g>
    </g>
    <g id="patch_8">
     <path d="M 719.536625 38.476563 
L 739.536625 38.476563 
L 739.536625 31.476563 
L 719.536625 31.476563 
z
" style="fill: #1f77b4; stroke: #1f77b4; stroke-linejoin: miter"/>
    </g>
    <g id="text_15">
     <!-- get_imbalance -->
     <g transform="translate(747.536625 38.476563) scale(0.1 -0.1)">
      <defs>
       <path id="DejaVuSans-67" d="M 2906 1791 
Q 2906 2416 2648 2759 
Q 2391 3103 1925 3103 
Q 1463 3103 1205 2759 
Q 947 2416 947 1791 
Q 947 1169 1205 825 
Q 1463 481 1925 481 
Q 2391 481 2648 825 
Q 2906 1169 2906 1791 
z
M 3481 434 
Q 3481 -459 3084 -895 
Q 2688 -1331 1869 -1331 
Q 1566 -1331 1297 -1286 
Q 1028 -1241 775 -1147 
L 775 -588 
Q 1028 -725 1275 -790 
Q 1522 -856 1778 -856 
Q 2344 -856 2625 -561 
Q 2906 -266 2906 331 
L 2906 616 
Q 2728 306 2450 153 
Q 2172 0 1784 0 
Q 1141 0 747 490 
Q 353 981 353 1791 
Q 353 2603 747 3093 
Q 1141 3584 1784 3584 
Q 2172 3584 2450 3431 
Q 2728 3278 2906 2969 
L 2906 3500 
L 3481 3500 
L 3481 434 
z
" transform="scale(0.015625)"/>
       <path id="DejaVuSans-5f" d="M 3263 -1063 
L 3263 -1509 
L -63 -1509 
L -63 -1063 
L 3263 -1063 
z
" transform="scale(0.015625)"/>
       <path id="DejaVuSans-62" d="M 3116 1747 
Q 3116 2381 2855 2742 
Q 2594 3103 2138 3103 
Q 1681 3103 1420 2742 
Q 1159 2381 1159 1747 
Q 1159 1113 1420 752 
Q 1681 391 2138 391 
Q 2594 391 2855 752 
Q 3116 1113 3116 1747 
z
M 1159 2969 
Q 1341 3281 1617 3432 
Q 1894 3584 2278 3584 
Q 2916 3584 3314 3078 
Q 3713 2572 3713 1747 
Q 3713 922 3314 415 
Q 2916 -91 2278 -91 
Q 1894 -91 1617 61 
Q 1341 213 1159 525 
L 1159 0 
L 581 0 
L 581 4863 
L 1159 4863 
L 1159 2969 
z
" transform="scale(0.015625)"/>
       <path id="DejaVuSans-6c" d="M 603 4863 
L 1178 4863 
L 1178 0 
L 603 0 
L 603 4863 
z
" transform="scale(0.015625)"/>
      </defs>
      <use xlink:href="#DejaVuSans-67"/>
      <use xlink:href="#DejaVuSans-65" x="63.476562"/>
      <use xlink:href="#DejaVuSans-74" x="125"/>
      <use xlink:href="#DejaVuSans-5f" x="164.208984"/>
      <use xlink:href="#DejaVuSans-69" x="214.208984"/>
      <use xlink:href="#DejaVuSans-6d" x="241.992188"/>
      <use xlink:href="#DejaVuSans-62" x="339.404297"/>
      <use xlink:href="#DejaVuSans-61" x="402.880859"/>
      <use xlink:href="#DejaVuSans-6c" x="464.160156"/>
      <use xlink:href="#DejaVuSans-61" x="491.943359"/>
      <use xlink:href="#DejaVuSans-6e" x="553.222656"/>
      <use xlink:href="#DejaVuSans-63" x="616.601562"/>
      <use xlink:href="#DejaVuSans-65" x="671.582031"/>
     </g>
    </g>
    <g id="patch_9">
     <path d="M 719.536625 53.432813 
L 739.536625 53.432813 
L 739.536625 46.432813 
L 719.536625 46.432813 
z
" style="fill: #ff7f0e; stroke: #ff7f0e; stroke-linejoin: miter"/>
    </g>
    <g id="text_16">
     <!-- init_weights -->
     <g transform="translate(747.536625 53.432813) scale(0.1 -0.1)">
      <defs>
       <path id="DejaVuSans-77" d="M 269 3500 
L 844 3500 
L 1563 769 
L 2278 3500 
L 2956 3500 
L 3675 769 
L 4391 3500 
L 4966 3500 
L 4050 0 
L 3372 0 
L 2619 2869 
L 1863 0 
L 1184 0 
L 269 3500 
z
" transform="scale(0.015625)"/>
       <path id="DejaVuSans-68" d="M 3513 2113 
L 3513 0 
L 2938 0 
L 2938 2094 
Q 2938 2591 2744 2837 
Q 2550 3084 2163 3084 
Q 1697 3084 1428 2787 
Q 1159 2491 1159 1978 
L 1159 0 
L 581 0 
L 581 4863 
L 1159 4863 
L 1159 2956 
Q 1366 3272 1645 3428 
Q 1925 3584 2291 3584 
Q 2894 3584 3203 3211 
Q 3513 2838 3513 2113 
z
" transform="scale(0.015625)"/>
      </defs>
      <use xlink:href="#DejaVuSans-69"/>
      <use xlink:href="#DejaVuSans-6e" x="27.783203"/>
      <use xlink:href="#DejaVuSans-69" x="91.162109"/>
      <use xlink:href="#DejaVuSans-74" x="118.945312"/>
      <use xlink:href="#DejaVuSans-5f" x="158.154297"/>
      <use xlink:href="#DejaVuSans-77" x="208.154297"/>
      <use xlink:href="#DejaVuSans-65" x="289.941406"/>
      <use xlink:href="#DejaVuSans-69" x="351.464844"/>
      <use xlink:href="#DejaVuSans-67" x="379.248047"/>
      <use xlink:href="#DejaVuSans-68" x="442.724609"/>
      <use xlink:href="#DejaVuSans-74" x="506.103516"/>
      <use xlink:href="#DejaVuSans-73" x="545.3125"/>
     </g>
    </g>
    <g id="patch_10">
     <path d="M 719.536625 68.389063 
L 739.536625 68.389063 
L 739.536625 61.389063 
L 719.536625 61.389063 
z
" style="fill: #2ca02c; stroke: #2ca02c; stroke-linejoin: miter"/>
    </g>
    <g id="text_17">
     <!-- laik_lb_balance -->
     <g transform="translate(747.536625 68.389063) scale(0.1 -0.1)">
      <use xlink:href="#DejaVuSans-6c"/>
      <use xlink:href="#DejaVuSans-61" x="27.783203"/>
      <use xlink:href="#DejaVuSans-69" x="89.0625"/>
      <use xlink:href="#DejaVuSans-6b" x="116.845703"/>
      <use xlink:href="#DejaVuSans-5f" x="174.755859"/>
      <use xlink:href="#DejaVuSans-6c" x="224.755859"/>
      <use xlink:href="#DejaVuSans-62" x="252.539062"/>
      <use xlink:href="#DejaVuSans-5f" x="316.015625"/>
      <use xlink:href="#DejaVuSans-62" x="366.015625"/>
      <use xlink:href="#DejaVuSans-61" x="429.492188"/>
      <use xlink:href="#DejaVuSans-6c" x="490.771484"/>
      <use xlink:href="#DejaVuSans-61" x="518.554688"/>
      <use xlink:href="#DejaVuSans-6e" x="579.833984"/>
      <use xlink:href="#DejaVuSans-63" x="643.212891"/>
      <use xlink:href="#DejaVuSans-65" x="698.193359"/>
     </g>
    </g>
    <g id="patch_11">
     <path d="M 719.536625 83.345313 
L 739.536625 83.345313 
L 739.536625 76.345313 
L 719.536625 76.345313 
z
" style="fill: #d62728; stroke: #d62728; stroke-linejoin: miter"/>
    </g>
    <g id="text_18">
     <!-- laik_lb_switch_and_free -->
     <g transform="translate(747.536625 83.345313) scale(0.1 -0.1)">
      <defs>
       <path id="DejaVuSans-64" d="M 2906 2969 
L 2906 4863 
L 3481 4863 
L 3481 0 
L 2906 0 
L 2906 525 
Q 2725 213 2448 61 
Q 2172 -91 1784 -91 
Q 1150 -91 751 415 
Q 353 922 353 1747 
Q 353 2572 751 3078 
Q 1150 3584 1784 3584 
Q 2172 3584 2448 3432 
Q 2725 3281 2906 2969 
z
M 947 1747 
Q 947 1113 1208 752 
Q 1469 391 1925 391 
Q 2381 391 2643 752 
Q 2906 1113 2906 1747 
Q 2906 2381 2643 2742 
Q 2381 3103 1925 3103 
Q 1469 3103 1208 2742 
Q 947 2381 947 1747 
z
" transform="scale(0.015625)"/>
       <path id="DejaVuSans-72" d="M 2631 2963 
Q 2534 3019 2420 3045 
Q 2306 3072 2169 3072 
Q 1681 3072 1420 2755 
Q 1159 2438 1159 1844 
L 1159 0 
L 581 0 
L 581 3500 
L 1159 3500 
L 1159 2956 
Q 1341 3275 1631 3429 
Q 1922 3584 2338 3584 
Q 2397 3584 2469 3576 
Q 2541 3569 2628 3553 
L 2631 2963 
z
" transform="scale(0.015625)"/>
      </defs>
      <use xlink:href="#DejaVuSans-6c"/>
      <use xlink:href="#DejaVuSans-61" x="27.783203"/>
      <use xlink:href="#DejaVuSans-69" x="89.0625"/>
      <use xlink:href="#DejaVuSans-6b" x="116.845703"/>
      <use xlink:href="#DejaVuSans-5f" x="174.755859"/>
      <use xlink:href="#DejaVuSans-6c" x="224.755859"/>
      <use xlink:href="#DejaVuSans-62" x="252.539062"/>
      <use xlink:href="#DejaVuSans-5f" x="316.015625"/>
      <use xlink:href="#DejaVuSans-73" x="366.015625"/>
      <use xlink:href="#DejaVuSans-77" x="418.115234"/>
      <use xlink:href="#DejaVuSans-69" x="499.902344"/>
      <use xlink:href="#DejaVuSans-74" x="527.685547"/>
      <use xlink:href="#DejaVuSans-63" x="566.894531"/>
      <use xlink:href="#DejaVuSans-68" x="621.875"/>
      <use xlink:href="#DejaVuSans-5f" x="685.253906"/>
      <use xlink:href="#DejaVuSans-61" x="735.253906"/>
      <use xlink:href="#DejaVuSans-6e" x="796.533203"/>
      <use xlink:href="#DejaVuSans-64" x="859.912109"/>
      <use xlink:href="#DejaVuSans-5f" x="923.388672"/>
      <use xlink:href="#DejaVuSans-66" x="973.388672"/>
      <use xlink:href="#DejaVuSans-72" x="1008.59375"/>
      <use xlink:href="#DejaVuSans-65" x="1047.457031"/>
      <use xlink:href="#DejaVuSans-65" x="1108.980469"/>
     </g>
    </g>
    <g id="patch_12">
     <path d="M 719.536625 98.301563 
L 739.536625 98.301563 
L 739.536625 91.301563 
L 719.536625 91.301563 
z
" style="fill: #9467bd; stroke: #9467bd; stroke-linejoin: miter"/>
    </g>
    <g id="text_19">
     <!-- main_2d -->
     <g transform="translate(747.536625 98.301563) scale(0.1 -0.1)">
      <use xlink:href="#DejaVuSans-6d"/>
      <use xlink:href="#DejaVuSans-61" x="97.412109"/>
      <use xlink:href="#DejaVuSans-69" x="158.691406"/>
      <use xlink:href="#DejaVuSans-6e" x="186.474609"/>
      <use xlink:href="#DejaVuSans-5f" x="249.853516"/>
      <use xlink:href="#DejaVuSans-32" x="299.853516"/>
      <use xlink:href="#DejaVuSans-64" x="363.476562"/>
     </g>
    </g>
    <g id="patch_13">
     <path d="M 719.536625 113.257813 
L 739.536625 113.257813 
L 739.536625 106.257813 
L 719.536625 106.257813 
z
" style="fill: #8c564b; stroke: #8c564b; stroke-linejoin: miter"/>
    </g>
    <g id="text_20">
     <!-- merge_rects_then_add_ranges -->
     <g transform="translate(747.536625 113.257813) scale(0.1 -0.1)">
      <use xlink:href="#DejaVuSans-6d"/>
      <use xlink:href="#DejaVuSans-65" x="97.412109"/>
      <use xlink:href="#DejaVuSans-72" x="158.935547"/>
      <use xlink:href="#DejaVuSans-67" x="198.298828"/>
      <use xlink:href="#DejaVuSans-65" x="261.775391"/>
      <use xlink:href="#DejaVuSans-5f" x="323.298828"/>
      <use xlink:href="#DejaVuSans-72" x="373.298828"/>
      <use xlink:href="#DejaVuSans-65" x="412.162109"/>
      <use xlink:href="#DejaVuSans-63" x="473.685547"/>
      <use xlink:href="#DejaVuSans-74" x="528.666016"/>
      <use xlink:href="#DejaVuSans-73" x="567.875"/>
      <use xlink:href="#DejaVuSans-5f" x="619.974609"/>
      <use xlink:href="#DejaVuSans-74" x="669.974609"/>
      <use xlink:href="#DejaVuSans-68" x="709.183594"/>
      <use xlink:href="#DejaVuSans-65" x="772.5625"/>
      <use xlink:href="#DejaVuSans-6e" x="834.085938"/>
      <use xlink:href="#DejaVuSans-5f" x="897.464844"/>
      <use xlink:href="#DejaVuSans-61" x="947.464844"/>
      <use xlink:href="#DejaVuSans-64" x="1008.744141"/>
      <use xlink:href="#DejaVuSans-64" x="1072.220703"/>
      <use xlink:href="#DejaVuSans-5f" x="1135.697266"/>
      <use xlink:href="#DejaVuSans-72" x="1185.697266"/>
      <use xlink:href="#DejaVuSans-61" x="1226.810547"/>
      <use xlink:href="#DejaVuSans-6e" x="1288.089844"/>
      <use xlink:href="#DejaVuSans-67" x="1351.46875"/>
      <use xlink:href="#DejaVuSans-65" x="1414.945312"/>
      <use xlink:href="#DejaVuSans-73" x="1476.46875"/>
     </g>
    </g>
    <g id="patch_14">
     <path d="M 719.536625 128.214063 
L 739.536625 128.214063 
L 739.536625 121.214063 
L 719.536625 121.214063 
z
" style="fill: #e377c2; stroke: #e377c2; stroke-linejoin: miter"/>
    </g>
    <g id="text_21">
     <!-- runSFCPartitioner -->
     <g transform="translate(747.536625 128.214063) scale(0.1 -0.1)">
      <defs>
       <path id="DejaVuSans-53" d="M 3425 4513 
L 3425 3897 
Q 3066 4069 2747 4153 
Q 2428 4238 2131 4238 
Q 1616 4238 1336 4038 
Q 1056 3838 1056 3469 
Q 1056 3159 1242 3001 
Q 1428 2844 1947 2747 
L 2328 2669 
Q 3034 2534 3370 2195 
Q 3706 1856 3706 1288 
Q 3706 609 3251 259 
Q 2797 -91 1919 -91 
Q 1588 -91 1214 -16 
Q 841 59 441 206 
L 441 856 
Q 825 641 1194 531 
Q 1563 422 1919 422 
Q 2459 422 2753 634 
Q 3047 847 3047 1241 
Q 3047 1584 2836 1778 
Q 2625 1972 2144 2069 
L 1759 2144 
Q 1053 2284 737 2584 
Q 422 2884 422 3419 
Q 422 4038 858 4394 
Q 1294 4750 2059 4750 
Q 2388 4750 2728 4690 
Q 3069 4631 3425 4513 
z
" transform="scale(0.015625)"/>
       <path id="DejaVuSans-43" d="M 4122 4306 
L 4122 3641 
Q 3803 3938 3442 4084 
Q 3081 4231 2675 4231 
Q 1875 4231 1450 3742 
Q 1025 3253 1025 2328 
Q 1025 1406 1450 917 
Q 1875 428 2675 428 
Q 3081 428 3442 575 
Q 3803 722 4122 1019 
L 4122 359 
Q 3791 134 3420 21 
Q 3050 -91 2638 -91 
Q 1578 -91 968 557 
Q 359 1206 359 2328 
Q 359 3453 968 4101 
Q 1578 4750 2638 4750 
Q 3056 4750 3426 4639 
Q 3797 4528 4122 4306 
z
" transform="scale(0.015625)"/>
       <path id="DejaVuSans-50" d="M 1259 4147 
L 1259 2394 
L 2053 2394 
Q 2494 2394 2734 2622 
Q 2975 2850 2975 3272 
Q 2975 3691 2734 3919 
Q 2494 4147 2053 4147 
L 1259 4147 
z
M 628 4666 
L 2053 4666 
Q 2838 4666 3239 4311 
Q 3641 3956 3641 3272 
Q 3641 2581 3239 2228 
Q 2838 1875 2053 1875 
L 1259 1875 
L 1259 0 
L 628 0 
L 628 4666 
z
" transform="scale(0.015625)"/>
      </defs>
      <use xlink:href="#DejaVuSans-72"/>
      <use xlink:href="#DejaVuSans-75" x="41.113281"/>
      <use xlink:href="#DejaVuSans-6e" x="104.492188"/>
      <use xlink:href="#DejaVuSans-53" x="167.871094"/>
      <use xlink:href="#DejaVuSans-46" x="231.347656"/>
      <use xlink:href="#DejaVuSans-43" x="288.867188"/>
      <use xlink:href="#DejaVuSans-50" x="358.691406"/>
      <use xlink:href="#DejaVuSans-61" x="414.494141"/>
      <use xlink:href="#DejaVuSans-72" x="475.773438"/>
      <use xlink:href="#DejaVuSans-74" x="516.886719"/>
      <use xlink:href="#DejaVuSans-69" x="556.095703"/>
      <use xlink:href="#DejaVuSans-74" x="583.878906"/>
      <use xlink:href="#DejaVuSans-69" x="623.087891"/>
      <use xlink:href="#DejaVuSans-6f" x="650.871094"/>
      <use xlink:href="#DejaVuSans-6e" x="712.052734"/>
      <use xlink:href="#DejaVuSans-65" x="775.431641"/>
      <use xlink:href="#DejaVuSans-72" x="836.955078"/>
     </g>
    </g>
    <g id="patch_15">
     <path d="M 719.536625 142.892188 
L 739.536625 142.892188 
L 739.536625 135.892188 
L 719.536625 135.892188 
z
" style="fill: #7f7f7f; stroke: #7f7f7f; stroke-linejoin: miter"/>
    </g>
    <g id="text_22">
     <!-- sfc_2d -->
     <g transform="translate(747.536625 142.892188) scale(0.1 -0.1)">
      <use xlink:href="#DejaVuSans-73"/>
      <use xlink:href="#DejaVuSans-66" x="52.099609"/>
      <use xlink:href="#DejaVuSans-63" x="87.304688"/>
      <use xlink:href="#DejaVuSans-5f" x="142.285156"/>
      <use xlink:href="#DejaVuSans-32" x="192.285156"/>
      <use xlink:href="#DejaVuSans-64" x="255.908203"/>
     </g>
    </g>
   </g>
   <g id="BrokenBarHCollection_1">
    <path d="M 34.240631 89.778462 
L 34.240631 113.04 
L 703.840515 113.04 
L 703.840515 89.778462 
L 34.240631 89.778462 
z
" clip-path="url(#p3ca52f65ee)" style="fill: #9467bd"/>
   </g>
   <g id="BrokenBarHCollection_2">
    <path d="M 34.241241 63.932308 
L 34.241241 87.193846 
L 703.840637 87.193846 
L 703.840637 63.932308 
L 34.241241 63.932308 
z
" clip-path="url(#p3ca52f65ee)" style="fill: #9467bd"/>
   </g>
   <g id="BrokenBarHCollection_3">
    <path d="M 34.241943 38.086154 
L 34.241943 61.347692 
L 687.512222 61.347692 
L 687.512222 38.086154 
L 34.241943 38.086154 
z
" clip-path="url(#p3ca52f65ee)" style="fill: #9467bd"/>
   </g>
   <g id="BrokenBarHCollection_4">
    <path d="M 34.242599 12.24 
L 34.242599 35.501538 
L 687.514191 35.501538 
L 687.514191 12.24 
L 34.242599 12.24 
z
" clip-path="url(#p3ca52f65ee)" style="fill: #9467bd"/>
   </g>
   <g id="BrokenBarHCollection_5">
    <path d="M 69.94368 12.24 
L 69.94368 35.501538 
L 180.598129 35.501538 
L 180.598129 12.24 
L 69.94368 12.24 
z
" clip-path="url(#p3ca52f65ee)" style="fill: #2ca02c"/>
   </g>
   <g id="BrokenBarHCollection_6">
    <path d="M 69.943832 12.24 
L 69.943832 35.501538 
L 177.042999 35.501538 
L 177.042999 12.24 
L 69.943832 12.24 
z
" clip-path="url(#p3ca52f65ee)" style="fill: #1f77b4"/>
   </g>
   <g id="BrokenBarHCollection_7">
    <path d="M 105.639252 38.086154 
L 105.639252 61.347692 
L 180.617508 61.347692 
L 180.617508 38.086154 
L 105.639252 38.086154 
z
" clip-path="url(#p3ca52f65ee)" style="fill: #2ca02c"/>
   </g>
   <g id="BrokenBarHCollection_8">
    <path d="M 105.639648 38.086154 
L 105.639648 61.347692 
L 177.042892 61.347692 
L 177.042892 38.086154 
L 105.639648 38.086154 
z
" clip-path="url(#p3ca52f65ee)" style="fill: #1f77b4"/>
   </g>
   <g id="BrokenBarHCollection_9">
    <path d="M 141.337616 63.932308 
L 141.337616 87.193846 
L 180.602371 87.193846 
L 180.602371 63.932308 
L 141.337616 63.932308 
z
" clip-path="url(#p3ca52f65ee)" style="fill: #2ca02c"/>
   </g>
   <g id="BrokenBarHCollection_10">
    <path d="M 141.337769 63.932308 
L 141.337769 87.193846 
L 177.042343 87.193846 
L 177.042343 63.932308 
L 141.337769 63.932308 
z
" clip-path="url(#p3ca52f65ee)" style="fill: #1f77b4"/>
   </g>
   <g id="BrokenBarHCollection_11">
    <path d="M 177.035645 89.778462 
L 177.035645 113.04 
L 180.643677 113.04 
L 180.643677 89.778462 
L 177.035645 89.778462 
z
" clip-path="url(#p3ca52f65ee)" style="fill: #2ca02c"/>
   </g>
   <g id="BrokenBarHCollection_12">
    <path d="M 177.035751 89.778462 
L 177.035751 113.04 
L 177.042557 113.04 
L 177.042557 89.778462 
L 177.035751 89.778462 
z
" clip-path="url(#p3ca52f65ee)" style="fill: #1f77b4"/>
   </g>
   <g id="BrokenBarHCollection_13">
    <path d="M 177.042389 63.932308 
L 177.042389 87.193846 
L 177.237686 87.193846 
L 177.237686 63.932308 
L 177.042389 63.932308 
z
" clip-path="url(#p3ca52f65ee)" style="fill: #ff7f0e"/>
   </g>
   <g id="BrokenBarHCollection_14">
    <path d="M 177.042618 89.778462 
L 177.042618 113.04 
L 177.237137 113.04 
L 177.237137 89.778462 
L 177.042618 89.778462 
z
" clip-path="url(#p3ca52f65ee)" style="fill: #ff7f0e"/>
   </g>
   <g id="BrokenBarHCollection_15">
    <path d="M 177.042892 38.086154 
L 177.042892 61.347692 
L 177.237625 61.347692 
L 177.237625 38.086154 
L 177.042892 38.086154 
z
" clip-path="url(#p3ca52f65ee)" style="fill: #ff7f0e"/>
   </g>
   <g id="BrokenBarHCollection_16">
    <path d="M 177.043045 12.24 
L 177.043045 35.501538 
L 177.236755 35.501538 
L 177.236755 12.24 
L 177.043045 12.24 
z
" clip-path="url(#p3ca52f65ee)" style="fill: #ff7f0e"/>
   </g>
   <g id="BrokenBarHCollection_17">
    <path d="M 177.236862 12.24 
L 177.236862 35.501538 
L 180.597809 35.501538 
L 180.597809 12.24 
L 177.236862 12.24 
z
" clip-path="url(#p3ca52f65ee)" style="fill: #e377c2"/>
   </g>
   <g id="BrokenBarHCollection_18">
    <path d="M 177.236984 12.24 
L 177.236984 35.501538 
L 180.597809 35.501538 
L 180.597809 12.24 
L 177.236984 12.24 
z
" clip-path="url(#p3ca52f65ee)" style="fill: #7f7f7f"/>
   </g>
   <g id="BrokenBarHCollection_19">
    <path d="M 177.237259 89.778462 
L 177.237259 113.04 
L 180.643356 113.04 
L 180.643356 89.778462 
L 177.237259 89.778462 
z
" clip-path="url(#p3ca52f65ee)" style="fill: #7f7f7f"/>
   </g>
   <g id="BrokenBarHCollection_20">
    <path d="M 177.237259 89.778462 
L 177.237259 113.04 
L 180.643356 113.04 
L 180.643356 89.778462 
L 177.237259 89.778462 
z
" clip-path="url(#p3ca52f65ee)" style="fill: #e377c2"/>
   </g>
   <g id="BrokenBarHCollection_21">
    <path d="M 177.237686 38.086154 
L 177.237686 61.347692 
L 180.617172 61.347692 
L 180.617172 38.086154 
L 177.237686 38.086154 
z
" clip-path="url(#p3ca52f65ee)" style="fill: #e377c2"/>
   </g>
   <g id="BrokenBarHCollection_22">
    <path d="M 177.237732 38.086154 
L 177.237732 61.347692 
L 180.617172 61.347692 
L 180.617172 38.086154 
L 177.237732 38.086154 
z
" clip-path="url(#p3ca52f65ee)" style="fill: #7f7f7f"/>
   </g>
   <g id="BrokenBarHCollection_23">
    <path d="M 177.237793 63.932308 
L 177.237793 87.193846 
L 180.602051 87.193846 
L 180.602051 63.932308 
L 177.237793 63.932308 
z
" clip-path="url(#p3ca52f65ee)" style="fill: #7f7f7f"/>
   </g>
   <g id="BrokenBarHCollection_24">
    <path d="M 177.237793 63.932308 
L 177.237793 87.193846 
L 180.602051 87.193846 
L 180.602051 63.932308 
L 177.237793 63.932308 
z
" clip-path="url(#p3ca52f65ee)" style="fill: #e377c2"/>
   </g>
   <g id="BrokenBarHCollection_25">
    <path d="M 180.02359 63.932308 
L 180.02359 87.193846 
L 180.60199 87.193846 
L 180.60199 63.932308 
L 180.02359 63.932308 
z
" clip-path="url(#p3ca52f65ee)" style="fill: #8c564b"/>
   </g>
   <g id="BrokenBarHCollection_26">
    <path d="M 180.027512 38.086154 
L 180.027512 61.347692 
L 180.617172 61.347692 
L 180.617172 38.086154 
L 180.027512 38.086154 
z
" clip-path="url(#p3ca52f65ee)" style="fill: #8c564b"/>
   </g>
   <g id="BrokenBarHCollection_27">
    <path d="M 180.032181 12.24 
L 180.032181 35.501538 
L 180.597733 35.501538 
L 180.597733 12.24 
L 180.032181 12.24 
z
" clip-path="url(#p3ca52f65ee)" style="fill: #8c564b"/>
   </g>
   <g id="BrokenBarHCollection_28">
    <path d="M 180.037567 89.778462 
L 180.037567 113.04 
L 180.643295 113.04 
L 180.643295 89.778462 
L 180.037567 89.778462 
z
" clip-path="url(#p3ca52f65ee)" style="fill: #8c564b"/>
   </g>
   <g id="BrokenBarHCollection_29">
    <path d="M 180.598175 12.24 
L 180.598175 35.501538 
L 202.441406 35.501538 
L 202.441406 12.24 
L 180.598175 12.24 
z
" clip-path="url(#p3ca52f65ee)" style="fill: #d62728"/>
   </g>
   <g id="BrokenBarHCollection_30">
    <path d="M 180.602417 63.932308 
L 180.602417 87.193846 
L 240.536606 87.193846 
L 240.536606 63.932308 
L 180.602417 63.932308 
z
" clip-path="url(#p3ca52f65ee)" style="fill: #d62728"/>
   </g>
   <g id="BrokenBarHCollection_31">
    <path d="M 180.617554 38.086154 
L 180.617554 61.347692 
L 226.926773 61.347692 
L 226.926773 38.086154 
L 180.617554 38.086154 
z
" clip-path="url(#p3ca52f65ee)" style="fill: #d62728"/>
   </g>
   <g id="BrokenBarHCollection_32">
    <path d="M 180.643738 89.778462 
L 180.643738 113.04 
L 240.543076 113.04 
L 240.543076 89.778462 
L 180.643738 89.778462 
z
" clip-path="url(#p3ca52f65ee)" style="fill: #d62728"/>
   </g>
   <g id="BrokenBarHCollection_33">
    <path d="M 264.891724 12.24 
L 264.891724 35.501538 
L 363.447418 35.501538 
L 363.447418 12.24 
L 264.891724 12.24 
z
" clip-path="url(#p3ca52f65ee)" style="fill: #2ca02c"/>
   </g>
   <g id="BrokenBarHCollection_34">
    <path d="M 264.89183 12.24 
L 264.89183 35.501538 
L 359.672562 35.501538 
L 359.672562 12.24 
L 264.89183 12.24 
z
" clip-path="url(#p3ca52f65ee)" style="fill: #1f77b4"/>
   </g>
   <g id="BrokenBarHCollection_35">
    <path d="M 280.483719 38.086154 
L 280.483719 61.347692 
L 363.489822 61.347692 
L 363.489822 38.086154 
L 280.483719 38.086154 
z
" clip-path="url(#p3ca52f65ee)" style="fill: #2ca02c"/>
   </g>
   <g id="BrokenBarHCollection_36">
    <path d="M 280.483765 38.086154 
L 280.483765 61.347692 
L 359.67131 61.347692 
L 359.67131 38.086154 
L 280.483765 38.086154 
z
" clip-path="url(#p3ca52f65ee)" style="fill: #1f77b4"/>
   </g>
   <g id="BrokenBarHCollection_37">
    <path d="M 312.042236 63.932308 
L 312.042236 87.193846 
L 363.454712 87.193846 
L 363.454712 63.932308 
L 312.042236 63.932308 
z
" clip-path="url(#p3ca52f65ee)" style="fill: #2ca02c"/>
   </g>
   <g id="BrokenBarHCollection_38">
    <path d="M 312.042328 63.932308 
L 312.042328 87.193846 
L 359.671036 87.193846 
L 359.671036 63.932308 
L 312.042328 63.932308 
z
" clip-path="url(#p3ca52f65ee)" style="fill: #1f77b4"/>
   </g>
   <g id="BrokenBarHCollection_39">
    <path d="M 359.668701 89.778462 
L 359.668701 113.04 
L 363.509033 113.04 
L 363.509033 89.778462 
L 359.668701 89.778462 
z
" clip-path="url(#p3ca52f65ee)" style="fill: #2ca02c"/>
   </g>
   <g id="BrokenBarHCollection_40">
    <path d="M 359.668808 89.778462 
L 359.668808 113.04 
L 359.670502 113.04 
L 359.670502 89.778462 
L 359.668808 89.778462 
z
" clip-path="url(#p3ca52f65ee)" style="fill: #1f77b4"/>
   </g>
   <g id="BrokenBarHCollection_41">
    <path d="M 359.670502 89.778462 
L 359.670502 113.04 
L 359.832687 113.04 
L 359.832687 89.778462 
L 359.670502 89.778462 
z
" clip-path="url(#p3ca52f65ee)" style="fill: #ff7f0e"/>
   </g>
   <g id="BrokenBarHCollection_42">
    <path d="M 359.671204 63.932308 
L 359.671204 87.193846 
L 359.832687 87.193846 
L 359.832687 63.932308 
L 359.671204 63.932308 
z
" clip-path="url(#p3ca52f65ee)" style="fill: #ff7f0e"/>
   </g>
   <g id="BrokenBarHCollection_43">
    <path d="M 359.671478 38.086154 
L 359.671478 61.347692 
L 359.832321 61.347692 
L 359.832321 38.086154 
L 359.671478 38.086154 
z
" clip-path="url(#p3ca52f65ee)" style="fill: #ff7f0e"/>
   </g>
   <g id="BrokenBarHCollection_44">
    <path d="M 359.672729 12.24 
L 359.672729 35.501538 
L 359.832321 35.501538 
L 359.832321 12.24 
L 359.672729 12.24 
z
" clip-path="url(#p3ca52f65ee)" style="fill: #ff7f0e"/>
   </g>
   <g id="BrokenBarHCollection_45">
    <path d="M 359.832428 38.086154 
L 359.832428 61.347692 
L 363.48938 61.347692 
L 363.48938 38.086154 
L 359.832428 38.086154 
z
" clip-path="url(#p3ca52f65ee)" style="fill: #7f7f7f"/>
   </g>
   <g id="BrokenBarHCollection_46">
    <path d="M 359.832428 38.086154 
L 359.832428 61.347692 
L 363.48938 61.347692 
L 363.48938 38.086154 
L 359.832428 38.086154 
z
" clip-path="url(#p3ca52f65ee)" style="fill: #e377c2"/>
   </g>
   <g id="BrokenBarHCollection_47">
    <path d="M 359.832428 12.24 
L 359.832428 35.501538 
L 363.446991 35.501538 
L 363.446991 12.24 
L 359.832428 12.24 
z
" clip-path="url(#p3ca52f65ee)" style="fill: #7f7f7f"/>
   </g>
   <g id="BrokenBarHCollection_48">
    <path d="M 359.832428 12.24 
L 359.832428 35.501538 
L 363.446991 35.501538 
L 363.446991 12.24 
L 359.832428 12.24 
z
" clip-path="url(#p3ca52f65ee)" style="fill: #e377c2"/>
   </g>
   <g id="BrokenBarHCollection_49">
    <path d="M 359.832794 89.778462 
L 359.832794 113.04 
L 363.508606 113.04 
L 363.508606 89.778462 
L 359.832794 89.778462 
z
" clip-path="url(#p3ca52f65ee)" style="fill: #7f7f7f"/>
   </g>
   <g id="BrokenBarHCollection_50">
    <path d="M 359.832794 89.778462 
L 359.832794 113.04 
L 363.508606 113.04 
L 363.508606 89.778462 
L 359.832794 89.778462 
z
" clip-path="url(#p3ca52f65ee)" style="fill: #e377c2"/>
   </g>
   <g id="BrokenBarHCollection_51">
    <path d="M 359.832794 63.932308 
L 359.832794 87.193846 
L 363.454285 87.193846 
L 363.454285 63.932308 
L 359.832794 63.932308 
z
" clip-path="url(#p3ca52f65ee)" style="fill: #7f7f7f"/>
   </g>
   <g id="BrokenBarHCollection_52">
    <path d="M 359.832794 63.932308 
L 359.832794 87.193846 
L 363.454285 87.193846 
L 363.454285 63.932308 
L 359.832794 63.932308 
z
" clip-path="url(#p3ca52f65ee)" style="fill: #e377c2"/>
   </g>
   <g id="BrokenBarHCollection_53">
    <path d="M 362.554047 12.24 
L 362.554047 35.501538 
L 363.44693 35.501538 
L 363.44693 12.24 
L 362.554047 12.24 
z
" clip-path="url(#p3ca52f65ee)" style="fill: #8c564b"/>
   </g>
   <g id="BrokenBarHCollection_54">
    <path d="M 362.562424 63.932308 
L 362.562424 87.193846 
L 363.454285 87.193846 
L 363.454285 63.932308 
L 362.562424 63.932308 
z
" clip-path="url(#p3ca52f65ee)" style="fill: #8c564b"/>
   </g>
   <g id="BrokenBarHCollection_55">
    <path d="M 362.595413 38.086154 
L 362.595413 61.347692 
L 363.48938 61.347692 
L 363.48938 38.086154 
L 362.595413 38.086154 
z
" clip-path="url(#p3ca52f65ee)" style="fill: #8c564b"/>
   </g>
   <g id="BrokenBarHCollection_56">
    <path d="M 362.613586 89.778462 
L 362.613586 113.04 
L 363.508606 113.04 
L 363.508606 89.778462 
L 362.613586 89.778462 
z
" clip-path="url(#p3ca52f65ee)" style="fill: #8c564b"/>
   </g>
   <g id="BrokenBarHCollection_57">
    <path d="M 363.447464 12.24 
L 363.447464 35.501538 
L 379.842499 35.501538 
L 379.842499 12.24 
L 363.447464 12.24 
z
" clip-path="url(#p3ca52f65ee)" style="fill: #d62728"/>
   </g>
   <g id="BrokenBarHCollection_58">
    <path d="M 363.454758 63.932308 
L 363.454758 87.193846 
L 390.70166 87.193846 
L 390.70166 63.932308 
L 363.454758 63.932308 
z
" clip-path="url(#p3ca52f65ee)" style="fill: #d62728"/>
   </g>
   <g id="BrokenBarHCollection_59">
    <path d="M 363.489822 38.086154 
L 363.489822 61.347692 
L 390.699097 61.347692 
L 390.699097 38.086154 
L 363.489822 38.086154 
z
" clip-path="url(#p3ca52f65ee)" style="fill: #d62728"/>
   </g>
   <g id="BrokenBarHCollection_60">
    <path d="M 363.509079 89.778462 
L 363.509079 113.04 
L 390.687943 113.04 
L 390.687943 89.778462 
L 363.509079 89.778462 
z
" clip-path="url(#p3ca52f65ee)" style="fill: #d62728"/>
   </g>
   <g id="BrokenBarHCollection_61">
    <path d="M 449.3927 12.24 
L 449.3927 35.501538 
L 471.024994 35.501538 
L 471.024994 12.24 
L 449.3927 12.24 
z
" clip-path="url(#p3ca52f65ee)" style="fill: #2ca02c"/>
   </g>
   <g id="BrokenBarHCollection_62">
    <path d="M 449.392807 12.24 
L 449.392807 35.501538 
L 467.321396 35.501538 
L 467.321396 12.24 
L 449.392807 12.24 
z
" clip-path="url(#p3ca52f65ee)" style="fill: #1f77b4"/>
   </g>
   <g id="BrokenBarHCollection_63">
    <path d="M 454.887527 38.086154 
L 454.887527 61.347692 
L 471.085312 61.347692 
L 471.085312 38.086154 
L 454.887527 38.086154 
z
" clip-path="url(#p3ca52f65ee)" style="fill: #2ca02c"/>
   </g>
   <g id="BrokenBarHCollection_64">
    <path d="M 454.887589 38.086154 
L 454.887589 61.347692 
L 467.320358 61.347692 
L 467.320358 38.086154 
L 454.887589 38.086154 
z
" clip-path="url(#p3ca52f65ee)" style="fill: #1f77b4"/>
   </g>
   <g id="BrokenBarHCollection_65">
    <path d="M 456.690018 63.932308 
L 456.690018 87.193846 
L 471.023911 87.193846 
L 471.023911 63.932308 
L 456.690018 63.932308 
z
" clip-path="url(#p3ca52f65ee)" style="fill: #2ca02c"/>
   </g>
   <g id="BrokenBarHCollection_66">
    <path d="M 456.690079 63.932308 
L 456.690079 87.193846 
L 467.320251 87.193846 
L 467.320251 63.932308 
L 456.690079 63.932308 
z
" clip-path="url(#p3ca52f65ee)" style="fill: #1f77b4"/>
   </g>
   <g id="BrokenBarHCollection_67">
    <path d="M 467.319 89.778462 
L 467.319 113.04 
L 471.109207 113.04 
L 471.109207 89.778462 
L 467.319 89.778462 
z
" clip-path="url(#p3ca52f65ee)" style="fill: #2ca02c"/>
   </g>
   <g id="BrokenBarHCollection_68">
    <path d="M 467.319046 89.778462 
L 467.319046 113.04 
L 467.320251 113.04 
L 467.320251 89.778462 
L 467.319046 89.778462 
z
" clip-path="url(#p3ca52f65ee)" style="fill: #1f77b4"/>
   </g>
   <g id="BrokenBarHCollection_69">
    <path d="M 467.320251 89.778462 
L 467.320251 113.04 
L 467.454681 113.04 
L 467.454681 89.778462 
L 467.320251 89.778462 
z
" clip-path="url(#p3ca52f65ee)" style="fill: #ff7f0e"/>
   </g>
   <g id="BrokenBarHCollection_70">
    <path d="M 467.320297 63.932308 
L 467.320297 87.193846 
L 467.454681 87.193846 
L 467.454681 63.932308 
L 467.320297 63.932308 
z
" clip-path="url(#p3ca52f65ee)" style="fill: #ff7f0e"/>
   </g>
   <g id="BrokenBarHCollection_71">
    <path d="M 467.320404 38.086154 
L 467.320404 61.347692 
L 467.462036 61.347692 
L 467.462036 38.086154 
L 467.320404 38.086154 
z
" clip-path="url(#p3ca52f65ee)" style="fill: #ff7f0e"/>
   </g>
   <g id="BrokenBarHCollection_72">
    <path d="M 467.321396 12.24 
L 467.321396 35.501538 
L 467.462036 35.501538 
L 467.462036 12.24 
L 467.321396 12.24 
z
" clip-path="url(#p3ca52f65ee)" style="fill: #ff7f0e"/>
   </g>
   <g id="BrokenBarHCollection_73">
    <path d="M 467.454849 89.778462 
L 467.454849 113.04 
L 471.108765 113.04 
L 471.108765 89.778462 
L 467.454849 89.778462 
z
" clip-path="url(#p3ca52f65ee)" style="fill: #7f7f7f"/>
   </g>
   <g id="BrokenBarHCollection_74">
    <path d="M 467.454849 89.778462 
L 467.454849 113.04 
L 471.108765 113.04 
L 471.108765 89.778462 
L 467.454849 89.778462 
z
" clip-path="url(#p3ca52f65ee)" style="fill: #e377c2"/>
   </g>
   <g id="BrokenBarHCollection_75">
    <path d="M 467.454849 63.932308 
L 467.454849 87.193846 
L 471.023422 87.193846 
L 471.023422 63.932308 
L 467.454849 63.932308 
z
" clip-path="url(#p3ca52f65ee)" style="fill: #7f7f7f"/>
   </g>
   <g id="BrokenBarHCollection_76">
    <path d="M 467.454849 63.932308 
L 467.454849 87.193846 
L 471.023422 87.193846 
L 471.023422 63.932308 
L 467.454849 63.932308 
z
" clip-path="url(#p3ca52f65ee)" style="fill: #e377c2"/>
   </g>
   <g id="BrokenBarHCollection_77">
    <path d="M 467.462082 38.086154 
L 467.462082 61.347692 
L 471.084869 61.347692 
L 471.084869 38.086154 
L 467.462082 38.086154 
z
" clip-path="url(#p3ca52f65ee)" style="fill: #e377c2"/>
   </g>
   <g id="BrokenBarHCollection_78">
    <path d="M 467.462082 12.24 
L 467.462082 35.501538 
L 471.024567 35.501538 
L 471.024567 12.24 
L 467.462082 12.24 
z
" clip-path="url(#p3ca52f65ee)" style="fill: #e377c2"/>
   </g>
   <g id="BrokenBarHCollection_79">
    <path d="M 467.462143 38.086154 
L 467.462143 61.347692 
L 471.084869 61.347692 
L 471.084869 38.086154 
L 467.462143 38.086154 
z
" clip-path="url(#p3ca52f65ee)" style="fill: #7f7f7f"/>
   </g>
   <g id="BrokenBarHCollection_80">
    <path d="M 467.462143 12.24 
L 467.462143 35.501538 
L 471.024567 35.501538 
L 471.024567 12.24 
L 467.462143 12.24 
z
" clip-path="url(#p3ca52f65ee)" style="fill: #7f7f7f"/>
   </g>
   <g id="BrokenBarHCollection_81">
    <path d="M 470.17897 63.932308 
L 470.17897 87.193846 
L 471.023422 87.193846 
L 471.023422 63.932308 
L 470.17897 63.932308 
z
" clip-path="url(#p3ca52f65ee)" style="fill: #8c564b"/>
   </g>
   <g id="BrokenBarHCollection_82">
    <path d="M 470.179947 12.24 
L 470.179947 35.501538 
L 471.024567 35.501538 
L 471.024567 12.24 
L 470.179947 12.24 
z
" clip-path="url(#p3ca52f65ee)" style="fill: #8c564b"/>
   </g>
   <g id="BrokenBarHCollection_83">
    <path d="M 470.237427 38.086154 
L 470.237427 61.347692 
L 471.084869 61.347692 
L 471.084869 38.086154 
L 470.237427 38.086154 
z
" clip-path="url(#p3ca52f65ee)" style="fill: #8c564b"/>
   </g>
   <g id="BrokenBarHCollection_84">
    <path d="M 470.25946 89.778462 
L 470.25946 113.04 
L 471.108765 113.04 
L 471.108765 89.778462 
L 470.25946 89.778462 
z
" clip-path="url(#p3ca52f65ee)" style="fill: #8c564b"/>
   </g>
   <g id="BrokenBarHCollection_85">
    <path d="M 471.023911 63.932308 
L 471.023911 87.193846 
L 498.250168 87.193846 
L 498.250168 63.932308 
L 471.023911 63.932308 
z
" clip-path="url(#p3ca52f65ee)" style="fill: #d62728"/>
   </g>
   <g id="BrokenBarHCollection_86">
    <path d="M 471.02504 12.24 
L 471.02504 35.501538 
L 487.431458 35.501538 
L 487.431458 12.24 
L 471.02504 12.24 
z
" clip-path="url(#p3ca52f65ee)" style="fill: #d62728"/>
   </g>
   <g id="BrokenBarHCollection_87">
    <path d="M 471.085358 38.086154 
L 471.085358 61.347692 
L 498.251953 61.347692 
L 498.251953 38.086154 
L 471.085358 38.086154 
z
" clip-path="url(#p3ca52f65ee)" style="fill: #d62728"/>
   </g>
   <g id="BrokenBarHCollection_88">
    <path d="M 471.109253 89.778462 
L 471.109253 113.04 
L 498.248474 113.04 
L 498.248474 89.778462 
L 471.109253 89.778462 
z
" clip-path="url(#p3ca52f65ee)" style="fill: #d62728"/>
   </g>
   <g id="BrokenBarHCollection_89">
    <path d="M 556.520859 12.24 
L 556.520859 35.501538 
L 571.107025 35.501538 
L 571.107025 12.24 
L 556.520859 12.24 
z
" clip-path="url(#p3ca52f65ee)" style="fill: #2ca02c"/>
   </g>
   <g id="BrokenBarHCollection_90">
    <path d="M 556.520966 12.24 
L 556.520966 35.501538 
L 567.34964 35.501538 
L 567.34964 12.24 
L 556.520966 12.24 
z
" clip-path="url(#p3ca52f65ee)" style="fill: #1f77b4"/>
   </g>
   <g id="BrokenBarHCollection_91">
    <path d="M 565.452484 63.932308 
L 565.452484 87.193846 
L 571.112564 87.193846 
L 571.112564 63.932308 
L 565.452484 63.932308 
z
" clip-path="url(#p3ca52f65ee)" style="fill: #2ca02c"/>
   </g>
   <g id="BrokenBarHCollection_92">
    <path d="M 565.45256 63.932308 
L 565.45256 87.193846 
L 567.348221 87.193846 
L 567.348221 63.932308 
L 565.45256 63.932308 
z
" clip-path="url(#p3ca52f65ee)" style="fill: #1f77b4"/>
   </g>
   <g id="BrokenBarHCollection_93">
    <path d="M 566.313812 38.086154 
L 566.313812 61.347692 
L 571.172607 61.347692 
L 571.172607 38.086154 
L 566.313812 38.086154 
z
" clip-path="url(#p3ca52f65ee)" style="fill: #2ca02c"/>
   </g>
   <g id="BrokenBarHCollection_94">
    <path d="M 566.313873 38.086154 
L 566.313873 61.347692 
L 567.348267 61.347692 
L 567.348267 38.086154 
L 566.313873 38.086154 
z
" clip-path="url(#p3ca52f65ee)" style="fill: #1f77b4"/>
   </g>
   <g id="BrokenBarHCollection_95">
    <path d="M 567.346909 89.778462 
L 567.346909 113.04 
L 571.189804 113.04 
L 571.189804 89.778462 
L 567.346909 89.778462 
z
" clip-path="url(#p3ca52f65ee)" style="fill: #2ca02c"/>
   </g>
   <g id="BrokenBarHCollection_96">
    <path d="M 567.34697 89.778462 
L 567.34697 113.04 
L 567.348175 113.04 
L 567.348175 89.778462 
L 567.34697 89.778462 
z
" clip-path="url(#p3ca52f65ee)" style="fill: #1f77b4"/>
   </g>
   <g id="BrokenBarHCollection_97">
    <path d="M 567.348221 63.932308 
L 567.348221 87.193846 
L 567.492554 87.193846 
L 567.492554 63.932308 
L 567.348221 63.932308 
z
" clip-path="url(#p3ca52f65ee)" style="fill: #ff7f0e"/>
   </g>
   <g id="BrokenBarHCollection_98">
    <path d="M 567.348221 89.778462 
L 567.348221 113.04 
L 567.492554 113.04 
L 567.492554 89.778462 
L 567.348221 89.778462 
z
" clip-path="url(#p3ca52f65ee)" style="fill: #ff7f0e"/>
   </g>
   <g id="BrokenBarHCollection_99">
    <path d="M 567.348328 38.086154 
L 567.348328 61.347692 
L 567.483856 61.347692 
L 567.483856 38.086154 
L 567.348328 38.086154 
z
" clip-path="url(#p3ca52f65ee)" style="fill: #ff7f0e"/>
   </g>
   <g id="BrokenBarHCollection_100">
    <path d="M 567.349686 12.24 
L 567.349686 35.501538 
L 567.483856 35.501538 
L 567.483856 12.24 
L 567.349686 12.24 
z
" clip-path="url(#p3ca52f65ee)" style="fill: #ff7f0e"/>
   </g>
   <g id="BrokenBarHCollection_101">
    <path d="M 567.483963 38.086154 
L 567.483963 61.347692 
L 571.172119 61.347692 
L 571.172119 38.086154 
L 567.483963 38.086154 
z
" clip-path="url(#p3ca52f65ee)" style="fill: #7f7f7f"/>
   </g>
   <g id="BrokenBarHCollection_102">
    <path d="M 567.483963 38.086154 
L 567.483963 61.347692 
L 571.172119 61.347692 
L 571.172119 38.086154 
L 567.483963 38.086154 
z
" clip-path="url(#p3ca52f65ee)" style="fill: #e377c2"/>
   </g>
   <g id="BrokenBarHCollection_103">
    <path d="M 567.483963 12.24 
L 567.483963 35.501538 
L 571.106476 35.501538 
L 571.106476 12.24 
L 567.483963 12.24 
z
" clip-path="url(#p3ca52f65ee)" style="fill: #7f7f7f"/>
   </g>
   <g id="BrokenBarHCollection_104">
    <path d="M 567.483963 12.24 
L 567.483963 35.501538 
L 571.106476 35.501538 
L 571.106476 12.24 
L 567.483963 12.24 
z
" clip-path="url(#p3ca52f65ee)" style="fill: #e377c2"/>
   </g>
   <g id="BrokenBarHCollection_105">
    <path d="M 567.492676 89.778462 
L 567.492676 113.04 
L 571.189316 113.04 
L 571.189316 89.778462 
L 567.492676 89.778462 
z
" clip-path="url(#p3ca52f65ee)" style="fill: #7f7f7f"/>
   </g>
   <g id="BrokenBarHCollection_106">
    <path d="M 567.492676 89.778462 
L 567.492676 113.04 
L 571.189316 113.04 
L 571.189316 89.778462 
L 567.492676 89.778462 
z
" clip-path="url(#p3ca52f65ee)" style="fill: #e377c2"/>
   </g>
   <g id="BrokenBarHCollection_107">
    <path d="M 567.492676 63.932308 
L 567.492676 87.193846 
L 571.112091 87.193846 
L 571.112091 63.932308 
L 567.492676 63.932308 
z
" clip-path="url(#p3ca52f65ee)" style="fill: #7f7f7f"/>
   </g>
   <g id="BrokenBarHCollection_108">
    <path d="M 567.492676 63.932308 
L 567.492676 87.193846 
L 571.112091 87.193846 
L 571.112091 63.932308 
L 567.492676 63.932308 
z
" clip-path="url(#p3ca52f65ee)" style="fill: #e377c2"/>
   </g>
   <g id="BrokenBarHCollection_109">
    <path d="M 570.199814 12.24 
L 570.199814 35.501538 
L 571.106476 35.501538 
L 571.106476 12.24 
L 570.199814 12.24 
z
" clip-path="url(#p3ca52f65ee)" style="fill: #8c564b"/>
   </g>
   <g id="BrokenBarHCollection_110">
    <path d="M 570.206131 63.932308 
L 570.206131 87.193846 
L 571.112091 87.193846 
L 571.112091 63.932308 
L 570.206131 63.932308 
z
" clip-path="url(#p3ca52f65ee)" style="fill: #8c564b"/>
   </g>
   <g id="BrokenBarHCollection_111">
    <path d="M 570.265671 38.086154 
L 570.265671 61.347692 
L 571.172119 61.347692 
L 571.172119 38.086154 
L 570.265671 38.086154 
z
" clip-path="url(#p3ca52f65ee)" style="fill: #8c564b"/>
   </g>
   <g id="BrokenBarHCollection_112">
    <path d="M 570.279938 89.778462 
L 570.279938 113.04 
L 571.189316 113.04 
L 571.189316 89.778462 
L 570.279938 89.778462 
z
" clip-path="url(#p3ca52f65ee)" style="fill: #8c564b"/>
   </g>
   <g id="BrokenBarHCollection_113">
    <path d="M 571.107025 12.24 
L 571.107025 35.501538 
L 579.280151 35.501538 
L 579.280151 12.24 
L 571.107025 12.24 
z
" clip-path="url(#p3ca52f65ee)" style="fill: #d62728"/>
   </g>
   <g id="BrokenBarHCollection_114">
    <path d="M 571.112564 63.932308 
L 571.112564 87.193846 
L 598.336044 87.193846 
L 598.336044 63.932308 
L 571.112564 63.932308 
z
" clip-path="url(#p3ca52f65ee)" style="fill: #d62728"/>
   </g>
   <g id="BrokenBarHCollection_115">
    <path d="M 571.172668 38.086154 
L 571.172668 61.347692 
L 598.33551 61.347692 
L 598.33551 38.086154 
L 571.172668 38.086154 
z
" clip-path="url(#p3ca52f65ee)" style="fill: #d62728"/>
   </g>
   <g id="BrokenBarHCollection_116">
    <path d="M 571.18985 89.778462 
L 571.18985 113.04 
L 598.335617 113.04 
L 598.335617 89.778462 
L 571.18985 89.778462 
z
" clip-path="url(#p3ca52f65ee)" style="fill: #d62728"/>
   </g>
   <g id="BrokenBarHCollection_117">
    <path d="M 647.644028 12.24 
L 647.644028 35.501538 
L 671.120087 35.501538 
L 671.120087 12.24 
L 647.644028 12.24 
z
" clip-path="url(#p3ca52f65ee)" style="fill: #2ca02c"/>
   </g>
   <g id="BrokenBarHCollection_118">
    <path d="M 647.644073 12.24 
L 647.644073 35.501538 
L 667.427307 35.501538 
L 667.427307 12.24 
L 647.644073 12.24 
z
" clip-path="url(#p3ca52f65ee)" style="fill: #1f77b4"/>
   </g>
   <g id="BrokenBarHCollection_119">
    <path d="M 666.703247 89.778462 
L 666.703247 113.04 
L 671.183609 113.04 
L 671.183609 89.778462 
L 666.703247 89.778462 
z
" clip-path="url(#p3ca52f65ee)" style="fill: #2ca02c"/>
   </g>
   <g id="BrokenBarHCollection_120">
    <path d="M 666.703369 89.778462 
L 666.703369 113.04 
L 667.425842 113.04 
L 667.425842 89.778462 
L 666.703369 89.778462 
z
" clip-path="url(#p3ca52f65ee)" style="fill: #1f77b4"/>
   </g>
   <g id="BrokenBarHCollection_121">
    <path d="M 666.722672 63.932308 
L 666.722672 87.193846 
L 671.101364 87.193846 
L 671.101364 63.932308 
L 666.722672 63.932308 
z
" clip-path="url(#p3ca52f65ee)" style="fill: #2ca02c"/>
   </g>
   <g id="BrokenBarHCollection_122">
    <path d="M 666.722794 63.932308 
L 666.722794 87.193846 
L 667.425781 87.193846 
L 667.425781 63.932308 
L 666.722794 63.932308 
z
" clip-path="url(#p3ca52f65ee)" style="fill: #1f77b4"/>
   </g>
   <g id="BrokenBarHCollection_123">
    <path d="M 667.424484 38.086154 
L 667.424484 61.347692 
L 671.174454 61.347692 
L 671.174454 38.086154 
L 667.424484 38.086154 
z
" clip-path="url(#p3ca52f65ee)" style="fill: #2ca02c"/>
   </g>
   <g id="BrokenBarHCollection_124">
    <path d="M 667.42453 38.086154 
L 667.42453 61.347692 
L 667.42572 61.347692 
L 667.42572 38.086154 
L 667.42453 38.086154 
z
" clip-path="url(#p3ca52f65ee)" style="fill: #1f77b4"/>
   </g>
   <g id="BrokenBarHCollection_125">
    <path d="M 667.42572 38.086154 
L 667.42572 61.347692 
L 667.567505 61.347692 
L 667.567505 38.086154 
L 667.42572 38.086154 
z
" clip-path="url(#p3ca52f65ee)" style="fill: #ff7f0e"/>
   </g>
   <g id="BrokenBarHCollection_126">
    <path d="M 667.425842 63.932308 
L 667.425842 87.193846 
L 667.557724 87.193846 
L 667.557724 63.932308 
L 667.425842 63.932308 
z
" clip-path="url(#p3ca52f65ee)" style="fill: #ff7f0e"/>
   </g>
   <g id="BrokenBarHCollection_127">
    <path d="M 667.425842 89.778462 
L 667.425842 113.04 
L 667.557724 113.04 
L 667.557724 89.778462 
L 667.425842 89.778462 
z
" clip-path="url(#p3ca52f65ee)" style="fill: #ff7f0e"/>
   </g>
   <g id="BrokenBarHCollection_128">
    <path d="M 667.427353 12.24 
L 667.427353 35.501538 
L 667.567505 35.501538 
L 667.567505 12.24 
L 667.427353 12.24 
z
" clip-path="url(#p3ca52f65ee)" style="fill: #ff7f0e"/>
   </g>
   <g id="BrokenBarHCollection_129">
    <path d="M 667.557831 89.778462 
L 667.557831 113.04 
L 671.183105 113.04 
L 671.183105 89.778462 
L 667.557831 89.778462 
z
" clip-path="url(#p3ca52f65ee)" style="fill: #7f7f7f"/>
   </g>
   <g id="BrokenBarHCollection_130">
    <path d="M 667.557831 89.778462 
L 667.557831 113.04 
L 671.183105 113.04 
L 671.183105 89.778462 
L 667.557831 89.778462 
z
" clip-path="url(#p3ca52f65ee)" style="fill: #e377c2"/>
   </g>
   <g id="BrokenBarHCollection_131">
    <path d="M 667.557831 63.932308 
L 667.557831 87.193846 
L 671.100922 87.193846 
L 671.100922 63.932308 
L 667.557831 63.932308 
z
" clip-path="url(#p3ca52f65ee)" style="fill: #7f7f7f"/>
   </g>
   <g id="BrokenBarHCollection_132">
    <path d="M 667.557831 63.932308 
L 667.557831 87.193846 
L 671.100922 87.193846 
L 671.100922 63.932308 
L 667.557831 63.932308 
z
" clip-path="url(#p3ca52f65ee)" style="fill: #e377c2"/>
   </g>
   <g id="BrokenBarHCollection_133">
    <path d="M 667.567627 38.086154 
L 667.567627 61.347692 
L 671.173965 61.347692 
L 671.173965 38.086154 
L 667.567627 38.086154 
z
" clip-path="url(#p3ca52f65ee)" style="fill: #7f7f7f"/>
   </g>
   <g id="BrokenBarHCollection_134">
    <path d="M 667.567627 38.086154 
L 667.567627 61.347692 
L 671.173965 61.347692 
L 671.173965 38.086154 
L 667.567627 38.086154 
z
" clip-path="url(#p3ca52f65ee)" style="fill: #e377c2"/>
   </g>
   <g id="BrokenBarHCollection_135">
    <path d="M 667.567627 12.24 
L 667.567627 35.501538 
L 671.119598 35.501538 
L 671.119598 12.24 
L 667.567627 12.24 
z
" clip-path="url(#p3ca52f65ee)" style="fill: #7f7f7f"/>
   </g>
   <g id="BrokenBarHCollection_136">
    <path d="M 667.567627 12.24 
L 667.567627 35.501538 
L 671.119598 35.501538 
L 671.119598 12.24 
L 667.567627 12.24 
z
" clip-path="url(#p3ca52f65ee)" style="fill: #e377c2"/>
   </g>
   <g id="BrokenBarHCollection_137">
    <path d="M 670.282593 63.932308 
L 670.282593 87.193846 
L 671.100861 87.193846 
L 671.100861 63.932308 
L 670.282593 63.932308 
z
" clip-path="url(#p3ca52f65ee)" style="fill: #8c564b"/>
   </g>
   <g id="BrokenBarHCollection_138">
    <path d="M 670.301224 12.24 
L 670.301224 35.501538 
L 671.119598 35.501538 
L 671.119598 12.24 
L 670.301224 12.24 
z
" clip-path="url(#p3ca52f65ee)" style="fill: #8c564b"/>
   </g>
   <g id="BrokenBarHCollection_139">
    <path d="M 670.352646 38.086154 
L 670.352646 61.347692 
L 671.173965 61.347692 
L 671.173965 38.086154 
L 670.352646 38.086154 
z
" clip-path="url(#p3ca52f65ee)" style="fill: #8c564b"/>
   </g>
   <g id="BrokenBarHCollection_140">
    <path d="M 670.36261 89.778462 
L 670.36261 113.04 
L 671.183105 113.04 
L 671.183105 89.778462 
L 670.36261 89.778462 
z
" clip-path="url(#p3ca52f65ee)" style="fill: #8c564b"/>
   </g>
   <g id="BrokenBarHCollection_141">
    <path d="M 671.10141 63.932308 
L 671.10141 87.193846 
L 703.840576 87.193846 
L 703.840576 63.932308 
L 671.10141 63.932308 
z
" clip-path="url(#p3ca52f65ee)" style="fill: #d62728"/>
   </g>
   <g id="BrokenBarHCollection_142">
    <path d="M 671.120132 12.24 
L 671.120132 35.501538 
L 687.514191 35.501538 
L 687.514191 12.24 
L 671.120132 12.24 
z
" clip-path="url(#p3ca52f65ee)" style="fill: #d62728"/>
   </g>
   <g id="BrokenBarHCollection_143">
    <path d="M 671.174454 38.086154 
L 671.174454 61.347692 
L 687.512222 61.347692 
L 687.512222 38.086154 
L 671.174454 38.086154 
z
" clip-path="url(#p3ca52f65ee)" style="fill: #d62728"/>
   </g>
   <g id="BrokenBarHCollection_144">
    <path d="M 671.183609 89.778462 
L 671.183609 113.04 
L 703.840515 113.04 
L 703.840515 89.778462 
L 671.183609 89.778462 
z
" clip-path="url(#p3ca52f65ee)" style="fill: #d62728"/>
   </g>
  </g>
 </g>
 <defs>
  <clipPath id="p3ca52f65ee">
   <rect x="34.240625" y="7.2" width="669.6" height="110.88"/>
  </clipPath>
 </defs>
</svg>
