<?xml version="1.0" encoding="utf-8" standalone="no"?>
<!DOCTYPE svg PUBLIC "-//W3C//DTD SVG 1.1//EN"
  "http://www.w3.org/Graphics/SVG/1.1/DTD/svg11.dtd">
<svg xmlns:xlink="http://www.w3.org/1999/xlink" width="911.596pt" height="211.07625pt" viewBox="0 0 911.596 211.07625" xmlns="http://www.w3.org/2000/svg" version="1.1">
 <metadata>
  <rdf:RDF xmlns:dc="http://purl.org/dc/elements/1.1/" xmlns:cc="http://creativecommons.org/ns#" xmlns:rdf="http://www.w3.org/1999/02/22-rdf-syntax-ns#">
   <cc:Work>
    <dc:type rdf:resource="http://purl.org/dc/dcmitype/StillImage"/>
    <dc:date>2025-09-09T18:21:07.151989</dc:date>
    <dc:format>image/svg+xml</dc:format>
    <dc:creator>
     <cc:Agent>
      <dc:title>Matplotlib v3.6.3, https://matplotlib.org/</dc:title>
     </cc:Agent>
    </dc:creator>
   </cc:Work>
  </rdf:RDF>
 </metadata>
 <defs>
  <style type="text/css">*{stroke-linejoin: round; stroke-linecap: butt}</style>
 </defs>
 <g id="figure_1">
  <g id="patch_1">
   <path d="M 0 211.07625 
L 911.596 211.07625 
L 911.596 0 
L 0 0 
z
" style="fill: #ffffff"/>
  </g>
  <g id="axes_1">
   <g id="patch_2">
    <path d="M 34.240625 173.52 
L 703.840625 173.52 
L 703.840625 7.2 
L 34.240625 7.2 
z
" style="fill: #ffffff"/>
   </g>
   <g id="matplotlib.axis_1">
    <g id="xtick_1">
     <g id="line2d_1">
      <defs>
       <path id="m710e41f265" d="M 0 0 
L 0 3.5 
" style="stroke: #000000; stroke-width: 0.8"/>
      </defs>
      <g>
       <use xlink:href="#m710e41f265" x="95.830185" y="173.52" style="stroke: #000000; stroke-width: 0.8"/>
      </g>
     </g>
     <g id="text_1">
      <!-- 2 -->
      <g transform="translate(92.648935 188.118438) scale(0.1 -0.1)">
       <defs>
        <path id="DejaVuSans-32" d="M 1228 531 
L 3431 531 
L 3431 0 
L 469 0 
L 469 531 
Q 828 903 1448 1529 
Q 2069 2156 2228 2338 
Q 2531 2678 2651 2914 
Q 2772 3150 2772 3378 
Q 2772 3750 2511 3984 
Q 2250 4219 1831 4219 
Q 1534 4219 1204 4116 
Q 875 4013 500 3803 
L 500 4441 
Q 881 4594 1212 4672 
Q 1544 4750 1819 4750 
Q 2544 4750 2975 4387 
Q 3406 4025 3406 3419 
Q 3406 3131 3298 2873 
Q 3191 2616 2906 2266 
Q 2828 2175 2409 1742 
Q 1991 1309 1228 531 
z
" transform="scale(0.015625)"/>
       </defs>
       <use xlink:href="#DejaVuSans-32"/>
      </g>
     </g>
    </g>
    <g id="xtick_2">
     <g id="line2d_2">
      <g>
       <use xlink:href="#m710e41f265" x="177.791321" y="173.52" style="stroke: #000000; stroke-width: 0.8"/>
      </g>
     </g>
     <g id="text_2">
      <!-- 4 -->
      <g transform="translate(174.610071 188.118438) scale(0.1 -0.1)">
       <defs>
        <path id="DejaVuSans-34" d="M 2419 4116 
L 825 1625 
L 2419 1625 
L 2419 4116 
z
M 2253 4666 
L 3047 4666 
L 3047 1625 
L 3713 1625 
L 3713 1100 
L 3047 1100 
L 3047 0 
L 2419 0 
L 2419 1100 
L 313 1100 
L 313 1709 
L 2253 4666 
z
" transform="scale(0.015625)"/>
       </defs>
       <use xlink:href="#DejaVuSans-34"/>
      </g>
     </g>
    </g>
    <g id="xtick_3">
     <g id="line2d_3">
      <g>
       <use xlink:href="#m710e41f265" x="259.752441" y="173.52" style="stroke: #000000; stroke-width: 0.8"/>
      </g>
     </g>
     <g id="text_3">
      <!-- 6 -->
      <g transform="translate(256.571191 188.118438) scale(0.1 -0.1)">
       <defs>
        <path id="DejaVuSans-36" d="M 2113 2584 
Q 1688 2584 1439 2293 
Q 1191 2003 1191 1497 
Q 1191 994 1439 701 
Q 1688 409 2113 409 
Q 2538 409 2786 701 
Q 3034 994 3034 1497 
Q 3034 2003 2786 2293 
Q 2538 2584 2113 2584 
z
M 3366 4563 
L 3366 3988 
Q 3128 4100 2886 4159 
Q 2644 4219 2406 4219 
Q 1781 4219 1451 3797 
Q 1122 3375 1075 2522 
Q 1259 2794 1537 2939 
Q 1816 3084 2150 3084 
Q 2853 3084 3261 2657 
Q 3669 2231 3669 1497 
Q 3669 778 3244 343 
Q 2819 -91 2113 -91 
Q 1303 -91 875 529 
Q 447 1150 447 2328 
Q 447 3434 972 4092 
Q 1497 4750 2381 4750 
Q 2619 4750 2861 4703 
Q 3103 4656 3366 4563 
z
" transform="scale(0.015625)"/>
       </defs>
       <use xlink:href="#DejaVuSans-36"/>
      </g>
     </g>
    </g>
    <g id="xtick_4">
     <g id="line2d_4">
      <g>
       <use xlink:href="#m710e41f265" x="341.713562" y="173.52" style="stroke: #000000; stroke-width: 0.8"/>
      </g>
     </g>
     <g id="text_4">
      <!-- 8 -->
      <g transform="translate(338.532312 188.118438) scale(0.1 -0.1)">
       <defs>
        <path id="DejaVuSans-38" d="M 2034 2216 
Q 1584 2216 1326 1975 
Q 1069 1734 1069 1313 
Q 1069 891 1326 650 
Q 1584 409 2034 409 
Q 2484 409 2743 651 
Q 3003 894 3003 1313 
Q 3003 1734 2745 1975 
Q 2488 2216 2034 2216 
z
M 1403 2484 
Q 997 2584 770 2862 
Q 544 3141 544 3541 
Q 544 4100 942 4425 
Q 1341 4750 2034 4750 
Q 2731 4750 3128 4425 
Q 3525 4100 3525 3541 
Q 3525 3141 3298 2862 
Q 3072 2584 2669 2484 
Q 3125 2378 3379 2068 
Q 3634 1759 3634 1313 
Q 3634 634 3220 271 
Q 2806 -91 2034 -91 
Q 1263 -91 848 271 
Q 434 634 434 1313 
Q 434 1759 690 2068 
Q 947 2378 1403 2484 
z
M 1172 3481 
Q 1172 3119 1398 2916 
Q 1625 2713 2034 2713 
Q 2441 2713 2670 2916 
Q 2900 3119 2900 3481 
Q 2900 3844 2670 4047 
Q 2441 4250 2034 4250 
Q 1625 4250 1398 4047 
Q 1172 3844 1172 3481 
z
" transform="scale(0.015625)"/>
       </defs>
       <use xlink:href="#DejaVuSans-38"/>
      </g>
     </g>
    </g>
    <g id="xtick_5">
     <g id="line2d_5">
      <g>
       <use xlink:href="#m710e41f265" x="423.674683" y="173.52" style="stroke: #000000; stroke-width: 0.8"/>
      </g>
     </g>
     <g id="text_5">
      <!-- 10 -->
      <g transform="translate(417.312183 188.118438) scale(0.1 -0.1)">
       <defs>
        <path id="DejaVuSans-31" d="M 794 531 
L 1825 531 
L 1825 4091 
L 703 3866 
L 703 4441 
L 1819 4666 
L 2450 4666 
L 2450 531 
L 3481 531 
L 3481 0 
L 794 0 
L 794 531 
z
" transform="scale(0.015625)"/>
        <path id="DejaVuSans-30" d="M 2034 4250 
Q 1547 4250 1301 3770 
Q 1056 3291 1056 2328 
Q 1056 1369 1301 889 
Q 1547 409 2034 409 
Q 2525 409 2770 889 
Q 3016 1369 3016 2328 
Q 3016 3291 2770 3770 
Q 2525 4250 2034 4250 
z
M 2034 4750 
Q 2819 4750 3233 4129 
Q 3647 3509 3647 2328 
Q 3647 1150 3233 529 
Q 2819 -91 2034 -91 
Q 1250 -91 836 529 
Q 422 1150 422 2328 
Q 422 3509 836 4129 
Q 1250 4750 2034 4750 
z
" transform="scale(0.015625)"/>
       </defs>
       <use xlink:href="#DejaVuSans-31"/>
       <use xlink:href="#DejaVuSans-30" x="63.623047"/>
      </g>
     </g>
    </g>
    <g id="xtick_6">
     <g id="line2d_6">
      <g>
       <use xlink:href="#m710e41f265" x="505.635803" y="173.52" style="stroke: #000000; stroke-width: 0.8"/>
      </g>
     </g>
     <g id="text_6">
      <!-- 12 -->
      <g transform="translate(499.273303 188.118438) scale(0.1 -0.1)">
       <use xlink:href="#DejaVuSans-31"/>
       <use xlink:href="#DejaVuSans-32" x="63.623047"/>
      </g>
     </g>
    </g>
    <g id="xtick_7">
     <g id="line2d_7">
      <g>
       <use xlink:href="#m710e41f265" x="587.596924" y="173.52" style="stroke: #000000; stroke-width: 0.8"/>
      </g>
     </g>
     <g id="text_7">
      <!-- 14 -->
      <g transform="translate(581.234424 188.118438) scale(0.1 -0.1)">
       <use xlink:href="#DejaVuSans-31"/>
       <use xlink:href="#DejaVuSans-34" x="63.623047"/>
      </g>
     </g>
    </g>
    <g id="xtick_8">
     <g id="line2d_8">
      <g>
       <use xlink:href="#m710e41f265" x="669.55806" y="173.52" style="stroke: #000000; stroke-width: 0.8"/>
      </g>
     </g>
     <g id="text_8">
      <!-- 16 -->
      <g transform="translate(663.19556 188.118438) scale(0.1 -0.1)">
       <use xlink:href="#DejaVuSans-31"/>
       <use xlink:href="#DejaVuSans-36" x="63.623047"/>
      </g>
     </g>
    </g>
    <g id="text_9">
     <!-- Time Offset (s) -->
     <g transform="translate(332.025 201.796563) scale(0.1 -0.1)">
      <defs>
       <path id="DejaVuSans-54" d="M -19 4666 
L 3928 4666 
L 3928 4134 
L 2272 4134 
L 2272 0 
L 1638 0 
L 1638 4134 
L -19 4134 
L -19 4666 
z
" transform="scale(0.015625)"/>
       <path id="DejaVuSans-69" d="M 603 3500 
L 1178 3500 
L 1178 0 
L 603 0 
L 603 3500 
z
M 603 4863 
L 1178 4863 
L 1178 4134 
L 603 4134 
L 603 4863 
z
" transform="scale(0.015625)"/>
       <path id="DejaVuSans-6d" d="M 3328 2828 
Q 3544 3216 3844 3400 
Q 4144 3584 4550 3584 
Q 5097 3584 5394 3201 
Q 5691 2819 5691 2113 
L 5691 0 
L 5113 0 
L 5113 2094 
Q 5113 2597 4934 2840 
Q 4756 3084 4391 3084 
Q 3944 3084 3684 2787 
Q 3425 2491 3425 1978 
L 3425 0 
L 2847 0 
L 2847 2094 
Q 2847 2600 2669 2842 
Q 2491 3084 2119 3084 
Q 1678 3084 1418 2786 
Q 1159 2488 1159 1978 
L 1159 0 
L 581 0 
L 581 3500 
L 1159 3500 
L 1159 2956 
Q 1356 3278 1631 3431 
Q 1906 3584 2284 3584 
Q 2666 3584 2933 3390 
Q 3200 3197 3328 2828 
z
" transform="scale(0.015625)"/>
       <path id="DejaVuSans-65" d="M 3597 1894 
L 3597 1613 
L 953 1613 
Q 991 1019 1311 708 
Q 1631 397 2203 397 
Q 2534 397 2845 478 
Q 3156 559 3463 722 
L 3463 178 
Q 3153 47 2828 -22 
Q 2503 -91 2169 -91 
Q 1331 -91 842 396 
Q 353 884 353 1716 
Q 353 2575 817 3079 
Q 1281 3584 2069 3584 
Q 2775 3584 3186 3129 
Q 3597 2675 3597 1894 
z
M 3022 2063 
Q 3016 2534 2758 2815 
Q 2500 3097 2075 3097 
Q 1594 3097 1305 2825 
Q 1016 2553 972 2059 
L 3022 2063 
z
" transform="scale(0.015625)"/>
       <path id="DejaVuSans-20" transform="scale(0.015625)"/>
       <path id="DejaVuSans-4f" d="M 2522 4238 
Q 1834 4238 1429 3725 
Q 1025 3213 1025 2328 
Q 1025 1447 1429 934 
Q 1834 422 2522 422 
Q 3209 422 3611 934 
Q 4013 1447 4013 2328 
Q 4013 3213 3611 3725 
Q 3209 4238 2522 4238 
z
M 2522 4750 
Q 3503 4750 4090 4092 
Q 4678 3434 4678 2328 
Q 4678 1225 4090 567 
Q 3503 -91 2522 -91 
Q 1538 -91 948 565 
Q 359 1222 359 2328 
Q 359 3434 948 4092 
Q 1538 4750 2522 4750 
z
" transform="scale(0.015625)"/>
       <path id="DejaVuSans-66" d="M 2375 4863 
L 2375 4384 
L 1825 4384 
Q 1516 4384 1395 4259 
Q 1275 4134 1275 3809 
L 1275 3500 
L 2222 3500 
L 2222 3053 
L 1275 3053 
L 1275 0 
L 697 0 
L 697 3053 
L 147 3053 
L 147 3500 
L 697 3500 
L 697 3744 
Q 697 4328 969 4595 
Q 1241 4863 1831 4863 
L 2375 4863 
z
" transform="scale(0.015625)"/>
       <path id="DejaVuSans-73" d="M 2834 3397 
L 2834 2853 
Q 2591 2978 2328 3040 
Q 2066 3103 1784 3103 
Q 1356 3103 1142 2972 
Q 928 2841 928 2578 
Q 928 2378 1081 2264 
Q 1234 2150 1697 2047 
L 1894 2003 
Q 2506 1872 2764 1633 
Q 3022 1394 3022 966 
Q 3022 478 2636 193 
Q 2250 -91 1575 -91 
Q 1294 -91 989 -36 
Q 684 19 347 128 
L 347 722 
Q 666 556 975 473 
Q 1284 391 1588 391 
Q 1994 391 2212 530 
Q 2431 669 2431 922 
Q 2431 1156 2273 1281 
Q 2116 1406 1581 1522 
L 1381 1569 
Q 847 1681 609 1914 
Q 372 2147 372 2553 
Q 372 3047 722 3315 
Q 1072 3584 1716 3584 
Q 2034 3584 2315 3537 
Q 2597 3491 2834 3397 
z
" transform="scale(0.015625)"/>
       <path id="DejaVuSans-74" d="M 1172 4494 
L 1172 3500 
L 2356 3500 
L 2356 3053 
L 1172 3053 
L 1172 1153 
Q 1172 725 1289 603 
Q 1406 481 1766 481 
L 2356 481 
L 2356 0 
L 1766 0 
Q 1100 0 847 248 
Q 594 497 594 1153 
L 594 3053 
L 172 3053 
L 172 3500 
L 594 3500 
L 594 4494 
L 1172 4494 
z
" transform="scale(0.015625)"/>
       <path id="DejaVuSans-28" d="M 1984 4856 
Q 1566 4138 1362 3434 
Q 1159 2731 1159 2009 
Q 1159 1288 1364 580 
Q 1569 -128 1984 -844 
L 1484 -844 
Q 1016 -109 783 600 
Q 550 1309 550 2009 
Q 550 2706 781 3412 
Q 1013 4119 1484 4856 
L 1984 4856 
z
" transform="scale(0.015625)"/>
       <path id="DejaVuSans-29" d="M 513 4856 
L 1013 4856 
Q 1481 4119 1714 3412 
Q 1947 2706 1947 2009 
Q 1947 1309 1714 600 
Q 1481 -109 1013 -844 
L 513 -844 
Q 928 -128 1133 580 
Q 1338 1288 1338 2009 
Q 1338 2731 1133 3434 
Q 928 4138 513 4856 
z
" transform="scale(0.015625)"/>
      </defs>
      <use xlink:href="#DejaVuSans-54"/>
      <use xlink:href="#DejaVuSans-69" x="57.958984"/>
      <use xlink:href="#DejaVuSans-6d" x="85.742188"/>
      <use xlink:href="#DejaVuSans-65" x="183.154297"/>
      <use xlink:href="#DejaVuSans-20" x="244.677734"/>
      <use xlink:href="#DejaVuSans-4f" x="276.464844"/>
      <use xlink:href="#DejaVuSans-66" x="355.175781"/>
      <use xlink:href="#DejaVuSans-66" x="390.380859"/>
      <use xlink:href="#DejaVuSans-73" x="425.585938"/>
      <use xlink:href="#DejaVuSans-65" x="477.685547"/>
      <use xlink:href="#DejaVuSans-74" x="539.208984"/>
      <use xlink:href="#DejaVuSans-20" x="578.417969"/>
      <use xlink:href="#DejaVuSans-28" x="610.205078"/>
      <use xlink:href="#DejaVuSans-73" x="649.21875"/>
      <use xlink:href="#DejaVuSans-29" x="701.318359"/>
     </g>
    </g>
   </g>
   <g id="matplotlib.axis_2">
    <g id="ytick_1">
     <g id="line2d_9">
      <defs>
       <path id="ma8018f5188" d="M 0 0 
L -3.5 0 
" style="stroke: #000000; stroke-width: 0.8"/>
      </defs>
      <g>
       <use xlink:href="#ma8018f5188" x="34.240625" y="26.292203" style="stroke: #000000; stroke-width: 0.8"/>
      </g>
     </g>
     <g id="text_10">
      <!-- 0 -->
      <g transform="translate(20.878125 30.091422) scale(0.1 -0.1)">
       <use xlink:href="#DejaVuSans-30"/>
      </g>
     </g>
    </g>
    <g id="ytick_2">
     <g id="line2d_10">
      <g>
       <use xlink:href="#ma8018f5188" x="34.240625" y="51.919322" style="stroke: #000000; stroke-width: 0.8"/>
      </g>
     </g>
     <g id="text_11">
      <!-- 1 -->
      <g transform="translate(20.878125 55.718541) scale(0.1 -0.1)">
       <use xlink:href="#DejaVuSans-31"/>
      </g>
     </g>
    </g>
    <g id="ytick_3">
     <g id="line2d_11">
      <g>
       <use xlink:href="#ma8018f5188" x="34.240625" y="77.546441" style="stroke: #000000; stroke-width: 0.8"/>
      </g>
     </g>
     <g id="text_12">
      <!-- 2 -->
      <g transform="translate(20.878125 81.345659) scale(0.1 -0.1)">
       <use xlink:href="#DejaVuSans-32"/>
      </g>
     </g>
    </g>
    <g id="ytick_4">
     <g id="line2d_12">
      <g>
       <use xlink:href="#ma8018f5188" x="34.240625" y="103.173559" style="stroke: #000000; stroke-width: 0.8"/>
      </g>
     </g>
     <g id="text_13">
      <!-- 3 -->
      <g transform="translate(20.878125 106.972778) scale(0.1 -0.1)">
       <defs>
        <path id="DejaVuSans-33" d="M 2597 2516 
Q 3050 2419 3304 2112 
Q 3559 1806 3559 1356 
Q 3559 666 3084 287 
Q 2609 -91 1734 -91 
Q 1441 -91 1130 -33 
Q 819 25 488 141 
L 488 750 
Q 750 597 1062 519 
Q 1375 441 1716 441 
Q 2309 441 2620 675 
Q 2931 909 2931 1356 
Q 2931 1769 2642 2001 
Q 2353 2234 1838 2234 
L 1294 2234 
L 1294 2753 
L 1863 2753 
Q 2328 2753 2575 2939 
Q 2822 3125 2822 3475 
Q 2822 3834 2567 4026 
Q 2313 4219 1838 4219 
Q 1578 4219 1281 4162 
Q 984 4106 628 3988 
L 628 4550 
Q 988 4650 1302 4700 
Q 1616 4750 1894 4750 
Q 2613 4750 3031 4423 
Q 3450 4097 3450 3541 
Q 3450 3153 3228 2886 
Q 3006 2619 2597 2516 
z
" transform="scale(0.015625)"/>
       </defs>
       <use xlink:href="#DejaVuSans-33"/>
      </g>
     </g>
    </g>
    <g id="ytick_5">
     <g id="line2d_13">
      <g>
       <use xlink:href="#ma8018f5188" x="34.240625" y="128.800678" style="stroke: #000000; stroke-width: 0.8"/>
      </g>
     </g>
     <g id="text_14">
      <!-- 4 -->
      <g transform="translate(20.878125 132.599897) scale(0.1 -0.1)">
       <use xlink:href="#DejaVuSans-34"/>
      </g>
     </g>
    </g>
    <g id="ytick_6">
     <g id="line2d_14">
      <g>
       <use xlink:href="#ma8018f5188" x="34.240625" y="154.427797" style="stroke: #000000; stroke-width: 0.8"/>
      </g>
     </g>
     <g id="text_15">
      <!-- 5 -->
      <g transform="translate(20.878125 158.227015) scale(0.1 -0.1)">
       <defs>
        <path id="DejaVuSans-35" d="M 691 4666 
L 3169 4666 
L 3169 4134 
L 1269 4134 
L 1269 2991 
Q 1406 3038 1543 3061 
Q 1681 3084 1819 3084 
Q 2600 3084 3056 2656 
Q 3513 2228 3513 1497 
Q 3513 744 3044 326 
Q 2575 -91 1722 -91 
Q 1428 -91 1123 -41 
Q 819 9 494 109 
L 494 744 
Q 775 591 1075 516 
Q 1375 441 1709 441 
Q 2250 441 2565 725 
Q 2881 1009 2881 1497 
Q 2881 1984 2565 2268 
Q 2250 2553 1709 2553 
Q 1456 2553 1204 2497 
Q 953 2441 691 2322 
L 691 4666 
z
" transform="scale(0.015625)"/>
       </defs>
       <use xlink:href="#DejaVuSans-35"/>
      </g>
     </g>
    </g>
    <g id="text_16">
     <!-- Task -->
     <g transform="translate(14.798438 101.152969) rotate(-90) scale(0.1 -0.1)">
      <defs>
       <path id="DejaVuSans-61" d="M 2194 1759 
Q 1497 1759 1228 1600 
Q 959 1441 959 1056 
Q 959 750 1161 570 
Q 1363 391 1709 391 
Q 2188 391 2477 730 
Q 2766 1069 2766 1631 
L 2766 1759 
L 2194 1759 
z
M 3341 1997 
L 3341 0 
L 2766 0 
L 2766 531 
Q 2569 213 2275 61 
Q 1981 -91 1556 -91 
Q 1019 -91 701 211 
Q 384 513 384 1019 
Q 384 1609 779 1909 
Q 1175 2209 1959 2209 
L 2766 2209 
L 2766 2266 
Q 2766 2663 2505 2880 
Q 2244 3097 1772 3097 
Q 1472 3097 1187 3025 
Q 903 2953 641 2809 
L 641 3341 
Q 956 3463 1253 3523 
Q 1550 3584 1831 3584 
Q 2591 3584 2966 3190 
Q 3341 2797 3341 1997 
z
" transform="scale(0.015625)"/>
       <path id="DejaVuSans-6b" d="M 581 4863 
L 1159 4863 
L 1159 1991 
L 2875 3500 
L 3609 3500 
L 1753 1863 
L 3688 0 
L 2938 0 
L 1159 1709 
L 1159 0 
L 581 0 
L 581 4863 
z
" transform="scale(0.015625)"/>
      </defs>
      <use xlink:href="#DejaVuSans-54"/>
      <use xlink:href="#DejaVuSans-61" x="44.583984"/>
      <use xlink:href="#DejaVuSans-73" x="105.863281"/>
      <use xlink:href="#DejaVuSans-6b" x="157.962891"/>
     </g>
    </g>
   </g>
   <g id="patch_3">
    <path d="M 34.240625 173.52 
L 34.240625 7.2 
" style="fill: none; stroke: #000000; stroke-width: 0.8; stroke-linejoin: miter; stroke-linecap: square"/>
   </g>
   <g id="patch_4">
    <path d="M 703.840625 173.52 
L 703.840625 7.2 
" style="fill: none; stroke: #000000; stroke-width: 0.8; stroke-linejoin: miter; stroke-linecap: square"/>
   </g>
   <g id="patch_5">
    <path d="M 34.240631 173.52 
L 703.840622 173.52 
" style="fill: none; stroke: #000000; stroke-width: 0.8; stroke-linejoin: miter; stroke-linecap: square"/>
   </g>
   <g id="patch_6">
    <path d="M 34.240631 7.2 
L 703.840622 7.2 
" style="fill: none; stroke: #000000; stroke-width: 0.8; stroke-linejoin: miter; stroke-linecap: square"/>
   </g>
   <g id="legend_1">
    <g id="patch_7">
     <path d="M 717.536625 149.25 
L 902.396 149.25 
Q 904.396 149.25 904.396 147.25 
L 904.396 14.2 
Q 904.396 12.2 902.396 12.2 
L 717.536625 12.2 
Q 715.536625 12.2 715.536625 14.2 
L 715.536625 147.25 
Q 715.536625 149.25 717.536625 149.25 
z
" style="fill: #ffffff; opacity: 0.8; stroke: #cccccc; stroke-linejoin: miter"/>
    </g>
    <g id="text_17">
     <!-- Function -->
     <g transform="translate(788.701469 23.798438) scale(0.1 -0.1)">
      <defs>
       <path id="DejaVuSans-46" d="M 628 4666 
L 3309 4666 
L 3309 4134 
L 1259 4134 
L 1259 2759 
L 3109 2759 
L 3109 2228 
L 1259 2228 
L 1259 0 
L 628 0 
L 628 4666 
z
" transform="scale(0.015625)"/>
       <path id="DejaVuSans-75" d="M 544 1381 
L 544 3500 
L 1119 3500 
L 1119 1403 
Q 1119 906 1312 657 
Q 1506 409 1894 409 
Q 2359 409 2629 706 
Q 2900 1003 2900 1516 
L 2900 3500 
L 3475 3500 
L 3475 0 
L 2900 0 
L 2900 538 
Q 2691 219 2414 64 
Q 2138 -91 1772 -91 
Q 1169 -91 856 284 
Q 544 659 544 1381 
z
M 1991 3584 
L 1991 3584 
z
" transform="scale(0.015625)"/>
       <path id="DejaVuSans-6e" d="M 3513 2113 
L 3513 0 
L 2938 0 
L 2938 2094 
Q 2938 2591 2744 2837 
Q 2550 3084 2163 3084 
Q 1697 3084 1428 2787 
Q 1159 2491 1159 1978 
L 1159 0 
L 581 0 
L 581 3500 
L 1159 3500 
L 1159 2956 
Q 1366 3272 1645 3428 
Q 1925 3584 2291 3584 
Q 2894 3584 3203 3211 
Q 3513 2838 3513 2113 
z
" transform="scale(0.015625)"/>
       <path id="DejaVuSans-63" d="M 3122 3366 
L 3122 2828 
Q 2878 2963 2633 3030 
Q 2388 3097 2138 3097 
Q 1578 3097 1268 2742 
Q 959 2388 959 1747 
Q 959 1106 1268 751 
Q 1578 397 2138 397 
Q 2388 397 2633 464 
Q 2878 531 3122 666 
L 3122 134 
Q 2881 22 2623 -34 
Q 2366 -91 2075 -91 
Q 1284 -91 818 406 
Q 353 903 353 1747 
Q 353 2603 823 3093 
Q 1294 3584 2113 3584 
Q 2378 3584 2631 3529 
Q 2884 3475 3122 3366 
z
" transform="scale(0.015625)"/>
       <path id="DejaVuSans-6f" d="M 1959 3097 
Q 1497 3097 1228 2736 
Q 959 2375 959 1747 
Q 959 1119 1226 758 
Q 1494 397 1959 397 
Q 2419 397 2687 759 
Q 2956 1122 2956 1747 
Q 2956 2369 2687 2733 
Q 2419 3097 1959 3097 
z
M 1959 3584 
Q 2709 3584 3137 3096 
Q 3566 2609 3566 1747 
Q 3566 888 3137 398 
Q 2709 -91 1959 -91 
Q 1206 -91 779 398 
Q 353 888 353 1747 
Q 353 2609 779 3096 
Q 1206 3584 1959 3584 
z
" transform="scale(0.015625)"/>
      </defs>
      <use xlink:href="#DejaVuSans-46"/>
      <use xlink:href="#DejaVuSans-75" x="52.019531"/>
      <use xlink:href="#DejaVuSans-6e" x="115.398438"/>
      <use xlink:href="#DejaVuSans-63" x="178.777344"/>
      <use xlink:href="#DejaVuSans-74" x="233.757812"/>
      <use xlink:href="#DejaVuSans-69" x="272.966797"/>
      <use xlink:href="#DejaVuSans-6f" x="300.75"/>
      <use xlink:href="#DejaVuSans-6e" x="361.931641"/>
     </g>
    </g>
    <g id="patch_8">
     <path d="M 719.536625 38.476563 
L 739.536625 38.476563 
L 739.536625 31.476563 
L 719.536625 31.476563 
z
" style="fill: #1f77b4; stroke: #1f77b4; stroke-linejoin: miter"/>
    </g>
    <g id="text_18">
     <!-- get_imbalance -->
     <g transform="translate(747.536625 38.476563) scale(0.1 -0.1)">
      <defs>
       <path id="DejaVuSans-67" d="M 2906 1791 
Q 2906 2416 2648 2759 
Q 2391 3103 1925 3103 
Q 1463 3103 1205 2759 
Q 947 2416 947 1791 
Q 947 1169 1205 825 
Q 1463 481 1925 481 
Q 2391 481 2648 825 
Q 2906 1169 2906 1791 
z
M 3481 434 
Q 3481 -459 3084 -895 
Q 2688 -1331 1869 -1331 
Q 1566 -1331 1297 -1286 
Q 1028 -1241 775 -1147 
L 775 -588 
Q 1028 -725 1275 -790 
Q 1522 -856 1778 -856 
Q 2344 -856 2625 -561 
Q 2906 -266 2906 331 
L 2906 616 
Q 2728 306 2450 153 
Q 2172 0 1784 0 
Q 1141 0 747 490 
Q 353 981 353 1791 
Q 353 2603 747 3093 
Q 1141 3584 1784 3584 
Q 2172 3584 2450 3431 
Q 2728 3278 2906 2969 
L 2906 3500 
L 3481 3500 
L 3481 434 
z
" transform="scale(0.015625)"/>
       <path id="DejaVuSans-5f" d="M 3263 -1063 
L 3263 -1509 
L -63 -1509 
L -63 -1063 
L 3263 -1063 
z
" transform="scale(0.015625)"/>
       <path id="DejaVuSans-62" d="M 3116 1747 
Q 3116 2381 2855 2742 
Q 2594 3103 2138 3103 
Q 1681 3103 1420 2742 
Q 1159 2381 1159 1747 
Q 1159 1113 1420 752 
Q 1681 391 2138 391 
Q 2594 391 2855 752 
Q 3116 1113 3116 1747 
z
M 1159 2969 
Q 1341 3281 1617 3432 
Q 1894 3584 2278 3584 
Q 2916 3584 3314 3078 
Q 3713 2572 3713 1747 
Q 3713 922 3314 415 
Q 2916 -91 2278 -91 
Q 1894 -91 1617 61 
Q 1341 213 1159 525 
L 1159 0 
L 581 0 
L 581 4863 
L 1159 4863 
L 1159 2969 
z
" transform="scale(0.015625)"/>
       <path id="DejaVuSans-6c" d="M 603 4863 
L 1178 4863 
L 1178 0 
L 603 0 
L 603 4863 
z
" transform="scale(0.015625)"/>
      </defs>
      <use xlink:href="#DejaVuSans-67"/>
      <use xlink:href="#DejaVuSans-65" x="63.476562"/>
      <use xlink:href="#DejaVuSans-74" x="125"/>
      <use xlink:href="#DejaVuSans-5f" x="164.208984"/>
      <use xlink:href="#DejaVuSans-69" x="214.208984"/>
      <use xlink:href="#DejaVuSans-6d" x="241.992188"/>
      <use xlink:href="#DejaVuSans-62" x="339.404297"/>
      <use xlink:href="#DejaVuSans-61" x="402.880859"/>
      <use xlink:href="#DejaVuSans-6c" x="464.160156"/>
      <use xlink:href="#DejaVuSans-61" x="491.943359"/>
      <use xlink:href="#DejaVuSans-6e" x="553.222656"/>
      <use xlink:href="#DejaVuSans-63" x="616.601562"/>
      <use xlink:href="#DejaVuSans-65" x="671.582031"/>
     </g>
    </g>
    <g id="patch_9">
     <path d="M 719.536625 53.432813 
L 739.536625 53.432813 
L 739.536625 46.432813 
L 719.536625 46.432813 
z
" style="fill: #ff7f0e; stroke: #ff7f0e; stroke-linejoin: miter"/>
    </g>
    <g id="text_19">
     <!-- init_weights -->
     <g transform="translate(747.536625 53.432813) scale(0.1 -0.1)">
      <defs>
       <path id="DejaVuSans-77" d="M 269 3500 
L 844 3500 
L 1563 769 
L 2278 3500 
L 2956 3500 
L 3675 769 
L 4391 3500 
L 4966 3500 
L 4050 0 
L 3372 0 
L 2619 2869 
L 1863 0 
L 1184 0 
L 269 3500 
z
" transform="scale(0.015625)"/>
       <path id="DejaVuSans-68" d="M 3513 2113 
L 3513 0 
L 2938 0 
L 2938 2094 
Q 2938 2591 2744 2837 
Q 2550 3084 2163 3084 
Q 1697 3084 1428 2787 
Q 1159 2491 1159 1978 
L 1159 0 
L 581 0 
L 581 4863 
L 1159 4863 
L 1159 2956 
Q 1366 3272 1645 3428 
Q 1925 3584 2291 3584 
Q 2894 3584 3203 3211 
Q 3513 2838 3513 2113 
z
" transform="scale(0.015625)"/>
      </defs>
      <use xlink:href="#DejaVuSans-69"/>
      <use xlink:href="#DejaVuSans-6e" x="27.783203"/>
      <use xlink:href="#DejaVuSans-69" x="91.162109"/>
      <use xlink:href="#DejaVuSans-74" x="118.945312"/>
      <use xlink:href="#DejaVuSans-5f" x="158.154297"/>
      <use xlink:href="#DejaVuSans-77" x="208.154297"/>
      <use xlink:href="#DejaVuSans-65" x="289.941406"/>
      <use xlink:href="#DejaVuSans-69" x="351.464844"/>
      <use xlink:href="#DejaVuSans-67" x="379.248047"/>
      <use xlink:href="#DejaVuSans-68" x="442.724609"/>
      <use xlink:href="#DejaVuSans-74" x="506.103516"/>
      <use xlink:href="#DejaVuSans-73" x="545.3125"/>
     </g>
    </g>
    <g id="patch_10">
     <path d="M 719.536625 68.389063 
L 739.536625 68.389063 
L 739.536625 61.389063 
L 719.536625 61.389063 
z
" style="fill: #2ca02c; stroke: #2ca02c; stroke-linejoin: miter"/>
    </g>
    <g id="text_20">
     <!-- laik_lb_balance -->
     <g transform="translate(747.536625 68.389063) scale(0.1 -0.1)">
      <use xlink:href="#DejaVuSans-6c"/>
      <use xlink:href="#DejaVuSans-61" x="27.783203"/>
      <use xlink:href="#DejaVuSans-69" x="89.0625"/>
      <use xlink:href="#DejaVuSans-6b" x="116.845703"/>
      <use xlink:href="#DejaVuSans-5f" x="174.755859"/>
      <use xlink:href="#DejaVuSans-6c" x="224.755859"/>
      <use xlink:href="#DejaVuSans-62" x="252.539062"/>
      <use xlink:href="#DejaVuSans-5f" x="316.015625"/>
      <use xlink:href="#DejaVuSans-62" x="366.015625"/>
      <use xlink:href="#DejaVuSans-61" x="429.492188"/>
      <use xlink:href="#DejaVuSans-6c" x="490.771484"/>
      <use xlink:href="#DejaVuSans-61" x="518.554688"/>
      <use xlink:href="#DejaVuSans-6e" x="579.833984"/>
      <use xlink:href="#DejaVuSans-63" x="643.212891"/>
      <use xlink:href="#DejaVuSans-65" x="698.193359"/>
     </g>
    </g>
    <g id="patch_11">
     <path d="M 719.536625 83.345313 
L 739.536625 83.345313 
L 739.536625 76.345313 
L 719.536625 76.345313 
z
" style="fill: #d62728; stroke: #d62728; stroke-linejoin: miter"/>
    </g>
    <g id="text_21">
     <!-- laik_lb_switch_and_free -->
     <g transform="translate(747.536625 83.345313) scale(0.1 -0.1)">
      <defs>
       <path id="DejaVuSans-64" d="M 2906 2969 
L 2906 4863 
L 3481 4863 
L 3481 0 
L 2906 0 
L 2906 525 
Q 2725 213 2448 61 
Q 2172 -91 1784 -91 
Q 1150 -91 751 415 
Q 353 922 353 1747 
Q 353 2572 751 3078 
Q 1150 3584 1784 3584 
Q 2172 3584 2448 3432 
Q 2725 3281 2906 2969 
z
M 947 1747 
Q 947 1113 1208 752 
Q 1469 391 1925 391 
Q 2381 391 2643 752 
Q 2906 1113 2906 1747 
Q 2906 2381 2643 2742 
Q 2381 3103 1925 3103 
Q 1469 3103 1208 2742 
Q 947 2381 947 1747 
z
" transform="scale(0.015625)"/>
       <path id="DejaVuSans-72" d="M 2631 2963 
Q 2534 3019 2420 3045 
Q 2306 3072 2169 3072 
Q 1681 3072 1420 2755 
Q 1159 2438 1159 1844 
L 1159 0 
L 581 0 
L 581 3500 
L 1159 3500 
L 1159 2956 
Q 1341 3275 1631 3429 
Q 1922 3584 2338 3584 
Q 2397 3584 2469 3576 
Q 2541 3569 2628 3553 
L 2631 2963 
z
" transform="scale(0.015625)"/>
      </defs>
      <use xlink:href="#DejaVuSans-6c"/>
      <use xlink:href="#DejaVuSans-61" x="27.783203"/>
      <use xlink:href="#DejaVuSans-69" x="89.0625"/>
      <use xlink:href="#DejaVuSans-6b" x="116.845703"/>
      <use xlink:href="#DejaVuSans-5f" x="174.755859"/>
      <use xlink:href="#DejaVuSans-6c" x="224.755859"/>
      <use xlink:href="#DejaVuSans-62" x="252.539062"/>
      <use xlink:href="#DejaVuSans-5f" x="316.015625"/>
      <use xlink:href="#DejaVuSans-73" x="366.015625"/>
      <use xlink:href="#DejaVuSans-77" x="418.115234"/>
      <use xlink:href="#DejaVuSans-69" x="499.902344"/>
      <use xlink:href="#DejaVuSans-74" x="527.685547"/>
      <use xlink:href="#DejaVuSans-63" x="566.894531"/>
      <use xlink:href="#DejaVuSans-68" x="621.875"/>
      <use xlink:href="#DejaVuSans-5f" x="685.253906"/>
      <use xlink:href="#DejaVuSans-61" x="735.253906"/>
      <use xlink:href="#DejaVuSans-6e" x="796.533203"/>
      <use xlink:href="#DejaVuSans-64" x="859.912109"/>
      <use xlink:href="#DejaVuSans-5f" x="923.388672"/>
      <use xlink:href="#DejaVuSans-66" x="973.388672"/>
      <use xlink:href="#DejaVuSans-72" x="1008.59375"/>
      <use xlink:href="#DejaVuSans-65" x="1047.457031"/>
      <use xlink:href="#DejaVuSans-65" x="1108.980469"/>
     </g>
    </g>
    <g id="patch_12">
     <path d="M 719.536625 98.301563 
L 739.536625 98.301563 
L 739.536625 91.301563 
L 719.536625 91.301563 
z
" style="fill: #9467bd; stroke: #9467bd; stroke-linejoin: miter"/>
    </g>
    <g id="text_22">
     <!-- main_2d -->
     <g transform="translate(747.536625 98.301563) scale(0.1 -0.1)">
      <use xlink:href="#DejaVuSans-6d"/>
      <use xlink:href="#DejaVuSans-61" x="97.412109"/>
      <use xlink:href="#DejaVuSans-69" x="158.691406"/>
      <use xlink:href="#DejaVuSans-6e" x="186.474609"/>
      <use xlink:href="#DejaVuSans-5f" x="249.853516"/>
      <use xlink:href="#DejaVuSans-32" x="299.853516"/>
      <use xlink:href="#DejaVuSans-64" x="363.476562"/>
     </g>
    </g>
    <g id="patch_13">
     <path d="M 719.536625 113.257813 
L 739.536625 113.257813 
L 739.536625 106.257813 
L 719.536625 106.257813 
z
" style="fill: #8c564b; stroke: #8c564b; stroke-linejoin: miter"/>
    </g>
    <g id="text_23">
     <!-- merge_rects_then_add_ranges -->
     <g transform="translate(747.536625 113.257813) scale(0.1 -0.1)">
      <use xlink:href="#DejaVuSans-6d"/>
      <use xlink:href="#DejaVuSans-65" x="97.412109"/>
      <use xlink:href="#DejaVuSans-72" x="158.935547"/>
      <use xlink:href="#DejaVuSans-67" x="198.298828"/>
      <use xlink:href="#DejaVuSans-65" x="261.775391"/>
      <use xlink:href="#DejaVuSans-5f" x="323.298828"/>
      <use xlink:href="#DejaVuSans-72" x="373.298828"/>
      <use xlink:href="#DejaVuSans-65" x="412.162109"/>
      <use xlink:href="#DejaVuSans-63" x="473.685547"/>
      <use xlink:href="#DejaVuSans-74" x="528.666016"/>
      <use xlink:href="#DejaVuSans-73" x="567.875"/>
      <use xlink:href="#DejaVuSans-5f" x="619.974609"/>
      <use xlink:href="#DejaVuSans-74" x="669.974609"/>
      <use xlink:href="#DejaVuSans-68" x="709.183594"/>
      <use xlink:href="#DejaVuSans-65" x="772.5625"/>
      <use xlink:href="#DejaVuSans-6e" x="834.085938"/>
      <use xlink:href="#DejaVuSans-5f" x="897.464844"/>
      <use xlink:href="#DejaVuSans-61" x="947.464844"/>
      <use xlink:href="#DejaVuSans-64" x="1008.744141"/>
      <use xlink:href="#DejaVuSans-64" x="1072.220703"/>
      <use xlink:href="#DejaVuSans-5f" x="1135.697266"/>
      <use xlink:href="#DejaVuSans-72" x="1185.697266"/>
      <use xlink:href="#DejaVuSans-61" x="1226.810547"/>
      <use xlink:href="#DejaVuSans-6e" x="1288.089844"/>
      <use xlink:href="#DejaVuSans-67" x="1351.46875"/>
      <use xlink:href="#DejaVuSans-65" x="1414.945312"/>
      <use xlink:href="#DejaVuSans-73" x="1476.46875"/>
     </g>
    </g>
    <g id="patch_14">
     <path d="M 719.536625 128.214063 
L 739.536625 128.214063 
L 739.536625 121.214063 
L 719.536625 121.214063 
z
" style="fill: #e377c2; stroke: #e377c2; stroke-linejoin: miter"/>
    </g>
    <g id="text_24">
     <!-- runSFCPartitioner -->
     <g transform="translate(747.536625 128.214063) scale(0.1 -0.1)">
      <defs>
       <path id="DejaVuSans-53" d="M 3425 4513 
L 3425 3897 
Q 3066 4069 2747 4153 
Q 2428 4238 2131 4238 
Q 1616 4238 1336 4038 
Q 1056 3838 1056 3469 
Q 1056 3159 1242 3001 
Q 1428 2844 1947 2747 
L 2328 2669 
Q 3034 2534 3370 2195 
Q 3706 1856 3706 1288 
Q 3706 609 3251 259 
Q 2797 -91 1919 -91 
Q 1588 -91 1214 -16 
Q 841 59 441 206 
L 441 856 
Q 825 641 1194 531 
Q 1563 422 1919 422 
Q 2459 422 2753 634 
Q 3047 847 3047 1241 
Q 3047 1584 2836 1778 
Q 2625 1972 2144 2069 
L 1759 2144 
Q 1053 2284 737 2584 
Q 422 2884 422 3419 
Q 422 4038 858 4394 
Q 1294 4750 2059 4750 
Q 2388 4750 2728 4690 
Q 3069 4631 3425 4513 
z
" transform="scale(0.015625)"/>
       <path id="DejaVuSans-43" d="M 4122 4306 
L 4122 3641 
Q 3803 3938 3442 4084 
Q 3081 4231 2675 4231 
Q 1875 4231 1450 3742 
Q 1025 3253 1025 2328 
Q 1025 1406 1450 917 
Q 1875 428 2675 428 
Q 3081 428 3442 575 
Q 3803 722 4122 1019 
L 4122 359 
Q 3791 134 3420 21 
Q 3050 -91 2638 -91 
Q 1578 -91 968 557 
Q 359 1206 359 2328 
Q 359 3453 968 4101 
Q 1578 4750 2638 4750 
Q 3056 4750 3426 4639 
Q 3797 4528 4122 4306 
z
" transform="scale(0.015625)"/>
       <path id="DejaVuSans-50" d="M 1259 4147 
L 1259 2394 
L 2053 2394 
Q 2494 2394 2734 2622 
Q 2975 2850 2975 3272 
Q 2975 3691 2734 3919 
Q 2494 4147 2053 4147 
L 1259 4147 
z
M 628 4666 
L 2053 4666 
Q 2838 4666 3239 4311 
Q 3641 3956 3641 3272 
Q 3641 2581 3239 2228 
Q 2838 1875 2053 1875 
L 1259 1875 
L 1259 0 
L 628 0 
L 628 4666 
z
" transform="scale(0.015625)"/>
      </defs>
      <use xlink:href="#DejaVuSans-72"/>
      <use xlink:href="#DejaVuSans-75" x="41.113281"/>
      <use xlink:href="#DejaVuSans-6e" x="104.492188"/>
      <use xlink:href="#DejaVuSans-53" x="167.871094"/>
      <use xlink:href="#DejaVuSans-46" x="231.347656"/>
      <use xlink:href="#DejaVuSans-43" x="288.867188"/>
      <use xlink:href="#DejaVuSans-50" x="358.691406"/>
      <use xlink:href="#DejaVuSans-61" x="414.494141"/>
      <use xlink:href="#DejaVuSans-72" x="475.773438"/>
      <use xlink:href="#DejaVuSans-74" x="516.886719"/>
      <use xlink:href="#DejaVuSans-69" x="556.095703"/>
      <use xlink:href="#DejaVuSans-74" x="583.878906"/>
      <use xlink:href="#DejaVuSans-69" x="623.087891"/>
      <use xlink:href="#DejaVuSans-6f" x="650.871094"/>
      <use xlink:href="#DejaVuSans-6e" x="712.052734"/>
      <use xlink:href="#DejaVuSans-65" x="775.431641"/>
      <use xlink:href="#DejaVuSans-72" x="836.955078"/>
     </g>
    </g>
    <g id="patch_15">
     <path d="M 719.536625 142.892188 
L 739.536625 142.892188 
L 739.536625 135.892188 
L 719.536625 135.892188 
z
" style="fill: #7f7f7f; stroke: #7f7f7f; stroke-linejoin: miter"/>
    </g>
    <g id="text_25">
     <!-- sfc_2d -->
     <g transform="translate(747.536625 142.892188) scale(0.1 -0.1)">
      <use xlink:href="#DejaVuSans-73"/>
      <use xlink:href="#DejaVuSans-66" x="52.099609"/>
      <use xlink:href="#DejaVuSans-63" x="87.304688"/>
      <use xlink:href="#DejaVuSans-5f" x="142.285156"/>
      <use xlink:href="#DejaVuSans-32" x="192.285156"/>
      <use xlink:href="#DejaVuSans-64" x="255.908203"/>
     </g>
    </g>
   </g>
   <g id="BrokenBarHCollection_1">
    <path d="M 34.240631 40.387119 
L 34.240631 63.451525 
L 662.847153 63.451525 
L 662.847153 40.387119 
L 34.240631 40.387119 
z
" clip-path="url(#p82c2e7ce91)" style="fill: #9467bd"/>
   </g>
   <g id="BrokenBarHCollection_2">
    <path d="M 34.241074 117.268475 
L 34.241074 140.332881 
L 703.840622 140.332881 
L 703.840622 117.268475 
L 34.241074 117.268475 
z
" clip-path="url(#p82c2e7ce91)" style="fill: #9467bd"/>
   </g>
   <g id="BrokenBarHCollection_3">
    <path d="M 34.241577 66.014237 
L 34.241577 89.078644 
L 671.050644 89.078644 
L 671.050644 66.014237 
L 34.241577 66.014237 
z
" clip-path="url(#p82c2e7ce91)" style="fill: #9467bd"/>
   </g>
   <g id="BrokenBarHCollection_4">
    <path d="M 34.242065 91.641356 
L 34.242065 114.705763 
L 685.396637 114.705763 
L 685.396637 91.641356 
L 34.242065 91.641356 
z
" clip-path="url(#p82c2e7ce91)" style="fill: #9467bd"/>
   </g>
   <g id="BrokenBarHCollection_5">
    <path d="M 34.242508 142.895593 
L 34.242508 165.96 
L 703.840515 165.96 
L 703.840515 142.895593 
L 34.242508 142.895593 
z
" clip-path="url(#p82c2e7ce91)" style="fill: #9467bd"/>
   </g>
   <g id="BrokenBarHCollection_6">
    <path d="M 34.242996 14.76 
L 34.242996 37.824407 
L 662.846985 37.824407 
L 662.846985 14.76 
L 34.242996 14.76 
z
" clip-path="url(#p82c2e7ce91)" style="fill: #9467bd"/>
   </g>
   <g id="BrokenBarHCollection_7">
    <path d="M 52.151398 14.76 
L 52.151398 37.824407 
L 145.543427 37.824407 
L 145.543427 14.76 
L 52.151398 14.76 
z
" clip-path="url(#p82c2e7ce91)" style="fill: #2ca02c"/>
   </g>
   <g id="BrokenBarHCollection_8">
    <path d="M 52.151505 14.76 
L 52.151505 37.824407 
L 142.059082 37.824407 
L 142.059082 14.76 
L 52.151505 14.76 
z
" clip-path="url(#p82c2e7ce91)" style="fill: #1f77b4"/>
   </g>
   <g id="BrokenBarHCollection_9">
    <path d="M 70.059769 40.387119 
L 70.059769 63.451525 
L 145.529816 63.451525 
L 145.529816 40.387119 
L 70.059769 40.387119 
z
" clip-path="url(#p82c2e7ce91)" style="fill: #2ca02c"/>
   </g>
   <g id="BrokenBarHCollection_10">
    <path d="M 70.059891 40.387119 
L 70.059891 63.451525 
L 142.058685 63.451525 
L 142.058685 40.387119 
L 70.059891 40.387119 
z
" clip-path="url(#p82c2e7ce91)" style="fill: #1f77b4"/>
   </g>
   <g id="BrokenBarHCollection_11">
    <path d="M 88.126083 66.014237 
L 88.126083 89.078644 
L 145.527115 89.078644 
L 145.527115 66.014237 
L 88.126083 66.014237 
z
" clip-path="url(#p82c2e7ce91)" style="fill: #2ca02c"/>
   </g>
   <g id="BrokenBarHCollection_12">
    <path d="M 88.126175 66.014237 
L 88.126175 89.078644 
L 142.059143 89.078644 
L 142.059143 66.014237 
L 88.126175 66.014237 
z
" clip-path="url(#p82c2e7ce91)" style="fill: #1f77b4"/>
   </g>
   <g id="BrokenBarHCollection_13">
    <path d="M 105.875961 91.641356 
L 105.875961 114.705763 
L 145.539368 114.705763 
L 145.539368 91.641356 
L 105.875961 91.641356 
z
" clip-path="url(#p82c2e7ce91)" style="fill: #2ca02c"/>
   </g>
   <g id="BrokenBarHCollection_14">
    <path d="M 105.876038 91.641356 
L 105.876038 114.705763 
L 142.059006 114.705763 
L 142.059006 91.641356 
L 105.876038 91.641356 
z
" clip-path="url(#p82c2e7ce91)" style="fill: #1f77b4"/>
   </g>
   <g id="BrokenBarHCollection_15">
    <path d="M 123.849991 117.268475 
L 123.849991 140.332881 
L 145.532104 140.332881 
L 145.532104 117.268475 
L 123.849991 117.268475 
z
" clip-path="url(#p82c2e7ce91)" style="fill: #2ca02c"/>
   </g>
   <g id="BrokenBarHCollection_16">
    <path d="M 123.850082 117.268475 
L 123.850082 140.332881 
L 142.058563 140.332881 
L 142.058563 117.268475 
L 123.850082 117.268475 
z
" clip-path="url(#p82c2e7ce91)" style="fill: #1f77b4"/>
   </g>
   <g id="BrokenBarHCollection_17">
    <path d="M 142.052155 142.895593 
L 142.052155 165.96 
L 145.724838 165.96 
L 145.724838 142.895593 
L 142.052155 142.895593 
z
" clip-path="url(#p82c2e7ce91)" style="fill: #2ca02c"/>
   </g>
   <g id="BrokenBarHCollection_18">
    <path d="M 142.052292 142.895593 
L 142.052292 165.96 
L 142.058517 165.96 
L 142.058517 142.895593 
L 142.052292 142.895593 
z
" clip-path="url(#p82c2e7ce91)" style="fill: #1f77b4"/>
   </g>
   <g id="BrokenBarHCollection_19">
    <path d="M 142.058563 142.895593 
L 142.058563 165.96 
L 142.284149 165.96 
L 142.284149 142.895593 
L 142.058563 142.895593 
z
" clip-path="url(#p82c2e7ce91)" style="fill: #ff7f0e"/>
   </g>
   <g id="BrokenBarHCollection_20">
    <path d="M 142.058594 117.268475 
L 142.058594 140.332881 
L 142.284821 140.332881 
L 142.284821 117.268475 
L 142.058594 117.268475 
z
" clip-path="url(#p82c2e7ce91)" style="fill: #ff7f0e"/>
   </g>
   <g id="BrokenBarHCollection_21">
    <path d="M 142.058731 40.387119 
L 142.058731 63.451525 
L 142.29306 63.451525 
L 142.29306 40.387119 
L 142.058731 40.387119 
z
" clip-path="url(#p82c2e7ce91)" style="fill: #ff7f0e"/>
   </g>
   <g id="BrokenBarHCollection_22">
    <path d="M 142.059052 91.641356 
L 142.059052 114.705763 
L 142.295715 114.705763 
L 142.295715 91.641356 
L 142.059052 91.641356 
z
" clip-path="url(#p82c2e7ce91)" style="fill: #ff7f0e"/>
   </g>
   <g id="BrokenBarHCollection_23">
    <path d="M 142.059143 14.76 
L 142.059143 37.824407 
L 142.293335 37.824407 
L 142.293335 14.76 
L 142.059143 14.76 
z
" clip-path="url(#p82c2e7ce91)" style="fill: #ff7f0e"/>
   </g>
   <g id="BrokenBarHCollection_24">
    <path d="M 142.059174 66.014237 
L 142.059174 89.078644 
L 142.297485 89.078644 
L 142.297485 66.014237 
L 142.059174 66.014237 
z
" clip-path="url(#p82c2e7ce91)" style="fill: #ff7f0e"/>
   </g>
   <g id="BrokenBarHCollection_25">
    <path d="M 142.284409 142.895593 
L 142.284409 165.96 
L 145.724304 165.96 
L 145.724304 142.895593 
L 142.284409 142.895593 
z
" clip-path="url(#p82c2e7ce91)" style="fill: #7f7f7f"/>
   </g>
   <g id="BrokenBarHCollection_26">
    <path d="M 142.284409 142.895593 
L 142.284409 165.96 
L 145.724304 165.96 
L 145.724304 142.895593 
L 142.284409 142.895593 
z
" clip-path="url(#p82c2e7ce91)" style="fill: #e377c2"/>
   </g>
   <g id="BrokenBarHCollection_27">
    <path d="M 142.284927 117.268475 
L 142.284927 140.332881 
L 145.53154 140.332881 
L 145.53154 117.268475 
L 142.284927 117.268475 
z
" clip-path="url(#p82c2e7ce91)" style="fill: #7f7f7f"/>
   </g>
   <g id="BrokenBarHCollection_28">
    <path d="M 142.284927 117.268475 
L 142.284927 140.332881 
L 145.53154 140.332881 
L 145.53154 117.268475 
L 142.284927 117.268475 
z
" clip-path="url(#p82c2e7ce91)" style="fill: #e377c2"/>
   </g>
   <g id="BrokenBarHCollection_29">
    <path d="M 142.293137 40.387119 
L 142.293137 63.451525 
L 145.529251 63.451525 
L 145.529251 40.387119 
L 142.293137 40.387119 
z
" clip-path="url(#p82c2e7ce91)" style="fill: #7f7f7f"/>
   </g>
   <g id="BrokenBarHCollection_30">
    <path d="M 142.293137 40.387119 
L 142.293137 63.451525 
L 145.529251 63.451525 
L 145.529251 40.387119 
L 142.293137 40.387119 
z
" clip-path="url(#p82c2e7ce91)" style="fill: #e377c2"/>
   </g>
   <g id="BrokenBarHCollection_31">
    <path d="M 142.293411 14.76 
L 142.293411 37.824407 
L 145.542816 37.824407 
L 145.542816 14.76 
L 142.293411 14.76 
z
" clip-path="url(#p82c2e7ce91)" style="fill: #7f7f7f"/>
   </g>
   <g id="BrokenBarHCollection_32">
    <path d="M 142.293411 14.76 
L 142.293411 37.824407 
L 145.542816 37.824407 
L 145.542816 14.76 
L 142.293411 14.76 
z
" clip-path="url(#p82c2e7ce91)" style="fill: #e377c2"/>
   </g>
   <g id="BrokenBarHCollection_33">
    <path d="M 142.295792 91.641356 
L 142.295792 114.705763 
L 145.538788 114.705763 
L 145.538788 91.641356 
L 142.295792 91.641356 
z
" clip-path="url(#p82c2e7ce91)" style="fill: #7f7f7f"/>
   </g>
   <g id="BrokenBarHCollection_34">
    <path d="M 142.295792 91.641356 
L 142.295792 114.705763 
L 145.538788 114.705763 
L 145.538788 91.641356 
L 142.295792 91.641356 
z
" clip-path="url(#p82c2e7ce91)" style="fill: #e377c2"/>
   </g>
   <g id="BrokenBarHCollection_35">
    <path d="M 142.297562 66.014237 
L 142.297562 89.078644 
L 145.525635 89.078644 
L 145.525635 66.014237 
L 142.297562 66.014237 
z
" clip-path="url(#p82c2e7ce91)" style="fill: #e377c2"/>
   </g>
   <g id="BrokenBarHCollection_36">
    <path d="M 142.297562 66.014237 
L 142.297562 89.078644 
L 145.525589 89.078644 
L 145.525589 66.014237 
L 142.297562 66.014237 
z
" clip-path="url(#p82c2e7ce91)" style="fill: #7f7f7f"/>
   </g>
   <g id="BrokenBarHCollection_37">
    <path d="M 144.322739 66.014237 
L 144.322739 89.078644 
L 145.525589 89.078644 
L 145.525589 66.014237 
L 144.322739 66.014237 
z
" clip-path="url(#p82c2e7ce91)" style="fill: #8c564b"/>
   </g>
   <g id="BrokenBarHCollection_38">
    <path d="M 144.323685 117.268475 
L 144.323685 140.332881 
L 145.531494 140.332881 
L 145.531494 117.268475 
L 144.323685 117.268475 
z
" clip-path="url(#p82c2e7ce91)" style="fill: #8c564b"/>
   </g>
   <g id="BrokenBarHCollection_39">
    <path d="M 144.324051 40.387119 
L 144.324051 63.451525 
L 145.529251 63.451525 
L 145.529251 40.387119 
L 144.324051 40.387119 
z
" clip-path="url(#p82c2e7ce91)" style="fill: #8c564b"/>
   </g>
   <g id="BrokenBarHCollection_40">
    <path d="M 144.331619 91.641356 
L 144.331619 114.705763 
L 145.538757 114.705763 
L 145.538757 91.641356 
L 144.331619 91.641356 
z
" clip-path="url(#p82c2e7ce91)" style="fill: #8c564b"/>
   </g>
   <g id="BrokenBarHCollection_41">
    <path d="M 144.33725 14.76 
L 144.33725 37.824407 
L 145.542816 37.824407 
L 145.542816 14.76 
L 144.33725 14.76 
z
" clip-path="url(#p82c2e7ce91)" style="fill: #8c564b"/>
   </g>
   <g id="BrokenBarHCollection_42">
    <path d="M 144.472107 142.895593 
L 144.472107 165.96 
L 145.724304 165.96 
L 145.724304 142.895593 
L 144.472107 142.895593 
z
" clip-path="url(#p82c2e7ce91)" style="fill: #8c564b"/>
   </g>
   <g id="BrokenBarHCollection_43">
    <path d="M 145.527115 66.014237 
L 145.527115 89.078644 
L 252.130005 89.078644 
L 252.130005 66.014237 
L 145.527115 66.014237 
z
" clip-path="url(#p82c2e7ce91)" style="fill: #d62728"/>
   </g>
   <g id="BrokenBarHCollection_44">
    <path d="M 145.529861 40.387119 
L 145.529861 63.451525 
L 229.59053 63.451525 
L 229.59053 40.387119 
L 145.529861 40.387119 
z
" clip-path="url(#p82c2e7ce91)" style="fill: #d62728"/>
   </g>
   <g id="BrokenBarHCollection_45">
    <path d="M 145.53215 117.268475 
L 145.53215 140.332881 
L 262.372284 140.332881 
L 262.372284 117.268475 
L 145.53215 117.268475 
z
" clip-path="url(#p82c2e7ce91)" style="fill: #d62728"/>
   </g>
   <g id="BrokenBarHCollection_46">
    <path d="M 145.539413 91.641356 
L 145.539413 114.705763 
L 274.672195 114.705763 
L 274.672195 91.641356 
L 145.539413 91.641356 
z
" clip-path="url(#p82c2e7ce91)" style="fill: #d62728"/>
   </g>
   <g id="BrokenBarHCollection_47">
    <path d="M 145.543457 14.76 
L 145.543457 37.824407 
L 176.302658 37.824407 
L 176.302658 14.76 
L 145.543457 14.76 
z
" clip-path="url(#p82c2e7ce91)" style="fill: #d62728"/>
   </g>
   <g id="BrokenBarHCollection_48">
    <path d="M 145.724838 142.895593 
L 145.724838 165.96 
L 274.674149 165.96 
L 274.674149 142.895593 
L 145.724838 142.895593 
z
" clip-path="url(#p82c2e7ce91)" style="fill: #d62728"/>
   </g>
   <g id="BrokenBarHCollection_49">
    <path d="M 213.626282 14.76 
L 213.626282 37.824407 
L 371.501343 37.824407 
L 371.501343 14.76 
L 213.626282 14.76 
z
" clip-path="url(#p82c2e7ce91)" style="fill: #2ca02c"/>
   </g>
   <g id="BrokenBarHCollection_50">
    <path d="M 213.626358 14.76 
L 213.626358 37.824407 
L 368.094589 37.824407 
L 368.094589 14.76 
L 213.626358 14.76 
z
" clip-path="url(#p82c2e7ce91)" style="fill: #1f77b4"/>
   </g>
   <g id="BrokenBarHCollection_51">
    <path d="M 269.590515 40.387119 
L 269.590515 63.451525 
L 371.533768 63.451525 
L 371.533768 40.387119 
L 269.590515 40.387119 
z
" clip-path="url(#p82c2e7ce91)" style="fill: #2ca02c"/>
   </g>
   <g id="BrokenBarHCollection_52">
    <path d="M 269.590591 40.387119 
L 269.590591 63.451525 
L 368.093033 63.451525 
L 368.093033 40.387119 
L 269.590591 40.387119 
z
" clip-path="url(#p82c2e7ce91)" style="fill: #1f77b4"/>
   </g>
   <g id="BrokenBarHCollection_53">
    <path d="M 284.078827 66.014237 
L 284.078827 89.078644 
L 371.515854 89.078644 
L 371.515854 66.014237 
L 284.078827 66.014237 
z
" clip-path="url(#p82c2e7ce91)" style="fill: #2ca02c"/>
   </g>
   <g id="BrokenBarHCollection_54">
    <path d="M 284.078903 66.014237 
L 284.078903 89.078644 
L 368.093567 89.078644 
L 368.093567 66.014237 
L 284.078903 66.014237 
z
" clip-path="url(#p82c2e7ce91)" style="fill: #1f77b4"/>
   </g>
   <g id="BrokenBarHCollection_55">
    <path d="M 318.316864 91.641356 
L 318.316864 114.705763 
L 371.552582 114.705763 
L 371.552582 91.641356 
L 318.316864 91.641356 
z
" clip-path="url(#p82c2e7ce91)" style="fill: #2ca02c"/>
   </g>
   <g id="BrokenBarHCollection_56">
    <path d="M 318.31694 91.641356 
L 318.31694 114.705763 
L 368.093079 114.705763 
L 368.093079 91.641356 
L 318.31694 91.641356 
z
" clip-path="url(#p82c2e7ce91)" style="fill: #1f77b4"/>
   </g>
   <g id="BrokenBarHCollection_57">
    <path d="M 328.05957 117.268475 
L 328.05957 140.332881 
L 371.505447 140.332881 
L 371.505447 117.268475 
L 328.05957 117.268475 
z
" clip-path="url(#p82c2e7ce91)" style="fill: #2ca02c"/>
   </g>
   <g id="BrokenBarHCollection_58">
    <path d="M 328.059662 117.268475 
L 328.059662 140.332881 
L 368.092422 140.332881 
L 368.092422 117.268475 
L 328.059662 117.268475 
z
" clip-path="url(#p82c2e7ce91)" style="fill: #1f77b4"/>
   </g>
   <g id="BrokenBarHCollection_59">
    <path d="M 368.090775 142.895593 
L 368.090775 165.96 
L 371.508392 165.96 
L 371.508392 142.895593 
L 368.090775 142.895593 
z
" clip-path="url(#p82c2e7ce91)" style="fill: #2ca02c"/>
   </g>
   <g id="BrokenBarHCollection_60">
    <path d="M 368.090866 142.895593 
L 368.090866 165.96 
L 368.092346 165.96 
L 368.092346 142.895593 
L 368.090866 142.895593 
z
" clip-path="url(#p82c2e7ce91)" style="fill: #1f77b4"/>
   </g>
   <g id="BrokenBarHCollection_61">
    <path d="M 368.092346 142.895593 
L 368.092346 165.96 
L 368.279739 165.96 
L 368.279739 142.895593 
L 368.092346 142.895593 
z
" clip-path="url(#p82c2e7ce91)" style="fill: #ff7f0e"/>
   </g>
   <g id="BrokenBarHCollection_62">
    <path d="M 368.092499 117.268475 
L 368.092499 140.332881 
L 368.279663 140.332881 
L 368.279663 117.268475 
L 368.092499 117.268475 
z
" clip-path="url(#p82c2e7ce91)" style="fill: #ff7f0e"/>
   </g>
   <g id="BrokenBarHCollection_63">
    <path d="M 368.093155 40.387119 
L 368.093155 63.451525 
L 368.294296 63.451525 
L 368.294296 40.387119 
L 368.093155 40.387119 
z
" clip-path="url(#p82c2e7ce91)" style="fill: #ff7f0e"/>
   </g>
   <g id="BrokenBarHCollection_64">
    <path d="M 368.093246 91.641356 
L 368.093246 114.705763 
L 368.293472 114.705763 
L 368.293472 91.641356 
L 368.093246 91.641356 
z
" clip-path="url(#p82c2e7ce91)" style="fill: #ff7f0e"/>
   </g>
   <g id="BrokenBarHCollection_65">
    <path d="M 368.093903 66.014237 
L 368.093903 89.078644 
L 368.293503 89.078644 
L 368.293503 66.014237 
L 368.093903 66.014237 
z
" clip-path="url(#p82c2e7ce91)" style="fill: #ff7f0e"/>
   </g>
   <g id="BrokenBarHCollection_66">
    <path d="M 368.094788 14.76 
L 368.094788 37.824407 
L 368.294296 37.824407 
L 368.294296 14.76 
L 368.094788 14.76 
z
" clip-path="url(#p82c2e7ce91)" style="fill: #ff7f0e"/>
   </g>
   <g id="BrokenBarHCollection_67">
    <path d="M 368.279816 117.268475 
L 368.279816 140.332881 
L 371.504623 140.332881 
L 371.504623 117.268475 
L 368.279816 117.268475 
z
" clip-path="url(#p82c2e7ce91)" style="fill: #e377c2"/>
   </g>
   <g id="BrokenBarHCollection_68">
    <path d="M 368.279861 117.268475 
L 368.279861 140.332881 
L 371.504623 140.332881 
L 371.504623 117.268475 
L 368.279861 117.268475 
z
" clip-path="url(#p82c2e7ce91)" style="fill: #7f7f7f"/>
   </g>
   <g id="BrokenBarHCollection_69">
    <path d="M 368.279953 142.895593 
L 368.279953 165.96 
L 371.507568 165.96 
L 371.507568 142.895593 
L 368.279953 142.895593 
z
" clip-path="url(#p82c2e7ce91)" style="fill: #7f7f7f"/>
   </g>
   <g id="BrokenBarHCollection_70">
    <path d="M 368.279953 142.895593 
L 368.279953 165.96 
L 371.507568 165.96 
L 371.507568 142.895593 
L 368.279953 142.895593 
z
" clip-path="url(#p82c2e7ce91)" style="fill: #e377c2"/>
   </g>
   <g id="BrokenBarHCollection_71">
    <path d="M 368.293594 91.641356 
L 368.293594 114.705763 
L 371.551758 114.705763 
L 371.551758 91.641356 
L 368.293594 91.641356 
z
" clip-path="url(#p82c2e7ce91)" style="fill: #7f7f7f"/>
   </g>
   <g id="BrokenBarHCollection_72">
    <path d="M 368.293594 91.641356 
L 368.293594 114.705763 
L 371.551758 114.705763 
L 371.551758 91.641356 
L 368.293594 91.641356 
z
" clip-path="url(#p82c2e7ce91)" style="fill: #e377c2"/>
   </g>
   <g id="BrokenBarHCollection_73">
    <path d="M 368.29364 66.014237 
L 368.29364 89.078644 
L 371.514999 89.078644 
L 371.514999 66.014237 
L 368.29364 66.014237 
z
" clip-path="url(#p82c2e7ce91)" style="fill: #7f7f7f"/>
   </g>
   <g id="BrokenBarHCollection_74">
    <path d="M 368.29364 66.014237 
L 368.29364 89.078644 
L 371.514999 89.078644 
L 371.514999 66.014237 
L 368.29364 66.014237 
z
" clip-path="url(#p82c2e7ce91)" style="fill: #e377c2"/>
   </g>
   <g id="BrokenBarHCollection_75">
    <path d="M 368.294373 14.76 
L 368.294373 37.824407 
L 371.500443 37.824407 
L 371.500443 14.76 
L 368.294373 14.76 
z
" clip-path="url(#p82c2e7ce91)" style="fill: #7f7f7f"/>
   </g>
   <g id="BrokenBarHCollection_76">
    <path d="M 368.294373 14.76 
L 368.294373 37.824407 
L 371.500443 37.824407 
L 371.500443 14.76 
L 368.294373 14.76 
z
" clip-path="url(#p82c2e7ce91)" style="fill: #e377c2"/>
   </g>
   <g id="BrokenBarHCollection_77">
    <path d="M 368.294418 40.387119 
L 368.294418 63.451525 
L 371.532944 63.451525 
L 371.532944 40.387119 
L 368.294418 40.387119 
z
" clip-path="url(#p82c2e7ce91)" style="fill: #7f7f7f"/>
   </g>
   <g id="BrokenBarHCollection_78">
    <path d="M 368.294418 40.387119 
L 368.294418 63.451525 
L 371.532944 63.451525 
L 371.532944 40.387119 
L 368.294418 40.387119 
z
" clip-path="url(#p82c2e7ce91)" style="fill: #e377c2"/>
   </g>
   <g id="BrokenBarHCollection_79">
    <path d="M 370.307861 117.268475 
L 370.307861 140.332881 
L 371.504623 140.332881 
L 371.504623 117.268475 
L 370.307861 117.268475 
z
" clip-path="url(#p82c2e7ce91)" style="fill: #8c564b"/>
   </g>
   <g id="BrokenBarHCollection_80">
    <path d="M 370.308731 14.76 
L 370.308731 37.824407 
L 371.500443 37.824407 
L 371.500443 14.76 
L 370.308731 14.76 
z
" clip-path="url(#p82c2e7ce91)" style="fill: #8c564b"/>
   </g>
   <g id="BrokenBarHCollection_81">
    <path d="M 370.312866 142.895593 
L 370.312866 165.96 
L 371.507568 165.96 
L 371.507568 142.895593 
L 370.312866 142.895593 
z
" clip-path="url(#p82c2e7ce91)" style="fill: #8c564b"/>
   </g>
   <g id="BrokenBarHCollection_82">
    <path d="M 370.322662 66.014237 
L 370.322662 89.078644 
L 371.514954 89.078644 
L 371.514954 66.014237 
L 370.322662 66.014237 
z
" clip-path="url(#p82c2e7ce91)" style="fill: #8c564b"/>
   </g>
   <g id="BrokenBarHCollection_83">
    <path d="M 370.337784 40.387119 
L 370.337784 63.451525 
L 371.532944 63.451525 
L 371.532944 40.387119 
L 370.337784 40.387119 
z
" clip-path="url(#p82c2e7ce91)" style="fill: #8c564b"/>
   </g>
   <g id="BrokenBarHCollection_84">
    <path d="M 370.355286 91.641356 
L 370.355286 114.705763 
L 371.551758 114.705763 
L 371.551758 91.641356 
L 370.355286 91.641356 
z
" clip-path="url(#p82c2e7ce91)" style="fill: #8c564b"/>
   </g>
   <g id="BrokenBarHCollection_85">
    <path d="M 371.501389 14.76 
L 371.501389 37.824407 
L 383.847229 37.824407 
L 383.847229 14.76 
L 371.501389 14.76 
z
" clip-path="url(#p82c2e7ce91)" style="fill: #d62728"/>
   </g>
   <g id="BrokenBarHCollection_86">
    <path d="M 371.505493 117.268475 
L 371.505493 140.332881 
L 426.854034 140.332881 
L 426.854034 117.268475 
L 371.505493 117.268475 
z
" clip-path="url(#p82c2e7ce91)" style="fill: #d62728"/>
   </g>
   <g id="BrokenBarHCollection_87">
    <path d="M 371.508392 142.895593 
L 371.508392 165.96 
L 426.849609 165.96 
L 426.849609 142.895593 
L 371.508392 142.895593 
z
" clip-path="url(#p82c2e7ce91)" style="fill: #d62728"/>
   </g>
   <g id="BrokenBarHCollection_88">
    <path d="M 371.515854 66.014237 
L 371.515854 89.078644 
L 408.411514 89.078644 
L 408.411514 66.014237 
L 371.515854 66.014237 
z
" clip-path="url(#p82c2e7ce91)" style="fill: #d62728"/>
   </g>
   <g id="BrokenBarHCollection_89">
    <path d="M 371.533768 40.387119 
L 371.533768 63.451525 
L 402.275543 63.451525 
L 402.275543 40.387119 
L 371.533768 40.387119 
z
" clip-path="url(#p82c2e7ce91)" style="fill: #d62728"/>
   </g>
   <g id="BrokenBarHCollection_90">
    <path d="M 371.552582 91.641356 
L 371.552582 114.705763 
L 426.856247 114.705763 
L 426.856247 91.641356 
L 371.552582 91.641356 
z
" clip-path="url(#p82c2e7ce91)" style="fill: #d62728"/>
   </g>
   <g id="BrokenBarHCollection_91">
    <path d="M 428.504288 14.76 
L 428.504288 37.824407 
L 482.032028 37.824407 
L 482.032028 14.76 
L 428.504288 14.76 
z
" clip-path="url(#p82c2e7ce91)" style="fill: #2ca02c"/>
   </g>
   <g id="BrokenBarHCollection_92">
    <path d="M 428.504364 14.76 
L 428.504364 37.824407 
L 478.867966 37.824407 
L 478.867966 14.76 
L 428.504364 14.76 
z
" clip-path="url(#p82c2e7ce91)" style="fill: #1f77b4"/>
   </g>
   <g id="BrokenBarHCollection_93">
    <path d="M 445.3302 40.387119 
L 445.3302 63.451525 
L 482.054489 63.451525 
L 482.054489 40.387119 
L 445.3302 40.387119 
z
" clip-path="url(#p82c2e7ce91)" style="fill: #2ca02c"/>
   </g>
   <g id="BrokenBarHCollection_94">
    <path d="M 445.330292 40.387119 
L 445.330292 63.451525 
L 478.866608 63.451525 
L 478.866608 40.387119 
L 445.330292 40.387119 
z
" clip-path="url(#p82c2e7ce91)" style="fill: #1f77b4"/>
   </g>
   <g id="BrokenBarHCollection_95">
    <path d="M 448.241135 66.014237 
L 448.241135 89.078644 
L 482.030472 89.078644 
L 482.030472 66.014237 
L 448.241135 66.014237 
z
" clip-path="url(#p82c2e7ce91)" style="fill: #2ca02c"/>
   </g>
   <g id="BrokenBarHCollection_96">
    <path d="M 448.241226 66.014237 
L 448.241226 89.078644 
L 478.864883 89.078644 
L 478.864883 66.014237 
L 448.241226 66.014237 
z
" clip-path="url(#p82c2e7ce91)" style="fill: #1f77b4"/>
   </g>
   <g id="BrokenBarHCollection_97">
    <path d="M 468.475861 91.641356 
L 468.475861 114.705763 
L 482.04892 114.705763 
L 482.04892 91.641356 
L 468.475861 91.641356 
z
" clip-path="url(#p82c2e7ce91)" style="fill: #2ca02c"/>
   </g>
   <g id="BrokenBarHCollection_98">
    <path d="M 468.475937 91.641356 
L 468.475937 114.705763 
L 478.864227 114.705763 
L 478.864227 91.641356 
L 468.475937 91.641356 
z
" clip-path="url(#p82c2e7ce91)" style="fill: #1f77b4"/>
   </g>
   <g id="BrokenBarHCollection_99">
    <path d="M 471.968475 117.268475 
L 471.968475 140.332881 
L 482.030518 140.332881 
L 482.030518 117.268475 
L 471.968475 117.268475 
z
" clip-path="url(#p82c2e7ce91)" style="fill: #2ca02c"/>
   </g>
   <g id="BrokenBarHCollection_100">
    <path d="M 471.968521 117.268475 
L 471.968521 140.332881 
L 478.864197 140.332881 
L 478.864197 117.268475 
L 471.968521 117.268475 
z
" clip-path="url(#p82c2e7ce91)" style="fill: #1f77b4"/>
   </g>
   <g id="BrokenBarHCollection_101">
    <path d="M 478.862671 142.895593 
L 478.862671 165.96 
L 482.046341 165.96 
L 482.046341 142.895593 
L 478.862671 142.895593 
z
" clip-path="url(#p82c2e7ce91)" style="fill: #2ca02c"/>
   </g>
   <g id="BrokenBarHCollection_102">
    <path d="M 478.862762 142.895593 
L 478.862762 165.96 
L 478.864197 165.96 
L 478.864197 142.895593 
L 478.862762 142.895593 
z
" clip-path="url(#p82c2e7ce91)" style="fill: #1f77b4"/>
   </g>
   <g id="BrokenBarHCollection_103">
    <path d="M 478.864197 142.895593 
L 478.864197 165.96 
L 479.029587 165.96 
L 479.029587 142.895593 
L 478.864197 142.895593 
z
" clip-path="url(#p82c2e7ce91)" style="fill: #ff7f0e"/>
   </g>
   <g id="BrokenBarHCollection_104">
    <path d="M 478.864227 91.641356 
L 478.864227 114.705763 
L 479.041138 114.705763 
L 479.041138 91.641356 
L 478.864227 91.641356 
z
" clip-path="url(#p82c2e7ce91)" style="fill: #ff7f0e"/>
   </g>
   <g id="BrokenBarHCollection_105">
    <path d="M 478.864227 117.268475 
L 478.864227 140.332881 
L 479.029541 140.332881 
L 479.029541 117.268475 
L 478.864227 117.268475 
z
" clip-path="url(#p82c2e7ce91)" style="fill: #ff7f0e"/>
   </g>
   <g id="BrokenBarHCollection_106">
    <path d="M 478.865097 66.014237 
L 478.865097 89.078644 
L 479.041138 89.078644 
L 479.041138 66.014237 
L 478.865097 66.014237 
z
" clip-path="url(#p82c2e7ce91)" style="fill: #ff7f0e"/>
   </g>
   <g id="BrokenBarHCollection_107">
    <path d="M 478.86673 40.387119 
L 478.86673 63.451525 
L 479.044708 63.451525 
L 479.044708 40.387119 
L 478.86673 40.387119 
z
" clip-path="url(#p82c2e7ce91)" style="fill: #ff7f0e"/>
   </g>
   <g id="BrokenBarHCollection_108">
    <path d="M 478.868042 14.76 
L 478.868042 37.824407 
L 479.044708 37.824407 
L 479.044708 14.76 
L 478.868042 14.76 
z
" clip-path="url(#p82c2e7ce91)" style="fill: #ff7f0e"/>
   </g>
   <g id="BrokenBarHCollection_109">
    <path d="M 479.029663 117.268475 
L 479.029663 140.332881 
L 482.029694 140.332881 
L 482.029694 117.268475 
L 479.029663 117.268475 
z
" clip-path="url(#p82c2e7ce91)" style="fill: #7f7f7f"/>
   </g>
   <g id="BrokenBarHCollection_110">
    <path d="M 479.029663 117.268475 
L 479.029663 140.332881 
L 482.029694 140.332881 
L 482.029694 117.268475 
L 479.029663 117.268475 
z
" clip-path="url(#p82c2e7ce91)" style="fill: #e377c2"/>
   </g>
   <g id="BrokenBarHCollection_111">
    <path d="M 479.029709 142.895593 
L 479.029709 165.96 
L 482.045593 165.96 
L 482.045593 142.895593 
L 479.029709 142.895593 
z
" clip-path="url(#p82c2e7ce91)" style="fill: #e377c2"/>
   </g>
   <g id="BrokenBarHCollection_112">
    <path d="M 479.029755 142.895593 
L 479.029755 165.96 
L 482.045547 165.96 
L 482.045547 142.895593 
L 479.029755 142.895593 
z
" clip-path="url(#p82c2e7ce91)" style="fill: #7f7f7f"/>
   </g>
   <g id="BrokenBarHCollection_113">
    <path d="M 479.041229 91.641356 
L 479.041229 114.705763 
L 482.048218 114.705763 
L 482.048218 91.641356 
L 479.041229 91.641356 
z
" clip-path="url(#p82c2e7ce91)" style="fill: #7f7f7f"/>
   </g>
   <g id="BrokenBarHCollection_114">
    <path d="M 479.041229 91.641356 
L 479.041229 114.705763 
L 482.048218 114.705763 
L 482.048218 91.641356 
L 479.041229 91.641356 
z
" clip-path="url(#p82c2e7ce91)" style="fill: #e377c2"/>
   </g>
   <g id="BrokenBarHCollection_115">
    <path d="M 479.041229 66.014237 
L 479.041229 89.078644 
L 482.028305 89.078644 
L 482.028305 66.014237 
L 479.041229 66.014237 
z
" clip-path="url(#p82c2e7ce91)" style="fill: #7f7f7f"/>
   </g>
   <g id="BrokenBarHCollection_116">
    <path d="M 479.041229 66.014237 
L 479.041229 89.078644 
L 482.028305 89.078644 
L 482.028305 66.014237 
L 479.041229 66.014237 
z
" clip-path="url(#p82c2e7ce91)" style="fill: #e377c2"/>
   </g>
   <g id="BrokenBarHCollection_117">
    <path d="M 479.044785 40.387119 
L 479.044785 63.451525 
L 482.053787 63.451525 
L 482.053787 40.387119 
L 479.044785 40.387119 
z
" clip-path="url(#p82c2e7ce91)" style="fill: #7f7f7f"/>
   </g>
   <g id="BrokenBarHCollection_118">
    <path d="M 479.044785 40.387119 
L 479.044785 63.451525 
L 482.053787 63.451525 
L 482.053787 40.387119 
L 479.044785 40.387119 
z
" clip-path="url(#p82c2e7ce91)" style="fill: #e377c2"/>
   </g>
   <g id="BrokenBarHCollection_119">
    <path d="M 479.044785 14.76 
L 479.044785 37.824407 
L 482.031326 37.824407 
L 482.031326 14.76 
L 479.044785 14.76 
z
" clip-path="url(#p82c2e7ce91)" style="fill: #7f7f7f"/>
   </g>
   <g id="BrokenBarHCollection_120">
    <path d="M 479.044785 14.76 
L 479.044785 37.824407 
L 482.031326 37.824407 
L 482.031326 14.76 
L 479.044785 14.76 
z
" clip-path="url(#p82c2e7ce91)" style="fill: #e377c2"/>
   </g>
   <g id="BrokenBarHCollection_121">
    <path d="M 481.057709 117.268475 
L 481.057709 140.332881 
L 482.029694 140.332881 
L 482.029694 117.268475 
L 481.057709 117.268475 
z
" clip-path="url(#p82c2e7ce91)" style="fill: #8c564b"/>
   </g>
   <g id="BrokenBarHCollection_122">
    <path d="M 481.063446 66.014237 
L 481.063446 89.078644 
L 482.028305 89.078644 
L 482.028305 66.014237 
L 481.063446 66.014237 
z
" clip-path="url(#p82c2e7ce91)" style="fill: #8c564b"/>
   </g>
   <g id="BrokenBarHCollection_123">
    <path d="M 481.064926 14.76 
L 481.064926 37.824407 
L 482.031326 37.824407 
L 482.031326 14.76 
L 481.064926 14.76 
z
" clip-path="url(#p82c2e7ce91)" style="fill: #8c564b"/>
   </g>
   <g id="BrokenBarHCollection_124">
    <path d="M 481.077713 142.895593 
L 481.077713 165.96 
L 482.045547 165.96 
L 482.045547 142.895593 
L 481.077713 142.895593 
z
" clip-path="url(#p82c2e7ce91)" style="fill: #8c564b"/>
   </g>
   <g id="BrokenBarHCollection_125">
    <path d="M 481.078659 91.641356 
L 481.078659 114.705763 
L 482.048172 114.705763 
L 482.048172 91.641356 
L 481.078659 91.641356 
z
" clip-path="url(#p82c2e7ce91)" style="fill: #8c564b"/>
   </g>
   <g id="BrokenBarHCollection_126">
    <path d="M 481.086319 40.387119 
L 481.086319 63.451525 
L 482.053787 63.451525 
L 482.053787 40.387119 
L 481.086319 40.387119 
z
" clip-path="url(#p82c2e7ce91)" style="fill: #8c564b"/>
   </g>
   <g id="BrokenBarHCollection_127">
    <path d="M 482.030518 66.014237 
L 482.030518 89.078644 
L 510.746613 89.078644 
L 510.746613 66.014237 
L 482.030518 66.014237 
z
" clip-path="url(#p82c2e7ce91)" style="fill: #d62728"/>
   </g>
   <g id="BrokenBarHCollection_128">
    <path d="M 482.030548 117.268475 
L 482.030548 140.332881 
L 518.92424 140.332881 
L 518.92424 117.268475 
L 482.030548 117.268475 
z
" clip-path="url(#p82c2e7ce91)" style="fill: #d62728"/>
   </g>
   <g id="BrokenBarHCollection_129">
    <path d="M 482.032074 14.76 
L 482.032074 37.824407 
L 494.355377 37.824407 
L 494.355377 14.76 
L 482.032074 14.76 
z
" clip-path="url(#p82c2e7ce91)" style="fill: #d62728"/>
   </g>
   <g id="BrokenBarHCollection_130">
    <path d="M 482.046341 142.895593 
L 482.046341 165.96 
L 518.922562 165.96 
L 518.922562 142.895593 
L 482.046341 142.895593 
z
" clip-path="url(#p82c2e7ce91)" style="fill: #d62728"/>
   </g>
   <g id="BrokenBarHCollection_131">
    <path d="M 482.04895 91.641356 
L 482.04895 114.705763 
L 518.92392 114.705763 
L 518.92392 91.641356 
L 482.04895 91.641356 
z
" clip-path="url(#p82c2e7ce91)" style="fill: #d62728"/>
   </g>
   <g id="BrokenBarHCollection_132">
    <path d="M 482.054489 40.387119 
L 482.054489 63.451525 
L 502.529312 63.451525 
L 502.529312 40.387119 
L 482.054489 40.387119 
z
" clip-path="url(#p82c2e7ce91)" style="fill: #d62728"/>
   </g>
   <g id="BrokenBarHCollection_133">
    <path d="M 538.737244 14.76 
L 538.737244 37.824407 
L 566.350601 37.824407 
L 566.350601 14.76 
L 538.737244 14.76 
z
" clip-path="url(#p82c2e7ce91)" style="fill: #2ca02c"/>
   </g>
   <g id="BrokenBarHCollection_134">
    <path d="M 538.737274 14.76 
L 538.737274 37.824407 
L 563.320984 37.824407 
L 563.320984 14.76 
L 538.737274 14.76 
z
" clip-path="url(#p82c2e7ce91)" style="fill: #1f77b4"/>
   </g>
   <g id="BrokenBarHCollection_135">
    <path d="M 546.833847 40.387119 
L 546.833847 63.451525 
L 566.376129 63.451525 
L 566.376129 40.387119 
L 546.833847 40.387119 
z
" clip-path="url(#p82c2e7ce91)" style="fill: #2ca02c"/>
   </g>
   <g id="BrokenBarHCollection_136">
    <path d="M 546.833893 40.387119 
L 546.833893 63.451525 
L 563.319763 63.451525 
L 563.319763 40.387119 
L 546.833893 40.387119 
z
" clip-path="url(#p82c2e7ce91)" style="fill: #1f77b4"/>
   </g>
   <g id="BrokenBarHCollection_137">
    <path d="M 553.72084 66.014237 
L 553.72084 89.078644 
L 566.357239 89.078644 
L 566.357239 66.014237 
L 553.72084 66.014237 
z
" clip-path="url(#p82c2e7ce91)" style="fill: #2ca02c"/>
   </g>
   <g id="BrokenBarHCollection_138">
    <path d="M 553.720886 66.014237 
L 553.720886 89.078644 
L 563.320419 89.078644 
L 563.320419 66.014237 
L 553.720886 66.014237 
z
" clip-path="url(#p82c2e7ce91)" style="fill: #1f77b4"/>
   </g>
   <g id="BrokenBarHCollection_139">
    <path d="M 561.630905 91.641356 
L 561.630905 114.705763 
L 566.372482 114.705763 
L 566.372482 91.641356 
L 561.630905 91.641356 
z
" clip-path="url(#p82c2e7ce91)" style="fill: #2ca02c"/>
   </g>
   <g id="BrokenBarHCollection_140">
    <path d="M 561.630997 91.641356 
L 561.630997 114.705763 
L 563.320206 114.705763 
L 563.320206 91.641356 
L 561.630997 91.641356 
z
" clip-path="url(#p82c2e7ce91)" style="fill: #1f77b4"/>
   </g>
   <g id="BrokenBarHCollection_141">
    <path d="M 562.030106 117.268475 
L 562.030106 140.332881 
L 566.346207 140.332881 
L 566.346207 117.268475 
L 562.030106 117.268475 
z
" clip-path="url(#p82c2e7ce91)" style="fill: #2ca02c"/>
   </g>
   <g id="BrokenBarHCollection_142">
    <path d="M 562.030106 117.268475 
L 562.030106 140.332881 
L 563.319717 140.332881 
L 563.319717 117.268475 
L 562.030106 117.268475 
z
" clip-path="url(#p82c2e7ce91)" style="fill: #1f77b4"/>
   </g>
   <g id="BrokenBarHCollection_143">
    <path d="M 563.318695 142.895593 
L 563.318695 165.96 
L 566.366745 165.96 
L 566.366745 142.895593 
L 563.318695 142.895593 
z
" clip-path="url(#p82c2e7ce91)" style="fill: #2ca02c"/>
   </g>
   <g id="BrokenBarHCollection_144">
    <path d="M 563.318771 142.895593 
L 563.318771 165.96 
L 563.320129 165.96 
L 563.320129 142.895593 
L 563.318771 142.895593 
z
" clip-path="url(#p82c2e7ce91)" style="fill: #1f77b4"/>
   </g>
   <g id="BrokenBarHCollection_145">
    <path d="M 563.319717 117.268475 
L 563.319717 140.332881 
L 563.484161 140.332881 
L 563.484161 117.268475 
L 563.319717 117.268475 
z
" clip-path="url(#p82c2e7ce91)" style="fill: #ff7f0e"/>
   </g>
   <g id="BrokenBarHCollection_146">
    <path d="M 563.319763 40.387119 
L 563.319763 63.451525 
L 563.49791 63.451525 
L 563.49791 40.387119 
L 563.319763 40.387119 
z
" clip-path="url(#p82c2e7ce91)" style="fill: #ff7f0e"/>
   </g>
   <g id="BrokenBarHCollection_147">
    <path d="M 563.320129 142.895593 
L 563.320129 165.96 
L 563.484222 165.96 
L 563.484222 142.895593 
L 563.320129 142.895593 
z
" clip-path="url(#p82c2e7ce91)" style="fill: #ff7f0e"/>
   </g>
   <g id="BrokenBarHCollection_148">
    <path d="M 563.320206 91.641356 
L 563.320206 114.705763 
L 563.497742 114.705763 
L 563.497742 91.641356 
L 563.320206 91.641356 
z
" clip-path="url(#p82c2e7ce91)" style="fill: #ff7f0e"/>
   </g>
   <g id="BrokenBarHCollection_149">
    <path d="M 563.320496 66.014237 
L 563.320496 89.078644 
L 563.497742 89.078644 
L 563.497742 66.014237 
L 563.320496 66.014237 
z
" clip-path="url(#p82c2e7ce91)" style="fill: #ff7f0e"/>
   </g>
   <g id="BrokenBarHCollection_150">
    <path d="M 563.32103 14.76 
L 563.32103 37.824407 
L 563.49791 37.824407 
L 563.49791 14.76 
L 563.32103 14.76 
z
" clip-path="url(#p82c2e7ce91)" style="fill: #ff7f0e"/>
   </g>
   <g id="BrokenBarHCollection_151">
    <path d="M 563.484329 142.895593 
L 563.484329 165.96 
L 566.365997 165.96 
L 566.365997 142.895593 
L 563.484329 142.895593 
z
" clip-path="url(#p82c2e7ce91)" style="fill: #7f7f7f"/>
   </g>
   <g id="BrokenBarHCollection_152">
    <path d="M 563.484329 142.895593 
L 563.484329 165.96 
L 566.365997 165.96 
L 566.365997 142.895593 
L 563.484329 142.895593 
z
" clip-path="url(#p82c2e7ce91)" style="fill: #e377c2"/>
   </g>
   <g id="BrokenBarHCollection_153">
    <path d="M 563.484329 117.268475 
L 563.484329 140.332881 
L 566.345352 140.332881 
L 566.345352 117.268475 
L 563.484329 117.268475 
z
" clip-path="url(#p82c2e7ce91)" style="fill: #7f7f7f"/>
   </g>
   <g id="BrokenBarHCollection_154">
    <path d="M 563.484329 117.268475 
L 563.484329 140.332881 
L 566.345352 140.332881 
L 566.345352 117.268475 
L 563.484329 117.268475 
z
" clip-path="url(#p82c2e7ce91)" style="fill: #e377c2"/>
   </g>
   <g id="BrokenBarHCollection_155">
    <path d="M 563.497772 91.641356 
L 563.497772 114.705763 
L 566.371826 114.705763 
L 566.371826 91.641356 
L 563.497772 91.641356 
z
" clip-path="url(#p82c2e7ce91)" style="fill: #e377c2"/>
   </g>
   <g id="BrokenBarHCollection_156">
    <path d="M 563.497818 91.641356 
L 563.497818 114.705763 
L 566.371826 114.705763 
L 566.371826 91.641356 
L 563.497818 91.641356 
z
" clip-path="url(#p82c2e7ce91)" style="fill: #7f7f7f"/>
   </g>
   <g id="BrokenBarHCollection_157">
    <path d="M 563.497818 66.014237 
L 563.497818 89.078644 
L 566.356583 89.078644 
L 566.356583 66.014237 
L 563.497818 66.014237 
z
" clip-path="url(#p82c2e7ce91)" style="fill: #e377c2"/>
   </g>
   <g id="BrokenBarHCollection_158">
    <path d="M 563.497818 66.014237 
L 563.497818 89.078644 
L 566.356537 89.078644 
L 566.356537 66.014237 
L 563.497818 66.014237 
z
" clip-path="url(#p82c2e7ce91)" style="fill: #7f7f7f"/>
   </g>
   <g id="BrokenBarHCollection_159">
    <path d="M 563.497986 40.387119 
L 563.497986 63.451525 
L 566.375473 63.451525 
L 566.375473 40.387119 
L 563.497986 40.387119 
z
" clip-path="url(#p82c2e7ce91)" style="fill: #7f7f7f"/>
   </g>
   <g id="BrokenBarHCollection_160">
    <path d="M 563.497986 40.387119 
L 563.497986 63.451525 
L 566.375473 63.451525 
L 566.375473 40.387119 
L 563.497986 40.387119 
z
" clip-path="url(#p82c2e7ce91)" style="fill: #e377c2"/>
   </g>
   <g id="BrokenBarHCollection_161">
    <path d="M 563.497986 14.76 
L 563.497986 37.824407 
L 566.349945 37.824407 
L 566.349945 14.76 
L 563.497986 14.76 
z
" clip-path="url(#p82c2e7ce91)" style="fill: #7f7f7f"/>
   </g>
   <g id="BrokenBarHCollection_162">
    <path d="M 563.497986 14.76 
L 563.497986 37.824407 
L 566.349945 37.824407 
L 566.349945 14.76 
L 563.497986 14.76 
z
" clip-path="url(#p82c2e7ce91)" style="fill: #e377c2"/>
   </g>
   <g id="BrokenBarHCollection_163">
    <path d="M 565.504837 117.268475 
L 565.504837 140.332881 
L 566.345352 140.332881 
L 566.345352 117.268475 
L 565.504837 117.268475 
z
" clip-path="url(#p82c2e7ce91)" style="fill: #8c564b"/>
   </g>
   <g id="BrokenBarHCollection_164">
    <path d="M 565.513687 14.76 
L 565.513687 37.824407 
L 566.349945 37.824407 
L 566.349945 14.76 
L 565.513687 14.76 
z
" clip-path="url(#p82c2e7ce91)" style="fill: #8c564b"/>
   </g>
   <g id="BrokenBarHCollection_165">
    <path d="M 565.521896 66.014237 
L 565.521896 89.078644 
L 566.356537 89.078644 
L 566.356537 66.014237 
L 565.521896 66.014237 
z
" clip-path="url(#p82c2e7ce91)" style="fill: #8c564b"/>
   </g>
   <g id="BrokenBarHCollection_166">
    <path d="M 565.526184 142.895593 
L 565.526184 165.96 
L 566.365997 165.96 
L 566.365997 142.895593 
L 565.526184 142.895593 
z
" clip-path="url(#p82c2e7ce91)" style="fill: #8c564b"/>
   </g>
   <g id="BrokenBarHCollection_167">
    <path d="M 565.532913 91.641356 
L 565.532913 114.705763 
L 566.371826 114.705763 
L 566.371826 91.641356 
L 565.532913 91.641356 
z
" clip-path="url(#p82c2e7ce91)" style="fill: #8c564b"/>
   </g>
   <g id="BrokenBarHCollection_168">
    <path d="M 565.535202 40.387119 
L 565.535202 63.451525 
L 566.375473 63.451525 
L 566.375473 40.387119 
L 565.535202 40.387119 
z
" clip-path="url(#p82c2e7ce91)" style="fill: #8c564b"/>
   </g>
   <g id="BrokenBarHCollection_169">
    <path d="M 566.346207 117.268475 
L 566.346207 140.332881 
L 603.237488 140.332881 
L 603.237488 117.268475 
L 566.346207 117.268475 
z
" clip-path="url(#p82c2e7ce91)" style="fill: #d62728"/>
   </g>
   <g id="BrokenBarHCollection_170">
    <path d="M 566.350601 14.76 
L 566.350601 37.824407 
L 572.528214 37.824407 
L 572.528214 14.76 
L 566.350601 14.76 
z
" clip-path="url(#p82c2e7ce91)" style="fill: #d62728"/>
   </g>
   <g id="BrokenBarHCollection_171">
    <path d="M 566.357285 66.014237 
L 566.357285 89.078644 
L 595.066833 89.078644 
L 595.066833 66.014237 
L 566.357285 66.014237 
z
" clip-path="url(#p82c2e7ce91)" style="fill: #d62728"/>
   </g>
   <g id="BrokenBarHCollection_172">
    <path d="M 566.366745 142.895593 
L 566.366745 165.96 
L 603.236786 165.96 
L 603.236786 142.895593 
L 566.366745 142.895593 
z
" clip-path="url(#p82c2e7ce91)" style="fill: #d62728"/>
   </g>
   <g id="BrokenBarHCollection_173">
    <path d="M 566.372528 91.641356 
L 566.372528 114.705763 
L 603.236877 114.705763 
L 603.236877 91.641356 
L 566.372528 91.641356 
z
" clip-path="url(#p82c2e7ce91)" style="fill: #d62728"/>
   </g>
   <g id="BrokenBarHCollection_174">
    <path d="M 566.376129 40.387119 
L 566.376129 63.451525 
L 578.679031 63.451525 
L 578.679031 40.387119 
L 566.376129 40.387119 
z
" clip-path="url(#p82c2e7ce91)" style="fill: #d62728"/>
   </g>
   <g id="BrokenBarHCollection_175">
    <path d="M 616.173172 14.76 
L 616.173172 37.824407 
L 650.530731 37.824407 
L 650.530731 14.76 
L 616.173172 14.76 
z
" clip-path="url(#p82c2e7ce91)" style="fill: #2ca02c"/>
   </g>
   <g id="BrokenBarHCollection_176">
    <path d="M 616.173248 14.76 
L 616.173248 37.824407 
L 647.083817 37.824407 
L 647.083817 14.76 
L 616.173248 14.76 
z
" clip-path="url(#p82c2e7ce91)" style="fill: #1f77b4"/>
   </g>
   <g id="BrokenBarHCollection_177">
    <path d="M 623.062897 40.387119 
L 623.062897 63.451525 
L 650.545822 63.451525 
L 650.545822 40.387119 
L 623.062897 40.387119 
z
" clip-path="url(#p82c2e7ce91)" style="fill: #2ca02c"/>
   </g>
   <g id="BrokenBarHCollection_178">
    <path d="M 623.062943 40.387119 
L 623.062943 63.451525 
L 647.082672 63.451525 
L 647.082672 40.387119 
L 623.062943 40.387119 
z
" clip-path="url(#p82c2e7ce91)" style="fill: #1f77b4"/>
   </g>
   <g id="BrokenBarHCollection_179">
    <path d="M 639.408157 66.014237 
L 639.408157 89.078644 
L 650.551682 89.078644 
L 650.551682 66.014237 
L 639.408157 66.014237 
z
" clip-path="url(#p82c2e7ce91)" style="fill: #2ca02c"/>
   </g>
   <g id="BrokenBarHCollection_180">
    <path d="M 639.408203 66.014237 
L 639.408203 89.078644 
L 647.082092 89.078644 
L 647.082092 66.014237 
L 639.408203 66.014237 
z
" clip-path="url(#p82c2e7ce91)" style="fill: #1f77b4"/>
   </g>
   <g id="BrokenBarHCollection_181">
    <path d="M 646.75914 117.268475 
L 646.75914 140.332881 
L 651.157455 140.332881 
L 651.157455 117.268475 
L 646.75914 117.268475 
z
" clip-path="url(#p82c2e7ce91)" style="fill: #2ca02c"/>
   </g>
   <g id="BrokenBarHCollection_182">
    <path d="M 646.759216 117.268475 
L 646.759216 140.332881 
L 647.082184 140.332881 
L 647.082184 117.268475 
L 646.759216 117.268475 
z
" clip-path="url(#p82c2e7ce91)" style="fill: #1f77b4"/>
   </g>
   <g id="BrokenBarHCollection_183">
    <path d="M 646.889832 142.895593 
L 646.889832 165.96 
L 651.369888 165.96 
L 651.369888 142.895593 
L 646.889832 142.895593 
z
" clip-path="url(#p82c2e7ce91)" style="fill: #2ca02c"/>
   </g>
   <g id="BrokenBarHCollection_184">
    <path d="M 646.889908 142.895593 
L 646.889908 165.96 
L 647.201675 165.96 
L 647.201675 142.895593 
L 646.889908 142.895593 
z
" clip-path="url(#p82c2e7ce91)" style="fill: #1f77b4"/>
   </g>
   <g id="BrokenBarHCollection_185">
    <path d="M 647.080917 91.641356 
L 647.080917 114.705763 
L 650.559921 114.705763 
L 650.559921 91.641356 
L 647.080917 91.641356 
z
" clip-path="url(#p82c2e7ce91)" style="fill: #2ca02c"/>
   </g>
   <g id="BrokenBarHCollection_186">
    <path d="M 647.080994 91.641356 
L 647.080994 114.705763 
L 647.082016 114.705763 
L 647.082016 91.641356 
L 647.080994 91.641356 
z
" clip-path="url(#p82c2e7ce91)" style="fill: #1f77b4"/>
   </g>
   <g id="BrokenBarHCollection_187">
    <path d="M 647.082016 91.641356 
L 647.082016 114.705763 
L 647.571289 114.705763 
L 647.571289 91.641356 
L 647.082016 91.641356 
z
" clip-path="url(#p82c2e7ce91)" style="fill: #ff7f0e"/>
   </g>
   <g id="BrokenBarHCollection_188">
    <path d="M 647.082138 66.014237 
L 647.082138 89.078644 
L 647.571198 89.078644 
L 647.571198 66.014237 
L 647.082138 66.014237 
z
" clip-path="url(#p82c2e7ce91)" style="fill: #ff7f0e"/>
   </g>
   <g id="BrokenBarHCollection_189">
    <path d="M 647.082184 117.268475 
L 647.082184 140.332881 
L 647.658768 140.332881 
L 647.658768 117.268475 
L 647.082184 117.268475 
z
" clip-path="url(#p82c2e7ce91)" style="fill: #ff7f0e"/>
   </g>
   <g id="BrokenBarHCollection_190">
    <path d="M 647.082794 40.387119 
L 647.082794 63.451525 
L 647.572556 63.451525 
L 647.572556 40.387119 
L 647.082794 40.387119 
z
" clip-path="url(#p82c2e7ce91)" style="fill: #ff7f0e"/>
   </g>
   <g id="BrokenBarHCollection_191">
    <path d="M 647.083939 14.76 
L 647.083939 37.824407 
L 647.57251 37.824407 
L 647.57251 14.76 
L 647.083939 14.76 
z
" clip-path="url(#p82c2e7ce91)" style="fill: #ff7f0e"/>
   </g>
   <g id="BrokenBarHCollection_192">
    <path d="M 647.201721 142.895593 
L 647.201721 165.96 
L 647.816269 165.96 
L 647.816269 142.895593 
L 647.201721 142.895593 
z
" clip-path="url(#p82c2e7ce91)" style="fill: #ff7f0e"/>
   </g>
   <g id="BrokenBarHCollection_193">
    <path d="M 647.571335 66.014237 
L 647.571335 89.078644 
L 650.550903 89.078644 
L 650.550903 66.014237 
L 647.571335 66.014237 
z
" clip-path="url(#p82c2e7ce91)" style="fill: #e377c2"/>
   </g>
   <g id="BrokenBarHCollection_194">
    <path d="M 647.571365 66.014237 
L 647.571365 89.078644 
L 650.550903 89.078644 
L 650.550903 66.014237 
L 647.571365 66.014237 
z
" clip-path="url(#p82c2e7ce91)" style="fill: #7f7f7f"/>
   </g>
   <g id="BrokenBarHCollection_195">
    <path d="M 647.571442 91.641356 
L 647.571442 114.705763 
L 650.559097 114.705763 
L 650.559097 91.641356 
L 647.571442 91.641356 
z
" clip-path="url(#p82c2e7ce91)" style="fill: #7f7f7f"/>
   </g>
   <g id="BrokenBarHCollection_196">
    <path d="M 647.571442 91.641356 
L 647.571442 114.705763 
L 650.559097 114.705763 
L 650.559097 91.641356 
L 647.571442 91.641356 
z
" clip-path="url(#p82c2e7ce91)" style="fill: #e377c2"/>
   </g>
   <g id="BrokenBarHCollection_197">
    <path d="M 647.572601 14.76 
L 647.572601 37.824407 
L 650.529877 37.824407 
L 650.529877 14.76 
L 647.572601 14.76 
z
" clip-path="url(#p82c2e7ce91)" style="fill: #e377c2"/>
   </g>
   <g id="BrokenBarHCollection_198">
    <path d="M 647.572632 40.387119 
L 647.572632 63.451525 
L 650.544952 63.451525 
L 650.544952 40.387119 
L 647.572632 40.387119 
z
" clip-path="url(#p82c2e7ce91)" style="fill: #7f7f7f"/>
   </g>
   <g id="BrokenBarHCollection_199">
    <path d="M 647.572632 40.387119 
L 647.572632 63.451525 
L 650.544952 63.451525 
L 650.544952 40.387119 
L 647.572632 40.387119 
z
" clip-path="url(#p82c2e7ce91)" style="fill: #e377c2"/>
   </g>
   <g id="BrokenBarHCollection_200">
    <path d="M 647.572632 14.76 
L 647.572632 37.824407 
L 650.529877 37.824407 
L 650.529877 14.76 
L 647.572632 14.76 
z
" clip-path="url(#p82c2e7ce91)" style="fill: #7f7f7f"/>
   </g>
   <g id="BrokenBarHCollection_201">
    <path d="M 647.658859 117.268475 
L 647.658859 140.332881 
L 651.156677 140.332881 
L 651.156677 117.268475 
L 647.658859 117.268475 
z
" clip-path="url(#p82c2e7ce91)" style="fill: #7f7f7f"/>
   </g>
   <g id="BrokenBarHCollection_202">
    <path d="M 647.658859 117.268475 
L 647.658859 140.332881 
L 651.156677 140.332881 
L 651.156677 117.268475 
L 647.658859 117.268475 
z
" clip-path="url(#p82c2e7ce91)" style="fill: #e377c2"/>
   </g>
   <g id="BrokenBarHCollection_203">
    <path d="M 647.81636 142.895593 
L 647.81636 165.96 
L 651.369202 165.96 
L 651.369202 142.895593 
L 647.81636 142.895593 
z
" clip-path="url(#p82c2e7ce91)" style="fill: #e377c2"/>
   </g>
   <g id="BrokenBarHCollection_204">
    <path d="M 647.81636 142.895593 
L 647.81636 165.96 
L 651.369156 165.96 
L 651.369156 142.895593 
L 647.81636 142.895593 
z
" clip-path="url(#p82c2e7ce91)" style="fill: #7f7f7f"/>
   </g>
   <g id="BrokenBarHCollection_205">
    <path d="M 649.596466 14.76 
L 649.596466 37.824407 
L 650.529877 37.824407 
L 650.529877 14.76 
L 649.596466 14.76 
z
" clip-path="url(#p82c2e7ce91)" style="fill: #8c564b"/>
   </g>
   <g id="BrokenBarHCollection_206">
    <path d="M 649.609253 40.387119 
L 649.609253 63.451525 
L 650.544952 63.451525 
L 650.544952 40.387119 
L 649.609253 40.387119 
z
" clip-path="url(#p82c2e7ce91)" style="fill: #8c564b"/>
   </g>
   <g id="BrokenBarHCollection_207">
    <path d="M 649.617157 66.014237 
L 649.617157 89.078644 
L 650.550858 89.078644 
L 650.550858 66.014237 
L 649.617157 66.014237 
z
" clip-path="url(#p82c2e7ce91)" style="fill: #8c564b"/>
   </g>
   <g id="BrokenBarHCollection_208">
    <path d="M 649.619125 91.641356 
L 649.619125 114.705763 
L 650.559097 114.705763 
L 650.559097 91.641356 
L 649.619125 91.641356 
z
" clip-path="url(#p82c2e7ce91)" style="fill: #8c564b"/>
   </g>
   <g id="BrokenBarHCollection_209">
    <path d="M 650.223175 117.268475 
L 650.223175 140.332881 
L 651.156677 140.332881 
L 651.156677 117.268475 
L 650.223175 117.268475 
z
" clip-path="url(#p82c2e7ce91)" style="fill: #8c564b"/>
   </g>
   <g id="BrokenBarHCollection_210">
    <path d="M 650.434677 142.895593 
L 650.434677 165.96 
L 651.369156 165.96 
L 651.369156 142.895593 
L 650.434677 142.895593 
z
" clip-path="url(#p82c2e7ce91)" style="fill: #8c564b"/>
   </g>
   <g id="BrokenBarHCollection_211">
    <path d="M 650.530731 14.76 
L 650.530731 37.824407 
L 662.846985 37.824407 
L 662.846985 14.76 
L 650.530731 14.76 
z
" clip-path="url(#p82c2e7ce91)" style="fill: #d62728"/>
   </g>
   <g id="BrokenBarHCollection_212">
    <path d="M 650.545822 40.387119 
L 650.545822 63.451525 
L 662.847153 63.451525 
L 662.847153 40.387119 
L 650.545822 40.387119 
z
" clip-path="url(#p82c2e7ce91)" style="fill: #d62728"/>
   </g>
   <g id="BrokenBarHCollection_213">
    <path d="M 650.551727 66.014237 
L 650.551727 89.078644 
L 671.050613 89.078644 
L 671.050613 66.014237 
L 650.551727 66.014237 
z
" clip-path="url(#p82c2e7ce91)" style="fill: #d62728"/>
   </g>
   <g id="BrokenBarHCollection_214">
    <path d="M 650.559921 91.641356 
L 650.559921 114.705763 
L 685.396637 114.705763 
L 685.396637 91.641356 
L 650.559921 91.641356 
z
" clip-path="url(#p82c2e7ce91)" style="fill: #d62728"/>
   </g>
   <g id="BrokenBarHCollection_215">
    <path d="M 651.157501 117.268475 
L 651.157501 140.332881 
L 703.840591 140.332881 
L 703.840591 117.268475 
L 651.157501 117.268475 
z
" clip-path="url(#p82c2e7ce91)" style="fill: #d62728"/>
   </g>
   <g id="BrokenBarHCollection_216">
    <path d="M 651.369934 142.895593 
L 651.369934 165.96 
L 703.840469 165.96 
L 703.840469 142.895593 
L 651.369934 142.895593 
z
" clip-path="url(#p82c2e7ce91)" style="fill: #d62728"/>
   </g>
  </g>
 </g>
 <defs>
  <clipPath id="p82c2e7ce91">
   <rect x="34.240625" y="7.2" width="669.6" height="166.32"/>
  </clipPath>
 </defs>
</svg>
