<?xml version="1.0" encoding="utf-8" standalone="no"?>
<!DOCTYPE svg PUBLIC "-//W3C//DTD SVG 1.1//EN"
  "http://www.w3.org/Graphics/SVG/1.1/DTD/svg11.dtd">
<svg xmlns:xlink="http://www.w3.org/1999/xlink" width="886.07725pt" height="155.63625pt" viewBox="0 0 886.07725 155.63625" xmlns="http://www.w3.org/2000/svg" version="1.1">
 <metadata>
  <rdf:RDF xmlns:dc="http://purl.org/dc/elements/1.1/" xmlns:cc="http://creativecommons.org/ns#" xmlns:rdf="http://www.w3.org/1999/02/22-rdf-syntax-ns#">
   <cc:Work>
    <dc:type rdf:resource="http://purl.org/dc/dcmitype/StillImage"/>
    <dc:date>2025-09-06T20:45:50.258469</dc:date>
    <dc:format>image/svg+xml</dc:format>
    <dc:creator>
     <cc:Agent>
      <dc:title>Matplotlib v3.6.3, https://matplotlib.org/</dc:title>
     </cc:Agent>
    </dc:creator>
   </cc:Work>
  </rdf:RDF>
 </metadata>
 <defs>
  <style type="text/css">*{stroke-linejoin: round; stroke-linecap: butt}</style>
 </defs>
 <g id="figure_1">
  <g id="patch_1">
   <path d="M 0 155.63625 
L 886.07725 155.63625 
L 886.07725 0 
L 0 0 
z
" style="fill: #ffffff"/>
  </g>
  <g id="axes_1">
   <g id="patch_2">
    <path d="M 34.240625 118.08 
L 703.840625 118.08 
L 703.840625 7.2 
L 34.240625 7.2 
z
" style="fill: #ffffff"/>
   </g>
   <g id="matplotlib.axis_1">
    <g id="xtick_1">
     <g id="line2d_1">
      <defs>
       <path id="me84faccfce" d="M 0 0 
L 0 3.5 
" style="stroke: #000000; stroke-width: 0.8"/>
      </defs>
      <g>
       <use xlink:href="#me84faccfce" x="127.6875" y="118.08" style="stroke: #000000; stroke-width: 0.8"/>
      </g>
     </g>
     <g id="text_1">
      <!-- 0 -->
      <g transform="translate(124.50625 132.678438) scale(0.1 -0.1)">
       <defs>
        <path id="DejaVuSans-30" d="M 2034 4250 
Q 1547 4250 1301 3770 
Q 1056 3291 1056 2328 
Q 1056 1369 1301 889 
Q 1547 409 2034 409 
Q 2525 409 2770 889 
Q 3016 1369 3016 2328 
Q 3016 3291 2770 3770 
Q 2525 4250 2034 4250 
z
M 2034 4750 
Q 2819 4750 3233 4129 
Q 3647 3509 3647 2328 
Q 3647 1150 3233 529 
Q 2819 -91 2034 -91 
Q 1250 -91 836 529 
Q 422 1150 422 2328 
Q 422 3509 836 4129 
Q 1250 4750 2034 4750 
z
" transform="scale(0.015625)"/>
       </defs>
       <use xlink:href="#DejaVuSans-30"/>
      </g>
     </g>
    </g>
    <g id="xtick_2">
     <g id="line2d_2">
      <g>
       <use xlink:href="#me84faccfce" x="250.625" y="118.08" style="stroke: #000000; stroke-width: 0.8"/>
      </g>
     </g>
     <g id="text_2">
      <!-- 0 -->
      <g transform="translate(247.44375 132.678438) scale(0.1 -0.1)">
       <use xlink:href="#DejaVuSans-30"/>
      </g>
     </g>
    </g>
    <g id="xtick_3">
     <g id="line2d_3">
      <g>
       <use xlink:href="#me84faccfce" x="373.5625" y="118.08" style="stroke: #000000; stroke-width: 0.8"/>
      </g>
     </g>
     <g id="text_3">
      <!-- 0 -->
      <g transform="translate(370.38125 132.678438) scale(0.1 -0.1)">
       <use xlink:href="#DejaVuSans-30"/>
      </g>
     </g>
    </g>
    <g id="xtick_4">
     <g id="line2d_4">
      <g>
       <use xlink:href="#me84faccfce" x="496.5" y="118.08" style="stroke: #000000; stroke-width: 0.8"/>
      </g>
     </g>
     <g id="text_4">
      <!-- 0 -->
      <g transform="translate(493.31875 132.678438) scale(0.1 -0.1)">
       <use xlink:href="#DejaVuSans-30"/>
      </g>
     </g>
    </g>
    <g id="xtick_5">
     <g id="line2d_5">
      <g>
       <use xlink:href="#me84faccfce" x="619.4375" y="118.08" style="stroke: #000000; stroke-width: 0.8"/>
      </g>
     </g>
     <g id="text_5">
      <!-- 0 -->
      <g transform="translate(616.25625 132.678438) scale(0.1 -0.1)">
       <use xlink:href="#DejaVuSans-30"/>
      </g>
     </g>
    </g>
    <g id="text_6">
     <!-- Time Offset (s) -->
     <g transform="translate(332.025 146.356563) scale(0.1 -0.1)">
      <defs>
       <path id="DejaVuSans-54" d="M -19 4666 
L 3928 4666 
L 3928 4134 
L 2272 4134 
L 2272 0 
L 1638 0 
L 1638 4134 
L -19 4134 
L -19 4666 
z
" transform="scale(0.015625)"/>
       <path id="DejaVuSans-69" d="M 603 3500 
L 1178 3500 
L 1178 0 
L 603 0 
L 603 3500 
z
M 603 4863 
L 1178 4863 
L 1178 4134 
L 603 4134 
L 603 4863 
z
" transform="scale(0.015625)"/>
       <path id="DejaVuSans-6d" d="M 3328 2828 
Q 3544 3216 3844 3400 
Q 4144 3584 4550 3584 
Q 5097 3584 5394 3201 
Q 5691 2819 5691 2113 
L 5691 0 
L 5113 0 
L 5113 2094 
Q 5113 2597 4934 2840 
Q 4756 3084 4391 3084 
Q 3944 3084 3684 2787 
Q 3425 2491 3425 1978 
L 3425 0 
L 2847 0 
L 2847 2094 
Q 2847 2600 2669 2842 
Q 2491 3084 2119 3084 
Q 1678 3084 1418 2786 
Q 1159 2488 1159 1978 
L 1159 0 
L 581 0 
L 581 3500 
L 1159 3500 
L 1159 2956 
Q 1356 3278 1631 3431 
Q 1906 3584 2284 3584 
Q 2666 3584 2933 3390 
Q 3200 3197 3328 2828 
z
" transform="scale(0.015625)"/>
       <path id="DejaVuSans-65" d="M 3597 1894 
L 3597 1613 
L 953 1613 
Q 991 1019 1311 708 
Q 1631 397 2203 397 
Q 2534 397 2845 478 
Q 3156 559 3463 722 
L 3463 178 
Q 3153 47 2828 -22 
Q 2503 -91 2169 -91 
Q 1331 -91 842 396 
Q 353 884 353 1716 
Q 353 2575 817 3079 
Q 1281 3584 2069 3584 
Q 2775 3584 3186 3129 
Q 3597 2675 3597 1894 
z
M 3022 2063 
Q 3016 2534 2758 2815 
Q 2500 3097 2075 3097 
Q 1594 3097 1305 2825 
Q 1016 2553 972 2059 
L 3022 2063 
z
" transform="scale(0.015625)"/>
       <path id="DejaVuSans-20" transform="scale(0.015625)"/>
       <path id="DejaVuSans-4f" d="M 2522 4238 
Q 1834 4238 1429 3725 
Q 1025 3213 1025 2328 
Q 1025 1447 1429 934 
Q 1834 422 2522 422 
Q 3209 422 3611 934 
Q 4013 1447 4013 2328 
Q 4013 3213 3611 3725 
Q 3209 4238 2522 4238 
z
M 2522 4750 
Q 3503 4750 4090 4092 
Q 4678 3434 4678 2328 
Q 4678 1225 4090 567 
Q 3503 -91 2522 -91 
Q 1538 -91 948 565 
Q 359 1222 359 2328 
Q 359 3434 948 4092 
Q 1538 4750 2522 4750 
z
" transform="scale(0.015625)"/>
       <path id="DejaVuSans-66" d="M 2375 4863 
L 2375 4384 
L 1825 4384 
Q 1516 4384 1395 4259 
Q 1275 4134 1275 3809 
L 1275 3500 
L 2222 3500 
L 2222 3053 
L 1275 3053 
L 1275 0 
L 697 0 
L 697 3053 
L 147 3053 
L 147 3500 
L 697 3500 
L 697 3744 
Q 697 4328 969 4595 
Q 1241 4863 1831 4863 
L 2375 4863 
z
" transform="scale(0.015625)"/>
       <path id="DejaVuSans-73" d="M 2834 3397 
L 2834 2853 
Q 2591 2978 2328 3040 
Q 2066 3103 1784 3103 
Q 1356 3103 1142 2972 
Q 928 2841 928 2578 
Q 928 2378 1081 2264 
Q 1234 2150 1697 2047 
L 1894 2003 
Q 2506 1872 2764 1633 
Q 3022 1394 3022 966 
Q 3022 478 2636 193 
Q 2250 -91 1575 -91 
Q 1294 -91 989 -36 
Q 684 19 347 128 
L 347 722 
Q 666 556 975 473 
Q 1284 391 1588 391 
Q 1994 391 2212 530 
Q 2431 669 2431 922 
Q 2431 1156 2273 1281 
Q 2116 1406 1581 1522 
L 1381 1569 
Q 847 1681 609 1914 
Q 372 2147 372 2553 
Q 372 3047 722 3315 
Q 1072 3584 1716 3584 
Q 2034 3584 2315 3537 
Q 2597 3491 2834 3397 
z
" transform="scale(0.015625)"/>
       <path id="DejaVuSans-74" d="M 1172 4494 
L 1172 3500 
L 2356 3500 
L 2356 3053 
L 1172 3053 
L 1172 1153 
Q 1172 725 1289 603 
Q 1406 481 1766 481 
L 2356 481 
L 2356 0 
L 1766 0 
Q 1100 0 847 248 
Q 594 497 594 1153 
L 594 3053 
L 172 3053 
L 172 3500 
L 594 3500 
L 594 4494 
L 1172 4494 
z
" transform="scale(0.015625)"/>
       <path id="DejaVuSans-28" d="M 1984 4856 
Q 1566 4138 1362 3434 
Q 1159 2731 1159 2009 
Q 1159 1288 1364 580 
Q 1569 -128 1984 -844 
L 1484 -844 
Q 1016 -109 783 600 
Q 550 1309 550 2009 
Q 550 2706 781 3412 
Q 1013 4119 1484 4856 
L 1984 4856 
z
" transform="scale(0.015625)"/>
       <path id="DejaVuSans-29" d="M 513 4856 
L 1013 4856 
Q 1481 4119 1714 3412 
Q 1947 2706 1947 2009 
Q 1947 1309 1714 600 
Q 1481 -109 1013 -844 
L 513 -844 
Q 928 -128 1133 580 
Q 1338 1288 1338 2009 
Q 1338 2731 1133 3434 
Q 928 4138 513 4856 
z
" transform="scale(0.015625)"/>
      </defs>
      <use xlink:href="#DejaVuSans-54"/>
      <use xlink:href="#DejaVuSans-69" x="57.958984"/>
      <use xlink:href="#DejaVuSans-6d" x="85.742188"/>
      <use xlink:href="#DejaVuSans-65" x="183.154297"/>
      <use xlink:href="#DejaVuSans-20" x="244.677734"/>
      <use xlink:href="#DejaVuSans-4f" x="276.464844"/>
      <use xlink:href="#DejaVuSans-66" x="355.175781"/>
      <use xlink:href="#DejaVuSans-66" x="390.380859"/>
      <use xlink:href="#DejaVuSans-73" x="425.585938"/>
      <use xlink:href="#DejaVuSans-65" x="477.685547"/>
      <use xlink:href="#DejaVuSans-74" x="539.208984"/>
      <use xlink:href="#DejaVuSans-20" x="578.417969"/>
      <use xlink:href="#DejaVuSans-28" x="610.205078"/>
      <use xlink:href="#DejaVuSans-73" x="649.21875"/>
      <use xlink:href="#DejaVuSans-29" x="701.318359"/>
     </g>
    </g>
   </g>
   <g id="matplotlib.axis_2">
    <g id="ytick_1">
     <g id="line2d_6">
      <defs>
       <path id="m99f62f84c2" d="M 0 0 
L -3.5 0 
" style="stroke: #000000; stroke-width: 0.8"/>
      </defs>
      <g>
       <use xlink:href="#m99f62f84c2" x="34.240625" y="27.881379" style="stroke: #000000; stroke-width: 0.8"/>
      </g>
     </g>
     <g id="text_7">
      <!-- 0 -->
      <g transform="translate(20.878125 31.680598) scale(0.1 -0.1)">
       <use xlink:href="#DejaVuSans-30"/>
      </g>
     </g>
    </g>
    <g id="ytick_2">
     <g id="line2d_7">
      <g>
       <use xlink:href="#m99f62f84c2" x="34.240625" y="62.64" style="stroke: #000000; stroke-width: 0.8"/>
      </g>
     </g>
     <g id="text_8">
      <!-- 1 -->
      <g transform="translate(20.878125 66.439219) scale(0.1 -0.1)">
       <defs>
        <path id="DejaVuSans-31" d="M 794 531 
L 1825 531 
L 1825 4091 
L 703 3866 
L 703 4441 
L 1819 4666 
L 2450 4666 
L 2450 531 
L 3481 531 
L 3481 0 
L 794 0 
L 794 531 
z
" transform="scale(0.015625)"/>
       </defs>
       <use xlink:href="#DejaVuSans-31"/>
      </g>
     </g>
    </g>
    <g id="ytick_3">
     <g id="line2d_8">
      <g>
       <use xlink:href="#m99f62f84c2" x="34.240625" y="97.398621" style="stroke: #000000; stroke-width: 0.8"/>
      </g>
     </g>
     <g id="text_9">
      <!-- 2 -->
      <g transform="translate(20.878125 101.197839) scale(0.1 -0.1)">
       <defs>
        <path id="DejaVuSans-32" d="M 1228 531 
L 3431 531 
L 3431 0 
L 469 0 
L 469 531 
Q 828 903 1448 1529 
Q 2069 2156 2228 2338 
Q 2531 2678 2651 2914 
Q 2772 3150 2772 3378 
Q 2772 3750 2511 3984 
Q 2250 4219 1831 4219 
Q 1534 4219 1204 4116 
Q 875 4013 500 3803 
L 500 4441 
Q 881 4594 1212 4672 
Q 1544 4750 1819 4750 
Q 2544 4750 2975 4387 
Q 3406 4025 3406 3419 
Q 3406 3131 3298 2873 
Q 3191 2616 2906 2266 
Q 2828 2175 2409 1742 
Q 1991 1309 1228 531 
z
" transform="scale(0.015625)"/>
       </defs>
       <use xlink:href="#DejaVuSans-32"/>
      </g>
     </g>
    </g>
    <g id="text_10">
     <!-- Task -->
     <g transform="translate(14.798438 73.432969) rotate(-90) scale(0.1 -0.1)">
      <defs>
       <path id="DejaVuSans-61" d="M 2194 1759 
Q 1497 1759 1228 1600 
Q 959 1441 959 1056 
Q 959 750 1161 570 
Q 1363 391 1709 391 
Q 2188 391 2477 730 
Q 2766 1069 2766 1631 
L 2766 1759 
L 2194 1759 
z
M 3341 1997 
L 3341 0 
L 2766 0 
L 2766 531 
Q 2569 213 2275 61 
Q 1981 -91 1556 -91 
Q 1019 -91 701 211 
Q 384 513 384 1019 
Q 384 1609 779 1909 
Q 1175 2209 1959 2209 
L 2766 2209 
L 2766 2266 
Q 2766 2663 2505 2880 
Q 2244 3097 1772 3097 
Q 1472 3097 1187 3025 
Q 903 2953 641 2809 
L 641 3341 
Q 956 3463 1253 3523 
Q 1550 3584 1831 3584 
Q 2591 3584 2966 3190 
Q 3341 2797 3341 1997 
z
" transform="scale(0.015625)"/>
       <path id="DejaVuSans-6b" d="M 581 4863 
L 1159 4863 
L 1159 1991 
L 2875 3500 
L 3609 3500 
L 1753 1863 
L 3688 0 
L 2938 0 
L 1159 1709 
L 1159 0 
L 581 0 
L 581 4863 
z
" transform="scale(0.015625)"/>
      </defs>
      <use xlink:href="#DejaVuSans-54"/>
      <use xlink:href="#DejaVuSans-61" x="44.583984"/>
      <use xlink:href="#DejaVuSans-73" x="105.863281"/>
      <use xlink:href="#DejaVuSans-6b" x="157.962891"/>
     </g>
    </g>
   </g>
   <g id="patch_3">
    <path d="M 34.240625 118.08 
L 34.240625 7.2 
" style="fill: none; stroke: #000000; stroke-width: 0.8; stroke-linejoin: miter; stroke-linecap: square"/>
   </g>
   <g id="patch_4">
    <path d="M 703.840625 118.08 
L 703.840625 7.2 
" style="fill: none; stroke: #000000; stroke-width: 0.8; stroke-linejoin: miter; stroke-linecap: square"/>
   </g>
   <g id="patch_5">
    <path d="M 34.25 118.08 
L 703.8125 118.08 
" style="fill: none; stroke: #000000; stroke-width: 0.8; stroke-linejoin: miter; stroke-linecap: square"/>
   </g>
   <g id="patch_6">
    <path d="M 34.25 7.2 
L 703.8125 7.2 
" style="fill: none; stroke: #000000; stroke-width: 0.8; stroke-linejoin: miter; stroke-linecap: square"/>
   </g>
   <g id="legend_1">
    <g id="patch_7">
     <path d="M 717.536625 59.5125 
L 876.87725 59.5125 
Q 878.87725 59.5125 878.87725 57.5125 
L 878.87725 14.2 
Q 878.87725 12.2 876.87725 12.2 
L 717.536625 12.2 
Q 715.536625 12.2 715.536625 14.2 
L 715.536625 57.5125 
Q 715.536625 59.5125 717.536625 59.5125 
z
" style="fill: #ffffff; opacity: 0.8; stroke: #cccccc; stroke-linejoin: miter"/>
    </g>
    <g id="text_11">
     <!-- Function -->
     <g transform="translate(775.942094 23.798438) scale(0.1 -0.1)">
      <defs>
       <path id="DejaVuSans-46" d="M 628 4666 
L 3309 4666 
L 3309 4134 
L 1259 4134 
L 1259 2759 
L 3109 2759 
L 3109 2228 
L 1259 2228 
L 1259 0 
L 628 0 
L 628 4666 
z
" transform="scale(0.015625)"/>
       <path id="DejaVuSans-75" d="M 544 1381 
L 544 3500 
L 1119 3500 
L 1119 1403 
Q 1119 906 1312 657 
Q 1506 409 1894 409 
Q 2359 409 2629 706 
Q 2900 1003 2900 1516 
L 2900 3500 
L 3475 3500 
L 3475 0 
L 2900 0 
L 2900 538 
Q 2691 219 2414 64 
Q 2138 -91 1772 -91 
Q 1169 -91 856 284 
Q 544 659 544 1381 
z
M 1991 3584 
L 1991 3584 
z
" transform="scale(0.015625)"/>
       <path id="DejaVuSans-6e" d="M 3513 2113 
L 3513 0 
L 2938 0 
L 2938 2094 
Q 2938 2591 2744 2837 
Q 2550 3084 2163 3084 
Q 1697 3084 1428 2787 
Q 1159 2491 1159 1978 
L 1159 0 
L 581 0 
L 581 3500 
L 1159 3500 
L 1159 2956 
Q 1366 3272 1645 3428 
Q 1925 3584 2291 3584 
Q 2894 3584 3203 3211 
Q 3513 2838 3513 2113 
z
" transform="scale(0.015625)"/>
       <path id="DejaVuSans-63" d="M 3122 3366 
L 3122 2828 
Q 2878 2963 2633 3030 
Q 2388 3097 2138 3097 
Q 1578 3097 1268 2742 
Q 959 2388 959 1747 
Q 959 1106 1268 751 
Q 1578 397 2138 397 
Q 2388 397 2633 464 
Q 2878 531 3122 666 
L 3122 134 
Q 2881 22 2623 -34 
Q 2366 -91 2075 -91 
Q 1284 -91 818 406 
Q 353 903 353 1747 
Q 353 2603 823 3093 
Q 1294 3584 2113 3584 
Q 2378 3584 2631 3529 
Q 2884 3475 3122 3366 
z
" transform="scale(0.015625)"/>
       <path id="DejaVuSans-6f" d="M 1959 3097 
Q 1497 3097 1228 2736 
Q 959 2375 959 1747 
Q 959 1119 1226 758 
Q 1494 397 1959 397 
Q 2419 397 2687 759 
Q 2956 1122 2956 1747 
Q 2956 2369 2687 2733 
Q 2419 3097 1959 3097 
z
M 1959 3584 
Q 2709 3584 3137 3096 
Q 3566 2609 3566 1747 
Q 3566 888 3137 398 
Q 2709 -91 1959 -91 
Q 1206 -91 779 398 
Q 353 888 353 1747 
Q 353 2609 779 3096 
Q 1206 3584 1959 3584 
z
" transform="scale(0.015625)"/>
      </defs>
      <use xlink:href="#DejaVuSans-46"/>
      <use xlink:href="#DejaVuSans-75" x="52.019531"/>
      <use xlink:href="#DejaVuSans-6e" x="115.398438"/>
      <use xlink:href="#DejaVuSans-63" x="178.777344"/>
      <use xlink:href="#DejaVuSans-74" x="233.757812"/>
      <use xlink:href="#DejaVuSans-69" x="272.966797"/>
      <use xlink:href="#DejaVuSans-6f" x="300.75"/>
      <use xlink:href="#DejaVuSans-6e" x="361.931641"/>
     </g>
    </g>
    <g id="patch_8">
     <path d="M 719.536625 38.476563 
L 739.536625 38.476563 
L 739.536625 31.476563 
L 719.536625 31.476563 
z
" style="fill: #1f77b4; stroke: #1f77b4; stroke-linejoin: miter"/>
    </g>
    <g id="text_12">
     <!-- laik_switchto_partitioning -->
     <g transform="translate(747.536625 38.476563) scale(0.1 -0.1)">
      <defs>
       <path id="DejaVuSans-6c" d="M 603 4863 
L 1178 4863 
L 1178 0 
L 603 0 
L 603 4863 
z
" transform="scale(0.015625)"/>
       <path id="DejaVuSans-5f" d="M 3263 -1063 
L 3263 -1509 
L -63 -1509 
L -63 -1063 
L 3263 -1063 
z
" transform="scale(0.015625)"/>
       <path id="DejaVuSans-77" d="M 269 3500 
L 844 3500 
L 1563 769 
L 2278 3500 
L 2956 3500 
L 3675 769 
L 4391 3500 
L 4966 3500 
L 4050 0 
L 3372 0 
L 2619 2869 
L 1863 0 
L 1184 0 
L 269 3500 
z
" transform="scale(0.015625)"/>
       <path id="DejaVuSans-68" d="M 3513 2113 
L 3513 0 
L 2938 0 
L 2938 2094 
Q 2938 2591 2744 2837 
Q 2550 3084 2163 3084 
Q 1697 3084 1428 2787 
Q 1159 2491 1159 1978 
L 1159 0 
L 581 0 
L 581 4863 
L 1159 4863 
L 1159 2956 
Q 1366 3272 1645 3428 
Q 1925 3584 2291 3584 
Q 2894 3584 3203 3211 
Q 3513 2838 3513 2113 
z
" transform="scale(0.015625)"/>
       <path id="DejaVuSans-70" d="M 1159 525 
L 1159 -1331 
L 581 -1331 
L 581 3500 
L 1159 3500 
L 1159 2969 
Q 1341 3281 1617 3432 
Q 1894 3584 2278 3584 
Q 2916 3584 3314 3078 
Q 3713 2572 3713 1747 
Q 3713 922 3314 415 
Q 2916 -91 2278 -91 
Q 1894 -91 1617 61 
Q 1341 213 1159 525 
z
M 3116 1747 
Q 3116 2381 2855 2742 
Q 2594 3103 2138 3103 
Q 1681 3103 1420 2742 
Q 1159 2381 1159 1747 
Q 1159 1113 1420 752 
Q 1681 391 2138 391 
Q 2594 391 2855 752 
Q 3116 1113 3116 1747 
z
" transform="scale(0.015625)"/>
       <path id="DejaVuSans-72" d="M 2631 2963 
Q 2534 3019 2420 3045 
Q 2306 3072 2169 3072 
Q 1681 3072 1420 2755 
Q 1159 2438 1159 1844 
L 1159 0 
L 581 0 
L 581 3500 
L 1159 3500 
L 1159 2956 
Q 1341 3275 1631 3429 
Q 1922 3584 2338 3584 
Q 2397 3584 2469 3576 
Q 2541 3569 2628 3553 
L 2631 2963 
z
" transform="scale(0.015625)"/>
       <path id="DejaVuSans-67" d="M 2906 1791 
Q 2906 2416 2648 2759 
Q 2391 3103 1925 3103 
Q 1463 3103 1205 2759 
Q 947 2416 947 1791 
Q 947 1169 1205 825 
Q 1463 481 1925 481 
Q 2391 481 2648 825 
Q 2906 1169 2906 1791 
z
M 3481 434 
Q 3481 -459 3084 -895 
Q 2688 -1331 1869 -1331 
Q 1566 -1331 1297 -1286 
Q 1028 -1241 775 -1147 
L 775 -588 
Q 1028 -725 1275 -790 
Q 1522 -856 1778 -856 
Q 2344 -856 2625 -561 
Q 2906 -266 2906 331 
L 2906 616 
Q 2728 306 2450 153 
Q 2172 0 1784 0 
Q 1141 0 747 490 
Q 353 981 353 1791 
Q 353 2603 747 3093 
Q 1141 3584 1784 3584 
Q 2172 3584 2450 3431 
Q 2728 3278 2906 2969 
L 2906 3500 
L 3481 3500 
L 3481 434 
z
" transform="scale(0.015625)"/>
      </defs>
      <use xlink:href="#DejaVuSans-6c"/>
      <use xlink:href="#DejaVuSans-61" x="27.783203"/>
      <use xlink:href="#DejaVuSans-69" x="89.0625"/>
      <use xlink:href="#DejaVuSans-6b" x="116.845703"/>
      <use xlink:href="#DejaVuSans-5f" x="174.755859"/>
      <use xlink:href="#DejaVuSans-73" x="224.755859"/>
      <use xlink:href="#DejaVuSans-77" x="276.855469"/>
      <use xlink:href="#DejaVuSans-69" x="358.642578"/>
      <use xlink:href="#DejaVuSans-74" x="386.425781"/>
      <use xlink:href="#DejaVuSans-63" x="425.634766"/>
      <use xlink:href="#DejaVuSans-68" x="480.615234"/>
      <use xlink:href="#DejaVuSans-74" x="543.994141"/>
      <use xlink:href="#DejaVuSans-6f" x="583.203125"/>
      <use xlink:href="#DejaVuSans-5f" x="644.384766"/>
      <use xlink:href="#DejaVuSans-70" x="694.384766"/>
      <use xlink:href="#DejaVuSans-61" x="757.861328"/>
      <use xlink:href="#DejaVuSans-72" x="819.140625"/>
      <use xlink:href="#DejaVuSans-74" x="860.253906"/>
      <use xlink:href="#DejaVuSans-69" x="899.462891"/>
      <use xlink:href="#DejaVuSans-74" x="927.246094"/>
      <use xlink:href="#DejaVuSans-69" x="966.455078"/>
      <use xlink:href="#DejaVuSans-6f" x="994.238281"/>
      <use xlink:href="#DejaVuSans-6e" x="1055.419922"/>
      <use xlink:href="#DejaVuSans-69" x="1118.798828"/>
      <use xlink:href="#DejaVuSans-6e" x="1146.582031"/>
      <use xlink:href="#DejaVuSans-67" x="1209.960938"/>
     </g>
    </g>
    <g id="patch_9">
     <path d="M 719.536625 53.432813 
L 739.536625 53.432813 
L 739.536625 46.432813 
L 719.536625 46.432813 
z
" style="fill: #ff7f0e; stroke: #ff7f0e; stroke-linejoin: miter"/>
    </g>
    <g id="text_13">
     <!-- main -->
     <g transform="translate(747.536625 53.432813) scale(0.1 -0.1)">
      <use xlink:href="#DejaVuSans-6d"/>
      <use xlink:href="#DejaVuSans-61" x="97.412109"/>
      <use xlink:href="#DejaVuSans-69" x="158.691406"/>
      <use xlink:href="#DejaVuSans-6e" x="186.474609"/>
     </g>
    </g>
   </g>
   <g id="BrokenBarHCollection_1">
    <path d="M 34.25 46.998621 
L 34.25 78.281379 
L 703.0625 78.281379 
L 703.0625 46.998621 
L 34.25 46.998621 
z
" clip-path="url(#p0671f1d51f)" style="fill: #ff7f0e"/>
   </g>
   <g id="BrokenBarHCollection_2">
    <path d="M 34.6875 81.757241 
L 34.6875 113.04 
L 703.375 113.04 
L 703.375 81.757241 
L 34.6875 81.757241 
z
" clip-path="url(#p0671f1d51f)" style="fill: #ff7f0e"/>
   </g>
   <g id="BrokenBarHCollection_3">
    <path d="M 38.1875 12.24 
L 38.1875 43.522759 
L 703.8125 43.522759 
L 703.8125 12.24 
L 38.1875 12.24 
z
" clip-path="url(#p0671f1d51f)" style="fill: #ff7f0e"/>
   </g>
   <g id="BrokenBarHCollection_4">
    <path d="M 38.9375 46.998621 
L 38.9375 78.281379 
L 41.625 78.281379 
L 41.625 46.998621 
L 38.9375 46.998621 
z
" clip-path="url(#p0671f1d51f)" style="fill: #1f77b4"/>
   </g>
   <g id="BrokenBarHCollection_5">
    <path d="M 38.9375 81.757241 
L 38.9375 113.04 
L 41.625 113.04 
L 41.625 81.757241 
L 38.9375 81.757241 
z
" clip-path="url(#p0671f1d51f)" style="fill: #1f77b4"/>
   </g>
   <g id="BrokenBarHCollection_6">
    <path d="M 41.625 46.998621 
L 41.625 78.281379 
L 41.875 78.281379 
L 41.875 46.998621 
L 41.625 46.998621 
z
" clip-path="url(#p0671f1d51f)" style="fill: #1f77b4"/>
   </g>
   <g id="BrokenBarHCollection_7">
    <path d="M 41.625 81.757241 
L 41.625 113.04 
L 41.875 113.04 
L 41.875 81.757241 
L 41.625 81.757241 
z
" clip-path="url(#p0671f1d51f)" style="fill: #1f77b4"/>
   </g>
   <g id="BrokenBarHCollection_8">
    <path d="M 41.625 46.998621 
L 41.625 78.281379 
L 41.625 78.281379 
L 41.625 46.998621 
L 41.625 46.998621 
z
" clip-path="url(#p0671f1d51f)" style="fill: #1f77b4"/>
   </g>
   <g id="BrokenBarHCollection_9">
    <path d="M 41.625 81.757241 
L 41.625 113.04 
L 41.625 113.04 
L 41.625 81.757241 
L 41.625 81.757241 
z
" clip-path="url(#p0671f1d51f)" style="fill: #1f77b4"/>
   </g>
   <g id="BrokenBarHCollection_10">
    <path d="M 41.875 46.998621 
L 41.875 78.281379 
L 42.0625 78.281379 
L 42.0625 46.998621 
L 41.875 46.998621 
z
" clip-path="url(#p0671f1d51f)" style="fill: #1f77b4"/>
   </g>
   <g id="BrokenBarHCollection_11">
    <path d="M 41.875 46.998621 
L 41.875 78.281379 
L 41.875 78.281379 
L 41.875 46.998621 
L 41.875 46.998621 
z
" clip-path="url(#p0671f1d51f)" style="fill: #1f77b4"/>
   </g>
   <g id="BrokenBarHCollection_12">
    <path d="M 41.875 81.757241 
L 41.875 113.04 
L 41.875 113.04 
L 41.875 81.757241 
L 41.875 81.757241 
z
" clip-path="url(#p0671f1d51f)" style="fill: #1f77b4"/>
   </g>
   <g id="BrokenBarHCollection_13">
    <path d="M 41.875 81.757241 
L 41.875 113.04 
L 41.875 113.04 
L 41.875 81.757241 
L 41.875 81.757241 
z
" clip-path="url(#p0671f1d51f)" style="fill: #1f77b4"/>
   </g>
   <g id="BrokenBarHCollection_14">
    <path d="M 41.875 81.757241 
L 41.875 113.04 
L 41.875 113.04 
L 41.875 81.757241 
L 41.875 81.757241 
z
" clip-path="url(#p0671f1d51f)" style="fill: #1f77b4"/>
   </g>
   <g id="BrokenBarHCollection_15">
    <path d="M 42.0625 46.998621 
L 42.0625 78.281379 
L 42.0625 78.281379 
L 42.0625 46.998621 
L 42.0625 46.998621 
z
" clip-path="url(#p0671f1d51f)" style="fill: #1f77b4"/>
   </g>
   <g id="BrokenBarHCollection_16">
    <path d="M 43.0625 46.998621 
L 43.0625 78.281379 
L 79.75 78.281379 
L 79.75 46.998621 
L 43.0625 46.998621 
z
" clip-path="url(#p0671f1d51f)" style="fill: #1f77b4"/>
   </g>
   <g id="BrokenBarHCollection_17">
    <path d="M 43.3125 81.757241 
L 43.3125 113.04 
L 79.75 113.04 
L 79.75 81.757241 
L 43.3125 81.757241 
z
" clip-path="url(#p0671f1d51f)" style="fill: #1f77b4"/>
   </g>
   <g id="BrokenBarHCollection_18">
    <path d="M 44.0625 12.24 
L 44.0625 43.522759 
L 46.75 43.522759 
L 46.75 12.24 
L 44.0625 12.24 
z
" clip-path="url(#p0671f1d51f)" style="fill: #1f77b4"/>
   </g>
   <g id="BrokenBarHCollection_19">
    <path d="M 46.75 12.24 
L 46.75 43.522759 
L 47.25 43.522759 
L 47.25 12.24 
L 46.75 12.24 
z
" clip-path="url(#p0671f1d51f)" style="fill: #1f77b4"/>
   </g>
   <g id="BrokenBarHCollection_20">
    <path d="M 47.25 12.24 
L 47.25 43.522759 
L 47.75 43.522759 
L 47.75 12.24 
L 47.25 12.24 
z
" clip-path="url(#p0671f1d51f)" style="fill: #1f77b4"/>
   </g>
   <g id="BrokenBarHCollection_21">
    <path d="M 47.75 12.24 
L 47.75 43.522759 
L 48 43.522759 
L 48 12.24 
L 47.75 12.24 
z
" clip-path="url(#p0671f1d51f)" style="fill: #1f77b4"/>
   </g>
   <g id="BrokenBarHCollection_22">
    <path d="M 48 12.24 
L 48 43.522759 
L 48.5 43.522759 
L 48.5 12.24 
L 48 12.24 
z
" clip-path="url(#p0671f1d51f)" style="fill: #1f77b4"/>
   </g>
   <g id="BrokenBarHCollection_23">
    <path d="M 48.5 12.24 
L 48.5 43.522759 
L 48.6875 43.522759 
L 48.6875 12.24 
L 48.5 12.24 
z
" clip-path="url(#p0671f1d51f)" style="fill: #1f77b4"/>
   </g>
   <g id="BrokenBarHCollection_24">
    <path d="M 54.1875 12.24 
L 54.1875 43.522759 
L 79.9375 43.522759 
L 79.9375 12.24 
L 54.1875 12.24 
z
" clip-path="url(#p0671f1d51f)" style="fill: #1f77b4"/>
   </g>
   <g id="BrokenBarHCollection_25">
    <path d="M 79.75 46.998621 
L 79.75 78.281379 
L 81.1875 78.281379 
L 81.1875 46.998621 
L 79.75 46.998621 
z
" clip-path="url(#p0671f1d51f)" style="fill: #1f77b4"/>
   </g>
   <g id="BrokenBarHCollection_26">
    <path d="M 79.75 81.757241 
L 79.75 113.04 
L 81.1875 113.04 
L 81.1875 81.757241 
L 79.75 81.757241 
z
" clip-path="url(#p0671f1d51f)" style="fill: #1f77b4"/>
   </g>
   <g id="BrokenBarHCollection_27">
    <path d="M 79.9375 12.24 
L 79.9375 43.522759 
L 81.1875 43.522759 
L 81.1875 12.24 
L 79.9375 12.24 
z
" clip-path="url(#p0671f1d51f)" style="fill: #1f77b4"/>
   </g>
   <g id="BrokenBarHCollection_28">
    <path d="M 81.1875 46.998621 
L 81.1875 78.281379 
L 81.4375 78.281379 
L 81.4375 46.998621 
L 81.1875 46.998621 
z
" clip-path="url(#p0671f1d51f)" style="fill: #1f77b4"/>
   </g>
   <g id="BrokenBarHCollection_29">
    <path d="M 81.1875 81.757241 
L 81.1875 113.04 
L 81.4375 113.04 
L 81.4375 81.757241 
L 81.1875 81.757241 
z
" clip-path="url(#p0671f1d51f)" style="fill: #1f77b4"/>
   </g>
   <g id="BrokenBarHCollection_30">
    <path d="M 81.4375 12.24 
L 81.4375 43.522759 
L 81.6875 43.522759 
L 81.6875 12.24 
L 81.4375 12.24 
z
" clip-path="url(#p0671f1d51f)" style="fill: #1f77b4"/>
   </g>
   <g id="BrokenBarHCollection_31">
    <path d="M 81.4375 46.998621 
L 81.4375 78.281379 
L 81.6875 78.281379 
L 81.6875 46.998621 
L 81.4375 46.998621 
z
" clip-path="url(#p0671f1d51f)" style="fill: #1f77b4"/>
   </g>
   <g id="BrokenBarHCollection_32">
    <path d="M 81.4375 81.757241 
L 81.4375 113.04 
L 81.6875 113.04 
L 81.6875 81.757241 
L 81.4375 81.757241 
z
" clip-path="url(#p0671f1d51f)" style="fill: #1f77b4"/>
   </g>
   <g id="BrokenBarHCollection_33">
    <path d="M 81.6875 12.24 
L 81.6875 43.522759 
L 81.9375 43.522759 
L 81.9375 12.24 
L 81.6875 12.24 
z
" clip-path="url(#p0671f1d51f)" style="fill: #1f77b4"/>
   </g>
   <g id="BrokenBarHCollection_34">
    <path d="M 82.1875 81.757241 
L 82.1875 113.04 
L 83.4375 113.04 
L 83.4375 81.757241 
L 82.1875 81.757241 
z
" clip-path="url(#p0671f1d51f)" style="fill: #1f77b4"/>
   </g>
   <g id="BrokenBarHCollection_35">
    <path d="M 82.1875 12.24 
L 82.1875 43.522759 
L 82.4375 43.522759 
L 82.4375 12.24 
L 82.1875 12.24 
z
" clip-path="url(#p0671f1d51f)" style="fill: #1f77b4"/>
   </g>
   <g id="BrokenBarHCollection_36">
    <path d="M 82.1875 46.998621 
L 82.1875 78.281379 
L 82.1875 78.281379 
L 82.1875 46.998621 
L 82.1875 46.998621 
z
" clip-path="url(#p0671f1d51f)" style="fill: #1f77b4"/>
   </g>
   <g id="BrokenBarHCollection_37">
    <path d="M 82.1875 81.757241 
L 82.1875 113.04 
L 82.1875 113.04 
L 82.1875 81.757241 
L 82.1875 81.757241 
z
" clip-path="url(#p0671f1d51f)" style="fill: #1f77b4"/>
   </g>
   <g id="BrokenBarHCollection_38">
    <path d="M 82.4375 12.24 
L 82.4375 43.522759 
L 83.4375 43.522759 
L 83.4375 12.24 
L 82.4375 12.24 
z
" clip-path="url(#p0671f1d51f)" style="fill: #1f77b4"/>
   </g>
   <g id="BrokenBarHCollection_39">
    <path d="M 82.4375 46.998621 
L 82.4375 78.281379 
L 83.1875 78.281379 
L 83.1875 46.998621 
L 82.4375 46.998621 
z
" clip-path="url(#p0671f1d51f)" style="fill: #1f77b4"/>
   </g>
   <g id="BrokenBarHCollection_40">
    <path d="M 83.4375 12.24 
L 83.4375 43.522759 
L 84.625 43.522759 
L 84.625 12.24 
L 83.4375 12.24 
z
" clip-path="url(#p0671f1d51f)" style="fill: #1f77b4"/>
   </g>
   <g id="BrokenBarHCollection_41">
    <path d="M 83.4375 46.998621 
L 83.4375 78.281379 
L 84.625 78.281379 
L 84.625 46.998621 
L 83.4375 46.998621 
z
" clip-path="url(#p0671f1d51f)" style="fill: #1f77b4"/>
   </g>
   <g id="BrokenBarHCollection_42">
    <path d="M 83.4375 81.757241 
L 83.4375 113.04 
L 84.625 113.04 
L 84.625 81.757241 
L 83.4375 81.757241 
z
" clip-path="url(#p0671f1d51f)" style="fill: #1f77b4"/>
   </g>
   <g id="BrokenBarHCollection_43">
    <path d="M 84.625 12.24 
L 84.625 43.522759 
L 85.625 43.522759 
L 85.625 12.24 
L 84.625 12.24 
z
" clip-path="url(#p0671f1d51f)" style="fill: #1f77b4"/>
   </g>
   <g id="BrokenBarHCollection_44">
    <path d="M 84.625 46.998621 
L 84.625 78.281379 
L 85.625 78.281379 
L 85.625 46.998621 
L 84.625 46.998621 
z
" clip-path="url(#p0671f1d51f)" style="fill: #1f77b4"/>
   </g>
   <g id="BrokenBarHCollection_45">
    <path d="M 84.625 81.757241 
L 84.625 113.04 
L 85.625 113.04 
L 85.625 81.757241 
L 84.625 81.757241 
z
" clip-path="url(#p0671f1d51f)" style="fill: #1f77b4"/>
   </g>
   <g id="BrokenBarHCollection_46">
    <path d="M 85.625 12.24 
L 85.625 43.522759 
L 86.5625 43.522759 
L 86.5625 12.24 
L 85.625 12.24 
z
" clip-path="url(#p0671f1d51f)" style="fill: #1f77b4"/>
   </g>
   <g id="BrokenBarHCollection_47">
    <path d="M 85.625 46.998621 
L 85.625 78.281379 
L 86.5625 78.281379 
L 86.5625 46.998621 
L 85.625 46.998621 
z
" clip-path="url(#p0671f1d51f)" style="fill: #1f77b4"/>
   </g>
   <g id="BrokenBarHCollection_48">
    <path d="M 85.625 81.757241 
L 85.625 113.04 
L 86.5625 113.04 
L 86.5625 81.757241 
L 85.625 81.757241 
z
" clip-path="url(#p0671f1d51f)" style="fill: #1f77b4"/>
   </g>
   <g id="BrokenBarHCollection_49">
    <path d="M 87.8125 46.998621 
L 87.8125 78.281379 
L 93.5 78.281379 
L 93.5 46.998621 
L 87.8125 46.998621 
z
" clip-path="url(#p0671f1d51f)" style="fill: #1f77b4"/>
   </g>
   <g id="BrokenBarHCollection_50">
    <path d="M 87.8125 81.757241 
L 87.8125 113.04 
L 93.5 113.04 
L 93.5 81.757241 
L 87.8125 81.757241 
z
" clip-path="url(#p0671f1d51f)" style="fill: #1f77b4"/>
   </g>
   <g id="BrokenBarHCollection_51">
    <path d="M 87.8125 12.24 
L 87.8125 43.522759 
L 92.75 43.522759 
L 92.75 12.24 
L 87.8125 12.24 
z
" clip-path="url(#p0671f1d51f)" style="fill: #1f77b4"/>
   </g>
   <g id="BrokenBarHCollection_52">
    <path d="M 92.75 12.24 
L 92.75 43.522759 
L 95.75 43.522759 
L 95.75 12.24 
L 92.75 12.24 
z
" clip-path="url(#p0671f1d51f)" style="fill: #1f77b4"/>
   </g>
   <g id="BrokenBarHCollection_53">
    <path d="M 93.5 81.757241 
L 93.5 113.04 
L 96.1875 113.04 
L 96.1875 81.757241 
L 93.5 81.757241 
z
" clip-path="url(#p0671f1d51f)" style="fill: #1f77b4"/>
   </g>
   <g id="BrokenBarHCollection_54">
    <path d="M 93.5 46.998621 
L 93.5 78.281379 
L 96 78.281379 
L 96 46.998621 
L 93.5 46.998621 
z
" clip-path="url(#p0671f1d51f)" style="fill: #1f77b4"/>
   </g>
   <g id="BrokenBarHCollection_55">
    <path d="M 95.75 12.24 
L 95.75 43.522759 
L 98.125 43.522759 
L 98.125 12.24 
L 95.75 12.24 
z
" clip-path="url(#p0671f1d51f)" style="fill: #1f77b4"/>
   </g>
   <g id="BrokenBarHCollection_56">
    <path d="M 96 46.998621 
L 96 78.281379 
L 98.6875 78.281379 
L 98.6875 46.998621 
L 96 46.998621 
z
" clip-path="url(#p0671f1d51f)" style="fill: #1f77b4"/>
   </g>
   <g id="BrokenBarHCollection_57">
    <path d="M 96.1875 81.757241 
L 96.1875 113.04 
L 98.6875 113.04 
L 98.6875 81.757241 
L 96.1875 81.757241 
z
" clip-path="url(#p0671f1d51f)" style="fill: #1f77b4"/>
   </g>
   <g id="BrokenBarHCollection_58">
    <path d="M 98.125 12.24 
L 98.125 43.522759 
L 102.125 43.522759 
L 102.125 12.24 
L 98.125 12.24 
z
" clip-path="url(#p0671f1d51f)" style="fill: #1f77b4"/>
   </g>
   <g id="BrokenBarHCollection_59">
    <path d="M 98.6875 46.998621 
L 98.6875 78.281379 
L 102.375 78.281379 
L 102.375 46.998621 
L 98.6875 46.998621 
z
" clip-path="url(#p0671f1d51f)" style="fill: #1f77b4"/>
   </g>
   <g id="BrokenBarHCollection_60">
    <path d="M 98.6875 81.757241 
L 98.6875 113.04 
L 102.375 113.04 
L 102.375 81.757241 
L 98.6875 81.757241 
z
" clip-path="url(#p0671f1d51f)" style="fill: #1f77b4"/>
   </g>
   <g id="BrokenBarHCollection_61">
    <path d="M 102.125 12.24 
L 102.125 43.522759 
L 102.375 43.522759 
L 102.375 12.24 
L 102.125 12.24 
z
" clip-path="url(#p0671f1d51f)" style="fill: #1f77b4"/>
   </g>
   <g id="BrokenBarHCollection_62">
    <path d="M 102.375 12.24 
L 102.375 43.522759 
L 102.625 43.522759 
L 102.625 12.24 
L 102.375 12.24 
z
" clip-path="url(#p0671f1d51f)" style="fill: #1f77b4"/>
   </g>
   <g id="BrokenBarHCollection_63">
    <path d="M 102.375 46.998621 
L 102.375 78.281379 
L 102.625 78.281379 
L 102.625 46.998621 
L 102.375 46.998621 
z
" clip-path="url(#p0671f1d51f)" style="fill: #1f77b4"/>
   </g>
   <g id="BrokenBarHCollection_64">
    <path d="M 102.375 81.757241 
L 102.375 113.04 
L 102.625 113.04 
L 102.625 81.757241 
L 102.375 81.757241 
z
" clip-path="url(#p0671f1d51f)" style="fill: #1f77b4"/>
   </g>
   <g id="BrokenBarHCollection_65">
    <path d="M 102.625 81.757241 
L 102.625 113.04 
L 110 113.04 
L 110 81.757241 
L 102.625 81.757241 
z
" clip-path="url(#p0671f1d51f)" style="fill: #1f77b4"/>
   </g>
   <g id="BrokenBarHCollection_66">
    <path d="M 102.625 12.24 
L 102.625 43.522759 
L 102.8125 43.522759 
L 102.8125 12.24 
L 102.625 12.24 
z
" clip-path="url(#p0671f1d51f)" style="fill: #1f77b4"/>
   </g>
   <g id="BrokenBarHCollection_67">
    <path d="M 102.625 46.998621 
L 102.625 78.281379 
L 102.8125 78.281379 
L 102.8125 46.998621 
L 102.625 46.998621 
z
" clip-path="url(#p0671f1d51f)" style="fill: #1f77b4"/>
   </g>
   <g id="BrokenBarHCollection_68">
    <path d="M 102.625 46.998621 
L 102.625 78.281379 
L 102.625 78.281379 
L 102.625 46.998621 
L 102.625 46.998621 
z
" clip-path="url(#p0671f1d51f)" style="fill: #1f77b4"/>
   </g>
   <g id="BrokenBarHCollection_69">
    <path d="M 102.625 81.757241 
L 102.625 113.04 
L 102.625 113.04 
L 102.625 81.757241 
L 102.625 81.757241 
z
" clip-path="url(#p0671f1d51f)" style="fill: #1f77b4"/>
   </g>
   <g id="BrokenBarHCollection_70">
    <path d="M 102.625 81.757241 
L 102.625 113.04 
L 102.625 113.04 
L 102.625 81.757241 
L 102.625 81.757241 
z
" clip-path="url(#p0671f1d51f)" style="fill: #1f77b4"/>
   </g>
   <g id="BrokenBarHCollection_71">
    <path d="M 102.8125 46.998621 
L 102.8125 78.281379 
L 110 78.281379 
L 110 46.998621 
L 102.8125 46.998621 
z
" clip-path="url(#p0671f1d51f)" style="fill: #1f77b4"/>
   </g>
   <g id="BrokenBarHCollection_72">
    <path d="M 106.75 12.24 
L 106.75 43.522759 
L 109.4375 43.522759 
L 109.4375 12.24 
L 106.75 12.24 
z
" clip-path="url(#p0671f1d51f)" style="fill: #1f77b4"/>
   </g>
   <g id="BrokenBarHCollection_73">
    <path d="M 109.75 12.24 
L 109.75 43.522759 
L 111.1875 43.522759 
L 111.1875 12.24 
L 109.75 12.24 
z
" clip-path="url(#p0671f1d51f)" style="fill: #1f77b4"/>
   </g>
   <g id="BrokenBarHCollection_74">
    <path d="M 110 81.757241 
L 110 113.04 
L 111.6875 113.04 
L 111.6875 81.757241 
L 110 81.757241 
z
" clip-path="url(#p0671f1d51f)" style="fill: #1f77b4"/>
   </g>
   <g id="BrokenBarHCollection_75">
    <path d="M 110 46.998621 
L 110 78.281379 
L 111.4375 78.281379 
L 111.4375 46.998621 
L 110 46.998621 
z
" clip-path="url(#p0671f1d51f)" style="fill: #1f77b4"/>
   </g>
   <g id="BrokenBarHCollection_76">
    <path d="M 111.4375 12.24 
L 111.4375 43.522759 
L 113.375 43.522759 
L 113.375 12.24 
L 111.4375 12.24 
z
" clip-path="url(#p0671f1d51f)" style="fill: #1f77b4"/>
   </g>
   <g id="BrokenBarHCollection_77">
    <path d="M 111.6875 81.757241 
L 111.6875 113.04 
L 113.375 113.04 
L 113.375 81.757241 
L 111.6875 81.757241 
z
" clip-path="url(#p0671f1d51f)" style="fill: #1f77b4"/>
   </g>
   <g id="BrokenBarHCollection_78">
    <path d="M 111.6875 46.998621 
L 111.6875 78.281379 
L 113.125 78.281379 
L 113.125 46.998621 
L 111.6875 46.998621 
z
" clip-path="url(#p0671f1d51f)" style="fill: #1f77b4"/>
   </g>
   <g id="BrokenBarHCollection_79">
    <path d="M 128.9375 81.757241 
L 128.9375 113.04 
L 163.3125 113.04 
L 163.3125 81.757241 
L 128.9375 81.757241 
z
" clip-path="url(#p0671f1d51f)" style="fill: #1f77b4"/>
   </g>
   <g id="BrokenBarHCollection_80">
    <path d="M 160.375 12.24 
L 160.375 43.522759 
L 220.125 43.522759 
L 220.125 12.24 
L 160.375 12.24 
z
" clip-path="url(#p0671f1d51f)" style="fill: #1f77b4"/>
   </g>
   <g id="BrokenBarHCollection_81">
    <path d="M 163.5625 81.757241 
L 163.5625 113.04 
L 221.125 113.04 
L 221.125 81.757241 
L 163.5625 81.757241 
z
" clip-path="url(#p0671f1d51f)" style="fill: #1f77b4"/>
   </g>
   <g id="BrokenBarHCollection_82">
    <path d="M 217.125 46.998621 
L 217.125 78.281379 
L 219.9375 78.281379 
L 219.9375 46.998621 
L 217.125 46.998621 
z
" clip-path="url(#p0671f1d51f)" style="fill: #1f77b4"/>
   </g>
   <g id="BrokenBarHCollection_83">
    <path d="M 219.9375 46.998621 
L 219.9375 78.281379 
L 221.375 78.281379 
L 221.375 46.998621 
L 219.9375 46.998621 
z
" clip-path="url(#p0671f1d51f)" style="fill: #1f77b4"/>
   </g>
   <g id="BrokenBarHCollection_84">
    <path d="M 220.125 12.24 
L 220.125 43.522759 
L 221.625 43.522759 
L 221.625 12.24 
L 220.125 12.24 
z
" clip-path="url(#p0671f1d51f)" style="fill: #1f77b4"/>
   </g>
   <g id="BrokenBarHCollection_85">
    <path d="M 221.125 81.757241 
L 221.125 113.04 
L 224.8125 113.04 
L 224.8125 81.757241 
L 221.125 81.757241 
z
" clip-path="url(#p0671f1d51f)" style="fill: #1f77b4"/>
   </g>
   <g id="BrokenBarHCollection_86">
    <path d="M 221.375 46.998621 
L 221.375 78.281379 
L 224.3125 78.281379 
L 224.3125 46.998621 
L 221.375 46.998621 
z
" clip-path="url(#p0671f1d51f)" style="fill: #1f77b4"/>
   </g>
   <g id="BrokenBarHCollection_87">
    <path d="M 221.625 12.24 
L 221.625 43.522759 
L 224.8125 43.522759 
L 224.8125 12.24 
L 221.625 12.24 
z
" clip-path="url(#p0671f1d51f)" style="fill: #1f77b4"/>
   </g>
   <g id="BrokenBarHCollection_88">
    <path d="M 224.3125 46.998621 
L 224.3125 78.281379 
L 226.5625 78.281379 
L 226.5625 46.998621 
L 224.3125 46.998621 
z
" clip-path="url(#p0671f1d51f)" style="fill: #1f77b4"/>
   </g>
   <g id="BrokenBarHCollection_89">
    <path d="M 224.8125 12.24 
L 224.8125 43.522759 
L 226.75 43.522759 
L 226.75 12.24 
L 224.8125 12.24 
z
" clip-path="url(#p0671f1d51f)" style="fill: #1f77b4"/>
   </g>
   <g id="BrokenBarHCollection_90">
    <path d="M 224.8125 81.757241 
L 224.8125 113.04 
L 226.75 113.04 
L 226.75 81.757241 
L 224.8125 81.757241 
z
" clip-path="url(#p0671f1d51f)" style="fill: #1f77b4"/>
   </g>
   <g id="BrokenBarHCollection_91">
    <path d="M 227.5625 46.998621 
L 227.5625 78.281379 
L 227.75 78.281379 
L 227.75 46.998621 
L 227.5625 46.998621 
z
" clip-path="url(#p0671f1d51f)" style="fill: #1f77b4"/>
   </g>
   <g id="BrokenBarHCollection_92">
    <path d="M 227.75 12.24 
L 227.75 43.522759 
L 229.25 43.522759 
L 229.25 12.24 
L 227.75 12.24 
z
" clip-path="url(#p0671f1d51f)" style="fill: #1f77b4"/>
   </g>
   <g id="BrokenBarHCollection_93">
    <path d="M 227.75 46.998621 
L 227.75 78.281379 
L 229.25 78.281379 
L 229.25 46.998621 
L 227.75 46.998621 
z
" clip-path="url(#p0671f1d51f)" style="fill: #1f77b4"/>
   </g>
   <g id="BrokenBarHCollection_94">
    <path d="M 227.75 81.757241 
L 227.75 113.04 
L 229.25 113.04 
L 229.25 81.757241 
L 227.75 81.757241 
z
" clip-path="url(#p0671f1d51f)" style="fill: #1f77b4"/>
   </g>
   <g id="BrokenBarHCollection_95">
    <path d="M 227.75 12.24 
L 227.75 43.522759 
L 227.75 43.522759 
L 227.75 12.24 
L 227.75 12.24 
z
" clip-path="url(#p0671f1d51f)" style="fill: #1f77b4"/>
   </g>
   <g id="BrokenBarHCollection_96">
    <path d="M 227.75 81.757241 
L 227.75 113.04 
L 227.75 113.04 
L 227.75 81.757241 
L 227.75 81.757241 
z
" clip-path="url(#p0671f1d51f)" style="fill: #1f77b4"/>
   </g>
   <g id="BrokenBarHCollection_97">
    <path d="M 229.25 81.757241 
L 229.25 113.04 
L 230.9375 113.04 
L 230.9375 81.757241 
L 229.25 81.757241 
z
" clip-path="url(#p0671f1d51f)" style="fill: #1f77b4"/>
   </g>
   <g id="BrokenBarHCollection_98">
    <path d="M 229.25 46.998621 
L 229.25 78.281379 
L 230.6875 78.281379 
L 230.6875 46.998621 
L 229.25 46.998621 
z
" clip-path="url(#p0671f1d51f)" style="fill: #1f77b4"/>
   </g>
   <g id="BrokenBarHCollection_99">
    <path d="M 230 12.24 
L 230 43.522759 
L 230.9375 43.522759 
L 230.9375 12.24 
L 230 12.24 
z
" clip-path="url(#p0671f1d51f)" style="fill: #1f77b4"/>
   </g>
   <g id="BrokenBarHCollection_100">
    <path d="M 230.9375 12.24 
L 230.9375 43.522759 
L 231.6875 43.522759 
L 231.6875 12.24 
L 230.9375 12.24 
z
" clip-path="url(#p0671f1d51f)" style="fill: #1f77b4"/>
   </g>
   <g id="BrokenBarHCollection_101">
    <path d="M 230.9375 46.998621 
L 230.9375 78.281379 
L 231.6875 78.281379 
L 231.6875 46.998621 
L 230.9375 46.998621 
z
" clip-path="url(#p0671f1d51f)" style="fill: #1f77b4"/>
   </g>
   <g id="BrokenBarHCollection_102">
    <path d="M 230.9375 81.757241 
L 230.9375 113.04 
L 231.6875 113.04 
L 231.6875 81.757241 
L 230.9375 81.757241 
z
" clip-path="url(#p0671f1d51f)" style="fill: #1f77b4"/>
   </g>
   <g id="BrokenBarHCollection_103">
    <path d="M 231.6875 81.757241 
L 231.6875 113.04 
L 232.4375 113.04 
L 232.4375 81.757241 
L 231.6875 81.757241 
z
" clip-path="url(#p0671f1d51f)" style="fill: #1f77b4"/>
   </g>
   <g id="BrokenBarHCollection_104">
    <path d="M 231.6875 12.24 
L 231.6875 43.522759 
L 232.1875 43.522759 
L 232.1875 12.24 
L 231.6875 12.24 
z
" clip-path="url(#p0671f1d51f)" style="fill: #1f77b4"/>
   </g>
   <g id="BrokenBarHCollection_105">
    <path d="M 231.6875 46.998621 
L 231.6875 78.281379 
L 232.1875 78.281379 
L 232.1875 46.998621 
L 231.6875 46.998621 
z
" clip-path="url(#p0671f1d51f)" style="fill: #1f77b4"/>
   </g>
   <g id="BrokenBarHCollection_106">
    <path d="M 232.4375 46.998621 
L 232.4375 78.281379 
L 233.375 78.281379 
L 233.375 46.998621 
L 232.4375 46.998621 
z
" clip-path="url(#p0671f1d51f)" style="fill: #1f77b4"/>
   </g>
   <g id="BrokenBarHCollection_107">
    <path d="M 232.4375 12.24 
L 232.4375 43.522759 
L 232.9375 43.522759 
L 232.9375 12.24 
L 232.4375 12.24 
z
" clip-path="url(#p0671f1d51f)" style="fill: #1f77b4"/>
   </g>
   <g id="BrokenBarHCollection_108">
    <path d="M 232.4375 81.757241 
L 232.4375 113.04 
L 232.9375 113.04 
L 232.9375 81.757241 
L 232.4375 81.757241 
z
" clip-path="url(#p0671f1d51f)" style="fill: #1f77b4"/>
   </g>
   <g id="BrokenBarHCollection_109">
    <path d="M 233.9375 12.24 
L 233.9375 43.522759 
L 236.0625 43.522759 
L 236.0625 12.24 
L 233.9375 12.24 
z
" clip-path="url(#p0671f1d51f)" style="fill: #1f77b4"/>
   </g>
   <g id="BrokenBarHCollection_110">
    <path d="M 233.9375 81.757241 
L 233.9375 113.04 
L 236.0625 113.04 
L 236.0625 81.757241 
L 233.9375 81.757241 
z
" clip-path="url(#p0671f1d51f)" style="fill: #1f77b4"/>
   </g>
   <g id="BrokenBarHCollection_111">
    <path d="M 234.375 46.998621 
L 234.375 78.281379 
L 236.0625 78.281379 
L 236.0625 46.998621 
L 234.375 46.998621 
z
" clip-path="url(#p0671f1d51f)" style="fill: #1f77b4"/>
   </g>
   <g id="BrokenBarHCollection_112">
    <path d="M 236.0625 46.998621 
L 236.0625 78.281379 
L 239.3125 78.281379 
L 239.3125 46.998621 
L 236.0625 46.998621 
z
" clip-path="url(#p0671f1d51f)" style="fill: #1f77b4"/>
   </g>
   <g id="BrokenBarHCollection_113">
    <path d="M 236.0625 81.757241 
L 236.0625 113.04 
L 239.3125 113.04 
L 239.3125 81.757241 
L 236.0625 81.757241 
z
" clip-path="url(#p0671f1d51f)" style="fill: #1f77b4"/>
   </g>
   <g id="BrokenBarHCollection_114">
    <path d="M 236.0625 12.24 
L 236.0625 43.522759 
L 238.5625 43.522759 
L 238.5625 12.24 
L 236.0625 12.24 
z
" clip-path="url(#p0671f1d51f)" style="fill: #1f77b4"/>
   </g>
   <g id="BrokenBarHCollection_115">
    <path d="M 238.5625 12.24 
L 238.5625 43.522759 
L 240.8125 43.522759 
L 240.8125 12.24 
L 238.5625 12.24 
z
" clip-path="url(#p0671f1d51f)" style="fill: #1f77b4"/>
   </g>
   <g id="BrokenBarHCollection_116">
    <path d="M 239.3125 46.998621 
L 239.3125 78.281379 
L 241 78.281379 
L 241 46.998621 
L 239.3125 46.998621 
z
" clip-path="url(#p0671f1d51f)" style="fill: #1f77b4"/>
   </g>
   <g id="BrokenBarHCollection_117">
    <path d="M 239.3125 81.757241 
L 239.3125 113.04 
L 241 113.04 
L 241 81.757241 
L 239.3125 81.757241 
z
" clip-path="url(#p0671f1d51f)" style="fill: #1f77b4"/>
   </g>
   <g id="BrokenBarHCollection_118">
    <path d="M 241 12.24 
L 241 43.522759 
L 242.5 43.522759 
L 242.5 12.24 
L 241 12.24 
z
" clip-path="url(#p0671f1d51f)" style="fill: #1f77b4"/>
   </g>
   <g id="BrokenBarHCollection_119">
    <path d="M 241 46.998621 
L 241 78.281379 
L 242.5 78.281379 
L 242.5 46.998621 
L 241 46.998621 
z
" clip-path="url(#p0671f1d51f)" style="fill: #1f77b4"/>
   </g>
   <g id="BrokenBarHCollection_120">
    <path d="M 241 81.757241 
L 241 113.04 
L 242.5 113.04 
L 242.5 81.757241 
L 241 81.757241 
z
" clip-path="url(#p0671f1d51f)" style="fill: #1f77b4"/>
   </g>
   <g id="BrokenBarHCollection_121">
    <path d="M 242.5 12.24 
L 242.5 43.522759 
L 242.75 43.522759 
L 242.75 12.24 
L 242.5 12.24 
z
" clip-path="url(#p0671f1d51f)" style="fill: #1f77b4"/>
   </g>
   <g id="BrokenBarHCollection_122">
    <path d="M 242.5 46.998621 
L 242.5 78.281379 
L 242.75 78.281379 
L 242.75 46.998621 
L 242.5 46.998621 
z
" clip-path="url(#p0671f1d51f)" style="fill: #1f77b4"/>
   </g>
   <g id="BrokenBarHCollection_123">
    <path d="M 242.5 81.757241 
L 242.5 113.04 
L 242.75 113.04 
L 242.75 81.757241 
L 242.5 81.757241 
z
" clip-path="url(#p0671f1d51f)" style="fill: #1f77b4"/>
   </g>
   <g id="BrokenBarHCollection_124">
    <path d="M 242.75 46.998621 
L 242.75 78.281379 
L 243 78.281379 
L 243 46.998621 
L 242.75 46.998621 
z
" clip-path="url(#p0671f1d51f)" style="fill: #1f77b4"/>
   </g>
   <g id="BrokenBarHCollection_125">
    <path d="M 242.75 81.757241 
L 242.75 113.04 
L 243 113.04 
L 243 81.757241 
L 242.75 81.757241 
z
" clip-path="url(#p0671f1d51f)" style="fill: #1f77b4"/>
   </g>
   <g id="BrokenBarHCollection_126">
    <path d="M 242.75 12.24 
L 242.75 43.522759 
L 242.75 43.522759 
L 242.75 12.24 
L 242.75 12.24 
z
" clip-path="url(#p0671f1d51f)" style="fill: #1f77b4"/>
   </g>
   <g id="BrokenBarHCollection_127">
    <path d="M 242.75 46.998621 
L 242.75 78.281379 
L 242.75 78.281379 
L 242.75 46.998621 
L 242.75 46.998621 
z
" clip-path="url(#p0671f1d51f)" style="fill: #1f77b4"/>
   </g>
   <g id="BrokenBarHCollection_128">
    <path d="M 242.75 81.757241 
L 242.75 113.04 
L 242.75 113.04 
L 242.75 81.757241 
L 242.75 81.757241 
z
" clip-path="url(#p0671f1d51f)" style="fill: #1f77b4"/>
   </g>
   <g id="BrokenBarHCollection_129">
    <path d="M 243 46.998621 
L 243 78.281379 
L 247.1875 78.281379 
L 247.1875 46.998621 
L 243 46.998621 
z
" clip-path="url(#p0671f1d51f)" style="fill: #1f77b4"/>
   </g>
   <g id="BrokenBarHCollection_130">
    <path d="M 243 81.757241 
L 243 113.04 
L 247.1875 113.04 
L 247.1875 81.757241 
L 243 81.757241 
z
" clip-path="url(#p0671f1d51f)" style="fill: #1f77b4"/>
   </g>
   <g id="BrokenBarHCollection_131">
    <path d="M 243 12.24 
L 243 43.522759 
L 243 43.522759 
L 243 12.24 
L 243 12.24 
z
" clip-path="url(#p0671f1d51f)" style="fill: #1f77b4"/>
   </g>
   <g id="BrokenBarHCollection_132">
    <path d="M 245.5 12.24 
L 245.5 43.522759 
L 246.9375 43.522759 
L 246.9375 12.24 
L 245.5 12.24 
z
" clip-path="url(#p0671f1d51f)" style="fill: #1f77b4"/>
   </g>
   <g id="BrokenBarHCollection_133">
    <path d="M 246.9375 12.24 
L 246.9375 43.522759 
L 248.1875 43.522759 
L 248.1875 12.24 
L 246.9375 12.24 
z
" clip-path="url(#p0671f1d51f)" style="fill: #1f77b4"/>
   </g>
   <g id="BrokenBarHCollection_134">
    <path d="M 247.1875 46.998621 
L 247.1875 78.281379 
L 248.375 78.281379 
L 248.375 46.998621 
L 247.1875 46.998621 
z
" clip-path="url(#p0671f1d51f)" style="fill: #1f77b4"/>
   </g>
   <g id="BrokenBarHCollection_135">
    <path d="M 247.1875 81.757241 
L 247.1875 113.04 
L 248.375 113.04 
L 248.375 81.757241 
L 247.1875 81.757241 
z
" clip-path="url(#p0671f1d51f)" style="fill: #1f77b4"/>
   </g>
   <g id="BrokenBarHCollection_136">
    <path d="M 248.1875 12.24 
L 248.1875 43.522759 
L 249.375 43.522759 
L 249.375 12.24 
L 248.1875 12.24 
z
" clip-path="url(#p0671f1d51f)" style="fill: #1f77b4"/>
   </g>
   <g id="BrokenBarHCollection_137">
    <path d="M 248.375 46.998621 
L 248.375 78.281379 
L 249.375 78.281379 
L 249.375 46.998621 
L 248.375 46.998621 
z
" clip-path="url(#p0671f1d51f)" style="fill: #1f77b4"/>
   </g>
   <g id="BrokenBarHCollection_138">
    <path d="M 248.375 81.757241 
L 248.375 113.04 
L 249.375 113.04 
L 249.375 81.757241 
L 248.375 81.757241 
z
" clip-path="url(#p0671f1d51f)" style="fill: #1f77b4"/>
   </g>
   <g id="BrokenBarHCollection_139">
    <path d="M 267.875 81.757241 
L 267.875 113.04 
L 293.1875 113.04 
L 293.1875 81.757241 
L 267.875 81.757241 
z
" clip-path="url(#p0671f1d51f)" style="fill: #1f77b4"/>
   </g>
   <g id="BrokenBarHCollection_140">
    <path d="M 291.9375 12.24 
L 291.9375 43.522759 
L 348 43.522759 
L 348 12.24 
L 291.9375 12.24 
z
" clip-path="url(#p0671f1d51f)" style="fill: #1f77b4"/>
   </g>
   <g id="BrokenBarHCollection_141">
    <path d="M 293.1875 81.757241 
L 293.1875 113.04 
L 349 113.04 
L 349 81.757241 
L 293.1875 81.757241 
z
" clip-path="url(#p0671f1d51f)" style="fill: #1f77b4"/>
   </g>
   <g id="BrokenBarHCollection_142">
    <path d="M 346.8125 46.998621 
L 346.8125 78.281379 
L 348 78.281379 
L 348 46.998621 
L 346.8125 46.998621 
z
" clip-path="url(#p0671f1d51f)" style="fill: #1f77b4"/>
   </g>
   <g id="BrokenBarHCollection_143">
    <path d="M 348 12.24 
L 348 43.522759 
L 349.25 43.522759 
L 349.25 12.24 
L 348 12.24 
z
" clip-path="url(#p0671f1d51f)" style="fill: #1f77b4"/>
   </g>
   <g id="BrokenBarHCollection_144">
    <path d="M 348 46.998621 
L 348 78.281379 
L 349.25 78.281379 
L 349.25 46.998621 
L 348 46.998621 
z
" clip-path="url(#p0671f1d51f)" style="fill: #1f77b4"/>
   </g>
   <g id="BrokenBarHCollection_145">
    <path d="M 349 81.757241 
L 349 113.04 
L 351.6875 113.04 
L 351.6875 81.757241 
L 349 81.757241 
z
" clip-path="url(#p0671f1d51f)" style="fill: #1f77b4"/>
   </g>
   <g id="BrokenBarHCollection_146">
    <path d="M 349.25 12.24 
L 349.25 43.522759 
L 351.6875 43.522759 
L 351.6875 12.24 
L 349.25 12.24 
z
" clip-path="url(#p0671f1d51f)" style="fill: #1f77b4"/>
   </g>
   <g id="BrokenBarHCollection_147">
    <path d="M 349.25 46.998621 
L 349.25 78.281379 
L 351.5 78.281379 
L 351.5 46.998621 
L 349.25 46.998621 
z
" clip-path="url(#p0671f1d51f)" style="fill: #1f77b4"/>
   </g>
   <g id="BrokenBarHCollection_148">
    <path d="M 351.5 46.998621 
L 351.5 78.281379 
L 353.1875 78.281379 
L 353.1875 46.998621 
L 351.5 46.998621 
z
" clip-path="url(#p0671f1d51f)" style="fill: #1f77b4"/>
   </g>
   <g id="BrokenBarHCollection_149">
    <path d="M 351.6875 12.24 
L 351.6875 43.522759 
L 353.4375 43.522759 
L 353.4375 12.24 
L 351.6875 12.24 
z
" clip-path="url(#p0671f1d51f)" style="fill: #1f77b4"/>
   </g>
   <g id="BrokenBarHCollection_150">
    <path d="M 351.6875 81.757241 
L 351.6875 113.04 
L 353.4375 113.04 
L 353.4375 81.757241 
L 351.6875 81.757241 
z
" clip-path="url(#p0671f1d51f)" style="fill: #1f77b4"/>
   </g>
   <g id="BrokenBarHCollection_151">
    <path d="M 353.625 46.998621 
L 353.625 78.281379 
L 354.625 78.281379 
L 354.625 46.998621 
L 353.625 46.998621 
z
" clip-path="url(#p0671f1d51f)" style="fill: #1f77b4"/>
   </g>
   <g id="BrokenBarHCollection_152">
    <path d="M 353.9375 12.24 
L 353.9375 43.522759 
L 354.625 43.522759 
L 354.625 12.24 
L 353.9375 12.24 
z
" clip-path="url(#p0671f1d51f)" style="fill: #1f77b4"/>
   </g>
   <g id="BrokenBarHCollection_153">
    <path d="M 353.9375 81.757241 
L 353.9375 113.04 
L 354.625 113.04 
L 354.625 81.757241 
L 353.9375 81.757241 
z
" clip-path="url(#p0671f1d51f)" style="fill: #1f77b4"/>
   </g>
   <g id="BrokenBarHCollection_154">
    <path d="M 354.625 12.24 
L 354.625 43.522759 
L 355.375 43.522759 
L 355.375 12.24 
L 354.625 12.24 
z
" clip-path="url(#p0671f1d51f)" style="fill: #1f77b4"/>
   </g>
   <g id="BrokenBarHCollection_155">
    <path d="M 354.625 46.998621 
L 354.625 78.281379 
L 355.375 78.281379 
L 355.375 46.998621 
L 354.625 46.998621 
z
" clip-path="url(#p0671f1d51f)" style="fill: #1f77b4"/>
   </g>
   <g id="BrokenBarHCollection_156">
    <path d="M 354.625 81.757241 
L 354.625 113.04 
L 355.375 113.04 
L 355.375 81.757241 
L 354.625 81.757241 
z
" clip-path="url(#p0671f1d51f)" style="fill: #1f77b4"/>
   </g>
   <g id="BrokenBarHCollection_157">
    <path d="M 355.375 12.24 
L 355.375 43.522759 
L 356.125 43.522759 
L 356.125 12.24 
L 355.375 12.24 
z
" clip-path="url(#p0671f1d51f)" style="fill: #1f77b4"/>
   </g>
   <g id="BrokenBarHCollection_158">
    <path d="M 355.375 46.998621 
L 355.375 78.281379 
L 355.875 78.281379 
L 355.875 46.998621 
L 355.375 46.998621 
z
" clip-path="url(#p0671f1d51f)" style="fill: #1f77b4"/>
   </g>
   <g id="BrokenBarHCollection_159">
    <path d="M 355.375 81.757241 
L 355.375 113.04 
L 355.875 113.04 
L 355.875 81.757241 
L 355.375 81.757241 
z
" clip-path="url(#p0671f1d51f)" style="fill: #1f77b4"/>
   </g>
   <g id="BrokenBarHCollection_160">
    <path d="M 355.875 46.998621 
L 355.875 78.281379 
L 356.3125 78.281379 
L 356.3125 46.998621 
L 355.875 46.998621 
z
" clip-path="url(#p0671f1d51f)" style="fill: #1f77b4"/>
   </g>
   <g id="BrokenBarHCollection_161">
    <path d="M 355.875 81.757241 
L 355.875 113.04 
L 356.3125 113.04 
L 356.3125 81.757241 
L 355.875 81.757241 
z
" clip-path="url(#p0671f1d51f)" style="fill: #1f77b4"/>
   </g>
   <g id="BrokenBarHCollection_162">
    <path d="M 356.125 12.24 
L 356.125 43.522759 
L 356.3125 43.522759 
L 356.3125 12.24 
L 356.125 12.24 
z
" clip-path="url(#p0671f1d51f)" style="fill: #1f77b4"/>
   </g>
   <g id="BrokenBarHCollection_163">
    <path d="M 357.3125 46.998621 
L 357.3125 78.281379 
L 359.125 78.281379 
L 359.125 46.998621 
L 357.3125 46.998621 
z
" clip-path="url(#p0671f1d51f)" style="fill: #1f77b4"/>
   </g>
   <g id="BrokenBarHCollection_164">
    <path d="M 357.3125 81.757241 
L 357.3125 113.04 
L 359.125 113.04 
L 359.125 81.757241 
L 357.3125 81.757241 
z
" clip-path="url(#p0671f1d51f)" style="fill: #1f77b4"/>
   </g>
   <g id="BrokenBarHCollection_165">
    <path d="M 357.3125 12.24 
L 357.3125 43.522759 
L 358.8125 43.522759 
L 358.8125 12.24 
L 357.3125 12.24 
z
" clip-path="url(#p0671f1d51f)" style="fill: #1f77b4"/>
   </g>
   <g id="BrokenBarHCollection_166">
    <path d="M 358.8125 12.24 
L 358.8125 43.522759 
L 361.25 43.522759 
L 361.25 12.24 
L 358.8125 12.24 
z
" clip-path="url(#p0671f1d51f)" style="fill: #1f77b4"/>
   </g>
   <g id="BrokenBarHCollection_167">
    <path d="M 359.125 46.998621 
L 359.125 78.281379 
L 361.8125 78.281379 
L 361.8125 46.998621 
L 359.125 46.998621 
z
" clip-path="url(#p0671f1d51f)" style="fill: #1f77b4"/>
   </g>
   <g id="BrokenBarHCollection_168">
    <path d="M 359.125 81.757241 
L 359.125 113.04 
L 361.5625 113.04 
L 361.5625 81.757241 
L 359.125 81.757241 
z
" clip-path="url(#p0671f1d51f)" style="fill: #1f77b4"/>
   </g>
   <g id="BrokenBarHCollection_169">
    <path d="M 361.25 12.24 
L 361.25 43.522759 
L 363 43.522759 
L 363 12.24 
L 361.25 12.24 
z
" clip-path="url(#p0671f1d51f)" style="fill: #1f77b4"/>
   </g>
   <g id="BrokenBarHCollection_170">
    <path d="M 361.5625 81.757241 
L 361.5625 113.04 
L 363.25 113.04 
L 363.25 81.757241 
L 361.5625 81.757241 
z
" clip-path="url(#p0671f1d51f)" style="fill: #1f77b4"/>
   </g>
   <g id="BrokenBarHCollection_171">
    <path d="M 361.8125 46.998621 
L 361.8125 78.281379 
L 363.25 78.281379 
L 363.25 46.998621 
L 361.8125 46.998621 
z
" clip-path="url(#p0671f1d51f)" style="fill: #1f77b4"/>
   </g>
   <g id="BrokenBarHCollection_172">
    <path d="M 363.25 12.24 
L 363.25 43.522759 
L 364.75 43.522759 
L 364.75 12.24 
L 363.25 12.24 
z
" clip-path="url(#p0671f1d51f)" style="fill: #1f77b4"/>
   </g>
   <g id="BrokenBarHCollection_173">
    <path d="M 363.25 46.998621 
L 363.25 78.281379 
L 364.75 78.281379 
L 364.75 46.998621 
L 363.25 46.998621 
z
" clip-path="url(#p0671f1d51f)" style="fill: #1f77b4"/>
   </g>
   <g id="BrokenBarHCollection_174">
    <path d="M 363.25 81.757241 
L 363.25 113.04 
L 364.75 113.04 
L 364.75 81.757241 
L 363.25 81.757241 
z
" clip-path="url(#p0671f1d51f)" style="fill: #1f77b4"/>
   </g>
   <g id="BrokenBarHCollection_175">
    <path d="M 364.75 12.24 
L 364.75 43.522759 
L 364.9375 43.522759 
L 364.9375 12.24 
L 364.75 12.24 
z
" clip-path="url(#p0671f1d51f)" style="fill: #1f77b4"/>
   </g>
   <g id="BrokenBarHCollection_176">
    <path d="M 364.75 81.757241 
L 364.75 113.04 
L 364.9375 113.04 
L 364.9375 81.757241 
L 364.75 81.757241 
z
" clip-path="url(#p0671f1d51f)" style="fill: #1f77b4"/>
   </g>
   <g id="BrokenBarHCollection_177">
    <path d="M 364.75 46.998621 
L 364.75 78.281379 
L 364.75 78.281379 
L 364.75 46.998621 
L 364.75 46.998621 
z
" clip-path="url(#p0671f1d51f)" style="fill: #1f77b4"/>
   </g>
   <g id="BrokenBarHCollection_178">
    <path d="M 364.9375 46.998621 
L 364.9375 78.281379 
L 368.875 78.281379 
L 368.875 46.998621 
L 364.9375 46.998621 
z
" clip-path="url(#p0671f1d51f)" style="fill: #1f77b4"/>
   </g>
   <g id="BrokenBarHCollection_179">
    <path d="M 364.9375 12.24 
L 364.9375 43.522759 
L 365.1875 43.522759 
L 365.1875 12.24 
L 364.9375 12.24 
z
" clip-path="url(#p0671f1d51f)" style="fill: #1f77b4"/>
   </g>
   <g id="BrokenBarHCollection_180">
    <path d="M 364.9375 12.24 
L 364.9375 43.522759 
L 364.9375 43.522759 
L 364.9375 12.24 
L 364.9375 12.24 
z
" clip-path="url(#p0671f1d51f)" style="fill: #1f77b4"/>
   </g>
   <g id="BrokenBarHCollection_181">
    <path d="M 364.9375 46.998621 
L 364.9375 78.281379 
L 364.9375 78.281379 
L 364.9375 46.998621 
L 364.9375 46.998621 
z
" clip-path="url(#p0671f1d51f)" style="fill: #1f77b4"/>
   </g>
   <g id="BrokenBarHCollection_182">
    <path d="M 364.9375 46.998621 
L 364.9375 78.281379 
L 364.9375 78.281379 
L 364.9375 46.998621 
L 364.9375 46.998621 
z
" clip-path="url(#p0671f1d51f)" style="fill: #1f77b4"/>
   </g>
   <g id="BrokenBarHCollection_183">
    <path d="M 364.9375 81.757241 
L 364.9375 113.04 
L 364.9375 113.04 
L 364.9375 81.757241 
L 364.9375 81.757241 
z
" clip-path="url(#p0671f1d51f)" style="fill: #1f77b4"/>
   </g>
   <g id="BrokenBarHCollection_184">
    <path d="M 364.9375 81.757241 
L 364.9375 113.04 
L 364.9375 113.04 
L 364.9375 81.757241 
L 364.9375 81.757241 
z
" clip-path="url(#p0671f1d51f)" style="fill: #1f77b4"/>
   </g>
   <g id="BrokenBarHCollection_185">
    <path d="M 365.1875 81.757241 
L 365.1875 113.04 
L 369.1875 113.04 
L 369.1875 81.757241 
L 365.1875 81.757241 
z
" clip-path="url(#p0671f1d51f)" style="fill: #1f77b4"/>
   </g>
   <g id="BrokenBarHCollection_186">
    <path d="M 367.4375 12.24 
L 367.4375 43.522759 
L 368.875 43.522759 
L 368.875 12.24 
L 367.4375 12.24 
z
" clip-path="url(#p0671f1d51f)" style="fill: #1f77b4"/>
   </g>
   <g id="BrokenBarHCollection_187">
    <path d="M 368.875 12.24 
L 368.875 43.522759 
L 370.125 43.522759 
L 370.125 12.24 
L 368.875 12.24 
z
" clip-path="url(#p0671f1d51f)" style="fill: #1f77b4"/>
   </g>
   <g id="BrokenBarHCollection_188">
    <path d="M 369.1875 46.998621 
L 369.1875 78.281379 
L 370.4375 78.281379 
L 370.4375 46.998621 
L 369.1875 46.998621 
z
" clip-path="url(#p0671f1d51f)" style="fill: #1f77b4"/>
   </g>
   <g id="BrokenBarHCollection_189">
    <path d="M 369.1875 81.757241 
L 369.1875 113.04 
L 370.4375 113.04 
L 370.4375 81.757241 
L 369.1875 81.757241 
z
" clip-path="url(#p0671f1d51f)" style="fill: #1f77b4"/>
   </g>
   <g id="BrokenBarHCollection_190">
    <path d="M 370.125 12.24 
L 370.125 43.522759 
L 371.375 43.522759 
L 371.375 12.24 
L 370.125 12.24 
z
" clip-path="url(#p0671f1d51f)" style="fill: #1f77b4"/>
   </g>
   <g id="BrokenBarHCollection_191">
    <path d="M 370.4375 46.998621 
L 370.4375 78.281379 
L 371.375 78.281379 
L 371.375 46.998621 
L 370.4375 46.998621 
z
" clip-path="url(#p0671f1d51f)" style="fill: #1f77b4"/>
   </g>
   <g id="BrokenBarHCollection_192">
    <path d="M 370.4375 81.757241 
L 370.4375 113.04 
L 371.375 113.04 
L 371.375 81.757241 
L 370.4375 81.757241 
z
" clip-path="url(#p0671f1d51f)" style="fill: #1f77b4"/>
   </g>
   <g id="BrokenBarHCollection_193">
    <path d="M 383.4375 81.757241 
L 383.4375 113.04 
L 411.6875 113.04 
L 411.6875 81.757241 
L 383.4375 81.757241 
z
" clip-path="url(#p0671f1d51f)" style="fill: #1f77b4"/>
   </g>
   <g id="BrokenBarHCollection_194">
    <path d="M 410.6875 12.24 
L 410.6875 43.522759 
L 465.0625 43.522759 
L 465.0625 12.24 
L 410.6875 12.24 
z
" clip-path="url(#p0671f1d51f)" style="fill: #1f77b4"/>
   </g>
   <g id="BrokenBarHCollection_195">
    <path d="M 411.6875 81.757241 
L 411.6875 113.04 
L 466.0625 113.04 
L 466.0625 81.757241 
L 411.6875 81.757241 
z
" clip-path="url(#p0671f1d51f)" style="fill: #1f77b4"/>
   </g>
   <g id="BrokenBarHCollection_196">
    <path d="M 464.125 46.998621 
L 464.125 78.281379 
L 465.0625 78.281379 
L 465.0625 46.998621 
L 464.125 46.998621 
z
" clip-path="url(#p0671f1d51f)" style="fill: #1f77b4"/>
   </g>
   <g id="BrokenBarHCollection_197">
    <path d="M 465.0625 12.24 
L 465.0625 43.522759 
L 466.25 43.522759 
L 466.25 12.24 
L 465.0625 12.24 
z
" clip-path="url(#p0671f1d51f)" style="fill: #1f77b4"/>
   </g>
   <g id="BrokenBarHCollection_198">
    <path d="M 465.0625 46.998621 
L 465.0625 78.281379 
L 466.25 78.281379 
L 466.25 46.998621 
L 465.0625 46.998621 
z
" clip-path="url(#p0671f1d51f)" style="fill: #1f77b4"/>
   </g>
   <g id="BrokenBarHCollection_199">
    <path d="M 466.0625 81.757241 
L 466.0625 113.04 
L 468.25 113.04 
L 468.25 81.757241 
L 466.0625 81.757241 
z
" clip-path="url(#p0671f1d51f)" style="fill: #1f77b4"/>
   </g>
   <g id="BrokenBarHCollection_200">
    <path d="M 466.25 12.24 
L 466.25 43.522759 
L 468.25 43.522759 
L 468.25 12.24 
L 466.25 12.24 
z
" clip-path="url(#p0671f1d51f)" style="fill: #1f77b4"/>
   </g>
   <g id="BrokenBarHCollection_201">
    <path d="M 466.25 46.998621 
L 466.25 78.281379 
L 468 78.281379 
L 468 46.998621 
L 466.25 46.998621 
z
" clip-path="url(#p0671f1d51f)" style="fill: #1f77b4"/>
   </g>
   <g id="BrokenBarHCollection_202">
    <path d="M 468 46.998621 
L 468 78.281379 
L 469.9375 78.281379 
L 469.9375 46.998621 
L 468 46.998621 
z
" clip-path="url(#p0671f1d51f)" style="fill: #1f77b4"/>
   </g>
   <g id="BrokenBarHCollection_203">
    <path d="M 468.25 12.24 
L 468.25 43.522759 
L 469.9375 43.522759 
L 469.9375 12.24 
L 468.25 12.24 
z
" clip-path="url(#p0671f1d51f)" style="fill: #1f77b4"/>
   </g>
   <g id="BrokenBarHCollection_204">
    <path d="M 468.25 81.757241 
L 468.25 113.04 
L 469.9375 113.04 
L 469.9375 81.757241 
L 468.25 81.757241 
z
" clip-path="url(#p0671f1d51f)" style="fill: #1f77b4"/>
   </g>
   <g id="BrokenBarHCollection_205">
    <path d="M 470.1875 46.998621 
L 470.1875 78.281379 
L 471.1875 78.281379 
L 471.1875 46.998621 
L 470.1875 46.998621 
z
" clip-path="url(#p0671f1d51f)" style="fill: #1f77b4"/>
   </g>
   <g id="BrokenBarHCollection_206">
    <path d="M 470.5 12.24 
L 470.5 43.522759 
L 471.1875 43.522759 
L 471.1875 12.24 
L 470.5 12.24 
z
" clip-path="url(#p0671f1d51f)" style="fill: #1f77b4"/>
   </g>
   <g id="BrokenBarHCollection_207">
    <path d="M 470.5 81.757241 
L 470.5 113.04 
L 471.1875 113.04 
L 471.1875 81.757241 
L 470.5 81.757241 
z
" clip-path="url(#p0671f1d51f)" style="fill: #1f77b4"/>
   </g>
   <g id="BrokenBarHCollection_208">
    <path d="M 471.1875 12.24 
L 471.1875 43.522759 
L 471.9375 43.522759 
L 471.9375 12.24 
L 471.1875 12.24 
z
" clip-path="url(#p0671f1d51f)" style="fill: #1f77b4"/>
   </g>
   <g id="BrokenBarHCollection_209">
    <path d="M 471.1875 46.998621 
L 471.1875 78.281379 
L 471.9375 78.281379 
L 471.9375 46.998621 
L 471.1875 46.998621 
z
" clip-path="url(#p0671f1d51f)" style="fill: #1f77b4"/>
   </g>
   <g id="BrokenBarHCollection_210">
    <path d="M 471.1875 81.757241 
L 471.1875 113.04 
L 471.9375 113.04 
L 471.9375 81.757241 
L 471.1875 81.757241 
z
" clip-path="url(#p0671f1d51f)" style="fill: #1f77b4"/>
   </g>
   <g id="BrokenBarHCollection_211">
    <path d="M 471.9375 12.24 
L 471.9375 43.522759 
L 472.4375 43.522759 
L 472.4375 12.24 
L 471.9375 12.24 
z
" clip-path="url(#p0671f1d51f)" style="fill: #1f77b4"/>
   </g>
   <g id="BrokenBarHCollection_212">
    <path d="M 471.9375 46.998621 
L 471.9375 78.281379 
L 472.4375 78.281379 
L 472.4375 46.998621 
L 471.9375 46.998621 
z
" clip-path="url(#p0671f1d51f)" style="fill: #1f77b4"/>
   </g>
   <g id="BrokenBarHCollection_213">
    <path d="M 471.9375 81.757241 
L 471.9375 113.04 
L 472.4375 113.04 
L 472.4375 81.757241 
L 471.9375 81.757241 
z
" clip-path="url(#p0671f1d51f)" style="fill: #1f77b4"/>
   </g>
   <g id="BrokenBarHCollection_214">
    <path d="M 472.4375 12.24 
L 472.4375 43.522759 
L 472.9375 43.522759 
L 472.9375 12.24 
L 472.4375 12.24 
z
" clip-path="url(#p0671f1d51f)" style="fill: #1f77b4"/>
   </g>
   <g id="BrokenBarHCollection_215">
    <path d="M 472.4375 81.757241 
L 472.4375 113.04 
L 472.9375 113.04 
L 472.9375 81.757241 
L 472.4375 81.757241 
z
" clip-path="url(#p0671f1d51f)" style="fill: #1f77b4"/>
   </g>
   <g id="BrokenBarHCollection_216">
    <path d="M 472.6875 46.998621 
L 472.6875 78.281379 
L 472.9375 78.281379 
L 472.9375 46.998621 
L 472.6875 46.998621 
z
" clip-path="url(#p0671f1d51f)" style="fill: #1f77b4"/>
   </g>
   <g id="BrokenBarHCollection_217">
    <path d="M 473.875 12.24 
L 473.875 43.522759 
L 475.4375 43.522759 
L 475.4375 12.24 
L 473.875 12.24 
z
" clip-path="url(#p0671f1d51f)" style="fill: #1f77b4"/>
   </g>
   <g id="BrokenBarHCollection_218">
    <path d="M 473.875 46.998621 
L 473.875 78.281379 
L 475.4375 78.281379 
L 475.4375 46.998621 
L 473.875 46.998621 
z
" clip-path="url(#p0671f1d51f)" style="fill: #1f77b4"/>
   </g>
   <g id="BrokenBarHCollection_219">
    <path d="M 473.875 81.757241 
L 473.875 113.04 
L 475.4375 113.04 
L 475.4375 81.757241 
L 473.875 81.757241 
z
" clip-path="url(#p0671f1d51f)" style="fill: #1f77b4"/>
   </g>
   <g id="BrokenBarHCollection_220">
    <path d="M 475.4375 81.757241 
L 475.4375 113.04 
L 477.125 113.04 
L 477.125 81.757241 
L 475.4375 81.757241 
z
" clip-path="url(#p0671f1d51f)" style="fill: #1f77b4"/>
   </g>
   <g id="BrokenBarHCollection_221">
    <path d="M 475.4375 12.24 
L 475.4375 43.522759 
L 476.875 43.522759 
L 476.875 12.24 
L 475.4375 12.24 
z
" clip-path="url(#p0671f1d51f)" style="fill: #1f77b4"/>
   </g>
   <g id="BrokenBarHCollection_222">
    <path d="M 475.625 46.998621 
L 475.625 78.281379 
L 477.125 78.281379 
L 477.125 46.998621 
L 475.625 46.998621 
z
" clip-path="url(#p0671f1d51f)" style="fill: #1f77b4"/>
   </g>
   <g id="BrokenBarHCollection_223">
    <path d="M 476.875 12.24 
L 476.875 43.522759 
L 478.375 43.522759 
L 478.375 12.24 
L 476.875 12.24 
z
" clip-path="url(#p0671f1d51f)" style="fill: #1f77b4"/>
   </g>
   <g id="BrokenBarHCollection_224">
    <path d="M 477.125 46.998621 
L 477.125 78.281379 
L 478.5625 78.281379 
L 478.5625 46.998621 
L 477.125 46.998621 
z
" clip-path="url(#p0671f1d51f)" style="fill: #1f77b4"/>
   </g>
   <g id="BrokenBarHCollection_225">
    <path d="M 477.125 81.757241 
L 477.125 113.04 
L 478.5625 113.04 
L 478.5625 81.757241 
L 477.125 81.757241 
z
" clip-path="url(#p0671f1d51f)" style="fill: #1f77b4"/>
   </g>
   <g id="BrokenBarHCollection_226">
    <path d="M 478.375 12.24 
L 478.375 43.522759 
L 479.8125 43.522759 
L 479.8125 12.24 
L 478.375 12.24 
z
" clip-path="url(#p0671f1d51f)" style="fill: #1f77b4"/>
   </g>
   <g id="BrokenBarHCollection_227">
    <path d="M 478.5625 46.998621 
L 478.5625 78.281379 
L 479.8125 78.281379 
L 479.8125 46.998621 
L 478.5625 46.998621 
z
" clip-path="url(#p0671f1d51f)" style="fill: #1f77b4"/>
   </g>
   <g id="BrokenBarHCollection_228">
    <path d="M 478.5625 81.757241 
L 478.5625 113.04 
L 479.8125 113.04 
L 479.8125 81.757241 
L 478.5625 81.757241 
z
" clip-path="url(#p0671f1d51f)" style="fill: #1f77b4"/>
   </g>
   <g id="BrokenBarHCollection_229">
    <path d="M 479.8125 12.24 
L 479.8125 43.522759 
L 480.0625 43.522759 
L 480.0625 12.24 
L 479.8125 12.24 
z
" clip-path="url(#p0671f1d51f)" style="fill: #1f77b4"/>
   </g>
   <g id="BrokenBarHCollection_230">
    <path d="M 479.8125 46.998621 
L 479.8125 78.281379 
L 480.0625 78.281379 
L 480.0625 46.998621 
L 479.8125 46.998621 
z
" clip-path="url(#p0671f1d51f)" style="fill: #1f77b4"/>
   </g>
   <g id="BrokenBarHCollection_231">
    <path d="M 479.8125 81.757241 
L 479.8125 113.04 
L 480.0625 113.04 
L 480.0625 81.757241 
L 479.8125 81.757241 
z
" clip-path="url(#p0671f1d51f)" style="fill: #1f77b4"/>
   </g>
   <g id="BrokenBarHCollection_232">
    <path d="M 480.0625 12.24 
L 480.0625 43.522759 
L 480.3125 43.522759 
L 480.3125 12.24 
L 480.0625 12.24 
z
" clip-path="url(#p0671f1d51f)" style="fill: #1f77b4"/>
   </g>
   <g id="BrokenBarHCollection_233">
    <path d="M 480.0625 46.998621 
L 480.0625 78.281379 
L 480.3125 78.281379 
L 480.3125 46.998621 
L 480.0625 46.998621 
z
" clip-path="url(#p0671f1d51f)" style="fill: #1f77b4"/>
   </g>
   <g id="BrokenBarHCollection_234">
    <path d="M 480.0625 81.757241 
L 480.0625 113.04 
L 480.3125 113.04 
L 480.3125 81.757241 
L 480.0625 81.757241 
z
" clip-path="url(#p0671f1d51f)" style="fill: #1f77b4"/>
   </g>
   <g id="BrokenBarHCollection_235">
    <path d="M 480.0625 46.998621 
L 480.0625 78.281379 
L 480.0625 78.281379 
L 480.0625 46.998621 
L 480.0625 46.998621 
z
" clip-path="url(#p0671f1d51f)" style="fill: #1f77b4"/>
   </g>
   <g id="BrokenBarHCollection_236">
    <path d="M 480.0625 81.757241 
L 480.0625 113.04 
L 480.0625 113.04 
L 480.0625 81.757241 
L 480.0625 81.757241 
z
" clip-path="url(#p0671f1d51f)" style="fill: #1f77b4"/>
   </g>
   <g id="BrokenBarHCollection_237">
    <path d="M 480.3125 46.998621 
L 480.3125 78.281379 
L 484.25 78.281379 
L 484.25 46.998621 
L 480.3125 46.998621 
z
" clip-path="url(#p0671f1d51f)" style="fill: #1f77b4"/>
   </g>
   <g id="BrokenBarHCollection_238">
    <path d="M 480.3125 81.757241 
L 480.3125 113.04 
L 484.25 113.04 
L 484.25 81.757241 
L 480.3125 81.757241 
z
" clip-path="url(#p0671f1d51f)" style="fill: #1f77b4"/>
   </g>
   <g id="BrokenBarHCollection_239">
    <path d="M 480.3125 12.24 
L 480.3125 43.522759 
L 480.3125 43.522759 
L 480.3125 12.24 
L 480.3125 12.24 
z
" clip-path="url(#p0671f1d51f)" style="fill: #1f77b4"/>
   </g>
   <g id="BrokenBarHCollection_240">
    <path d="M 482.75 12.24 
L 482.75 43.522759 
L 484 43.522759 
L 484 12.24 
L 482.75 12.24 
z
" clip-path="url(#p0671f1d51f)" style="fill: #1f77b4"/>
   </g>
   <g id="BrokenBarHCollection_241">
    <path d="M 484 12.24 
L 484 43.522759 
L 485.1875 43.522759 
L 485.1875 12.24 
L 484 12.24 
z
" clip-path="url(#p0671f1d51f)" style="fill: #1f77b4"/>
   </g>
   <g id="BrokenBarHCollection_242">
    <path d="M 484.25 46.998621 
L 484.25 78.281379 
L 485.4375 78.281379 
L 485.4375 46.998621 
L 484.25 46.998621 
z
" clip-path="url(#p0671f1d51f)" style="fill: #1f77b4"/>
   </g>
   <g id="BrokenBarHCollection_243">
    <path d="M 484.25 81.757241 
L 484.25 113.04 
L 485.4375 113.04 
L 485.4375 81.757241 
L 484.25 81.757241 
z
" clip-path="url(#p0671f1d51f)" style="fill: #1f77b4"/>
   </g>
   <g id="BrokenBarHCollection_244">
    <path d="M 485.1875 12.24 
L 485.1875 43.522759 
L 486.4375 43.522759 
L 486.4375 12.24 
L 485.1875 12.24 
z
" clip-path="url(#p0671f1d51f)" style="fill: #1f77b4"/>
   </g>
   <g id="BrokenBarHCollection_245">
    <path d="M 485.4375 81.757241 
L 485.4375 113.04 
L 486.4375 113.04 
L 486.4375 81.757241 
L 485.4375 81.757241 
z
" clip-path="url(#p0671f1d51f)" style="fill: #1f77b4"/>
   </g>
   <g id="BrokenBarHCollection_246">
    <path d="M 485.4375 46.998621 
L 485.4375 78.281379 
L 486.1875 78.281379 
L 486.1875 46.998621 
L 485.4375 46.998621 
z
" clip-path="url(#p0671f1d51f)" style="fill: #1f77b4"/>
   </g>
   <g id="BrokenBarHCollection_247">
    <path d="M 497.75 81.757241 
L 497.75 113.04 
L 527.75 113.04 
L 527.75 81.757241 
L 497.75 81.757241 
z
" clip-path="url(#p0671f1d51f)" style="fill: #1f77b4"/>
   </g>
   <g id="BrokenBarHCollection_248">
    <path d="M 526.5625 12.24 
L 526.5625 43.522759 
L 579.4375 43.522759 
L 579.4375 12.24 
L 526.5625 12.24 
z
" clip-path="url(#p0671f1d51f)" style="fill: #1f77b4"/>
   </g>
   <g id="BrokenBarHCollection_249">
    <path d="M 527.75 81.757241 
L 527.75 113.04 
L 580.125 113.04 
L 580.125 81.757241 
L 527.75 81.757241 
z
" clip-path="url(#p0671f1d51f)" style="fill: #1f77b4"/>
   </g>
   <g id="BrokenBarHCollection_250">
    <path d="M 578.4375 46.998621 
L 578.4375 78.281379 
L 579.4375 78.281379 
L 579.4375 46.998621 
L 578.4375 46.998621 
z
" clip-path="url(#p0671f1d51f)" style="fill: #1f77b4"/>
   </g>
   <g id="BrokenBarHCollection_251">
    <path d="M 579.4375 12.24 
L 579.4375 43.522759 
L 580.625 43.522759 
L 580.625 12.24 
L 579.4375 12.24 
z
" clip-path="url(#p0671f1d51f)" style="fill: #1f77b4"/>
   </g>
   <g id="BrokenBarHCollection_252">
    <path d="M 579.4375 46.998621 
L 579.4375 78.281379 
L 580.375 78.281379 
L 580.375 46.998621 
L 579.4375 46.998621 
z
" clip-path="url(#p0671f1d51f)" style="fill: #1f77b4"/>
   </g>
   <g id="BrokenBarHCollection_253">
    <path d="M 580.125 81.757241 
L 580.125 113.04 
L 582.375 113.04 
L 582.375 81.757241 
L 580.125 81.757241 
z
" clip-path="url(#p0671f1d51f)" style="fill: #1f77b4"/>
   </g>
   <g id="BrokenBarHCollection_254">
    <path d="M 580.375 46.998621 
L 580.375 78.281379 
L 582.125 78.281379 
L 582.125 46.998621 
L 580.375 46.998621 
z
" clip-path="url(#p0671f1d51f)" style="fill: #1f77b4"/>
   </g>
   <g id="BrokenBarHCollection_255">
    <path d="M 580.625 12.24 
L 580.625 43.522759 
L 582.375 43.522759 
L 582.375 12.24 
L 580.625 12.24 
z
" clip-path="url(#p0671f1d51f)" style="fill: #1f77b4"/>
   </g>
   <g id="BrokenBarHCollection_256">
    <path d="M 582.125 46.998621 
L 582.125 78.281379 
L 584.0625 78.281379 
L 584.0625 46.998621 
L 582.125 46.998621 
z
" clip-path="url(#p0671f1d51f)" style="fill: #1f77b4"/>
   </g>
   <g id="BrokenBarHCollection_257">
    <path d="M 582.375 12.24 
L 582.375 43.522759 
L 584.375 43.522759 
L 584.375 12.24 
L 582.375 12.24 
z
" clip-path="url(#p0671f1d51f)" style="fill: #1f77b4"/>
   </g>
   <g id="BrokenBarHCollection_258">
    <path d="M 582.375 81.757241 
L 582.375 113.04 
L 584.375 113.04 
L 584.375 81.757241 
L 582.375 81.757241 
z
" clip-path="url(#p0671f1d51f)" style="fill: #1f77b4"/>
   </g>
   <g id="BrokenBarHCollection_259">
    <path d="M 584.5625 12.24 
L 584.5625 43.522759 
L 585.5625 43.522759 
L 585.5625 12.24 
L 584.5625 12.24 
z
" clip-path="url(#p0671f1d51f)" style="fill: #1f77b4"/>
   </g>
   <g id="BrokenBarHCollection_260">
    <path d="M 584.5625 81.757241 
L 584.5625 113.04 
L 585.5625 113.04 
L 585.5625 81.757241 
L 584.5625 81.757241 
z
" clip-path="url(#p0671f1d51f)" style="fill: #1f77b4"/>
   </g>
   <g id="BrokenBarHCollection_261">
    <path d="M 584.5625 46.998621 
L 584.5625 78.281379 
L 585.3125 78.281379 
L 585.3125 46.998621 
L 584.5625 46.998621 
z
" clip-path="url(#p0671f1d51f)" style="fill: #1f77b4"/>
   </g>
   <g id="BrokenBarHCollection_262">
    <path d="M 585.5625 12.24 
L 585.5625 43.522759 
L 586.3125 43.522759 
L 586.3125 12.24 
L 585.5625 12.24 
z
" clip-path="url(#p0671f1d51f)" style="fill: #1f77b4"/>
   </g>
   <g id="BrokenBarHCollection_263">
    <path d="M 585.5625 46.998621 
L 585.5625 78.281379 
L 586.3125 78.281379 
L 586.3125 46.998621 
L 585.5625 46.998621 
z
" clip-path="url(#p0671f1d51f)" style="fill: #1f77b4"/>
   </g>
   <g id="BrokenBarHCollection_264">
    <path d="M 585.5625 81.757241 
L 585.5625 113.04 
L 586.3125 113.04 
L 586.3125 81.757241 
L 585.5625 81.757241 
z
" clip-path="url(#p0671f1d51f)" style="fill: #1f77b4"/>
   </g>
   <g id="BrokenBarHCollection_265">
    <path d="M 586.3125 12.24 
L 586.3125 43.522759 
L 586.8125 43.522759 
L 586.8125 12.24 
L 586.3125 12.24 
z
" clip-path="url(#p0671f1d51f)" style="fill: #1f77b4"/>
   </g>
   <g id="BrokenBarHCollection_266">
    <path d="M 586.3125 46.998621 
L 586.3125 78.281379 
L 586.8125 78.281379 
L 586.8125 46.998621 
L 586.3125 46.998621 
z
" clip-path="url(#p0671f1d51f)" style="fill: #1f77b4"/>
   </g>
   <g id="BrokenBarHCollection_267">
    <path d="M 586.3125 81.757241 
L 586.3125 113.04 
L 586.8125 113.04 
L 586.8125 81.757241 
L 586.3125 81.757241 
z
" clip-path="url(#p0671f1d51f)" style="fill: #1f77b4"/>
   </g>
   <g id="BrokenBarHCollection_268">
    <path d="M 586.8125 12.24 
L 586.8125 43.522759 
L 587.25 43.522759 
L 587.25 12.24 
L 586.8125 12.24 
z
" clip-path="url(#p0671f1d51f)" style="fill: #1f77b4"/>
   </g>
   <g id="BrokenBarHCollection_269">
    <path d="M 586.8125 46.998621 
L 586.8125 78.281379 
L 587.25 78.281379 
L 587.25 46.998621 
L 586.8125 46.998621 
z
" clip-path="url(#p0671f1d51f)" style="fill: #1f77b4"/>
   </g>
   <g id="BrokenBarHCollection_270">
    <path d="M 586.8125 81.757241 
L 586.8125 113.04 
L 587.25 113.04 
L 587.25 81.757241 
L 586.8125 81.757241 
z
" clip-path="url(#p0671f1d51f)" style="fill: #1f77b4"/>
   </g>
   <g id="BrokenBarHCollection_271">
    <path d="M 588.25 46.998621 
L 588.25 78.281379 
L 590 78.281379 
L 590 46.998621 
L 588.25 46.998621 
z
" clip-path="url(#p0671f1d51f)" style="fill: #1f77b4"/>
   </g>
   <g id="BrokenBarHCollection_272">
    <path d="M 588.25 81.757241 
L 588.25 113.04 
L 590 113.04 
L 590 81.757241 
L 588.25 81.757241 
z
" clip-path="url(#p0671f1d51f)" style="fill: #1f77b4"/>
   </g>
   <g id="BrokenBarHCollection_273">
    <path d="M 588.25 12.24 
L 588.25 43.522759 
L 589.75 43.522759 
L 589.75 12.24 
L 588.25 12.24 
z
" clip-path="url(#p0671f1d51f)" style="fill: #1f77b4"/>
   </g>
   <g id="BrokenBarHCollection_274">
    <path d="M 589.75 12.24 
L 589.75 43.522759 
L 591.1875 43.522759 
L 591.1875 12.24 
L 589.75 12.24 
z
" clip-path="url(#p0671f1d51f)" style="fill: #1f77b4"/>
   </g>
   <g id="BrokenBarHCollection_275">
    <path d="M 590 46.998621 
L 590 78.281379 
L 591.4375 78.281379 
L 591.4375 46.998621 
L 590 46.998621 
z
" clip-path="url(#p0671f1d51f)" style="fill: #1f77b4"/>
   </g>
   <g id="BrokenBarHCollection_276">
    <path d="M 590 81.757241 
L 590 113.04 
L 591.4375 113.04 
L 591.4375 81.757241 
L 590 81.757241 
z
" clip-path="url(#p0671f1d51f)" style="fill: #1f77b4"/>
   </g>
   <g id="BrokenBarHCollection_277">
    <path d="M 591.1875 12.24 
L 591.1875 43.522759 
L 592.9375 43.522759 
L 592.9375 12.24 
L 591.1875 12.24 
z
" clip-path="url(#p0671f1d51f)" style="fill: #1f77b4"/>
   </g>
   <g id="BrokenBarHCollection_278">
    <path d="M 591.4375 46.998621 
L 591.4375 78.281379 
L 592.9375 78.281379 
L 592.9375 46.998621 
L 591.4375 46.998621 
z
" clip-path="url(#p0671f1d51f)" style="fill: #1f77b4"/>
   </g>
   <g id="BrokenBarHCollection_279">
    <path d="M 591.4375 81.757241 
L 591.4375 113.04 
L 592.9375 113.04 
L 592.9375 81.757241 
L 591.4375 81.757241 
z
" clip-path="url(#p0671f1d51f)" style="fill: #1f77b4"/>
   </g>
   <g id="BrokenBarHCollection_280">
    <path d="M 592.9375 46.998621 
L 592.9375 78.281379 
L 594.4375 78.281379 
L 594.4375 46.998621 
L 592.9375 46.998621 
z
" clip-path="url(#p0671f1d51f)" style="fill: #1f77b4"/>
   </g>
   <g id="BrokenBarHCollection_281">
    <path d="M 592.9375 81.757241 
L 592.9375 113.04 
L 594.4375 113.04 
L 594.4375 81.757241 
L 592.9375 81.757241 
z
" clip-path="url(#p0671f1d51f)" style="fill: #1f77b4"/>
   </g>
   <g id="BrokenBarHCollection_282">
    <path d="M 592.9375 12.24 
L 592.9375 43.522759 
L 594.125 43.522759 
L 594.125 12.24 
L 592.9375 12.24 
z
" clip-path="url(#p0671f1d51f)" style="fill: #1f77b4"/>
   </g>
   <g id="BrokenBarHCollection_283">
    <path d="M 594.4375 12.24 
L 594.4375 43.522759 
L 594.6875 43.522759 
L 594.6875 12.24 
L 594.4375 12.24 
z
" clip-path="url(#p0671f1d51f)" style="fill: #1f77b4"/>
   </g>
   <g id="BrokenBarHCollection_284">
    <path d="M 594.4375 46.998621 
L 594.4375 78.281379 
L 594.6875 78.281379 
L 594.6875 46.998621 
L 594.4375 46.998621 
z
" clip-path="url(#p0671f1d51f)" style="fill: #1f77b4"/>
   </g>
   <g id="BrokenBarHCollection_285">
    <path d="M 594.4375 81.757241 
L 594.4375 113.04 
L 594.6875 113.04 
L 594.6875 81.757241 
L 594.4375 81.757241 
z
" clip-path="url(#p0671f1d51f)" style="fill: #1f77b4"/>
   </g>
   <g id="BrokenBarHCollection_286">
    <path d="M 594.4375 12.24 
L 594.4375 43.522759 
L 594.4375 43.522759 
L 594.4375 12.24 
L 594.4375 12.24 
z
" clip-path="url(#p0671f1d51f)" style="fill: #1f77b4"/>
   </g>
   <g id="BrokenBarHCollection_287">
    <path d="M 594.4375 46.998621 
L 594.4375 78.281379 
L 594.4375 78.281379 
L 594.4375 46.998621 
L 594.4375 46.998621 
z
" clip-path="url(#p0671f1d51f)" style="fill: #1f77b4"/>
   </g>
   <g id="BrokenBarHCollection_288">
    <path d="M 594.4375 81.757241 
L 594.4375 113.04 
L 594.4375 113.04 
L 594.4375 81.757241 
L 594.4375 81.757241 
z
" clip-path="url(#p0671f1d51f)" style="fill: #1f77b4"/>
   </g>
   <g id="BrokenBarHCollection_289">
    <path d="M 594.6875 46.998621 
L 594.6875 78.281379 
L 598.625 78.281379 
L 598.625 46.998621 
L 594.6875 46.998621 
z
" clip-path="url(#p0671f1d51f)" style="fill: #1f77b4"/>
   </g>
   <g id="BrokenBarHCollection_290">
    <path d="M 594.6875 81.757241 
L 594.6875 113.04 
L 598.625 113.04 
L 598.625 81.757241 
L 594.6875 81.757241 
z
" clip-path="url(#p0671f1d51f)" style="fill: #1f77b4"/>
   </g>
   <g id="BrokenBarHCollection_291">
    <path d="M 594.6875 12.24 
L 594.6875 43.522759 
L 594.6875 43.522759 
L 594.6875 12.24 
L 594.6875 12.24 
z
" clip-path="url(#p0671f1d51f)" style="fill: #1f77b4"/>
   </g>
   <g id="BrokenBarHCollection_292">
    <path d="M 594.6875 46.998621 
L 594.6875 78.281379 
L 594.6875 78.281379 
L 594.6875 46.998621 
L 594.6875 46.998621 
z
" clip-path="url(#p0671f1d51f)" style="fill: #1f77b4"/>
   </g>
   <g id="BrokenBarHCollection_293">
    <path d="M 594.6875 81.757241 
L 594.6875 113.04 
L 594.6875 113.04 
L 594.6875 81.757241 
L 594.6875 81.757241 
z
" clip-path="url(#p0671f1d51f)" style="fill: #1f77b4"/>
   </g>
   <g id="BrokenBarHCollection_294">
    <path d="M 597.125 12.24 
L 597.125 43.522759 
L 598.375 43.522759 
L 598.375 12.24 
L 597.125 12.24 
z
" clip-path="url(#p0671f1d51f)" style="fill: #1f77b4"/>
   </g>
   <g id="BrokenBarHCollection_295">
    <path d="M 598.375 12.24 
L 598.375 43.522759 
L 599.5625 43.522759 
L 599.5625 12.24 
L 598.375 12.24 
z
" clip-path="url(#p0671f1d51f)" style="fill: #1f77b4"/>
   </g>
   <g id="BrokenBarHCollection_296">
    <path d="M 598.625 46.998621 
L 598.625 78.281379 
L 599.8125 78.281379 
L 599.8125 46.998621 
L 598.625 46.998621 
z
" clip-path="url(#p0671f1d51f)" style="fill: #1f77b4"/>
   </g>
   <g id="BrokenBarHCollection_297">
    <path d="M 598.625 81.757241 
L 598.625 113.04 
L 599.8125 113.04 
L 599.8125 81.757241 
L 598.625 81.757241 
z
" clip-path="url(#p0671f1d51f)" style="fill: #1f77b4"/>
   </g>
   <g id="BrokenBarHCollection_298">
    <path d="M 599.5625 12.24 
L 599.5625 43.522759 
L 600.8125 43.522759 
L 600.8125 12.24 
L 599.5625 12.24 
z
" clip-path="url(#p0671f1d51f)" style="fill: #1f77b4"/>
   </g>
   <g id="BrokenBarHCollection_299">
    <path d="M 600.0625 46.998621 
L 600.0625 78.281379 
L 600.8125 78.281379 
L 600.8125 46.998621 
L 600.0625 46.998621 
z
" clip-path="url(#p0671f1d51f)" style="fill: #1f77b4"/>
   </g>
   <g id="BrokenBarHCollection_300">
    <path d="M 600.0625 81.757241 
L 600.0625 113.04 
L 600.8125 113.04 
L 600.8125 81.757241 
L 600.0625 81.757241 
z
" clip-path="url(#p0671f1d51f)" style="fill: #1f77b4"/>
   </g>
   <g id="BrokenBarHCollection_301">
    <path d="M 611.875 81.757241 
L 611.875 113.04 
L 640.1875 113.04 
L 640.1875 81.757241 
L 611.875 81.757241 
z
" clip-path="url(#p0671f1d51f)" style="fill: #1f77b4"/>
   </g>
   <g id="BrokenBarHCollection_302">
    <path d="M 639.1875 12.24 
L 639.1875 43.522759 
L 693.75 43.522759 
L 693.75 12.24 
L 639.1875 12.24 
z
" clip-path="url(#p0671f1d51f)" style="fill: #1f77b4"/>
   </g>
   <g id="BrokenBarHCollection_303">
    <path d="M 640.1875 81.757241 
L 640.1875 113.04 
L 697.4375 113.04 
L 697.4375 81.757241 
L 640.1875 81.757241 
z
" clip-path="url(#p0671f1d51f)" style="fill: #1f77b4"/>
   </g>
   <g id="BrokenBarHCollection_304">
    <path d="M 690.5625 46.998621 
L 690.5625 78.281379 
L 693 78.281379 
L 693 46.998621 
L 690.5625 46.998621 
z
" clip-path="url(#p0671f1d51f)" style="fill: #1f77b4"/>
   </g>
   <g id="BrokenBarHCollection_305">
    <path d="M 693 46.998621 
L 693 78.281379 
L 697.6875 78.281379 
L 697.6875 46.998621 
L 693 46.998621 
z
" clip-path="url(#p0671f1d51f)" style="fill: #1f77b4"/>
   </g>
   <g id="BrokenBarHCollection_306">
    <path d="M 694 12.24 
L 694 43.522759 
L 697.9375 43.522759 
L 697.9375 12.24 
L 694 12.24 
z
" clip-path="url(#p0671f1d51f)" style="fill: #1f77b4"/>
   </g>
   <g id="BrokenBarHCollection_307">
    <path d="M 697.4375 81.757241 
L 697.4375 113.04 
L 700.625 113.04 
L 700.625 81.757241 
L 697.4375 81.757241 
z
" clip-path="url(#p0671f1d51f)" style="fill: #1f77b4"/>
   </g>
   <g id="BrokenBarHCollection_308">
    <path d="M 697.6875 46.998621 
L 697.6875 78.281379 
L 700.375 78.281379 
L 700.375 46.998621 
L 697.6875 46.998621 
z
" clip-path="url(#p0671f1d51f)" style="fill: #1f77b4"/>
   </g>
   <g id="BrokenBarHCollection_309">
    <path d="M 697.9375 12.24 
L 697.9375 43.522759 
L 700.625 43.522759 
L 700.625 12.24 
L 697.9375 12.24 
z
" clip-path="url(#p0671f1d51f)" style="fill: #1f77b4"/>
   </g>
   <g id="BrokenBarHCollection_310">
    <path d="M 700.375 46.998621 
L 700.375 78.281379 
L 702.625 78.281379 
L 702.625 46.998621 
L 700.375 46.998621 
z
" clip-path="url(#p0671f1d51f)" style="fill: #1f77b4"/>
   </g>
   <g id="BrokenBarHCollection_311">
    <path d="M 700.625 12.24 
L 700.625 43.522759 
L 702.8125 43.522759 
L 702.8125 12.24 
L 700.625 12.24 
z
" clip-path="url(#p0671f1d51f)" style="fill: #1f77b4"/>
   </g>
   <g id="BrokenBarHCollection_312">
    <path d="M 700.625 81.757241 
L 700.625 113.04 
L 702.8125 113.04 
L 702.8125 81.757241 
L 700.625 81.757241 
z
" clip-path="url(#p0671f1d51f)" style="fill: #1f77b4"/>
   </g>
  </g>
 </g>
 <defs>
  <clipPath id="p0671f1d51f">
   <rect x="34.240625" y="7.2" width="669.6" height="110.88"/>
  </clipPath>
 </defs>
</svg>
