<?xml version="1.0" encoding="utf-8" standalone="no"?>
<!DOCTYPE svg PUBLIC "-//W3C//DTD SVG 1.1//EN"
  "http://www.w3.org/Graphics/SVG/1.1/DTD/svg11.dtd">
<svg xmlns:xlink="http://www.w3.org/1999/xlink" width="886.07725pt" height="155.63625pt" viewBox="0 0 886.07725 155.63625" xmlns="http://www.w3.org/2000/svg" version="1.1">
 <metadata>
  <rdf:RDF xmlns:dc="http://purl.org/dc/elements/1.1/" xmlns:cc="http://creativecommons.org/ns#" xmlns:rdf="http://www.w3.org/1999/02/22-rdf-syntax-ns#">
   <cc:Work>
    <dc:type rdf:resource="http://purl.org/dc/dcmitype/StillImage"/>
    <dc:date>2025-09-06T20:47:31.789189</dc:date>
    <dc:format>image/svg+xml</dc:format>
    <dc:creator>
     <cc:Agent>
      <dc:title>Matplotlib v3.6.3, https://matplotlib.org/</dc:title>
     </cc:Agent>
    </dc:creator>
   </cc:Work>
  </rdf:RDF>
 </metadata>
 <defs>
  <style type="text/css">*{stroke-linejoin: round; stroke-linecap: butt}</style>
 </defs>
 <g id="figure_1">
  <g id="patch_1">
   <path d="M 0 155.63625 
L 886.07725 155.63625 
L 886.07725 0 
L 0 0 
z
" style="fill: #ffffff"/>
  </g>
  <g id="axes_1">
   <g id="patch_2">
    <path d="M 34.240625 118.08 
L 703.840625 118.08 
L 703.840625 7.2 
L 34.240625 7.2 
z
" style="fill: #ffffff"/>
   </g>
   <g id="matplotlib.axis_1">
    <g id="xtick_1">
     <g id="line2d_1">
      <defs>
       <path id="m145369ce40" d="M 0 0 
L 0 3.5 
" style="stroke: #000000; stroke-width: 0.8"/>
      </defs>
      <g>
       <use xlink:href="#m145369ce40" x="58.4375" y="118.08" style="stroke: #000000; stroke-width: 0.8"/>
      </g>
     </g>
     <g id="text_1">
      <!-- 0 -->
      <g transform="translate(55.25625 132.678438) scale(0.1 -0.1)">
       <defs>
        <path id="DejaVuSans-30" d="M 2034 4250 
Q 1547 4250 1301 3770 
Q 1056 3291 1056 2328 
Q 1056 1369 1301 889 
Q 1547 409 2034 409 
Q 2525 409 2770 889 
Q 3016 1369 3016 2328 
Q 3016 3291 2770 3770 
Q 2525 4250 2034 4250 
z
M 2034 4750 
Q 2819 4750 3233 4129 
Q 3647 3509 3647 2328 
Q 3647 1150 3233 529 
Q 2819 -91 2034 -91 
Q 1250 -91 836 529 
Q 422 1150 422 2328 
Q 422 3509 836 4129 
Q 1250 4750 2034 4750 
z
" transform="scale(0.015625)"/>
       </defs>
       <use xlink:href="#DejaVuSans-30"/>
      </g>
     </g>
    </g>
    <g id="xtick_2">
     <g id="line2d_2">
      <g>
       <use xlink:href="#m145369ce40" x="173.6875" y="118.08" style="stroke: #000000; stroke-width: 0.8"/>
      </g>
     </g>
     <g id="text_2">
      <!-- 0 -->
      <g transform="translate(170.50625 132.678438) scale(0.1 -0.1)">
       <use xlink:href="#DejaVuSans-30"/>
      </g>
     </g>
    </g>
    <g id="xtick_3">
     <g id="line2d_3">
      <g>
       <use xlink:href="#m145369ce40" x="288.875" y="118.08" style="stroke: #000000; stroke-width: 0.8"/>
      </g>
     </g>
     <g id="text_3">
      <!-- 0 -->
      <g transform="translate(285.69375 132.678438) scale(0.1 -0.1)">
       <use xlink:href="#DejaVuSans-30"/>
      </g>
     </g>
    </g>
    <g id="xtick_4">
     <g id="line2d_4">
      <g>
       <use xlink:href="#m145369ce40" x="404.0625" y="118.08" style="stroke: #000000; stroke-width: 0.8"/>
      </g>
     </g>
     <g id="text_4">
      <!-- 0 -->
      <g transform="translate(400.88125 132.678438) scale(0.1 -0.1)">
       <use xlink:href="#DejaVuSans-30"/>
      </g>
     </g>
    </g>
    <g id="xtick_5">
     <g id="line2d_5">
      <g>
       <use xlink:href="#m145369ce40" x="519.3125" y="118.08" style="stroke: #000000; stroke-width: 0.8"/>
      </g>
     </g>
     <g id="text_5">
      <!-- 0 -->
      <g transform="translate(516.13125 132.678438) scale(0.1 -0.1)">
       <use xlink:href="#DejaVuSans-30"/>
      </g>
     </g>
    </g>
    <g id="xtick_6">
     <g id="line2d_6">
      <g>
       <use xlink:href="#m145369ce40" x="634.5" y="118.08" style="stroke: #000000; stroke-width: 0.8"/>
      </g>
     </g>
     <g id="text_6">
      <!-- 0 -->
      <g transform="translate(631.31875 132.678438) scale(0.1 -0.1)">
       <use xlink:href="#DejaVuSans-30"/>
      </g>
     </g>
    </g>
    <g id="text_7">
     <!-- Time Offset (s) -->
     <g transform="translate(332.025 146.356563) scale(0.1 -0.1)">
      <defs>
       <path id="DejaVuSans-54" d="M -19 4666 
L 3928 4666 
L 3928 4134 
L 2272 4134 
L 2272 0 
L 1638 0 
L 1638 4134 
L -19 4134 
L -19 4666 
z
" transform="scale(0.015625)"/>
       <path id="DejaVuSans-69" d="M 603 3500 
L 1178 3500 
L 1178 0 
L 603 0 
L 603 3500 
z
M 603 4863 
L 1178 4863 
L 1178 4134 
L 603 4134 
L 603 4863 
z
" transform="scale(0.015625)"/>
       <path id="DejaVuSans-6d" d="M 3328 2828 
Q 3544 3216 3844 3400 
Q 4144 3584 4550 3584 
Q 5097 3584 5394 3201 
Q 5691 2819 5691 2113 
L 5691 0 
L 5113 0 
L 5113 2094 
Q 5113 2597 4934 2840 
Q 4756 3084 4391 3084 
Q 3944 3084 3684 2787 
Q 3425 2491 3425 1978 
L 3425 0 
L 2847 0 
L 2847 2094 
Q 2847 2600 2669 2842 
Q 2491 3084 2119 3084 
Q 1678 3084 1418 2786 
Q 1159 2488 1159 1978 
L 1159 0 
L 581 0 
L 581 3500 
L 1159 3500 
L 1159 2956 
Q 1356 3278 1631 3431 
Q 1906 3584 2284 3584 
Q 2666 3584 2933 3390 
Q 3200 3197 3328 2828 
z
" transform="scale(0.015625)"/>
       <path id="DejaVuSans-65" d="M 3597 1894 
L 3597 1613 
L 953 1613 
Q 991 1019 1311 708 
Q 1631 397 2203 397 
Q 2534 397 2845 478 
Q 3156 559 3463 722 
L 3463 178 
Q 3153 47 2828 -22 
Q 2503 -91 2169 -91 
Q 1331 -91 842 396 
Q 353 884 353 1716 
Q 353 2575 817 3079 
Q 1281 3584 2069 3584 
Q 2775 3584 3186 3129 
Q 3597 2675 3597 1894 
z
M 3022 2063 
Q 3016 2534 2758 2815 
Q 2500 3097 2075 3097 
Q 1594 3097 1305 2825 
Q 1016 2553 972 2059 
L 3022 2063 
z
" transform="scale(0.015625)"/>
       <path id="DejaVuSans-20" transform="scale(0.015625)"/>
       <path id="DejaVuSans-4f" d="M 2522 4238 
Q 1834 4238 1429 3725 
Q 1025 3213 1025 2328 
Q 1025 1447 1429 934 
Q 1834 422 2522 422 
Q 3209 422 3611 934 
Q 4013 1447 4013 2328 
Q 4013 3213 3611 3725 
Q 3209 4238 2522 4238 
z
M 2522 4750 
Q 3503 4750 4090 4092 
Q 4678 3434 4678 2328 
Q 4678 1225 4090 567 
Q 3503 -91 2522 -91 
Q 1538 -91 948 565 
Q 359 1222 359 2328 
Q 359 3434 948 4092 
Q 1538 4750 2522 4750 
z
" transform="scale(0.015625)"/>
       <path id="DejaVuSans-66" d="M 2375 4863 
L 2375 4384 
L 1825 4384 
Q 1516 4384 1395 4259 
Q 1275 4134 1275 3809 
L 1275 3500 
L 2222 3500 
L 2222 3053 
L 1275 3053 
L 1275 0 
L 697 0 
L 697 3053 
L 147 3053 
L 147 3500 
L 697 3500 
L 697 3744 
Q 697 4328 969 4595 
Q 1241 4863 1831 4863 
L 2375 4863 
z
" transform="scale(0.015625)"/>
       <path id="DejaVuSans-73" d="M 2834 3397 
L 2834 2853 
Q 2591 2978 2328 3040 
Q 2066 3103 1784 3103 
Q 1356 3103 1142 2972 
Q 928 2841 928 2578 
Q 928 2378 1081 2264 
Q 1234 2150 1697 2047 
L 1894 2003 
Q 2506 1872 2764 1633 
Q 3022 1394 3022 966 
Q 3022 478 2636 193 
Q 2250 -91 1575 -91 
Q 1294 -91 989 -36 
Q 684 19 347 128 
L 347 722 
Q 666 556 975 473 
Q 1284 391 1588 391 
Q 1994 391 2212 530 
Q 2431 669 2431 922 
Q 2431 1156 2273 1281 
Q 2116 1406 1581 1522 
L 1381 1569 
Q 847 1681 609 1914 
Q 372 2147 372 2553 
Q 372 3047 722 3315 
Q 1072 3584 1716 3584 
Q 2034 3584 2315 3537 
Q 2597 3491 2834 3397 
z
" transform="scale(0.015625)"/>
       <path id="DejaVuSans-74" d="M 1172 4494 
L 1172 3500 
L 2356 3500 
L 2356 3053 
L 1172 3053 
L 1172 1153 
Q 1172 725 1289 603 
Q 1406 481 1766 481 
L 2356 481 
L 2356 0 
L 1766 0 
Q 1100 0 847 248 
Q 594 497 594 1153 
L 594 3053 
L 172 3053 
L 172 3500 
L 594 3500 
L 594 4494 
L 1172 4494 
z
" transform="scale(0.015625)"/>
       <path id="DejaVuSans-28" d="M 1984 4856 
Q 1566 4138 1362 3434 
Q 1159 2731 1159 2009 
Q 1159 1288 1364 580 
Q 1569 -128 1984 -844 
L 1484 -844 
Q 1016 -109 783 600 
Q 550 1309 550 2009 
Q 550 2706 781 3412 
Q 1013 4119 1484 4856 
L 1984 4856 
z
" transform="scale(0.015625)"/>
       <path id="DejaVuSans-29" d="M 513 4856 
L 1013 4856 
Q 1481 4119 1714 3412 
Q 1947 2706 1947 2009 
Q 1947 1309 1714 600 
Q 1481 -109 1013 -844 
L 513 -844 
Q 928 -128 1133 580 
Q 1338 1288 1338 2009 
Q 1338 2731 1133 3434 
Q 928 4138 513 4856 
z
" transform="scale(0.015625)"/>
      </defs>
      <use xlink:href="#DejaVuSans-54"/>
      <use xlink:href="#DejaVuSans-69" x="57.958984"/>
      <use xlink:href="#DejaVuSans-6d" x="85.742188"/>
      <use xlink:href="#DejaVuSans-65" x="183.154297"/>
      <use xlink:href="#DejaVuSans-20" x="244.677734"/>
      <use xlink:href="#DejaVuSans-4f" x="276.464844"/>
      <use xlink:href="#DejaVuSans-66" x="355.175781"/>
      <use xlink:href="#DejaVuSans-66" x="390.380859"/>
      <use xlink:href="#DejaVuSans-73" x="425.585938"/>
      <use xlink:href="#DejaVuSans-65" x="477.685547"/>
      <use xlink:href="#DejaVuSans-74" x="539.208984"/>
      <use xlink:href="#DejaVuSans-20" x="578.417969"/>
      <use xlink:href="#DejaVuSans-28" x="610.205078"/>
      <use xlink:href="#DejaVuSans-73" x="649.21875"/>
      <use xlink:href="#DejaVuSans-29" x="701.318359"/>
     </g>
    </g>
   </g>
   <g id="matplotlib.axis_2">
    <g id="ytick_1">
     <g id="line2d_7">
      <defs>
       <path id="m13f5e46b28" d="M 0 0 
L -3.5 0 
" style="stroke: #000000; stroke-width: 0.8"/>
      </defs>
      <g>
       <use xlink:href="#m13f5e46b28" x="34.240625" y="27.881379" style="stroke: #000000; stroke-width: 0.8"/>
      </g>
     </g>
     <g id="text_8">
      <!-- 0 -->
      <g transform="translate(20.878125 31.680598) scale(0.1 -0.1)">
       <use xlink:href="#DejaVuSans-30"/>
      </g>
     </g>
    </g>
    <g id="ytick_2">
     <g id="line2d_8">
      <g>
       <use xlink:href="#m13f5e46b28" x="34.240625" y="62.64" style="stroke: #000000; stroke-width: 0.8"/>
      </g>
     </g>
     <g id="text_9">
      <!-- 1 -->
      <g transform="translate(20.878125 66.439219) scale(0.1 -0.1)">
       <defs>
        <path id="DejaVuSans-31" d="M 794 531 
L 1825 531 
L 1825 4091 
L 703 3866 
L 703 4441 
L 1819 4666 
L 2450 4666 
L 2450 531 
L 3481 531 
L 3481 0 
L 794 0 
L 794 531 
z
" transform="scale(0.015625)"/>
       </defs>
       <use xlink:href="#DejaVuSans-31"/>
      </g>
     </g>
    </g>
    <g id="ytick_3">
     <g id="line2d_9">
      <g>
       <use xlink:href="#m13f5e46b28" x="34.240625" y="97.398621" style="stroke: #000000; stroke-width: 0.8"/>
      </g>
     </g>
     <g id="text_10">
      <!-- 2 -->
      <g transform="translate(20.878125 101.197839) scale(0.1 -0.1)">
       <defs>
        <path id="DejaVuSans-32" d="M 1228 531 
L 3431 531 
L 3431 0 
L 469 0 
L 469 531 
Q 828 903 1448 1529 
Q 2069 2156 2228 2338 
Q 2531 2678 2651 2914 
Q 2772 3150 2772 3378 
Q 2772 3750 2511 3984 
Q 2250 4219 1831 4219 
Q 1534 4219 1204 4116 
Q 875 4013 500 3803 
L 500 4441 
Q 881 4594 1212 4672 
Q 1544 4750 1819 4750 
Q 2544 4750 2975 4387 
Q 3406 4025 3406 3419 
Q 3406 3131 3298 2873 
Q 3191 2616 2906 2266 
Q 2828 2175 2409 1742 
Q 1991 1309 1228 531 
z
" transform="scale(0.015625)"/>
       </defs>
       <use xlink:href="#DejaVuSans-32"/>
      </g>
     </g>
    </g>
    <g id="text_11">
     <!-- Task -->
     <g transform="translate(14.798438 73.432969) rotate(-90) scale(0.1 -0.1)">
      <defs>
       <path id="DejaVuSans-61" d="M 2194 1759 
Q 1497 1759 1228 1600 
Q 959 1441 959 1056 
Q 959 750 1161 570 
Q 1363 391 1709 391 
Q 2188 391 2477 730 
Q 2766 1069 2766 1631 
L 2766 1759 
L 2194 1759 
z
M 3341 1997 
L 3341 0 
L 2766 0 
L 2766 531 
Q 2569 213 2275 61 
Q 1981 -91 1556 -91 
Q 1019 -91 701 211 
Q 384 513 384 1019 
Q 384 1609 779 1909 
Q 1175 2209 1959 2209 
L 2766 2209 
L 2766 2266 
Q 2766 2663 2505 2880 
Q 2244 3097 1772 3097 
Q 1472 3097 1187 3025 
Q 903 2953 641 2809 
L 641 3341 
Q 956 3463 1253 3523 
Q 1550 3584 1831 3584 
Q 2591 3584 2966 3190 
Q 3341 2797 3341 1997 
z
" transform="scale(0.015625)"/>
       <path id="DejaVuSans-6b" d="M 581 4863 
L 1159 4863 
L 1159 1991 
L 2875 3500 
L 3609 3500 
L 1753 1863 
L 3688 0 
L 2938 0 
L 1159 1709 
L 1159 0 
L 581 0 
L 581 4863 
z
" transform="scale(0.015625)"/>
      </defs>
      <use xlink:href="#DejaVuSans-54"/>
      <use xlink:href="#DejaVuSans-61" x="44.583984"/>
      <use xlink:href="#DejaVuSans-73" x="105.863281"/>
      <use xlink:href="#DejaVuSans-6b" x="157.962891"/>
     </g>
    </g>
   </g>
   <g id="patch_3">
    <path d="M 34.240625 118.08 
L 34.240625 7.2 
" style="fill: none; stroke: #000000; stroke-width: 0.8; stroke-linejoin: miter; stroke-linecap: square"/>
   </g>
   <g id="patch_4">
    <path d="M 703.840625 118.08 
L 703.840625 7.2 
" style="fill: none; stroke: #000000; stroke-width: 0.8; stroke-linejoin: miter; stroke-linecap: square"/>
   </g>
   <g id="patch_5">
    <path d="M 34.25 118.08 
L 703.875 118.08 
" style="fill: none; stroke: #000000; stroke-width: 0.8; stroke-linejoin: miter; stroke-linecap: square"/>
   </g>
   <g id="patch_6">
    <path d="M 34.25 7.2 
L 703.875 7.2 
" style="fill: none; stroke: #000000; stroke-width: 0.8; stroke-linejoin: miter; stroke-linecap: square"/>
   </g>
   <g id="legend_1">
    <g id="patch_7">
     <path d="M 717.536625 59.5125 
L 876.87725 59.5125 
Q 878.87725 59.5125 878.87725 57.5125 
L 878.87725 14.2 
Q 878.87725 12.2 876.87725 12.2 
L 717.536625 12.2 
Q 715.536625 12.2 715.536625 14.2 
L 715.536625 57.5125 
Q 715.536625 59.5125 717.536625 59.5125 
z
" style="fill: #ffffff; opacity: 0.8; stroke: #cccccc; stroke-linejoin: miter"/>
    </g>
    <g id="text_12">
     <!-- Function -->
     <g transform="translate(775.942094 23.798438) scale(0.1 -0.1)">
      <defs>
       <path id="DejaVuSans-46" d="M 628 4666 
L 3309 4666 
L 3309 4134 
L 1259 4134 
L 1259 2759 
L 3109 2759 
L 3109 2228 
L 1259 2228 
L 1259 0 
L 628 0 
L 628 4666 
z
" transform="scale(0.015625)"/>
       <path id="DejaVuSans-75" d="M 544 1381 
L 544 3500 
L 1119 3500 
L 1119 1403 
Q 1119 906 1312 657 
Q 1506 409 1894 409 
Q 2359 409 2629 706 
Q 2900 1003 2900 1516 
L 2900 3500 
L 3475 3500 
L 3475 0 
L 2900 0 
L 2900 538 
Q 2691 219 2414 64 
Q 2138 -91 1772 -91 
Q 1169 -91 856 284 
Q 544 659 544 1381 
z
M 1991 3584 
L 1991 3584 
z
" transform="scale(0.015625)"/>
       <path id="DejaVuSans-6e" d="M 3513 2113 
L 3513 0 
L 2938 0 
L 2938 2094 
Q 2938 2591 2744 2837 
Q 2550 3084 2163 3084 
Q 1697 3084 1428 2787 
Q 1159 2491 1159 1978 
L 1159 0 
L 581 0 
L 581 3500 
L 1159 3500 
L 1159 2956 
Q 1366 3272 1645 3428 
Q 1925 3584 2291 3584 
Q 2894 3584 3203 3211 
Q 3513 2838 3513 2113 
z
" transform="scale(0.015625)"/>
       <path id="DejaVuSans-63" d="M 3122 3366 
L 3122 2828 
Q 2878 2963 2633 3030 
Q 2388 3097 2138 3097 
Q 1578 3097 1268 2742 
Q 959 2388 959 1747 
Q 959 1106 1268 751 
Q 1578 397 2138 397 
Q 2388 397 2633 464 
Q 2878 531 3122 666 
L 3122 134 
Q 2881 22 2623 -34 
Q 2366 -91 2075 -91 
Q 1284 -91 818 406 
Q 353 903 353 1747 
Q 353 2603 823 3093 
Q 1294 3584 2113 3584 
Q 2378 3584 2631 3529 
Q 2884 3475 3122 3366 
z
" transform="scale(0.015625)"/>
       <path id="DejaVuSans-6f" d="M 1959 3097 
Q 1497 3097 1228 2736 
Q 959 2375 959 1747 
Q 959 1119 1226 758 
Q 1494 397 1959 397 
Q 2419 397 2687 759 
Q 2956 1122 2956 1747 
Q 2956 2369 2687 2733 
Q 2419 3097 1959 3097 
z
M 1959 3584 
Q 2709 3584 3137 3096 
Q 3566 2609 3566 1747 
Q 3566 888 3137 398 
Q 2709 -91 1959 -91 
Q 1206 -91 779 398 
Q 353 888 353 1747 
Q 353 2609 779 3096 
Q 1206 3584 1959 3584 
z
" transform="scale(0.015625)"/>
      </defs>
      <use xlink:href="#DejaVuSans-46"/>
      <use xlink:href="#DejaVuSans-75" x="52.019531"/>
      <use xlink:href="#DejaVuSans-6e" x="115.398438"/>
      <use xlink:href="#DejaVuSans-63" x="178.777344"/>
      <use xlink:href="#DejaVuSans-74" x="233.757812"/>
      <use xlink:href="#DejaVuSans-69" x="272.966797"/>
      <use xlink:href="#DejaVuSans-6f" x="300.75"/>
      <use xlink:href="#DejaVuSans-6e" x="361.931641"/>
     </g>
    </g>
    <g id="patch_8">
     <path d="M 719.536625 38.476563 
L 739.536625 38.476563 
L 739.536625 31.476563 
L 719.536625 31.476563 
z
" style="fill: #1f77b4; stroke: #1f77b4; stroke-linejoin: miter"/>
    </g>
    <g id="text_13">
     <!-- laik_switchto_partitioning -->
     <g transform="translate(747.536625 38.476563) scale(0.1 -0.1)">
      <defs>
       <path id="DejaVuSans-6c" d="M 603 4863 
L 1178 4863 
L 1178 0 
L 603 0 
L 603 4863 
z
" transform="scale(0.015625)"/>
       <path id="DejaVuSans-5f" d="M 3263 -1063 
L 3263 -1509 
L -63 -1509 
L -63 -1063 
L 3263 -1063 
z
" transform="scale(0.015625)"/>
       <path id="DejaVuSans-77" d="M 269 3500 
L 844 3500 
L 1563 769 
L 2278 3500 
L 2956 3500 
L 3675 769 
L 4391 3500 
L 4966 3500 
L 4050 0 
L 3372 0 
L 2619 2869 
L 1863 0 
L 1184 0 
L 269 3500 
z
" transform="scale(0.015625)"/>
       <path id="DejaVuSans-68" d="M 3513 2113 
L 3513 0 
L 2938 0 
L 2938 2094 
Q 2938 2591 2744 2837 
Q 2550 3084 2163 3084 
Q 1697 3084 1428 2787 
Q 1159 2491 1159 1978 
L 1159 0 
L 581 0 
L 581 4863 
L 1159 4863 
L 1159 2956 
Q 1366 3272 1645 3428 
Q 1925 3584 2291 3584 
Q 2894 3584 3203 3211 
Q 3513 2838 3513 2113 
z
" transform="scale(0.015625)"/>
       <path id="DejaVuSans-70" d="M 1159 525 
L 1159 -1331 
L 581 -1331 
L 581 3500 
L 1159 3500 
L 1159 2969 
Q 1341 3281 1617 3432 
Q 1894 3584 2278 3584 
Q 2916 3584 3314 3078 
Q 3713 2572 3713 1747 
Q 3713 922 3314 415 
Q 2916 -91 2278 -91 
Q 1894 -91 1617 61 
Q 1341 213 1159 525 
z
M 3116 1747 
Q 3116 2381 2855 2742 
Q 2594 3103 2138 3103 
Q 1681 3103 1420 2742 
Q 1159 2381 1159 1747 
Q 1159 1113 1420 752 
Q 1681 391 2138 391 
Q 2594 391 2855 752 
Q 3116 1113 3116 1747 
z
" transform="scale(0.015625)"/>
       <path id="DejaVuSans-72" d="M 2631 2963 
Q 2534 3019 2420 3045 
Q 2306 3072 2169 3072 
Q 1681 3072 1420 2755 
Q 1159 2438 1159 1844 
L 1159 0 
L 581 0 
L 581 3500 
L 1159 3500 
L 1159 2956 
Q 1341 3275 1631 3429 
Q 1922 3584 2338 3584 
Q 2397 3584 2469 3576 
Q 2541 3569 2628 3553 
L 2631 2963 
z
" transform="scale(0.015625)"/>
       <path id="DejaVuSans-67" d="M 2906 1791 
Q 2906 2416 2648 2759 
Q 2391 3103 1925 3103 
Q 1463 3103 1205 2759 
Q 947 2416 947 1791 
Q 947 1169 1205 825 
Q 1463 481 1925 481 
Q 2391 481 2648 825 
Q 2906 1169 2906 1791 
z
M 3481 434 
Q 3481 -459 3084 -895 
Q 2688 -1331 1869 -1331 
Q 1566 -1331 1297 -1286 
Q 1028 -1241 775 -1147 
L 775 -588 
Q 1028 -725 1275 -790 
Q 1522 -856 1778 -856 
Q 2344 -856 2625 -561 
Q 2906 -266 2906 331 
L 2906 616 
Q 2728 306 2450 153 
Q 2172 0 1784 0 
Q 1141 0 747 490 
Q 353 981 353 1791 
Q 353 2603 747 3093 
Q 1141 3584 1784 3584 
Q 2172 3584 2450 3431 
Q 2728 3278 2906 2969 
L 2906 3500 
L 3481 3500 
L 3481 434 
z
" transform="scale(0.015625)"/>
      </defs>
      <use xlink:href="#DejaVuSans-6c"/>
      <use xlink:href="#DejaVuSans-61" x="27.783203"/>
      <use xlink:href="#DejaVuSans-69" x="89.0625"/>
      <use xlink:href="#DejaVuSans-6b" x="116.845703"/>
      <use xlink:href="#DejaVuSans-5f" x="174.755859"/>
      <use xlink:href="#DejaVuSans-73" x="224.755859"/>
      <use xlink:href="#DejaVuSans-77" x="276.855469"/>
      <use xlink:href="#DejaVuSans-69" x="358.642578"/>
      <use xlink:href="#DejaVuSans-74" x="386.425781"/>
      <use xlink:href="#DejaVuSans-63" x="425.634766"/>
      <use xlink:href="#DejaVuSans-68" x="480.615234"/>
      <use xlink:href="#DejaVuSans-74" x="543.994141"/>
      <use xlink:href="#DejaVuSans-6f" x="583.203125"/>
      <use xlink:href="#DejaVuSans-5f" x="644.384766"/>
      <use xlink:href="#DejaVuSans-70" x="694.384766"/>
      <use xlink:href="#DejaVuSans-61" x="757.861328"/>
      <use xlink:href="#DejaVuSans-72" x="819.140625"/>
      <use xlink:href="#DejaVuSans-74" x="860.253906"/>
      <use xlink:href="#DejaVuSans-69" x="899.462891"/>
      <use xlink:href="#DejaVuSans-74" x="927.246094"/>
      <use xlink:href="#DejaVuSans-69" x="966.455078"/>
      <use xlink:href="#DejaVuSans-6f" x="994.238281"/>
      <use xlink:href="#DejaVuSans-6e" x="1055.419922"/>
      <use xlink:href="#DejaVuSans-69" x="1118.798828"/>
      <use xlink:href="#DejaVuSans-6e" x="1146.582031"/>
      <use xlink:href="#DejaVuSans-67" x="1209.960938"/>
     </g>
    </g>
    <g id="patch_9">
     <path d="M 719.536625 53.432813 
L 739.536625 53.432813 
L 739.536625 46.432813 
L 719.536625 46.432813 
z
" style="fill: #ff7f0e; stroke: #ff7f0e; stroke-linejoin: miter"/>
    </g>
    <g id="text_14">
     <!-- main -->
     <g transform="translate(747.536625 53.432813) scale(0.1 -0.1)">
      <use xlink:href="#DejaVuSans-6d"/>
      <use xlink:href="#DejaVuSans-61" x="97.412109"/>
      <use xlink:href="#DejaVuSans-69" x="158.691406"/>
      <use xlink:href="#DejaVuSans-6e" x="186.474609"/>
     </g>
    </g>
   </g>
   <g id="BrokenBarHCollection_1">
    <path d="M 34.25 81.757241 
L 34.25 113.04 
L 703.4375 113.04 
L 703.4375 81.757241 
L 34.25 81.757241 
z
" clip-path="url(#pd8723ecac1)" style="fill: #ff7f0e"/>
   </g>
   <g id="BrokenBarHCollection_2">
    <path d="M 36.75 46.998621 
L 36.75 78.281379 
L 703.4375 78.281379 
L 703.4375 46.998621 
L 36.75 46.998621 
z
" clip-path="url(#pd8723ecac1)" style="fill: #ff7f0e"/>
   </g>
   <g id="BrokenBarHCollection_3">
    <path d="M 38.875 81.757241 
L 38.875 113.04 
L 41.375 113.04 
L 41.375 81.757241 
L 38.875 81.757241 
z
" clip-path="url(#pd8723ecac1)" style="fill: #1f77b4"/>
   </g>
   <g id="BrokenBarHCollection_4">
    <path d="M 39.5625 12.24 
L 39.5625 43.522759 
L 703.875 43.522759 
L 703.875 12.24 
L 39.5625 12.24 
z
" clip-path="url(#pd8723ecac1)" style="fill: #ff7f0e"/>
   </g>
   <g id="BrokenBarHCollection_5">
    <path d="M 40.25 46.998621 
L 40.25 78.281379 
L 42.125 78.281379 
L 42.125 46.998621 
L 40.25 46.998621 
z
" clip-path="url(#pd8723ecac1)" style="fill: #1f77b4"/>
   </g>
   <g id="BrokenBarHCollection_6">
    <path d="M 41.375 81.757241 
L 41.375 113.04 
L 41.6875 113.04 
L 41.6875 81.757241 
L 41.375 81.757241 
z
" clip-path="url(#pd8723ecac1)" style="fill: #1f77b4"/>
   </g>
   <g id="BrokenBarHCollection_7">
    <path d="M 41.6875 81.757241 
L 41.6875 113.04 
L 41.875 113.04 
L 41.875 81.757241 
L 41.6875 81.757241 
z
" clip-path="url(#pd8723ecac1)" style="fill: #1f77b4"/>
   </g>
   <g id="BrokenBarHCollection_8">
    <path d="M 41.6875 81.757241 
L 41.6875 113.04 
L 41.6875 113.04 
L 41.6875 81.757241 
L 41.6875 81.757241 
z
" clip-path="url(#pd8723ecac1)" style="fill: #1f77b4"/>
   </g>
   <g id="BrokenBarHCollection_9">
    <path d="M 41.6875 81.757241 
L 41.6875 113.04 
L 41.6875 113.04 
L 41.6875 81.757241 
L 41.6875 81.757241 
z
" clip-path="url(#pd8723ecac1)" style="fill: #1f77b4"/>
   </g>
   <g id="BrokenBarHCollection_10">
    <path d="M 41.875 81.757241 
L 41.875 113.04 
L 42.125 113.04 
L 42.125 81.757241 
L 41.875 81.757241 
z
" clip-path="url(#pd8723ecac1)" style="fill: #1f77b4"/>
   </g>
   <g id="BrokenBarHCollection_11">
    <path d="M 42.125 46.998621 
L 42.125 78.281379 
L 42.3125 78.281379 
L 42.3125 46.998621 
L 42.125 46.998621 
z
" clip-path="url(#pd8723ecac1)" style="fill: #1f77b4"/>
   </g>
   <g id="BrokenBarHCollection_12">
    <path d="M 42.125 46.998621 
L 42.125 78.281379 
L 42.125 78.281379 
L 42.125 46.998621 
L 42.125 46.998621 
z
" clip-path="url(#pd8723ecac1)" style="fill: #1f77b4"/>
   </g>
   <g id="BrokenBarHCollection_13">
    <path d="M 42.3125 46.998621 
L 42.3125 78.281379 
L 42.5625 78.281379 
L 42.5625 46.998621 
L 42.3125 46.998621 
z
" clip-path="url(#pd8723ecac1)" style="fill: #1f77b4"/>
   </g>
   <g id="BrokenBarHCollection_14">
    <path d="M 42.3125 46.998621 
L 42.3125 78.281379 
L 42.3125 78.281379 
L 42.3125 46.998621 
L 42.3125 46.998621 
z
" clip-path="url(#pd8723ecac1)" style="fill: #1f77b4"/>
   </g>
   <g id="BrokenBarHCollection_15">
    <path d="M 42.3125 46.998621 
L 42.3125 78.281379 
L 42.3125 78.281379 
L 42.3125 46.998621 
L 42.3125 46.998621 
z
" clip-path="url(#pd8723ecac1)" style="fill: #1f77b4"/>
   </g>
   <g id="BrokenBarHCollection_16">
    <path d="M 43.25 81.757241 
L 43.25 113.04 
L 78.5625 113.04 
L 78.5625 81.757241 
L 43.25 81.757241 
z
" clip-path="url(#pd8723ecac1)" style="fill: #1f77b4"/>
   </g>
   <g id="BrokenBarHCollection_17">
    <path d="M 43.5 46.998621 
L 43.5 78.281379 
L 78.25 78.281379 
L 78.25 46.998621 
L 43.5 46.998621 
z
" clip-path="url(#pd8723ecac1)" style="fill: #1f77b4"/>
   </g>
   <g id="BrokenBarHCollection_18">
    <path d="M 45.0625 12.24 
L 45.0625 43.522759 
L 47.1875 43.522759 
L 47.1875 12.24 
L 45.0625 12.24 
z
" clip-path="url(#pd8723ecac1)" style="fill: #1f77b4"/>
   </g>
   <g id="BrokenBarHCollection_19">
    <path d="M 47.1875 12.24 
L 47.1875 43.522759 
L 47.6875 43.522759 
L 47.6875 12.24 
L 47.1875 12.24 
z
" clip-path="url(#pd8723ecac1)" style="fill: #1f77b4"/>
   </g>
   <g id="BrokenBarHCollection_20">
    <path d="M 47.6875 12.24 
L 47.6875 43.522759 
L 48.3125 43.522759 
L 48.3125 12.24 
L 47.6875 12.24 
z
" clip-path="url(#pd8723ecac1)" style="fill: #1f77b4"/>
   </g>
   <g id="BrokenBarHCollection_21">
    <path d="M 48.3125 12.24 
L 48.3125 43.522759 
L 48.5625 43.522759 
L 48.5625 12.24 
L 48.3125 12.24 
z
" clip-path="url(#pd8723ecac1)" style="fill: #1f77b4"/>
   </g>
   <g id="BrokenBarHCollection_22">
    <path d="M 48.5625 12.24 
L 48.5625 43.522759 
L 48.8125 43.522759 
L 48.8125 12.24 
L 48.5625 12.24 
z
" clip-path="url(#pd8723ecac1)" style="fill: #1f77b4"/>
   </g>
   <g id="BrokenBarHCollection_23">
    <path d="M 48.8125 12.24 
L 48.8125 43.522759 
L 49.25 43.522759 
L 49.25 12.24 
L 48.8125 12.24 
z
" clip-path="url(#pd8723ecac1)" style="fill: #1f77b4"/>
   </g>
   <g id="BrokenBarHCollection_24">
    <path d="M 54.3125 12.24 
L 54.3125 43.522759 
L 78.75 43.522759 
L 78.75 12.24 
L 54.3125 12.24 
z
" clip-path="url(#pd8723ecac1)" style="fill: #1f77b4"/>
   </g>
   <g id="BrokenBarHCollection_25">
    <path d="M 78.25 46.998621 
L 78.25 78.281379 
L 79.6875 78.281379 
L 79.6875 46.998621 
L 78.25 46.998621 
z
" clip-path="url(#pd8723ecac1)" style="fill: #1f77b4"/>
   </g>
   <g id="BrokenBarHCollection_26">
    <path d="M 78.5625 81.757241 
L 78.5625 113.04 
L 79.875 113.04 
L 79.875 81.757241 
L 78.5625 81.757241 
z
" clip-path="url(#pd8723ecac1)" style="fill: #1f77b4"/>
   </g>
   <g id="BrokenBarHCollection_27">
    <path d="M 78.75 12.24 
L 78.75 43.522759 
L 79.875 43.522759 
L 79.875 12.24 
L 78.75 12.24 
z
" clip-path="url(#pd8723ecac1)" style="fill: #1f77b4"/>
   </g>
   <g id="BrokenBarHCollection_28">
    <path d="M 79.6875 46.998621 
L 79.6875 78.281379 
L 79.875 78.281379 
L 79.875 46.998621 
L 79.6875 46.998621 
z
" clip-path="url(#pd8723ecac1)" style="fill: #1f77b4"/>
   </g>
   <g id="BrokenBarHCollection_29">
    <path d="M 79.875 81.757241 
L 79.875 113.04 
L 80.375 113.04 
L 80.375 81.757241 
L 79.875 81.757241 
z
" clip-path="url(#pd8723ecac1)" style="fill: #1f77b4"/>
   </g>
   <g id="BrokenBarHCollection_30">
    <path d="M 79.875 12.24 
L 79.875 43.522759 
L 80.125 43.522759 
L 80.125 12.24 
L 79.875 12.24 
z
" clip-path="url(#pd8723ecac1)" style="fill: #1f77b4"/>
   </g>
   <g id="BrokenBarHCollection_31">
    <path d="M 79.875 46.998621 
L 79.875 78.281379 
L 80.125 78.281379 
L 80.125 46.998621 
L 79.875 46.998621 
z
" clip-path="url(#pd8723ecac1)" style="fill: #1f77b4"/>
   </g>
   <g id="BrokenBarHCollection_32">
    <path d="M 80.125 12.24 
L 80.125 43.522759 
L 80.375 43.522759 
L 80.375 12.24 
L 80.125 12.24 
z
" clip-path="url(#pd8723ecac1)" style="fill: #1f77b4"/>
   </g>
   <g id="BrokenBarHCollection_33">
    <path d="M 80.375 81.757241 
L 80.375 113.04 
L 80.5625 113.04 
L 80.5625 81.757241 
L 80.375 81.757241 
z
" clip-path="url(#pd8723ecac1)" style="fill: #1f77b4"/>
   </g>
   <g id="BrokenBarHCollection_34">
    <path d="M 80.5625 46.998621 
L 80.5625 78.281379 
L 81.6875 78.281379 
L 81.6875 46.998621 
L 80.5625 46.998621 
z
" clip-path="url(#pd8723ecac1)" style="fill: #1f77b4"/>
   </g>
   <g id="BrokenBarHCollection_35">
    <path d="M 80.5625 12.24 
L 80.5625 43.522759 
L 80.8125 43.522759 
L 80.8125 12.24 
L 80.5625 12.24 
z
" clip-path="url(#pd8723ecac1)" style="fill: #1f77b4"/>
   </g>
   <g id="BrokenBarHCollection_36">
    <path d="M 80.5625 46.998621 
L 80.5625 78.281379 
L 80.5625 78.281379 
L 80.5625 46.998621 
L 80.5625 46.998621 
z
" clip-path="url(#pd8723ecac1)" style="fill: #1f77b4"/>
   </g>
   <g id="BrokenBarHCollection_37">
    <path d="M 80.8125 12.24 
L 80.8125 43.522759 
L 82 43.522759 
L 82 12.24 
L 80.8125 12.24 
z
" clip-path="url(#pd8723ecac1)" style="fill: #1f77b4"/>
   </g>
   <g id="BrokenBarHCollection_38">
    <path d="M 80.8125 81.757241 
L 80.8125 113.04 
L 81.6875 113.04 
L 81.6875 81.757241 
L 80.8125 81.757241 
z
" clip-path="url(#pd8723ecac1)" style="fill: #1f77b4"/>
   </g>
   <g id="BrokenBarHCollection_39">
    <path d="M 80.8125 81.757241 
L 80.8125 113.04 
L 80.8125 113.04 
L 80.8125 81.757241 
L 80.8125 81.757241 
z
" clip-path="url(#pd8723ecac1)" style="fill: #1f77b4"/>
   </g>
   <g id="BrokenBarHCollection_40">
    <path d="M 81.6875 46.998621 
L 81.6875 78.281379 
L 83.125 78.281379 
L 83.125 46.998621 
L 81.6875 46.998621 
z
" clip-path="url(#pd8723ecac1)" style="fill: #1f77b4"/>
   </g>
   <g id="BrokenBarHCollection_41">
    <path d="M 82 12.24 
L 82 43.522759 
L 83.125 43.522759 
L 83.125 12.24 
L 82 12.24 
z
" clip-path="url(#pd8723ecac1)" style="fill: #1f77b4"/>
   </g>
   <g id="BrokenBarHCollection_42">
    <path d="M 82 81.757241 
L 82 113.04 
L 83.125 113.04 
L 83.125 81.757241 
L 82 81.757241 
z
" clip-path="url(#pd8723ecac1)" style="fill: #1f77b4"/>
   </g>
   <g id="BrokenBarHCollection_43">
    <path d="M 83.125 12.24 
L 83.125 43.522759 
L 84.25 43.522759 
L 84.25 12.24 
L 83.125 12.24 
z
" clip-path="url(#pd8723ecac1)" style="fill: #1f77b4"/>
   </g>
   <g id="BrokenBarHCollection_44">
    <path d="M 83.125 46.998621 
L 83.125 78.281379 
L 84 78.281379 
L 84 46.998621 
L 83.125 46.998621 
z
" clip-path="url(#pd8723ecac1)" style="fill: #1f77b4"/>
   </g>
   <g id="BrokenBarHCollection_45">
    <path d="M 83.125 81.757241 
L 83.125 113.04 
L 84 113.04 
L 84 81.757241 
L 83.125 81.757241 
z
" clip-path="url(#pd8723ecac1)" style="fill: #1f77b4"/>
   </g>
   <g id="BrokenBarHCollection_46">
    <path d="M 84 46.998621 
L 84 78.281379 
L 84.9375 78.281379 
L 84.9375 46.998621 
L 84 46.998621 
z
" clip-path="url(#pd8723ecac1)" style="fill: #1f77b4"/>
   </g>
   <g id="BrokenBarHCollection_47">
    <path d="M 84 81.757241 
L 84 113.04 
L 84.9375 113.04 
L 84.9375 81.757241 
L 84 81.757241 
z
" clip-path="url(#pd8723ecac1)" style="fill: #1f77b4"/>
   </g>
   <g id="BrokenBarHCollection_48">
    <path d="M 84.25 12.24 
L 84.25 43.522759 
L 84.9375 43.522759 
L 84.9375 12.24 
L 84.25 12.24 
z
" clip-path="url(#pd8723ecac1)" style="fill: #1f77b4"/>
   </g>
   <g id="BrokenBarHCollection_49">
    <path d="M 85.875 81.757241 
L 85.875 113.04 
L 90.75 113.04 
L 90.75 81.757241 
L 85.875 81.757241 
z
" clip-path="url(#pd8723ecac1)" style="fill: #1f77b4"/>
   </g>
   <g id="BrokenBarHCollection_50">
    <path d="M 85.875 12.24 
L 85.875 43.522759 
L 90.3125 43.522759 
L 90.3125 12.24 
L 85.875 12.24 
z
" clip-path="url(#pd8723ecac1)" style="fill: #1f77b4"/>
   </g>
   <g id="BrokenBarHCollection_51">
    <path d="M 86.125 46.998621 
L 86.125 78.281379 
L 90.5 78.281379 
L 90.5 46.998621 
L 86.125 46.998621 
z
" clip-path="url(#pd8723ecac1)" style="fill: #1f77b4"/>
   </g>
   <g id="BrokenBarHCollection_52">
    <path d="M 90.3125 12.24 
L 90.3125 43.522759 
L 92.8125 43.522759 
L 92.8125 12.24 
L 90.3125 12.24 
z
" clip-path="url(#pd8723ecac1)" style="fill: #1f77b4"/>
   </g>
   <g id="BrokenBarHCollection_53">
    <path d="M 90.5 46.998621 
L 90.5 78.281379 
L 93.25 78.281379 
L 93.25 46.998621 
L 90.5 46.998621 
z
" clip-path="url(#pd8723ecac1)" style="fill: #1f77b4"/>
   </g>
   <g id="BrokenBarHCollection_54">
    <path d="M 90.75 81.757241 
L 90.75 113.04 
L 93.25 113.04 
L 93.25 81.757241 
L 90.75 81.757241 
z
" clip-path="url(#pd8723ecac1)" style="fill: #1f77b4"/>
   </g>
   <g id="BrokenBarHCollection_55">
    <path d="M 92.8125 12.24 
L 92.8125 43.522759 
L 95.125 43.522759 
L 95.125 12.24 
L 92.8125 12.24 
z
" clip-path="url(#pd8723ecac1)" style="fill: #1f77b4"/>
   </g>
   <g id="BrokenBarHCollection_56">
    <path d="M 93.25 46.998621 
L 93.25 78.281379 
L 95.5625 78.281379 
L 95.5625 46.998621 
L 93.25 46.998621 
z
" clip-path="url(#pd8723ecac1)" style="fill: #1f77b4"/>
   </g>
   <g id="BrokenBarHCollection_57">
    <path d="M 93.25 81.757241 
L 93.25 113.04 
L 95.3125 113.04 
L 95.3125 81.757241 
L 93.25 81.757241 
z
" clip-path="url(#pd8723ecac1)" style="fill: #1f77b4"/>
   </g>
   <g id="BrokenBarHCollection_58">
    <path d="M 95.125 12.24 
L 95.125 43.522759 
L 99 43.522759 
L 99 12.24 
L 95.125 12.24 
z
" clip-path="url(#pd8723ecac1)" style="fill: #1f77b4"/>
   </g>
   <g id="BrokenBarHCollection_59">
    <path d="M 95.3125 81.757241 
L 95.3125 113.04 
L 99.25 113.04 
L 99.25 81.757241 
L 95.3125 81.757241 
z
" clip-path="url(#pd8723ecac1)" style="fill: #1f77b4"/>
   </g>
   <g id="BrokenBarHCollection_60">
    <path d="M 95.5625 46.998621 
L 95.5625 78.281379 
L 99.25 78.281379 
L 99.25 46.998621 
L 95.5625 46.998621 
z
" clip-path="url(#pd8723ecac1)" style="fill: #1f77b4"/>
   </g>
   <g id="BrokenBarHCollection_61">
    <path d="M 99 12.24 
L 99 43.522759 
L 99.25 43.522759 
L 99.25 12.24 
L 99 12.24 
z
" clip-path="url(#pd8723ecac1)" style="fill: #1f77b4"/>
   </g>
   <g id="BrokenBarHCollection_62">
    <path d="M 99.25 12.24 
L 99.25 43.522759 
L 99.4375 43.522759 
L 99.4375 12.24 
L 99.25 12.24 
z
" clip-path="url(#pd8723ecac1)" style="fill: #1f77b4"/>
   </g>
   <g id="BrokenBarHCollection_63">
    <path d="M 99.25 46.998621 
L 99.25 78.281379 
L 99.4375 78.281379 
L 99.4375 46.998621 
L 99.25 46.998621 
z
" clip-path="url(#pd8723ecac1)" style="fill: #1f77b4"/>
   </g>
   <g id="BrokenBarHCollection_64">
    <path d="M 99.25 46.998621 
L 99.25 78.281379 
L 99.25 78.281379 
L 99.25 46.998621 
L 99.25 46.998621 
z
" clip-path="url(#pd8723ecac1)" style="fill: #1f77b4"/>
   </g>
   <g id="BrokenBarHCollection_65">
    <path d="M 99.4375 46.998621 
L 99.4375 78.281379 
L 106.625 78.281379 
L 106.625 46.998621 
L 99.4375 46.998621 
z
" clip-path="url(#pd8723ecac1)" style="fill: #1f77b4"/>
   </g>
   <g id="BrokenBarHCollection_66">
    <path d="M 99.4375 12.24 
L 99.4375 43.522759 
L 99.9375 43.522759 
L 99.9375 12.24 
L 99.4375 12.24 
z
" clip-path="url(#pd8723ecac1)" style="fill: #1f77b4"/>
   </g>
   <g id="BrokenBarHCollection_67">
    <path d="M 99.4375 81.757241 
L 99.4375 113.04 
L 99.75 113.04 
L 99.75 81.757241 
L 99.4375 81.757241 
z
" clip-path="url(#pd8723ecac1)" style="fill: #1f77b4"/>
   </g>
   <g id="BrokenBarHCollection_68">
    <path d="M 99.4375 46.998621 
L 99.4375 78.281379 
L 99.4375 78.281379 
L 99.4375 46.998621 
L 99.4375 46.998621 
z
" clip-path="url(#pd8723ecac1)" style="fill: #1f77b4"/>
   </g>
   <g id="BrokenBarHCollection_69">
    <path d="M 99.4375 81.757241 
L 99.4375 113.04 
L 99.4375 113.04 
L 99.4375 81.757241 
L 99.4375 81.757241 
z
" clip-path="url(#pd8723ecac1)" style="fill: #1f77b4"/>
   </g>
   <g id="BrokenBarHCollection_70">
    <path d="M 99.4375 81.757241 
L 99.4375 113.04 
L 99.4375 113.04 
L 99.4375 81.757241 
L 99.4375 81.757241 
z
" clip-path="url(#pd8723ecac1)" style="fill: #1f77b4"/>
   </g>
   <g id="BrokenBarHCollection_71">
    <path d="M 99.75 81.757241 
L 99.75 113.04 
L 106.625 113.04 
L 106.625 81.757241 
L 99.75 81.757241 
z
" clip-path="url(#pd8723ecac1)" style="fill: #1f77b4"/>
   </g>
   <g id="BrokenBarHCollection_72">
    <path d="M 103.4375 12.24 
L 103.4375 43.522759 
L 106.1875 43.522759 
L 106.1875 12.24 
L 103.4375 12.24 
z
" clip-path="url(#pd8723ecac1)" style="fill: #1f77b4"/>
   </g>
   <g id="BrokenBarHCollection_73">
    <path d="M 106.1875 12.24 
L 106.1875 43.522759 
L 107.75 43.522759 
L 107.75 12.24 
L 106.1875 12.24 
z
" clip-path="url(#pd8723ecac1)" style="fill: #1f77b4"/>
   </g>
   <g id="BrokenBarHCollection_74">
    <path d="M 106.625 46.998621 
L 106.625 78.281379 
L 108 78.281379 
L 108 46.998621 
L 106.625 46.998621 
z
" clip-path="url(#pd8723ecac1)" style="fill: #1f77b4"/>
   </g>
   <g id="BrokenBarHCollection_75">
    <path d="M 106.625 81.757241 
L 106.625 113.04 
L 108 113.04 
L 108 81.757241 
L 106.625 81.757241 
z
" clip-path="url(#pd8723ecac1)" style="fill: #1f77b4"/>
   </g>
   <g id="BrokenBarHCollection_76">
    <path d="M 107.75 12.24 
L 107.75 43.522759 
L 109.625 43.522759 
L 109.625 12.24 
L 107.75 12.24 
z
" clip-path="url(#pd8723ecac1)" style="fill: #1f77b4"/>
   </g>
   <g id="BrokenBarHCollection_77">
    <path d="M 108 46.998621 
L 108 78.281379 
L 109.625 78.281379 
L 109.625 46.998621 
L 108 46.998621 
z
" clip-path="url(#pd8723ecac1)" style="fill: #1f77b4"/>
   </g>
   <g id="BrokenBarHCollection_78">
    <path d="M 108 81.757241 
L 108 113.04 
L 109.625 113.04 
L 109.625 81.757241 
L 108 81.757241 
z
" clip-path="url(#pd8723ecac1)" style="fill: #1f77b4"/>
   </g>
   <g id="BrokenBarHCollection_79">
    <path d="M 124.8125 81.757241 
L 124.8125 113.04 
L 155.9375 113.04 
L 155.9375 81.757241 
L 124.8125 81.757241 
z
" clip-path="url(#pd8723ecac1)" style="fill: #1f77b4"/>
   </g>
   <g id="BrokenBarHCollection_80">
    <path d="M 153.4375 12.24 
L 153.4375 43.522759 
L 209.8125 43.522759 
L 209.8125 12.24 
L 153.4375 12.24 
z
" clip-path="url(#pd8723ecac1)" style="fill: #1f77b4"/>
   </g>
   <g id="BrokenBarHCollection_81">
    <path d="M 156.125 81.757241 
L 156.125 113.04 
L 210.75 113.04 
L 210.75 81.757241 
L 156.125 81.757241 
z
" clip-path="url(#pd8723ecac1)" style="fill: #1f77b4"/>
   </g>
   <g id="BrokenBarHCollection_82">
    <path d="M 207.0625 46.998621 
L 207.0625 78.281379 
L 209.625 78.281379 
L 209.625 46.998621 
L 207.0625 46.998621 
z
" clip-path="url(#pd8723ecac1)" style="fill: #1f77b4"/>
   </g>
   <g id="BrokenBarHCollection_83">
    <path d="M 209.625 46.998621 
L 209.625 78.281379 
L 211 78.281379 
L 211 46.998621 
L 209.625 46.998621 
z
" clip-path="url(#pd8723ecac1)" style="fill: #1f77b4"/>
   </g>
   <g id="BrokenBarHCollection_84">
    <path d="M 209.8125 12.24 
L 209.8125 43.522759 
L 211.25 43.522759 
L 211.25 12.24 
L 209.8125 12.24 
z
" clip-path="url(#pd8723ecac1)" style="fill: #1f77b4"/>
   </g>
   <g id="BrokenBarHCollection_85">
    <path d="M 210.75 81.757241 
L 210.75 113.04 
L 214.4375 113.04 
L 214.4375 81.757241 
L 210.75 81.757241 
z
" clip-path="url(#pd8723ecac1)" style="fill: #1f77b4"/>
   </g>
   <g id="BrokenBarHCollection_86">
    <path d="M 211 46.998621 
L 211 78.281379 
L 213.75 78.281379 
L 213.75 46.998621 
L 211 46.998621 
z
" clip-path="url(#pd8723ecac1)" style="fill: #1f77b4"/>
   </g>
   <g id="BrokenBarHCollection_87">
    <path d="M 211.25 12.24 
L 211.25 43.522759 
L 214.25 43.522759 
L 214.25 12.24 
L 211.25 12.24 
z
" clip-path="url(#pd8723ecac1)" style="fill: #1f77b4"/>
   </g>
   <g id="BrokenBarHCollection_88">
    <path d="M 213.75 46.998621 
L 213.75 78.281379 
L 216.0625 78.281379 
L 216.0625 46.998621 
L 213.75 46.998621 
z
" clip-path="url(#pd8723ecac1)" style="fill: #1f77b4"/>
   </g>
   <g id="BrokenBarHCollection_89">
    <path d="M 214.4375 12.24 
L 214.4375 43.522759 
L 216.3125 43.522759 
L 216.3125 12.24 
L 214.4375 12.24 
z
" clip-path="url(#pd8723ecac1)" style="fill: #1f77b4"/>
   </g>
   <g id="BrokenBarHCollection_90">
    <path d="M 214.4375 81.757241 
L 214.4375 113.04 
L 216.3125 113.04 
L 216.3125 81.757241 
L 214.4375 81.757241 
z
" clip-path="url(#pd8723ecac1)" style="fill: #1f77b4"/>
   </g>
   <g id="BrokenBarHCollection_91">
    <path d="M 216.9375 46.998621 
L 216.9375 78.281379 
L 217.25 78.281379 
L 217.25 46.998621 
L 216.9375 46.998621 
z
" clip-path="url(#pd8723ecac1)" style="fill: #1f77b4"/>
   </g>
   <g id="BrokenBarHCollection_92">
    <path d="M 217.25 12.24 
L 217.25 43.522759 
L 218.625 43.522759 
L 218.625 12.24 
L 217.25 12.24 
z
" clip-path="url(#pd8723ecac1)" style="fill: #1f77b4"/>
   </g>
   <g id="BrokenBarHCollection_93">
    <path d="M 217.25 46.998621 
L 217.25 78.281379 
L 218.625 78.281379 
L 218.625 46.998621 
L 217.25 46.998621 
z
" clip-path="url(#pd8723ecac1)" style="fill: #1f77b4"/>
   </g>
   <g id="BrokenBarHCollection_94">
    <path d="M 217.25 81.757241 
L 217.25 113.04 
L 217.4375 113.04 
L 217.4375 81.757241 
L 217.25 81.757241 
z
" clip-path="url(#pd8723ecac1)" style="fill: #1f77b4"/>
   </g>
   <g id="BrokenBarHCollection_95">
    <path d="M 217.25 12.24 
L 217.25 43.522759 
L 217.25 43.522759 
L 217.25 12.24 
L 217.25 12.24 
z
" clip-path="url(#pd8723ecac1)" style="fill: #1f77b4"/>
   </g>
   <g id="BrokenBarHCollection_96">
    <path d="M 217.4375 81.757241 
L 217.4375 113.04 
L 218.625 113.04 
L 218.625 81.757241 
L 217.4375 81.757241 
z
" clip-path="url(#pd8723ecac1)" style="fill: #1f77b4"/>
   </g>
   <g id="BrokenBarHCollection_97">
    <path d="M 218.625 46.998621 
L 218.625 78.281379 
L 220.1875 78.281379 
L 220.1875 46.998621 
L 218.625 46.998621 
z
" clip-path="url(#pd8723ecac1)" style="fill: #1f77b4"/>
   </g>
   <g id="BrokenBarHCollection_98">
    <path d="M 218.625 81.757241 
L 218.625 113.04 
L 220.1875 113.04 
L 220.1875 81.757241 
L 218.625 81.757241 
z
" clip-path="url(#pd8723ecac1)" style="fill: #1f77b4"/>
   </g>
   <g id="BrokenBarHCollection_99">
    <path d="M 219.25 12.24 
L 219.25 43.522759 
L 220.1875 43.522759 
L 220.1875 12.24 
L 219.25 12.24 
z
" clip-path="url(#pd8723ecac1)" style="fill: #1f77b4"/>
   </g>
   <g id="BrokenBarHCollection_100">
    <path d="M 220.1875 12.24 
L 220.1875 43.522759 
L 221.125 43.522759 
L 221.125 12.24 
L 220.1875 12.24 
z
" clip-path="url(#pd8723ecac1)" style="fill: #1f77b4"/>
   </g>
   <g id="BrokenBarHCollection_101">
    <path d="M 220.1875 81.757241 
L 220.1875 113.04 
L 221.125 113.04 
L 221.125 81.757241 
L 220.1875 81.757241 
z
" clip-path="url(#pd8723ecac1)" style="fill: #1f77b4"/>
   </g>
   <g id="BrokenBarHCollection_102">
    <path d="M 220.1875 46.998621 
L 220.1875 78.281379 
L 220.9375 78.281379 
L 220.9375 46.998621 
L 220.1875 46.998621 
z
" clip-path="url(#pd8723ecac1)" style="fill: #1f77b4"/>
   </g>
   <g id="BrokenBarHCollection_103">
    <path d="M 220.9375 46.998621 
L 220.9375 78.281379 
L 221.5625 78.281379 
L 221.5625 46.998621 
L 220.9375 46.998621 
z
" clip-path="url(#pd8723ecac1)" style="fill: #1f77b4"/>
   </g>
   <g id="BrokenBarHCollection_104">
    <path d="M 221.125 12.24 
L 221.125 43.522759 
L 221.5625 43.522759 
L 221.5625 12.24 
L 221.125 12.24 
z
" clip-path="url(#pd8723ecac1)" style="fill: #1f77b4"/>
   </g>
   <g id="BrokenBarHCollection_105">
    <path d="M 221.125 81.757241 
L 221.125 113.04 
L 221.5625 113.04 
L 221.5625 81.757241 
L 221.125 81.757241 
z
" clip-path="url(#pd8723ecac1)" style="fill: #1f77b4"/>
   </g>
   <g id="BrokenBarHCollection_106">
    <path d="M 221.5625 12.24 
L 221.5625 43.522759 
L 222.0625 43.522759 
L 222.0625 12.24 
L 221.5625 12.24 
z
" clip-path="url(#pd8723ecac1)" style="fill: #1f77b4"/>
   </g>
   <g id="BrokenBarHCollection_107">
    <path d="M 221.5625 46.998621 
L 221.5625 78.281379 
L 222.0625 78.281379 
L 222.0625 46.998621 
L 221.5625 46.998621 
z
" clip-path="url(#pd8723ecac1)" style="fill: #1f77b4"/>
   </g>
   <g id="BrokenBarHCollection_108">
    <path d="M 221.5625 81.757241 
L 221.5625 113.04 
L 222.0625 113.04 
L 222.0625 81.757241 
L 221.5625 81.757241 
z
" clip-path="url(#pd8723ecac1)" style="fill: #1f77b4"/>
   </g>
   <g id="BrokenBarHCollection_109">
    <path d="M 222.9375 12.24 
L 222.9375 43.522759 
L 224.625 43.522759 
L 224.625 12.24 
L 222.9375 12.24 
z
" clip-path="url(#pd8723ecac1)" style="fill: #1f77b4"/>
   </g>
   <g id="BrokenBarHCollection_110">
    <path d="M 222.9375 46.998621 
L 222.9375 78.281379 
L 224.625 78.281379 
L 224.625 46.998621 
L 222.9375 46.998621 
z
" clip-path="url(#pd8723ecac1)" style="fill: #1f77b4"/>
   </g>
   <g id="BrokenBarHCollection_111">
    <path d="M 222.9375 81.757241 
L 222.9375 113.04 
L 224.625 113.04 
L 224.625 81.757241 
L 222.9375 81.757241 
z
" clip-path="url(#pd8723ecac1)" style="fill: #1f77b4"/>
   </g>
   <g id="BrokenBarHCollection_112">
    <path d="M 224.625 46.998621 
L 224.625 78.281379 
L 227.875 78.281379 
L 227.875 46.998621 
L 224.625 46.998621 
z
" clip-path="url(#pd8723ecac1)" style="fill: #1f77b4"/>
   </g>
   <g id="BrokenBarHCollection_113">
    <path d="M 224.625 12.24 
L 224.625 43.522759 
L 227.375 43.522759 
L 227.375 12.24 
L 224.625 12.24 
z
" clip-path="url(#pd8723ecac1)" style="fill: #1f77b4"/>
   </g>
   <g id="BrokenBarHCollection_114">
    <path d="M 224.8125 81.757241 
L 224.8125 113.04 
L 227.5625 113.04 
L 227.5625 81.757241 
L 224.8125 81.757241 
z
" clip-path="url(#pd8723ecac1)" style="fill: #1f77b4"/>
   </g>
   <g id="BrokenBarHCollection_115">
    <path d="M 227.375 12.24 
L 227.375 43.522759 
L 229.1875 43.522759 
L 229.1875 12.24 
L 227.375 12.24 
z
" clip-path="url(#pd8723ecac1)" style="fill: #1f77b4"/>
   </g>
   <g id="BrokenBarHCollection_116">
    <path d="M 227.5625 81.757241 
L 227.5625 113.04 
L 229.1875 113.04 
L 229.1875 81.757241 
L 227.5625 81.757241 
z
" clip-path="url(#pd8723ecac1)" style="fill: #1f77b4"/>
   </g>
   <g id="BrokenBarHCollection_117">
    <path d="M 227.875 46.998621 
L 227.875 78.281379 
L 229.1875 78.281379 
L 229.1875 46.998621 
L 227.875 46.998621 
z
" clip-path="url(#pd8723ecac1)" style="fill: #1f77b4"/>
   </g>
   <g id="BrokenBarHCollection_118">
    <path d="M 229.1875 81.757241 
L 229.1875 113.04 
L 230.8125 113.04 
L 230.8125 81.757241 
L 229.1875 81.757241 
z
" clip-path="url(#pd8723ecac1)" style="fill: #1f77b4"/>
   </g>
   <g id="BrokenBarHCollection_119">
    <path d="M 229.1875 12.24 
L 229.1875 43.522759 
L 230.5625 43.522759 
L 230.5625 12.24 
L 229.1875 12.24 
z
" clip-path="url(#pd8723ecac1)" style="fill: #1f77b4"/>
   </g>
   <g id="BrokenBarHCollection_120">
    <path d="M 229.1875 46.998621 
L 229.1875 78.281379 
L 230.5625 78.281379 
L 230.5625 46.998621 
L 229.1875 46.998621 
z
" clip-path="url(#pd8723ecac1)" style="fill: #1f77b4"/>
   </g>
   <g id="BrokenBarHCollection_121">
    <path d="M 230.5625 12.24 
L 230.5625 43.522759 
L 230.8125 43.522759 
L 230.8125 12.24 
L 230.5625 12.24 
z
" clip-path="url(#pd8723ecac1)" style="fill: #1f77b4"/>
   </g>
   <g id="BrokenBarHCollection_122">
    <path d="M 230.8125 12.24 
L 230.8125 43.522759 
L 231 43.522759 
L 231 12.24 
L 230.8125 12.24 
z
" clip-path="url(#pd8723ecac1)" style="fill: #1f77b4"/>
   </g>
   <g id="BrokenBarHCollection_123">
    <path d="M 230.8125 46.998621 
L 230.8125 78.281379 
L 231 78.281379 
L 231 46.998621 
L 230.8125 46.998621 
z
" clip-path="url(#pd8723ecac1)" style="fill: #1f77b4"/>
   </g>
   <g id="BrokenBarHCollection_124">
    <path d="M 230.8125 81.757241 
L 230.8125 113.04 
L 231 113.04 
L 231 81.757241 
L 230.8125 81.757241 
z
" clip-path="url(#pd8723ecac1)" style="fill: #1f77b4"/>
   </g>
   <g id="BrokenBarHCollection_125">
    <path d="M 230.8125 46.998621 
L 230.8125 78.281379 
L 230.8125 78.281379 
L 230.8125 46.998621 
L 230.8125 46.998621 
z
" clip-path="url(#pd8723ecac1)" style="fill: #1f77b4"/>
   </g>
   <g id="BrokenBarHCollection_126">
    <path d="M 230.8125 81.757241 
L 230.8125 113.04 
L 230.8125 113.04 
L 230.8125 81.757241 
L 230.8125 81.757241 
z
" clip-path="url(#pd8723ecac1)" style="fill: #1f77b4"/>
   </g>
   <g id="BrokenBarHCollection_127">
    <path d="M 231 46.998621 
L 231 78.281379 
L 235 78.281379 
L 235 46.998621 
L 231 46.998621 
z
" clip-path="url(#pd8723ecac1)" style="fill: #1f77b4"/>
   </g>
   <g id="BrokenBarHCollection_128">
    <path d="M 231 81.757241 
L 231 113.04 
L 235 113.04 
L 235 81.757241 
L 231 81.757241 
z
" clip-path="url(#pd8723ecac1)" style="fill: #1f77b4"/>
   </g>
   <g id="BrokenBarHCollection_129">
    <path d="M 231 12.24 
L 231 43.522759 
L 231 43.522759 
L 231 12.24 
L 231 12.24 
z
" clip-path="url(#pd8723ecac1)" style="fill: #1f77b4"/>
   </g>
   <g id="BrokenBarHCollection_130">
    <path d="M 231 46.998621 
L 231 78.281379 
L 231 78.281379 
L 231 46.998621 
L 231 46.998621 
z
" clip-path="url(#pd8723ecac1)" style="fill: #1f77b4"/>
   </g>
   <g id="BrokenBarHCollection_131">
    <path d="M 231 81.757241 
L 231 113.04 
L 231 113.04 
L 231 81.757241 
L 231 81.757241 
z
" clip-path="url(#pd8723ecac1)" style="fill: #1f77b4"/>
   </g>
   <g id="BrokenBarHCollection_132">
    <path d="M 233.3125 12.24 
L 233.3125 43.522759 
L 234.6875 43.522759 
L 234.6875 12.24 
L 233.3125 12.24 
z
" clip-path="url(#pd8723ecac1)" style="fill: #1f77b4"/>
   </g>
   <g id="BrokenBarHCollection_133">
    <path d="M 234.6875 12.24 
L 234.6875 43.522759 
L 235.875 43.522759 
L 235.875 12.24 
L 234.6875 12.24 
z
" clip-path="url(#pd8723ecac1)" style="fill: #1f77b4"/>
   </g>
   <g id="BrokenBarHCollection_134">
    <path d="M 235 46.998621 
L 235 78.281379 
L 236.125 78.281379 
L 236.125 46.998621 
L 235 46.998621 
z
" clip-path="url(#pd8723ecac1)" style="fill: #1f77b4"/>
   </g>
   <g id="BrokenBarHCollection_135">
    <path d="M 235 81.757241 
L 235 113.04 
L 236.125 113.04 
L 236.125 81.757241 
L 235 81.757241 
z
" clip-path="url(#pd8723ecac1)" style="fill: #1f77b4"/>
   </g>
   <g id="BrokenBarHCollection_136">
    <path d="M 235.875 12.24 
L 235.875 43.522759 
L 237 43.522759 
L 237 12.24 
L 235.875 12.24 
z
" clip-path="url(#pd8723ecac1)" style="fill: #1f77b4"/>
   </g>
   <g id="BrokenBarHCollection_137">
    <path d="M 236.125 46.998621 
L 236.125 78.281379 
L 237 78.281379 
L 237 46.998621 
L 236.125 46.998621 
z
" clip-path="url(#pd8723ecac1)" style="fill: #1f77b4"/>
   </g>
   <g id="BrokenBarHCollection_138">
    <path d="M 236.125 81.757241 
L 236.125 113.04 
L 237 113.04 
L 237 81.757241 
L 236.125 81.757241 
z
" clip-path="url(#pd8723ecac1)" style="fill: #1f77b4"/>
   </g>
   <g id="BrokenBarHCollection_139">
    <path d="M 252.75 81.757241 
L 252.75 113.04 
L 277.8125 113.04 
L 277.8125 81.757241 
L 252.75 81.757241 
z
" clip-path="url(#pd8723ecac1)" style="fill: #1f77b4"/>
   </g>
   <g id="BrokenBarHCollection_140">
    <path d="M 276.6875 12.24 
L 276.6875 43.522759 
L 330.5625 43.522759 
L 330.5625 12.24 
L 276.6875 12.24 
z
" clip-path="url(#pd8723ecac1)" style="fill: #1f77b4"/>
   </g>
   <g id="BrokenBarHCollection_141">
    <path d="M 277.8125 81.757241 
L 277.8125 113.04 
L 331.5 113.04 
L 331.5 81.757241 
L 277.8125 81.757241 
z
" clip-path="url(#pd8723ecac1)" style="fill: #1f77b4"/>
   </g>
   <g id="BrokenBarHCollection_142">
    <path d="M 329.625 46.998621 
L 329.625 78.281379 
L 330.5625 78.281379 
L 330.5625 46.998621 
L 329.625 46.998621 
z
" clip-path="url(#pd8723ecac1)" style="fill: #1f77b4"/>
   </g>
   <g id="BrokenBarHCollection_143">
    <path d="M 330.5625 46.998621 
L 330.5625 78.281379 
L 331.75 78.281379 
L 331.75 46.998621 
L 330.5625 46.998621 
z
" clip-path="url(#pd8723ecac1)" style="fill: #1f77b4"/>
   </g>
   <g id="BrokenBarHCollection_144">
    <path d="M 330.8125 12.24 
L 330.8125 43.522759 
L 331.75 43.522759 
L 331.75 12.24 
L 330.8125 12.24 
z
" clip-path="url(#pd8723ecac1)" style="fill: #1f77b4"/>
   </g>
   <g id="BrokenBarHCollection_145">
    <path d="M 331.5 81.757241 
L 331.5 113.04 
L 333.8125 113.04 
L 333.8125 81.757241 
L 331.5 81.757241 
z
" clip-path="url(#pd8723ecac1)" style="fill: #1f77b4"/>
   </g>
   <g id="BrokenBarHCollection_146">
    <path d="M 331.75 12.24 
L 331.75 43.522759 
L 333.8125 43.522759 
L 333.8125 12.24 
L 331.75 12.24 
z
" clip-path="url(#pd8723ecac1)" style="fill: #1f77b4"/>
   </g>
   <g id="BrokenBarHCollection_147">
    <path d="M 331.75 46.998621 
L 331.75 78.281379 
L 333.5625 78.281379 
L 333.5625 46.998621 
L 331.75 46.998621 
z
" clip-path="url(#pd8723ecac1)" style="fill: #1f77b4"/>
   </g>
   <g id="BrokenBarHCollection_148">
    <path d="M 333.5625 46.998621 
L 333.5625 78.281379 
L 335.1875 78.281379 
L 335.1875 46.998621 
L 333.5625 46.998621 
z
" clip-path="url(#pd8723ecac1)" style="fill: #1f77b4"/>
   </g>
   <g id="BrokenBarHCollection_149">
    <path d="M 333.8125 12.24 
L 333.8125 43.522759 
L 335.4375 43.522759 
L 335.4375 12.24 
L 333.8125 12.24 
z
" clip-path="url(#pd8723ecac1)" style="fill: #1f77b4"/>
   </g>
   <g id="BrokenBarHCollection_150">
    <path d="M 333.8125 81.757241 
L 333.8125 113.04 
L 335.4375 113.04 
L 335.4375 81.757241 
L 333.8125 81.757241 
z
" clip-path="url(#pd8723ecac1)" style="fill: #1f77b4"/>
   </g>
   <g id="BrokenBarHCollection_151">
    <path d="M 335.625 46.998621 
L 335.625 78.281379 
L 336.5625 78.281379 
L 336.5625 46.998621 
L 335.625 46.998621 
z
" clip-path="url(#pd8723ecac1)" style="fill: #1f77b4"/>
   </g>
   <g id="BrokenBarHCollection_152">
    <path d="M 335.875 12.24 
L 335.875 43.522759 
L 336.5625 43.522759 
L 336.5625 12.24 
L 335.875 12.24 
z
" clip-path="url(#pd8723ecac1)" style="fill: #1f77b4"/>
   </g>
   <g id="BrokenBarHCollection_153">
    <path d="M 335.875 81.757241 
L 335.875 113.04 
L 336.5625 113.04 
L 336.5625 81.757241 
L 335.875 81.757241 
z
" clip-path="url(#pd8723ecac1)" style="fill: #1f77b4"/>
   </g>
   <g id="BrokenBarHCollection_154">
    <path d="M 336.5625 12.24 
L 336.5625 43.522759 
L 337.25 43.522759 
L 337.25 12.24 
L 336.5625 12.24 
z
" clip-path="url(#pd8723ecac1)" style="fill: #1f77b4"/>
   </g>
   <g id="BrokenBarHCollection_155">
    <path d="M 336.5625 46.998621 
L 336.5625 78.281379 
L 337.25 78.281379 
L 337.25 46.998621 
L 336.5625 46.998621 
z
" clip-path="url(#pd8723ecac1)" style="fill: #1f77b4"/>
   </g>
   <g id="BrokenBarHCollection_156">
    <path d="M 336.5625 81.757241 
L 336.5625 113.04 
L 337.25 113.04 
L 337.25 81.757241 
L 336.5625 81.757241 
z
" clip-path="url(#pd8723ecac1)" style="fill: #1f77b4"/>
   </g>
   <g id="BrokenBarHCollection_157">
    <path d="M 337.25 81.757241 
L 337.25 113.04 
L 337.9375 113.04 
L 337.9375 81.757241 
L 337.25 81.757241 
z
" clip-path="url(#pd8723ecac1)" style="fill: #1f77b4"/>
   </g>
   <g id="BrokenBarHCollection_158">
    <path d="M 337.25 12.24 
L 337.25 43.522759 
L 337.6875 43.522759 
L 337.6875 12.24 
L 337.25 12.24 
z
" clip-path="url(#pd8723ecac1)" style="fill: #1f77b4"/>
   </g>
   <g id="BrokenBarHCollection_159">
    <path d="M 337.25 46.998621 
L 337.25 78.281379 
L 337.6875 78.281379 
L 337.6875 46.998621 
L 337.25 46.998621 
z
" clip-path="url(#pd8723ecac1)" style="fill: #1f77b4"/>
   </g>
   <g id="BrokenBarHCollection_160">
    <path d="M 337.6875 12.24 
L 337.6875 43.522759 
L 338.1875 43.522759 
L 338.1875 12.24 
L 337.6875 12.24 
z
" clip-path="url(#pd8723ecac1)" style="fill: #1f77b4"/>
   </g>
   <g id="BrokenBarHCollection_161">
    <path d="M 337.6875 46.998621 
L 337.6875 78.281379 
L 338.1875 78.281379 
L 338.1875 46.998621 
L 337.6875 46.998621 
z
" clip-path="url(#pd8723ecac1)" style="fill: #1f77b4"/>
   </g>
   <g id="BrokenBarHCollection_162">
    <path d="M 337.9375 81.757241 
L 337.9375 113.04 
L 338.1875 113.04 
L 338.1875 81.757241 
L 337.9375 81.757241 
z
" clip-path="url(#pd8723ecac1)" style="fill: #1f77b4"/>
   </g>
   <g id="BrokenBarHCollection_163">
    <path d="M 339.0625 12.24 
L 339.0625 43.522759 
L 340.75 43.522759 
L 340.75 12.24 
L 339.0625 12.24 
z
" clip-path="url(#pd8723ecac1)" style="fill: #1f77b4"/>
   </g>
   <g id="BrokenBarHCollection_164">
    <path d="M 339.0625 46.998621 
L 339.0625 78.281379 
L 340.75 78.281379 
L 340.75 46.998621 
L 339.0625 46.998621 
z
" clip-path="url(#pd8723ecac1)" style="fill: #1f77b4"/>
   </g>
   <g id="BrokenBarHCollection_165">
    <path d="M 339.0625 81.757241 
L 339.0625 113.04 
L 340.75 113.04 
L 340.75 81.757241 
L 339.0625 81.757241 
z
" clip-path="url(#pd8723ecac1)" style="fill: #1f77b4"/>
   </g>
   <g id="BrokenBarHCollection_166">
    <path d="M 340.75 81.757241 
L 340.75 113.04 
L 350.8125 113.04 
L 350.8125 81.757241 
L 340.75 81.757241 
z
" clip-path="url(#pd8723ecac1)" style="fill: #1f77b4"/>
   </g>
   <g id="BrokenBarHCollection_167">
    <path d="M 340.75 46.998621 
L 340.75 78.281379 
L 350.625 78.281379 
L 350.625 46.998621 
L 340.75 46.998621 
z
" clip-path="url(#pd8723ecac1)" style="fill: #1f77b4"/>
   </g>
   <g id="BrokenBarHCollection_168">
    <path d="M 340.75 12.24 
L 340.75 43.522759 
L 350.375 43.522759 
L 350.375 12.24 
L 340.75 12.24 
z
" clip-path="url(#pd8723ecac1)" style="fill: #1f77b4"/>
   </g>
   <g id="BrokenBarHCollection_169">
    <path d="M 350.375 12.24 
L 350.375 43.522759 
L 352 43.522759 
L 352 12.24 
L 350.375 12.24 
z
" clip-path="url(#pd8723ecac1)" style="fill: #1f77b4"/>
   </g>
   <g id="BrokenBarHCollection_170">
    <path d="M 350.625 46.998621 
L 350.625 78.281379 
L 352 78.281379 
L 352 46.998621 
L 350.625 46.998621 
z
" clip-path="url(#pd8723ecac1)" style="fill: #1f77b4"/>
   </g>
   <g id="BrokenBarHCollection_171">
    <path d="M 350.8125 81.757241 
L 350.8125 113.04 
L 352.1875 113.04 
L 352.1875 81.757241 
L 350.8125 81.757241 
z
" clip-path="url(#pd8723ecac1)" style="fill: #1f77b4"/>
   </g>
   <g id="BrokenBarHCollection_172">
    <path d="M 352 46.998621 
L 352 78.281379 
L 353.375 78.281379 
L 353.375 46.998621 
L 352 46.998621 
z
" clip-path="url(#pd8723ecac1)" style="fill: #1f77b4"/>
   </g>
   <g id="BrokenBarHCollection_173">
    <path d="M 352.1875 12.24 
L 352.1875 43.522759 
L 353.375 43.522759 
L 353.375 12.24 
L 352.1875 12.24 
z
" clip-path="url(#pd8723ecac1)" style="fill: #1f77b4"/>
   </g>
   <g id="BrokenBarHCollection_174">
    <path d="M 352.1875 81.757241 
L 352.1875 113.04 
L 353.375 113.04 
L 353.375 81.757241 
L 352.1875 81.757241 
z
" clip-path="url(#pd8723ecac1)" style="fill: #1f77b4"/>
   </g>
   <g id="BrokenBarHCollection_175">
    <path d="M 353.375 12.24 
L 353.375 43.522759 
L 353.625 43.522759 
L 353.625 12.24 
L 353.375 12.24 
z
" clip-path="url(#pd8723ecac1)" style="fill: #1f77b4"/>
   </g>
   <g id="BrokenBarHCollection_176">
    <path d="M 353.375 46.998621 
L 353.375 78.281379 
L 353.625 78.281379 
L 353.625 46.998621 
L 353.375 46.998621 
z
" clip-path="url(#pd8723ecac1)" style="fill: #1f77b4"/>
   </g>
   <g id="BrokenBarHCollection_177">
    <path d="M 353.375 81.757241 
L 353.375 113.04 
L 353.625 113.04 
L 353.625 81.757241 
L 353.375 81.757241 
z
" clip-path="url(#pd8723ecac1)" style="fill: #1f77b4"/>
   </g>
   <g id="BrokenBarHCollection_178">
    <path d="M 353.625 12.24 
L 353.625 43.522759 
L 353.875 43.522759 
L 353.875 12.24 
L 353.625 12.24 
z
" clip-path="url(#pd8723ecac1)" style="fill: #1f77b4"/>
   </g>
   <g id="BrokenBarHCollection_179">
    <path d="M 353.625 46.998621 
L 353.625 78.281379 
L 353.875 78.281379 
L 353.875 46.998621 
L 353.625 46.998621 
z
" clip-path="url(#pd8723ecac1)" style="fill: #1f77b4"/>
   </g>
   <g id="BrokenBarHCollection_180">
    <path d="M 353.625 81.757241 
L 353.625 113.04 
L 353.875 113.04 
L 353.875 81.757241 
L 353.625 81.757241 
z
" clip-path="url(#pd8723ecac1)" style="fill: #1f77b4"/>
   </g>
   <g id="BrokenBarHCollection_181">
    <path d="M 353.625 12.24 
L 353.625 43.522759 
L 353.625 43.522759 
L 353.625 12.24 
L 353.625 12.24 
z
" clip-path="url(#pd8723ecac1)" style="fill: #1f77b4"/>
   </g>
   <g id="BrokenBarHCollection_182">
    <path d="M 353.625 46.998621 
L 353.625 78.281379 
L 353.625 78.281379 
L 353.625 46.998621 
L 353.625 46.998621 
z
" clip-path="url(#pd8723ecac1)" style="fill: #1f77b4"/>
   </g>
   <g id="BrokenBarHCollection_183">
    <path d="M 353.625 81.757241 
L 353.625 113.04 
L 353.625 113.04 
L 353.625 81.757241 
L 353.625 81.757241 
z
" clip-path="url(#pd8723ecac1)" style="fill: #1f77b4"/>
   </g>
   <g id="BrokenBarHCollection_184">
    <path d="M 353.875 46.998621 
L 353.875 78.281379 
L 357.5625 78.281379 
L 357.5625 46.998621 
L 353.875 46.998621 
z
" clip-path="url(#pd8723ecac1)" style="fill: #1f77b4"/>
   </g>
   <g id="BrokenBarHCollection_185">
    <path d="M 353.875 81.757241 
L 353.875 113.04 
L 357.5625 113.04 
L 357.5625 81.757241 
L 353.875 81.757241 
z
" clip-path="url(#pd8723ecac1)" style="fill: #1f77b4"/>
   </g>
   <g id="BrokenBarHCollection_186">
    <path d="M 356.1875 12.24 
L 356.1875 43.522759 
L 357.3125 43.522759 
L 357.3125 12.24 
L 356.1875 12.24 
z
" clip-path="url(#pd8723ecac1)" style="fill: #1f77b4"/>
   </g>
   <g id="BrokenBarHCollection_187">
    <path d="M 357.3125 12.24 
L 357.3125 43.522759 
L 358.5 43.522759 
L 358.5 12.24 
L 357.3125 12.24 
z
" clip-path="url(#pd8723ecac1)" style="fill: #1f77b4"/>
   </g>
   <g id="BrokenBarHCollection_188">
    <path d="M 357.5625 46.998621 
L 357.5625 78.281379 
L 358.6875 78.281379 
L 358.6875 46.998621 
L 357.5625 46.998621 
z
" clip-path="url(#pd8723ecac1)" style="fill: #1f77b4"/>
   </g>
   <g id="BrokenBarHCollection_189">
    <path d="M 357.5625 81.757241 
L 357.5625 113.04 
L 358.6875 113.04 
L 358.6875 81.757241 
L 357.5625 81.757241 
z
" clip-path="url(#pd8723ecac1)" style="fill: #1f77b4"/>
   </g>
   <g id="BrokenBarHCollection_190">
    <path d="M 358.5 12.24 
L 358.5 43.522759 
L 359.625 43.522759 
L 359.625 12.24 
L 358.5 12.24 
z
" clip-path="url(#pd8723ecac1)" style="fill: #1f77b4"/>
   </g>
   <g id="BrokenBarHCollection_191">
    <path d="M 358.6875 46.998621 
L 358.6875 78.281379 
L 359.625 78.281379 
L 359.625 46.998621 
L 358.6875 46.998621 
z
" clip-path="url(#pd8723ecac1)" style="fill: #1f77b4"/>
   </g>
   <g id="BrokenBarHCollection_192">
    <path d="M 358.6875 81.757241 
L 358.6875 113.04 
L 359.625 113.04 
L 359.625 81.757241 
L 358.6875 81.757241 
z
" clip-path="url(#pd8723ecac1)" style="fill: #1f77b4"/>
   </g>
   <g id="BrokenBarHCollection_193">
    <path d="M 373 81.757241 
L 373 113.04 
L 399 113.04 
L 399 81.757241 
L 373 81.757241 
z
" clip-path="url(#pd8723ecac1)" style="fill: #1f77b4"/>
   </g>
   <g id="BrokenBarHCollection_194">
    <path d="M 397.875 12.24 
L 397.875 43.522759 
L 454.3125 43.522759 
L 454.3125 12.24 
L 397.875 12.24 
z
" clip-path="url(#pd8723ecac1)" style="fill: #1f77b4"/>
   </g>
   <g id="BrokenBarHCollection_195">
    <path d="M 399 81.757241 
L 399 113.04 
L 455.25 113.04 
L 455.25 81.757241 
L 399 81.757241 
z
" clip-path="url(#pd8723ecac1)" style="fill: #1f77b4"/>
   </g>
   <g id="BrokenBarHCollection_196">
    <path d="M 450.875 46.998621 
L 450.875 78.281379 
L 454.5625 78.281379 
L 454.5625 46.998621 
L 450.875 46.998621 
z
" clip-path="url(#pd8723ecac1)" style="fill: #1f77b4"/>
   </g>
   <g id="BrokenBarHCollection_197">
    <path d="M 454.3125 12.24 
L 454.3125 43.522759 
L 455.5 43.522759 
L 455.5 12.24 
L 454.3125 12.24 
z
" clip-path="url(#pd8723ecac1)" style="fill: #1f77b4"/>
   </g>
   <g id="BrokenBarHCollection_198">
    <path d="M 454.5625 46.998621 
L 454.5625 78.281379 
L 455.5 78.281379 
L 455.5 46.998621 
L 454.5625 46.998621 
z
" clip-path="url(#pd8723ecac1)" style="fill: #1f77b4"/>
   </g>
   <g id="BrokenBarHCollection_199">
    <path d="M 455.25 81.757241 
L 455.25 113.04 
L 459.1875 113.04 
L 459.1875 81.757241 
L 455.25 81.757241 
z
" clip-path="url(#pd8723ecac1)" style="fill: #1f77b4"/>
   </g>
   <g id="BrokenBarHCollection_200">
    <path d="M 455.5 46.998621 
L 455.5 78.281379 
L 459.1875 78.281379 
L 459.1875 46.998621 
L 455.5 46.998621 
z
" clip-path="url(#pd8723ecac1)" style="fill: #1f77b4"/>
   </g>
   <g id="BrokenBarHCollection_201">
    <path d="M 455.6875 12.24 
L 455.6875 43.522759 
L 459.1875 43.522759 
L 459.1875 12.24 
L 455.6875 12.24 
z
" clip-path="url(#pd8723ecac1)" style="fill: #1f77b4"/>
   </g>
   <g id="BrokenBarHCollection_202">
    <path d="M 459.1875 12.24 
L 459.1875 43.522759 
L 461 43.522759 
L 461 12.24 
L 459.1875 12.24 
z
" clip-path="url(#pd8723ecac1)" style="fill: #1f77b4"/>
   </g>
   <g id="BrokenBarHCollection_203">
    <path d="M 459.1875 46.998621 
L 459.1875 78.281379 
L 461 78.281379 
L 461 46.998621 
L 459.1875 46.998621 
z
" clip-path="url(#pd8723ecac1)" style="fill: #1f77b4"/>
   </g>
   <g id="BrokenBarHCollection_204">
    <path d="M 459.1875 81.757241 
L 459.1875 113.04 
L 461 113.04 
L 461 81.757241 
L 459.1875 81.757241 
z
" clip-path="url(#pd8723ecac1)" style="fill: #1f77b4"/>
   </g>
   <g id="BrokenBarHCollection_205">
    <path d="M 461.5 12.24 
L 461.5 43.522759 
L 462.625 43.522759 
L 462.625 12.24 
L 461.5 12.24 
z
" clip-path="url(#pd8723ecac1)" style="fill: #1f77b4"/>
   </g>
   <g id="BrokenBarHCollection_206">
    <path d="M 461.5 46.998621 
L 461.5 78.281379 
L 462.625 78.281379 
L 462.625 46.998621 
L 461.5 46.998621 
z
" clip-path="url(#pd8723ecac1)" style="fill: #1f77b4"/>
   </g>
   <g id="BrokenBarHCollection_207">
    <path d="M 461.5 81.757241 
L 461.5 113.04 
L 462.125 113.04 
L 462.125 81.757241 
L 461.5 81.757241 
z
" clip-path="url(#pd8723ecac1)" style="fill: #1f77b4"/>
   </g>
   <g id="BrokenBarHCollection_208">
    <path d="M 462.125 81.757241 
L 462.125 113.04 
L 463.3125 113.04 
L 463.3125 81.757241 
L 462.125 81.757241 
z
" clip-path="url(#pd8723ecac1)" style="fill: #1f77b4"/>
   </g>
   <g id="BrokenBarHCollection_209">
    <path d="M 462.625 12.24 
L 462.625 43.522759 
L 463.5 43.522759 
L 463.5 12.24 
L 462.625 12.24 
z
" clip-path="url(#pd8723ecac1)" style="fill: #1f77b4"/>
   </g>
   <g id="BrokenBarHCollection_210">
    <path d="M 462.625 46.998621 
L 462.625 78.281379 
L 463.3125 78.281379 
L 463.3125 46.998621 
L 462.625 46.998621 
z
" clip-path="url(#pd8723ecac1)" style="fill: #1f77b4"/>
   </g>
   <g id="BrokenBarHCollection_211">
    <path d="M 463.3125 46.998621 
L 463.3125 78.281379 
L 464 78.281379 
L 464 46.998621 
L 463.3125 46.998621 
z
" clip-path="url(#pd8723ecac1)" style="fill: #1f77b4"/>
   </g>
   <g id="BrokenBarHCollection_212">
    <path d="M 463.5 12.24 
L 463.5 43.522759 
L 464 43.522759 
L 464 12.24 
L 463.5 12.24 
z
" clip-path="url(#pd8723ecac1)" style="fill: #1f77b4"/>
   </g>
   <g id="BrokenBarHCollection_213">
    <path d="M 463.5 81.757241 
L 463.5 113.04 
L 463.8125 113.04 
L 463.8125 81.757241 
L 463.5 81.757241 
z
" clip-path="url(#pd8723ecac1)" style="fill: #1f77b4"/>
   </g>
   <g id="BrokenBarHCollection_214">
    <path d="M 463.8125 81.757241 
L 463.8125 113.04 
L 464.25 113.04 
L 464.25 81.757241 
L 463.8125 81.757241 
z
" clip-path="url(#pd8723ecac1)" style="fill: #1f77b4"/>
   </g>
   <g id="BrokenBarHCollection_215">
    <path d="M 464 46.998621 
L 464 78.281379 
L 464.4375 78.281379 
L 464.4375 46.998621 
L 464 46.998621 
z
" clip-path="url(#pd8723ecac1)" style="fill: #1f77b4"/>
   </g>
   <g id="BrokenBarHCollection_216">
    <path d="M 464 12.24 
L 464 43.522759 
L 464.25 43.522759 
L 464.25 12.24 
L 464 12.24 
z
" clip-path="url(#pd8723ecac1)" style="fill: #1f77b4"/>
   </g>
   <g id="BrokenBarHCollection_217">
    <path d="M 465.1875 12.24 
L 465.1875 43.522759 
L 467.5 43.522759 
L 467.5 12.24 
L 465.1875 12.24 
z
" clip-path="url(#pd8723ecac1)" style="fill: #1f77b4"/>
   </g>
   <g id="BrokenBarHCollection_218">
    <path d="M 465.1875 81.757241 
L 465.1875 113.04 
L 467.5 113.04 
L 467.5 81.757241 
L 465.1875 81.757241 
z
" clip-path="url(#pd8723ecac1)" style="fill: #1f77b4"/>
   </g>
   <g id="BrokenBarHCollection_219">
    <path d="M 465.375 46.998621 
L 465.375 78.281379 
L 467.6875 78.281379 
L 467.6875 46.998621 
L 465.375 46.998621 
z
" clip-path="url(#pd8723ecac1)" style="fill: #1f77b4"/>
   </g>
   <g id="BrokenBarHCollection_220">
    <path d="M 467.5 12.24 
L 467.5 43.522759 
L 469.3125 43.522759 
L 469.3125 12.24 
L 467.5 12.24 
z
" clip-path="url(#pd8723ecac1)" style="fill: #1f77b4"/>
   </g>
   <g id="BrokenBarHCollection_221">
    <path d="M 467.6875 46.998621 
L 467.6875 78.281379 
L 469.3125 78.281379 
L 469.3125 46.998621 
L 467.6875 46.998621 
z
" clip-path="url(#pd8723ecac1)" style="fill: #1f77b4"/>
   </g>
   <g id="BrokenBarHCollection_222">
    <path d="M 467.6875 81.757241 
L 467.6875 113.04 
L 469.3125 113.04 
L 469.3125 81.757241 
L 467.6875 81.757241 
z
" clip-path="url(#pd8723ecac1)" style="fill: #1f77b4"/>
   </g>
   <g id="BrokenBarHCollection_223">
    <path d="M 469.3125 12.24 
L 469.3125 43.522759 
L 470.625 43.522759 
L 470.625 12.24 
L 469.3125 12.24 
z
" clip-path="url(#pd8723ecac1)" style="fill: #1f77b4"/>
   </g>
   <g id="BrokenBarHCollection_224">
    <path d="M 469.3125 46.998621 
L 469.3125 78.281379 
L 470.625 78.281379 
L 470.625 46.998621 
L 469.3125 46.998621 
z
" clip-path="url(#pd8723ecac1)" style="fill: #1f77b4"/>
   </g>
   <g id="BrokenBarHCollection_225">
    <path d="M 469.3125 81.757241 
L 469.3125 113.04 
L 470.625 113.04 
L 470.625 81.757241 
L 469.3125 81.757241 
z
" clip-path="url(#pd8723ecac1)" style="fill: #1f77b4"/>
   </g>
   <g id="BrokenBarHCollection_226">
    <path d="M 470.625 12.24 
L 470.625 43.522759 
L 472 43.522759 
L 472 12.24 
L 470.625 12.24 
z
" clip-path="url(#pd8723ecac1)" style="fill: #1f77b4"/>
   </g>
   <g id="BrokenBarHCollection_227">
    <path d="M 470.625 46.998621 
L 470.625 78.281379 
L 472 78.281379 
L 472 46.998621 
L 470.625 46.998621 
z
" clip-path="url(#pd8723ecac1)" style="fill: #1f77b4"/>
   </g>
   <g id="BrokenBarHCollection_228">
    <path d="M 470.625 81.757241 
L 470.625 113.04 
L 472 113.04 
L 472 81.757241 
L 470.625 81.757241 
z
" clip-path="url(#pd8723ecac1)" style="fill: #1f77b4"/>
   </g>
   <g id="BrokenBarHCollection_229">
    <path d="M 472 12.24 
L 472 43.522759 
L 472.3125 43.522759 
L 472.3125 12.24 
L 472 12.24 
z
" clip-path="url(#pd8723ecac1)" style="fill: #1f77b4"/>
   </g>
   <g id="BrokenBarHCollection_230">
    <path d="M 472 46.998621 
L 472 78.281379 
L 472.3125 78.281379 
L 472.3125 46.998621 
L 472 46.998621 
z
" clip-path="url(#pd8723ecac1)" style="fill: #1f77b4"/>
   </g>
   <g id="BrokenBarHCollection_231">
    <path d="M 472 81.757241 
L 472 113.04 
L 472.3125 113.04 
L 472.3125 81.757241 
L 472 81.757241 
z
" clip-path="url(#pd8723ecac1)" style="fill: #1f77b4"/>
   </g>
   <g id="BrokenBarHCollection_232">
    <path d="M 472.3125 12.24 
L 472.3125 43.522759 
L 472.5 43.522759 
L 472.5 12.24 
L 472.3125 12.24 
z
" clip-path="url(#pd8723ecac1)" style="fill: #1f77b4"/>
   </g>
   <g id="BrokenBarHCollection_233">
    <path d="M 472.3125 46.998621 
L 472.3125 78.281379 
L 472.5 78.281379 
L 472.5 46.998621 
L 472.3125 46.998621 
z
" clip-path="url(#pd8723ecac1)" style="fill: #1f77b4"/>
   </g>
   <g id="BrokenBarHCollection_234">
    <path d="M 472.3125 12.24 
L 472.3125 43.522759 
L 472.3125 43.522759 
L 472.3125 12.24 
L 472.3125 12.24 
z
" clip-path="url(#pd8723ecac1)" style="fill: #1f77b4"/>
   </g>
   <g id="BrokenBarHCollection_235">
    <path d="M 472.3125 81.757241 
L 472.3125 113.04 
L 472.3125 113.04 
L 472.3125 81.757241 
L 472.3125 81.757241 
z
" clip-path="url(#pd8723ecac1)" style="fill: #1f77b4"/>
   </g>
   <g id="BrokenBarHCollection_236">
    <path d="M 472.3125 81.757241 
L 472.3125 113.04 
L 472.3125 113.04 
L 472.3125 81.757241 
L 472.3125 81.757241 
z
" clip-path="url(#pd8723ecac1)" style="fill: #1f77b4"/>
   </g>
   <g id="BrokenBarHCollection_237">
    <path d="M 472.5 46.998621 
L 472.5 78.281379 
L 476.4375 78.281379 
L 476.4375 46.998621 
L 472.5 46.998621 
z
" clip-path="url(#pd8723ecac1)" style="fill: #1f77b4"/>
   </g>
   <g id="BrokenBarHCollection_238">
    <path d="M 472.5 81.757241 
L 472.5 113.04 
L 476.4375 113.04 
L 476.4375 81.757241 
L 472.5 81.757241 
z
" clip-path="url(#pd8723ecac1)" style="fill: #1f77b4"/>
   </g>
   <g id="BrokenBarHCollection_239">
    <path d="M 472.5 46.998621 
L 472.5 78.281379 
L 472.5 78.281379 
L 472.5 46.998621 
L 472.5 46.998621 
z
" clip-path="url(#pd8723ecac1)" style="fill: #1f77b4"/>
   </g>
   <g id="BrokenBarHCollection_240">
    <path d="M 474.8125 12.24 
L 474.8125 43.522759 
L 476 43.522759 
L 476 12.24 
L 474.8125 12.24 
z
" clip-path="url(#pd8723ecac1)" style="fill: #1f77b4"/>
   </g>
   <g id="BrokenBarHCollection_241">
    <path d="M 476.1875 12.24 
L 476.1875 43.522759 
L 477.375 43.522759 
L 477.375 12.24 
L 476.1875 12.24 
z
" clip-path="url(#pd8723ecac1)" style="fill: #1f77b4"/>
   </g>
   <g id="BrokenBarHCollection_242">
    <path d="M 476.4375 46.998621 
L 476.4375 78.281379 
L 477.5625 78.281379 
L 477.5625 46.998621 
L 476.4375 46.998621 
z
" clip-path="url(#pd8723ecac1)" style="fill: #1f77b4"/>
   </g>
   <g id="BrokenBarHCollection_243">
    <path d="M 476.4375 81.757241 
L 476.4375 113.04 
L 477.5625 113.04 
L 477.5625 81.757241 
L 476.4375 81.757241 
z
" clip-path="url(#pd8723ecac1)" style="fill: #1f77b4"/>
   </g>
   <g id="BrokenBarHCollection_244">
    <path d="M 477.375 12.24 
L 477.375 43.522759 
L 478.5 43.522759 
L 478.5 12.24 
L 477.375 12.24 
z
" clip-path="url(#pd8723ecac1)" style="fill: #1f77b4"/>
   </g>
   <g id="BrokenBarHCollection_245">
    <path d="M 477.5625 46.998621 
L 477.5625 78.281379 
L 478.5 78.281379 
L 478.5 46.998621 
L 477.5625 46.998621 
z
" clip-path="url(#pd8723ecac1)" style="fill: #1f77b4"/>
   </g>
   <g id="BrokenBarHCollection_246">
    <path d="M 477.5625 81.757241 
L 477.5625 113.04 
L 478.3125 113.04 
L 478.3125 81.757241 
L 477.5625 81.757241 
z
" clip-path="url(#pd8723ecac1)" style="fill: #1f77b4"/>
   </g>
   <g id="BrokenBarHCollection_247">
    <path d="M 491.1875 81.757241 
L 491.1875 113.04 
L 516.75 113.04 
L 516.75 81.757241 
L 491.1875 81.757241 
z
" clip-path="url(#pd8723ecac1)" style="fill: #1f77b4"/>
   </g>
   <g id="BrokenBarHCollection_248">
    <path d="M 515.8125 12.24 
L 515.8125 43.522759 
L 578.25 43.522759 
L 578.25 12.24 
L 515.8125 12.24 
z
" clip-path="url(#pd8723ecac1)" style="fill: #1f77b4"/>
   </g>
   <g id="BrokenBarHCollection_249">
    <path d="M 516.75 81.757241 
L 516.75 113.04 
L 579 113.04 
L 579 81.757241 
L 516.75 81.757241 
z
" clip-path="url(#pd8723ecac1)" style="fill: #1f77b4"/>
   </g>
   <g id="BrokenBarHCollection_250">
    <path d="M 577.3125 46.998621 
L 577.3125 78.281379 
L 578.0625 78.281379 
L 578.0625 46.998621 
L 577.3125 46.998621 
z
" clip-path="url(#pd8723ecac1)" style="fill: #1f77b4"/>
   </g>
   <g id="BrokenBarHCollection_251">
    <path d="M 578.25 12.24 
L 578.25 43.522759 
L 579.1875 43.522759 
L 579.1875 12.24 
L 578.25 12.24 
z
" clip-path="url(#pd8723ecac1)" style="fill: #1f77b4"/>
   </g>
   <g id="BrokenBarHCollection_252">
    <path d="M 578.25 46.998621 
L 578.25 78.281379 
L 579.1875 78.281379 
L 579.1875 46.998621 
L 578.25 46.998621 
z
" clip-path="url(#pd8723ecac1)" style="fill: #1f77b4"/>
   </g>
   <g id="BrokenBarHCollection_253">
    <path d="M 579 81.757241 
L 579 113.04 
L 581 113.04 
L 581 81.757241 
L 579 81.757241 
z
" clip-path="url(#pd8723ecac1)" style="fill: #1f77b4"/>
   </g>
   <g id="BrokenBarHCollection_254">
    <path d="M 579.1875 12.24 
L 579.1875 43.522759 
L 581 43.522759 
L 581 12.24 
L 579.1875 12.24 
z
" clip-path="url(#pd8723ecac1)" style="fill: #1f77b4"/>
   </g>
   <g id="BrokenBarHCollection_255">
    <path d="M 579.1875 46.998621 
L 579.1875 78.281379 
L 580.8125 78.281379 
L 580.8125 46.998621 
L 579.1875 46.998621 
z
" clip-path="url(#pd8723ecac1)" style="fill: #1f77b4"/>
   </g>
   <g id="BrokenBarHCollection_256">
    <path d="M 580.8125 46.998621 
L 580.8125 78.281379 
L 582.4375 78.281379 
L 582.4375 46.998621 
L 580.8125 46.998621 
z
" clip-path="url(#pd8723ecac1)" style="fill: #1f77b4"/>
   </g>
   <g id="BrokenBarHCollection_257">
    <path d="M 581 12.24 
L 581 43.522759 
L 582.6875 43.522759 
L 582.6875 12.24 
L 581 12.24 
z
" clip-path="url(#pd8723ecac1)" style="fill: #1f77b4"/>
   </g>
   <g id="BrokenBarHCollection_258">
    <path d="M 581 81.757241 
L 581 113.04 
L 582.6875 113.04 
L 582.6875 81.757241 
L 581 81.757241 
z
" clip-path="url(#pd8723ecac1)" style="fill: #1f77b4"/>
   </g>
   <g id="BrokenBarHCollection_259">
    <path d="M 582.875 12.24 
L 582.875 43.522759 
L 583.8125 43.522759 
L 583.8125 12.24 
L 582.875 12.24 
z
" clip-path="url(#pd8723ecac1)" style="fill: #1f77b4"/>
   </g>
   <g id="BrokenBarHCollection_260">
    <path d="M 582.875 46.998621 
L 582.875 78.281379 
L 583.8125 78.281379 
L 583.8125 46.998621 
L 582.875 46.998621 
z
" clip-path="url(#pd8723ecac1)" style="fill: #1f77b4"/>
   </g>
   <g id="BrokenBarHCollection_261">
    <path d="M 583.125 81.757241 
L 583.125 113.04 
L 583.8125 113.04 
L 583.8125 81.757241 
L 583.125 81.757241 
z
" clip-path="url(#pd8723ecac1)" style="fill: #1f77b4"/>
   </g>
   <g id="BrokenBarHCollection_262">
    <path d="M 583.8125 12.24 
L 583.8125 43.522759 
L 584.5 43.522759 
L 584.5 12.24 
L 583.8125 12.24 
z
" clip-path="url(#pd8723ecac1)" style="fill: #1f77b4"/>
   </g>
   <g id="BrokenBarHCollection_263">
    <path d="M 583.8125 46.998621 
L 583.8125 78.281379 
L 584.5 78.281379 
L 584.5 46.998621 
L 583.8125 46.998621 
z
" clip-path="url(#pd8723ecac1)" style="fill: #1f77b4"/>
   </g>
   <g id="BrokenBarHCollection_264">
    <path d="M 583.8125 81.757241 
L 583.8125 113.04 
L 584.5 113.04 
L 584.5 81.757241 
L 583.8125 81.757241 
z
" clip-path="url(#pd8723ecac1)" style="fill: #1f77b4"/>
   </g>
   <g id="BrokenBarHCollection_265">
    <path d="M 584.5 12.24 
L 584.5 43.522759 
L 585 43.522759 
L 585 12.24 
L 584.5 12.24 
z
" clip-path="url(#pd8723ecac1)" style="fill: #1f77b4"/>
   </g>
   <g id="BrokenBarHCollection_266">
    <path d="M 584.5 46.998621 
L 584.5 78.281379 
L 585 78.281379 
L 585 46.998621 
L 584.5 46.998621 
z
" clip-path="url(#pd8723ecac1)" style="fill: #1f77b4"/>
   </g>
   <g id="BrokenBarHCollection_267">
    <path d="M 584.5 81.757241 
L 584.5 113.04 
L 585 113.04 
L 585 81.757241 
L 584.5 81.757241 
z
" clip-path="url(#pd8723ecac1)" style="fill: #1f77b4"/>
   </g>
   <g id="BrokenBarHCollection_268">
    <path d="M 585 12.24 
L 585 43.522759 
L 585.4375 43.522759 
L 585.4375 12.24 
L 585 12.24 
z
" clip-path="url(#pd8723ecac1)" style="fill: #1f77b4"/>
   </g>
   <g id="BrokenBarHCollection_269">
    <path d="M 585 46.998621 
L 585 78.281379 
L 585.4375 78.281379 
L 585.4375 46.998621 
L 585 46.998621 
z
" clip-path="url(#pd8723ecac1)" style="fill: #1f77b4"/>
   </g>
   <g id="BrokenBarHCollection_270">
    <path d="M 585 81.757241 
L 585 113.04 
L 585.4375 113.04 
L 585.4375 81.757241 
L 585 81.757241 
z
" clip-path="url(#pd8723ecac1)" style="fill: #1f77b4"/>
   </g>
   <g id="BrokenBarHCollection_271">
    <path d="M 586.375 12.24 
L 586.375 43.522759 
L 587.9375 43.522759 
L 587.9375 12.24 
L 586.375 12.24 
z
" clip-path="url(#pd8723ecac1)" style="fill: #1f77b4"/>
   </g>
   <g id="BrokenBarHCollection_272">
    <path d="M 586.375 46.998621 
L 586.375 78.281379 
L 587.9375 78.281379 
L 587.9375 46.998621 
L 586.375 46.998621 
z
" clip-path="url(#pd8723ecac1)" style="fill: #1f77b4"/>
   </g>
   <g id="BrokenBarHCollection_273">
    <path d="M 586.375 81.757241 
L 586.375 113.04 
L 587.9375 113.04 
L 587.9375 81.757241 
L 586.375 81.757241 
z
" clip-path="url(#pd8723ecac1)" style="fill: #1f77b4"/>
   </g>
   <g id="BrokenBarHCollection_274">
    <path d="M 587.9375 12.24 
L 587.9375 43.522759 
L 589.3125 43.522759 
L 589.3125 12.24 
L 587.9375 12.24 
z
" clip-path="url(#pd8723ecac1)" style="fill: #1f77b4"/>
   </g>
   <g id="BrokenBarHCollection_275">
    <path d="M 587.9375 46.998621 
L 587.9375 78.281379 
L 589.3125 78.281379 
L 589.3125 46.998621 
L 587.9375 46.998621 
z
" clip-path="url(#pd8723ecac1)" style="fill: #1f77b4"/>
   </g>
   <g id="BrokenBarHCollection_276">
    <path d="M 587.9375 81.757241 
L 587.9375 113.04 
L 589.3125 113.04 
L 589.3125 81.757241 
L 587.9375 81.757241 
z
" clip-path="url(#pd8723ecac1)" style="fill: #1f77b4"/>
   </g>
   <g id="BrokenBarHCollection_277">
    <path d="M 589.3125 12.24 
L 589.3125 43.522759 
L 590.75 43.522759 
L 590.75 12.24 
L 589.3125 12.24 
z
" clip-path="url(#pd8723ecac1)" style="fill: #1f77b4"/>
   </g>
   <g id="BrokenBarHCollection_278">
    <path d="M 589.5625 46.998621 
L 589.5625 78.281379 
L 590.75 78.281379 
L 590.75 46.998621 
L 589.5625 46.998621 
z
" clip-path="url(#pd8723ecac1)" style="fill: #1f77b4"/>
   </g>
   <g id="BrokenBarHCollection_279">
    <path d="M 589.5625 81.757241 
L 589.5625 113.04 
L 590.75 113.04 
L 590.75 81.757241 
L 589.5625 81.757241 
z
" clip-path="url(#pd8723ecac1)" style="fill: #1f77b4"/>
   </g>
   <g id="BrokenBarHCollection_280">
    <path d="M 590.75 46.998621 
L 590.75 78.281379 
L 592.125 78.281379 
L 592.125 46.998621 
L 590.75 46.998621 
z
" clip-path="url(#pd8723ecac1)" style="fill: #1f77b4"/>
   </g>
   <g id="BrokenBarHCollection_281">
    <path d="M 590.9375 12.24 
L 590.9375 43.522759 
L 592.125 43.522759 
L 592.125 12.24 
L 590.9375 12.24 
z
" clip-path="url(#pd8723ecac1)" style="fill: #1f77b4"/>
   </g>
   <g id="BrokenBarHCollection_282">
    <path d="M 590.9375 81.757241 
L 590.9375 113.04 
L 592.125 113.04 
L 592.125 81.757241 
L 590.9375 81.757241 
z
" clip-path="url(#pd8723ecac1)" style="fill: #1f77b4"/>
   </g>
   <g id="BrokenBarHCollection_283">
    <path d="M 592.125 12.24 
L 592.125 43.522759 
L 592.3125 43.522759 
L 592.3125 12.24 
L 592.125 12.24 
z
" clip-path="url(#pd8723ecac1)" style="fill: #1f77b4"/>
   </g>
   <g id="BrokenBarHCollection_284">
    <path d="M 592.125 46.998621 
L 592.125 78.281379 
L 592.3125 78.281379 
L 592.3125 46.998621 
L 592.125 46.998621 
z
" clip-path="url(#pd8723ecac1)" style="fill: #1f77b4"/>
   </g>
   <g id="BrokenBarHCollection_285">
    <path d="M 592.125 81.757241 
L 592.125 113.04 
L 592.3125 113.04 
L 592.3125 81.757241 
L 592.125 81.757241 
z
" clip-path="url(#pd8723ecac1)" style="fill: #1f77b4"/>
   </g>
   <g id="BrokenBarHCollection_286">
    <path d="M 592.3125 12.24 
L 592.3125 43.522759 
L 592.5625 43.522759 
L 592.5625 12.24 
L 592.3125 12.24 
z
" clip-path="url(#pd8723ecac1)" style="fill: #1f77b4"/>
   </g>
   <g id="BrokenBarHCollection_287">
    <path d="M 592.3125 46.998621 
L 592.3125 78.281379 
L 592.5625 78.281379 
L 592.5625 46.998621 
L 592.3125 46.998621 
z
" clip-path="url(#pd8723ecac1)" style="fill: #1f77b4"/>
   </g>
   <g id="BrokenBarHCollection_288">
    <path d="M 592.3125 81.757241 
L 592.3125 113.04 
L 592.5625 113.04 
L 592.5625 81.757241 
L 592.3125 81.757241 
z
" clip-path="url(#pd8723ecac1)" style="fill: #1f77b4"/>
   </g>
   <g id="BrokenBarHCollection_289">
    <path d="M 592.3125 12.24 
L 592.3125 43.522759 
L 592.3125 43.522759 
L 592.3125 12.24 
L 592.3125 12.24 
z
" clip-path="url(#pd8723ecac1)" style="fill: #1f77b4"/>
   </g>
   <g id="BrokenBarHCollection_290">
    <path d="M 592.3125 46.998621 
L 592.3125 78.281379 
L 592.3125 78.281379 
L 592.3125 46.998621 
L 592.3125 46.998621 
z
" clip-path="url(#pd8723ecac1)" style="fill: #1f77b4"/>
   </g>
   <g id="BrokenBarHCollection_291">
    <path d="M 592.3125 81.757241 
L 592.3125 113.04 
L 592.3125 113.04 
L 592.3125 81.757241 
L 592.3125 81.757241 
z
" clip-path="url(#pd8723ecac1)" style="fill: #1f77b4"/>
   </g>
   <g id="BrokenBarHCollection_292">
    <path d="M 592.5625 81.757241 
L 592.5625 113.04 
L 596.25 113.04 
L 596.25 81.757241 
L 592.5625 81.757241 
z
" clip-path="url(#pd8723ecac1)" style="fill: #1f77b4"/>
   </g>
   <g id="BrokenBarHCollection_293">
    <path d="M 592.5625 46.998621 
L 592.5625 78.281379 
L 596 78.281379 
L 596 46.998621 
L 592.5625 46.998621 
z
" clip-path="url(#pd8723ecac1)" style="fill: #1f77b4"/>
   </g>
   <g id="BrokenBarHCollection_294">
    <path d="M 594.625 12.24 
L 594.625 43.522759 
L 596 43.522759 
L 596 12.24 
L 594.625 12.24 
z
" clip-path="url(#pd8723ecac1)" style="fill: #1f77b4"/>
   </g>
   <g id="BrokenBarHCollection_295">
    <path d="M 596 46.998621 
L 596 78.281379 
L 597.375 78.281379 
L 597.375 46.998621 
L 596 46.998621 
z
" clip-path="url(#pd8723ecac1)" style="fill: #1f77b4"/>
   </g>
   <g id="BrokenBarHCollection_296">
    <path d="M 596 12.24 
L 596 43.522759 
L 597.1875 43.522759 
L 597.1875 12.24 
L 596 12.24 
z
" clip-path="url(#pd8723ecac1)" style="fill: #1f77b4"/>
   </g>
   <g id="BrokenBarHCollection_297">
    <path d="M 596.25 81.757241 
L 596.25 113.04 
L 597.375 113.04 
L 597.375 81.757241 
L 596.25 81.757241 
z
" clip-path="url(#pd8723ecac1)" style="fill: #1f77b4"/>
   </g>
   <g id="BrokenBarHCollection_298">
    <path d="M 597.1875 12.24 
L 597.1875 43.522759 
L 598.3125 43.522759 
L 598.3125 12.24 
L 597.1875 12.24 
z
" clip-path="url(#pd8723ecac1)" style="fill: #1f77b4"/>
   </g>
   <g id="BrokenBarHCollection_299">
    <path d="M 597.375 81.757241 
L 597.375 113.04 
L 598.3125 113.04 
L 598.3125 81.757241 
L 597.375 81.757241 
z
" clip-path="url(#pd8723ecac1)" style="fill: #1f77b4"/>
   </g>
   <g id="BrokenBarHCollection_300">
    <path d="M 597.375 46.998621 
L 597.375 78.281379 
L 598.125 78.281379 
L 598.125 46.998621 
L 597.375 46.998621 
z
" clip-path="url(#pd8723ecac1)" style="fill: #1f77b4"/>
   </g>
   <g id="BrokenBarHCollection_301">
    <path d="M 610.75 81.757241 
L 610.75 113.04 
L 636.3125 113.04 
L 636.3125 81.757241 
L 610.75 81.757241 
z
" clip-path="url(#pd8723ecac1)" style="fill: #1f77b4"/>
   </g>
   <g id="BrokenBarHCollection_302">
    <path d="M 635.375 12.24 
L 635.375 43.522759 
L 696.5 43.522759 
L 696.5 12.24 
L 635.375 12.24 
z
" clip-path="url(#pd8723ecac1)" style="fill: #1f77b4"/>
   </g>
   <g id="BrokenBarHCollection_303">
    <path d="M 636.3125 81.757241 
L 636.3125 113.04 
L 697.125 113.04 
L 697.125 81.757241 
L 636.3125 81.757241 
z
" clip-path="url(#pd8723ecac1)" style="fill: #1f77b4"/>
   </g>
   <g id="BrokenBarHCollection_304">
    <path d="M 693.0625 46.998621 
L 693.0625 78.281379 
L 696.6875 78.281379 
L 696.6875 46.998621 
L 693.0625 46.998621 
z
" clip-path="url(#pd8723ecac1)" style="fill: #1f77b4"/>
   </g>
   <g id="BrokenBarHCollection_305">
    <path d="M 696.5 12.24 
L 696.5 43.522759 
L 697.625 43.522759 
L 697.625 12.24 
L 696.5 12.24 
z
" clip-path="url(#pd8723ecac1)" style="fill: #1f77b4"/>
   </g>
   <g id="BrokenBarHCollection_306">
    <path d="M 696.6875 46.998621 
L 696.6875 78.281379 
L 697.625 78.281379 
L 697.625 46.998621 
L 696.6875 46.998621 
z
" clip-path="url(#pd8723ecac1)" style="fill: #1f77b4"/>
   </g>
   <g id="BrokenBarHCollection_307">
    <path d="M 697.4375 81.757241 
L 697.4375 113.04 
L 701.3125 113.04 
L 701.3125 81.757241 
L 697.4375 81.757241 
z
" clip-path="url(#pd8723ecac1)" style="fill: #1f77b4"/>
   </g>
   <g id="BrokenBarHCollection_308">
    <path d="M 697.625 12.24 
L 697.625 43.522759 
L 701.3125 43.522759 
L 701.3125 12.24 
L 697.625 12.24 
z
" clip-path="url(#pd8723ecac1)" style="fill: #1f77b4"/>
   </g>
   <g id="BrokenBarHCollection_309">
    <path d="M 697.625 46.998621 
L 697.625 78.281379 
L 701.125 78.281379 
L 701.125 46.998621 
L 697.625 46.998621 
z
" clip-path="url(#pd8723ecac1)" style="fill: #1f77b4"/>
   </g>
   <g id="BrokenBarHCollection_310">
    <path d="M 701.125 46.998621 
L 701.125 78.281379 
L 702.9375 78.281379 
L 702.9375 46.998621 
L 701.125 46.998621 
z
" clip-path="url(#pd8723ecac1)" style="fill: #1f77b4"/>
   </g>
   <g id="BrokenBarHCollection_311">
    <path d="M 701.3125 12.24 
L 701.3125 43.522759 
L 703.125 43.522759 
L 703.125 12.24 
L 701.3125 12.24 
z
" clip-path="url(#pd8723ecac1)" style="fill: #1f77b4"/>
   </g>
   <g id="BrokenBarHCollection_312">
    <path d="M 701.3125 81.757241 
L 701.3125 113.04 
L 703.125 113.04 
L 703.125 81.757241 
L 701.3125 81.757241 
z
" clip-path="url(#pd8723ecac1)" style="fill: #1f77b4"/>
   </g>
  </g>
 </g>
 <defs>
  <clipPath id="pd8723ecac1">
   <rect x="34.240625" y="7.2" width="669.6" height="110.88"/>
  </clipPath>
 </defs>
</svg>
