<?xml version="1.0" encoding="utf-8" standalone="no"?>
<!DOCTYPE svg PUBLIC "-//W3C//DTD SVG 1.1//EN"
  "http://www.w3.org/Graphics/SVG/1.1/DTD/svg11.dtd">
<svg xmlns:xlink="http://www.w3.org/1999/xlink" width="720pt" height="288pt" viewBox="0 0 720 288" xmlns="http://www.w3.org/2000/svg" version="1.1">
 <metadata>
  <rdf:RDF xmlns:dc="http://purl.org/dc/elements/1.1/" xmlns:cc="http://creativecommons.org/ns#" xmlns:rdf="http://www.w3.org/1999/02/22-rdf-syntax-ns#">
   <cc:Work>
    <dc:type rdf:resource="http://purl.org/dc/dcmitype/StillImage"/>
    <dc:date>2025-10-05T20:40:03.745716</dc:date>
    <dc:format>image/svg+xml</dc:format>
    <dc:creator>
     <cc:Agent>
      <dc:title>Matplotlib v3.6.3, https://matplotlib.org/</dc:title>
     </cc:Agent>
    </dc:creator>
   </cc:Work>
  </rdf:RDF>
 </metadata>
 <defs>
  <style type="text/css">*{stroke-linejoin: round; stroke-linecap: butt}</style>
 </defs>
 <g id="figure_1">
  <g id="patch_1">
   <path d="M 0 288 
L 720 288 
L 720 0 
L 0 0 
z
" style="fill: #ffffff"/>
  </g>
  <g id="axes_1">
   <g id="patch_2">
    <path d="M 47.91125 246.04 
L 614.207 246.04 
L 614.207 13.311193 
L 47.91125 13.311193 
z
" style="fill: #ffffff"/>
   </g>
   <g id="matplotlib.axis_1">
    <g id="xtick_1">
     <g id="line2d_1">
      <path d="M 114.295202 246.04 
L 114.295202 13.311193 
" clip-path="url(#p62f1dbc679)" style="fill: none; stroke-dasharray: 0.5,0.825; stroke-dashoffset: 0; stroke: #b0b0b0; stroke-width: 0.5"/>
     </g>
     <g id="line2d_2">
      <defs>
       <path id="mf2f01d1f97" d="M 0 0 
L 0 3.5 
" style="stroke: #000000; stroke-width: 0.8"/>
      </defs>
      <g>
       <use xlink:href="#mf2f01d1f97" x="114.295202" y="246.04" style="stroke: #000000; stroke-width: 0.8"/>
      </g>
     </g>
     <g id="text_1">
      <!-- 2.5 -->
      <g transform="translate(106.343639 260.638438) scale(0.1 -0.1)">
       <defs>
        <path id="DejaVuSans-32" d="M 1228 531 
L 3431 531 
L 3431 0 
L 469 0 
L 469 531 
Q 828 903 1448 1529 
Q 2069 2156 2228 2338 
Q 2531 2678 2651 2914 
Q 2772 3150 2772 3378 
Q 2772 3750 2511 3984 
Q 2250 4219 1831 4219 
Q 1534 4219 1204 4116 
Q 875 4013 500 3803 
L 500 4441 
Q 881 4594 1212 4672 
Q 1544 4750 1819 4750 
Q 2544 4750 2975 4387 
Q 3406 4025 3406 3419 
Q 3406 3131 3298 2873 
Q 3191 2616 2906 2266 
Q 2828 2175 2409 1742 
Q 1991 1309 1228 531 
z
" transform="scale(0.015625)"/>
        <path id="DejaVuSans-2e" d="M 684 794 
L 1344 794 
L 1344 0 
L 684 0 
L 684 794 
z
" transform="scale(0.015625)"/>
        <path id="DejaVuSans-35" d="M 691 4666 
L 3169 4666 
L 3169 4134 
L 1269 4134 
L 1269 2991 
Q 1406 3038 1543 3061 
Q 1681 3084 1819 3084 
Q 2600 3084 3056 2656 
Q 3513 2228 3513 1497 
Q 3513 744 3044 326 
Q 2575 -91 1722 -91 
Q 1428 -91 1123 -41 
Q 819 9 494 109 
L 494 744 
Q 775 591 1075 516 
Q 1375 441 1709 441 
Q 2250 441 2565 725 
Q 2881 1009 2881 1497 
Q 2881 1984 2565 2268 
Q 2250 2553 1709 2553 
Q 1456 2553 1204 2497 
Q 953 2441 691 2322 
L 691 4666 
z
" transform="scale(0.015625)"/>
       </defs>
       <use xlink:href="#DejaVuSans-32"/>
       <use xlink:href="#DejaVuSans-2e" x="63.623047"/>
       <use xlink:href="#DejaVuSans-35" x="95.410156"/>
      </g>
     </g>
    </g>
    <g id="xtick_2">
     <g id="line2d_3">
      <path d="M 182.033928 246.04 
L 182.033928 13.311193 
" clip-path="url(#p62f1dbc679)" style="fill: none; stroke-dasharray: 0.5,0.825; stroke-dashoffset: 0; stroke: #b0b0b0; stroke-width: 0.5"/>
     </g>
     <g id="line2d_4">
      <g>
       <use xlink:href="#mf2f01d1f97" x="182.033928" y="246.04" style="stroke: #000000; stroke-width: 0.8"/>
      </g>
     </g>
     <g id="text_2">
      <!-- 5.0 -->
      <g transform="translate(174.082365 260.638438) scale(0.1 -0.1)">
       <defs>
        <path id="DejaVuSans-30" d="M 2034 4250 
Q 1547 4250 1301 3770 
Q 1056 3291 1056 2328 
Q 1056 1369 1301 889 
Q 1547 409 2034 409 
Q 2525 409 2770 889 
Q 3016 1369 3016 2328 
Q 3016 3291 2770 3770 
Q 2525 4250 2034 4250 
z
M 2034 4750 
Q 2819 4750 3233 4129 
Q 3647 3509 3647 2328 
Q 3647 1150 3233 529 
Q 2819 -91 2034 -91 
Q 1250 -91 836 529 
Q 422 1150 422 2328 
Q 422 3509 836 4129 
Q 1250 4750 2034 4750 
z
" transform="scale(0.015625)"/>
       </defs>
       <use xlink:href="#DejaVuSans-35"/>
       <use xlink:href="#DejaVuSans-2e" x="63.623047"/>
       <use xlink:href="#DejaVuSans-30" x="95.410156"/>
      </g>
     </g>
    </g>
    <g id="xtick_3">
     <g id="line2d_5">
      <path d="M 249.772654 246.04 
L 249.772654 13.311193 
" clip-path="url(#p62f1dbc679)" style="fill: none; stroke-dasharray: 0.5,0.825; stroke-dashoffset: 0; stroke: #b0b0b0; stroke-width: 0.5"/>
     </g>
     <g id="line2d_6">
      <g>
       <use xlink:href="#mf2f01d1f97" x="249.772654" y="246.04" style="stroke: #000000; stroke-width: 0.8"/>
      </g>
     </g>
     <g id="text_3">
      <!-- 7.5 -->
      <g transform="translate(241.821091 260.638438) scale(0.1 -0.1)">
       <defs>
        <path id="DejaVuSans-37" d="M 525 4666 
L 3525 4666 
L 3525 4397 
L 1831 0 
L 1172 0 
L 2766 4134 
L 525 4134 
L 525 4666 
z
" transform="scale(0.015625)"/>
       </defs>
       <use xlink:href="#DejaVuSans-37"/>
       <use xlink:href="#DejaVuSans-2e" x="63.623047"/>
       <use xlink:href="#DejaVuSans-35" x="95.410156"/>
      </g>
     </g>
    </g>
    <g id="xtick_4">
     <g id="line2d_7">
      <path d="M 317.51138 246.04 
L 317.51138 13.311193 
" clip-path="url(#p62f1dbc679)" style="fill: none; stroke-dasharray: 0.5,0.825; stroke-dashoffset: 0; stroke: #b0b0b0; stroke-width: 0.5"/>
     </g>
     <g id="line2d_8">
      <g>
       <use xlink:href="#mf2f01d1f97" x="317.51138" y="246.04" style="stroke: #000000; stroke-width: 0.8"/>
      </g>
     </g>
     <g id="text_4">
      <!-- 10.0 -->
      <g transform="translate(306.378567 260.638438) scale(0.1 -0.1)">
       <defs>
        <path id="DejaVuSans-31" d="M 794 531 
L 1825 531 
L 1825 4091 
L 703 3866 
L 703 4441 
L 1819 4666 
L 2450 4666 
L 2450 531 
L 3481 531 
L 3481 0 
L 794 0 
L 794 531 
z
" transform="scale(0.015625)"/>
       </defs>
       <use xlink:href="#DejaVuSans-31"/>
       <use xlink:href="#DejaVuSans-30" x="63.623047"/>
       <use xlink:href="#DejaVuSans-2e" x="127.246094"/>
       <use xlink:href="#DejaVuSans-30" x="159.033203"/>
      </g>
     </g>
    </g>
    <g id="xtick_5">
     <g id="line2d_9">
      <path d="M 385.250106 246.04 
L 385.250106 13.311193 
" clip-path="url(#p62f1dbc679)" style="fill: none; stroke-dasharray: 0.5,0.825; stroke-dashoffset: 0; stroke: #b0b0b0; stroke-width: 0.5"/>
     </g>
     <g id="line2d_10">
      <g>
       <use xlink:href="#mf2f01d1f97" x="385.250106" y="246.04" style="stroke: #000000; stroke-width: 0.8"/>
      </g>
     </g>
     <g id="text_5">
      <!-- 12.5 -->
      <g transform="translate(374.117293 260.638438) scale(0.1 -0.1)">
       <use xlink:href="#DejaVuSans-31"/>
       <use xlink:href="#DejaVuSans-32" x="63.623047"/>
       <use xlink:href="#DejaVuSans-2e" x="127.246094"/>
       <use xlink:href="#DejaVuSans-35" x="159.033203"/>
      </g>
     </g>
    </g>
    <g id="xtick_6">
     <g id="line2d_11">
      <path d="M 452.988832 246.04 
L 452.988832 13.311193 
" clip-path="url(#p62f1dbc679)" style="fill: none; stroke-dasharray: 0.5,0.825; stroke-dashoffset: 0; stroke: #b0b0b0; stroke-width: 0.5"/>
     </g>
     <g id="line2d_12">
      <g>
       <use xlink:href="#mf2f01d1f97" x="452.988832" y="246.04" style="stroke: #000000; stroke-width: 0.8"/>
      </g>
     </g>
     <g id="text_6">
      <!-- 15.0 -->
      <g transform="translate(441.856019 260.638438) scale(0.1 -0.1)">
       <use xlink:href="#DejaVuSans-31"/>
       <use xlink:href="#DejaVuSans-35" x="63.623047"/>
       <use xlink:href="#DejaVuSans-2e" x="127.246094"/>
       <use xlink:href="#DejaVuSans-30" x="159.033203"/>
      </g>
     </g>
    </g>
    <g id="xtick_7">
     <g id="line2d_13">
      <path d="M 520.727558 246.04 
L 520.727558 13.311193 
" clip-path="url(#p62f1dbc679)" style="fill: none; stroke-dasharray: 0.5,0.825; stroke-dashoffset: 0; stroke: #b0b0b0; stroke-width: 0.5"/>
     </g>
     <g id="line2d_14">
      <g>
       <use xlink:href="#mf2f01d1f97" x="520.727558" y="246.04" style="stroke: #000000; stroke-width: 0.8"/>
      </g>
     </g>
     <g id="text_7">
      <!-- 17.5 -->
      <g transform="translate(509.594746 260.638438) scale(0.1 -0.1)">
       <use xlink:href="#DejaVuSans-31"/>
       <use xlink:href="#DejaVuSans-37" x="63.623047"/>
       <use xlink:href="#DejaVuSans-2e" x="127.246094"/>
       <use xlink:href="#DejaVuSans-35" x="159.033203"/>
      </g>
     </g>
    </g>
    <g id="xtick_8">
     <g id="line2d_15">
      <path d="M 588.466284 246.04 
L 588.466284 13.311193 
" clip-path="url(#p62f1dbc679)" style="fill: none; stroke-dasharray: 0.5,0.825; stroke-dashoffset: 0; stroke: #b0b0b0; stroke-width: 0.5"/>
     </g>
     <g id="line2d_16">
      <g>
       <use xlink:href="#mf2f01d1f97" x="588.466284" y="246.04" style="stroke: #000000; stroke-width: 0.8"/>
      </g>
     </g>
     <g id="text_8">
      <!-- 20.0 -->
      <g transform="translate(577.333472 260.638438) scale(0.1 -0.1)">
       <use xlink:href="#DejaVuSans-32"/>
       <use xlink:href="#DejaVuSans-30" x="63.623047"/>
       <use xlink:href="#DejaVuSans-2e" x="127.246094"/>
       <use xlink:href="#DejaVuSans-30" x="159.033203"/>
      </g>
     </g>
    </g>
    <g id="text_9">
     <!-- segment -->
     <g transform="translate(309.127875 274.316562) scale(0.1 -0.1)">
      <defs>
       <path id="DejaVuSans-73" d="M 2834 3397 
L 2834 2853 
Q 2591 2978 2328 3040 
Q 2066 3103 1784 3103 
Q 1356 3103 1142 2972 
Q 928 2841 928 2578 
Q 928 2378 1081 2264 
Q 1234 2150 1697 2047 
L 1894 2003 
Q 2506 1872 2764 1633 
Q 3022 1394 3022 966 
Q 3022 478 2636 193 
Q 2250 -91 1575 -91 
Q 1294 -91 989 -36 
Q 684 19 347 128 
L 347 722 
Q 666 556 975 473 
Q 1284 391 1588 391 
Q 1994 391 2212 530 
Q 2431 669 2431 922 
Q 2431 1156 2273 1281 
Q 2116 1406 1581 1522 
L 1381 1569 
Q 847 1681 609 1914 
Q 372 2147 372 2553 
Q 372 3047 722 3315 
Q 1072 3584 1716 3584 
Q 2034 3584 2315 3537 
Q 2597 3491 2834 3397 
z
" transform="scale(0.015625)"/>
       <path id="DejaVuSans-65" d="M 3597 1894 
L 3597 1613 
L 953 1613 
Q 991 1019 1311 708 
Q 1631 397 2203 397 
Q 2534 397 2845 478 
Q 3156 559 3463 722 
L 3463 178 
Q 3153 47 2828 -22 
Q 2503 -91 2169 -91 
Q 1331 -91 842 396 
Q 353 884 353 1716 
Q 353 2575 817 3079 
Q 1281 3584 2069 3584 
Q 2775 3584 3186 3129 
Q 3597 2675 3597 1894 
z
M 3022 2063 
Q 3016 2534 2758 2815 
Q 2500 3097 2075 3097 
Q 1594 3097 1305 2825 
Q 1016 2553 972 2059 
L 3022 2063 
z
" transform="scale(0.015625)"/>
       <path id="DejaVuSans-67" d="M 2906 1791 
Q 2906 2416 2648 2759 
Q 2391 3103 1925 3103 
Q 1463 3103 1205 2759 
Q 947 2416 947 1791 
Q 947 1169 1205 825 
Q 1463 481 1925 481 
Q 2391 481 2648 825 
Q 2906 1169 2906 1791 
z
M 3481 434 
Q 3481 -459 3084 -895 
Q 2688 -1331 1869 -1331 
Q 1566 -1331 1297 -1286 
Q 1028 -1241 775 -1147 
L 775 -588 
Q 1028 -725 1275 -790 
Q 1522 -856 1778 -856 
Q 2344 -856 2625 -561 
Q 2906 -266 2906 331 
L 2906 616 
Q 2728 306 2450 153 
Q 2172 0 1784 0 
Q 1141 0 747 490 
Q 353 981 353 1791 
Q 353 2603 747 3093 
Q 1141 3584 1784 3584 
Q 2172 3584 2450 3431 
Q 2728 3278 2906 2969 
L 2906 3500 
L 3481 3500 
L 3481 434 
z
" transform="scale(0.015625)"/>
       <path id="DejaVuSans-6d" d="M 3328 2828 
Q 3544 3216 3844 3400 
Q 4144 3584 4550 3584 
Q 5097 3584 5394 3201 
Q 5691 2819 5691 2113 
L 5691 0 
L 5113 0 
L 5113 2094 
Q 5113 2597 4934 2840 
Q 4756 3084 4391 3084 
Q 3944 3084 3684 2787 
Q 3425 2491 3425 1978 
L 3425 0 
L 2847 0 
L 2847 2094 
Q 2847 2600 2669 2842 
Q 2491 3084 2119 3084 
Q 1678 3084 1418 2786 
Q 1159 2488 1159 1978 
L 1159 0 
L 581 0 
L 581 3500 
L 1159 3500 
L 1159 2956 
Q 1356 3278 1631 3431 
Q 1906 3584 2284 3584 
Q 2666 3584 2933 3390 
Q 3200 3197 3328 2828 
z
" transform="scale(0.015625)"/>
       <path id="DejaVuSans-6e" d="M 3513 2113 
L 3513 0 
L 2938 0 
L 2938 2094 
Q 2938 2591 2744 2837 
Q 2550 3084 2163 3084 
Q 1697 3084 1428 2787 
Q 1159 2491 1159 1978 
L 1159 0 
L 581 0 
L 581 3500 
L 1159 3500 
L 1159 2956 
Q 1366 3272 1645 3428 
Q 1925 3584 2291 3584 
Q 2894 3584 3203 3211 
Q 3513 2838 3513 2113 
z
" transform="scale(0.015625)"/>
       <path id="DejaVuSans-74" d="M 1172 4494 
L 1172 3500 
L 2356 3500 
L 2356 3053 
L 1172 3053 
L 1172 1153 
Q 1172 725 1289 603 
Q 1406 481 1766 481 
L 2356 481 
L 2356 0 
L 1766 0 
Q 1100 0 847 248 
Q 594 497 594 1153 
L 594 3053 
L 172 3053 
L 172 3500 
L 594 3500 
L 594 4494 
L 1172 4494 
z
" transform="scale(0.015625)"/>
      </defs>
      <use xlink:href="#DejaVuSans-73"/>
      <use xlink:href="#DejaVuSans-65" x="52.099609"/>
      <use xlink:href="#DejaVuSans-67" x="113.623047"/>
      <use xlink:href="#DejaVuSans-6d" x="177.099609"/>
      <use xlink:href="#DejaVuSans-65" x="274.511719"/>
      <use xlink:href="#DejaVuSans-6e" x="336.035156"/>
      <use xlink:href="#DejaVuSans-74" x="399.414062"/>
     </g>
    </g>
   </g>
   <g id="matplotlib.axis_2">
    <g id="ytick_1">
     <g id="line2d_17">
      <path d="M 47.91125 241.284491 
L 614.207 241.284491 
" clip-path="url(#p62f1dbc679)" style="fill: none; stroke-dasharray: 0.5,0.825; stroke-dashoffset: 0; stroke: #b0b0b0; stroke-width: 0.5"/>
     </g>
     <g id="line2d_18">
      <defs>
       <path id="mcc063c6528" d="M 0 0 
L -3.5 0 
" style="stroke: #000000; stroke-width: 0.8"/>
      </defs>
      <g>
       <use xlink:href="#mcc063c6528" x="47.91125" y="241.284491" style="stroke: #000000; stroke-width: 0.8"/>
      </g>
     </g>
     <g id="text_10">
      <!-- 0.0 -->
      <g transform="translate(25.008125 245.083709) scale(0.1 -0.1)">
       <use xlink:href="#DejaVuSans-30"/>
       <use xlink:href="#DejaVuSans-2e" x="63.623047"/>
       <use xlink:href="#DejaVuSans-30" x="95.410156"/>
      </g>
     </g>
    </g>
    <g id="ytick_2">
     <g id="line2d_19">
      <path d="M 47.91125 208.934086 
L 614.207 208.934086 
" clip-path="url(#p62f1dbc679)" style="fill: none; stroke-dasharray: 0.5,0.825; stroke-dashoffset: 0; stroke: #b0b0b0; stroke-width: 0.5"/>
     </g>
     <g id="line2d_20">
      <g>
       <use xlink:href="#mcc063c6528" x="47.91125" y="208.934086" style="stroke: #000000; stroke-width: 0.8"/>
      </g>
     </g>
     <g id="text_11">
      <!-- 0.5 -->
      <g transform="translate(25.008125 212.733305) scale(0.1 -0.1)">
       <use xlink:href="#DejaVuSans-30"/>
       <use xlink:href="#DejaVuSans-2e" x="63.623047"/>
       <use xlink:href="#DejaVuSans-35" x="95.410156"/>
      </g>
     </g>
    </g>
    <g id="ytick_3">
     <g id="line2d_21">
      <path d="M 47.91125 176.583682 
L 614.207 176.583682 
" clip-path="url(#p62f1dbc679)" style="fill: none; stroke-dasharray: 0.5,0.825; stroke-dashoffset: 0; stroke: #b0b0b0; stroke-width: 0.5"/>
     </g>
     <g id="line2d_22">
      <g>
       <use xlink:href="#mcc063c6528" x="47.91125" y="176.583682" style="stroke: #000000; stroke-width: 0.8"/>
      </g>
     </g>
     <g id="text_12">
      <!-- 1.0 -->
      <g transform="translate(25.008125 180.382901) scale(0.1 -0.1)">
       <use xlink:href="#DejaVuSans-31"/>
       <use xlink:href="#DejaVuSans-2e" x="63.623047"/>
       <use xlink:href="#DejaVuSans-30" x="95.410156"/>
      </g>
     </g>
    </g>
    <g id="ytick_4">
     <g id="line2d_23">
      <path d="M 47.91125 144.233278 
L 614.207 144.233278 
" clip-path="url(#p62f1dbc679)" style="fill: none; stroke-dasharray: 0.5,0.825; stroke-dashoffset: 0; stroke: #b0b0b0; stroke-width: 0.5"/>
     </g>
     <g id="line2d_24">
      <g>
       <use xlink:href="#mcc063c6528" x="47.91125" y="144.233278" style="stroke: #000000; stroke-width: 0.8"/>
      </g>
     </g>
     <g id="text_13">
      <!-- 1.5 -->
      <g transform="translate(25.008125 148.032497) scale(0.1 -0.1)">
       <use xlink:href="#DejaVuSans-31"/>
       <use xlink:href="#DejaVuSans-2e" x="63.623047"/>
       <use xlink:href="#DejaVuSans-35" x="95.410156"/>
      </g>
     </g>
    </g>
    <g id="ytick_5">
     <g id="line2d_25">
      <path d="M 47.91125 111.882874 
L 614.207 111.882874 
" clip-path="url(#p62f1dbc679)" style="fill: none; stroke-dasharray: 0.5,0.825; stroke-dashoffset: 0; stroke: #b0b0b0; stroke-width: 0.5"/>
     </g>
     <g id="line2d_26">
      <g>
       <use xlink:href="#mcc063c6528" x="47.91125" y="111.882874" style="stroke: #000000; stroke-width: 0.8"/>
      </g>
     </g>
     <g id="text_14">
      <!-- 2.0 -->
      <g transform="translate(25.008125 115.682093) scale(0.1 -0.1)">
       <use xlink:href="#DejaVuSans-32"/>
       <use xlink:href="#DejaVuSans-2e" x="63.623047"/>
       <use xlink:href="#DejaVuSans-30" x="95.410156"/>
      </g>
     </g>
    </g>
    <g id="ytick_6">
     <g id="line2d_27">
      <path d="M 47.91125 79.53247 
L 614.207 79.53247 
" clip-path="url(#p62f1dbc679)" style="fill: none; stroke-dasharray: 0.5,0.825; stroke-dashoffset: 0; stroke: #b0b0b0; stroke-width: 0.5"/>
     </g>
     <g id="line2d_28">
      <g>
       <use xlink:href="#mcc063c6528" x="47.91125" y="79.53247" style="stroke: #000000; stroke-width: 0.8"/>
      </g>
     </g>
     <g id="text_15">
      <!-- 2.5 -->
      <g transform="translate(25.008125 83.331689) scale(0.1 -0.1)">
       <use xlink:href="#DejaVuSans-32"/>
       <use xlink:href="#DejaVuSans-2e" x="63.623047"/>
       <use xlink:href="#DejaVuSans-35" x="95.410156"/>
      </g>
     </g>
    </g>
    <g id="ytick_7">
     <g id="line2d_29">
      <path d="M 47.91125 47.182066 
L 614.207 47.182066 
" clip-path="url(#p62f1dbc679)" style="fill: none; stroke-dasharray: 0.5,0.825; stroke-dashoffset: 0; stroke: #b0b0b0; stroke-width: 0.5"/>
     </g>
     <g id="line2d_30">
      <g>
       <use xlink:href="#mcc063c6528" x="47.91125" y="47.182066" style="stroke: #000000; stroke-width: 0.8"/>
      </g>
     </g>
     <g id="text_16">
      <!-- 3.0 -->
      <g transform="translate(25.008125 50.981285) scale(0.1 -0.1)">
       <defs>
        <path id="DejaVuSans-33" d="M 2597 2516 
Q 3050 2419 3304 2112 
Q 3559 1806 3559 1356 
Q 3559 666 3084 287 
Q 2609 -91 1734 -91 
Q 1441 -91 1130 -33 
Q 819 25 488 141 
L 488 750 
Q 750 597 1062 519 
Q 1375 441 1716 441 
Q 2309 441 2620 675 
Q 2931 909 2931 1356 
Q 2931 1769 2642 2001 
Q 2353 2234 1838 2234 
L 1294 2234 
L 1294 2753 
L 1863 2753 
Q 2328 2753 2575 2939 
Q 2822 3125 2822 3475 
Q 2822 3834 2567 4026 
Q 2313 4219 1838 4219 
Q 1578 4219 1281 4162 
Q 984 4106 628 3988 
L 628 4550 
Q 988 4650 1302 4700 
Q 1616 4750 1894 4750 
Q 2613 4750 3031 4423 
Q 3450 4097 3450 3541 
Q 3450 3153 3228 2886 
Q 3006 2619 2597 2516 
z
" transform="scale(0.015625)"/>
       </defs>
       <use xlink:href="#DejaVuSans-33"/>
       <use xlink:href="#DejaVuSans-2e" x="63.623047"/>
       <use xlink:href="#DejaVuSans-30" x="95.410156"/>
      </g>
     </g>
    </g>
    <g id="ytick_8">
     <g id="line2d_31">
      <path d="M 47.91125 14.831662 
L 614.207 14.831662 
" clip-path="url(#p62f1dbc679)" style="fill: none; stroke-dasharray: 0.5,0.825; stroke-dashoffset: 0; stroke: #b0b0b0; stroke-width: 0.5"/>
     </g>
     <g id="line2d_32">
      <g>
       <use xlink:href="#mcc063c6528" x="47.91125" y="14.831662" style="stroke: #000000; stroke-width: 0.8"/>
      </g>
     </g>
     <g id="text_17">
      <!-- 3.5 -->
      <g transform="translate(25.008125 18.63088) scale(0.1 -0.1)">
       <use xlink:href="#DejaVuSans-33"/>
       <use xlink:href="#DejaVuSans-2e" x="63.623047"/>
       <use xlink:href="#DejaVuSans-35" x="95.410156"/>
      </g>
     </g>
    </g>
    <g id="text_18">
     <!-- max_dt -->
     <g transform="translate(18.650313 148.203721) rotate(-90) scale(0.1 -0.1)">
      <defs>
       <path id="DejaVuSans-61" d="M 2194 1759 
Q 1497 1759 1228 1600 
Q 959 1441 959 1056 
Q 959 750 1161 570 
Q 1363 391 1709 391 
Q 2188 391 2477 730 
Q 2766 1069 2766 1631 
L 2766 1759 
L 2194 1759 
z
M 3341 1997 
L 3341 0 
L 2766 0 
L 2766 531 
Q 2569 213 2275 61 
Q 1981 -91 1556 -91 
Q 1019 -91 701 211 
Q 384 513 384 1019 
Q 384 1609 779 1909 
Q 1175 2209 1959 2209 
L 2766 2209 
L 2766 2266 
Q 2766 2663 2505 2880 
Q 2244 3097 1772 3097 
Q 1472 3097 1187 3025 
Q 903 2953 641 2809 
L 641 3341 
Q 956 3463 1253 3523 
Q 1550 3584 1831 3584 
Q 2591 3584 2966 3190 
Q 3341 2797 3341 1997 
z
" transform="scale(0.015625)"/>
       <path id="DejaVuSans-78" d="M 3513 3500 
L 2247 1797 
L 3578 0 
L 2900 0 
L 1881 1375 
L 863 0 
L 184 0 
L 1544 1831 
L 300 3500 
L 978 3500 
L 1906 2253 
L 2834 3500 
L 3513 3500 
z
" transform="scale(0.015625)"/>
       <path id="DejaVuSans-5f" d="M 3263 -1063 
L 3263 -1509 
L -63 -1509 
L -63 -1063 
L 3263 -1063 
z
" transform="scale(0.015625)"/>
       <path id="DejaVuSans-64" d="M 2906 2969 
L 2906 4863 
L 3481 4863 
L 3481 0 
L 2906 0 
L 2906 525 
Q 2725 213 2448 61 
Q 2172 -91 1784 -91 
Q 1150 -91 751 415 
Q 353 922 353 1747 
Q 353 2572 751 3078 
Q 1150 3584 1784 3584 
Q 2172 3584 2448 3432 
Q 2725 3281 2906 2969 
z
M 947 1747 
Q 947 1113 1208 752 
Q 1469 391 1925 391 
Q 2381 391 2643 752 
Q 2906 1113 2906 1747 
Q 2906 2381 2643 2742 
Q 2381 3103 1925 3103 
Q 1469 3103 1208 2742 
Q 947 2381 947 1747 
z
" transform="scale(0.015625)"/>
      </defs>
      <use xlink:href="#DejaVuSans-6d"/>
      <use xlink:href="#DejaVuSans-61" x="97.412109"/>
      <use xlink:href="#DejaVuSans-78" x="158.691406"/>
      <use xlink:href="#DejaVuSans-5f" x="217.871094"/>
      <use xlink:href="#DejaVuSans-64" x="267.871094"/>
      <use xlink:href="#DejaVuSans-74" x="331.347656"/>
     </g>
    </g>
   </g>
   <g id="line2d_33">
    <path d="M 73.651966 25.830799 
L 100.747456 234.167402 
L 127.842947 230.285353 
L 154.938437 233.520394 
L 182.033928 231.579369 
L 209.129418 234.167402 
L 236.224908 230.932361 
L 263.320399 232.226377 
L 290.415889 233.520394 
L 317.51138 227.697321 
L 344.60687 230.932361 
L 371.702361 230.932361 
L 398.797851 232.226377 
L 425.893342 232.226377 
L 452.988832 231.579369 
L 480.084322 230.932361 
L 507.179813 231.579369 
L 534.275303 231.579369 
L 561.370794 232.873386 
L 588.466284 233.520394 
" clip-path="url(#p62f1dbc679)" style="fill: none; stroke: #1f77b4; stroke-width: 1.5; stroke-linecap: square"/>
    <defs>
     <path id="md752063fac" d="M 0 3 
C 0.795609 3 1.55874 2.683901 2.12132 2.12132 
C 2.683901 1.55874 3 0.795609 3 0 
C 3 -0.795609 2.683901 -1.55874 2.12132 -2.12132 
C 1.55874 -2.683901 0.795609 -3 0 -3 
C -0.795609 -3 -1.55874 -2.683901 -2.12132 -2.12132 
C -2.683901 -1.55874 -3 -0.795609 -3 0 
C -3 0.795609 -2.683901 1.55874 -2.12132 2.12132 
C -1.55874 2.683901 -0.795609 3 0 3 
z
" style="stroke: #1f77b4"/>
    </defs>
    <g clip-path="url(#p62f1dbc679)">
     <use xlink:href="#md752063fac" x="73.651966" y="25.830799" style="fill: #1f77b4; stroke: #1f77b4"/>
     <use xlink:href="#md752063fac" x="100.747456" y="234.167402" style="fill: #1f77b4; stroke: #1f77b4"/>
     <use xlink:href="#md752063fac" x="127.842947" y="230.285353" style="fill: #1f77b4; stroke: #1f77b4"/>
     <use xlink:href="#md752063fac" x="154.938437" y="233.520394" style="fill: #1f77b4; stroke: #1f77b4"/>
     <use xlink:href="#md752063fac" x="182.033928" y="231.579369" style="fill: #1f77b4; stroke: #1f77b4"/>
     <use xlink:href="#md752063fac" x="209.129418" y="234.167402" style="fill: #1f77b4; stroke: #1f77b4"/>
     <use xlink:href="#md752063fac" x="236.224908" y="230.932361" style="fill: #1f77b4; stroke: #1f77b4"/>
     <use xlink:href="#md752063fac" x="263.320399" y="232.226377" style="fill: #1f77b4; stroke: #1f77b4"/>
     <use xlink:href="#md752063fac" x="290.415889" y="233.520394" style="fill: #1f77b4; stroke: #1f77b4"/>
     <use xlink:href="#md752063fac" x="317.51138" y="227.697321" style="fill: #1f77b4; stroke: #1f77b4"/>
     <use xlink:href="#md752063fac" x="344.60687" y="230.932361" style="fill: #1f77b4; stroke: #1f77b4"/>
     <use xlink:href="#md752063fac" x="371.702361" y="230.932361" style="fill: #1f77b4; stroke: #1f77b4"/>
     <use xlink:href="#md752063fac" x="398.797851" y="232.226377" style="fill: #1f77b4; stroke: #1f77b4"/>
     <use xlink:href="#md752063fac" x="425.893342" y="232.226377" style="fill: #1f77b4; stroke: #1f77b4"/>
     <use xlink:href="#md752063fac" x="452.988832" y="231.579369" style="fill: #1f77b4; stroke: #1f77b4"/>
     <use xlink:href="#md752063fac" x="480.084322" y="230.932361" style="fill: #1f77b4; stroke: #1f77b4"/>
     <use xlink:href="#md752063fac" x="507.179813" y="231.579369" style="fill: #1f77b4; stroke: #1f77b4"/>
     <use xlink:href="#md752063fac" x="534.275303" y="231.579369" style="fill: #1f77b4; stroke: #1f77b4"/>
     <use xlink:href="#md752063fac" x="561.370794" y="232.873386" style="fill: #1f77b4; stroke: #1f77b4"/>
     <use xlink:href="#md752063fac" x="588.466284" y="233.520394" style="fill: #1f77b4; stroke: #1f77b4"/>
    </g>
   </g>
   <g id="line2d_34">
    <path d="M 73.651966 25.183791 
L 100.747456 233.520394 
L 127.842947 231.579369 
L 154.938437 232.226377 
L 182.033928 234.81441 
L 209.129418 231.579369 
L 236.224908 235.461418 
L 263.320399 234.81441 
L 290.415889 234.167402 
L 317.51138 230.932361 
L 344.60687 232.226377 
L 371.702361 227.697321 
L 398.797851 230.932361 
L 425.893342 234.167402 
L 452.988832 233.520394 
L 480.084322 232.226377 
L 507.179813 229.638345 
L 534.275303 231.579369 
L 561.370794 230.285353 
L 588.466284 232.873386 
" clip-path="url(#p62f1dbc679)" style="fill: none; stroke: #ff7f0e; stroke-width: 1.5; stroke-linecap: square"/>
    <defs>
     <path id="m48335dc8d3" d="M 0 3 
C 0.795609 3 1.55874 2.683901 2.12132 2.12132 
C 2.683901 1.55874 3 0.795609 3 0 
C 3 -0.795609 2.683901 -1.55874 2.12132 -2.12132 
C 1.55874 -2.683901 0.795609 -3 0 -3 
C -0.795609 -3 -1.55874 -2.683901 -2.12132 -2.12132 
C -2.683901 -1.55874 -3 -0.795609 -3 0 
C -3 0.795609 -2.683901 1.55874 -2.12132 2.12132 
C -1.55874 2.683901 -0.795609 3 0 3 
z
" style="stroke: #ff7f0e"/>
    </defs>
    <g clip-path="url(#p62f1dbc679)">
     <use xlink:href="#m48335dc8d3" x="73.651966" y="25.183791" style="fill: #ff7f0e; stroke: #ff7f0e"/>
     <use xlink:href="#m48335dc8d3" x="100.747456" y="233.520394" style="fill: #ff7f0e; stroke: #ff7f0e"/>
     <use xlink:href="#m48335dc8d3" x="127.842947" y="231.579369" style="fill: #ff7f0e; stroke: #ff7f0e"/>
     <use xlink:href="#m48335dc8d3" x="154.938437" y="232.226377" style="fill: #ff7f0e; stroke: #ff7f0e"/>
     <use xlink:href="#m48335dc8d3" x="182.033928" y="234.81441" style="fill: #ff7f0e; stroke: #ff7f0e"/>
     <use xlink:href="#m48335dc8d3" x="209.129418" y="231.579369" style="fill: #ff7f0e; stroke: #ff7f0e"/>
     <use xlink:href="#m48335dc8d3" x="236.224908" y="235.461418" style="fill: #ff7f0e; stroke: #ff7f0e"/>
     <use xlink:href="#m48335dc8d3" x="263.320399" y="234.81441" style="fill: #ff7f0e; stroke: #ff7f0e"/>
     <use xlink:href="#m48335dc8d3" x="290.415889" y="234.167402" style="fill: #ff7f0e; stroke: #ff7f0e"/>
     <use xlink:href="#m48335dc8d3" x="317.51138" y="230.932361" style="fill: #ff7f0e; stroke: #ff7f0e"/>
     <use xlink:href="#m48335dc8d3" x="344.60687" y="232.226377" style="fill: #ff7f0e; stroke: #ff7f0e"/>
     <use xlink:href="#m48335dc8d3" x="371.702361" y="227.697321" style="fill: #ff7f0e; stroke: #ff7f0e"/>
     <use xlink:href="#m48335dc8d3" x="398.797851" y="230.932361" style="fill: #ff7f0e; stroke: #ff7f0e"/>
     <use xlink:href="#m48335dc8d3" x="425.893342" y="234.167402" style="fill: #ff7f0e; stroke: #ff7f0e"/>
     <use xlink:href="#m48335dc8d3" x="452.988832" y="233.520394" style="fill: #ff7f0e; stroke: #ff7f0e"/>
     <use xlink:href="#m48335dc8d3" x="480.084322" y="232.226377" style="fill: #ff7f0e; stroke: #ff7f0e"/>
     <use xlink:href="#m48335dc8d3" x="507.179813" y="229.638345" style="fill: #ff7f0e; stroke: #ff7f0e"/>
     <use xlink:href="#m48335dc8d3" x="534.275303" y="231.579369" style="fill: #ff7f0e; stroke: #ff7f0e"/>
     <use xlink:href="#m48335dc8d3" x="561.370794" y="230.285353" style="fill: #ff7f0e; stroke: #ff7f0e"/>
     <use xlink:href="#m48335dc8d3" x="588.466284" y="232.873386" style="fill: #ff7f0e; stroke: #ff7f0e"/>
    </g>
   </g>
   <g id="line2d_35">
    <path d="M 73.651966 23.889775 
L 100.747456 172.054626 
L 127.842947 170.113601 
L 154.938437 165.584545 
L 182.033928 164.290529 
L 209.129418 162.996513 
L 236.224908 161.702496 
L 263.320399 161.055488 
L 290.415889 160.40848 
L 317.51138 160.40848 
L 344.60687 159.114464 
L 371.702361 157.820448 
L 398.797851 159.114464 
L 425.893342 159.114464 
L 452.988832 157.820448 
L 480.084322 158.467456 
L 507.179813 159.114464 
L 534.275303 159.114464 
L 561.370794 159.114464 
L 588.466284 159.114464 
" clip-path="url(#p62f1dbc679)" style="fill: none; stroke: #2ca02c; stroke-width: 1.5; stroke-linecap: square"/>
    <defs>
     <path id="m2db13626cc" d="M 0 3 
C 0.795609 3 1.55874 2.683901 2.12132 2.12132 
C 2.683901 1.55874 3 0.795609 3 0 
C 3 -0.795609 2.683901 -1.55874 2.12132 -2.12132 
C 1.55874 -2.683901 0.795609 -3 0 -3 
C -0.795609 -3 -1.55874 -2.683901 -2.12132 -2.12132 
C -2.683901 -1.55874 -3 -0.795609 -3 0 
C -3 0.795609 -2.683901 1.55874 -2.12132 2.12132 
C -1.55874 2.683901 -0.795609 3 0 3 
z
" style="stroke: #2ca02c"/>
    </defs>
    <g clip-path="url(#p62f1dbc679)">
     <use xlink:href="#m2db13626cc" x="73.651966" y="23.889775" style="fill: #2ca02c; stroke: #2ca02c"/>
     <use xlink:href="#m2db13626cc" x="100.747456" y="172.054626" style="fill: #2ca02c; stroke: #2ca02c"/>
     <use xlink:href="#m2db13626cc" x="127.842947" y="170.113601" style="fill: #2ca02c; stroke: #2ca02c"/>
     <use xlink:href="#m2db13626cc" x="154.938437" y="165.584545" style="fill: #2ca02c; stroke: #2ca02c"/>
     <use xlink:href="#m2db13626cc" x="182.033928" y="164.290529" style="fill: #2ca02c; stroke: #2ca02c"/>
     <use xlink:href="#m2db13626cc" x="209.129418" y="162.996513" style="fill: #2ca02c; stroke: #2ca02c"/>
     <use xlink:href="#m2db13626cc" x="236.224908" y="161.702496" style="fill: #2ca02c; stroke: #2ca02c"/>
     <use xlink:href="#m2db13626cc" x="263.320399" y="161.055488" style="fill: #2ca02c; stroke: #2ca02c"/>
     <use xlink:href="#m2db13626cc" x="290.415889" y="160.40848" style="fill: #2ca02c; stroke: #2ca02c"/>
     <use xlink:href="#m2db13626cc" x="317.51138" y="160.40848" style="fill: #2ca02c; stroke: #2ca02c"/>
     <use xlink:href="#m2db13626cc" x="344.60687" y="159.114464" style="fill: #2ca02c; stroke: #2ca02c"/>
     <use xlink:href="#m2db13626cc" x="371.702361" y="157.820448" style="fill: #2ca02c; stroke: #2ca02c"/>
     <use xlink:href="#m2db13626cc" x="398.797851" y="159.114464" style="fill: #2ca02c; stroke: #2ca02c"/>
     <use xlink:href="#m2db13626cc" x="425.893342" y="159.114464" style="fill: #2ca02c; stroke: #2ca02c"/>
     <use xlink:href="#m2db13626cc" x="452.988832" y="157.820448" style="fill: #2ca02c; stroke: #2ca02c"/>
     <use xlink:href="#m2db13626cc" x="480.084322" y="158.467456" style="fill: #2ca02c; stroke: #2ca02c"/>
     <use xlink:href="#m2db13626cc" x="507.179813" y="159.114464" style="fill: #2ca02c; stroke: #2ca02c"/>
     <use xlink:href="#m2db13626cc" x="534.275303" y="159.114464" style="fill: #2ca02c; stroke: #2ca02c"/>
     <use xlink:href="#m2db13626cc" x="561.370794" y="159.114464" style="fill: #2ca02c; stroke: #2ca02c"/>
     <use xlink:href="#m2db13626cc" x="588.466284" y="159.114464" style="fill: #2ca02c; stroke: #2ca02c"/>
    </g>
   </g>
   <g id="line2d_36">
    <path d="M 73.651966 25.830799 
L 100.747456 172.054626 
L 127.842947 170.113601 
L 154.938437 165.584545 
L 182.033928 164.290529 
L 209.129418 162.996513 
L 236.224908 161.702496 
L 263.320399 160.40848 
L 290.415889 160.40848 
L 317.51138 159.114464 
L 344.60687 159.114464 
L 371.702361 157.17344 
L 398.797851 157.820448 
L 425.893342 158.467456 
L 452.988832 158.467456 
L 480.084322 158.467456 
L 507.179813 159.114464 
L 534.275303 159.114464 
L 561.370794 158.467456 
L 588.466284 159.114464 
" clip-path="url(#p62f1dbc679)" style="fill: none; stroke: #d62728; stroke-width: 1.5; stroke-linecap: square"/>
    <defs>
     <path id="m67ba73c345" d="M 0 3 
C 0.795609 3 1.55874 2.683901 2.12132 2.12132 
C 2.683901 1.55874 3 0.795609 3 0 
C 3 -0.795609 2.683901 -1.55874 2.12132 -2.12132 
C 1.55874 -2.683901 0.795609 -3 0 -3 
C -0.795609 -3 -1.55874 -2.683901 -2.12132 -2.12132 
C -2.683901 -1.55874 -3 -0.795609 -3 0 
C -3 0.795609 -2.683901 1.55874 -2.12132 2.12132 
C -1.55874 2.683901 -0.795609 3 0 3 
z
" style="stroke: #d62728"/>
    </defs>
    <g clip-path="url(#p62f1dbc679)">
     <use xlink:href="#m67ba73c345" x="73.651966" y="25.830799" style="fill: #d62728; stroke: #d62728"/>
     <use xlink:href="#m67ba73c345" x="100.747456" y="172.054626" style="fill: #d62728; stroke: #d62728"/>
     <use xlink:href="#m67ba73c345" x="127.842947" y="170.113601" style="fill: #d62728; stroke: #d62728"/>
     <use xlink:href="#m67ba73c345" x="154.938437" y="165.584545" style="fill: #d62728; stroke: #d62728"/>
     <use xlink:href="#m67ba73c345" x="182.033928" y="164.290529" style="fill: #d62728; stroke: #d62728"/>
     <use xlink:href="#m67ba73c345" x="209.129418" y="162.996513" style="fill: #d62728; stroke: #d62728"/>
     <use xlink:href="#m67ba73c345" x="236.224908" y="161.702496" style="fill: #d62728; stroke: #d62728"/>
     <use xlink:href="#m67ba73c345" x="263.320399" y="160.40848" style="fill: #d62728; stroke: #d62728"/>
     <use xlink:href="#m67ba73c345" x="290.415889" y="160.40848" style="fill: #d62728; stroke: #d62728"/>
     <use xlink:href="#m67ba73c345" x="317.51138" y="159.114464" style="fill: #d62728; stroke: #d62728"/>
     <use xlink:href="#m67ba73c345" x="344.60687" y="159.114464" style="fill: #d62728; stroke: #d62728"/>
     <use xlink:href="#m67ba73c345" x="371.702361" y="157.17344" style="fill: #d62728; stroke: #d62728"/>
     <use xlink:href="#m67ba73c345" x="398.797851" y="157.820448" style="fill: #d62728; stroke: #d62728"/>
     <use xlink:href="#m67ba73c345" x="425.893342" y="158.467456" style="fill: #d62728; stroke: #d62728"/>
     <use xlink:href="#m67ba73c345" x="452.988832" y="158.467456" style="fill: #d62728; stroke: #d62728"/>
     <use xlink:href="#m67ba73c345" x="480.084322" y="158.467456" style="fill: #d62728; stroke: #d62728"/>
     <use xlink:href="#m67ba73c345" x="507.179813" y="159.114464" style="fill: #d62728; stroke: #d62728"/>
     <use xlink:href="#m67ba73c345" x="534.275303" y="159.114464" style="fill: #d62728; stroke: #d62728"/>
     <use xlink:href="#m67ba73c345" x="561.370794" y="158.467456" style="fill: #d62728; stroke: #d62728"/>
     <use xlink:href="#m67ba73c345" x="588.466284" y="159.114464" style="fill: #d62728; stroke: #d62728"/>
    </g>
   </g>
   <g id="patch_3">
    <path d="M 47.91125 246.04 
L 47.91125 13.311193 
" style="fill: none; stroke: #000000; stroke-width: 0.8; stroke-linejoin: miter; stroke-linecap: square"/>
   </g>
   <g id="patch_4">
    <path d="M 614.207 246.04 
L 614.207 13.311193 
" style="fill: none; stroke: #000000; stroke-width: 0.8; stroke-linejoin: miter; stroke-linecap: square"/>
   </g>
   <g id="patch_5">
    <path d="M 47.91125 246.04 
L 614.207 246.04 
" style="fill: none; stroke: #000000; stroke-width: 0.8; stroke-linejoin: miter; stroke-linecap: square"/>
   </g>
   <g id="patch_6">
    <path d="M 47.91125 13.311193 
L 614.207 13.311193 
" style="fill: none; stroke: #000000; stroke-width: 0.8; stroke-linejoin: miter; stroke-linecap: square"/>
   </g>
   <g id="legend_1">
    <g id="patch_7">
     <path d="M 620.038 155.378853 
L 707.398875 155.378853 
Q 709.064875 155.378853 709.064875 153.712853 
L 709.064875 105.63834 
Q 709.064875 103.97234 707.398875 103.97234 
L 620.038 103.97234 
Q 618.372 103.97234 618.372 105.63834 
L 618.372 153.712853 
Q 618.372 155.378853 620.038 155.378853 
z
" style="fill: #ffffff; opacity: 0.8; stroke: #cccccc; stroke-linejoin: miter"/>
    </g>
    <g id="line2d_37">
     <path d="M 621.704 110.718339 
L 630.034 110.718339 
L 638.364 110.718339 
" style="fill: none; stroke: #1f77b4; stroke-width: 1.5; stroke-linecap: square"/>
     <g>
      <use xlink:href="#md752063fac" x="630.034" y="110.718339" style="fill: #1f77b4; stroke: #1f77b4"/>
     </g>
    </g>
    <g id="text_19">
     <!-- 8-F100-gilbert -->
     <g transform="translate(645.028 113.633839) scale(0.0833 -0.0833)">
      <defs>
       <path id="DejaVuSans-38" d="M 2034 2216 
Q 1584 2216 1326 1975 
Q 1069 1734 1069 1313 
Q 1069 891 1326 650 
Q 1584 409 2034 409 
Q 2484 409 2743 651 
Q 3003 894 3003 1313 
Q 3003 1734 2745 1975 
Q 2488 2216 2034 2216 
z
M 1403 2484 
Q 997 2584 770 2862 
Q 544 3141 544 3541 
Q 544 4100 942 4425 
Q 1341 4750 2034 4750 
Q 2731 4750 3128 4425 
Q 3525 4100 3525 3541 
Q 3525 3141 3298 2862 
Q 3072 2584 2669 2484 
Q 3125 2378 3379 2068 
Q 3634 1759 3634 1313 
Q 3634 634 3220 271 
Q 2806 -91 2034 -91 
Q 1263 -91 848 271 
Q 434 634 434 1313 
Q 434 1759 690 2068 
Q 947 2378 1403 2484 
z
M 1172 3481 
Q 1172 3119 1398 2916 
Q 1625 2713 2034 2713 
Q 2441 2713 2670 2916 
Q 2900 3119 2900 3481 
Q 2900 3844 2670 4047 
Q 2441 4250 2034 4250 
Q 1625 4250 1398 4047 
Q 1172 3844 1172 3481 
z
" transform="scale(0.015625)"/>
       <path id="DejaVuSans-2d" d="M 313 2009 
L 1997 2009 
L 1997 1497 
L 313 1497 
L 313 2009 
z
" transform="scale(0.015625)"/>
       <path id="DejaVuSans-46" d="M 628 4666 
L 3309 4666 
L 3309 4134 
L 1259 4134 
L 1259 2759 
L 3109 2759 
L 3109 2228 
L 1259 2228 
L 1259 0 
L 628 0 
L 628 4666 
z
" transform="scale(0.015625)"/>
       <path id="DejaVuSans-69" d="M 603 3500 
L 1178 3500 
L 1178 0 
L 603 0 
L 603 3500 
z
M 603 4863 
L 1178 4863 
L 1178 4134 
L 603 4134 
L 603 4863 
z
" transform="scale(0.015625)"/>
       <path id="DejaVuSans-6c" d="M 603 4863 
L 1178 4863 
L 1178 0 
L 603 0 
L 603 4863 
z
" transform="scale(0.015625)"/>
       <path id="DejaVuSans-62" d="M 3116 1747 
Q 3116 2381 2855 2742 
Q 2594 3103 2138 3103 
Q 1681 3103 1420 2742 
Q 1159 2381 1159 1747 
Q 1159 1113 1420 752 
Q 1681 391 2138 391 
Q 2594 391 2855 752 
Q 3116 1113 3116 1747 
z
M 1159 2969 
Q 1341 3281 1617 3432 
Q 1894 3584 2278 3584 
Q 2916 3584 3314 3078 
Q 3713 2572 3713 1747 
Q 3713 922 3314 415 
Q 2916 -91 2278 -91 
Q 1894 -91 1617 61 
Q 1341 213 1159 525 
L 1159 0 
L 581 0 
L 581 4863 
L 1159 4863 
L 1159 2969 
z
" transform="scale(0.015625)"/>
       <path id="DejaVuSans-72" d="M 2631 2963 
Q 2534 3019 2420 3045 
Q 2306 3072 2169 3072 
Q 1681 3072 1420 2755 
Q 1159 2438 1159 1844 
L 1159 0 
L 581 0 
L 581 3500 
L 1159 3500 
L 1159 2956 
Q 1341 3275 1631 3429 
Q 1922 3584 2338 3584 
Q 2397 3584 2469 3576 
Q 2541 3569 2628 3553 
L 2631 2963 
z
" transform="scale(0.015625)"/>
      </defs>
      <use xlink:href="#DejaVuSans-38"/>
      <use xlink:href="#DejaVuSans-2d" x="63.623047"/>
      <use xlink:href="#DejaVuSans-46" x="99.707031"/>
      <use xlink:href="#DejaVuSans-31" x="157.226562"/>
      <use xlink:href="#DejaVuSans-30" x="220.849609"/>
      <use xlink:href="#DejaVuSans-30" x="284.472656"/>
      <use xlink:href="#DejaVuSans-2d" x="348.095703"/>
      <use xlink:href="#DejaVuSans-67" x="384.179688"/>
      <use xlink:href="#DejaVuSans-69" x="447.65625"/>
      <use xlink:href="#DejaVuSans-6c" x="475.439453"/>
      <use xlink:href="#DejaVuSans-62" x="503.222656"/>
      <use xlink:href="#DejaVuSans-65" x="566.699219"/>
      <use xlink:href="#DejaVuSans-72" x="628.222656"/>
      <use xlink:href="#DejaVuSans-74" x="669.335938"/>
     </g>
    </g>
    <g id="line2d_38">
     <path d="M 621.704 122.945217 
L 630.034 122.945217 
L 638.364 122.945217 
" style="fill: none; stroke: #ff7f0e; stroke-width: 1.5; stroke-linecap: square"/>
     <g>
      <use xlink:href="#m48335dc8d3" x="630.034" y="122.945217" style="fill: #ff7f0e; stroke: #ff7f0e"/>
     </g>
    </g>
    <g id="text_20">
     <!-- 8-F100-hilbert -->
     <g transform="translate(645.028 125.860717) scale(0.0833 -0.0833)">
      <defs>
       <path id="DejaVuSans-68" d="M 3513 2113 
L 3513 0 
L 2938 0 
L 2938 2094 
Q 2938 2591 2744 2837 
Q 2550 3084 2163 3084 
Q 1697 3084 1428 2787 
Q 1159 2491 1159 1978 
L 1159 0 
L 581 0 
L 581 4863 
L 1159 4863 
L 1159 2956 
Q 1366 3272 1645 3428 
Q 1925 3584 2291 3584 
Q 2894 3584 3203 3211 
Q 3513 2838 3513 2113 
z
" transform="scale(0.015625)"/>
      </defs>
      <use xlink:href="#DejaVuSans-38"/>
      <use xlink:href="#DejaVuSans-2d" x="63.623047"/>
      <use xlink:href="#DejaVuSans-46" x="99.707031"/>
      <use xlink:href="#DejaVuSans-31" x="157.226562"/>
      <use xlink:href="#DejaVuSans-30" x="220.849609"/>
      <use xlink:href="#DejaVuSans-30" x="284.472656"/>
      <use xlink:href="#DejaVuSans-2d" x="348.095703"/>
      <use xlink:href="#DejaVuSans-68" x="384.179688"/>
      <use xlink:href="#DejaVuSans-69" x="447.558594"/>
      <use xlink:href="#DejaVuSans-6c" x="475.341797"/>
      <use xlink:href="#DejaVuSans-62" x="503.125"/>
      <use xlink:href="#DejaVuSans-65" x="566.601562"/>
      <use xlink:href="#DejaVuSans-72" x="628.125"/>
      <use xlink:href="#DejaVuSans-74" x="669.238281"/>
     </g>
    </g>
    <g id="line2d_39">
     <path d="M 621.704 135.172095 
L 630.034 135.172095 
L 638.364 135.172095 
" style="fill: none; stroke: #2ca02c; stroke-width: 1.5; stroke-linecap: square"/>
     <g>
      <use xlink:href="#m2db13626cc" x="630.034" y="135.172095" style="fill: #2ca02c; stroke: #2ca02c"/>
     </g>
    </g>
    <g id="text_21">
     <!-- 8-F100-rcb -->
     <g transform="translate(645.028 138.087595) scale(0.0833 -0.0833)">
      <defs>
       <path id="DejaVuSans-63" d="M 3122 3366 
L 3122 2828 
Q 2878 2963 2633 3030 
Q 2388 3097 2138 3097 
Q 1578 3097 1268 2742 
Q 959 2388 959 1747 
Q 959 1106 1268 751 
Q 1578 397 2138 397 
Q 2388 397 2633 464 
Q 2878 531 3122 666 
L 3122 134 
Q 2881 22 2623 -34 
Q 2366 -91 2075 -91 
Q 1284 -91 818 406 
Q 353 903 353 1747 
Q 353 2603 823 3093 
Q 1294 3584 2113 3584 
Q 2378 3584 2631 3529 
Q 2884 3475 3122 3366 
z
" transform="scale(0.015625)"/>
      </defs>
      <use xlink:href="#DejaVuSans-38"/>
      <use xlink:href="#DejaVuSans-2d" x="63.623047"/>
      <use xlink:href="#DejaVuSans-46" x="99.707031"/>
      <use xlink:href="#DejaVuSans-31" x="157.226562"/>
      <use xlink:href="#DejaVuSans-30" x="220.849609"/>
      <use xlink:href="#DejaVuSans-30" x="284.472656"/>
      <use xlink:href="#DejaVuSans-2d" x="348.095703"/>
      <use xlink:href="#DejaVuSans-72" x="384.179688"/>
      <use xlink:href="#DejaVuSans-63" x="423.042969"/>
      <use xlink:href="#DejaVuSans-62" x="478.023438"/>
     </g>
    </g>
    <g id="line2d_40">
     <path d="M 621.704 147.398973 
L 630.034 147.398973 
L 638.364 147.398973 
" style="fill: none; stroke: #d62728; stroke-width: 1.5; stroke-linecap: square"/>
     <g>
      <use xlink:href="#m67ba73c345" x="630.034" y="147.398973" style="fill: #d62728; stroke: #d62728"/>
     </g>
    </g>
    <g id="text_22">
     <!-- 8-F100-rcbincr -->
     <g transform="translate(645.028 150.314473) scale(0.0833 -0.0833)">
      <use xlink:href="#DejaVuSans-38"/>
      <use xlink:href="#DejaVuSans-2d" x="63.623047"/>
      <use xlink:href="#DejaVuSans-46" x="99.707031"/>
      <use xlink:href="#DejaVuSans-31" x="157.226562"/>
      <use xlink:href="#DejaVuSans-30" x="220.849609"/>
      <use xlink:href="#DejaVuSans-30" x="284.472656"/>
      <use xlink:href="#DejaVuSans-2d" x="348.095703"/>
      <use xlink:href="#DejaVuSans-72" x="384.179688"/>
      <use xlink:href="#DejaVuSans-63" x="423.042969"/>
      <use xlink:href="#DejaVuSans-62" x="478.023438"/>
      <use xlink:href="#DejaVuSans-69" x="541.5"/>
      <use xlink:href="#DejaVuSans-6e" x="569.283203"/>
      <use xlink:href="#DejaVuSans-63" x="632.662109"/>
      <use xlink:href="#DejaVuSans-72" x="687.642578"/>
     </g>
    </g>
   </g>
  </g>
 </g>
 <defs>
  <clipPath id="p62f1dbc679">
   <rect x="47.91125" y="13.311193" width="566.29575" height="232.728807"/>
  </clipPath>
 </defs>
</svg>
