<?xml version="1.0" encoding="utf-8" standalone="no"?>
<!DOCTYPE svg PUBLIC "-//W3C//DTD SVG 1.1//EN"
  "http://www.w3.org/Graphics/SVG/1.1/DTD/svg11.dtd">
<svg xmlns:xlink="http://www.w3.org/1999/xlink" width="720pt" height="288pt" viewBox="0 0 720 288" xmlns="http://www.w3.org/2000/svg" version="1.1">
 <metadata>
  <rdf:RDF xmlns:dc="http://purl.org/dc/elements/1.1/" xmlns:cc="http://creativecommons.org/ns#" xmlns:rdf="http://www.w3.org/1999/02/22-rdf-syntax-ns#">
   <cc:Work>
    <dc:type rdf:resource="http://purl.org/dc/dcmitype/StillImage"/>
    <dc:date>2025-10-05T20:40:04.058468</dc:date>
    <dc:format>image/svg+xml</dc:format>
    <dc:creator>
     <cc:Agent>
      <dc:title>Matplotlib v3.6.3, https://matplotlib.org/</dc:title>
     </cc:Agent>
    </dc:creator>
   </cc:Work>
  </rdf:RDF>
 </metadata>
 <defs>
  <style type="text/css">*{stroke-linejoin: round; stroke-linecap: butt}</style>
 </defs>
 <g id="figure_1">
  <g id="patch_1">
   <path d="M 0 288 
L 720 288 
L 720 0 
L 0 0 
z
" style="fill: #ffffff"/>
  </g>
  <g id="axes_1">
   <g id="patch_2">
    <path d="M 47.91125 246.04 
L 608.897 246.04 
L 608.897 10.8 
L 47.91125 10.8 
z
" style="fill: #ffffff"/>
   </g>
   <g id="matplotlib.axis_1">
    <g id="xtick_1">
     <g id="line2d_1">
      <path d="M 113.672737 246.04 
L 113.672737 10.8 
" clip-path="url(#p53b7d09780)" style="fill: none; stroke-dasharray: 0.5,0.825; stroke-dashoffset: 0; stroke: #b0b0b0; stroke-width: 0.5"/>
     </g>
     <g id="line2d_2">
      <defs>
       <path id="m797198b787" d="M 0 0 
L 0 3.5 
" style="stroke: #000000; stroke-width: 0.8"/>
      </defs>
      <g>
       <use xlink:href="#m797198b787" x="113.672737" y="246.04" style="stroke: #000000; stroke-width: 0.8"/>
      </g>
     </g>
     <g id="text_1">
      <!-- 2.5 -->
      <g transform="translate(105.721175 260.638438) scale(0.1 -0.1)">
       <defs>
        <path id="DejaVuSans-32" d="M 1228 531 
L 3431 531 
L 3431 0 
L 469 0 
L 469 531 
Q 828 903 1448 1529 
Q 2069 2156 2228 2338 
Q 2531 2678 2651 2914 
Q 2772 3150 2772 3378 
Q 2772 3750 2511 3984 
Q 2250 4219 1831 4219 
Q 1534 4219 1204 4116 
Q 875 4013 500 3803 
L 500 4441 
Q 881 4594 1212 4672 
Q 1544 4750 1819 4750 
Q 2544 4750 2975 4387 
Q 3406 4025 3406 3419 
Q 3406 3131 3298 2873 
Q 3191 2616 2906 2266 
Q 2828 2175 2409 1742 
Q 1991 1309 1228 531 
z
" transform="scale(0.015625)"/>
        <path id="DejaVuSans-2e" d="M 684 794 
L 1344 794 
L 1344 0 
L 684 0 
L 684 794 
z
" transform="scale(0.015625)"/>
        <path id="DejaVuSans-35" d="M 691 4666 
L 3169 4666 
L 3169 4134 
L 1269 4134 
L 1269 2991 
Q 1406 3038 1543 3061 
Q 1681 3084 1819 3084 
Q 2600 3084 3056 2656 
Q 3513 2228 3513 1497 
Q 3513 744 3044 326 
Q 2575 -91 1722 -91 
Q 1428 -91 1123 -41 
Q 819 9 494 109 
L 494 744 
Q 775 591 1075 516 
Q 1375 441 1709 441 
Q 2250 441 2565 725 
Q 2881 1009 2881 1497 
Q 2881 1984 2565 2268 
Q 2250 2553 1709 2553 
Q 1456 2553 1204 2497 
Q 953 2441 691 2322 
L 691 4666 
z
" transform="scale(0.015625)"/>
       </defs>
       <use xlink:href="#DejaVuSans-32"/>
       <use xlink:href="#DejaVuSans-2e" x="63.623047"/>
       <use xlink:href="#DejaVuSans-35" x="95.410156"/>
      </g>
     </g>
    </g>
    <g id="xtick_2">
     <g id="line2d_3">
      <path d="M 180.776296 246.04 
L 180.776296 10.8 
" clip-path="url(#p53b7d09780)" style="fill: none; stroke-dasharray: 0.5,0.825; stroke-dashoffset: 0; stroke: #b0b0b0; stroke-width: 0.5"/>
     </g>
     <g id="line2d_4">
      <g>
       <use xlink:href="#m797198b787" x="180.776296" y="246.04" style="stroke: #000000; stroke-width: 0.8"/>
      </g>
     </g>
     <g id="text_2">
      <!-- 5.0 -->
      <g transform="translate(172.824734 260.638438) scale(0.1 -0.1)">
       <defs>
        <path id="DejaVuSans-30" d="M 2034 4250 
Q 1547 4250 1301 3770 
Q 1056 3291 1056 2328 
Q 1056 1369 1301 889 
Q 1547 409 2034 409 
Q 2525 409 2770 889 
Q 3016 1369 3016 2328 
Q 3016 3291 2770 3770 
Q 2525 4250 2034 4250 
z
M 2034 4750 
Q 2819 4750 3233 4129 
Q 3647 3509 3647 2328 
Q 3647 1150 3233 529 
Q 2819 -91 2034 -91 
Q 1250 -91 836 529 
Q 422 1150 422 2328 
Q 422 3509 836 4129 
Q 1250 4750 2034 4750 
z
" transform="scale(0.015625)"/>
       </defs>
       <use xlink:href="#DejaVuSans-35"/>
       <use xlink:href="#DejaVuSans-2e" x="63.623047"/>
       <use xlink:href="#DejaVuSans-30" x="95.410156"/>
      </g>
     </g>
    </g>
    <g id="xtick_3">
     <g id="line2d_5">
      <path d="M 247.879855 246.04 
L 247.879855 10.8 
" clip-path="url(#p53b7d09780)" style="fill: none; stroke-dasharray: 0.5,0.825; stroke-dashoffset: 0; stroke: #b0b0b0; stroke-width: 0.5"/>
     </g>
     <g id="line2d_6">
      <g>
       <use xlink:href="#m797198b787" x="247.879855" y="246.04" style="stroke: #000000; stroke-width: 0.8"/>
      </g>
     </g>
     <g id="text_3">
      <!-- 7.5 -->
      <g transform="translate(239.928292 260.638438) scale(0.1 -0.1)">
       <defs>
        <path id="DejaVuSans-37" d="M 525 4666 
L 3525 4666 
L 3525 4397 
L 1831 0 
L 1172 0 
L 2766 4134 
L 525 4134 
L 525 4666 
z
" transform="scale(0.015625)"/>
       </defs>
       <use xlink:href="#DejaVuSans-37"/>
       <use xlink:href="#DejaVuSans-2e" x="63.623047"/>
       <use xlink:href="#DejaVuSans-35" x="95.410156"/>
      </g>
     </g>
    </g>
    <g id="xtick_4">
     <g id="line2d_7">
      <path d="M 314.983413 246.04 
L 314.983413 10.8 
" clip-path="url(#p53b7d09780)" style="fill: none; stroke-dasharray: 0.5,0.825; stroke-dashoffset: 0; stroke: #b0b0b0; stroke-width: 0.5"/>
     </g>
     <g id="line2d_8">
      <g>
       <use xlink:href="#m797198b787" x="314.983413" y="246.04" style="stroke: #000000; stroke-width: 0.8"/>
      </g>
     </g>
     <g id="text_4">
      <!-- 10.0 -->
      <g transform="translate(303.850601 260.638438) scale(0.1 -0.1)">
       <defs>
        <path id="DejaVuSans-31" d="M 794 531 
L 1825 531 
L 1825 4091 
L 703 3866 
L 703 4441 
L 1819 4666 
L 2450 4666 
L 2450 531 
L 3481 531 
L 3481 0 
L 794 0 
L 794 531 
z
" transform="scale(0.015625)"/>
       </defs>
       <use xlink:href="#DejaVuSans-31"/>
       <use xlink:href="#DejaVuSans-30" x="63.623047"/>
       <use xlink:href="#DejaVuSans-2e" x="127.246094"/>
       <use xlink:href="#DejaVuSans-30" x="159.033203"/>
      </g>
     </g>
    </g>
    <g id="xtick_5">
     <g id="line2d_9">
      <path d="M 382.086972 246.04 
L 382.086972 10.8 
" clip-path="url(#p53b7d09780)" style="fill: none; stroke-dasharray: 0.5,0.825; stroke-dashoffset: 0; stroke: #b0b0b0; stroke-width: 0.5"/>
     </g>
     <g id="line2d_10">
      <g>
       <use xlink:href="#m797198b787" x="382.086972" y="246.04" style="stroke: #000000; stroke-width: 0.8"/>
      </g>
     </g>
     <g id="text_5">
      <!-- 12.5 -->
      <g transform="translate(370.954159 260.638438) scale(0.1 -0.1)">
       <use xlink:href="#DejaVuSans-31"/>
       <use xlink:href="#DejaVuSans-32" x="63.623047"/>
       <use xlink:href="#DejaVuSans-2e" x="127.246094"/>
       <use xlink:href="#DejaVuSans-35" x="159.033203"/>
      </g>
     </g>
    </g>
    <g id="xtick_6">
     <g id="line2d_11">
      <path d="M 449.190531 246.04 
L 449.190531 10.8 
" clip-path="url(#p53b7d09780)" style="fill: none; stroke-dasharray: 0.5,0.825; stroke-dashoffset: 0; stroke: #b0b0b0; stroke-width: 0.5"/>
     </g>
     <g id="line2d_12">
      <g>
       <use xlink:href="#m797198b787" x="449.190531" y="246.04" style="stroke: #000000; stroke-width: 0.8"/>
      </g>
     </g>
     <g id="text_6">
      <!-- 15.0 -->
      <g transform="translate(438.057718 260.638438) scale(0.1 -0.1)">
       <use xlink:href="#DejaVuSans-31"/>
       <use xlink:href="#DejaVuSans-35" x="63.623047"/>
       <use xlink:href="#DejaVuSans-2e" x="127.246094"/>
       <use xlink:href="#DejaVuSans-30" x="159.033203"/>
      </g>
     </g>
    </g>
    <g id="xtick_7">
     <g id="line2d_13">
      <path d="M 516.294089 246.04 
L 516.294089 10.8 
" clip-path="url(#p53b7d09780)" style="fill: none; stroke-dasharray: 0.5,0.825; stroke-dashoffset: 0; stroke: #b0b0b0; stroke-width: 0.5"/>
     </g>
     <g id="line2d_14">
      <g>
       <use xlink:href="#m797198b787" x="516.294089" y="246.04" style="stroke: #000000; stroke-width: 0.8"/>
      </g>
     </g>
     <g id="text_7">
      <!-- 17.5 -->
      <g transform="translate(505.161277 260.638438) scale(0.1 -0.1)">
       <use xlink:href="#DejaVuSans-31"/>
       <use xlink:href="#DejaVuSans-37" x="63.623047"/>
       <use xlink:href="#DejaVuSans-2e" x="127.246094"/>
       <use xlink:href="#DejaVuSans-35" x="159.033203"/>
      </g>
     </g>
    </g>
    <g id="xtick_8">
     <g id="line2d_15">
      <path d="M 583.397648 246.04 
L 583.397648 10.8 
" clip-path="url(#p53b7d09780)" style="fill: none; stroke-dasharray: 0.5,0.825; stroke-dashoffset: 0; stroke: #b0b0b0; stroke-width: 0.5"/>
     </g>
     <g id="line2d_16">
      <g>
       <use xlink:href="#m797198b787" x="583.397648" y="246.04" style="stroke: #000000; stroke-width: 0.8"/>
      </g>
     </g>
     <g id="text_8">
      <!-- 20.0 -->
      <g transform="translate(572.264835 260.638438) scale(0.1 -0.1)">
       <use xlink:href="#DejaVuSans-32"/>
       <use xlink:href="#DejaVuSans-30" x="63.623047"/>
       <use xlink:href="#DejaVuSans-2e" x="127.246094"/>
       <use xlink:href="#DejaVuSans-30" x="159.033203"/>
      </g>
     </g>
    </g>
    <g id="text_9">
     <!-- segment -->
     <g transform="translate(306.472875 274.316562) scale(0.1 -0.1)">
      <defs>
       <path id="DejaVuSans-73" d="M 2834 3397 
L 2834 2853 
Q 2591 2978 2328 3040 
Q 2066 3103 1784 3103 
Q 1356 3103 1142 2972 
Q 928 2841 928 2578 
Q 928 2378 1081 2264 
Q 1234 2150 1697 2047 
L 1894 2003 
Q 2506 1872 2764 1633 
Q 3022 1394 3022 966 
Q 3022 478 2636 193 
Q 2250 -91 1575 -91 
Q 1294 -91 989 -36 
Q 684 19 347 128 
L 347 722 
Q 666 556 975 473 
Q 1284 391 1588 391 
Q 1994 391 2212 530 
Q 2431 669 2431 922 
Q 2431 1156 2273 1281 
Q 2116 1406 1581 1522 
L 1381 1569 
Q 847 1681 609 1914 
Q 372 2147 372 2553 
Q 372 3047 722 3315 
Q 1072 3584 1716 3584 
Q 2034 3584 2315 3537 
Q 2597 3491 2834 3397 
z
" transform="scale(0.015625)"/>
       <path id="DejaVuSans-65" d="M 3597 1894 
L 3597 1613 
L 953 1613 
Q 991 1019 1311 708 
Q 1631 397 2203 397 
Q 2534 397 2845 478 
Q 3156 559 3463 722 
L 3463 178 
Q 3153 47 2828 -22 
Q 2503 -91 2169 -91 
Q 1331 -91 842 396 
Q 353 884 353 1716 
Q 353 2575 817 3079 
Q 1281 3584 2069 3584 
Q 2775 3584 3186 3129 
Q 3597 2675 3597 1894 
z
M 3022 2063 
Q 3016 2534 2758 2815 
Q 2500 3097 2075 3097 
Q 1594 3097 1305 2825 
Q 1016 2553 972 2059 
L 3022 2063 
z
" transform="scale(0.015625)"/>
       <path id="DejaVuSans-67" d="M 2906 1791 
Q 2906 2416 2648 2759 
Q 2391 3103 1925 3103 
Q 1463 3103 1205 2759 
Q 947 2416 947 1791 
Q 947 1169 1205 825 
Q 1463 481 1925 481 
Q 2391 481 2648 825 
Q 2906 1169 2906 1791 
z
M 3481 434 
Q 3481 -459 3084 -895 
Q 2688 -1331 1869 -1331 
Q 1566 -1331 1297 -1286 
Q 1028 -1241 775 -1147 
L 775 -588 
Q 1028 -725 1275 -790 
Q 1522 -856 1778 -856 
Q 2344 -856 2625 -561 
Q 2906 -266 2906 331 
L 2906 616 
Q 2728 306 2450 153 
Q 2172 0 1784 0 
Q 1141 0 747 490 
Q 353 981 353 1791 
Q 353 2603 747 3093 
Q 1141 3584 1784 3584 
Q 2172 3584 2450 3431 
Q 2728 3278 2906 2969 
L 2906 3500 
L 3481 3500 
L 3481 434 
z
" transform="scale(0.015625)"/>
       <path id="DejaVuSans-6d" d="M 3328 2828 
Q 3544 3216 3844 3400 
Q 4144 3584 4550 3584 
Q 5097 3584 5394 3201 
Q 5691 2819 5691 2113 
L 5691 0 
L 5113 0 
L 5113 2094 
Q 5113 2597 4934 2840 
Q 4756 3084 4391 3084 
Q 3944 3084 3684 2787 
Q 3425 2491 3425 1978 
L 3425 0 
L 2847 0 
L 2847 2094 
Q 2847 2600 2669 2842 
Q 2491 3084 2119 3084 
Q 1678 3084 1418 2786 
Q 1159 2488 1159 1978 
L 1159 0 
L 581 0 
L 581 3500 
L 1159 3500 
L 1159 2956 
Q 1356 3278 1631 3431 
Q 1906 3584 2284 3584 
Q 2666 3584 2933 3390 
Q 3200 3197 3328 2828 
z
" transform="scale(0.015625)"/>
       <path id="DejaVuSans-6e" d="M 3513 2113 
L 3513 0 
L 2938 0 
L 2938 2094 
Q 2938 2591 2744 2837 
Q 2550 3084 2163 3084 
Q 1697 3084 1428 2787 
Q 1159 2491 1159 1978 
L 1159 0 
L 581 0 
L 581 3500 
L 1159 3500 
L 1159 2956 
Q 1366 3272 1645 3428 
Q 1925 3584 2291 3584 
Q 2894 3584 3203 3211 
Q 3513 2838 3513 2113 
z
" transform="scale(0.015625)"/>
       <path id="DejaVuSans-74" d="M 1172 4494 
L 1172 3500 
L 2356 3500 
L 2356 3053 
L 1172 3053 
L 1172 1153 
Q 1172 725 1289 603 
Q 1406 481 1766 481 
L 2356 481 
L 2356 0 
L 1766 0 
Q 1100 0 847 248 
Q 594 497 594 1153 
L 594 3053 
L 172 3053 
L 172 3500 
L 594 3500 
L 594 4494 
L 1172 4494 
z
" transform="scale(0.015625)"/>
      </defs>
      <use xlink:href="#DejaVuSans-73"/>
      <use xlink:href="#DejaVuSans-65" x="52.099609"/>
      <use xlink:href="#DejaVuSans-67" x="113.623047"/>
      <use xlink:href="#DejaVuSans-6d" x="177.099609"/>
      <use xlink:href="#DejaVuSans-65" x="274.511719"/>
      <use xlink:href="#DejaVuSans-6e" x="336.035156"/>
      <use xlink:href="#DejaVuSans-74" x="399.414062"/>
     </g>
    </g>
   </g>
   <g id="matplotlib.axis_2">
    <g id="ytick_1">
     <g id="line2d_17">
      <path d="M 47.91125 209.084434 
L 608.897 209.084434 
" clip-path="url(#p53b7d09780)" style="fill: none; stroke-dasharray: 0.5,0.825; stroke-dashoffset: 0; stroke: #b0b0b0; stroke-width: 0.5"/>
     </g>
     <g id="line2d_18">
      <defs>
       <path id="m9bb98c5cf8" d="M 0 0 
L -3.5 0 
" style="stroke: #000000; stroke-width: 0.8"/>
      </defs>
      <g>
       <use xlink:href="#m9bb98c5cf8" x="47.91125" y="209.084434" style="stroke: #000000; stroke-width: 0.8"/>
      </g>
     </g>
     <g id="text_10">
      <!-- 0.4 -->
      <g transform="translate(25.008125 212.883653) scale(0.1 -0.1)">
       <defs>
        <path id="DejaVuSans-34" d="M 2419 4116 
L 825 1625 
L 2419 1625 
L 2419 4116 
z
M 2253 4666 
L 3047 4666 
L 3047 1625 
L 3713 1625 
L 3713 1100 
L 3047 1100 
L 3047 0 
L 2419 0 
L 2419 1100 
L 313 1100 
L 313 1709 
L 2253 4666 
z
" transform="scale(0.015625)"/>
       </defs>
       <use xlink:href="#DejaVuSans-30"/>
       <use xlink:href="#DejaVuSans-2e" x="63.623047"/>
       <use xlink:href="#DejaVuSans-34" x="95.410156"/>
      </g>
     </g>
    </g>
    <g id="ytick_2">
     <g id="line2d_19">
      <path d="M 47.91125 171.566093 
L 608.897 171.566093 
" clip-path="url(#p53b7d09780)" style="fill: none; stroke-dasharray: 0.5,0.825; stroke-dashoffset: 0; stroke: #b0b0b0; stroke-width: 0.5"/>
     </g>
     <g id="line2d_20">
      <g>
       <use xlink:href="#m9bb98c5cf8" x="47.91125" y="171.566093" style="stroke: #000000; stroke-width: 0.8"/>
      </g>
     </g>
     <g id="text_11">
      <!-- 0.6 -->
      <g transform="translate(25.008125 175.365311) scale(0.1 -0.1)">
       <defs>
        <path id="DejaVuSans-36" d="M 2113 2584 
Q 1688 2584 1439 2293 
Q 1191 2003 1191 1497 
Q 1191 994 1439 701 
Q 1688 409 2113 409 
Q 2538 409 2786 701 
Q 3034 994 3034 1497 
Q 3034 2003 2786 2293 
Q 2538 2584 2113 2584 
z
M 3366 4563 
L 3366 3988 
Q 3128 4100 2886 4159 
Q 2644 4219 2406 4219 
Q 1781 4219 1451 3797 
Q 1122 3375 1075 2522 
Q 1259 2794 1537 2939 
Q 1816 3084 2150 3084 
Q 2853 3084 3261 2657 
Q 3669 2231 3669 1497 
Q 3669 778 3244 343 
Q 2819 -91 2113 -91 
Q 1303 -91 875 529 
Q 447 1150 447 2328 
Q 447 3434 972 4092 
Q 1497 4750 2381 4750 
Q 2619 4750 2861 4703 
Q 3103 4656 3366 4563 
z
" transform="scale(0.015625)"/>
       </defs>
       <use xlink:href="#DejaVuSans-30"/>
       <use xlink:href="#DejaVuSans-2e" x="63.623047"/>
       <use xlink:href="#DejaVuSans-36" x="95.410156"/>
      </g>
     </g>
    </g>
    <g id="ytick_3">
     <g id="line2d_21">
      <path d="M 47.91125 134.047751 
L 608.897 134.047751 
" clip-path="url(#p53b7d09780)" style="fill: none; stroke-dasharray: 0.5,0.825; stroke-dashoffset: 0; stroke: #b0b0b0; stroke-width: 0.5"/>
     </g>
     <g id="line2d_22">
      <g>
       <use xlink:href="#m9bb98c5cf8" x="47.91125" y="134.047751" style="stroke: #000000; stroke-width: 0.8"/>
      </g>
     </g>
     <g id="text_12">
      <!-- 0.8 -->
      <g transform="translate(25.008125 137.84697) scale(0.1 -0.1)">
       <defs>
        <path id="DejaVuSans-38" d="M 2034 2216 
Q 1584 2216 1326 1975 
Q 1069 1734 1069 1313 
Q 1069 891 1326 650 
Q 1584 409 2034 409 
Q 2484 409 2743 651 
Q 3003 894 3003 1313 
Q 3003 1734 2745 1975 
Q 2488 2216 2034 2216 
z
M 1403 2484 
Q 997 2584 770 2862 
Q 544 3141 544 3541 
Q 544 4100 942 4425 
Q 1341 4750 2034 4750 
Q 2731 4750 3128 4425 
Q 3525 4100 3525 3541 
Q 3525 3141 3298 2862 
Q 3072 2584 2669 2484 
Q 3125 2378 3379 2068 
Q 3634 1759 3634 1313 
Q 3634 634 3220 271 
Q 2806 -91 2034 -91 
Q 1263 -91 848 271 
Q 434 634 434 1313 
Q 434 1759 690 2068 
Q 947 2378 1403 2484 
z
M 1172 3481 
Q 1172 3119 1398 2916 
Q 1625 2713 2034 2713 
Q 2441 2713 2670 2916 
Q 2900 3119 2900 3481 
Q 2900 3844 2670 4047 
Q 2441 4250 2034 4250 
Q 1625 4250 1398 4047 
Q 1172 3844 1172 3481 
z
" transform="scale(0.015625)"/>
       </defs>
       <use xlink:href="#DejaVuSans-30"/>
       <use xlink:href="#DejaVuSans-2e" x="63.623047"/>
       <use xlink:href="#DejaVuSans-38" x="95.410156"/>
      </g>
     </g>
    </g>
    <g id="ytick_4">
     <g id="line2d_23">
      <path d="M 47.91125 96.52941 
L 608.897 96.52941 
" clip-path="url(#p53b7d09780)" style="fill: none; stroke-dasharray: 0.5,0.825; stroke-dashoffset: 0; stroke: #b0b0b0; stroke-width: 0.5"/>
     </g>
     <g id="line2d_24">
      <g>
       <use xlink:href="#m9bb98c5cf8" x="47.91125" y="96.52941" style="stroke: #000000; stroke-width: 0.8"/>
      </g>
     </g>
     <g id="text_13">
      <!-- 1.0 -->
      <g transform="translate(25.008125 100.328629) scale(0.1 -0.1)">
       <use xlink:href="#DejaVuSans-31"/>
       <use xlink:href="#DejaVuSans-2e" x="63.623047"/>
       <use xlink:href="#DejaVuSans-30" x="95.410156"/>
      </g>
     </g>
    </g>
    <g id="ytick_5">
     <g id="line2d_25">
      <path d="M 47.91125 59.011069 
L 608.897 59.011069 
" clip-path="url(#p53b7d09780)" style="fill: none; stroke-dasharray: 0.5,0.825; stroke-dashoffset: 0; stroke: #b0b0b0; stroke-width: 0.5"/>
     </g>
     <g id="line2d_26">
      <g>
       <use xlink:href="#m9bb98c5cf8" x="47.91125" y="59.011069" style="stroke: #000000; stroke-width: 0.8"/>
      </g>
     </g>
     <g id="text_14">
      <!-- 1.2 -->
      <g transform="translate(25.008125 62.810287) scale(0.1 -0.1)">
       <use xlink:href="#DejaVuSans-31"/>
       <use xlink:href="#DejaVuSans-2e" x="63.623047"/>
       <use xlink:href="#DejaVuSans-32" x="95.410156"/>
      </g>
     </g>
    </g>
    <g id="ytick_6">
     <g id="line2d_27">
      <path d="M 47.91125 21.492727 
L 608.897 21.492727 
" clip-path="url(#p53b7d09780)" style="fill: none; stroke-dasharray: 0.5,0.825; stroke-dashoffset: 0; stroke: #b0b0b0; stroke-width: 0.5"/>
     </g>
     <g id="line2d_28">
      <g>
       <use xlink:href="#m9bb98c5cf8" x="47.91125" y="21.492727" style="stroke: #000000; stroke-width: 0.8"/>
      </g>
     </g>
     <g id="text_15">
      <!-- 1.4 -->
      <g transform="translate(25.008125 25.291946) scale(0.1 -0.1)">
       <use xlink:href="#DejaVuSans-31"/>
       <use xlink:href="#DejaVuSans-2e" x="63.623047"/>
       <use xlink:href="#DejaVuSans-34" x="95.410156"/>
      </g>
     </g>
    </g>
    <g id="text_16">
     <!-- max_dt -->
     <g transform="translate(18.650313 146.948125) rotate(-90) scale(0.1 -0.1)">
      <defs>
       <path id="DejaVuSans-61" d="M 2194 1759 
Q 1497 1759 1228 1600 
Q 959 1441 959 1056 
Q 959 750 1161 570 
Q 1363 391 1709 391 
Q 2188 391 2477 730 
Q 2766 1069 2766 1631 
L 2766 1759 
L 2194 1759 
z
M 3341 1997 
L 3341 0 
L 2766 0 
L 2766 531 
Q 2569 213 2275 61 
Q 1981 -91 1556 -91 
Q 1019 -91 701 211 
Q 384 513 384 1019 
Q 384 1609 779 1909 
Q 1175 2209 1959 2209 
L 2766 2209 
L 2766 2266 
Q 2766 2663 2505 2880 
Q 2244 3097 1772 3097 
Q 1472 3097 1187 3025 
Q 903 2953 641 2809 
L 641 3341 
Q 956 3463 1253 3523 
Q 1550 3584 1831 3584 
Q 2591 3584 2966 3190 
Q 3341 2797 3341 1997 
z
" transform="scale(0.015625)"/>
       <path id="DejaVuSans-78" d="M 3513 3500 
L 2247 1797 
L 3578 0 
L 2900 0 
L 1881 1375 
L 863 0 
L 184 0 
L 1544 1831 
L 300 3500 
L 978 3500 
L 1906 2253 
L 2834 3500 
L 3513 3500 
z
" transform="scale(0.015625)"/>
       <path id="DejaVuSans-5f" d="M 3263 -1063 
L 3263 -1509 
L -63 -1509 
L -63 -1063 
L 3263 -1063 
z
" transform="scale(0.015625)"/>
       <path id="DejaVuSans-64" d="M 2906 2969 
L 2906 4863 
L 3481 4863 
L 3481 0 
L 2906 0 
L 2906 525 
Q 2725 213 2448 61 
Q 2172 -91 1784 -91 
Q 1150 -91 751 415 
Q 353 922 353 1747 
Q 353 2572 751 3078 
Q 1150 3584 1784 3584 
Q 2172 3584 2448 3432 
Q 2725 3281 2906 2969 
z
M 947 1747 
Q 947 1113 1208 752 
Q 1469 391 1925 391 
Q 2381 391 2643 752 
Q 2906 1113 2906 1747 
Q 2906 2381 2643 2742 
Q 2381 3103 1925 3103 
Q 1469 3103 1208 2742 
Q 947 2381 947 1747 
z
" transform="scale(0.015625)"/>
      </defs>
      <use xlink:href="#DejaVuSans-6d"/>
      <use xlink:href="#DejaVuSans-61" x="97.412109"/>
      <use xlink:href="#DejaVuSans-78" x="158.691406"/>
      <use xlink:href="#DejaVuSans-5f" x="217.871094"/>
      <use xlink:href="#DejaVuSans-64" x="267.871094"/>
      <use xlink:href="#DejaVuSans-74" x="331.347656"/>
     </g>
    </g>
   </g>
   <g id="line2d_29">
    <path d="M 73.410602 28.996396 
L 100.252026 225.967687 
L 127.093449 224.09177 
L 153.934873 224.09177 
L 180.776296 220.339936 
L 207.617719 227.843604 
L 234.459143 218.464019 
L 261.300566 220.339936 
L 288.14199 220.339936 
L 314.983413 218.464019 
L 341.824837 220.339936 
L 368.66626 227.843604 
L 395.507684 224.09177 
L 422.349107 218.464019 
L 449.190531 225.967687 
L 476.031954 220.339936 
L 502.873377 216.588102 
L 529.714801 218.464019 
L 556.556224 218.464019 
L 583.397648 225.967687 
" clip-path="url(#p53b7d09780)" style="fill: none; stroke: #1f77b4; stroke-width: 1.5; stroke-linecap: square"/>
    <defs>
     <path id="m23148ede7b" d="M 0 3 
C 0.795609 3 1.55874 2.683901 2.12132 2.12132 
C 2.683901 1.55874 3 0.795609 3 0 
C 3 -0.795609 2.683901 -1.55874 2.12132 -2.12132 
C 1.55874 -2.683901 0.795609 -3 0 -3 
C -0.795609 -3 -1.55874 -2.683901 -2.12132 -2.12132 
C -2.683901 -1.55874 -3 -0.795609 -3 0 
C -3 0.795609 -2.683901 1.55874 -2.12132 2.12132 
C -1.55874 2.683901 -0.795609 3 0 3 
z
" style="stroke: #1f77b4"/>
    </defs>
    <g clip-path="url(#p53b7d09780)">
     <use xlink:href="#m23148ede7b" x="73.410602" y="28.996396" style="fill: #1f77b4; stroke: #1f77b4"/>
     <use xlink:href="#m23148ede7b" x="100.252026" y="225.967687" style="fill: #1f77b4; stroke: #1f77b4"/>
     <use xlink:href="#m23148ede7b" x="127.093449" y="224.09177" style="fill: #1f77b4; stroke: #1f77b4"/>
     <use xlink:href="#m23148ede7b" x="153.934873" y="224.09177" style="fill: #1f77b4; stroke: #1f77b4"/>
     <use xlink:href="#m23148ede7b" x="180.776296" y="220.339936" style="fill: #1f77b4; stroke: #1f77b4"/>
     <use xlink:href="#m23148ede7b" x="207.617719" y="227.843604" style="fill: #1f77b4; stroke: #1f77b4"/>
     <use xlink:href="#m23148ede7b" x="234.459143" y="218.464019" style="fill: #1f77b4; stroke: #1f77b4"/>
     <use xlink:href="#m23148ede7b" x="261.300566" y="220.339936" style="fill: #1f77b4; stroke: #1f77b4"/>
     <use xlink:href="#m23148ede7b" x="288.14199" y="220.339936" style="fill: #1f77b4; stroke: #1f77b4"/>
     <use xlink:href="#m23148ede7b" x="314.983413" y="218.464019" style="fill: #1f77b4; stroke: #1f77b4"/>
     <use xlink:href="#m23148ede7b" x="341.824837" y="220.339936" style="fill: #1f77b4; stroke: #1f77b4"/>
     <use xlink:href="#m23148ede7b" x="368.66626" y="227.843604" style="fill: #1f77b4; stroke: #1f77b4"/>
     <use xlink:href="#m23148ede7b" x="395.507684" y="224.09177" style="fill: #1f77b4; stroke: #1f77b4"/>
     <use xlink:href="#m23148ede7b" x="422.349107" y="218.464019" style="fill: #1f77b4; stroke: #1f77b4"/>
     <use xlink:href="#m23148ede7b" x="449.190531" y="225.967687" style="fill: #1f77b4; stroke: #1f77b4"/>
     <use xlink:href="#m23148ede7b" x="476.031954" y="220.339936" style="fill: #1f77b4; stroke: #1f77b4"/>
     <use xlink:href="#m23148ede7b" x="502.873377" y="216.588102" style="fill: #1f77b4; stroke: #1f77b4"/>
     <use xlink:href="#m23148ede7b" x="529.714801" y="218.464019" style="fill: #1f77b4; stroke: #1f77b4"/>
     <use xlink:href="#m23148ede7b" x="556.556224" y="218.464019" style="fill: #1f77b4; stroke: #1f77b4"/>
     <use xlink:href="#m23148ede7b" x="583.397648" y="225.967687" style="fill: #1f77b4; stroke: #1f77b4"/>
    </g>
   </g>
   <g id="line2d_30">
    <path d="M 73.410602 27.120478 
L 100.252026 229.719522 
L 127.093449 231.595439 
L 153.934873 235.347273 
L 180.776296 227.843604 
L 207.617719 227.843604 
L 234.459143 222.215853 
L 261.300566 222.215853 
L 288.14199 222.215853 
L 314.983413 220.339936 
L 341.824837 225.967687 
L 368.66626 220.339936 
L 395.507684 222.215853 
L 422.349107 220.339936 
L 449.190531 220.339936 
L 476.031954 220.339936 
L 502.873377 220.339936 
L 529.714801 224.09177 
L 556.556224 220.339936 
L 583.397648 222.215853 
" clip-path="url(#p53b7d09780)" style="fill: none; stroke: #ff7f0e; stroke-width: 1.5; stroke-linecap: square"/>
    <defs>
     <path id="m3fd8adeefa" d="M 0 3 
C 0.795609 3 1.55874 2.683901 2.12132 2.12132 
C 2.683901 1.55874 3 0.795609 3 0 
C 3 -0.795609 2.683901 -1.55874 2.12132 -2.12132 
C 1.55874 -2.683901 0.795609 -3 0 -3 
C -0.795609 -3 -1.55874 -2.683901 -2.12132 -2.12132 
C -2.683901 -1.55874 -3 -0.795609 -3 0 
C -3 0.795609 -2.683901 1.55874 -2.12132 2.12132 
C -1.55874 2.683901 -0.795609 3 0 3 
z
" style="stroke: #ff7f0e"/>
    </defs>
    <g clip-path="url(#p53b7d09780)">
     <use xlink:href="#m3fd8adeefa" x="73.410602" y="27.120478" style="fill: #ff7f0e; stroke: #ff7f0e"/>
     <use xlink:href="#m3fd8adeefa" x="100.252026" y="229.719522" style="fill: #ff7f0e; stroke: #ff7f0e"/>
     <use xlink:href="#m3fd8adeefa" x="127.093449" y="231.595439" style="fill: #ff7f0e; stroke: #ff7f0e"/>
     <use xlink:href="#m3fd8adeefa" x="153.934873" y="235.347273" style="fill: #ff7f0e; stroke: #ff7f0e"/>
     <use xlink:href="#m3fd8adeefa" x="180.776296" y="227.843604" style="fill: #ff7f0e; stroke: #ff7f0e"/>
     <use xlink:href="#m3fd8adeefa" x="207.617719" y="227.843604" style="fill: #ff7f0e; stroke: #ff7f0e"/>
     <use xlink:href="#m3fd8adeefa" x="234.459143" y="222.215853" style="fill: #ff7f0e; stroke: #ff7f0e"/>
     <use xlink:href="#m3fd8adeefa" x="261.300566" y="222.215853" style="fill: #ff7f0e; stroke: #ff7f0e"/>
     <use xlink:href="#m3fd8adeefa" x="288.14199" y="222.215853" style="fill: #ff7f0e; stroke: #ff7f0e"/>
     <use xlink:href="#m3fd8adeefa" x="314.983413" y="220.339936" style="fill: #ff7f0e; stroke: #ff7f0e"/>
     <use xlink:href="#m3fd8adeefa" x="341.824837" y="225.967687" style="fill: #ff7f0e; stroke: #ff7f0e"/>
     <use xlink:href="#m3fd8adeefa" x="368.66626" y="220.339936" style="fill: #ff7f0e; stroke: #ff7f0e"/>
     <use xlink:href="#m3fd8adeefa" x="395.507684" y="222.215853" style="fill: #ff7f0e; stroke: #ff7f0e"/>
     <use xlink:href="#m3fd8adeefa" x="422.349107" y="220.339936" style="fill: #ff7f0e; stroke: #ff7f0e"/>
     <use xlink:href="#m3fd8adeefa" x="449.190531" y="220.339936" style="fill: #ff7f0e; stroke: #ff7f0e"/>
     <use xlink:href="#m3fd8adeefa" x="476.031954" y="220.339936" style="fill: #ff7f0e; stroke: #ff7f0e"/>
     <use xlink:href="#m3fd8adeefa" x="502.873377" y="220.339936" style="fill: #ff7f0e; stroke: #ff7f0e"/>
     <use xlink:href="#m3fd8adeefa" x="529.714801" y="224.09177" style="fill: #ff7f0e; stroke: #ff7f0e"/>
     <use xlink:href="#m3fd8adeefa" x="556.556224" y="220.339936" style="fill: #ff7f0e; stroke: #ff7f0e"/>
     <use xlink:href="#m3fd8adeefa" x="583.397648" y="222.215853" style="fill: #ff7f0e; stroke: #ff7f0e"/>
    </g>
   </g>
   <g id="line2d_31">
    <path d="M 73.410602 21.492727 
L 100.252026 173.44201 
L 127.093449 169.690175 
L 153.934873 158.434673 
L 180.776296 158.434673 
L 207.617719 156.558756 
L 234.459143 152.806922 
L 261.300566 152.806922 
L 288.14199 152.806922 
L 314.983413 150.931005 
L 341.824837 149.055088 
L 368.66626 147.179171 
L 395.507684 147.179171 
L 422.349107 147.179171 
L 449.190531 145.303254 
L 476.031954 145.303254 
L 502.873377 145.303254 
L 529.714801 145.303254 
L 556.556224 149.055088 
L 583.397648 149.055088 
" clip-path="url(#p53b7d09780)" style="fill: none; stroke: #2ca02c; stroke-width: 1.5; stroke-linecap: square"/>
    <defs>
     <path id="mf13ad7a2fb" d="M 0 3 
C 0.795609 3 1.55874 2.683901 2.12132 2.12132 
C 2.683901 1.55874 3 0.795609 3 0 
C 3 -0.795609 2.683901 -1.55874 2.12132 -2.12132 
C 1.55874 -2.683901 0.795609 -3 0 -3 
C -0.795609 -3 -1.55874 -2.683901 -2.12132 -2.12132 
C -2.683901 -1.55874 -3 -0.795609 -3 0 
C -3 0.795609 -2.683901 1.55874 -2.12132 2.12132 
C -1.55874 2.683901 -0.795609 3 0 3 
z
" style="stroke: #2ca02c"/>
    </defs>
    <g clip-path="url(#p53b7d09780)">
     <use xlink:href="#mf13ad7a2fb" x="73.410602" y="21.492727" style="fill: #2ca02c; stroke: #2ca02c"/>
     <use xlink:href="#mf13ad7a2fb" x="100.252026" y="173.44201" style="fill: #2ca02c; stroke: #2ca02c"/>
     <use xlink:href="#mf13ad7a2fb" x="127.093449" y="169.690175" style="fill: #2ca02c; stroke: #2ca02c"/>
     <use xlink:href="#mf13ad7a2fb" x="153.934873" y="158.434673" style="fill: #2ca02c; stroke: #2ca02c"/>
     <use xlink:href="#mf13ad7a2fb" x="180.776296" y="158.434673" style="fill: #2ca02c; stroke: #2ca02c"/>
     <use xlink:href="#mf13ad7a2fb" x="207.617719" y="156.558756" style="fill: #2ca02c; stroke: #2ca02c"/>
     <use xlink:href="#mf13ad7a2fb" x="234.459143" y="152.806922" style="fill: #2ca02c; stroke: #2ca02c"/>
     <use xlink:href="#mf13ad7a2fb" x="261.300566" y="152.806922" style="fill: #2ca02c; stroke: #2ca02c"/>
     <use xlink:href="#mf13ad7a2fb" x="288.14199" y="152.806922" style="fill: #2ca02c; stroke: #2ca02c"/>
     <use xlink:href="#mf13ad7a2fb" x="314.983413" y="150.931005" style="fill: #2ca02c; stroke: #2ca02c"/>
     <use xlink:href="#mf13ad7a2fb" x="341.824837" y="149.055088" style="fill: #2ca02c; stroke: #2ca02c"/>
     <use xlink:href="#mf13ad7a2fb" x="368.66626" y="147.179171" style="fill: #2ca02c; stroke: #2ca02c"/>
     <use xlink:href="#mf13ad7a2fb" x="395.507684" y="147.179171" style="fill: #2ca02c; stroke: #2ca02c"/>
     <use xlink:href="#mf13ad7a2fb" x="422.349107" y="147.179171" style="fill: #2ca02c; stroke: #2ca02c"/>
     <use xlink:href="#mf13ad7a2fb" x="449.190531" y="145.303254" style="fill: #2ca02c; stroke: #2ca02c"/>
     <use xlink:href="#mf13ad7a2fb" x="476.031954" y="145.303254" style="fill: #2ca02c; stroke: #2ca02c"/>
     <use xlink:href="#mf13ad7a2fb" x="502.873377" y="145.303254" style="fill: #2ca02c; stroke: #2ca02c"/>
     <use xlink:href="#mf13ad7a2fb" x="529.714801" y="145.303254" style="fill: #2ca02c; stroke: #2ca02c"/>
     <use xlink:href="#mf13ad7a2fb" x="556.556224" y="149.055088" style="fill: #2ca02c; stroke: #2ca02c"/>
     <use xlink:href="#mf13ad7a2fb" x="583.397648" y="149.055088" style="fill: #2ca02c; stroke: #2ca02c"/>
    </g>
   </g>
   <g id="line2d_32">
    <path d="M 73.410602 27.120478 
L 100.252026 171.566093 
L 127.093449 165.938341 
L 153.934873 156.558756 
L 180.776296 156.558756 
L 207.617719 154.682839 
L 234.459143 152.806922 
L 261.300566 150.931005 
L 288.14199 150.931005 
L 314.983413 149.055088 
L 341.824837 147.179171 
L 368.66626 145.303254 
L 395.507684 145.303254 
L 422.349107 145.303254 
L 449.190531 143.427337 
L 476.031954 145.303254 
L 502.873377 143.427337 
L 529.714801 145.303254 
L 556.556224 162.186507 
L 583.397648 162.186507 
" clip-path="url(#p53b7d09780)" style="fill: none; stroke: #d62728; stroke-width: 1.5; stroke-linecap: square"/>
    <defs>
     <path id="m51a42f3f3a" d="M 0 3 
C 0.795609 3 1.55874 2.683901 2.12132 2.12132 
C 2.683901 1.55874 3 0.795609 3 0 
C 3 -0.795609 2.683901 -1.55874 2.12132 -2.12132 
C 1.55874 -2.683901 0.795609 -3 0 -3 
C -0.795609 -3 -1.55874 -2.683901 -2.12132 -2.12132 
C -2.683901 -1.55874 -3 -0.795609 -3 0 
C -3 0.795609 -2.683901 1.55874 -2.12132 2.12132 
C -1.55874 2.683901 -0.795609 3 0 3 
z
" style="stroke: #d62728"/>
    </defs>
    <g clip-path="url(#p53b7d09780)">
     <use xlink:href="#m51a42f3f3a" x="73.410602" y="27.120478" style="fill: #d62728; stroke: #d62728"/>
     <use xlink:href="#m51a42f3f3a" x="100.252026" y="171.566093" style="fill: #d62728; stroke: #d62728"/>
     <use xlink:href="#m51a42f3f3a" x="127.093449" y="165.938341" style="fill: #d62728; stroke: #d62728"/>
     <use xlink:href="#m51a42f3f3a" x="153.934873" y="156.558756" style="fill: #d62728; stroke: #d62728"/>
     <use xlink:href="#m51a42f3f3a" x="180.776296" y="156.558756" style="fill: #d62728; stroke: #d62728"/>
     <use xlink:href="#m51a42f3f3a" x="207.617719" y="154.682839" style="fill: #d62728; stroke: #d62728"/>
     <use xlink:href="#m51a42f3f3a" x="234.459143" y="152.806922" style="fill: #d62728; stroke: #d62728"/>
     <use xlink:href="#m51a42f3f3a" x="261.300566" y="150.931005" style="fill: #d62728; stroke: #d62728"/>
     <use xlink:href="#m51a42f3f3a" x="288.14199" y="150.931005" style="fill: #d62728; stroke: #d62728"/>
     <use xlink:href="#m51a42f3f3a" x="314.983413" y="149.055088" style="fill: #d62728; stroke: #d62728"/>
     <use xlink:href="#m51a42f3f3a" x="341.824837" y="147.179171" style="fill: #d62728; stroke: #d62728"/>
     <use xlink:href="#m51a42f3f3a" x="368.66626" y="145.303254" style="fill: #d62728; stroke: #d62728"/>
     <use xlink:href="#m51a42f3f3a" x="395.507684" y="145.303254" style="fill: #d62728; stroke: #d62728"/>
     <use xlink:href="#m51a42f3f3a" x="422.349107" y="145.303254" style="fill: #d62728; stroke: #d62728"/>
     <use xlink:href="#m51a42f3f3a" x="449.190531" y="143.427337" style="fill: #d62728; stroke: #d62728"/>
     <use xlink:href="#m51a42f3f3a" x="476.031954" y="145.303254" style="fill: #d62728; stroke: #d62728"/>
     <use xlink:href="#m51a42f3f3a" x="502.873377" y="143.427337" style="fill: #d62728; stroke: #d62728"/>
     <use xlink:href="#m51a42f3f3a" x="529.714801" y="145.303254" style="fill: #d62728; stroke: #d62728"/>
     <use xlink:href="#m51a42f3f3a" x="556.556224" y="162.186507" style="fill: #d62728; stroke: #d62728"/>
     <use xlink:href="#m51a42f3f3a" x="583.397648" y="162.186507" style="fill: #d62728; stroke: #d62728"/>
    </g>
   </g>
   <g id="patch_3">
    <path d="M 47.91125 246.04 
L 47.91125 10.8 
" style="fill: none; stroke: #000000; stroke-width: 0.8; stroke-linejoin: miter; stroke-linecap: square"/>
   </g>
   <g id="patch_4">
    <path d="M 608.897 246.04 
L 608.897 10.8 
" style="fill: none; stroke: #000000; stroke-width: 0.8; stroke-linejoin: miter; stroke-linecap: square"/>
   </g>
   <g id="patch_5">
    <path d="M 47.91125 246.04 
L 608.897 246.04 
" style="fill: none; stroke: #000000; stroke-width: 0.8; stroke-linejoin: miter; stroke-linecap: square"/>
   </g>
   <g id="patch_6">
    <path d="M 47.91125 10.8 
L 608.897 10.8 
" style="fill: none; stroke: #000000; stroke-width: 0.8; stroke-linejoin: miter; stroke-linecap: square"/>
   </g>
   <g id="legend_1">
    <g id="patch_7">
     <path d="M 614.728 154.123256 
L 707.388837 154.123256 
Q 709.054837 154.123256 709.054837 152.457256 
L 709.054837 104.382744 
Q 709.054837 102.716744 707.388837 102.716744 
L 614.728 102.716744 
Q 613.062 102.716744 613.062 104.382744 
L 613.062 152.457256 
Q 613.062 154.123256 614.728 154.123256 
z
" style="fill: #ffffff; opacity: 0.8; stroke: #cccccc; stroke-linejoin: miter"/>
    </g>
    <g id="line2d_33">
     <path d="M 616.394 109.462742 
L 624.724 109.462742 
L 633.054 109.462742 
" style="fill: none; stroke: #1f77b4; stroke-width: 1.5; stroke-linecap: square"/>
     <g>
      <use xlink:href="#m23148ede7b" x="624.724" y="109.462742" style="fill: #1f77b4; stroke: #1f77b4"/>
     </g>
    </g>
    <g id="text_17">
     <!-- 32-F100-gilbert -->
     <g transform="translate(639.718 112.378242) scale(0.0833 -0.0833)">
      <defs>
       <path id="DejaVuSans-33" d="M 2597 2516 
Q 3050 2419 3304 2112 
Q 3559 1806 3559 1356 
Q 3559 666 3084 287 
Q 2609 -91 1734 -91 
Q 1441 -91 1130 -33 
Q 819 25 488 141 
L 488 750 
Q 750 597 1062 519 
Q 1375 441 1716 441 
Q 2309 441 2620 675 
Q 2931 909 2931 1356 
Q 2931 1769 2642 2001 
Q 2353 2234 1838 2234 
L 1294 2234 
L 1294 2753 
L 1863 2753 
Q 2328 2753 2575 2939 
Q 2822 3125 2822 3475 
Q 2822 3834 2567 4026 
Q 2313 4219 1838 4219 
Q 1578 4219 1281 4162 
Q 984 4106 628 3988 
L 628 4550 
Q 988 4650 1302 4700 
Q 1616 4750 1894 4750 
Q 2613 4750 3031 4423 
Q 3450 4097 3450 3541 
Q 3450 3153 3228 2886 
Q 3006 2619 2597 2516 
z
" transform="scale(0.015625)"/>
       <path id="DejaVuSans-2d" d="M 313 2009 
L 1997 2009 
L 1997 1497 
L 313 1497 
L 313 2009 
z
" transform="scale(0.015625)"/>
       <path id="DejaVuSans-46" d="M 628 4666 
L 3309 4666 
L 3309 4134 
L 1259 4134 
L 1259 2759 
L 3109 2759 
L 3109 2228 
L 1259 2228 
L 1259 0 
L 628 0 
L 628 4666 
z
" transform="scale(0.015625)"/>
       <path id="DejaVuSans-69" d="M 603 3500 
L 1178 3500 
L 1178 0 
L 603 0 
L 603 3500 
z
M 603 4863 
L 1178 4863 
L 1178 4134 
L 603 4134 
L 603 4863 
z
" transform="scale(0.015625)"/>
       <path id="DejaVuSans-6c" d="M 603 4863 
L 1178 4863 
L 1178 0 
L 603 0 
L 603 4863 
z
" transform="scale(0.015625)"/>
       <path id="DejaVuSans-62" d="M 3116 1747 
Q 3116 2381 2855 2742 
Q 2594 3103 2138 3103 
Q 1681 3103 1420 2742 
Q 1159 2381 1159 1747 
Q 1159 1113 1420 752 
Q 1681 391 2138 391 
Q 2594 391 2855 752 
Q 3116 1113 3116 1747 
z
M 1159 2969 
Q 1341 3281 1617 3432 
Q 1894 3584 2278 3584 
Q 2916 3584 3314 3078 
Q 3713 2572 3713 1747 
Q 3713 922 3314 415 
Q 2916 -91 2278 -91 
Q 1894 -91 1617 61 
Q 1341 213 1159 525 
L 1159 0 
L 581 0 
L 581 4863 
L 1159 4863 
L 1159 2969 
z
" transform="scale(0.015625)"/>
       <path id="DejaVuSans-72" d="M 2631 2963 
Q 2534 3019 2420 3045 
Q 2306 3072 2169 3072 
Q 1681 3072 1420 2755 
Q 1159 2438 1159 1844 
L 1159 0 
L 581 0 
L 581 3500 
L 1159 3500 
L 1159 2956 
Q 1341 3275 1631 3429 
Q 1922 3584 2338 3584 
Q 2397 3584 2469 3576 
Q 2541 3569 2628 3553 
L 2631 2963 
z
" transform="scale(0.015625)"/>
      </defs>
      <use xlink:href="#DejaVuSans-33"/>
      <use xlink:href="#DejaVuSans-32" x="63.623047"/>
      <use xlink:href="#DejaVuSans-2d" x="127.246094"/>
      <use xlink:href="#DejaVuSans-46" x="163.330078"/>
      <use xlink:href="#DejaVuSans-31" x="220.849609"/>
      <use xlink:href="#DejaVuSans-30" x="284.472656"/>
      <use xlink:href="#DejaVuSans-30" x="348.095703"/>
      <use xlink:href="#DejaVuSans-2d" x="411.71875"/>
      <use xlink:href="#DejaVuSans-67" x="447.802734"/>
      <use xlink:href="#DejaVuSans-69" x="511.279297"/>
      <use xlink:href="#DejaVuSans-6c" x="539.0625"/>
      <use xlink:href="#DejaVuSans-62" x="566.845703"/>
      <use xlink:href="#DejaVuSans-65" x="630.322266"/>
      <use xlink:href="#DejaVuSans-72" x="691.845703"/>
      <use xlink:href="#DejaVuSans-74" x="732.958984"/>
     </g>
    </g>
    <g id="line2d_34">
     <path d="M 616.394 121.68962 
L 624.724 121.68962 
L 633.054 121.68962 
" style="fill: none; stroke: #ff7f0e; stroke-width: 1.5; stroke-linecap: square"/>
     <g>
      <use xlink:href="#m3fd8adeefa" x="624.724" y="121.68962" style="fill: #ff7f0e; stroke: #ff7f0e"/>
     </g>
    </g>
    <g id="text_18">
     <!-- 32-F100-hilbert -->
     <g transform="translate(639.718 124.60512) scale(0.0833 -0.0833)">
      <defs>
       <path id="DejaVuSans-68" d="M 3513 2113 
L 3513 0 
L 2938 0 
L 2938 2094 
Q 2938 2591 2744 2837 
Q 2550 3084 2163 3084 
Q 1697 3084 1428 2787 
Q 1159 2491 1159 1978 
L 1159 0 
L 581 0 
L 581 4863 
L 1159 4863 
L 1159 2956 
Q 1366 3272 1645 3428 
Q 1925 3584 2291 3584 
Q 2894 3584 3203 3211 
Q 3513 2838 3513 2113 
z
" transform="scale(0.015625)"/>
      </defs>
      <use xlink:href="#DejaVuSans-33"/>
      <use xlink:href="#DejaVuSans-32" x="63.623047"/>
      <use xlink:href="#DejaVuSans-2d" x="127.246094"/>
      <use xlink:href="#DejaVuSans-46" x="163.330078"/>
      <use xlink:href="#DejaVuSans-31" x="220.849609"/>
      <use xlink:href="#DejaVuSans-30" x="284.472656"/>
      <use xlink:href="#DejaVuSans-30" x="348.095703"/>
      <use xlink:href="#DejaVuSans-2d" x="411.71875"/>
      <use xlink:href="#DejaVuSans-68" x="447.802734"/>
      <use xlink:href="#DejaVuSans-69" x="511.181641"/>
      <use xlink:href="#DejaVuSans-6c" x="538.964844"/>
      <use xlink:href="#DejaVuSans-62" x="566.748047"/>
      <use xlink:href="#DejaVuSans-65" x="630.224609"/>
      <use xlink:href="#DejaVuSans-72" x="691.748047"/>
      <use xlink:href="#DejaVuSans-74" x="732.861328"/>
     </g>
    </g>
    <g id="line2d_35">
     <path d="M 616.394 133.916498 
L 624.724 133.916498 
L 633.054 133.916498 
" style="fill: none; stroke: #2ca02c; stroke-width: 1.5; stroke-linecap: square"/>
     <g>
      <use xlink:href="#mf13ad7a2fb" x="624.724" y="133.916498" style="fill: #2ca02c; stroke: #2ca02c"/>
     </g>
    </g>
    <g id="text_19">
     <!-- 32-F100-rcb -->
     <g transform="translate(639.718 136.831998) scale(0.0833 -0.0833)">
      <defs>
       <path id="DejaVuSans-63" d="M 3122 3366 
L 3122 2828 
Q 2878 2963 2633 3030 
Q 2388 3097 2138 3097 
Q 1578 3097 1268 2742 
Q 959 2388 959 1747 
Q 959 1106 1268 751 
Q 1578 397 2138 397 
Q 2388 397 2633 464 
Q 2878 531 3122 666 
L 3122 134 
Q 2881 22 2623 -34 
Q 2366 -91 2075 -91 
Q 1284 -91 818 406 
Q 353 903 353 1747 
Q 353 2603 823 3093 
Q 1294 3584 2113 3584 
Q 2378 3584 2631 3529 
Q 2884 3475 3122 3366 
z
" transform="scale(0.015625)"/>
      </defs>
      <use xlink:href="#DejaVuSans-33"/>
      <use xlink:href="#DejaVuSans-32" x="63.623047"/>
      <use xlink:href="#DejaVuSans-2d" x="127.246094"/>
      <use xlink:href="#DejaVuSans-46" x="163.330078"/>
      <use xlink:href="#DejaVuSans-31" x="220.849609"/>
      <use xlink:href="#DejaVuSans-30" x="284.472656"/>
      <use xlink:href="#DejaVuSans-30" x="348.095703"/>
      <use xlink:href="#DejaVuSans-2d" x="411.71875"/>
      <use xlink:href="#DejaVuSans-72" x="447.802734"/>
      <use xlink:href="#DejaVuSans-63" x="486.666016"/>
      <use xlink:href="#DejaVuSans-62" x="541.646484"/>
     </g>
    </g>
    <g id="line2d_36">
     <path d="M 616.394 146.143377 
L 624.724 146.143377 
L 633.054 146.143377 
" style="fill: none; stroke: #d62728; stroke-width: 1.5; stroke-linecap: square"/>
     <g>
      <use xlink:href="#m51a42f3f3a" x="624.724" y="146.143377" style="fill: #d62728; stroke: #d62728"/>
     </g>
    </g>
    <g id="text_20">
     <!-- 32-F100-rcbincr -->
     <g transform="translate(639.718 149.058877) scale(0.0833 -0.0833)">
      <use xlink:href="#DejaVuSans-33"/>
      <use xlink:href="#DejaVuSans-32" x="63.623047"/>
      <use xlink:href="#DejaVuSans-2d" x="127.246094"/>
      <use xlink:href="#DejaVuSans-46" x="163.330078"/>
      <use xlink:href="#DejaVuSans-31" x="220.849609"/>
      <use xlink:href="#DejaVuSans-30" x="284.472656"/>
      <use xlink:href="#DejaVuSans-30" x="348.095703"/>
      <use xlink:href="#DejaVuSans-2d" x="411.71875"/>
      <use xlink:href="#DejaVuSans-72" x="447.802734"/>
      <use xlink:href="#DejaVuSans-63" x="486.666016"/>
      <use xlink:href="#DejaVuSans-62" x="541.646484"/>
      <use xlink:href="#DejaVuSans-69" x="605.123047"/>
      <use xlink:href="#DejaVuSans-6e" x="632.90625"/>
      <use xlink:href="#DejaVuSans-63" x="696.285156"/>
      <use xlink:href="#DejaVuSans-72" x="751.265625"/>
     </g>
    </g>
   </g>
  </g>
 </g>
 <defs>
  <clipPath id="p53b7d09780">
   <rect x="47.91125" y="10.8" width="560.98575" height="235.24"/>
  </clipPath>
 </defs>
</svg>
