<?xml version="1.0" encoding="utf-8" standalone="no"?>
<!DOCTYPE svg PUBLIC "-//W3C//DTD SVG 1.1//EN"
  "http://www.w3.org/Graphics/SVG/1.1/DTD/svg11.dtd">
<svg xmlns:xlink="http://www.w3.org/1999/xlink" width="904.781937pt" height="155.63625pt" viewBox="0 0 904.781937 155.63625" xmlns="http://www.w3.org/2000/svg" version="1.1">
 <metadata>
  <rdf:RDF xmlns:dc="http://purl.org/dc/elements/1.1/" xmlns:cc="http://creativecommons.org/ns#" xmlns:rdf="http://www.w3.org/1999/02/22-rdf-syntax-ns#">
   <cc:Work>
    <dc:type rdf:resource="http://purl.org/dc/dcmitype/StillImage"/>
    <dc:date>2025-09-06T21:02:15.749473</dc:date>
    <dc:format>image/svg+xml</dc:format>
    <dc:creator>
     <cc:Agent>
      <dc:title>Matplotlib v3.6.3, https://matplotlib.org/</dc:title>
     </cc:Agent>
    </dc:creator>
   </cc:Work>
  </rdf:RDF>
 </metadata>
 <defs>
  <style type="text/css">*{stroke-linejoin: round; stroke-linecap: butt}</style>
 </defs>
 <g id="figure_1">
  <g id="patch_1">
   <path d="M 0 155.63625 
L 904.781937 155.63625 
L 904.781937 0 
L 0 0 
z
" style="fill: #ffffff"/>
  </g>
  <g id="axes_1">
   <g id="patch_2">
    <path d="M 34.240625 118.08 
L 703.840625 118.08 
L 703.840625 7.2 
L 34.240625 7.2 
z
" style="fill: #ffffff"/>
   </g>
   <g id="matplotlib.axis_1">
    <g id="xtick_1">
     <g id="line2d_1">
      <defs>
       <path id="mb98480298a" d="M 0 0 
L 0 3.5 
" style="stroke: #000000; stroke-width: 0.8"/>
      </defs>
      <g>
       <use xlink:href="#mb98480298a" x="112.625" y="118.08" style="stroke: #000000; stroke-width: 0.8"/>
      </g>
     </g>
     <g id="text_1">
      <!-- 0 -->
      <g transform="translate(109.44375 132.678438) scale(0.1 -0.1)">
       <defs>
        <path id="DejaVuSans-30" d="M 2034 4250 
Q 1547 4250 1301 3770 
Q 1056 3291 1056 2328 
Q 1056 1369 1301 889 
Q 1547 409 2034 409 
Q 2525 409 2770 889 
Q 3016 1369 3016 2328 
Q 3016 3291 2770 3770 
Q 2525 4250 2034 4250 
z
M 2034 4750 
Q 2819 4750 3233 4129 
Q 3647 3509 3647 2328 
Q 3647 1150 3233 529 
Q 2819 -91 2034 -91 
Q 1250 -91 836 529 
Q 422 1150 422 2328 
Q 422 3509 836 4129 
Q 1250 4750 2034 4750 
z
" transform="scale(0.015625)"/>
       </defs>
       <use xlink:href="#DejaVuSans-30"/>
      </g>
     </g>
    </g>
    <g id="xtick_2">
     <g id="line2d_2">
      <g>
       <use xlink:href="#mb98480298a" x="241.5" y="118.08" style="stroke: #000000; stroke-width: 0.8"/>
      </g>
     </g>
     <g id="text_2">
      <!-- 0 -->
      <g transform="translate(238.31875 132.678438) scale(0.1 -0.1)">
       <use xlink:href="#DejaVuSans-30"/>
      </g>
     </g>
    </g>
    <g id="xtick_3">
     <g id="line2d_3">
      <g>
       <use xlink:href="#mb98480298a" x="370.3125" y="118.08" style="stroke: #000000; stroke-width: 0.8"/>
      </g>
     </g>
     <g id="text_3">
      <!-- 0 -->
      <g transform="translate(367.13125 132.678438) scale(0.1 -0.1)">
       <use xlink:href="#DejaVuSans-30"/>
      </g>
     </g>
    </g>
    <g id="xtick_4">
     <g id="line2d_4">
      <g>
       <use xlink:href="#mb98480298a" x="499.25" y="118.08" style="stroke: #000000; stroke-width: 0.8"/>
      </g>
     </g>
     <g id="text_4">
      <!-- 0 -->
      <g transform="translate(496.06875 132.678438) scale(0.1 -0.1)">
       <use xlink:href="#DejaVuSans-30"/>
      </g>
     </g>
    </g>
    <g id="xtick_5">
     <g id="line2d_5">
      <g>
       <use xlink:href="#mb98480298a" x="628.0625" y="118.08" style="stroke: #000000; stroke-width: 0.8"/>
      </g>
     </g>
     <g id="text_5">
      <!-- 0 -->
      <g transform="translate(624.88125 132.678438) scale(0.1 -0.1)">
       <use xlink:href="#DejaVuSans-30"/>
      </g>
     </g>
    </g>
    <g id="text_6">
     <!-- Time Offset (s) -->
     <g transform="translate(332.025 146.356563) scale(0.1 -0.1)">
      <defs>
       <path id="DejaVuSans-54" d="M -19 4666 
L 3928 4666 
L 3928 4134 
L 2272 4134 
L 2272 0 
L 1638 0 
L 1638 4134 
L -19 4134 
L -19 4666 
z
" transform="scale(0.015625)"/>
       <path id="DejaVuSans-69" d="M 603 3500 
L 1178 3500 
L 1178 0 
L 603 0 
L 603 3500 
z
M 603 4863 
L 1178 4863 
L 1178 4134 
L 603 4134 
L 603 4863 
z
" transform="scale(0.015625)"/>
       <path id="DejaVuSans-6d" d="M 3328 2828 
Q 3544 3216 3844 3400 
Q 4144 3584 4550 3584 
Q 5097 3584 5394 3201 
Q 5691 2819 5691 2113 
L 5691 0 
L 5113 0 
L 5113 2094 
Q 5113 2597 4934 2840 
Q 4756 3084 4391 3084 
Q 3944 3084 3684 2787 
Q 3425 2491 3425 1978 
L 3425 0 
L 2847 0 
L 2847 2094 
Q 2847 2600 2669 2842 
Q 2491 3084 2119 3084 
Q 1678 3084 1418 2786 
Q 1159 2488 1159 1978 
L 1159 0 
L 581 0 
L 581 3500 
L 1159 3500 
L 1159 2956 
Q 1356 3278 1631 3431 
Q 1906 3584 2284 3584 
Q 2666 3584 2933 3390 
Q 3200 3197 3328 2828 
z
" transform="scale(0.015625)"/>
       <path id="DejaVuSans-65" d="M 3597 1894 
L 3597 1613 
L 953 1613 
Q 991 1019 1311 708 
Q 1631 397 2203 397 
Q 2534 397 2845 478 
Q 3156 559 3463 722 
L 3463 178 
Q 3153 47 2828 -22 
Q 2503 -91 2169 -91 
Q 1331 -91 842 396 
Q 353 884 353 1716 
Q 353 2575 817 3079 
Q 1281 3584 2069 3584 
Q 2775 3584 3186 3129 
Q 3597 2675 3597 1894 
z
M 3022 2063 
Q 3016 2534 2758 2815 
Q 2500 3097 2075 3097 
Q 1594 3097 1305 2825 
Q 1016 2553 972 2059 
L 3022 2063 
z
" transform="scale(0.015625)"/>
       <path id="DejaVuSans-20" transform="scale(0.015625)"/>
       <path id="DejaVuSans-4f" d="M 2522 4238 
Q 1834 4238 1429 3725 
Q 1025 3213 1025 2328 
Q 1025 1447 1429 934 
Q 1834 422 2522 422 
Q 3209 422 3611 934 
Q 4013 1447 4013 2328 
Q 4013 3213 3611 3725 
Q 3209 4238 2522 4238 
z
M 2522 4750 
Q 3503 4750 4090 4092 
Q 4678 3434 4678 2328 
Q 4678 1225 4090 567 
Q 3503 -91 2522 -91 
Q 1538 -91 948 565 
Q 359 1222 359 2328 
Q 359 3434 948 4092 
Q 1538 4750 2522 4750 
z
" transform="scale(0.015625)"/>
       <path id="DejaVuSans-66" d="M 2375 4863 
L 2375 4384 
L 1825 4384 
Q 1516 4384 1395 4259 
Q 1275 4134 1275 3809 
L 1275 3500 
L 2222 3500 
L 2222 3053 
L 1275 3053 
L 1275 0 
L 697 0 
L 697 3053 
L 147 3053 
L 147 3500 
L 697 3500 
L 697 3744 
Q 697 4328 969 4595 
Q 1241 4863 1831 4863 
L 2375 4863 
z
" transform="scale(0.015625)"/>
       <path id="DejaVuSans-73" d="M 2834 3397 
L 2834 2853 
Q 2591 2978 2328 3040 
Q 2066 3103 1784 3103 
Q 1356 3103 1142 2972 
Q 928 2841 928 2578 
Q 928 2378 1081 2264 
Q 1234 2150 1697 2047 
L 1894 2003 
Q 2506 1872 2764 1633 
Q 3022 1394 3022 966 
Q 3022 478 2636 193 
Q 2250 -91 1575 -91 
Q 1294 -91 989 -36 
Q 684 19 347 128 
L 347 722 
Q 666 556 975 473 
Q 1284 391 1588 391 
Q 1994 391 2212 530 
Q 2431 669 2431 922 
Q 2431 1156 2273 1281 
Q 2116 1406 1581 1522 
L 1381 1569 
Q 847 1681 609 1914 
Q 372 2147 372 2553 
Q 372 3047 722 3315 
Q 1072 3584 1716 3584 
Q 2034 3584 2315 3537 
Q 2597 3491 2834 3397 
z
" transform="scale(0.015625)"/>
       <path id="DejaVuSans-74" d="M 1172 4494 
L 1172 3500 
L 2356 3500 
L 2356 3053 
L 1172 3053 
L 1172 1153 
Q 1172 725 1289 603 
Q 1406 481 1766 481 
L 2356 481 
L 2356 0 
L 1766 0 
Q 1100 0 847 248 
Q 594 497 594 1153 
L 594 3053 
L 172 3053 
L 172 3500 
L 594 3500 
L 594 4494 
L 1172 4494 
z
" transform="scale(0.015625)"/>
       <path id="DejaVuSans-28" d="M 1984 4856 
Q 1566 4138 1362 3434 
Q 1159 2731 1159 2009 
Q 1159 1288 1364 580 
Q 1569 -128 1984 -844 
L 1484 -844 
Q 1016 -109 783 600 
Q 550 1309 550 2009 
Q 550 2706 781 3412 
Q 1013 4119 1484 4856 
L 1984 4856 
z
" transform="scale(0.015625)"/>
       <path id="DejaVuSans-29" d="M 513 4856 
L 1013 4856 
Q 1481 4119 1714 3412 
Q 1947 2706 1947 2009 
Q 1947 1309 1714 600 
Q 1481 -109 1013 -844 
L 513 -844 
Q 928 -128 1133 580 
Q 1338 1288 1338 2009 
Q 1338 2731 1133 3434 
Q 928 4138 513 4856 
z
" transform="scale(0.015625)"/>
      </defs>
      <use xlink:href="#DejaVuSans-54"/>
      <use xlink:href="#DejaVuSans-69" x="57.958984"/>
      <use xlink:href="#DejaVuSans-6d" x="85.742188"/>
      <use xlink:href="#DejaVuSans-65" x="183.154297"/>
      <use xlink:href="#DejaVuSans-20" x="244.677734"/>
      <use xlink:href="#DejaVuSans-4f" x="276.464844"/>
      <use xlink:href="#DejaVuSans-66" x="355.175781"/>
      <use xlink:href="#DejaVuSans-66" x="390.380859"/>
      <use xlink:href="#DejaVuSans-73" x="425.585938"/>
      <use xlink:href="#DejaVuSans-65" x="477.685547"/>
      <use xlink:href="#DejaVuSans-74" x="539.208984"/>
      <use xlink:href="#DejaVuSans-20" x="578.417969"/>
      <use xlink:href="#DejaVuSans-28" x="610.205078"/>
      <use xlink:href="#DejaVuSans-73" x="649.21875"/>
      <use xlink:href="#DejaVuSans-29" x="701.318359"/>
     </g>
    </g>
   </g>
   <g id="matplotlib.axis_2">
    <g id="ytick_1">
     <g id="line2d_6">
      <defs>
       <path id="mb4cf2ca96d" d="M 0 0 
L -3.5 0 
" style="stroke: #000000; stroke-width: 0.8"/>
      </defs>
      <g>
       <use xlink:href="#mb4cf2ca96d" x="34.240625" y="27.881379" style="stroke: #000000; stroke-width: 0.8"/>
      </g>
     </g>
     <g id="text_7">
      <!-- 0 -->
      <g transform="translate(20.878125 31.680598) scale(0.1 -0.1)">
       <use xlink:href="#DejaVuSans-30"/>
      </g>
     </g>
    </g>
    <g id="ytick_2">
     <g id="line2d_7">
      <g>
       <use xlink:href="#mb4cf2ca96d" x="34.240625" y="62.64" style="stroke: #000000; stroke-width: 0.8"/>
      </g>
     </g>
     <g id="text_8">
      <!-- 1 -->
      <g transform="translate(20.878125 66.439219) scale(0.1 -0.1)">
       <defs>
        <path id="DejaVuSans-31" d="M 794 531 
L 1825 531 
L 1825 4091 
L 703 3866 
L 703 4441 
L 1819 4666 
L 2450 4666 
L 2450 531 
L 3481 531 
L 3481 0 
L 794 0 
L 794 531 
z
" transform="scale(0.015625)"/>
       </defs>
       <use xlink:href="#DejaVuSans-31"/>
      </g>
     </g>
    </g>
    <g id="ytick_3">
     <g id="line2d_8">
      <g>
       <use xlink:href="#mb4cf2ca96d" x="34.240625" y="97.398621" style="stroke: #000000; stroke-width: 0.8"/>
      </g>
     </g>
     <g id="text_9">
      <!-- 2 -->
      <g transform="translate(20.878125 101.197839) scale(0.1 -0.1)">
       <defs>
        <path id="DejaVuSans-32" d="M 1228 531 
L 3431 531 
L 3431 0 
L 469 0 
L 469 531 
Q 828 903 1448 1529 
Q 2069 2156 2228 2338 
Q 2531 2678 2651 2914 
Q 2772 3150 2772 3378 
Q 2772 3750 2511 3984 
Q 2250 4219 1831 4219 
Q 1534 4219 1204 4116 
Q 875 4013 500 3803 
L 500 4441 
Q 881 4594 1212 4672 
Q 1544 4750 1819 4750 
Q 2544 4750 2975 4387 
Q 3406 4025 3406 3419 
Q 3406 3131 3298 2873 
Q 3191 2616 2906 2266 
Q 2828 2175 2409 1742 
Q 1991 1309 1228 531 
z
" transform="scale(0.015625)"/>
       </defs>
       <use xlink:href="#DejaVuSans-32"/>
      </g>
     </g>
    </g>
    <g id="text_10">
     <!-- Task -->
     <g transform="translate(14.798438 73.432969) rotate(-90) scale(0.1 -0.1)">
      <defs>
       <path id="DejaVuSans-61" d="M 2194 1759 
Q 1497 1759 1228 1600 
Q 959 1441 959 1056 
Q 959 750 1161 570 
Q 1363 391 1709 391 
Q 2188 391 2477 730 
Q 2766 1069 2766 1631 
L 2766 1759 
L 2194 1759 
z
M 3341 1997 
L 3341 0 
L 2766 0 
L 2766 531 
Q 2569 213 2275 61 
Q 1981 -91 1556 -91 
Q 1019 -91 701 211 
Q 384 513 384 1019 
Q 384 1609 779 1909 
Q 1175 2209 1959 2209 
L 2766 2209 
L 2766 2266 
Q 2766 2663 2505 2880 
Q 2244 3097 1772 3097 
Q 1472 3097 1187 3025 
Q 903 2953 641 2809 
L 641 3341 
Q 956 3463 1253 3523 
Q 1550 3584 1831 3584 
Q 2591 3584 2966 3190 
Q 3341 2797 3341 1997 
z
" transform="scale(0.015625)"/>
       <path id="DejaVuSans-6b" d="M 581 4863 
L 1159 4863 
L 1159 1991 
L 2875 3500 
L 3609 3500 
L 1753 1863 
L 3688 0 
L 2938 0 
L 1159 1709 
L 1159 0 
L 581 0 
L 581 4863 
z
" transform="scale(0.015625)"/>
      </defs>
      <use xlink:href="#DejaVuSans-54"/>
      <use xlink:href="#DejaVuSans-61" x="44.583984"/>
      <use xlink:href="#DejaVuSans-73" x="105.863281"/>
      <use xlink:href="#DejaVuSans-6b" x="157.962891"/>
     </g>
    </g>
   </g>
   <g id="patch_3">
    <path d="M 34.240625 118.08 
L 34.240625 7.2 
" style="fill: none; stroke: #000000; stroke-width: 0.8; stroke-linejoin: miter; stroke-linecap: square"/>
   </g>
   <g id="patch_4">
    <path d="M 703.840625 118.08 
L 703.840625 7.2 
" style="fill: none; stroke: #000000; stroke-width: 0.8; stroke-linejoin: miter; stroke-linecap: square"/>
   </g>
   <g id="patch_5">
    <path d="M 34.25 118.08 
L 703.875 118.08 
" style="fill: none; stroke: #000000; stroke-width: 0.8; stroke-linejoin: miter; stroke-linecap: square"/>
   </g>
   <g id="patch_6">
    <path d="M 34.25 7.2 
L 703.875 7.2 
" style="fill: none; stroke: #000000; stroke-width: 0.8; stroke-linejoin: miter; stroke-linecap: square"/>
   </g>
   <g id="legend_1">
    <g id="patch_7">
     <path d="M 717.536625 147.303125 
L 895.581938 147.303125 
Q 897.581938 147.303125 897.581938 145.303125 
L 897.581938 14.2 
Q 897.581938 12.2 895.581938 12.2 
L 717.536625 12.2 
Q 715.536625 12.2 715.536625 14.2 
L 715.536625 145.303125 
Q 715.536625 147.303125 717.536625 147.303125 
z
" style="fill: #ffffff; opacity: 0.8; stroke: #cccccc; stroke-linejoin: miter"/>
    </g>
    <g id="text_11">
     <!-- Function -->
     <g transform="translate(785.294438 23.798438) scale(0.1 -0.1)">
      <defs>
       <path id="DejaVuSans-46" d="M 628 4666 
L 3309 4666 
L 3309 4134 
L 1259 4134 
L 1259 2759 
L 3109 2759 
L 3109 2228 
L 1259 2228 
L 1259 0 
L 628 0 
L 628 4666 
z
" transform="scale(0.015625)"/>
       <path id="DejaVuSans-75" d="M 544 1381 
L 544 3500 
L 1119 3500 
L 1119 1403 
Q 1119 906 1312 657 
Q 1506 409 1894 409 
Q 2359 409 2629 706 
Q 2900 1003 2900 1516 
L 2900 3500 
L 3475 3500 
L 3475 0 
L 2900 0 
L 2900 538 
Q 2691 219 2414 64 
Q 2138 -91 1772 -91 
Q 1169 -91 856 284 
Q 544 659 544 1381 
z
M 1991 3584 
L 1991 3584 
z
" transform="scale(0.015625)"/>
       <path id="DejaVuSans-6e" d="M 3513 2113 
L 3513 0 
L 2938 0 
L 2938 2094 
Q 2938 2591 2744 2837 
Q 2550 3084 2163 3084 
Q 1697 3084 1428 2787 
Q 1159 2491 1159 1978 
L 1159 0 
L 581 0 
L 581 3500 
L 1159 3500 
L 1159 2956 
Q 1366 3272 1645 3428 
Q 1925 3584 2291 3584 
Q 2894 3584 3203 3211 
Q 3513 2838 3513 2113 
z
" transform="scale(0.015625)"/>
       <path id="DejaVuSans-63" d="M 3122 3366 
L 3122 2828 
Q 2878 2963 2633 3030 
Q 2388 3097 2138 3097 
Q 1578 3097 1268 2742 
Q 959 2388 959 1747 
Q 959 1106 1268 751 
Q 1578 397 2138 397 
Q 2388 397 2633 464 
Q 2878 531 3122 666 
L 3122 134 
Q 2881 22 2623 -34 
Q 2366 -91 2075 -91 
Q 1284 -91 818 406 
Q 353 903 353 1747 
Q 353 2603 823 3093 
Q 1294 3584 2113 3584 
Q 2378 3584 2631 3529 
Q 2884 3475 3122 3366 
z
" transform="scale(0.015625)"/>
       <path id="DejaVuSans-6f" d="M 1959 3097 
Q 1497 3097 1228 2736 
Q 959 2375 959 1747 
Q 959 1119 1226 758 
Q 1494 397 1959 397 
Q 2419 397 2687 759 
Q 2956 1122 2956 1747 
Q 2956 2369 2687 2733 
Q 2419 3097 1959 3097 
z
M 1959 3584 
Q 2709 3584 3137 3096 
Q 3566 2609 3566 1747 
Q 3566 888 3137 398 
Q 2709 -91 1959 -91 
Q 1206 -91 779 398 
Q 353 888 353 1747 
Q 353 2609 779 3096 
Q 1206 3584 1959 3584 
z
" transform="scale(0.015625)"/>
      </defs>
      <use xlink:href="#DejaVuSans-46"/>
      <use xlink:href="#DejaVuSans-75" x="52.019531"/>
      <use xlink:href="#DejaVuSans-6e" x="115.398438"/>
      <use xlink:href="#DejaVuSans-63" x="178.777344"/>
      <use xlink:href="#DejaVuSans-74" x="233.757812"/>
      <use xlink:href="#DejaVuSans-69" x="272.966797"/>
      <use xlink:href="#DejaVuSans-6f" x="300.75"/>
      <use xlink:href="#DejaVuSans-6e" x="361.931641"/>
     </g>
    </g>
    <g id="patch_8">
     <path d="M 719.536625 38.476563 
L 739.536625 38.476563 
L 739.536625 31.476563 
L 719.536625 31.476563 
z
" style="fill: #1f77b4; stroke: #1f77b4; stroke-linejoin: miter"/>
    </g>
    <g id="text_12">
     <!-- ax,ay: all -&gt; block -->
     <g transform="translate(747.536625 38.476563) scale(0.1 -0.1)">
      <defs>
       <path id="DejaVuSans-78" d="M 3513 3500 
L 2247 1797 
L 3578 0 
L 2900 0 
L 1881 1375 
L 863 0 
L 184 0 
L 1544 1831 
L 300 3500 
L 978 3500 
L 1906 2253 
L 2834 3500 
L 3513 3500 
z
" transform="scale(0.015625)"/>
       <path id="DejaVuSans-2c" d="M 750 794 
L 1409 794 
L 1409 256 
L 897 -744 
L 494 -744 
L 750 256 
L 750 794 
z
" transform="scale(0.015625)"/>
       <path id="DejaVuSans-79" d="M 2059 -325 
Q 1816 -950 1584 -1140 
Q 1353 -1331 966 -1331 
L 506 -1331 
L 506 -850 
L 844 -850 
Q 1081 -850 1212 -737 
Q 1344 -625 1503 -206 
L 1606 56 
L 191 3500 
L 800 3500 
L 1894 763 
L 2988 3500 
L 3597 3500 
L 2059 -325 
z
" transform="scale(0.015625)"/>
       <path id="DejaVuSans-3a" d="M 750 794 
L 1409 794 
L 1409 0 
L 750 0 
L 750 794 
z
M 750 3309 
L 1409 3309 
L 1409 2516 
L 750 2516 
L 750 3309 
z
" transform="scale(0.015625)"/>
       <path id="DejaVuSans-6c" d="M 603 4863 
L 1178 4863 
L 1178 0 
L 603 0 
L 603 4863 
z
" transform="scale(0.015625)"/>
       <path id="DejaVuSans-2d" d="M 313 2009 
L 1997 2009 
L 1997 1497 
L 313 1497 
L 313 2009 
z
" transform="scale(0.015625)"/>
       <path id="DejaVuSans-3e" d="M 678 3150 
L 678 3719 
L 4684 2266 
L 4684 1747 
L 678 294 
L 678 863 
L 3897 2003 
L 678 3150 
z
" transform="scale(0.015625)"/>
       <path id="DejaVuSans-62" d="M 3116 1747 
Q 3116 2381 2855 2742 
Q 2594 3103 2138 3103 
Q 1681 3103 1420 2742 
Q 1159 2381 1159 1747 
Q 1159 1113 1420 752 
Q 1681 391 2138 391 
Q 2594 391 2855 752 
Q 3116 1113 3116 1747 
z
M 1159 2969 
Q 1341 3281 1617 3432 
Q 1894 3584 2278 3584 
Q 2916 3584 3314 3078 
Q 3713 2572 3713 1747 
Q 3713 922 3314 415 
Q 2916 -91 2278 -91 
Q 1894 -91 1617 61 
Q 1341 213 1159 525 
L 1159 0 
L 581 0 
L 581 4863 
L 1159 4863 
L 1159 2969 
z
" transform="scale(0.015625)"/>
      </defs>
      <use xlink:href="#DejaVuSans-61"/>
      <use xlink:href="#DejaVuSans-78" x="61.279297"/>
      <use xlink:href="#DejaVuSans-2c" x="120.458984"/>
      <use xlink:href="#DejaVuSans-61" x="152.246094"/>
      <use xlink:href="#DejaVuSans-79" x="213.525391"/>
      <use xlink:href="#DejaVuSans-3a" x="265.455078"/>
      <use xlink:href="#DejaVuSans-20" x="299.146484"/>
      <use xlink:href="#DejaVuSans-61" x="330.933594"/>
      <use xlink:href="#DejaVuSans-6c" x="392.212891"/>
      <use xlink:href="#DejaVuSans-6c" x="419.996094"/>
      <use xlink:href="#DejaVuSans-20" x="447.779297"/>
      <use xlink:href="#DejaVuSans-2d" x="479.566406"/>
      <use xlink:href="#DejaVuSans-3e" x="515.650391"/>
      <use xlink:href="#DejaVuSans-20" x="599.439453"/>
      <use xlink:href="#DejaVuSans-62" x="631.226562"/>
      <use xlink:href="#DejaVuSans-6c" x="694.703125"/>
      <use xlink:href="#DejaVuSans-6f" x="722.486328"/>
      <use xlink:href="#DejaVuSans-63" x="783.667969"/>
      <use xlink:href="#DejaVuSans-6b" x="838.648438"/>
     </g>
    </g>
    <g id="patch_9">
     <path d="M 719.536625 53.154688 
L 739.536625 53.154688 
L 739.536625 46.154688 
L 719.536625 46.154688 
z
" style="fill: #ff7f0e; stroke: #ff7f0e; stroke-linejoin: miter"/>
    </g>
    <g id="text_13">
     <!-- integration-loop -->
     <g transform="translate(747.536625 53.154688) scale(0.1 -0.1)">
      <defs>
       <path id="DejaVuSans-67" d="M 2906 1791 
Q 2906 2416 2648 2759 
Q 2391 3103 1925 3103 
Q 1463 3103 1205 2759 
Q 947 2416 947 1791 
Q 947 1169 1205 825 
Q 1463 481 1925 481 
Q 2391 481 2648 825 
Q 2906 1169 2906 1791 
z
M 3481 434 
Q 3481 -459 3084 -895 
Q 2688 -1331 1869 -1331 
Q 1566 -1331 1297 -1286 
Q 1028 -1241 775 -1147 
L 775 -588 
Q 1028 -725 1275 -790 
Q 1522 -856 1778 -856 
Q 2344 -856 2625 -561 
Q 2906 -266 2906 331 
L 2906 616 
Q 2728 306 2450 153 
Q 2172 0 1784 0 
Q 1141 0 747 490 
Q 353 981 353 1791 
Q 353 2603 747 3093 
Q 1141 3584 1784 3584 
Q 2172 3584 2450 3431 
Q 2728 3278 2906 2969 
L 2906 3500 
L 3481 3500 
L 3481 434 
z
" transform="scale(0.015625)"/>
       <path id="DejaVuSans-72" d="M 2631 2963 
Q 2534 3019 2420 3045 
Q 2306 3072 2169 3072 
Q 1681 3072 1420 2755 
Q 1159 2438 1159 1844 
L 1159 0 
L 581 0 
L 581 3500 
L 1159 3500 
L 1159 2956 
Q 1341 3275 1631 3429 
Q 1922 3584 2338 3584 
Q 2397 3584 2469 3576 
Q 2541 3569 2628 3553 
L 2631 2963 
z
" transform="scale(0.015625)"/>
       <path id="DejaVuSans-70" d="M 1159 525 
L 1159 -1331 
L 581 -1331 
L 581 3500 
L 1159 3500 
L 1159 2969 
Q 1341 3281 1617 3432 
Q 1894 3584 2278 3584 
Q 2916 3584 3314 3078 
Q 3713 2572 3713 1747 
Q 3713 922 3314 415 
Q 2916 -91 2278 -91 
Q 1894 -91 1617 61 
Q 1341 213 1159 525 
z
M 3116 1747 
Q 3116 2381 2855 2742 
Q 2594 3103 2138 3103 
Q 1681 3103 1420 2742 
Q 1159 2381 1159 1747 
Q 1159 1113 1420 752 
Q 1681 391 2138 391 
Q 2594 391 2855 752 
Q 3116 1113 3116 1747 
z
" transform="scale(0.015625)"/>
      </defs>
      <use xlink:href="#DejaVuSans-69"/>
      <use xlink:href="#DejaVuSans-6e" x="27.783203"/>
      <use xlink:href="#DejaVuSans-74" x="91.162109"/>
      <use xlink:href="#DejaVuSans-65" x="130.371094"/>
      <use xlink:href="#DejaVuSans-67" x="191.894531"/>
      <use xlink:href="#DejaVuSans-72" x="255.371094"/>
      <use xlink:href="#DejaVuSans-61" x="296.484375"/>
      <use xlink:href="#DejaVuSans-74" x="357.763672"/>
      <use xlink:href="#DejaVuSans-69" x="396.972656"/>
      <use xlink:href="#DejaVuSans-6f" x="424.755859"/>
      <use xlink:href="#DejaVuSans-6e" x="485.9375"/>
      <use xlink:href="#DejaVuSans-2d" x="549.316406"/>
      <use xlink:href="#DejaVuSans-6c" x="585.400391"/>
      <use xlink:href="#DejaVuSans-6f" x="613.183594"/>
      <use xlink:href="#DejaVuSans-6f" x="674.365234"/>
      <use xlink:href="#DejaVuSans-70" x="735.546875"/>
     </g>
    </g>
    <g id="patch_10">
     <path d="M 719.536625 67.832813 
L 739.536625 67.832813 
L 739.536625 60.832813 
L 719.536625 60.832813 
z
" style="fill: #2ca02c; stroke: #2ca02c; stroke-linejoin: miter"/>
    </g>
    <g id="text_14">
     <!-- main -->
     <g transform="translate(747.536625 67.832813) scale(0.1 -0.1)">
      <use xlink:href="#DejaVuSans-6d"/>
      <use xlink:href="#DejaVuSans-61" x="97.412109"/>
      <use xlink:href="#DejaVuSans-69" x="158.691406"/>
      <use xlink:href="#DejaVuSans-6e" x="186.474609"/>
     </g>
    </g>
    <g id="patch_11">
     <path d="M 719.536625 82.510938 
L 739.536625 82.510938 
L 739.536625 75.510938 
L 719.536625 75.510938 
z
" style="fill: #d62728; stroke: #d62728; stroke-linejoin: miter"/>
    </g>
    <g id="text_15">
     <!-- w,r,next: init -->
     <g transform="translate(747.536625 82.510938) scale(0.1 -0.1)">
      <defs>
       <path id="DejaVuSans-77" d="M 269 3500 
L 844 3500 
L 1563 769 
L 2278 3500 
L 2956 3500 
L 3675 769 
L 4391 3500 
L 4966 3500 
L 4050 0 
L 3372 0 
L 2619 2869 
L 1863 0 
L 1184 0 
L 269 3500 
z
" transform="scale(0.015625)"/>
      </defs>
      <use xlink:href="#DejaVuSans-77"/>
      <use xlink:href="#DejaVuSans-2c" x="81.787109"/>
      <use xlink:href="#DejaVuSans-72" x="113.574219"/>
      <use xlink:href="#DejaVuSans-2c" x="154.6875"/>
      <use xlink:href="#DejaVuSans-6e" x="186.474609"/>
      <use xlink:href="#DejaVuSans-65" x="249.853516"/>
      <use xlink:href="#DejaVuSans-78" x="309.626953"/>
      <use xlink:href="#DejaVuSans-74" x="368.806641"/>
      <use xlink:href="#DejaVuSans-3a" x="408.015625"/>
      <use xlink:href="#DejaVuSans-20" x="441.707031"/>
      <use xlink:href="#DejaVuSans-69" x="473.494141"/>
      <use xlink:href="#DejaVuSans-6e" x="501.277344"/>
      <use xlink:href="#DejaVuSans-69" x="564.65625"/>
      <use xlink:href="#DejaVuSans-74" x="592.439453"/>
     </g>
    </g>
    <g id="patch_12">
     <path d="M 719.536625 97.189063 
L 739.536625 97.189063 
L 739.536625 90.189063 
L 719.536625 90.189063 
z
" style="fill: #9467bd; stroke: #9467bd; stroke-linejoin: miter"/>
    </g>
    <g id="text_16">
     <!-- w,r,next: master -&gt; ?/halo/all -->
     <g transform="translate(747.536625 97.189063) scale(0.1 -0.1)">
      <defs>
       <path id="DejaVuSans-3f" d="M 1222 794 
L 1856 794 
L 1856 0 
L 1222 0 
L 1222 794 
z
M 1838 1253 
L 1241 1253 
L 1241 1734 
Q 1241 2050 1328 2253 
Q 1416 2456 1697 2725 
L 1978 3003 
Q 2156 3169 2236 3316 
Q 2316 3463 2316 3616 
Q 2316 3894 2111 4066 
Q 1906 4238 1569 4238 
Q 1322 4238 1042 4128 
Q 763 4019 459 3809 
L 459 4397 
Q 753 4575 1054 4662 
Q 1356 4750 1678 4750 
Q 2253 4750 2601 4447 
Q 2950 4144 2950 3647 
Q 2950 3409 2837 3195 
Q 2725 2981 2444 2713 
L 2169 2444 
Q 2022 2297 1961 2214 
Q 1900 2131 1875 2053 
Q 1856 1988 1847 1894 
Q 1838 1800 1838 1638 
L 1838 1253 
z
" transform="scale(0.015625)"/>
       <path id="DejaVuSans-2f" d="M 1625 4666 
L 2156 4666 
L 531 -594 
L 0 -594 
L 1625 4666 
z
" transform="scale(0.015625)"/>
       <path id="DejaVuSans-68" d="M 3513 2113 
L 3513 0 
L 2938 0 
L 2938 2094 
Q 2938 2591 2744 2837 
Q 2550 3084 2163 3084 
Q 1697 3084 1428 2787 
Q 1159 2491 1159 1978 
L 1159 0 
L 581 0 
L 581 4863 
L 1159 4863 
L 1159 2956 
Q 1366 3272 1645 3428 
Q 1925 3584 2291 3584 
Q 2894 3584 3203 3211 
Q 3513 2838 3513 2113 
z
" transform="scale(0.015625)"/>
      </defs>
      <use xlink:href="#DejaVuSans-77"/>
      <use xlink:href="#DejaVuSans-2c" x="81.787109"/>
      <use xlink:href="#DejaVuSans-72" x="113.574219"/>
      <use xlink:href="#DejaVuSans-2c" x="154.6875"/>
      <use xlink:href="#DejaVuSans-6e" x="186.474609"/>
      <use xlink:href="#DejaVuSans-65" x="249.853516"/>
      <use xlink:href="#DejaVuSans-78" x="309.626953"/>
      <use xlink:href="#DejaVuSans-74" x="368.806641"/>
      <use xlink:href="#DejaVuSans-3a" x="408.015625"/>
      <use xlink:href="#DejaVuSans-20" x="441.707031"/>
      <use xlink:href="#DejaVuSans-6d" x="473.494141"/>
      <use xlink:href="#DejaVuSans-61" x="570.90625"/>
      <use xlink:href="#DejaVuSans-73" x="632.185547"/>
      <use xlink:href="#DejaVuSans-74" x="684.285156"/>
      <use xlink:href="#DejaVuSans-65" x="723.494141"/>
      <use xlink:href="#DejaVuSans-72" x="785.017578"/>
      <use xlink:href="#DejaVuSans-20" x="826.130859"/>
      <use xlink:href="#DejaVuSans-2d" x="857.917969"/>
      <use xlink:href="#DejaVuSans-3e" x="894.001953"/>
      <use xlink:href="#DejaVuSans-20" x="977.791016"/>
      <use xlink:href="#DejaVuSans-3f" x="1009.578125"/>
      <use xlink:href="#DejaVuSans-2f" x="1062.654297"/>
      <use xlink:href="#DejaVuSans-68" x="1096.345703"/>
      <use xlink:href="#DejaVuSans-61" x="1159.724609"/>
      <use xlink:href="#DejaVuSans-6c" x="1221.003906"/>
      <use xlink:href="#DejaVuSans-6f" x="1248.787109"/>
      <use xlink:href="#DejaVuSans-2f" x="1309.96875"/>
      <use xlink:href="#DejaVuSans-61" x="1343.660156"/>
      <use xlink:href="#DejaVuSans-6c" x="1404.939453"/>
      <use xlink:href="#DejaVuSans-6c" x="1432.722656"/>
     </g>
    </g>
    <g id="patch_13">
     <path d="M 719.536625 111.867188 
L 739.536625 111.867188 
L 739.536625 104.867188 
L 719.536625 104.867188 
z
" style="fill: #8c564b; stroke: #8c564b; stroke-linejoin: miter"/>
    </g>
    <g id="text_17">
     <!-- x,y,ax,ay: block -&gt; all -->
     <g transform="translate(747.536625 111.867188) scale(0.1 -0.1)">
      <use xlink:href="#DejaVuSans-78"/>
      <use xlink:href="#DejaVuSans-2c" x="59.179688"/>
      <use xlink:href="#DejaVuSans-79" x="90.966797"/>
      <use xlink:href="#DejaVuSans-2c" x="150.146484"/>
      <use xlink:href="#DejaVuSans-61" x="181.933594"/>
      <use xlink:href="#DejaVuSans-78" x="243.212891"/>
      <use xlink:href="#DejaVuSans-2c" x="302.392578"/>
      <use xlink:href="#DejaVuSans-61" x="334.179688"/>
      <use xlink:href="#DejaVuSans-79" x="395.458984"/>
      <use xlink:href="#DejaVuSans-3a" x="447.388672"/>
      <use xlink:href="#DejaVuSans-20" x="481.080078"/>
      <use xlink:href="#DejaVuSans-62" x="512.867188"/>
      <use xlink:href="#DejaVuSans-6c" x="576.34375"/>
      <use xlink:href="#DejaVuSans-6f" x="604.126953"/>
      <use xlink:href="#DejaVuSans-63" x="665.308594"/>
      <use xlink:href="#DejaVuSans-6b" x="720.289062"/>
      <use xlink:href="#DejaVuSans-20" x="778.199219"/>
      <use xlink:href="#DejaVuSans-2d" x="809.986328"/>
      <use xlink:href="#DejaVuSans-3e" x="846.070312"/>
      <use xlink:href="#DejaVuSans-20" x="929.859375"/>
      <use xlink:href="#DejaVuSans-61" x="961.646484"/>
      <use xlink:href="#DejaVuSans-6c" x="1022.925781"/>
      <use xlink:href="#DejaVuSans-6c" x="1050.708984"/>
     </g>
    </g>
    <g id="patch_14">
     <path d="M 719.536625 126.545313 
L 739.536625 126.545313 
L 739.536625 119.545313 
L 719.536625 119.545313 
z
" style="fill: #e377c2; stroke: #e377c2; stroke-linejoin: miter"/>
    </g>
    <g id="text_18">
     <!-- x,y,ax,ay: master -&gt; block -->
     <g transform="translate(747.536625 126.545313) scale(0.1 -0.1)">
      <use xlink:href="#DejaVuSans-78"/>
      <use xlink:href="#DejaVuSans-2c" x="59.179688"/>
      <use xlink:href="#DejaVuSans-79" x="90.966797"/>
      <use xlink:href="#DejaVuSans-2c" x="150.146484"/>
      <use xlink:href="#DejaVuSans-61" x="181.933594"/>
      <use xlink:href="#DejaVuSans-78" x="243.212891"/>
      <use xlink:href="#DejaVuSans-2c" x="302.392578"/>
      <use xlink:href="#DejaVuSans-61" x="334.179688"/>
      <use xlink:href="#DejaVuSans-79" x="395.458984"/>
      <use xlink:href="#DejaVuSans-3a" x="447.388672"/>
      <use xlink:href="#DejaVuSans-20" x="481.080078"/>
      <use xlink:href="#DejaVuSans-6d" x="512.867188"/>
      <use xlink:href="#DejaVuSans-61" x="610.279297"/>
      <use xlink:href="#DejaVuSans-73" x="671.558594"/>
      <use xlink:href="#DejaVuSans-74" x="723.658203"/>
      <use xlink:href="#DejaVuSans-65" x="762.867188"/>
      <use xlink:href="#DejaVuSans-72" x="824.390625"/>
      <use xlink:href="#DejaVuSans-20" x="865.503906"/>
      <use xlink:href="#DejaVuSans-2d" x="897.291016"/>
      <use xlink:href="#DejaVuSans-3e" x="933.375"/>
      <use xlink:href="#DejaVuSans-20" x="1017.164062"/>
      <use xlink:href="#DejaVuSans-62" x="1048.951172"/>
      <use xlink:href="#DejaVuSans-6c" x="1112.427734"/>
      <use xlink:href="#DejaVuSans-6f" x="1140.210938"/>
      <use xlink:href="#DejaVuSans-63" x="1201.392578"/>
      <use xlink:href="#DejaVuSans-6b" x="1256.373047"/>
     </g>
    </g>
    <g id="patch_15">
     <path d="M 719.536625 141.223438 
L 739.536625 141.223438 
L 739.536625 134.223438 
L 719.536625 134.223438 
z
" style="fill: #7f7f7f; stroke: #7f7f7f; stroke-linejoin: miter"/>
    </g>
    <g id="text_19">
     <!-- x,y: all -&gt; master/block -->
     <g transform="translate(747.536625 141.223438) scale(0.1 -0.1)">
      <use xlink:href="#DejaVuSans-78"/>
      <use xlink:href="#DejaVuSans-2c" x="59.179688"/>
      <use xlink:href="#DejaVuSans-79" x="90.966797"/>
      <use xlink:href="#DejaVuSans-3a" x="142.896484"/>
      <use xlink:href="#DejaVuSans-20" x="176.587891"/>
      <use xlink:href="#DejaVuSans-61" x="208.375"/>
      <use xlink:href="#DejaVuSans-6c" x="269.654297"/>
      <use xlink:href="#DejaVuSans-6c" x="297.4375"/>
      <use xlink:href="#DejaVuSans-20" x="325.220703"/>
      <use xlink:href="#DejaVuSans-2d" x="357.007812"/>
      <use xlink:href="#DejaVuSans-3e" x="393.091797"/>
      <use xlink:href="#DejaVuSans-20" x="476.880859"/>
      <use xlink:href="#DejaVuSans-6d" x="508.667969"/>
      <use xlink:href="#DejaVuSans-61" x="606.080078"/>
      <use xlink:href="#DejaVuSans-73" x="667.359375"/>
      <use xlink:href="#DejaVuSans-74" x="719.458984"/>
      <use xlink:href="#DejaVuSans-65" x="758.667969"/>
      <use xlink:href="#DejaVuSans-72" x="820.191406"/>
      <use xlink:href="#DejaVuSans-2f" x="861.304688"/>
      <use xlink:href="#DejaVuSans-62" x="894.996094"/>
      <use xlink:href="#DejaVuSans-6c" x="958.472656"/>
      <use xlink:href="#DejaVuSans-6f" x="986.255859"/>
      <use xlink:href="#DejaVuSans-63" x="1047.4375"/>
      <use xlink:href="#DejaVuSans-6b" x="1102.417969"/>
     </g>
    </g>
   </g>
   <g id="BrokenBarHCollection_1">
    <path d="M 34.25 81.757241 
L 34.25 113.04 
L 703.3125 113.04 
L 703.3125 81.757241 
L 34.25 81.757241 
z
" clip-path="url(#pd44c17d0fb)" style="fill: #2ca02c"/>
   </g>
   <g id="BrokenBarHCollection_2">
    <path d="M 37.0625 46.998621 
L 37.0625 78.281379 
L 703.5625 78.281379 
L 703.5625 46.998621 
L 37.0625 46.998621 
z
" clip-path="url(#pd44c17d0fb)" style="fill: #2ca02c"/>
   </g>
   <g id="BrokenBarHCollection_3">
    <path d="M 43.25 12.24 
L 43.25 43.522759 
L 703.875 43.522759 
L 703.875 12.24 
L 43.25 12.24 
z
" clip-path="url(#pd44c17d0fb)" style="fill: #2ca02c"/>
   </g>
   <g id="BrokenBarHCollection_4">
    <path d="M 94.0625 12.24 
L 94.0625 43.522759 
L 703.5625 43.522759 
L 703.5625 12.24 
L 94.0625 12.24 
z
" clip-path="url(#pd44c17d0fb)" style="fill: #ff7f0e"/>
   </g>
   <g id="BrokenBarHCollection_5">
    <path d="M 94.0625 12.24 
L 94.0625 43.522759 
L 98.625 43.522759 
L 98.625 12.24 
L 94.0625 12.24 
z
" clip-path="url(#pd44c17d0fb)" style="fill: #e377c2"/>
   </g>
   <g id="BrokenBarHCollection_6">
    <path d="M 94.3125 46.998621 
L 94.3125 78.281379 
L 703.3125 78.281379 
L 703.3125 46.998621 
L 94.3125 46.998621 
z
" clip-path="url(#pd44c17d0fb)" style="fill: #ff7f0e"/>
   </g>
   <g id="BrokenBarHCollection_7">
    <path d="M 94.3125 81.757241 
L 94.3125 113.04 
L 703.0625 113.04 
L 703.0625 81.757241 
L 94.3125 81.757241 
z
" clip-path="url(#pd44c17d0fb)" style="fill: #ff7f0e"/>
   </g>
   <g id="BrokenBarHCollection_8">
    <path d="M 94.3125 46.998621 
L 94.3125 78.281379 
L 98.625 78.281379 
L 98.625 46.998621 
L 94.3125 46.998621 
z
" clip-path="url(#pd44c17d0fb)" style="fill: #e377c2"/>
   </g>
   <g id="BrokenBarHCollection_9">
    <path d="M 94.3125 81.757241 
L 94.3125 113.04 
L 98.625 113.04 
L 98.625 81.757241 
L 94.3125 81.757241 
z
" clip-path="url(#pd44c17d0fb)" style="fill: #e377c2"/>
   </g>
   <g id="BrokenBarHCollection_10">
    <path d="M 99.6875 46.998621 
L 99.6875 78.281379 
L 114.375 78.281379 
L 114.375 46.998621 
L 99.6875 46.998621 
z
" clip-path="url(#pd44c17d0fb)" style="fill: #8c564b"/>
   </g>
   <g id="BrokenBarHCollection_11">
    <path d="M 99.9375 12.24 
L 99.9375 43.522759 
L 114.375 43.522759 
L 114.375 12.24 
L 99.9375 12.24 
z
" clip-path="url(#pd44c17d0fb)" style="fill: #8c564b"/>
   </g>
   <g id="BrokenBarHCollection_12">
    <path d="M 99.9375 81.757241 
L 99.9375 113.04 
L 114.375 113.04 
L 114.375 81.757241 
L 99.9375 81.757241 
z
" clip-path="url(#pd44c17d0fb)" style="fill: #8c564b"/>
   </g>
   <g id="BrokenBarHCollection_13">
    <path d="M 114.375 12.24 
L 114.375 43.522759 
L 115.4375 43.522759 
L 115.4375 12.24 
L 114.375 12.24 
z
" clip-path="url(#pd44c17d0fb)" style="fill: #d62728"/>
   </g>
   <g id="BrokenBarHCollection_14">
    <path d="M 114.375 46.998621 
L 114.375 78.281379 
L 114.9375 78.281379 
L 114.9375 46.998621 
L 114.375 46.998621 
z
" clip-path="url(#pd44c17d0fb)" style="fill: #d62728"/>
   </g>
   <g id="BrokenBarHCollection_15">
    <path d="M 114.375 81.757241 
L 114.375 113.04 
L 114.9375 113.04 
L 114.9375 81.757241 
L 114.375 81.757241 
z
" clip-path="url(#pd44c17d0fb)" style="fill: #d62728"/>
   </g>
   <g id="BrokenBarHCollection_16">
    <path d="M 114.9375 81.757241 
L 114.9375 113.04 
L 126.5 113.04 
L 126.5 81.757241 
L 114.9375 81.757241 
z
" clip-path="url(#pd44c17d0fb)" style="fill: #9467bd"/>
   </g>
   <g id="BrokenBarHCollection_17">
    <path d="M 114.9375 46.998621 
L 114.9375 78.281379 
L 126.25 78.281379 
L 126.25 46.998621 
L 114.9375 46.998621 
z
" clip-path="url(#pd44c17d0fb)" style="fill: #9467bd"/>
   </g>
   <g id="BrokenBarHCollection_18">
    <path d="M 119.3125 12.24 
L 119.3125 43.522759 
L 126.5 43.522759 
L 126.5 12.24 
L 119.3125 12.24 
z
" clip-path="url(#pd44c17d0fb)" style="fill: #9467bd"/>
   </g>
   <g id="BrokenBarHCollection_19">
    <path d="M 143.75 81.757241 
L 143.75 113.04 
L 231.6875 113.04 
L 231.6875 81.757241 
L 143.75 81.757241 
z
" clip-path="url(#pd44c17d0fb)" style="fill: #1f77b4"/>
   </g>
   <g id="BrokenBarHCollection_20">
    <path d="M 178.3125 12.24 
L 178.3125 43.522759 
L 231.6875 43.522759 
L 231.6875 12.24 
L 178.3125 12.24 
z
" clip-path="url(#pd44c17d0fb)" style="fill: #1f77b4"/>
   </g>
   <g id="BrokenBarHCollection_21">
    <path d="M 224.1875 46.998621 
L 224.1875 78.281379 
L 231.6875 78.281379 
L 231.6875 46.998621 
L 224.1875 46.998621 
z
" clip-path="url(#pd44c17d0fb)" style="fill: #1f77b4"/>
   </g>
   <g id="BrokenBarHCollection_22">
    <path d="M 231.6875 12.24 
L 231.6875 43.522759 
L 235.25 43.522759 
L 235.25 12.24 
L 231.6875 12.24 
z
" clip-path="url(#pd44c17d0fb)" style="fill: #7f7f7f"/>
   </g>
   <g id="BrokenBarHCollection_23">
    <path d="M 231.6875 46.998621 
L 231.6875 78.281379 
L 235.25 78.281379 
L 235.25 46.998621 
L 231.6875 46.998621 
z
" clip-path="url(#pd44c17d0fb)" style="fill: #7f7f7f"/>
   </g>
   <g id="BrokenBarHCollection_24">
    <path d="M 231.9375 81.757241 
L 231.9375 113.04 
L 235 113.04 
L 235 81.757241 
L 231.9375 81.757241 
z
" clip-path="url(#pd44c17d0fb)" style="fill: #7f7f7f"/>
   </g>
   <g id="BrokenBarHCollection_25">
    <path d="M 237.8125 46.998621 
L 237.8125 78.281379 
L 241.4375 78.281379 
L 241.4375 46.998621 
L 237.8125 46.998621 
z
" clip-path="url(#pd44c17d0fb)" style="fill: #e377c2"/>
   </g>
   <g id="BrokenBarHCollection_26">
    <path d="M 237.8125 81.757241 
L 237.8125 113.04 
L 241.4375 113.04 
L 241.4375 81.757241 
L 237.8125 81.757241 
z
" clip-path="url(#pd44c17d0fb)" style="fill: #e377c2"/>
   </g>
   <g id="BrokenBarHCollection_27">
    <path d="M 238.625 12.24 
L 238.625 43.522759 
L 241.4375 43.522759 
L 241.4375 12.24 
L 238.625 12.24 
z
" clip-path="url(#pd44c17d0fb)" style="fill: #e377c2"/>
   </g>
   <g id="BrokenBarHCollection_28">
    <path d="M 242.5 12.24 
L 242.5 43.522759 
L 252 43.522759 
L 252 12.24 
L 242.5 12.24 
z
" clip-path="url(#pd44c17d0fb)" style="fill: #8c564b"/>
   </g>
   <g id="BrokenBarHCollection_29">
    <path d="M 242.5 46.998621 
L 242.5 78.281379 
L 252 78.281379 
L 252 46.998621 
L 242.5 46.998621 
z
" clip-path="url(#pd44c17d0fb)" style="fill: #8c564b"/>
   </g>
   <g id="BrokenBarHCollection_30">
    <path d="M 242.5 81.757241 
L 242.5 113.04 
L 252 113.04 
L 252 81.757241 
L 242.5 81.757241 
z
" clip-path="url(#pd44c17d0fb)" style="fill: #8c564b"/>
   </g>
   <g id="BrokenBarHCollection_31">
    <path d="M 252 12.24 
L 252 43.522759 
L 252.5 43.522759 
L 252.5 12.24 
L 252 12.24 
z
" clip-path="url(#pd44c17d0fb)" style="fill: #d62728"/>
   </g>
   <g id="BrokenBarHCollection_32">
    <path d="M 252 46.998621 
L 252 78.281379 
L 252.25 78.281379 
L 252.25 46.998621 
L 252 46.998621 
z
" clip-path="url(#pd44c17d0fb)" style="fill: #d62728"/>
   </g>
   <g id="BrokenBarHCollection_33">
    <path d="M 252 81.757241 
L 252 113.04 
L 252.25 113.04 
L 252.25 81.757241 
L 252 81.757241 
z
" clip-path="url(#pd44c17d0fb)" style="fill: #d62728"/>
   </g>
   <g id="BrokenBarHCollection_34">
    <path d="M 252.25 81.757241 
L 252.25 113.04 
L 259.1875 113.04 
L 259.1875 81.757241 
L 252.25 81.757241 
z
" clip-path="url(#pd44c17d0fb)" style="fill: #9467bd"/>
   </g>
   <g id="BrokenBarHCollection_35">
    <path d="M 252.25 46.998621 
L 252.25 78.281379 
L 258.9375 78.281379 
L 258.9375 46.998621 
L 252.25 46.998621 
z
" clip-path="url(#pd44c17d0fb)" style="fill: #9467bd"/>
   </g>
   <g id="BrokenBarHCollection_36">
    <path d="M 255.0625 12.24 
L 255.0625 43.522759 
L 259.1875 43.522759 
L 259.1875 12.24 
L 255.0625 12.24 
z
" clip-path="url(#pd44c17d0fb)" style="fill: #9467bd"/>
   </g>
   <g id="BrokenBarHCollection_37">
    <path d="M 273.1875 81.757241 
L 273.1875 113.04 
L 355.125 113.04 
L 355.125 81.757241 
L 273.1875 81.757241 
z
" clip-path="url(#pd44c17d0fb)" style="fill: #1f77b4"/>
   </g>
   <g id="BrokenBarHCollection_38">
    <path d="M 304.625 12.24 
L 304.625 43.522759 
L 355.125 43.522759 
L 355.125 12.24 
L 304.625 12.24 
z
" clip-path="url(#pd44c17d0fb)" style="fill: #1f77b4"/>
   </g>
   <g id="BrokenBarHCollection_39">
    <path d="M 351.25 46.998621 
L 351.25 78.281379 
L 354.875 78.281379 
L 354.875 46.998621 
L 351.25 46.998621 
z
" clip-path="url(#pd44c17d0fb)" style="fill: #1f77b4"/>
   </g>
   <g id="BrokenBarHCollection_40">
    <path d="M 354.875 46.998621 
L 354.875 78.281379 
L 357.9375 78.281379 
L 357.9375 46.998621 
L 354.875 46.998621 
z
" clip-path="url(#pd44c17d0fb)" style="fill: #7f7f7f"/>
   </g>
   <g id="BrokenBarHCollection_41">
    <path d="M 355.125 12.24 
L 355.125 43.522759 
L 357.9375 43.522759 
L 357.9375 12.24 
L 355.125 12.24 
z
" clip-path="url(#pd44c17d0fb)" style="fill: #7f7f7f"/>
   </g>
   <g id="BrokenBarHCollection_42">
    <path d="M 355.125 81.757241 
L 355.125 113.04 
L 357.6875 113.04 
L 357.6875 81.757241 
L 355.125 81.757241 
z
" clip-path="url(#pd44c17d0fb)" style="fill: #7f7f7f"/>
   </g>
   <g id="BrokenBarHCollection_43">
    <path d="M 358.1875 81.757241 
L 358.1875 113.04 
L 361.25 113.04 
L 361.25 81.757241 
L 358.1875 81.757241 
z
" clip-path="url(#pd44c17d0fb)" style="fill: #e377c2"/>
   </g>
   <g id="BrokenBarHCollection_44">
    <path d="M 358.4375 12.24 
L 358.4375 43.522759 
L 361.5625 43.522759 
L 361.5625 12.24 
L 358.4375 12.24 
z
" clip-path="url(#pd44c17d0fb)" style="fill: #e377c2"/>
   </g>
   <g id="BrokenBarHCollection_45">
    <path d="M 358.4375 46.998621 
L 358.4375 78.281379 
L 361.25 78.281379 
L 361.25 46.998621 
L 358.4375 46.998621 
z
" clip-path="url(#pd44c17d0fb)" style="fill: #e377c2"/>
   </g>
   <g id="BrokenBarHCollection_46">
    <path d="M 362.3125 12.24 
L 362.3125 43.522759 
L 369 43.522759 
L 369 12.24 
L 362.3125 12.24 
z
" clip-path="url(#pd44c17d0fb)" style="fill: #8c564b"/>
   </g>
   <g id="BrokenBarHCollection_47">
    <path d="M 362.3125 46.998621 
L 362.3125 78.281379 
L 369 78.281379 
L 369 46.998621 
L 362.3125 46.998621 
z
" clip-path="url(#pd44c17d0fb)" style="fill: #8c564b"/>
   </g>
   <g id="BrokenBarHCollection_48">
    <path d="M 362.3125 81.757241 
L 362.3125 113.04 
L 369 113.04 
L 369 81.757241 
L 362.3125 81.757241 
z
" clip-path="url(#pd44c17d0fb)" style="fill: #8c564b"/>
   </g>
   <g id="BrokenBarHCollection_49">
    <path d="M 369 12.24 
L 369 43.522759 
L 369.25 43.522759 
L 369.25 12.24 
L 369 12.24 
z
" clip-path="url(#pd44c17d0fb)" style="fill: #d62728"/>
   </g>
   <g id="BrokenBarHCollection_50">
    <path d="M 369 46.998621 
L 369 78.281379 
L 369.25 78.281379 
L 369.25 46.998621 
L 369 46.998621 
z
" clip-path="url(#pd44c17d0fb)" style="fill: #d62728"/>
   </g>
   <g id="BrokenBarHCollection_51">
    <path d="M 369 81.757241 
L 369 113.04 
L 369.25 113.04 
L 369.25 81.757241 
L 369 81.757241 
z
" clip-path="url(#pd44c17d0fb)" style="fill: #d62728"/>
   </g>
   <g id="BrokenBarHCollection_52">
    <path d="M 369.25 46.998621 
L 369.25 78.281379 
L 375.6875 78.281379 
L 375.6875 46.998621 
L 369.25 46.998621 
z
" clip-path="url(#pd44c17d0fb)" style="fill: #9467bd"/>
   </g>
   <g id="BrokenBarHCollection_53">
    <path d="M 369.25 81.757241 
L 369.25 113.04 
L 375.6875 113.04 
L 375.6875 81.757241 
L 369.25 81.757241 
z
" clip-path="url(#pd44c17d0fb)" style="fill: #9467bd"/>
   </g>
   <g id="BrokenBarHCollection_54">
    <path d="M 371.8125 12.24 
L 371.8125 43.522759 
L 375.6875 43.522759 
L 375.6875 12.24 
L 371.8125 12.24 
z
" clip-path="url(#pd44c17d0fb)" style="fill: #9467bd"/>
   </g>
   <g id="BrokenBarHCollection_55">
    <path d="M 388.375 81.757241 
L 388.375 113.04 
L 474.4375 113.04 
L 474.4375 81.757241 
L 388.375 81.757241 
z
" clip-path="url(#pd44c17d0fb)" style="fill: #1f77b4"/>
   </g>
   <g id="BrokenBarHCollection_56">
    <path d="M 419.0625 12.24 
L 419.0625 43.522759 
L 474.4375 43.522759 
L 474.4375 12.24 
L 419.0625 12.24 
z
" clip-path="url(#pd44c17d0fb)" style="fill: #1f77b4"/>
   </g>
   <g id="BrokenBarHCollection_57">
    <path d="M 465.9375 46.998621 
L 465.9375 78.281379 
L 474.1875 78.281379 
L 474.1875 46.998621 
L 465.9375 46.998621 
z
" clip-path="url(#pd44c17d0fb)" style="fill: #1f77b4"/>
   </g>
   <g id="BrokenBarHCollection_58">
    <path d="M 474.1875 46.998621 
L 474.1875 78.281379 
L 477.0625 78.281379 
L 477.0625 46.998621 
L 474.1875 46.998621 
z
" clip-path="url(#pd44c17d0fb)" style="fill: #7f7f7f"/>
   </g>
   <g id="BrokenBarHCollection_59">
    <path d="M 474.4375 12.24 
L 474.4375 43.522759 
L 477.0625 43.522759 
L 477.0625 12.24 
L 474.4375 12.24 
z
" clip-path="url(#pd44c17d0fb)" style="fill: #7f7f7f"/>
   </g>
   <g id="BrokenBarHCollection_60">
    <path d="M 474.4375 81.757241 
L 474.4375 113.04 
L 476.75 113.04 
L 476.75 81.757241 
L 474.4375 81.757241 
z
" clip-path="url(#pd44c17d0fb)" style="fill: #7f7f7f"/>
   </g>
   <g id="BrokenBarHCollection_61">
    <path d="M 477.3125 81.757241 
L 477.3125 113.04 
L 480.625 113.04 
L 480.625 81.757241 
L 477.3125 81.757241 
z
" clip-path="url(#pd44c17d0fb)" style="fill: #e377c2"/>
   </g>
   <g id="BrokenBarHCollection_62">
    <path d="M 477.5625 12.24 
L 477.5625 43.522759 
L 480.375 43.522759 
L 480.375 12.24 
L 477.5625 12.24 
z
" clip-path="url(#pd44c17d0fb)" style="fill: #e377c2"/>
   </g>
   <g id="BrokenBarHCollection_63">
    <path d="M 477.5625 46.998621 
L 477.5625 78.281379 
L 480.375 78.281379 
L 480.375 46.998621 
L 477.5625 46.998621 
z
" clip-path="url(#pd44c17d0fb)" style="fill: #e377c2"/>
   </g>
   <g id="BrokenBarHCollection_64">
    <path d="M 481.375 12.24 
L 481.375 43.522759 
L 489.375 43.522759 
L 489.375 12.24 
L 481.375 12.24 
z
" clip-path="url(#pd44c17d0fb)" style="fill: #8c564b"/>
   </g>
   <g id="BrokenBarHCollection_65">
    <path d="M 481.375 46.998621 
L 481.375 78.281379 
L 489.375 78.281379 
L 489.375 46.998621 
L 481.375 46.998621 
z
" clip-path="url(#pd44c17d0fb)" style="fill: #8c564b"/>
   </g>
   <g id="BrokenBarHCollection_66">
    <path d="M 481.625 81.757241 
L 481.625 113.04 
L 489.375 113.04 
L 489.375 81.757241 
L 481.625 81.757241 
z
" clip-path="url(#pd44c17d0fb)" style="fill: #8c564b"/>
   </g>
   <g id="BrokenBarHCollection_67">
    <path d="M 489.375 12.24 
L 489.375 43.522759 
L 489.625 43.522759 
L 489.625 12.24 
L 489.375 12.24 
z
" clip-path="url(#pd44c17d0fb)" style="fill: #d62728"/>
   </g>
   <g id="BrokenBarHCollection_68">
    <path d="M 489.375 46.998621 
L 489.375 78.281379 
L 489.625 78.281379 
L 489.625 46.998621 
L 489.375 46.998621 
z
" clip-path="url(#pd44c17d0fb)" style="fill: #d62728"/>
   </g>
   <g id="BrokenBarHCollection_69">
    <path d="M 489.375 81.757241 
L 489.375 113.04 
L 489.625 113.04 
L 489.625 81.757241 
L 489.375 81.757241 
z
" clip-path="url(#pd44c17d0fb)" style="fill: #d62728"/>
   </g>
   <g id="BrokenBarHCollection_70">
    <path d="M 489.625 46.998621 
L 489.625 78.281379 
L 496.3125 78.281379 
L 496.3125 46.998621 
L 489.625 46.998621 
z
" clip-path="url(#pd44c17d0fb)" style="fill: #9467bd"/>
   </g>
   <g id="BrokenBarHCollection_71">
    <path d="M 489.625 81.757241 
L 489.625 113.04 
L 496.3125 113.04 
L 496.3125 81.757241 
L 489.625 81.757241 
z
" clip-path="url(#pd44c17d0fb)" style="fill: #9467bd"/>
   </g>
   <g id="BrokenBarHCollection_72">
    <path d="M 492.25 12.24 
L 492.25 43.522759 
L 496.3125 43.522759 
L 496.3125 12.24 
L 492.25 12.24 
z
" clip-path="url(#pd44c17d0fb)" style="fill: #9467bd"/>
   </g>
   <g id="BrokenBarHCollection_73">
    <path d="M 512.5625 81.757241 
L 512.5625 113.04 
L 589.6875 113.04 
L 589.6875 81.757241 
L 512.5625 81.757241 
z
" clip-path="url(#pd44c17d0fb)" style="fill: #1f77b4"/>
   </g>
   <g id="BrokenBarHCollection_74">
    <path d="M 537.5625 12.24 
L 537.5625 43.522759 
L 589.6875 43.522759 
L 589.6875 12.24 
L 537.5625 12.24 
z
" clip-path="url(#pd44c17d0fb)" style="fill: #1f77b4"/>
   </g>
   <g id="BrokenBarHCollection_75">
    <path d="M 584.5 46.998621 
L 584.5 78.281379 
L 589.6875 78.281379 
L 589.6875 46.998621 
L 584.5 46.998621 
z
" clip-path="url(#pd44c17d0fb)" style="fill: #1f77b4"/>
   </g>
   <g id="BrokenBarHCollection_76">
    <path d="M 589.6875 12.24 
L 589.6875 43.522759 
L 592.75 43.522759 
L 592.75 12.24 
L 589.6875 12.24 
z
" clip-path="url(#pd44c17d0fb)" style="fill: #7f7f7f"/>
   </g>
   <g id="BrokenBarHCollection_77">
    <path d="M 589.6875 46.998621 
L 589.6875 78.281379 
L 592.75 78.281379 
L 592.75 46.998621 
L 589.6875 46.998621 
z
" clip-path="url(#pd44c17d0fb)" style="fill: #7f7f7f"/>
   </g>
   <g id="BrokenBarHCollection_78">
    <path d="M 589.9375 81.757241 
L 589.9375 113.04 
L 592.5 113.04 
L 592.5 81.757241 
L 589.9375 81.757241 
z
" clip-path="url(#pd44c17d0fb)" style="fill: #7f7f7f"/>
   </g>
   <g id="BrokenBarHCollection_79">
    <path d="M 592.75 81.757241 
L 592.75 113.04 
L 595.8125 113.04 
L 595.8125 81.757241 
L 592.75 81.757241 
z
" clip-path="url(#pd44c17d0fb)" style="fill: #e377c2"/>
   </g>
   <g id="BrokenBarHCollection_80">
    <path d="M 593 12.24 
L 593 43.522759 
L 595.8125 43.522759 
L 595.8125 12.24 
L 593 12.24 
z
" clip-path="url(#pd44c17d0fb)" style="fill: #e377c2"/>
   </g>
   <g id="BrokenBarHCollection_81">
    <path d="M 593 46.998621 
L 593 78.281379 
L 595.5625 78.281379 
L 595.5625 46.998621 
L 593 46.998621 
z
" clip-path="url(#pd44c17d0fb)" style="fill: #e377c2"/>
   </g>
   <g id="BrokenBarHCollection_82">
    <path d="M 596.625 46.998621 
L 596.625 78.281379 
L 603.3125 78.281379 
L 603.3125 46.998621 
L 596.625 46.998621 
z
" clip-path="url(#pd44c17d0fb)" style="fill: #8c564b"/>
   </g>
   <g id="BrokenBarHCollection_83">
    <path d="M 596.875 12.24 
L 596.875 43.522759 
L 603.3125 43.522759 
L 603.3125 12.24 
L 596.875 12.24 
z
" clip-path="url(#pd44c17d0fb)" style="fill: #8c564b"/>
   </g>
   <g id="BrokenBarHCollection_84">
    <path d="M 596.875 81.757241 
L 596.875 113.04 
L 603.3125 113.04 
L 603.3125 81.757241 
L 596.875 81.757241 
z
" clip-path="url(#pd44c17d0fb)" style="fill: #8c564b"/>
   </g>
   <g id="BrokenBarHCollection_85">
    <path d="M 603.3125 12.24 
L 603.3125 43.522759 
L 603.8125 43.522759 
L 603.8125 12.24 
L 603.3125 12.24 
z
" clip-path="url(#pd44c17d0fb)" style="fill: #d62728"/>
   </g>
   <g id="BrokenBarHCollection_86">
    <path d="M 603.3125 46.998621 
L 603.3125 78.281379 
L 603.5625 78.281379 
L 603.5625 46.998621 
L 603.3125 46.998621 
z
" clip-path="url(#pd44c17d0fb)" style="fill: #d62728"/>
   </g>
   <g id="BrokenBarHCollection_87">
    <path d="M 603.3125 81.757241 
L 603.3125 113.04 
L 603.5625 113.04 
L 603.5625 81.757241 
L 603.3125 81.757241 
z
" clip-path="url(#pd44c17d0fb)" style="fill: #d62728"/>
   </g>
   <g id="BrokenBarHCollection_88">
    <path d="M 603.5625 46.998621 
L 603.5625 78.281379 
L 610 78.281379 
L 610 46.998621 
L 603.5625 46.998621 
z
" clip-path="url(#pd44c17d0fb)" style="fill: #9467bd"/>
   </g>
   <g id="BrokenBarHCollection_89">
    <path d="M 603.5625 81.757241 
L 603.5625 113.04 
L 610 113.04 
L 610 81.757241 
L 603.5625 81.757241 
z
" clip-path="url(#pd44c17d0fb)" style="fill: #9467bd"/>
   </g>
   <g id="BrokenBarHCollection_90">
    <path d="M 606.125 12.24 
L 606.125 43.522759 
L 610 43.522759 
L 610 12.24 
L 606.125 12.24 
z
" clip-path="url(#pd44c17d0fb)" style="fill: #9467bd"/>
   </g>
   <g id="BrokenBarHCollection_91">
    <path d="M 623.4375 81.757241 
L 623.4375 113.04 
L 700.6875 113.04 
L 700.6875 81.757241 
L 623.4375 81.757241 
z
" clip-path="url(#pd44c17d0fb)" style="fill: #1f77b4"/>
   </g>
   <g id="BrokenBarHCollection_92">
    <path d="M 652.0625 12.24 
L 652.0625 43.522759 
L 700.6875 43.522759 
L 700.6875 12.24 
L 652.0625 12.24 
z
" clip-path="url(#pd44c17d0fb)" style="fill: #1f77b4"/>
   </g>
   <g id="BrokenBarHCollection_93">
    <path d="M 696.8125 46.998621 
L 696.8125 78.281379 
L 700.4375 78.281379 
L 700.4375 46.998621 
L 696.8125 46.998621 
z
" clip-path="url(#pd44c17d0fb)" style="fill: #1f77b4"/>
   </g>
   <g id="BrokenBarHCollection_94">
    <path d="M 700.4375 46.998621 
L 700.4375 78.281379 
L 703.0625 78.281379 
L 703.0625 46.998621 
L 700.4375 46.998621 
z
" clip-path="url(#pd44c17d0fb)" style="fill: #7f7f7f"/>
   </g>
   <g id="BrokenBarHCollection_95">
    <path d="M 700.6875 12.24 
L 700.6875 43.522759 
L 703.0625 43.522759 
L 703.0625 12.24 
L 700.6875 12.24 
z
" clip-path="url(#pd44c17d0fb)" style="fill: #7f7f7f"/>
   </g>
   <g id="BrokenBarHCollection_96">
    <path d="M 700.6875 81.757241 
L 700.6875 113.04 
L 702.8125 113.04 
L 702.8125 81.757241 
L 700.6875 81.757241 
z
" clip-path="url(#pd44c17d0fb)" style="fill: #7f7f7f"/>
   </g>
  </g>
 </g>
 <defs>
  <clipPath id="pd44c17d0fb">
   <rect x="34.240625" y="7.2" width="669.6" height="110.88"/>
  </clipPath>
 </defs>
</svg>
