<?xml version="1.0" encoding="utf-8" standalone="no"?>
<!DOCTYPE svg PUBLIC "-//W3C//DTD SVG 1.1//EN"
  "http://www.w3.org/Graphics/SVG/1.1/DTD/svg11.dtd">
<svg xmlns:xlink="http://www.w3.org/1999/xlink" width="904.781937pt" height="155.63625pt" viewBox="0 0 904.781937 155.63625" xmlns="http://www.w3.org/2000/svg" version="1.1">
 <metadata>
  <rdf:RDF xmlns:dc="http://purl.org/dc/elements/1.1/" xmlns:cc="http://creativecommons.org/ns#" xmlns:rdf="http://www.w3.org/1999/02/22-rdf-syntax-ns#">
   <cc:Work>
    <dc:type rdf:resource="http://purl.org/dc/dcmitype/StillImage"/>
    <dc:date>2025-09-06T21:09:15.269629</dc:date>
    <dc:format>image/svg+xml</dc:format>
    <dc:creator>
     <cc:Agent>
      <dc:title>Matplotlib v3.6.3, https://matplotlib.org/</dc:title>
     </cc:Agent>
    </dc:creator>
   </cc:Work>
  </rdf:RDF>
 </metadata>
 <defs>
  <style type="text/css">*{stroke-linejoin: round; stroke-linecap: butt}</style>
 </defs>
 <g id="figure_1">
  <g id="patch_1">
   <path d="M 0 155.63625 
L 904.781937 155.63625 
L 904.781937 0 
L 0 0 
z
" style="fill: #ffffff"/>
  </g>
  <g id="axes_1">
   <g id="patch_2">
    <path d="M 34.240625 118.08 
L 703.840625 118.08 
L 703.840625 7.2 
L 34.240625 7.2 
z
" style="fill: #ffffff"/>
   </g>
   <g id="matplotlib.axis_1">
    <g id="xtick_1">
     <g id="line2d_1">
      <defs>
       <path id="mfeeb8e56d1" d="M 0 0 
L 0 3.5 
" style="stroke: #000000; stroke-width: 0.8"/>
      </defs>
      <g>
       <use xlink:href="#mfeeb8e56d1" x="84.175781" y="118.08" style="stroke: #000000; stroke-width: 0.8"/>
      </g>
     </g>
     <g id="text_1">
      <!-- 0 -->
      <g transform="translate(80.994531 132.678438) scale(0.1 -0.1)">
       <defs>
        <path id="DejaVuSans-30" d="M 2034 4250 
Q 1547 4250 1301 3770 
Q 1056 3291 1056 2328 
Q 1056 1369 1301 889 
Q 1547 409 2034 409 
Q 2525 409 2770 889 
Q 3016 1369 3016 2328 
Q 3016 3291 2770 3770 
Q 2525 4250 2034 4250 
z
M 2034 4750 
Q 2819 4750 3233 4129 
Q 3647 3509 3647 2328 
Q 3647 1150 3233 529 
Q 2819 -91 2034 -91 
Q 1250 -91 836 529 
Q 422 1150 422 2328 
Q 422 3509 836 4129 
Q 1250 4750 2034 4750 
z
" transform="scale(0.015625)"/>
       </defs>
       <use xlink:href="#DejaVuSans-30"/>
      </g>
     </g>
    </g>
    <g id="xtick_2">
     <g id="line2d_2">
      <g>
       <use xlink:href="#mfeeb8e56d1" x="194.480469" y="118.08" style="stroke: #000000; stroke-width: 0.8"/>
      </g>
     </g>
     <g id="text_2">
      <!-- 0 -->
      <g transform="translate(191.299219 132.678438) scale(0.1 -0.1)">
       <use xlink:href="#DejaVuSans-30"/>
      </g>
     </g>
    </g>
    <g id="xtick_3">
     <g id="line2d_3">
      <g>
       <use xlink:href="#mfeeb8e56d1" x="304.785156" y="118.08" style="stroke: #000000; stroke-width: 0.8"/>
      </g>
     </g>
     <g id="text_3">
      <!-- 0 -->
      <g transform="translate(301.603906 132.678438) scale(0.1 -0.1)">
       <use xlink:href="#DejaVuSans-30"/>
      </g>
     </g>
    </g>
    <g id="xtick_4">
     <g id="line2d_4">
      <g>
       <use xlink:href="#mfeeb8e56d1" x="415.089844" y="118.08" style="stroke: #000000; stroke-width: 0.8"/>
      </g>
     </g>
     <g id="text_4">
      <!-- 0 -->
      <g transform="translate(411.908594 132.678438) scale(0.1 -0.1)">
       <use xlink:href="#DejaVuSans-30"/>
      </g>
     </g>
    </g>
    <g id="xtick_5">
     <g id="line2d_5">
      <g>
       <use xlink:href="#mfeeb8e56d1" x="525.394531" y="118.08" style="stroke: #000000; stroke-width: 0.8"/>
      </g>
     </g>
     <g id="text_5">
      <!-- 0 -->
      <g transform="translate(522.213281 132.678438) scale(0.1 -0.1)">
       <use xlink:href="#DejaVuSans-30"/>
      </g>
     </g>
    </g>
    <g id="xtick_6">
     <g id="line2d_6">
      <g>
       <use xlink:href="#mfeeb8e56d1" x="635.699219" y="118.08" style="stroke: #000000; stroke-width: 0.8"/>
      </g>
     </g>
     <g id="text_6">
      <!-- 0 -->
      <g transform="translate(632.517969 132.678438) scale(0.1 -0.1)">
       <use xlink:href="#DejaVuSans-30"/>
      </g>
     </g>
    </g>
    <g id="text_7">
     <!-- Time Offset (s) -->
     <g transform="translate(332.025 146.356562) scale(0.1 -0.1)">
      <defs>
       <path id="DejaVuSans-54" d="M -19 4666 
L 3928 4666 
L 3928 4134 
L 2272 4134 
L 2272 0 
L 1638 0 
L 1638 4134 
L -19 4134 
L -19 4666 
z
" transform="scale(0.015625)"/>
       <path id="DejaVuSans-69" d="M 603 3500 
L 1178 3500 
L 1178 0 
L 603 0 
L 603 3500 
z
M 603 4863 
L 1178 4863 
L 1178 4134 
L 603 4134 
L 603 4863 
z
" transform="scale(0.015625)"/>
       <path id="DejaVuSans-6d" d="M 3328 2828 
Q 3544 3216 3844 3400 
Q 4144 3584 4550 3584 
Q 5097 3584 5394 3201 
Q 5691 2819 5691 2113 
L 5691 0 
L 5113 0 
L 5113 2094 
Q 5113 2597 4934 2840 
Q 4756 3084 4391 3084 
Q 3944 3084 3684 2787 
Q 3425 2491 3425 1978 
L 3425 0 
L 2847 0 
L 2847 2094 
Q 2847 2600 2669 2842 
Q 2491 3084 2119 3084 
Q 1678 3084 1418 2786 
Q 1159 2488 1159 1978 
L 1159 0 
L 581 0 
L 581 3500 
L 1159 3500 
L 1159 2956 
Q 1356 3278 1631 3431 
Q 1906 3584 2284 3584 
Q 2666 3584 2933 3390 
Q 3200 3197 3328 2828 
z
" transform="scale(0.015625)"/>
       <path id="DejaVuSans-65" d="M 3597 1894 
L 3597 1613 
L 953 1613 
Q 991 1019 1311 708 
Q 1631 397 2203 397 
Q 2534 397 2845 478 
Q 3156 559 3463 722 
L 3463 178 
Q 3153 47 2828 -22 
Q 2503 -91 2169 -91 
Q 1331 -91 842 396 
Q 353 884 353 1716 
Q 353 2575 817 3079 
Q 1281 3584 2069 3584 
Q 2775 3584 3186 3129 
Q 3597 2675 3597 1894 
z
M 3022 2063 
Q 3016 2534 2758 2815 
Q 2500 3097 2075 3097 
Q 1594 3097 1305 2825 
Q 1016 2553 972 2059 
L 3022 2063 
z
" transform="scale(0.015625)"/>
       <path id="DejaVuSans-20" transform="scale(0.015625)"/>
       <path id="DejaVuSans-4f" d="M 2522 4238 
Q 1834 4238 1429 3725 
Q 1025 3213 1025 2328 
Q 1025 1447 1429 934 
Q 1834 422 2522 422 
Q 3209 422 3611 934 
Q 4013 1447 4013 2328 
Q 4013 3213 3611 3725 
Q 3209 4238 2522 4238 
z
M 2522 4750 
Q 3503 4750 4090 4092 
Q 4678 3434 4678 2328 
Q 4678 1225 4090 567 
Q 3503 -91 2522 -91 
Q 1538 -91 948 565 
Q 359 1222 359 2328 
Q 359 3434 948 4092 
Q 1538 4750 2522 4750 
z
" transform="scale(0.015625)"/>
       <path id="DejaVuSans-66" d="M 2375 4863 
L 2375 4384 
L 1825 4384 
Q 1516 4384 1395 4259 
Q 1275 4134 1275 3809 
L 1275 3500 
L 2222 3500 
L 2222 3053 
L 1275 3053 
L 1275 0 
L 697 0 
L 697 3053 
L 147 3053 
L 147 3500 
L 697 3500 
L 697 3744 
Q 697 4328 969 4595 
Q 1241 4863 1831 4863 
L 2375 4863 
z
" transform="scale(0.015625)"/>
       <path id="DejaVuSans-73" d="M 2834 3397 
L 2834 2853 
Q 2591 2978 2328 3040 
Q 2066 3103 1784 3103 
Q 1356 3103 1142 2972 
Q 928 2841 928 2578 
Q 928 2378 1081 2264 
Q 1234 2150 1697 2047 
L 1894 2003 
Q 2506 1872 2764 1633 
Q 3022 1394 3022 966 
Q 3022 478 2636 193 
Q 2250 -91 1575 -91 
Q 1294 -91 989 -36 
Q 684 19 347 128 
L 347 722 
Q 666 556 975 473 
Q 1284 391 1588 391 
Q 1994 391 2212 530 
Q 2431 669 2431 922 
Q 2431 1156 2273 1281 
Q 2116 1406 1581 1522 
L 1381 1569 
Q 847 1681 609 1914 
Q 372 2147 372 2553 
Q 372 3047 722 3315 
Q 1072 3584 1716 3584 
Q 2034 3584 2315 3537 
Q 2597 3491 2834 3397 
z
" transform="scale(0.015625)"/>
       <path id="DejaVuSans-74" d="M 1172 4494 
L 1172 3500 
L 2356 3500 
L 2356 3053 
L 1172 3053 
L 1172 1153 
Q 1172 725 1289 603 
Q 1406 481 1766 481 
L 2356 481 
L 2356 0 
L 1766 0 
Q 1100 0 847 248 
Q 594 497 594 1153 
L 594 3053 
L 172 3053 
L 172 3500 
L 594 3500 
L 594 4494 
L 1172 4494 
z
" transform="scale(0.015625)"/>
       <path id="DejaVuSans-28" d="M 1984 4856 
Q 1566 4138 1362 3434 
Q 1159 2731 1159 2009 
Q 1159 1288 1364 580 
Q 1569 -128 1984 -844 
L 1484 -844 
Q 1016 -109 783 600 
Q 550 1309 550 2009 
Q 550 2706 781 3412 
Q 1013 4119 1484 4856 
L 1984 4856 
z
" transform="scale(0.015625)"/>
       <path id="DejaVuSans-29" d="M 513 4856 
L 1013 4856 
Q 1481 4119 1714 3412 
Q 1947 2706 1947 2009 
Q 1947 1309 1714 600 
Q 1481 -109 1013 -844 
L 513 -844 
Q 928 -128 1133 580 
Q 1338 1288 1338 2009 
Q 1338 2731 1133 3434 
Q 928 4138 513 4856 
z
" transform="scale(0.015625)"/>
      </defs>
      <use xlink:href="#DejaVuSans-54"/>
      <use xlink:href="#DejaVuSans-69" x="57.958984"/>
      <use xlink:href="#DejaVuSans-6d" x="85.742188"/>
      <use xlink:href="#DejaVuSans-65" x="183.154297"/>
      <use xlink:href="#DejaVuSans-20" x="244.677734"/>
      <use xlink:href="#DejaVuSans-4f" x="276.464844"/>
      <use xlink:href="#DejaVuSans-66" x="355.175781"/>
      <use xlink:href="#DejaVuSans-66" x="390.380859"/>
      <use xlink:href="#DejaVuSans-73" x="425.585938"/>
      <use xlink:href="#DejaVuSans-65" x="477.685547"/>
      <use xlink:href="#DejaVuSans-74" x="539.208984"/>
      <use xlink:href="#DejaVuSans-20" x="578.417969"/>
      <use xlink:href="#DejaVuSans-28" x="610.205078"/>
      <use xlink:href="#DejaVuSans-73" x="649.21875"/>
      <use xlink:href="#DejaVuSans-29" x="701.318359"/>
     </g>
    </g>
   </g>
   <g id="matplotlib.axis_2">
    <g id="ytick_1">
     <g id="line2d_7">
      <defs>
       <path id="m873243b348" d="M 0 0 
L -3.5 0 
" style="stroke: #000000; stroke-width: 0.8"/>
      </defs>
      <g>
       <use xlink:href="#m873243b348" x="34.240625" y="36.113684" style="stroke: #000000; stroke-width: 0.8"/>
      </g>
     </g>
     <g id="text_8">
      <!-- 0 -->
      <g transform="translate(20.878125 39.912903) scale(0.1 -0.1)">
       <use xlink:href="#DejaVuSans-30"/>
      </g>
     </g>
    </g>
    <g id="ytick_2">
     <g id="line2d_8">
      <g>
       <use xlink:href="#m873243b348" x="34.240625" y="89.166316" style="stroke: #000000; stroke-width: 0.8"/>
      </g>
     </g>
     <g id="text_9">
      <!-- 1 -->
      <g transform="translate(20.878125 92.965535) scale(0.1 -0.1)">
       <defs>
        <path id="DejaVuSans-31" d="M 794 531 
L 1825 531 
L 1825 4091 
L 703 3866 
L 703 4441 
L 1819 4666 
L 2450 4666 
L 2450 531 
L 3481 531 
L 3481 0 
L 794 0 
L 794 531 
z
" transform="scale(0.015625)"/>
       </defs>
       <use xlink:href="#DejaVuSans-31"/>
      </g>
     </g>
    </g>
    <g id="text_10">
     <!-- Task -->
     <g transform="translate(14.798438 73.432969) rotate(-90) scale(0.1 -0.1)">
      <defs>
       <path id="DejaVuSans-61" d="M 2194 1759 
Q 1497 1759 1228 1600 
Q 959 1441 959 1056 
Q 959 750 1161 570 
Q 1363 391 1709 391 
Q 2188 391 2477 730 
Q 2766 1069 2766 1631 
L 2766 1759 
L 2194 1759 
z
M 3341 1997 
L 3341 0 
L 2766 0 
L 2766 531 
Q 2569 213 2275 61 
Q 1981 -91 1556 -91 
Q 1019 -91 701 211 
Q 384 513 384 1019 
Q 384 1609 779 1909 
Q 1175 2209 1959 2209 
L 2766 2209 
L 2766 2266 
Q 2766 2663 2505 2880 
Q 2244 3097 1772 3097 
Q 1472 3097 1187 3025 
Q 903 2953 641 2809 
L 641 3341 
Q 956 3463 1253 3523 
Q 1550 3584 1831 3584 
Q 2591 3584 2966 3190 
Q 3341 2797 3341 1997 
z
" transform="scale(0.015625)"/>
       <path id="DejaVuSans-6b" d="M 581 4863 
L 1159 4863 
L 1159 1991 
L 2875 3500 
L 3609 3500 
L 1753 1863 
L 3688 0 
L 2938 0 
L 1159 1709 
L 1159 0 
L 581 0 
L 581 4863 
z
" transform="scale(0.015625)"/>
      </defs>
      <use xlink:href="#DejaVuSans-54"/>
      <use xlink:href="#DejaVuSans-61" x="44.583984"/>
      <use xlink:href="#DejaVuSans-73" x="105.863281"/>
      <use xlink:href="#DejaVuSans-6b" x="157.962891"/>
     </g>
    </g>
   </g>
   <g id="patch_3">
    <path d="M 34.240625 118.08 
L 34.240625 7.2 
" style="fill: none; stroke: #000000; stroke-width: 0.8; stroke-linejoin: miter; stroke-linecap: square"/>
   </g>
   <g id="patch_4">
    <path d="M 703.840625 118.08 
L 703.840625 7.2 
" style="fill: none; stroke: #000000; stroke-width: 0.8; stroke-linejoin: miter; stroke-linecap: square"/>
   </g>
   <g id="patch_5">
    <path d="M 34.240234 118.08 
L 703.839844 118.08 
" style="fill: none; stroke: #000000; stroke-width: 0.8; stroke-linejoin: miter; stroke-linecap: square"/>
   </g>
   <g id="patch_6">
    <path d="M 34.240234 7.2 
L 703.839844 7.2 
" style="fill: none; stroke: #000000; stroke-width: 0.8; stroke-linejoin: miter; stroke-linecap: square"/>
   </g>
   <g id="legend_1">
    <g id="patch_7">
     <path d="M 717.536625 147.303125 
L 895.581938 147.303125 
Q 897.581938 147.303125 897.581938 145.303125 
L 897.581938 14.2 
Q 897.581938 12.2 895.581938 12.2 
L 717.536625 12.2 
Q 715.536625 12.2 715.536625 14.2 
L 715.536625 145.303125 
Q 715.536625 147.303125 717.536625 147.303125 
z
" style="fill: #ffffff; opacity: 0.8; stroke: #cccccc; stroke-linejoin: miter"/>
    </g>
    <g id="text_11">
     <!-- Function -->
     <g transform="translate(785.294438 23.798438) scale(0.1 -0.1)">
      <defs>
       <path id="DejaVuSans-46" d="M 628 4666 
L 3309 4666 
L 3309 4134 
L 1259 4134 
L 1259 2759 
L 3109 2759 
L 3109 2228 
L 1259 2228 
L 1259 0 
L 628 0 
L 628 4666 
z
" transform="scale(0.015625)"/>
       <path id="DejaVuSans-75" d="M 544 1381 
L 544 3500 
L 1119 3500 
L 1119 1403 
Q 1119 906 1312 657 
Q 1506 409 1894 409 
Q 2359 409 2629 706 
Q 2900 1003 2900 1516 
L 2900 3500 
L 3475 3500 
L 3475 0 
L 2900 0 
L 2900 538 
Q 2691 219 2414 64 
Q 2138 -91 1772 -91 
Q 1169 -91 856 284 
Q 544 659 544 1381 
z
M 1991 3584 
L 1991 3584 
z
" transform="scale(0.015625)"/>
       <path id="DejaVuSans-6e" d="M 3513 2113 
L 3513 0 
L 2938 0 
L 2938 2094 
Q 2938 2591 2744 2837 
Q 2550 3084 2163 3084 
Q 1697 3084 1428 2787 
Q 1159 2491 1159 1978 
L 1159 0 
L 581 0 
L 581 3500 
L 1159 3500 
L 1159 2956 
Q 1366 3272 1645 3428 
Q 1925 3584 2291 3584 
Q 2894 3584 3203 3211 
Q 3513 2838 3513 2113 
z
" transform="scale(0.015625)"/>
       <path id="DejaVuSans-63" d="M 3122 3366 
L 3122 2828 
Q 2878 2963 2633 3030 
Q 2388 3097 2138 3097 
Q 1578 3097 1268 2742 
Q 959 2388 959 1747 
Q 959 1106 1268 751 
Q 1578 397 2138 397 
Q 2388 397 2633 464 
Q 2878 531 3122 666 
L 3122 134 
Q 2881 22 2623 -34 
Q 2366 -91 2075 -91 
Q 1284 -91 818 406 
Q 353 903 353 1747 
Q 353 2603 823 3093 
Q 1294 3584 2113 3584 
Q 2378 3584 2631 3529 
Q 2884 3475 3122 3366 
z
" transform="scale(0.015625)"/>
       <path id="DejaVuSans-6f" d="M 1959 3097 
Q 1497 3097 1228 2736 
Q 959 2375 959 1747 
Q 959 1119 1226 758 
Q 1494 397 1959 397 
Q 2419 397 2687 759 
Q 2956 1122 2956 1747 
Q 2956 2369 2687 2733 
Q 2419 3097 1959 3097 
z
M 1959 3584 
Q 2709 3584 3137 3096 
Q 3566 2609 3566 1747 
Q 3566 888 3137 398 
Q 2709 -91 1959 -91 
Q 1206 -91 779 398 
Q 353 888 353 1747 
Q 353 2609 779 3096 
Q 1206 3584 1959 3584 
z
" transform="scale(0.015625)"/>
      </defs>
      <use xlink:href="#DejaVuSans-46"/>
      <use xlink:href="#DejaVuSans-75" x="52.019531"/>
      <use xlink:href="#DejaVuSans-6e" x="115.398438"/>
      <use xlink:href="#DejaVuSans-63" x="178.777344"/>
      <use xlink:href="#DejaVuSans-74" x="233.757812"/>
      <use xlink:href="#DejaVuSans-69" x="272.966797"/>
      <use xlink:href="#DejaVuSans-6f" x="300.75"/>
      <use xlink:href="#DejaVuSans-6e" x="361.931641"/>
     </g>
    </g>
    <g id="patch_8">
     <path d="M 719.536625 38.476563 
L 739.536625 38.476563 
L 739.536625 31.476563 
L 719.536625 31.476563 
z
" style="fill: #1f77b4; stroke: #1f77b4; stroke-linejoin: miter"/>
    </g>
    <g id="text_12">
     <!-- force: all -&gt; block -->
     <g transform="translate(747.536625 38.476563) scale(0.1 -0.1)">
      <defs>
       <path id="DejaVuSans-72" d="M 2631 2963 
Q 2534 3019 2420 3045 
Q 2306 3072 2169 3072 
Q 1681 3072 1420 2755 
Q 1159 2438 1159 1844 
L 1159 0 
L 581 0 
L 581 3500 
L 1159 3500 
L 1159 2956 
Q 1341 3275 1631 3429 
Q 1922 3584 2338 3584 
Q 2397 3584 2469 3576 
Q 2541 3569 2628 3553 
L 2631 2963 
z
" transform="scale(0.015625)"/>
       <path id="DejaVuSans-3a" d="M 750 794 
L 1409 794 
L 1409 0 
L 750 0 
L 750 794 
z
M 750 3309 
L 1409 3309 
L 1409 2516 
L 750 2516 
L 750 3309 
z
" transform="scale(0.015625)"/>
       <path id="DejaVuSans-6c" d="M 603 4863 
L 1178 4863 
L 1178 0 
L 603 0 
L 603 4863 
z
" transform="scale(0.015625)"/>
       <path id="DejaVuSans-2d" d="M 313 2009 
L 1997 2009 
L 1997 1497 
L 313 1497 
L 313 2009 
z
" transform="scale(0.015625)"/>
       <path id="DejaVuSans-3e" d="M 678 3150 
L 678 3719 
L 4684 2266 
L 4684 1747 
L 678 294 
L 678 863 
L 3897 2003 
L 678 3150 
z
" transform="scale(0.015625)"/>
       <path id="DejaVuSans-62" d="M 3116 1747 
Q 3116 2381 2855 2742 
Q 2594 3103 2138 3103 
Q 1681 3103 1420 2742 
Q 1159 2381 1159 1747 
Q 1159 1113 1420 752 
Q 1681 391 2138 391 
Q 2594 391 2855 752 
Q 3116 1113 3116 1747 
z
M 1159 2969 
Q 1341 3281 1617 3432 
Q 1894 3584 2278 3584 
Q 2916 3584 3314 3078 
Q 3713 2572 3713 1747 
Q 3713 922 3314 415 
Q 2916 -91 2278 -91 
Q 1894 -91 1617 61 
Q 1341 213 1159 525 
L 1159 0 
L 581 0 
L 581 4863 
L 1159 4863 
L 1159 2969 
z
" transform="scale(0.015625)"/>
      </defs>
      <use xlink:href="#DejaVuSans-66"/>
      <use xlink:href="#DejaVuSans-6f" x="35.205078"/>
      <use xlink:href="#DejaVuSans-72" x="96.386719"/>
      <use xlink:href="#DejaVuSans-63" x="135.25"/>
      <use xlink:href="#DejaVuSans-65" x="190.230469"/>
      <use xlink:href="#DejaVuSans-3a" x="251.753906"/>
      <use xlink:href="#DejaVuSans-20" x="285.445312"/>
      <use xlink:href="#DejaVuSans-61" x="317.232422"/>
      <use xlink:href="#DejaVuSans-6c" x="378.511719"/>
      <use xlink:href="#DejaVuSans-6c" x="406.294922"/>
      <use xlink:href="#DejaVuSans-20" x="434.078125"/>
      <use xlink:href="#DejaVuSans-2d" x="465.865234"/>
      <use xlink:href="#DejaVuSans-3e" x="501.949219"/>
      <use xlink:href="#DejaVuSans-20" x="585.738281"/>
      <use xlink:href="#DejaVuSans-62" x="617.525391"/>
      <use xlink:href="#DejaVuSans-6c" x="681.001953"/>
      <use xlink:href="#DejaVuSans-6f" x="708.785156"/>
      <use xlink:href="#DejaVuSans-63" x="769.966797"/>
      <use xlink:href="#DejaVuSans-6b" x="824.947266"/>
     </g>
    </g>
    <g id="patch_9">
     <path d="M 719.536625 53.154688 
L 739.536625 53.154688 
L 739.536625 46.154688 
L 719.536625 46.154688 
z
" style="fill: #ff7f0e; stroke: #ff7f0e; stroke-linejoin: miter"/>
    </g>
    <g id="text_13">
     <!-- integration-loop -->
     <g transform="translate(747.536625 53.154688) scale(0.1 -0.1)">
      <defs>
       <path id="DejaVuSans-67" d="M 2906 1791 
Q 2906 2416 2648 2759 
Q 2391 3103 1925 3103 
Q 1463 3103 1205 2759 
Q 947 2416 947 1791 
Q 947 1169 1205 825 
Q 1463 481 1925 481 
Q 2391 481 2648 825 
Q 2906 1169 2906 1791 
z
M 3481 434 
Q 3481 -459 3084 -895 
Q 2688 -1331 1869 -1331 
Q 1566 -1331 1297 -1286 
Q 1028 -1241 775 -1147 
L 775 -588 
Q 1028 -725 1275 -790 
Q 1522 -856 1778 -856 
Q 2344 -856 2625 -561 
Q 2906 -266 2906 331 
L 2906 616 
Q 2728 306 2450 153 
Q 2172 0 1784 0 
Q 1141 0 747 490 
Q 353 981 353 1791 
Q 353 2603 747 3093 
Q 1141 3584 1784 3584 
Q 2172 3584 2450 3431 
Q 2728 3278 2906 2969 
L 2906 3500 
L 3481 3500 
L 3481 434 
z
" transform="scale(0.015625)"/>
       <path id="DejaVuSans-70" d="M 1159 525 
L 1159 -1331 
L 581 -1331 
L 581 3500 
L 1159 3500 
L 1159 2969 
Q 1341 3281 1617 3432 
Q 1894 3584 2278 3584 
Q 2916 3584 3314 3078 
Q 3713 2572 3713 1747 
Q 3713 922 3314 415 
Q 2916 -91 2278 -91 
Q 1894 -91 1617 61 
Q 1341 213 1159 525 
z
M 3116 1747 
Q 3116 2381 2855 2742 
Q 2594 3103 2138 3103 
Q 1681 3103 1420 2742 
Q 1159 2381 1159 1747 
Q 1159 1113 1420 752 
Q 1681 391 2138 391 
Q 2594 391 2855 752 
Q 3116 1113 3116 1747 
z
" transform="scale(0.015625)"/>
      </defs>
      <use xlink:href="#DejaVuSans-69"/>
      <use xlink:href="#DejaVuSans-6e" x="27.783203"/>
      <use xlink:href="#DejaVuSans-74" x="91.162109"/>
      <use xlink:href="#DejaVuSans-65" x="130.371094"/>
      <use xlink:href="#DejaVuSans-67" x="191.894531"/>
      <use xlink:href="#DejaVuSans-72" x="255.371094"/>
      <use xlink:href="#DejaVuSans-61" x="296.484375"/>
      <use xlink:href="#DejaVuSans-74" x="357.763672"/>
      <use xlink:href="#DejaVuSans-69" x="396.972656"/>
      <use xlink:href="#DejaVuSans-6f" x="424.755859"/>
      <use xlink:href="#DejaVuSans-6e" x="485.9375"/>
      <use xlink:href="#DejaVuSans-2d" x="549.316406"/>
      <use xlink:href="#DejaVuSans-6c" x="585.400391"/>
      <use xlink:href="#DejaVuSans-6f" x="613.183594"/>
      <use xlink:href="#DejaVuSans-6f" x="674.365234"/>
      <use xlink:href="#DejaVuSans-70" x="735.546875"/>
     </g>
    </g>
    <g id="patch_10">
     <path d="M 719.536625 67.832813 
L 739.536625 67.832813 
L 739.536625 60.832813 
L 719.536625 60.832813 
z
" style="fill: #2ca02c; stroke: #2ca02c; stroke-linejoin: miter"/>
    </g>
    <g id="text_14">
     <!-- main -->
     <g transform="translate(747.536625 67.832813) scale(0.1 -0.1)">
      <use xlink:href="#DejaVuSans-6d"/>
      <use xlink:href="#DejaVuSans-61" x="97.412109"/>
      <use xlink:href="#DejaVuSans-69" x="158.691406"/>
      <use xlink:href="#DejaVuSans-6e" x="186.474609"/>
     </g>
    </g>
    <g id="patch_11">
     <path d="M 719.536625 82.510938 
L 739.536625 82.510938 
L 739.536625 75.510938 
L 719.536625 75.510938 
z
" style="fill: #d62728; stroke: #d62728; stroke-linejoin: miter"/>
    </g>
    <g id="text_15">
     <!-- pos,force: block -&gt; all -->
     <g transform="translate(747.536625 82.510938) scale(0.1 -0.1)">
      <defs>
       <path id="DejaVuSans-2c" d="M 750 794 
L 1409 794 
L 1409 256 
L 897 -744 
L 494 -744 
L 750 256 
L 750 794 
z
" transform="scale(0.015625)"/>
      </defs>
      <use xlink:href="#DejaVuSans-70"/>
      <use xlink:href="#DejaVuSans-6f" x="63.476562"/>
      <use xlink:href="#DejaVuSans-73" x="124.658203"/>
      <use xlink:href="#DejaVuSans-2c" x="176.757812"/>
      <use xlink:href="#DejaVuSans-66" x="208.544922"/>
      <use xlink:href="#DejaVuSans-6f" x="243.75"/>
      <use xlink:href="#DejaVuSans-72" x="304.931641"/>
      <use xlink:href="#DejaVuSans-63" x="343.794922"/>
      <use xlink:href="#DejaVuSans-65" x="398.775391"/>
      <use xlink:href="#DejaVuSans-3a" x="460.298828"/>
      <use xlink:href="#DejaVuSans-20" x="493.990234"/>
      <use xlink:href="#DejaVuSans-62" x="525.777344"/>
      <use xlink:href="#DejaVuSans-6c" x="589.253906"/>
      <use xlink:href="#DejaVuSans-6f" x="617.037109"/>
      <use xlink:href="#DejaVuSans-63" x="678.21875"/>
      <use xlink:href="#DejaVuSans-6b" x="733.199219"/>
      <use xlink:href="#DejaVuSans-20" x="791.109375"/>
      <use xlink:href="#DejaVuSans-2d" x="822.896484"/>
      <use xlink:href="#DejaVuSans-3e" x="858.980469"/>
      <use xlink:href="#DejaVuSans-20" x="942.769531"/>
      <use xlink:href="#DejaVuSans-61" x="974.556641"/>
      <use xlink:href="#DejaVuSans-6c" x="1035.835938"/>
      <use xlink:href="#DejaVuSans-6c" x="1063.619141"/>
     </g>
    </g>
    <g id="patch_12">
     <path d="M 719.536625 97.189063 
L 739.536625 97.189063 
L 739.536625 90.189063 
L 719.536625 90.189063 
z
" style="fill: #9467bd; stroke: #9467bd; stroke-linejoin: miter"/>
    </g>
    <g id="text_16">
     <!-- pos,force: master -&gt; block -->
     <g transform="translate(747.536625 97.189063) scale(0.1 -0.1)">
      <use xlink:href="#DejaVuSans-70"/>
      <use xlink:href="#DejaVuSans-6f" x="63.476562"/>
      <use xlink:href="#DejaVuSans-73" x="124.658203"/>
      <use xlink:href="#DejaVuSans-2c" x="176.757812"/>
      <use xlink:href="#DejaVuSans-66" x="208.544922"/>
      <use xlink:href="#DejaVuSans-6f" x="243.75"/>
      <use xlink:href="#DejaVuSans-72" x="304.931641"/>
      <use xlink:href="#DejaVuSans-63" x="343.794922"/>
      <use xlink:href="#DejaVuSans-65" x="398.775391"/>
      <use xlink:href="#DejaVuSans-3a" x="460.298828"/>
      <use xlink:href="#DejaVuSans-20" x="493.990234"/>
      <use xlink:href="#DejaVuSans-6d" x="525.777344"/>
      <use xlink:href="#DejaVuSans-61" x="623.189453"/>
      <use xlink:href="#DejaVuSans-73" x="684.46875"/>
      <use xlink:href="#DejaVuSans-74" x="736.568359"/>
      <use xlink:href="#DejaVuSans-65" x="775.777344"/>
      <use xlink:href="#DejaVuSans-72" x="837.300781"/>
      <use xlink:href="#DejaVuSans-20" x="878.414062"/>
      <use xlink:href="#DejaVuSans-2d" x="910.201172"/>
      <use xlink:href="#DejaVuSans-3e" x="946.285156"/>
      <use xlink:href="#DejaVuSans-20" x="1030.074219"/>
      <use xlink:href="#DejaVuSans-62" x="1061.861328"/>
      <use xlink:href="#DejaVuSans-6c" x="1125.337891"/>
      <use xlink:href="#DejaVuSans-6f" x="1153.121094"/>
      <use xlink:href="#DejaVuSans-63" x="1214.302734"/>
      <use xlink:href="#DejaVuSans-6b" x="1269.283203"/>
     </g>
    </g>
    <g id="patch_13">
     <path d="M 719.536625 111.867188 
L 739.536625 111.867188 
L 739.536625 104.867188 
L 719.536625 104.867188 
z
" style="fill: #8c564b; stroke: #8c564b; stroke-linejoin: miter"/>
    </g>
    <g id="text_17">
     <!-- pos: all -&gt; master/block -->
     <g transform="translate(747.536625 111.867188) scale(0.1 -0.1)">
      <defs>
       <path id="DejaVuSans-2f" d="M 1625 4666 
L 2156 4666 
L 531 -594 
L 0 -594 
L 1625 4666 
z
" transform="scale(0.015625)"/>
      </defs>
      <use xlink:href="#DejaVuSans-70"/>
      <use xlink:href="#DejaVuSans-6f" x="63.476562"/>
      <use xlink:href="#DejaVuSans-73" x="124.658203"/>
      <use xlink:href="#DejaVuSans-3a" x="176.757812"/>
      <use xlink:href="#DejaVuSans-20" x="210.449219"/>
      <use xlink:href="#DejaVuSans-61" x="242.236328"/>
      <use xlink:href="#DejaVuSans-6c" x="303.515625"/>
      <use xlink:href="#DejaVuSans-6c" x="331.298828"/>
      <use xlink:href="#DejaVuSans-20" x="359.082031"/>
      <use xlink:href="#DejaVuSans-2d" x="390.869141"/>
      <use xlink:href="#DejaVuSans-3e" x="426.953125"/>
      <use xlink:href="#DejaVuSans-20" x="510.742188"/>
      <use xlink:href="#DejaVuSans-6d" x="542.529297"/>
      <use xlink:href="#DejaVuSans-61" x="639.941406"/>
      <use xlink:href="#DejaVuSans-73" x="701.220703"/>
      <use xlink:href="#DejaVuSans-74" x="753.320312"/>
      <use xlink:href="#DejaVuSans-65" x="792.529297"/>
      <use xlink:href="#DejaVuSans-72" x="854.052734"/>
      <use xlink:href="#DejaVuSans-2f" x="895.166016"/>
      <use xlink:href="#DejaVuSans-62" x="928.857422"/>
      <use xlink:href="#DejaVuSans-6c" x="992.333984"/>
      <use xlink:href="#DejaVuSans-6f" x="1020.117188"/>
      <use xlink:href="#DejaVuSans-63" x="1081.298828"/>
      <use xlink:href="#DejaVuSans-6b" x="1136.279297"/>
     </g>
    </g>
    <g id="patch_14">
     <path d="M 719.536625 126.545313 
L 739.536625 126.545313 
L 739.536625 119.545313 
L 719.536625 119.545313 
z
" style="fill: #e377c2; stroke: #e377c2; stroke-linejoin: miter"/>
    </g>
    <g id="text_18">
     <!-- w,r,next: init -->
     <g transform="translate(747.536625 126.545313) scale(0.1 -0.1)">
      <defs>
       <path id="DejaVuSans-77" d="M 269 3500 
L 844 3500 
L 1563 769 
L 2278 3500 
L 2956 3500 
L 3675 769 
L 4391 3500 
L 4966 3500 
L 4050 0 
L 3372 0 
L 2619 2869 
L 1863 0 
L 1184 0 
L 269 3500 
z
" transform="scale(0.015625)"/>
       <path id="DejaVuSans-78" d="M 3513 3500 
L 2247 1797 
L 3578 0 
L 2900 0 
L 1881 1375 
L 863 0 
L 184 0 
L 1544 1831 
L 300 3500 
L 978 3500 
L 1906 2253 
L 2834 3500 
L 3513 3500 
z
" transform="scale(0.015625)"/>
      </defs>
      <use xlink:href="#DejaVuSans-77"/>
      <use xlink:href="#DejaVuSans-2c" x="81.787109"/>
      <use xlink:href="#DejaVuSans-72" x="113.574219"/>
      <use xlink:href="#DejaVuSans-2c" x="154.6875"/>
      <use xlink:href="#DejaVuSans-6e" x="186.474609"/>
      <use xlink:href="#DejaVuSans-65" x="249.853516"/>
      <use xlink:href="#DejaVuSans-78" x="309.626953"/>
      <use xlink:href="#DejaVuSans-74" x="368.806641"/>
      <use xlink:href="#DejaVuSans-3a" x="408.015625"/>
      <use xlink:href="#DejaVuSans-20" x="441.707031"/>
      <use xlink:href="#DejaVuSans-69" x="473.494141"/>
      <use xlink:href="#DejaVuSans-6e" x="501.277344"/>
      <use xlink:href="#DejaVuSans-69" x="564.65625"/>
      <use xlink:href="#DejaVuSans-74" x="592.439453"/>
     </g>
    </g>
    <g id="patch_15">
     <path d="M 719.536625 141.223437 
L 739.536625 141.223437 
L 739.536625 134.223437 
L 719.536625 134.223437 
z
" style="fill: #7f7f7f; stroke: #7f7f7f; stroke-linejoin: miter"/>
    </g>
    <g id="text_19">
     <!-- w,r,next: master -&gt; ?/halo/all -->
     <g transform="translate(747.536625 141.223437) scale(0.1 -0.1)">
      <defs>
       <path id="DejaVuSans-3f" d="M 1222 794 
L 1856 794 
L 1856 0 
L 1222 0 
L 1222 794 
z
M 1838 1253 
L 1241 1253 
L 1241 1734 
Q 1241 2050 1328 2253 
Q 1416 2456 1697 2725 
L 1978 3003 
Q 2156 3169 2236 3316 
Q 2316 3463 2316 3616 
Q 2316 3894 2111 4066 
Q 1906 4238 1569 4238 
Q 1322 4238 1042 4128 
Q 763 4019 459 3809 
L 459 4397 
Q 753 4575 1054 4662 
Q 1356 4750 1678 4750 
Q 2253 4750 2601 4447 
Q 2950 4144 2950 3647 
Q 2950 3409 2837 3195 
Q 2725 2981 2444 2713 
L 2169 2444 
Q 2022 2297 1961 2214 
Q 1900 2131 1875 2053 
Q 1856 1988 1847 1894 
Q 1838 1800 1838 1638 
L 1838 1253 
z
" transform="scale(0.015625)"/>
       <path id="DejaVuSans-68" d="M 3513 2113 
L 3513 0 
L 2938 0 
L 2938 2094 
Q 2938 2591 2744 2837 
Q 2550 3084 2163 3084 
Q 1697 3084 1428 2787 
Q 1159 2491 1159 1978 
L 1159 0 
L 581 0 
L 581 4863 
L 1159 4863 
L 1159 2956 
Q 1366 3272 1645 3428 
Q 1925 3584 2291 3584 
Q 2894 3584 3203 3211 
Q 3513 2838 3513 2113 
z
" transform="scale(0.015625)"/>
      </defs>
      <use xlink:href="#DejaVuSans-77"/>
      <use xlink:href="#DejaVuSans-2c" x="81.787109"/>
      <use xlink:href="#DejaVuSans-72" x="113.574219"/>
      <use xlink:href="#DejaVuSans-2c" x="154.6875"/>
      <use xlink:href="#DejaVuSans-6e" x="186.474609"/>
      <use xlink:href="#DejaVuSans-65" x="249.853516"/>
      <use xlink:href="#DejaVuSans-78" x="309.626953"/>
      <use xlink:href="#DejaVuSans-74" x="368.806641"/>
      <use xlink:href="#DejaVuSans-3a" x="408.015625"/>
      <use xlink:href="#DejaVuSans-20" x="441.707031"/>
      <use xlink:href="#DejaVuSans-6d" x="473.494141"/>
      <use xlink:href="#DejaVuSans-61" x="570.90625"/>
      <use xlink:href="#DejaVuSans-73" x="632.185547"/>
      <use xlink:href="#DejaVuSans-74" x="684.285156"/>
      <use xlink:href="#DejaVuSans-65" x="723.494141"/>
      <use xlink:href="#DejaVuSans-72" x="785.017578"/>
      <use xlink:href="#DejaVuSans-20" x="826.130859"/>
      <use xlink:href="#DejaVuSans-2d" x="857.917969"/>
      <use xlink:href="#DejaVuSans-3e" x="894.001953"/>
      <use xlink:href="#DejaVuSans-20" x="977.791016"/>
      <use xlink:href="#DejaVuSans-3f" x="1009.578125"/>
      <use xlink:href="#DejaVuSans-2f" x="1062.654297"/>
      <use xlink:href="#DejaVuSans-68" x="1096.345703"/>
      <use xlink:href="#DejaVuSans-61" x="1159.724609"/>
      <use xlink:href="#DejaVuSans-6c" x="1221.003906"/>
      <use xlink:href="#DejaVuSans-6f" x="1248.787109"/>
      <use xlink:href="#DejaVuSans-2f" x="1309.96875"/>
      <use xlink:href="#DejaVuSans-61" x="1343.660156"/>
      <use xlink:href="#DejaVuSans-6c" x="1404.939453"/>
      <use xlink:href="#DejaVuSans-6c" x="1432.722656"/>
     </g>
    </g>
   </g>
   <g id="BrokenBarHCollection_1">
    <path d="M 34.240234 65.292632 
L 34.240234 113.04 
L 703.839844 113.04 
L 703.839844 65.292632 
L 34.240234 65.292632 
z
" clip-path="url(#p320f9272a1)" style="fill: #2ca02c"/>
   </g>
   <g id="BrokenBarHCollection_2">
    <path d="M 34.300781 12.24 
L 34.300781 59.987368 
L 703.833984 59.987368 
L 703.833984 12.24 
L 34.300781 12.24 
z
" clip-path="url(#p320f9272a1)" style="fill: #2ca02c"/>
   </g>
   <g id="BrokenBarHCollection_3">
    <path d="M 37.572266 12.24 
L 37.572266 59.987368 
L 703.818359 59.987368 
L 703.818359 12.24 
L 37.572266 12.24 
z
" clip-path="url(#p320f9272a1)" style="fill: #ff7f0e"/>
   </g>
   <g id="BrokenBarHCollection_4">
    <path d="M 37.572266 12.24 
L 37.572266 59.987368 
L 38.332031 59.987368 
L 38.332031 12.24 
L 37.572266 12.24 
z
" clip-path="url(#p320f9272a1)" style="fill: #9467bd"/>
   </g>
   <g id="BrokenBarHCollection_5">
    <path d="M 37.578125 65.292632 
L 37.578125 113.04 
L 703.833984 113.04 
L 703.833984 65.292632 
L 37.578125 65.292632 
z
" clip-path="url(#p320f9272a1)" style="fill: #ff7f0e"/>
   </g>
   <g id="BrokenBarHCollection_6">
    <path d="M 37.578125 65.292632 
L 37.578125 113.04 
L 38.332031 113.04 
L 38.332031 65.292632 
L 37.578125 65.292632 
z
" clip-path="url(#p320f9272a1)" style="fill: #9467bd"/>
   </g>
   <g id="BrokenBarHCollection_7">
    <path d="M 38.966797 12.24 
L 38.966797 59.987368 
L 40.351562 59.987368 
L 40.351562 12.24 
L 38.966797 12.24 
z
" clip-path="url(#p320f9272a1)" style="fill: #d62728"/>
   </g>
   <g id="BrokenBarHCollection_8">
    <path d="M 38.972656 65.292632 
L 38.972656 113.04 
L 40.417969 113.04 
L 40.417969 65.292632 
L 38.972656 65.292632 
z
" clip-path="url(#p320f9272a1)" style="fill: #d62728"/>
   </g>
   <g id="BrokenBarHCollection_9">
    <path d="M 40.351562 12.24 
L 40.351562 59.987368 
L 40.408203 59.987368 
L 40.408203 12.24 
L 40.351562 12.24 
z
" clip-path="url(#p320f9272a1)" style="fill: #e377c2"/>
   </g>
   <g id="BrokenBarHCollection_10">
    <path d="M 40.417969 65.292632 
L 40.417969 113.04 
L 40.423828 113.04 
L 40.423828 65.292632 
L 40.417969 65.292632 
z
" clip-path="url(#p320f9272a1)" style="fill: #e377c2"/>
   </g>
   <g id="BrokenBarHCollection_11">
    <path d="M 40.427734 65.292632 
L 40.427734 113.04 
L 44.089844 113.04 
L 44.089844 65.292632 
L 40.427734 65.292632 
z
" clip-path="url(#p320f9272a1)" style="fill: #7f7f7f"/>
   </g>
   <g id="BrokenBarHCollection_12">
    <path d="M 41.912109 12.24 
L 41.912109 59.987368 
L 44.089844 59.987368 
L 44.089844 12.24 
L 41.912109 12.24 
z
" clip-path="url(#p320f9272a1)" style="fill: #7f7f7f"/>
   </g>
   <g id="BrokenBarHCollection_13">
    <path d="M 103.644531 65.292632 
L 103.644531 113.04 
L 172.876953 113.04 
L 172.876953 65.292632 
L 103.644531 65.292632 
z
" clip-path="url(#p320f9272a1)" style="fill: #8c564b"/>
   </g>
   <g id="BrokenBarHCollection_14">
    <path d="M 172.607422 12.24 
L 172.607422 59.987368 
L 172.910156 59.987368 
L 172.910156 12.24 
L 172.607422 12.24 
z
" clip-path="url(#p320f9272a1)" style="fill: #8c564b"/>
   </g>
   <g id="BrokenBarHCollection_15">
    <path d="M 172.876953 65.292632 
L 172.876953 113.04 
L 173.164062 113.04 
L 173.164062 65.292632 
L 172.876953 65.292632 
z
" clip-path="url(#p320f9272a1)" style="fill: #1f77b4"/>
   </g>
   <g id="BrokenBarHCollection_16">
    <path d="M 172.910156 12.24 
L 172.910156 59.987368 
L 173.152344 59.987368 
L 173.152344 12.24 
L 172.910156 12.24 
z
" clip-path="url(#p320f9272a1)" style="fill: #1f77b4"/>
   </g>
   <g id="BrokenBarHCollection_17">
    <path d="M 173.539062 65.292632 
L 173.539062 113.04 
L 173.681641 113.04 
L 173.681641 65.292632 
L 173.539062 65.292632 
z
" clip-path="url(#p320f9272a1)" style="fill: #9467bd"/>
   </g>
   <g id="BrokenBarHCollection_18">
    <path d="M 173.560547 12.24 
L 173.560547 59.987368 
L 173.681641 59.987368 
L 173.681641 12.24 
L 173.560547 12.24 
z
" clip-path="url(#p320f9272a1)" style="fill: #9467bd"/>
   </g>
   <g id="BrokenBarHCollection_19">
    <path d="M 174.128906 12.24 
L 174.128906 59.987368 
L 174.449219 59.987368 
L 174.449219 12.24 
L 174.128906 12.24 
z
" clip-path="url(#p320f9272a1)" style="fill: #d62728"/>
   </g>
   <g id="BrokenBarHCollection_20">
    <path d="M 174.134766 65.292632 
L 174.134766 113.04 
L 174.449219 113.04 
L 174.449219 65.292632 
L 174.134766 65.292632 
z
" clip-path="url(#p320f9272a1)" style="fill: #d62728"/>
   </g>
   <g id="BrokenBarHCollection_21">
    <path d="M 174.449219 65.292632 
L 174.449219 113.04 
L 174.542969 113.04 
L 174.542969 65.292632 
L 174.449219 65.292632 
z
" clip-path="url(#p320f9272a1)" style="fill: #e377c2"/>
   </g>
   <g id="BrokenBarHCollection_22">
    <path d="M 174.449219 12.24 
L 174.449219 59.987368 
L 174.458984 59.987368 
L 174.458984 12.24 
L 174.449219 12.24 
z
" clip-path="url(#p320f9272a1)" style="fill: #e377c2"/>
   </g>
   <g id="BrokenBarHCollection_23">
    <path d="M 174.542969 65.292632 
L 174.542969 113.04 
L 176.716797 113.04 
L 176.716797 65.292632 
L 174.542969 65.292632 
z
" clip-path="url(#p320f9272a1)" style="fill: #7f7f7f"/>
   </g>
   <g id="BrokenBarHCollection_24">
    <path d="M 175.304688 12.24 
L 175.304688 59.987368 
L 176.716797 59.987368 
L 176.716797 12.24 
L 175.304688 12.24 
z
" clip-path="url(#p320f9272a1)" style="fill: #7f7f7f"/>
   </g>
   <g id="BrokenBarHCollection_25">
    <path d="M 236.103516 65.292632 
L 236.103516 113.04 
L 305.078125 113.04 
L 305.078125 65.292632 
L 236.103516 65.292632 
z
" clip-path="url(#p320f9272a1)" style="fill: #8c564b"/>
   </g>
   <g id="BrokenBarHCollection_26">
    <path d="M 304.878906 12.24 
L 304.878906 59.987368 
L 305.105469 59.987368 
L 305.105469 12.24 
L 304.878906 12.24 
z
" clip-path="url(#p320f9272a1)" style="fill: #8c564b"/>
   </g>
   <g id="BrokenBarHCollection_27">
    <path d="M 305.078125 65.292632 
L 305.078125 113.04 
L 305.332031 113.04 
L 305.332031 65.292632 
L 305.078125 65.292632 
z
" clip-path="url(#p320f9272a1)" style="fill: #1f77b4"/>
   </g>
   <g id="BrokenBarHCollection_28">
    <path d="M 305.105469 12.24 
L 305.105469 59.987368 
L 305.320312 59.987368 
L 305.320312 12.24 
L 305.105469 12.24 
z
" clip-path="url(#p320f9272a1)" style="fill: #1f77b4"/>
   </g>
   <g id="BrokenBarHCollection_29">
    <path d="M 305.501953 12.24 
L 305.501953 59.987368 
L 305.634766 59.987368 
L 305.634766 12.24 
L 305.501953 12.24 
z
" clip-path="url(#p320f9272a1)" style="fill: #9467bd"/>
   </g>
   <g id="BrokenBarHCollection_30">
    <path d="M 305.511719 65.292632 
L 305.511719 113.04 
L 305.628906 113.04 
L 305.628906 65.292632 
L 305.511719 65.292632 
z
" clip-path="url(#p320f9272a1)" style="fill: #9467bd"/>
   </g>
   <g id="BrokenBarHCollection_31">
    <path d="M 306.080078 12.24 
L 306.080078 59.987368 
L 306.394531 59.987368 
L 306.394531 12.24 
L 306.080078 12.24 
z
" clip-path="url(#p320f9272a1)" style="fill: #d62728"/>
   </g>
   <g id="BrokenBarHCollection_32">
    <path d="M 306.080078 65.292632 
L 306.080078 113.04 
L 306.394531 113.04 
L 306.394531 65.292632 
L 306.080078 65.292632 
z
" clip-path="url(#p320f9272a1)" style="fill: #d62728"/>
   </g>
   <g id="BrokenBarHCollection_33">
    <path d="M 306.394531 65.292632 
L 306.394531 113.04 
L 306.466797 113.04 
L 306.466797 65.292632 
L 306.394531 65.292632 
z
" clip-path="url(#p320f9272a1)" style="fill: #e377c2"/>
   </g>
   <g id="BrokenBarHCollection_34">
    <path d="M 306.394531 12.24 
L 306.394531 59.987368 
L 306.40625 59.987368 
L 306.40625 12.24 
L 306.394531 12.24 
z
" clip-path="url(#p320f9272a1)" style="fill: #e377c2"/>
   </g>
   <g id="BrokenBarHCollection_35">
    <path d="M 306.466797 65.292632 
L 306.466797 113.04 
L 308.546875 113.04 
L 308.546875 65.292632 
L 306.466797 65.292632 
z
" clip-path="url(#p320f9272a1)" style="fill: #7f7f7f"/>
   </g>
   <g id="BrokenBarHCollection_36">
    <path d="M 307.25 12.24 
L 307.25 59.987368 
L 308.546875 59.987368 
L 308.546875 12.24 
L 307.25 12.24 
z
" clip-path="url(#p320f9272a1)" style="fill: #7f7f7f"/>
   </g>
   <g id="BrokenBarHCollection_37">
    <path d="M 367.917969 65.292632 
L 367.917969 113.04 
L 437.736328 113.04 
L 437.736328 65.292632 
L 367.917969 65.292632 
z
" clip-path="url(#p320f9272a1)" style="fill: #8c564b"/>
   </g>
   <g id="BrokenBarHCollection_38">
    <path d="M 437.376953 12.24 
L 437.376953 59.987368 
L 437.773438 59.987368 
L 437.773438 12.24 
L 437.376953 12.24 
z
" clip-path="url(#p320f9272a1)" style="fill: #8c564b"/>
   </g>
   <g id="BrokenBarHCollection_39">
    <path d="M 437.736328 65.292632 
L 437.736328 113.04 
L 438.005859 113.04 
L 438.005859 65.292632 
L 437.736328 65.292632 
z
" clip-path="url(#p320f9272a1)" style="fill: #1f77b4"/>
   </g>
   <g id="BrokenBarHCollection_40">
    <path d="M 437.773438 12.24 
L 437.773438 59.987368 
L 437.994141 59.987368 
L 437.994141 12.24 
L 437.773438 12.24 
z
" clip-path="url(#p320f9272a1)" style="fill: #1f77b4"/>
   </g>
   <g id="BrokenBarHCollection_41">
    <path d="M 438.175781 12.24 
L 438.175781 59.987368 
L 438.308594 59.987368 
L 438.308594 12.24 
L 438.175781 12.24 
z
" clip-path="url(#p320f9272a1)" style="fill: #9467bd"/>
   </g>
   <g id="BrokenBarHCollection_42">
    <path d="M 438.1875 65.292632 
L 438.1875 113.04 
L 438.308594 113.04 
L 438.308594 65.292632 
L 438.1875 65.292632 
z
" clip-path="url(#p320f9272a1)" style="fill: #9467bd"/>
   </g>
   <g id="BrokenBarHCollection_43">
    <path d="M 438.761719 12.24 
L 438.761719 59.987368 
L 439.080078 59.987368 
L 439.080078 12.24 
L 438.761719 12.24 
z
" clip-path="url(#p320f9272a1)" style="fill: #d62728"/>
   </g>
   <g id="BrokenBarHCollection_44">
    <path d="M 438.761719 65.292632 
L 438.761719 113.04 
L 439.080078 113.04 
L 439.080078 65.292632 
L 438.761719 65.292632 
z
" clip-path="url(#p320f9272a1)" style="fill: #d62728"/>
   </g>
   <g id="BrokenBarHCollection_45">
    <path d="M 439.080078 65.292632 
L 439.080078 113.04 
L 439.146484 113.04 
L 439.146484 65.292632 
L 439.080078 65.292632 
z
" clip-path="url(#p320f9272a1)" style="fill: #e377c2"/>
   </g>
   <g id="BrokenBarHCollection_46">
    <path d="M 439.080078 12.24 
L 439.080078 59.987368 
L 439.085938 59.987368 
L 439.085938 12.24 
L 439.080078 12.24 
z
" clip-path="url(#p320f9272a1)" style="fill: #e377c2"/>
   </g>
   <g id="BrokenBarHCollection_47">
    <path d="M 439.146484 65.292632 
L 439.146484 113.04 
L 441.269531 113.04 
L 441.269531 65.292632 
L 439.146484 65.292632 
z
" clip-path="url(#p320f9272a1)" style="fill: #7f7f7f"/>
   </g>
   <g id="BrokenBarHCollection_48">
    <path d="M 439.919922 12.24 
L 439.919922 59.987368 
L 441.269531 59.987368 
L 441.269531 12.24 
L 439.919922 12.24 
z
" clip-path="url(#p320f9272a1)" style="fill: #7f7f7f"/>
   </g>
   <g id="BrokenBarHCollection_49">
    <path d="M 500.679688 65.292632 
L 500.679688 113.04 
L 570.697266 113.04 
L 570.697266 65.292632 
L 500.679688 65.292632 
z
" clip-path="url(#p320f9272a1)" style="fill: #8c564b"/>
   </g>
   <g id="BrokenBarHCollection_50">
    <path d="M 570.376953 12.24 
L 570.376953 59.987368 
L 570.740234 59.987368 
L 570.740234 12.24 
L 570.376953 12.24 
z
" clip-path="url(#p320f9272a1)" style="fill: #8c564b"/>
   </g>
   <g id="BrokenBarHCollection_51">
    <path d="M 570.697266 65.292632 
L 570.697266 113.04 
L 570.955078 113.04 
L 570.955078 65.292632 
L 570.697266 65.292632 
z
" clip-path="url(#p320f9272a1)" style="fill: #1f77b4"/>
   </g>
   <g id="BrokenBarHCollection_52">
    <path d="M 570.740234 12.24 
L 570.740234 59.987368 
L 570.945312 59.987368 
L 570.945312 12.24 
L 570.740234 12.24 
z
" clip-path="url(#p320f9272a1)" style="fill: #1f77b4"/>
   </g>
   <g id="BrokenBarHCollection_53">
    <path d="M 571.126953 12.24 
L 571.126953 59.987368 
L 571.259766 59.987368 
L 571.259766 12.24 
L 571.126953 12.24 
z
" clip-path="url(#p320f9272a1)" style="fill: #9467bd"/>
   </g>
   <g id="BrokenBarHCollection_54">
    <path d="M 571.136719 65.292632 
L 571.136719 113.04 
L 571.259766 113.04 
L 571.259766 65.292632 
L 571.136719 65.292632 
z
" clip-path="url(#p320f9272a1)" style="fill: #9467bd"/>
   </g>
   <g id="BrokenBarHCollection_55">
    <path d="M 571.705078 12.24 
L 571.705078 59.987368 
L 572.025391 59.987368 
L 572.025391 12.24 
L 571.705078 12.24 
z
" clip-path="url(#p320f9272a1)" style="fill: #d62728"/>
   </g>
   <g id="BrokenBarHCollection_56">
    <path d="M 571.705078 65.292632 
L 571.705078 113.04 
L 572.025391 113.04 
L 572.025391 65.292632 
L 571.705078 65.292632 
z
" clip-path="url(#p320f9272a1)" style="fill: #d62728"/>
   </g>
   <g id="BrokenBarHCollection_57">
    <path d="M 572.025391 65.292632 
L 572.025391 113.04 
L 572.091797 113.04 
L 572.091797 65.292632 
L 572.025391 65.292632 
z
" clip-path="url(#p320f9272a1)" style="fill: #e377c2"/>
   </g>
   <g id="BrokenBarHCollection_58">
    <path d="M 572.025391 12.24 
L 572.025391 59.987368 
L 572.03125 59.987368 
L 572.03125 12.24 
L 572.025391 12.24 
z
" clip-path="url(#p320f9272a1)" style="fill: #e377c2"/>
   </g>
   <g id="BrokenBarHCollection_59">
    <path d="M 572.091797 65.292632 
L 572.091797 113.04 
L 574.238281 113.04 
L 574.238281 65.292632 
L 572.091797 65.292632 
z
" clip-path="url(#p320f9272a1)" style="fill: #7f7f7f"/>
   </g>
   <g id="BrokenBarHCollection_60">
    <path d="M 572.902344 12.24 
L 572.902344 59.987368 
L 574.238281 59.987368 
L 574.238281 12.24 
L 572.902344 12.24 
z
" clip-path="url(#p320f9272a1)" style="fill: #7f7f7f"/>
   </g>
   <g id="BrokenBarHCollection_61">
    <path d="M 633.839844 65.292632 
L 633.839844 113.04 
L 703.388672 113.04 
L 703.388672 65.292632 
L 633.839844 65.292632 
z
" clip-path="url(#p320f9272a1)" style="fill: #8c564b"/>
   </g>
   <g id="BrokenBarHCollection_62">
    <path d="M 703.066406 12.24 
L 703.066406 59.987368 
L 703.425781 59.987368 
L 703.425781 12.24 
L 703.066406 12.24 
z
" clip-path="url(#p320f9272a1)" style="fill: #8c564b"/>
   </g>
   <g id="BrokenBarHCollection_63">
    <path d="M 703.388672 65.292632 
L 703.388672 113.04 
L 703.652344 113.04 
L 703.652344 65.292632 
L 703.388672 65.292632 
z
" clip-path="url(#p320f9272a1)" style="fill: #1f77b4"/>
   </g>
   <g id="BrokenBarHCollection_64">
    <path d="M 703.425781 12.24 
L 703.425781 59.987368 
L 703.642578 59.987368 
L 703.642578 12.24 
L 703.425781 12.24 
z
" clip-path="url(#p320f9272a1)" style="fill: #1f77b4"/>
   </g>
  </g>
 </g>
 <defs>
  <clipPath id="p320f9272a1">
   <rect x="34.240625" y="7.2" width="669.6" height="110.88"/>
  </clipPath>
 </defs>
</svg>
